# Blender v3.4.0 OBJ File: 'apple_tree13_tree-gen.blend'
# www.blender.org
o Leaves.062_leaves.062
v -0.021163 -0.117501 1.598694
v -0.031106 -0.128550 1.600707
v -0.020040 -0.118481 1.598859
v -0.029983 -0.129531 1.600873
v -0.072711 -0.220470 1.617184
v -0.023641 -0.154797 1.605282
v -0.037267 -0.192225 1.611969
v -0.117634 -0.181250 1.610575
v -0.120030 -0.228483 1.618914
v -0.093421 -0.143200 1.603708
v -0.057333 -0.125382 1.600326
vn 0.0066 0.1735 0.9848
s off
mtllib leafwood.mtl
usemtl Leaves
f 1//1 2//1 4//1 3//1
f 8//1 5//1 4//1 2//1
f 5//1 7//1 6//1 4//1
f 8//1 9//1 5//1
f 2//1 11//1 10//1 8//1
