# Blender v3.4.0 OBJ File: 'apple_tree13_tree-gen.blend'
# www.blender.org
o Leaves.034_leaves.034
v 0.018881 -0.067814 1.261082
v 0.022260 -0.054093 1.266113
v 0.017512 -0.067335 1.260696
v 0.020892 -0.053615 1.265728
v 0.016174 0.044900 1.290916
v 0.004430 -0.032957 1.265169
v -0.000806 0.006130 1.273893
v 0.051990 0.069634 1.311207
v 0.070909 0.025763 1.306339
v 0.067613 -0.017791 1.293171
v 0.045481 -0.047309 1.276736
vn -0.3421 -0.2481 0.9063
s off
mtllib leafwood.mtl
usemtl Leaves
f 1//1 2//1 4//1 3//1
f 9//1 5//1 4//1 2//1
f 5//1 7//1 6//1 4//1
f 9//1 8//1 5//1
f 2//1 11//1 10//1 9//1
