# Blender v3.4.0 OBJ File: 'apple_tree13_tree-gen.blend'
# www.blender.org
o Leaves.035_leaves.035
v 0.071047 -0.108224 1.287250
v 0.082149 -0.115523 1.294211
v 0.071667 -0.106913 1.287633
v 0.082770 -0.114212 1.294595
v 0.102875 -0.102511 1.307121
v 0.167043 -0.136105 1.347326
v 0.142207 -0.188521 1.331974
v 0.136840 -0.107655 1.328362
v 0.182381 -0.180561 1.357053
v 0.105795 -0.173176 1.309172
v 0.084248 -0.141823 1.295607
vn -0.5299 0.0027 0.8480
s off
mtllib leafwood.mtl
usemtl Leaves
f 1//1 2//1 4//1 3//1
f 6//1 8//1 5//1 4//1
f 7//1 6//1 4//1 2//1
f 7//1 9//1 6//1
f 2//1 11//1 10//1 7//1
