# Blender v3.4.0 OBJ File: 'apple_tree13_tree-gen.blend'
# www.blender.org
o Leaves.107_leaves.107
v -0.092244 0.204346 2.345511
v -0.078672 0.202469 2.339406
v -0.092373 0.205671 2.344818
v -0.078800 0.203794 2.338713
v -0.067092 0.221117 2.322561
v 0.006912 0.217414 2.285519
v 0.012055 0.164449 2.313235
v 0.043414 0.186239 2.284114
v -0.034447 0.229666 2.300369
v -0.028019 0.163459 2.335014
v -0.063236 0.181392 2.343348
vn 0.4171 0.4528 0.7880
vn 0.4171 0.4529 0.7880
s off
mtllib leafwood.mtl
usemtl Leaves
f 1//1 2//1 4//1 3//1
f 6//1 9//1 5//1 4//1
f 7//1 6//1 4//1 2//1
f 7//1 8//1 6//1
f 2//2 11//2 10//2 7//2
