# Blender v3.4.0 OBJ File: 'apple_tree13_tree-gen.blend'
# www.blender.org
o Leaves.087_leaves.087
v -0.139371 0.127133 2.059486
v -0.125022 0.128962 2.055515
v -0.139508 0.128615 2.059672
v -0.125159 0.130444 2.055701
v -0.112803 0.153763 2.054430
v -0.034572 0.171234 2.033522
v -0.078305 0.173156 2.046365
v 0.004048 0.146166 2.019871
v -0.029076 0.111952 2.026074
v -0.071435 0.099054 2.037055
v -0.108681 0.109302 2.048844
vn 0.2767 -0.0945 0.9563
s off
mtllib leafwood.mtl
usemtl Leaves
f 1//1 2//1 4//1 3//1
f 6//1 7//1 5//1 4//1
f 9//1 6//1 4//1 2//1
f 9//1 8//1 6//1
f 2//1 11//1 10//1 9//1
