# Blender v3.4.0 OBJ File: 'apple_tree13_tree-gen.blend'
# www.blender.org
o Leaves.072_leaves.072
v 0.035539 -0.065459 1.800349
v 0.030824 -0.068954 1.786544
v 0.036374 -0.066705 1.800378
v 0.031660 -0.070199 1.786574
v 0.039066 -0.091748 1.773200
v 0.017314 -0.117193 1.697424
v -0.016122 -0.067387 1.696237
v 0.035638 -0.112935 1.738986
v -0.011191 -0.101026 1.662320
v -0.006158 -0.050678 1.737501
v 0.013988 -0.054394 1.772309
vn -0.7685 -0.5066 0.3907
s off
mtllib leafwood.mtl
usemtl Leaves
f 1//1 2//1 4//1 3//1
f 6//1 8//1 5//1 4//1
f 7//1 6//1 4//1 2//1
f 7//1 9//1 6//1
f 2//1 11//1 10//1 7//1
