# Blender v3.4.0 OBJ File: 'apple_tree13_tree-gen.blend'
# www.blender.org
o Leaves.011_leaves.011
v -0.185157 -0.099569 0.933301
v -0.196266 -0.092690 0.940667
v -0.186009 -0.100795 0.933160
v -0.197119 -0.093916 0.940526
v -0.220593 -0.104814 0.945845
v -0.285958 -0.073109 0.985653
v -0.251850 -0.024070 0.991298
v -0.296678 -0.031392 1.006890
v -0.256893 -0.099876 0.962849
v -0.214258 -0.038578 0.969906
v -0.195012 -0.068035 0.950079
vn 0.3582 -0.3488 0.8660
s off
mtllib leafwood.mtl
usemtl Leaves
f 1//1 2//1 4//1 3//1
f 6//1 9//1 5//1 4//1
f 7//1 6//1 4//1 2//1
f 7//1 8//1 6//1
f 2//1 11//1 10//1 7//1
