# Blender v3.4.0 OBJ File: 'apple_tree13_tree-gen.blend'
# www.blender.org
o Leaves.038_leaves.038
v 0.041909 0.130427 1.333067
v 0.029925 0.121928 1.336094
v 0.042811 0.129302 1.333481
v 0.030827 0.120804 1.336508
v 0.031924 0.095999 1.345541
v -0.029477 0.043636 1.364259
v -0.065561 0.088617 1.347689
v -0.077479 0.044881 1.363541
v 0.010985 0.063508 1.357250
v -0.034120 0.119735 1.336538
v 0.004861 0.129736 1.333114
vn -0.0052 0.3420 0.9397
s off
mtllib leafwood.mtl
usemtl Leaves
f 1//1 2//1 4//1 3//1
f 7//1 6//1 4//1 2//1
f 6//1 9//1 5//1 4//1
f 7//1 8//1 6//1
f 2//1 11//1 10//1 7//1
