# Blender v3.4.0 OBJ File: 'apple_tree13_tree-gen.blend'
# www.blender.org
o Leaves.043_leaves.043
v -0.033195 0.200547 1.410298
v -0.042031 0.191835 1.418726
v -0.032000 0.199746 1.410723
v -0.040836 0.191034 1.419152
v -0.032344 0.170711 1.433744
v -0.074964 0.118793 1.482225
v -0.122765 0.150823 1.465222
v -0.042482 0.140925 1.459066
v -0.120954 0.113029 1.494794
v -0.102234 0.180962 1.437811
v -0.068194 0.194734 1.420991
vn 0.1354 0.6146 0.7771
vn 0.1354 0.6146 0.7772
s off
mtllib leafwood.mtl
usemtl Leaves
f 1//1 2//1 4//1 3//1
f 6//2 8//2 5//2 4//2
f 7//2 6//2 4//2 2//2
f 7//2 9//2 6//2
f 2//2 11//2 10//2 7//2
