# Blender v3.4.0 OBJ File: 'apple_tree13_tree-gen.blend'
# www.blender.org
o Leaves.024_leaves.024
v 0.191856 0.075218 1.158722
v 0.181100 0.085086 1.155268
v 0.190815 0.074163 1.158949
v 0.180059 0.084030 1.155495
v 0.154204 0.078593 1.155337
v 0.089837 0.127587 1.137478
v 0.131487 0.169808 1.128386
v 0.083771 0.173366 1.124298
v 0.116900 0.092707 1.148976
v 0.168963 0.145482 1.137611
v 0.185442 0.110258 1.148519
vn -0.0624 0.2685 0.9613
vn -0.0623 0.2685 0.9613
s off
mtllib leafwood.mtl
usemtl Leaves
f 1//1 2//1 4//1 3//1
f 6//2 9//2 5//2 4//2
f 7//2 6//2 4//2 2//2
f 7//2 8//2 6//2
f 2//2 11//2 10//2 7//2
