# Blender v3.4.0 OBJ File: 'apple_tree13_tree-gen.blend'
# www.blender.org
o Leaves.015_leaves.015
v 0.180853 -0.097026 0.982285
v 0.191894 -0.106992 0.980340
v 0.181470 -0.096596 0.983582
v 0.192511 -0.106561 0.981637
v 0.276316 -0.162938 0.994295
v 0.212504 -0.110281 0.998505
v 0.246280 -0.130887 1.006617
v 0.251622 -0.180168 0.942397
v 0.291572 -0.196467 0.963483
v 0.215412 -0.152425 0.941745
v 0.193983 -0.123203 0.959582
vn -0.5374 -0.6900 0.4848
s off
mtllib leafwood.mtl
usemtl Leaves
f 1//1 2//1 4//1 3//1
f 8//1 5//1 4//1 2//1
f 5//1 7//1 6//1 4//1
f 8//1 9//1 5//1
f 2//1 11//1 10//1 8//1
