# Blender v3.4.0 OBJ File: 'apple_tree13_tree-gen.blend'
# www.blender.org
o Leaves.091_leaves.091
v -0.181854 0.045639 2.110431
v -0.175213 0.059084 2.110773
v -0.182844 0.046153 2.109428
v -0.176203 0.059599 2.109770
v -0.152335 0.157023 2.092433
v -0.183912 0.080501 2.095567
v -0.177206 0.119258 2.086391
v -0.112750 0.136451 2.132555
v -0.115941 0.180351 2.113349
v -0.127725 0.093543 2.136545
v -0.154223 0.065073 2.125660
vn -0.6072 0.2810 0.7432
s off
mtllib leafwood.mtl
usemtl Leaves
f 1//1 2//1 4//1 3//1
f 8//1 5//1 4//1 2//1
f 5//1 7//1 6//1 4//1
f 8//1 9//1 5//1
f 2//1 11//1 10//1 8//1
