# Blender v3.4.0 OBJ File: 'apple_tree13_tree-gen.blend'
# www.blender.org
o Leaves.007_leaves.007
v 0.050989 0.137317 0.845266
v 0.037807 0.132229 0.840231
v 0.051645 0.136036 0.844843
v 0.038463 0.130948 0.839808
v -0.034430 0.072902 0.798833
v 0.034791 0.107287 0.828641
v 0.008395 0.081759 0.811824
v -0.060667 0.124141 0.815749
v -0.080504 0.085803 0.794703
v -0.024400 0.145808 0.832969
v 0.015114 0.145716 0.841328
vn -0.1910 -0.3945 0.8988
vn -0.1910 -0.3946 0.8988
s off
mtllib leafwood.mtl
usemtl Leaves
f 1//1 2//1 4//1 3//1
f 8//2 5//2 4//2 2//2
f 5//2 7//2 6//2 4//2
f 8//2 9//2 5//2
f 2//2 11//2 10//2 8//2
