# Blender v3.4.0 OBJ File: 'apple_tree13_tree-gen.blend'
# www.blender.org
o Leaves.102_leaves.102
v 0.035413 -0.045506 2.273841
v 0.022972 -0.049566 2.281173
v 0.035999 -0.046865 2.274085
v 0.023559 -0.050925 2.281417
v -0.045856 -0.103811 2.333823
v 0.019630 -0.074687 2.292279
v -0.005601 -0.098425 2.313043
v -0.088695 -0.086786 2.347285
v -0.069333 -0.049460 2.324086
v -0.034948 -0.030486 2.300872
v 0.002022 -0.033924 2.284976
vn 0.3989 0.3258 0.8572
vn 0.3989 0.3259 0.8572
s off
mtllib leafwood.mtl
usemtl Leaves
f 1//1 2//1 4//1 3//1
f 9//2 5//2 4//2 2//2
f 5//2 7//2 6//2 4//2
f 9//2 8//2 5//2
f 2//1 11//1 10//1 9//1
