# Blender v3.4.0 OBJ File: 'apple_tree13_tree-gen.blend'
# www.blender.org
o Leaves.066_leaves.066
v 0.102724 0.095238 1.709406
v 0.088676 0.100257 1.707835
v 0.102230 0.093825 1.709312
v 0.088182 0.098844 1.707742
v 0.066965 0.083373 1.704814
v -0.012771 0.103911 1.695709
v 0.007005 0.160435 1.699452
v -0.038003 0.144720 1.693654
v 0.026901 0.081789 1.699953
v 0.051621 0.152444 1.704631
v 0.081797 0.125766 1.707621
vn -0.1195 -0.0239 0.9925
s off
mtllib leafwood.mtl
usemtl Leaves
f 1//1 2//1 4//1 3//1
f 7//1 6//1 4//1 2//1
f 6//1 9//1 5//1 4//1
f 7//1 8//1 6//1
f 2//1 11//1 10//1 7//1
