# Blender v3.4.0 OBJ File: 'apple_tree13_tree-gen.blend'
# www.blender.org
o Leaves.086_leaves.086
v -0.110542 0.078595 2.020486
v -0.105654 0.091222 2.014031
v -0.111958 0.078999 2.020205
v -0.107071 0.091626 2.013750
v -0.122727 0.110118 2.003214
v -0.102932 0.181590 1.966303
v -0.062379 0.205069 1.955793
v -0.046262 0.165412 1.977559
v -0.124677 0.145731 1.984262
v -0.053839 0.125508 1.998332
v -0.080224 0.097984 2.011656
vn -0.0418 0.4676 0.8830
vn -0.0419 0.4676 0.8829
s off
mtllib leafwood.mtl
usemtl Leaves
f 1//1 2//1 4//1 3//1
f 8//2 6//2 4//2 2//2
f 6//2 9//2 5//2 4//2
f 8//2 7//2 6//2
f 2//2 11//2 10//2 8//2
