# Blender v3.4.0 OBJ File: 'apple_tree13_tree-gen.blend'
# www.blender.org
o Leaves.104_leaves.104
v -0.056370 0.057197 2.270478
v -0.070527 0.061948 2.271894
v -0.056805 0.055801 2.270812
v -0.070962 0.060551 2.272228
v -0.091427 0.045059 2.278489
v -0.171466 0.064207 2.287952
v -0.154064 0.120050 2.274590
v -0.198158 0.104005 2.284813
v -0.131170 0.042974 2.285372
v -0.109418 0.112779 2.268669
v -0.078375 0.086942 2.268468
vn 0.1584 0.1828 0.9703
vn 0.1585 0.1828 0.9703
s off
mtllib leafwood.mtl
usemtl Leaves
f 1//1 2//1 4//1 3//1
f 6//2 9//2 5//2 4//2
f 7//2 6//2 4//2 2//2
f 7//1 8//1 6//1
f 2//2 11//2 10//2 7//2
