# Blender v3.4.0 OBJ File: 'apple_tree13_tree-gen.blend'
# www.blender.org
o Leaves.084_leaves.084
v 0.148790 0.010476 1.984260
v 0.160524 0.002577 1.979270
v 0.149687 0.011204 1.985217
v 0.161421 0.003305 1.980227
v 0.186162 0.005962 1.989109
v 0.255186 -0.033846 1.966447
v 0.224468 -0.006506 1.986201
v 0.266581 -0.068158 1.934839
v 0.219305 -0.062970 1.928180
v 0.179618 -0.042911 1.938366
v 0.159252 -0.015881 1.960408
vn -0.1745 -0.6979 0.6946
vn -0.1744 -0.6979 0.6947
s off
mtllib leafwood.mtl
usemtl Leaves
f 1//1 2//1 4//1 3//1
f 6//2 7//2 5//2 4//2
f 9//2 6//2 4//2 2//2
f 9//2 8//2 6//2
f 2//2 11//2 10//2 9//2
