# Blender v3.4.0 OBJ File: 'apple_tree13_tree-gen.blend'
# www.blender.org
o Leaves.076_leaves.076
v -0.043995 0.116914 1.841012
v -0.035258 0.128216 1.836438
v -0.045195 0.117811 1.840936
v -0.036457 0.129113 1.836362
v -0.003059 0.220070 1.805166
v -0.045117 0.153424 1.830698
v -0.035271 0.190650 1.818512
v 0.044932 0.184185 1.808174
v 0.042780 0.230383 1.795235
v 0.024719 0.145794 1.822271
v -0.009123 0.126510 1.832954
vn 0.1446 0.2731 0.9511
s off
mtllib leafwood.mtl
usemtl Leaves
f 1//1 2//1 4//1 3//1
f 8//1 5//1 4//1 2//1
f 5//1 7//1 6//1 4//1
f 8//1 9//1 5//1
f 2//1 11//1 10//1 8//1
