# Blender v3.4.0 OBJ File: 'apple_tree13_tree-gen.blend'
# www.blender.org
o Leaves.069_leaves.069
v -0.147663 0.037231 1.703706
v -0.148988 0.037933 1.703679
v -0.140641 0.050486 1.703727
v -0.069152 0.122948 1.704376
v -0.114402 0.053559 1.704127
v -0.141966 0.051188 1.703701
v -0.154159 0.074624 1.703344
v -0.122162 0.151035 1.703332
v -0.078101 0.170128 1.703908
v -0.149856 0.114782 1.703137
v -0.083594 0.079673 1.704442
vn -0.0160 0.0069 0.9998
vn -0.0161 0.0069 0.9998
s off
mtllib leafwood.mtl
usemtl Leaves
f 1//1 3//1 6//1 2//1
f 4//1 8//1 6//1 3//1
f 3//2 5//2 11//2 4//2
f 8//1 10//1 7//1 6//1
f 4//1 9//1 8//1
