# Blender v3.4.0 OBJ File: 'apple_tree13_tree-gen.blend'
# www.blender.org
o Leaves.065_leaves.065
v 0.082354 0.077567 1.643708
v 0.071030 0.067730 1.643571
v 0.083337 0.076434 1.643686
v 0.072014 0.066598 1.643548
v 0.074955 0.040345 1.643087
v 0.017595 -0.019418 1.642219
v -0.030389 -0.021367 1.642321
v 0.056484 0.004432 1.642520
v -0.021755 0.025868 1.643111
v 0.007296 0.061038 1.643636
v 0.045442 0.074309 1.643757
vn 0.0027 -0.0172 0.9998
vn 0.0028 -0.0172 0.9998
s off
mtllib leafwood.mtl
usemtl Leaves
f 1//1 2//1 4//1 3//1
f 6//2 8//2 5//2 4//2
f 9//2 6//2 4//2 2//2
f 9//2 7//2 6//2
f 2//2 11//2 10//2 9//2
