# Blender v3.4.0 OBJ File: 'apple_tree13_tree-gen.blend'
# www.blender.org
o Leaves.077_leaves.077
v -0.053555 0.165252 1.930218
v -0.057505 0.161222 1.944117
v -0.052830 0.163950 1.930047
v -0.056780 0.159920 1.943945
v -0.050218 0.137012 1.955357
v -0.068316 0.108340 2.030941
v -0.097313 0.160418 2.037800
v -0.052843 0.113919 1.988389
v -0.092689 0.124306 2.069116
v -0.089089 0.179017 1.996962
v -0.071966 0.176071 1.960501
vn 0.8349 0.4177 0.3584
s off
mtllib leafwood.mtl
usemtl Leaves
f 1//1 2//1 4//1 3//1
f 6//1 8//1 5//1 4//1
f 7//1 6//1 4//1 2//1
f 7//1 9//1 6//1
f 2//1 11//1 10//1 7//1
