# Blender v3.4.0 OBJ File: 'apple_tree13_tree-gen.blend'
# www.blender.org
o Leaves.105_leaves.105
v -0.076708 0.114496 2.302034
v -0.077856 0.104939 2.313539
v -0.075317 0.114002 2.301763
v -0.076466 0.104445 2.313267
v -0.056822 0.032700 2.382753
v -0.057457 0.087729 2.320837
v -0.046426 0.058900 2.346884
v -0.112429 0.052449 2.393609
v -0.087497 0.018683 2.416942
v -0.115935 0.083588 2.360453
v -0.099162 0.102542 2.328978
vn 0.3677 0.6970 0.6157
vn 0.3677 0.6969 0.6157
s off
mtllib leafwood.mtl
usemtl Leaves
f 1//1 2//1 4//1 3//1
f 8//1 5//1 4//1 2//1
f 5//2 7//2 6//2 4//2
f 8//1 9//1 5//1
f 2//1 11//1 10//1 8//1
