# Blender v3.4.0 OBJ File: 'apple_tree13_tree-gen.blend'
# www.blender.org
o Leaves.056_leaves.056
v -0.101763 0.105744 1.514229
v -0.107673 0.119234 1.517069
v -0.102600 0.105638 1.512989
v -0.108511 0.119129 1.515829
v -0.126564 0.131086 1.500691
v -0.163257 0.204756 1.510116
v -0.149714 0.163755 1.495394
v -0.129758 0.208987 1.559714
v -0.161283 0.240598 1.542017
v -0.107841 0.169044 1.557391
v -0.101440 0.134259 1.537889
vn -0.7301 -0.4314 0.5299
s off
mtllib leafwood.mtl
usemtl Leaves
f 1//1 2//1 4//1 3//1
f 6//1 7//1 5//1 4//1
f 8//1 6//1 4//1 2//1
f 8//1 9//1 6//1
f 2//1 11//1 10//1 8//1
