# Blender v3.4.0 OBJ File: 'apple_tree13_tree-gen.blend'
# www.blender.org
o Leaves.031_leaves.031
v -0.242527 0.041065 1.234119
v -0.236632 0.027833 1.238014
v -0.241652 0.041751 1.235126
v -0.235757 0.028519 1.239020
v -0.180367 -0.044108 1.283955
v -0.217167 0.025237 1.257505
v -0.193674 -0.000981 1.277303
v -0.215387 -0.071556 1.243703
v -0.183139 -0.090912 1.273564
v -0.237450 -0.035291 1.226989
v -0.243432 0.004651 1.227317
vn -0.7105 -0.1121 0.6947
s off
mtllib leafwood.mtl
usemtl Leaves
f 1//1 2//1 4//1 3//1
f 8//1 5//1 4//1 2//1
f 5//1 7//1 6//1 4//1
f 8//1 9//1 5//1
f 2//1 11//1 10//1 8//1
