# Blender v3.4.0 OBJ File: 'apple_tree13_tree-gen.blend'
# www.blender.org
o Leaves.095_leaves.095
v -0.001525 0.049645 2.095744
v -0.007635 0.044693 2.108517
v -0.000238 0.048960 2.096095
v -0.006347 0.044007 2.108867
v 0.006213 0.029120 2.126719
v -0.020952 -0.001544 2.198721
v -0.072455 0.025863 2.184712
v -0.061977 -0.000221 2.223649
v 0.003815 0.009887 2.162153
v -0.060564 0.044146 2.144642
v -0.032414 0.049675 2.116212
vn 0.3119 0.8260 0.4695
vn 0.3119 0.8260 0.4694
s off
mtllib leafwood.mtl
usemtl Leaves
f 1//1 2//1 4//1 3//1
f 6//1 9//1 5//1 4//1
f 7//1 6//1 4//1 2//1
f 7//2 8//2 6//2
f 2//1 11//1 10//1 7//1
