# Blender v3.4.0 OBJ File: 'apple_tree13_tree-gen.blend'
# www.blender.org
o Leaves.094_leaves.094
v -0.014348 -0.173156 2.104450
v -0.020233 -0.186637 2.107390
v -0.012985 -0.173774 2.104346
v -0.018870 -0.187254 2.107285
v -0.030545 -0.286924 2.124358
v -0.004992 -0.209692 2.108713
v -0.006075 -0.249571 2.115019
v -0.085062 -0.262216 2.128528
v -0.072516 -0.308272 2.133791
v -0.074222 -0.218685 2.120232
v -0.045880 -0.191161 2.111841
vn 0.1431 0.1508 0.9782
vn 0.1432 0.1508 0.9781
s off
mtllib leafwood.mtl
usemtl Leaves
f 1//1 2//1 4//1 3//1
f 8//2 5//2 4//2 2//2
f 5//2 7//2 6//2 4//2
f 8//2 9//2 5//2
f 2//2 11//2 10//2 8//2
