# Blender v3.4.0 OBJ File: 'apple_tree13_tree-gen.blend'
# www.blender.org
o Leaves.080_leaves.080
v -0.125907 -0.110092 1.960398
v -0.133767 -0.122310 1.964131
v -0.124632 -0.110816 1.960713
v -0.132492 -0.123034 1.964446
v -0.158715 -0.216574 1.994852
v -0.121860 -0.145754 1.972744
v -0.128758 -0.183541 1.985226
v -0.209727 -0.187605 1.982260
v -0.203871 -0.232634 1.997890
v -0.192523 -0.147329 1.969486
v -0.160119 -0.124027 1.963300
vn -0.0507 0.3216 0.9455
vn -0.0508 0.3216 0.9455
s off
mtllib leafwood.mtl
usemtl Leaves
f 1//1 2//1 4//1 3//1
f 8//2 5//2 4//2 2//2
f 5//2 7//2 6//2 4//2
f 8//2 9//2 5//2
f 2//2 11//2 10//2 8//2
