# Blender v3.4.0 OBJ File: 'apple_tree13_tree-gen.blend'
# www.blender.org
o Leaves.068_leaves.068
v -0.195386 0.074777 1.735418
v -0.186198 0.085466 1.740548
v -0.196522 0.075757 1.735411
v -0.187333 0.086446 1.740541
v -0.149754 0.175031 1.773741
v -0.194613 0.111343 1.745564
v -0.182998 0.147864 1.758315
v -0.104325 0.135838 1.774035
v -0.104068 0.182157 1.786713
v -0.126212 0.098872 1.758683
v -0.160541 0.081948 1.745785
vn -0.2268 -0.2559 0.9397
vn -0.2269 -0.2559 0.9397
s off
mtllib leafwood.mtl
usemtl Leaves
f 1//1 2//1 4//1 3//1
f 8//2 5//2 4//2 2//2
f 5//2 7//2 6//2 4//2
f 8//2 9//2 5//2
f 2//2 11//2 10//2 8//2
