# Blender v3.4.0 OBJ File: 'apple_tree13_tree-gen.blend'
# www.blender.org
o Leaves.030_leaves.030
v -0.210982 0.038778 1.225023
v -0.220542 0.027340 1.223352
v -0.209856 0.037807 1.225223
v -0.219415 0.026370 1.223552
v -0.259594 -0.066899 1.216590
v -0.212646 0.000860 1.224780
v -0.225284 -0.037438 1.222602
v -0.304640 -0.028080 1.208596
v -0.306016 -0.076083 1.208416
v -0.281591 0.011085 1.212608
v -0.246430 0.029975 1.218784
vn -0.1736 0.0013 0.9848
vn -0.1737 0.0013 0.9848
s off
mtllib leafwood.mtl
usemtl Leaves
f 1//1 2//1 4//1 3//1
f 8//2 5//2 4//2 2//2
f 5//2 7//2 6//2 4//2
f 8//2 9//2 5//2
f 2//2 11//2 10//2 8//2
