# Blender v3.4.0 OBJ File: 'apple_tree13_tree-gen.blend'
# www.blender.org
o Leaves.111_leaves.111
v -0.076606 -0.061979 2.495593
v -0.079031 -0.050710 2.505191
v -0.078083 -0.062219 2.495501
v -0.080509 -0.050949 2.505099
v -0.125093 0.017626 2.565691
v -0.104363 -0.043157 2.513363
v -0.125206 -0.017381 2.536438
v -0.065979 0.027216 2.569370
v -0.101600 0.050595 2.591525
v -0.051313 -0.005393 2.541036
v -0.060028 -0.035964 2.516122
vn 0.0563 -0.6403 0.7660
vn 0.0562 -0.6403 0.7660
s off
mtllib leafwood.mtl
usemtl Leaves
f 1//1 2//1 4//1 3//1
f 8//2 5//2 4//2 2//2
f 5//2 7//2 6//2 4//2
f 8//2 9//2 5//2
f 2//2 11//2 10//2 8//2
