# Blender v3.4.0 OBJ File: 'apple_tree13_tree-gen.blend'
# www.blender.org
o Leaves.021_leaves.021
v -0.039145 -0.108480 1.134708
v -0.053648 -0.104656 1.134887
v -0.039528 -0.109931 1.134727
v -0.054031 -0.106106 1.134906
v -0.155754 -0.109529 1.136444
v -0.074076 -0.123312 1.135362
v -0.114156 -0.128254 1.136001
v -0.140465 -0.051514 1.135681
v -0.184368 -0.070960 1.136511
v -0.095045 -0.055736 1.135048
v -0.062609 -0.079801 1.134790
vn 0.0148 0.0092 0.9998
s off
mtllib leafwood.mtl
usemtl Leaves
f 1//1 2//1 4//1 3//1
f 8//1 5//1 4//1 2//1
f 5//1 7//1 6//1 4//1
f 8//1 9//1 5//1
f 2//1 11//1 10//1 8//1
