# Blender v3.4.0 OBJ File: 'apple_tree13_tree-gen.blend'
# www.blender.org
o Leaves.017_leaves.017
v -0.025078 0.077911 1.010873
v -0.028105 0.091991 1.006678
v -0.026438 0.077804 1.011494
v -0.029465 0.091884 1.007300
v -0.075678 0.181310 0.992160
v -0.052225 0.104407 1.012121
v -0.073401 0.138533 1.007852
v -0.056028 0.218656 0.969239
v -0.021244 0.185603 0.967290
v -0.005359 0.143900 0.976765
v -0.011399 0.107627 0.993468
vn 0.3691 0.3373 0.8660
s off
mtllib leafwood.mtl
usemtl Leaves
f 1//1 2//1 4//1 3//1
f 9//1 5//1 4//1 2//1
f 5//1 7//1 6//1 4//1
f 9//1 8//1 5//1
f 2//1 11//1 10//1 9//1
