# Blender v3.4.0 OBJ File: 'apple_tree13_tree-gen.blend'
# www.blender.org
o Leaves.067_leaves.067
v -0.092987 0.017603 1.666560
v -0.079271 0.013686 1.671199
v -0.092530 0.019024 1.666407
v -0.078814 0.015106 1.671046
v 0.019259 0.017340 1.698223
v -0.058466 0.031785 1.673472
v -0.019603 0.036195 1.683543
v 0.044403 -0.020862 1.712873
v 0.000967 -0.039476 1.704328
v -0.042468 -0.034826 1.691174
v -0.072186 -0.010828 1.678051
vn -0.2663 0.1873 0.9455
s off
mtllib leafwood.mtl
usemtl Leaves
f 1//1 2//1 4//1 3//1
f 9//1 5//1 4//1 2//1
f 5//1 7//1 6//1 4//1
f 9//1 8//1 5//1
f 2//1 11//1 10//1 9//1
