# Blender v3.4.0 OBJ File: 'apple_tree13_tree-gen.blend'
# www.blender.org
o Leaves.025_leaves.025
v 0.221206 0.085690 1.168425
v 0.231290 0.096742 1.167345
v 0.220103 0.086703 1.168499
v 0.230187 0.097755 1.167419
v 0.274222 0.189361 1.161835
v 0.224275 0.123506 1.167407
v 0.238454 0.161274 1.165444
v 0.318347 0.148811 1.158887
v 0.321495 0.196716 1.157661
v 0.293611 0.110587 1.161759
v 0.257369 0.093094 1.165196
vn 0.0849 0.0200 0.9962
vn 0.0849 0.0199 0.9962
s off
mtllib leafwood.mtl
usemtl Leaves
f 1//1 2//1 4//1 3//1
f 8//2 5//2 4//2 2//2
f 5//2 7//2 6//2 4//2
f 8//2 9//2 5//2
f 2//2 11//2 10//2 8//2
