# Blender v3.4.0 OBJ File: 'apple_tree13_tree-gen.blend'
# www.blender.org
o Leaves.032_leaves.032
v 0.023044 -0.127354 1.292783
v 0.037495 -0.123975 1.290602
v 0.022642 -0.126172 1.291951
v 0.037093 -0.122794 1.289770
v 0.123189 -0.077796 1.259363
v 0.045718 -0.102284 1.275521
v 0.077827 -0.082024 1.261745
v 0.167352 -0.092980 1.270555
v 0.139262 -0.125055 1.292653
v 0.097918 -0.141098 1.303358
v 0.057772 -0.137729 1.300488
vn -0.0104 0.5735 0.8192
s off
mtllib leafwood.mtl
usemtl Leaves
f 1//1 2//1 4//1 3//1
f 9//1 5//1 4//1 2//1
f 5//1 7//1 6//1 4//1
f 9//1 8//1 5//1
f 2//1 11//1 10//1 9//1
