# Blender v3.4.0 OBJ File: 'apple_tree13_tree-gen.blend'
# www.blender.org
o Leaves.047_leaves.047
v -0.224139 -0.118454 1.352455
v -0.222617 -0.104249 1.347884
v -0.225580 -0.118195 1.352781
v -0.224058 -0.103989 1.348211
v -0.242263 -0.006593 1.324879
v -0.243428 -0.086021 1.348381
v -0.254031 -0.047912 1.340224
v -0.184632 -0.016973 1.311803
v -0.209644 0.023731 1.306915
v -0.181993 -0.060887 1.323879
v -0.200205 -0.093806 1.338574
vn 0.2591 0.2705 0.9272
s off
mtllib leafwood.mtl
usemtl Leaves
f 1//1 2//1 4//1 3//1
f 8//1 5//1 4//1 2//1
f 5//1 7//1 6//1 4//1
f 8//1 9//1 5//1
f 2//1 11//1 10//1 8//1
