# Blender v3.4.0 OBJ File: 'apple_tree13_tree-gen.blend'
# www.blender.org
o Leaves.093_leaves.093
v -0.062250 -0.169380 2.103332
v -0.063506 -0.168644 2.103694
v -0.054714 -0.156413 2.103101
v 0.018755 -0.086479 2.094540
v -0.055970 -0.155677 2.103463
v -0.028970 -0.154120 2.097620
v 0.002427 -0.129063 2.093421
v -0.031474 -0.057032 2.109026
v -0.066642 -0.132034 2.108484
v -0.060360 -0.092253 2.111529
v 0.012480 -0.039336 2.101206
vn 0.2162 -0.1084 0.9703
vn 0.2163 -0.1084 0.9703
s off
mtllib leafwood.mtl
usemtl Leaves
f 1//1 3//1 5//1 2//1
f 4//2 8//2 5//2 3//2
f 3//2 6//2 7//2 4//2
f 8//2 10//2 9//2 5//2
f 4//2 11//2 8//2
