# Blender v3.4.0 OBJ File: 'apple_tree13_tree-gen.blend'
# www.blender.org
o Leaves.100_leaves.100
v -0.151963 0.012999 2.189616
v -0.161351 0.023302 2.184075
v -0.153044 0.011963 2.189523
v -0.162432 0.022267 2.183982
v -0.244538 0.069051 2.146145
v -0.187499 0.017557 2.177088
v -0.221782 0.032963 2.162302
v -0.201285 0.110466 2.149877
v -0.246381 0.115518 2.134158
v -0.167715 0.084732 2.166967
v -0.155059 0.048619 2.179887
vn -0.2976 0.2274 0.9272
vn -0.2977 0.2274 0.9272
s off
mtllib leafwood.mtl
usemtl Leaves
f 1//1 2//1 4//1 3//1
f 8//2 5//2 4//2 2//2
f 5//2 7//2 6//2 4//2
f 8//2 9//2 5//2
f 2//2 11//2 10//2 8//2
