# Blender v3.4.0 OBJ File: 'apple_tree13_tree-gen.blend'
# www.blender.org
o Leaves.044_leaves.044
v -0.214739 -0.051332 1.354438
v -0.229239 -0.055173 1.354438
v -0.214355 -0.052783 1.354438
v -0.228855 -0.056623 1.354438
v -0.315617 -0.109861 1.354438
v -0.237787 -0.081488 1.354438
v -0.270196 -0.105590 1.354438
v -0.330978 -0.051861 1.354439
v -0.359548 -0.090462 1.354439
v -0.289399 -0.033089 1.354439
v -0.249308 -0.037988 1.354439
vn 0.0000 0.0000 1.0000
s off
mtllib leafwood.mtl
usemtl Leaves
f 1//1 2//1 4//1 3//1
f 8//1 5//1 4//1 2//1
f 5//1 7//1 6//1 4//1
f 8//1 9//1 5//1
f 2//1 11//1 10//1 8//1
