# Blender v3.4.0 OBJ File: 'apple_tree13_tree-gen.blend'
# www.blender.org
o Leaves.019_leaves.019
v -0.075651 0.171975 1.095125
v -0.086857 0.163245 1.099945
v -0.074946 0.170769 1.094581
v -0.086151 0.162039 1.099401
v -0.145223 0.081769 1.120113
v -0.087123 0.135816 1.096325
v -0.108079 0.101926 1.102930
v -0.173451 0.130026 1.141894
v -0.187350 0.084072 1.143054
v -0.143364 0.162248 1.130156
v -0.108294 0.172009 1.112661
vn 0.4697 -0.1200 0.8746
s off
mtllib leafwood.mtl
usemtl Leaves
f 1//1 2//1 4//1 3//1
f 8//1 5//1 4//1 2//1
f 5//1 7//1 6//1 4//1
f 8//1 9//1 5//1
f 2//1 11//1 10//1 8//1
