# Blender v3.4.0 OBJ File: 'apple_tree8_sapling_1_8_2_2.blend'
# www.blender.org
o leaves.175
v -0.000112 -0.011763 2.087981
v -0.022592 -0.070230 2.084000
v -0.127060 -0.092684 2.093262
v -0.062264 -0.007243 2.095483
v -0.104580 -0.034217 2.097243
v -0.064908 -0.097203 2.085760
vt 0.500000 0.000000
vt 0.500000 1.000000
vt 0.750000 0.666667
vt 0.750000 0.333333
vt 0.250000 0.333333
vt 0.250000 0.666667
vn 0.1112 -0.1100 0.9877
s off
mtllib leafwood.mtl
usemtl Leaves
f 1/1/1 3/2/1 6/3/1 2/4/1
f 1/1/1 4/5/1 5/6/1 3/2/1
