# Blender v3.4.0 OBJ File: 'apple_tree8_sapling_1_8_2_2.blend'
# www.blender.org
o leaves.099
v 0.069425 -0.042342 1.188457
v 0.084599 -0.102235 1.188457
v 0.184804 -0.135485 1.188457
v 0.131170 -0.044545 1.188457
v 0.169630 -0.075593 1.188457
v 0.123058 -0.133282 1.188457
vt 0.500000 0.000000
vt 0.250000 0.333333
vt 0.250000 0.666667
vt 0.500000 1.000000
vt 0.750000 0.666667
vt 0.750000 0.333333
vn -0.0000 0.0000 1.0000
s off
mtllib leafwood.mtl
usemtl Leaves
f 1/1/1 2/2/1 6/3/1 3/4/1
f 1/1/1 3/4/1 5/5/1 4/6/1
