# Blender v3.4.0 OBJ File: 'apple_tree8_sapling_1_8_2_2.blend'
# www.blender.org
o leaves.104
v 0.233554 -0.093312 1.283490
v 0.271773 -0.125935 1.281194
v 0.349321 -0.108749 1.314042
v 0.272513 -0.070981 1.306154
v 0.311102 -0.076127 1.316338
v 0.310362 -0.131080 1.291378
vt 0.500000 0.000000
vt 0.250000 0.333333
vt 0.250000 0.666667
vt 0.500000 1.000000
vt 0.750000 0.666667
vt 0.750000 0.333333
vn -0.2833 -0.3934 0.8746
s off
mtllib leafwood.mtl
usemtl Leaves
f 1/1/1 2/2/1 6/3/1 3/4/1
f 1/1/1 3/4/1 5/5/1 4/6/1
