# Blender v3.4.0 OBJ File: 'apple_tree8_sapling_1_8_2_2.blend'
# www.blender.org
o leaves.129
v -0.231954 0.086430 1.460366
v -0.272237 0.067574 1.469872
v -0.279936 -0.007458 1.488615
v -0.223659 0.042694 1.469692
v -0.239653 0.011398 1.479109
v -0.288231 0.036278 1.479289
vt 0.500000 0.000000
vt 0.250000 0.333333
vt 0.250000 0.666667
vt 0.500000 1.000000
vt 0.750000 0.666667
vt 0.750000 0.333333
vn 0.1208 0.2289 0.9659
s off
mtllib leafwood.mtl
usemtl Leaves
f 1/1/1 2/2/1 6/3/1 3/4/1
f 1/1/1 3/4/1 5/5/1 4/6/1
