# Blender v3.4.0 OBJ File: 'apple_tree8_sapling_1_8_2_2.blend'
# www.blender.org
o leaves.090
v -0.000345 -0.089218 1.063358
v 0.001293 -0.217941 1.017912
v 0.034198 -0.130747 1.045531
v -0.033796 -0.133504 1.050889
v -0.033250 -0.176412 1.035740
v 0.034744 -0.173655 1.030382
vt 0.500000 0.000000
vt 0.500000 1.000000
vt 0.750000 0.666667
vt 0.750000 0.333333
vt 0.250000 0.333333
vt 0.250000 0.666667
vn 0.0875 -0.3306 0.9397
vn 0.0875 -0.3307 0.9397
s off
mtllib leafwood.mtl
usemtl Leaves
f 1/1/1 2/2/1 6/3/1 3/4/1
f 1/1/2 4/5/2 5/6/2 2/2/2
