# Blender v3.4.0 OBJ File: 'apple_tree8_sapling_1_8_2_2.blend'
# www.blender.org
o leaves.009
v -0.001013 0.057968 0.585742
v -0.027481 0.183546 0.635621
v 0.023407 0.108138 0.599085
v -0.043078 0.091517 0.605652
v -0.051901 0.133376 0.622279
v 0.014584 0.149997 0.615712
vt 0.500000 0.000000
vt 0.500000 1.000000
vt 0.750000 0.666667
vt 0.750000 0.333333
vt 0.250000 0.333333
vt 0.250000 0.666667
vn 0.1745 -0.3315 0.9272
s off
mtllib leafwood.mtl
usemtl Leaves
f 1/1/1 2/2/1 5/3/1 4/4/1
f 1/1/1 3/5/1 6/6/1 2/2/1
