# Blender v3.4.0 OBJ File: 'apple_tree8_sapling_1_8_2_2.blend'
# www.blender.org
o leaves.040
v -0.013081 0.035041 0.689878
v 0.038776 0.028330 0.712032
v 0.089860 0.102208 0.748764
v 0.003690 0.086531 0.706980
v 0.038004 0.108920 0.726609
v 0.073089 0.050718 0.731661
vt 0.500000 0.000000
vt 0.250000 0.333333
vt 0.250000 0.666667
vt 0.500000 1.000000
vt 0.750000 0.666667
vt 0.750000 0.333333
vn -0.4055 -0.1665 0.8988
s off
mtllib leafwood.mtl
usemtl Leaves
f 1/1/1 2/2/1 6/3/1 3/4/1
f 1/1/1 3/4/1 5/5/1 4/6/1
