# Blender v3.4.0 OBJ File: 'apple_tree8_sapling_1_8_2_2.blend'
# www.blender.org
o leaves.100
v 0.107270 -0.056229 1.197578
v 0.169640 -0.163885 1.201300
v 0.154973 -0.076503 1.199379
v 0.101147 -0.107726 1.198259
v 0.121937 -0.143611 1.199499
v 0.175763 -0.112388 1.200620
vt 0.500000 0.000000
vt 0.500000 1.000000
vt 0.750000 0.666667
vt 0.750000 0.333333
vt 0.250000 0.333333
vt 0.250000 0.666667
vn -0.0306 0.0168 0.9994
s off
mtllib leafwood.mtl
usemtl Leaves
f 1/1/1 2/2/1 6/3/1 3/4/1
f 1/1/1 4/5/1 5/6/1 2/2/1
