# Blender v3.4.0 OBJ File: 'apple_tree8_sapling_1_8_2_2.blend'
# www.blender.org
o leaves.025
v -0.206296 -0.032591 0.705742
v -0.282117 0.039633 0.655922
v -0.252950 -0.020045 0.704960
v -0.210190 0.003012 0.673310
v -0.235463 0.027087 0.656704
v -0.278223 0.004030 0.688353
vt 0.500000 0.000000
vt 0.500000 1.000000
vt 0.750000 0.666667
vt 0.750000 0.333333
vt 0.250000 0.333333
vt 0.250000 0.666667
vn 0.1691 0.6738 0.7193
s off
mtllib leafwood.mtl
usemtl Leaves
f 1/1/1 2/2/1 6/3/1 3/4/1
f 1/1/1 4/5/1 5/6/1 2/2/1
