# Blender v3.4.0 OBJ File: 'apple_tree8_sapling_1_8_2_2.blend'
# www.blender.org
o leaves.147
v 0.043894 0.141980 1.745722
v 0.100225 0.142536 1.760599
v 0.152160 0.226873 1.770740
v 0.059740 0.198020 1.747523
v 0.095829 0.226318 1.755862
v 0.136314 0.170834 1.768939
vt 0.500000 0.000000
vt 0.250000 0.333333
vt 0.250000 0.666667
vt 0.500000 1.000000
vt 0.750000 0.666667
vt 0.750000 0.333333
vn -0.2555 0.0412 0.9659
s off
mtllib leafwood.mtl
usemtl Leaves
f 1/1/1 2/2/1 6/3/1 3/4/1
f 1/1/1 3/4/1 5/5/1 4/6/1
