# Blender v3.4.0 OBJ File: 'apple_tree8_sapling_1_8_2_2.blend'
# www.blender.org
o leaves.116
v 0.113714 0.196543 1.345848
v 0.127360 0.248446 1.343702
v 0.065399 0.316035 1.347717
v 0.067859 0.224301 1.349241
v 0.051754 0.264132 1.349864
v 0.111255 0.288277 1.344325
vt 0.500000 0.000000
vt 0.250000 0.333333
vt 0.250000 0.666667
vt 0.500000 1.000000
vt 0.750000 0.666667
vt 0.750000 0.333333
vn 0.0851 0.0188 0.9962
s off
mtllib leafwood.mtl
usemtl Leaves
f 1/1/1 2/2/1 6/3/1 3/4/1
f 1/1/1 3/4/1 5/5/1 4/6/1
