# Blender v3.4.0 OBJ File: 'apple_tree8_sapling_1_8_2_2.blend'
# www.blender.org
o leaves.091
v 0.004122 -0.114112 1.067166
v 0.011327 -0.165369 1.089758
v 0.096048 -0.195121 1.125125
v 0.058200 -0.116861 1.083214
v 0.088842 -0.143864 1.102533
v 0.041969 -0.192372 1.109077
vt 0.500000 0.000000
vt 0.250000 0.333333
vt 0.250000 0.666667
vt 0.500000 1.000000
vt 0.750000 0.666667
vt 0.750000 0.333333
vn -0.2484 0.3612 0.8988
s off
mtllib leafwood.mtl
usemtl Leaves
f 1/1/1 2/2/1 6/3/1 3/4/1
f 1/1/1 3/4/1 5/5/1 4/6/1
