# Blender v3.4.0 OBJ File: 'apple_tree8_sapling_1_8_2_2.blend'
# www.blender.org
o leaves.150
v 0.042364 0.262944 1.761807
v 0.037126 0.389617 1.792732
v 0.016674 0.309485 1.750380
v 0.064562 0.300853 1.793850
v 0.062816 0.343077 1.804158
v 0.014928 0.351709 1.760688
vt 0.500000 0.000000
vt 0.500000 1.000000
vt 0.750000 0.666667
vt 0.750000 0.333333
vt 0.250000 0.333333
vt 0.250000 0.666667
vn -0.6780 -0.2007 0.7071
s off
mtllib leafwood.mtl
usemtl Leaves
f 1/1/1 2/2/1 6/3/1 3/4/1
f 1/1/1 4/5/1 5/6/1 2/2/1
