# Blender v3.4.0 OBJ File: 'apple_tree8_sapling_1_8_2_2.blend'
# www.blender.org
o leaves.180
v 0.019508 -0.096530 2.153363
v 0.059743 -0.127072 2.157821
v 0.138882 -0.097472 2.177042
v 0.058856 -0.066616 2.164691
v 0.098648 -0.066930 2.172585
v 0.099534 -0.127386 2.165714
vt 0.500000 0.000000
vt 0.250000 0.333333
vt 0.250000 0.666667
vt 0.500000 1.000000
vt 0.750000 0.666667
vt 0.750000 0.333333
vn -0.1942 -0.1136 0.9744
s off
mtllib leafwood.mtl
usemtl Leaves
f 1/1/1 2/2/1 6/3/1 3/4/1
f 1/1/1 3/4/1 5/5/1 4/6/1
