# Blender v3.4.0 OBJ File: 'apple_tree8_sapling_1_8_2_2.blend'
# www.blender.org
o leaves.077
v 0.127306 0.130818 0.982088
v 0.175680 0.149751 0.982072
v 0.158627 0.090694 0.971715
v 0.246848 0.099032 0.966504
v 0.215527 0.139156 0.976877
v 0.198474 0.080098 0.966520
vt 0.500000 0.000000
vt 0.500000 1.000000
vt 0.750000 0.666667
vt 0.750000 0.333333
vt 0.250000 0.333333
vt 0.250000 0.666667
vn 0.0761 -0.1935 0.9781
s off
mtllib leafwood.mtl
usemtl Leaves
f 1/1/1 4/2/1 5/3/1 2/4/1
f 1/1/1 3/5/1 6/6/1 4/2/1
