# Blender v3.4.0 OBJ File: 'apple_tree8_sapling_1_8_2_2.blend'
# www.blender.org
o leaves.132
v 0.011088 -0.035540 1.571999
v 0.058268 0.000500 1.555239
v 0.054403 -0.073195 1.549379
v 0.146831 -0.037963 1.512930
v 0.103516 -0.000307 1.535550
v 0.099651 -0.074003 1.529689
vt 0.500000 0.000000
vt 0.500000 1.000000
vt 0.750000 0.666667
vt 0.750000 0.333333
vt 0.250000 0.333333
vt 0.250000 0.666667
vn 0.3959 -0.0934 0.9135
s off
mtllib leafwood.mtl
usemtl Leaves
f 1/1/1 4/2/1 5/3/1 2/4/1
f 1/1/1 3/5/1 6/6/1 4/2/1
