# Blender v3.4.0 OBJ File: 'apple_tree8_sapling_1_8_2_2.blend'
# www.blender.org
o leaves.050
v -0.060768 -0.006972 0.745134
v -0.172054 0.071072 0.763197
v -0.078028 0.044823 0.761975
v -0.117698 -0.006737 0.740335
v -0.154794 0.019277 0.746356
v -0.115123 0.070837 0.767996
vt 0.500000 0.000000
vt 0.500000 1.000000
vt 0.750000 0.666667
vt 0.750000 0.333333
vt 0.250000 0.333333
vt 0.250000 0.666667
vn -0.0806 -0.3324 0.9397
s off
mtllib leafwood.mtl
usemtl Leaves
f 1/1/1 2/2/1 5/3/1 4/4/1
f 1/1/1 3/5/1 6/6/1 2/2/1
