# Blender v3.4.0 OBJ File: 'apple_tree8_sapling_1_8_2_2.blend'
# www.blender.org
o leaves.197
v -0.009595 0.078342 2.411642
v -0.052763 0.097574 2.397119
v -0.096524 0.066872 2.331702
v -0.024380 0.051464 2.372872
v -0.053356 0.047640 2.346225
v -0.081738 0.093751 2.370473
vt 0.500000 0.000000
vt 0.250000 0.333333
vt 0.250000 0.666667
vt 0.500000 1.000000
vt 0.750000 0.666667
vt 0.750000 0.333333
vn -0.4841 -0.6218 0.6157
vn -0.4841 -0.6217 0.6157
s off
mtllib leafwood.mtl
usemtl Leaves
f 1/1/1 2/2/1 6/3/1 3/4/1
f 1/1/2 3/4/2 5/5/2 4/6/2
