# Blender v3.4.0 OBJ File: 'apple_tree8_sapling_1_8_2_2.blend'
# www.blender.org
o leaves.178
v -0.012643 -0.063588 2.138514
v -0.067695 -0.062590 2.148964
v -0.115046 -0.138433 2.183276
v -0.025860 -0.114482 2.157906
v -0.059994 -0.139430 2.172826
v -0.101830 -0.087539 2.163884
vt 0.500000 0.000000
vt 0.250000 0.333333
vt 0.250000 0.666667
vt 0.500000 1.000000
vt 0.750000 0.666667
vt 0.750000 0.333333
vn 0.1828 0.3082 0.9336
s off
mtllib leafwood.mtl
usemtl Leaves
f 1/1/1 2/2/1 6/3/1 3/4/1
f 1/1/1 3/4/1 5/5/1 4/6/1
