# Blender v3.4.0 OBJ File: 'apple_tree8_sapling_1_8_2_2.blend'
# www.blender.org
o leaves.119
v -0.047160 0.016616 1.427175
v -0.098873 -0.006127 1.433307
v -0.112991 -0.094479 1.471038
v -0.039334 -0.034704 1.450285
v -0.061277 -0.071736 1.464906
v -0.120817 -0.043159 1.447928
vt 0.500000 0.000000
vt 0.250000 0.333333
vt 0.250000 0.666667
vt 0.500000 1.000000
vt 0.750000 0.666667
vt 0.750000 0.333333
vn -0.0680 0.4010 0.9135
s off
mtllib leafwood.mtl
usemtl Leaves
f 1/1/1 2/2/1 6/3/1 3/4/1
f 1/1/1 3/4/1 5/5/1 4/6/1
