# Blender v3.4.0 OBJ File: 'apple_tree8_sapling_1_8_2_2.blend'
# www.blender.org
o leaves.126
v -0.151520 -0.027506 1.537407
v -0.200587 -0.055868 1.532131
v -0.205363 -0.153000 1.533762
v -0.138349 -0.082807 1.540253
v -0.156296 -0.124638 1.539038
v -0.218534 -0.097699 1.530916
vt 0.500000 0.000000
vt 0.250000 0.333333
vt 0.250000 0.666667
vt 0.500000 1.000000
vt 0.750000 0.666667
vt 0.750000 0.333333
vn -0.1198 0.0226 0.9925
s off
mtllib leafwood.mtl
usemtl Leaves
f 1/1/1 2/2/1 6/3/1 3/4/1
f 1/1/1 3/4/1 5/5/1 4/6/1
