# Blender v3.4.0 OBJ File: 'apple_tree8_sapling_1_8_2_2.blend'
# www.blender.org
o leaves.051
v -0.115174 0.011722 0.765961
v -0.121127 0.067426 0.757678
v -0.164103 0.026261 0.790489
v -0.197495 0.117087 0.790329
v -0.191543 0.061383 0.798612
v -0.148567 0.102548 0.765801
vt 0.500000 0.000000
vt 0.250000 0.333333
vt 0.250000 0.666667
vt 0.500000 1.000000
vt 0.750000 0.666667
vt 0.750000 0.333333
vn 0.4829 0.1791 0.8572
s off
mtllib leafwood.mtl
usemtl Leaves
f 1/1/1 2/2/1 6/3/1 4/4/1
f 1/1/1 4/4/1 5/5/1 3/6/1
