# Blender v3.4.0 OBJ File: 'apple_tree8_sapling_1_8_2_2.blend'
# www.blender.org
o leaves.081
v -0.042589 0.193559 0.999274
v 0.006143 0.226530 0.998270
v 0.003486 0.327045 0.997037
v -0.060604 0.249578 0.998787
v -0.045246 0.294073 0.998041
v 0.021501 0.271026 0.997524
vt 0.500000 0.000000
vt 0.250000 0.333333
vt 0.250000 0.666667
vt 0.500000 1.000000
vt 0.750000 0.666667
vt 0.750000 0.333333
vn 0.0121 0.0126 0.9998
s off
mtllib leafwood.mtl
usemtl Leaves
f 1/1/1 2/2/1 6/3/1 3/4/1
f 1/1/1 3/4/1 5/5/1 4/6/1
