# Blender v3.4.0 OBJ File: 'apple_tree8_sapling_1_8_2_2.blend'
# www.blender.org
o leaves.007
v 0.111537 0.180924 0.641971
v 0.155965 0.168251 0.633726
v 0.217402 0.219346 0.640494
v 0.137686 0.219211 0.649231
v 0.172974 0.232019 0.648739
v 0.191253 0.181058 0.633234
vt 0.500000 0.000000
vt 0.250000 0.333333
vt 0.250000 0.666667
vt 0.500000 1.000000
vt 0.750000 0.666667
vt 0.750000 0.333333
vn 0.1058 -0.2545 0.9613
s off
mtllib leafwood.mtl
usemtl Leaves
f 1/1/1 2/2/1 6/3/1 3/4/1
f 1/1/1 3/4/1 5/5/1 4/6/1
