# Blender v3.4.0 OBJ File: 'apple_tree8_sapling_1_8_2_2.blend'
# www.blender.org
o leaves.170
v -0.126558 0.135807 1.985501
v -0.088183 0.169521 1.972751
v -0.008486 0.142434 1.940994
v -0.086219 0.106511 1.968580
v -0.046861 0.108720 1.953744
v -0.048825 0.171730 1.957915
vt 0.500000 0.000000
vt 0.500000 1.000000
vt 0.750000 0.666667
vt 0.750000 0.333333
vt 0.250000 0.333333
vt 0.250000 0.666667
vn 0.3548 -0.0507 0.9336
s off
mtllib leafwood.mtl
usemtl Leaves
f 1/1/1 3/2/1 6/3/1 2/4/1
f 1/1/1 4/5/1 5/6/1 3/2/1
