# Blender v3.4.0 OBJ File: 'apple_tree8_sapling_1_8_2_2.blend'
# www.blender.org
o leaves.105
v 0.274407 -0.089509 1.290993
v 0.295590 -0.101543 1.330300
v 0.372864 -0.117703 1.333761
v 0.318862 -0.096271 1.280199
v 0.351681 -0.105669 1.294455
v 0.328409 -0.110941 1.344556
vt 0.500000 0.000000
vt 0.250000 0.333333
vt 0.250000 0.666667
vt 0.500000 1.000000
vt 0.750000 0.666667
vt 0.750000 0.333333
vn 0.1927 0.9625 0.1908
s off
mtllib leafwood.mtl
usemtl Leaves
f 1/1/1 2/2/1 6/3/1 3/4/1
f 1/1/1 3/4/1 5/5/1 4/6/1
