# Blender v3.4.0 OBJ File: 'apple_tree8_sapling_1_8_2_2.blend'
# www.blender.org
o leaves.068
v 0.027230 0.066645 0.883110
v 0.073798 0.053646 0.911521
v 0.093747 0.090707 0.997608
v 0.025007 0.095684 0.931031
v 0.047179 0.103705 0.969197
v 0.095970 0.061667 0.949687
vt 0.500000 0.000000
vt 0.250000 0.333333
vt 0.250000 0.666667
vt 0.500000 1.000000
vt 0.750000 0.666667
vt 0.750000 0.333333
vn -0.4796 -0.7601 0.4384
s off
mtllib leafwood.mtl
usemtl Leaves
f 1/1/1 2/2/1 6/3/1 3/4/1
f 1/1/1 3/4/1 5/5/1 4/6/1
