# Blender v3.4.0 OBJ File: 'apple_tree8_sapling_1_8_2_2.blend'
# www.blender.org
o leaves.193
v 0.000049 0.170076 2.389621
v 0.004936 0.223282 2.380796
v 0.051527 0.182635 2.400800
v 0.084598 0.268724 2.393150
v 0.033119 0.256165 2.381972
v 0.079710 0.215517 2.401976
vt 0.500000 0.000000
vt 0.500000 1.000000
vt 0.750000 0.666667
vt 0.750000 0.333333
vt 0.250000 0.333333
vt 0.250000 0.666667
vn -0.2506 0.1808 0.9511
s off
mtllib leafwood.mtl
usemtl Leaves
f 1/1/1 4/2/1 5/3/1 2/4/1
f 1/1/1 3/5/1 6/6/1 4/2/1
