# Blender v3.4.0 OBJ File: 'apple_tree8_sapling_1_8_2_2.blend'
# www.blender.org
o leaves.165
v -0.101482 0.115533 1.929136
v -0.065574 0.153447 1.950201
v -0.063932 0.245091 1.920929
v -0.112356 0.163991 1.902599
v -0.099839 0.207177 1.899864
v -0.053058 0.196633 1.947466
vt 0.500000 0.000000
vt 0.250000 0.333333
vt 0.250000 0.666667
vt 0.500000 1.000000
vt 0.750000 0.666667
vt 0.750000 0.333333
vn -0.6659 0.2378 0.7071
s off
mtllib leafwood.mtl
usemtl Leaves
f 1/1/1 2/2/1 6/3/1 3/4/1
f 1/1/1 3/4/1 5/5/1 4/6/1
