# Blender v3.4.0 OBJ File: 'apple_tree8_sapling_1_8_2_2.blend'
# www.blender.org
o leaves.085
v -0.001479 0.182517 1.010130
v 0.019693 0.321000 1.016680
v -0.028905 0.234105 1.009035
v 0.040061 0.223251 1.015592
v 0.047119 0.269412 1.017776
v -0.021848 0.280267 1.011218
vt 0.500000 0.000000
vt 0.500000 1.000000
vt 0.750000 0.666667
vt 0.750000 0.333333
vt 0.250000 0.333333
vt 0.250000 0.666667
vn -0.0996 -0.0318 0.9945
s off
mtllib leafwood.mtl
usemtl Leaves
f 1/1/1 2/2/1 6/3/1 3/4/1
f 1/1/1 4/5/1 5/6/1 2/2/1
