# Blender v3.4.0 OBJ File: 'apple_tree8_sapling_1_8_2_2.blend'
# www.blender.org
o leaves.035
v 0.210184 -0.090537 0.711187
v 0.184367 -0.125167 0.698851
v 0.207194 -0.198155 0.705482
v 0.234007 -0.127653 0.719720
v 0.233011 -0.163525 0.717818
v 0.183371 -0.161040 0.696950
vt 0.500000 0.000000
vt 0.250000 0.333333
vt 0.250000 0.666667
vt 0.500000 1.000000
vt 0.750000 0.666667
vt 0.750000 0.333333
vn -0.3889 -0.0380 0.9205
s off
mtllib leafwood.mtl
usemtl Leaves
f 1/1/1 2/2/1 6/3/1 3/4/1
f 1/1/1 3/4/1 5/5/1 4/6/1
