# Blender v3.4.0 OBJ File: 'apple_tree8_sapling_1_8_2_2.blend'
# www.blender.org
o leaves.014
v -0.024091 0.109269 0.596513
v -0.059555 0.148823 0.587239
v -0.071813 0.091146 0.613902
v -0.148869 0.141416 0.608686
v -0.101148 0.159539 0.591297
v -0.113406 0.101862 0.617960
vt 0.500000 0.000000
vt 0.250000 0.333333
vt 0.250000 0.666667
vt 0.500000 1.000000
vt 0.750000 0.666667
vt 0.750000 0.333333
vn 0.1862 0.3794 0.9063
s off
mtllib leafwood.mtl
usemtl Leaves
f 1/1/1 2/2/1 5/3/1 4/4/1
f 1/1/1 4/4/1 6/5/1 3/6/1
