# Blender v3.4.0 OBJ File: 'apple_tree8_sapling_1_8_2_2.blend'
# www.blender.org
o leaves.075
v 0.074866 0.133244 0.886012
v 0.109083 0.160122 0.915637
v 0.085794 0.233719 0.961813
v 0.047934 0.173348 0.906921
v 0.051577 0.206840 0.932188
v 0.112726 0.193614 0.940904
vt 0.500000 0.000000
vt 0.250000 0.333333
vt 0.250000 0.666667
vt 0.500000 1.000000
vt 0.750000 0.666667
vt 0.750000 0.333333
vn -0.2354 -0.5689 0.7880
s off
mtllib leafwood.mtl
usemtl Leaves
f 1/1/1 2/2/1 6/3/1 3/4/1
f 1/1/1 3/4/1 5/5/1 4/6/1
