# Blender v3.4.0 OBJ File: 'apple_tree8_sapling_1_8_2_2.blend'
# www.blender.org
o leaves.001
v 0.092390 0.073220 0.563779
v 0.132296 0.108308 0.551386
v 0.116519 0.188402 0.506329
v 0.068570 0.114918 0.537873
v 0.076613 0.153312 0.518723
v 0.140339 0.146702 0.532236
vt 0.500000 0.000000
vt 0.250000 0.333333
vt 0.250000 0.666667
vt 0.500000 1.000000
vt 0.750000 0.666667
vt 0.750000 0.333333
vn -0.1372 0.4650 0.8746
s off
mtllib leafwood.mtl
usemtl Leaves
f 1/1/1 2/2/1 6/3/1 3/4/1
f 1/1/1 3/4/1 5/5/1 4/6/1
