# Blender v3.4.0 OBJ File: 'apple_tree8_sapling_1_8_2_2.blend'
# www.blender.org
o leaves.152
v 0.057114 0.175062 1.761723
v 0.100677 0.141803 1.761240
v 0.185574 0.170302 1.733810
v 0.099191 0.205147 1.743597
v 0.142011 0.203561 1.734293
v 0.143497 0.140216 1.751936
vt 0.500000 0.000000
vt 0.250000 0.333333
vt 0.250000 0.666667
vt 0.500000 1.000000
vt 0.750000 0.666667
vt 0.750000 0.333333
vn 0.2141 0.2667 0.9397
s off
mtllib leafwood.mtl
usemtl Leaves
f 1/1/1 2/2/1 6/3/1 3/4/1
f 1/1/1 3/4/1 5/5/1 4/6/1
