# Blender v3.4.0 OBJ File: 'apple_tree8_sapling_1_8_2_2.blend'
# www.blender.org
o leaves.189
v -0.003961 0.104222 2.330860
v 0.048370 0.117246 2.328048
v 0.077716 0.204680 2.325064
v -0.001841 0.158171 2.329809
v 0.025385 0.191657 2.327877
v 0.075596 0.150732 2.326115
vt 0.500000 0.000000
vt 0.250000 0.333333
vt 0.250000 0.666667
vt 0.500000 1.000000
vt 0.750000 0.666667
vt 0.750000 0.333333
vn 0.0493 0.0175 0.9986
s off
mtllib leafwood.mtl
usemtl Leaves
f 1/1/1 2/2/1 6/3/1 3/4/1
f 1/1/1 3/4/1 5/5/1 4/6/1
