# Blender v3.4.0 OBJ File: 'apple_tree8_sapling_1_8_2_2.blend'
# www.blender.org
o leaves.179
v 0.001006 -0.080350 2.147336
v 0.093529 -0.121064 2.210476
v 0.019636 -0.121097 2.168752
v 0.044058 -0.066745 2.168013
v 0.074899 -0.080316 2.189060
v 0.050477 -0.134669 2.189799
vt 0.500000 0.000000
vt 0.500000 1.000000
vt 0.750000 0.666667
vt 0.750000 0.333333
vt 0.250000 0.333333
vt 0.250000 0.666667
vn -0.4790 0.2268 0.8480
s off
mtllib leafwood.mtl
usemtl Leaves
f 1/1/1 2/2/1 5/3/1 4/4/1
f 1/1/1 3/5/1 6/6/1 2/2/1
