# Blender v3.4.0 OBJ File: 'apple_tree8_sapling_1_8_2_2.blend'
# www.blender.org
o leaves.199
v -0.028012 0.090563 2.461386
v -0.073172 0.103163 2.471505
v -0.034573 0.133868 2.441836
v -0.105594 0.174421 2.447239
v -0.060434 0.161820 2.437120
v -0.099032 0.131116 2.466789
vt 0.500000 0.000000
vt 0.500000 1.000000
vt 0.750000 0.666667
vt 0.750000 0.333333
vt 0.250000 0.333333
vt 0.250000 0.666667
vn 0.3100 0.4298 0.8480
vn 0.3099 0.4298 0.8480
s off
mtllib leafwood.mtl
usemtl Leaves
f 1/1/1 4/2/1 6/3/1 2/4/1
f 1/1/2 3/5/2 5/6/2 4/2/2
