# Blender v3.4.0 OBJ File: 'apple_tree8_sapling_1_8_2_2.blend'
# www.blender.org
o leaves.103
v 0.195488 -0.092907 1.269919
v 0.252829 -0.095190 1.267533
v 0.306723 -0.025590 1.224126
v 0.212303 -0.045746 1.241777
v 0.249382 -0.023307 1.226512
v 0.289908 -0.072751 1.252268
vt 0.500000 0.000000
vt 0.250000 0.333333
vt 0.250000 0.666667
vt 0.500000 1.000000
vt 0.750000 0.666667
vt 0.750000 0.333333
vn 0.0558 0.4969 0.8660
s off
mtllib leafwood.mtl
usemtl Leaves
f 1/1/1 2/2/1 6/3/1 3/4/1
f 1/1/1 3/4/1 5/5/1 4/6/1
