# Blender v3.4.0 OBJ File: 'apple_tree8_sapling_1_8_2_2.blend'
# www.blender.org
o leaves.144
v -0.027686 -0.182028 1.749889
v -0.045428 -0.137665 1.741860
v -0.118437 -0.124857 1.704986
v -0.070445 -0.188277 1.727982
v -0.100696 -0.169220 1.713014
v -0.075678 -0.118608 1.726893
vt 0.500000 0.000000
vt 0.250000 0.333333
vt 0.250000 0.666667
vt 0.500000 1.000000
vt 0.750000 0.666667
vt 0.750000 0.333333
vn -0.4535 -0.0201 0.8910
s off
mtllib leafwood.mtl
usemtl Leaves
f 1/1/1 2/2/1 6/3/1 3/4/1
f 1/1/1 3/4/1 5/5/1 4/6/1
