# Blender v3.4.0 OBJ File: 'apple_tree8_sapling_1_8_2_2.blend'
# www.blender.org
o leaves.166
v -0.129580 0.120981 1.952969
v -0.244246 0.055858 1.977978
v -0.152504 0.070023 1.955277
v -0.183100 0.128524 1.967333
v -0.221322 0.106816 1.975669
v -0.190727 0.048316 1.963614
vt 0.500000 0.000000
vt 0.500000 1.000000
vt 0.750000 0.666667
vt 0.750000 0.333333
vt 0.250000 0.333333
vt 0.250000 0.666667
vn 0.2496 -0.0685 0.9659
s off
mtllib leafwood.mtl
usemtl Leaves
f 1/1/1 2/2/1 6/3/1 3/4/1
f 1/1/1 4/5/1 5/6/1 2/2/1
