# Blender v3.4.0 OBJ File: 'apple_tree8_sapling_1_8_2_2.blend'
# www.blender.org
o leaves.161
v -0.085185 0.125593 1.934574
v -0.102370 0.173306 1.937455
v -0.186997 0.192596 1.937137
v -0.135876 0.122549 1.933401
v -0.169813 0.144883 1.934256
v -0.136307 0.195640 1.938310
vt 0.500000 0.000000
vt 0.250000 0.333333
vt 0.250000 0.666667
vt 0.500000 1.000000
vt 0.750000 0.666667
vt 0.750000 0.333333
vn -0.0190 -0.0671 0.9976
s off
mtllib leafwood.mtl
usemtl Leaves
f 1/1/1 2/2/1 6/3/1 3/4/1
f 1/1/1 3/4/1 5/5/1 4/6/1
