# Blender v3.4.0 OBJ File: 'apple_tree8_sapling_1_8_2_2.blend'
# www.blender.org
o leaves.130
v -0.161103 -0.021374 1.530698
v -0.178658 0.024374 1.528206
v -0.260748 0.041111 1.525021
v -0.209979 -0.025465 1.529405
v -0.243194 -0.004637 1.527513
v -0.211873 0.045203 1.526314
vt 0.500000 0.000000
vt 0.250000 0.333333
vt 0.250000 0.666667
vt 0.500000 1.000000
vt 0.750000 0.666667
vt 0.750000 0.333333
vn -0.0300 0.0429 0.9986
s off
mtllib leafwood.mtl
usemtl Leaves
f 1/1/1 2/2/1 6/3/1 3/4/1
f 1/1/1 3/4/1 5/5/1 4/6/1
