# Blender v3.4.0 OBJ File: 'apple_tree8_sapling_1_8_2_2.blend'
# www.blender.org
o leaves.072
v 0.027230 0.066645 0.883110
v 0.012119 0.120326 0.878203
v -0.078343 0.149549 0.888888
v -0.028040 0.068234 0.891868
v -0.063231 0.095869 0.893794
v -0.023072 0.147961 0.880129
vt 0.500000 0.000000
vt 0.250000 0.333333
vt 0.250000 0.666667
vt 0.500000 1.000000
vt 0.750000 0.666667
vt 0.750000 0.333333
vn 0.1589 0.1341 0.9781
s off
mtllib leafwood.mtl
usemtl Leaves
f 1/1/1 2/2/1 6/3/1 3/4/1
f 1/1/1 3/4/1 5/5/1 4/6/1
