# Blender v3.4.0 OBJ File: 'apple_tree8_sapling_1_8_2_2.blend'
# www.blender.org
o leaves.088
v -0.001600 -0.035009 1.049566
v 0.036857 -0.078364 1.057498
v 0.132589 -0.071141 1.029683
v 0.049403 -0.015742 1.028378
v 0.094133 -0.027786 1.021751
v 0.081586 -0.090408 1.050870
vt 0.500000 0.000000
vt 0.250000 0.333333
vt 0.250000 0.666667
vt 0.500000 1.000000
vt 0.750000 0.666667
vt 0.750000 0.333333
vn 0.2331 0.3712 0.8988
s off
mtllib leafwood.mtl
usemtl Leaves
f 1/1/1 2/2/1 6/3/1 3/4/1
f 1/1/1 3/4/1 5/5/1 4/6/1
