# Blender v3.4.0 OBJ File: 'apple_tree8_sapling_1_8_2_2.blend'
# www.blender.org
o leaves.018
v -0.057472 -0.024452 0.609972
v -0.179393 -0.067467 0.647019
v -0.109209 -0.007053 0.622653
v -0.087016 -0.070527 0.621989
v -0.127657 -0.084865 0.634338
v -0.149849 -0.021391 0.635002
vt 0.500000 0.000000
vt 0.500000 1.000000
vt 0.750000 0.666667
vt 0.750000 0.333333
vt 0.250000 0.333333
vt 0.250000 0.666667
vn 0.2632 0.0820 0.9613
s off
mtllib leafwood.mtl
usemtl Leaves
f 1/1/1 2/2/1 5/3/1 4/4/1
f 1/1/1 3/5/1 6/6/1 2/2/1
