# Blender v3.4.0 OBJ File: 'apple_tree8_sapling_1_8_2_2.blend'
# www.blender.org
o leaves.121
v -0.136241 0.077260 1.447137
v -0.124041 0.117700 1.404518
v -0.195581 0.153738 1.340510
v -0.188001 0.087806 1.418671
v -0.207780 0.113298 1.383129
v -0.143821 0.143192 1.368976
vt 0.500000 0.000000
vt 0.250000 0.333333
vt 0.250000 0.666667
vt 0.500000 1.000000
vt 0.750000 0.666667
vt 0.750000 0.333333
vn -0.2030 0.7387 0.6428
s off
mtllib leafwood.mtl
usemtl Leaves
f 1/1/1 2/2/1 6/3/1 3/4/1
f 1/1/1 3/4/1 5/5/1 4/6/1
