# Blender v3.4.0 OBJ File: 'apple_tree8_sapling_1_8_2_2.blend'
# www.blender.org
o leaves.198
v -0.018160 0.083849 2.435366
v 0.021622 0.106454 2.436747
v 0.028423 0.181131 2.414478
v -0.026887 0.126099 2.420060
v -0.011359 0.158527 2.413097
v 0.037150 0.138881 2.429785
vt 0.500000 0.000000
vt 0.250000 0.333333
vt 0.250000 0.666667
vt 0.500000 1.000000
vt 0.750000 0.666667
vt 0.750000 0.333333
vn -0.2010 0.2967 0.9336
s off
mtllib leafwood.mtl
usemtl Leaves
f 1/1/1 2/2/1 6/3/1 3/4/1
f 1/1/1 3/4/1 5/5/1 4/6/1
