# Blender v3.4.0 OBJ File: 'apple_tree8_sapling_1_8_2_2.blend'
# www.blender.org
o leaves.157
v -0.001978 0.277810 1.766873
v 0.043794 0.289003 1.755887
v 0.063600 0.353432 1.708005
v -0.004032 0.317031 1.738614
v 0.017828 0.342239 1.718991
v 0.065654 0.314211 1.736264
vt 0.500000 0.000000
vt 0.250000 0.333333
vt 0.250000 0.666667
vt 0.500000 1.000000
vt 0.750000 0.666667
vt 0.750000 0.333333
vn 0.0510 0.5856 0.8090
s off
mtllib leafwood.mtl
usemtl Leaves
f 1/1/1 2/2/1 6/3/1 3/4/1
f 1/1/1 3/4/1 5/5/1 4/6/1
