# Blender v3.4.0 OBJ File: 'apple_tree8_sapling_1_8_2_2.blend'
# www.blender.org
o leaves.125
v -0.132539 -0.010829 1.488241
v -0.101740 0.031396 1.491597
v -0.133689 0.113028 1.509601
v -0.164104 0.029518 1.499125
v -0.164488 0.070804 1.506245
v -0.102123 0.072681 1.498717
vt 0.500000 0.000000
vt 0.250000 0.333333
vt 0.250000 0.666667
vt 0.500000 1.000000
vt 0.750000 0.666667
vt 0.750000 0.333333
vn 0.1231 -0.1675 0.9781
s off
mtllib leafwood.mtl
usemtl Leaves
f 1/1/1 2/2/1 6/3/1 3/4/1
f 1/1/1 3/4/1 5/5/1 4/6/1
