# Blender v3.4.0 OBJ File: 'apple_tree8_sapling_1_8_2_2.blend'
# www.blender.org
o leaves.002
v 0.148920 0.094108 0.564817
v 0.130521 0.044024 0.585556
v 0.180693 -0.006979 0.652267
v 0.188501 0.076801 0.602378
v 0.199092 0.043105 0.631528
v 0.141112 0.010329 0.614706
vt 0.500000 0.000000
vt 0.250000 0.333333
vt 0.250000 0.666667
vt 0.500000 1.000000
vt 0.750000 0.666667
vt 0.750000 0.333333
vn -0.4839 0.4806 0.7314
s off
mtllib leafwood.mtl
usemtl Leaves
f 1/1/1 2/2/1 6/3/1 3/4/1
f 1/1/1 3/4/1 5/5/1 4/6/1
