# Blender v3.4.0 OBJ File: 'apple_tree8_sapling_1_8_2_2.blend'
# www.blender.org
o leaves.084
v -0.028644 0.143739 0.986740
v 0.012140 0.107507 1.013506
v 0.114479 0.123388 1.005985
v 0.025987 0.166403 0.972803
v 0.073695 0.159620 0.979219
v 0.059848 0.100724 1.019921
vt 0.500000 0.000000
vt 0.250000 0.333333
vt 0.250000 0.666667
vt 0.500000 1.000000
vt 0.750000 0.666667
vt 0.750000 0.333333
vn -0.0287 0.5729 0.8192
s off
mtllib leafwood.mtl
usemtl Leaves
f 1/1/1 2/2/1 6/3/1 3/4/1
f 1/1/1 3/4/1 5/5/1 4/6/1
