# Blender v3.4.0 OBJ File: 'apple_tree8_sapling_1_8_2_2.blend'
# www.blender.org
o leaves.108
v 0.213805 -0.126039 1.310366
v 0.240742 -0.163780 1.334260
v 0.260292 -0.105552 1.322204
v 0.323940 -0.151919 1.363965
v 0.277454 -0.172406 1.352127
v 0.297003 -0.114178 1.340070
vt 0.500000 0.000000
vt 0.250000 0.333333
vt 0.250000 0.666667
vt 0.500000 1.000000
vt 0.750000 0.666667
vt 0.750000 0.333333
vn -0.3585 0.3032 0.8829
s off
mtllib leafwood.mtl
usemtl Leaves
f 1/1/1 2/2/1 5/3/1 4/4/1
f 1/1/1 4/4/1 6/5/1 3/6/1
