# Blender v3.4.0 OBJ File: 'apple_tree8_sapling_1_8_2_2.blend'
# www.blender.org
o leaves.140
v 0.027036 -0.224275 1.733722
v 0.069401 -0.243646 1.745147
v 0.136421 -0.198414 1.758575
v 0.057593 -0.187664 1.738865
v 0.094055 -0.179043 1.747149
v 0.105863 -0.235025 1.753432
vt 0.500000 0.000000
vt 0.250000 0.333333
vt 0.250000 0.666667
vt 0.500000 1.000000
vt 0.750000 0.666667
vt 0.750000 0.333333
vn -0.2345 0.0594 0.9703
s off
mtllib leafwood.mtl
usemtl Leaves
f 1/1/1 2/2/1 6/3/1 3/4/1
f 1/1/1 3/4/1 5/5/1 4/6/1
