# Blender v3.4.0 OBJ File: 'apple_tree8_sapling_1_8_2_2.blend'
# www.blender.org
o leaves.127
v -0.152258 -0.068705 1.574294
v -0.133771 -0.111854 1.584845
v -0.052856 -0.125019 1.591076
v -0.104476 -0.063099 1.574932
v -0.071342 -0.081871 1.580526
v -0.100637 -0.130625 1.590439
vt 0.500000 0.000000
vt 0.250000 0.333333
vt 0.250000 0.666667
vt 0.500000 1.000000
vt 0.750000 0.666667
vt 0.750000 0.333333
vn -0.0390 0.2215 0.9744
s off
mtllib leafwood.mtl
usemtl Leaves
f 1/1/1 2/2/1 6/3/1 3/4/1
f 1/1/1 3/4/1 5/5/1 4/6/1
