# Blender v3.4.0 OBJ File: 'apple_tree8_sapling_1_8_2_2.blend'
# www.blender.org
o leaves.120
v -0.097956 0.038233 1.435955
v -0.072482 0.079816 1.467624
v -0.120522 0.161685 1.496987
v -0.138474 0.078950 1.444975
v -0.145996 0.120101 1.465319
v -0.080004 0.120967 1.487968
vt 0.500000 0.000000
vt 0.250000 0.333333
vt 0.250000 0.666667
vt 0.500000 1.000000
vt 0.750000 0.666667
vt 0.750000 0.333333
vn -0.2817 -0.4661 0.8387
s off
mtllib leafwood.mtl
usemtl Leaves
f 1/1/1 2/2/1 6/3/1 3/4/1
f 1/1/1 3/4/1 5/5/1 4/6/1
