# Blender v3.4.0 OBJ File: 'apple_tree8_sapling_1_8_2_2.blend'
# www.blender.org
o leaves.062
v 0.020195 -0.131117 0.808918
v 0.054238 -0.165846 0.789271
v 0.139564 -0.144996 0.771441
v 0.065731 -0.105641 0.803581
v 0.105520 -0.110267 0.791089
v 0.094028 -0.170472 0.776779
vt 0.500000 0.000000
vt 0.250000 0.333333
vt 0.250000 0.666667
vt 0.500000 1.000000
vt 0.750000 0.666667
vt 0.750000 0.333333
vn 0.2597 -0.2700 0.9272
s off
mtllib leafwood.mtl
usemtl Leaves
f 1/1/1 2/2/1 6/3/1 3/4/1
f 1/1/1 3/4/1 5/5/1 4/6/1
