# Blender v3.4.0 OBJ File: 'apple_tree8_sapling_1_8_2_2.blend'
# www.blender.org
o leaves.049
v -0.018566 0.151106 0.795243
v 0.027835 0.170655 0.800792
v -0.025069 0.199877 0.807286
v 0.041281 0.253585 0.821631
v -0.005120 0.234037 0.816082
v 0.047784 0.204814 0.809588
vt 0.500000 0.000000
vt 0.250000 0.333333
vt 0.250000 0.666667
vt 0.500000 1.000000
vt 0.750000 0.666667
vt 0.750000 0.333333
vn -0.0143 -0.2415 0.9703
s off
mtllib leafwood.mtl
usemtl Leaves
f 1/1/1 2/2/1 6/3/1 4/4/1
f 1/1/1 4/4/1 5/5/1 3/6/1
