# Blender v3.4.0 OBJ File: 'apple_tree10_sapling_1_8_2_2.blend'
# www.blender.org
o leaves.068
v -0.169812 0.140224 0.921170
v -0.166820 0.168958 0.910856
v -0.139924 0.146979 0.919721
v -0.120493 0.193458 0.903525
v -0.150381 0.186703 0.904974
v -0.123485 0.164723 0.913839
vt 0.500000 0.000000
vt 0.500000 1.000000
vt 0.740000 0.666667
vt 0.740000 0.333333
vt 0.260000 0.333333
vt 0.260000 0.666667
vn -0.0314 0.3406 0.9397
s off
mtllib leafwood.mtl
usemtl Leaves
f 1/1/1 4/2/1 5/3/1 2/4/1
f 1/1/1 3/5/1 6/6/1 4/2/1
