# Blender v3.4.0 OBJ File: 'apple_tree10_sapling_1_8_2_2.blend'
# www.blender.org
o leaves.067
v -0.170369 0.138704 0.919541
v -0.144746 0.141777 0.942582
v -0.141306 0.184901 0.983690
v -0.176616 0.166430 0.939266
v -0.166928 0.181829 0.960649
v -0.135059 0.157175 0.963965
vt 0.500000 0.000000
vt 0.260000 0.333333
vt 0.260000 0.666667
vt 0.500000 1.000000
vt 0.740000 0.666667
vt 0.740000 0.333333
vn -0.5094 -0.5721 0.6428
s off
mtllib leafwood.mtl
usemtl Leaves
f 1/1/1 2/2/1 6/3/1 3/4/1
f 1/1/1 3/4/1 5/5/1 4/6/1
