# Blender v3.4.0 OBJ File: 'apple_tree10_sapling_1_8_2_2.blend'
# www.blender.org
o leaves.298
v 0.148713 -0.069474 1.913762
v 0.143067 -0.091917 1.911250
v 0.159818 -0.116689 1.884452
v 0.161761 -0.078508 1.896734
v 0.165463 -0.094247 1.886964
v 0.146769 -0.107655 1.901480
vt 0.500000 0.000000
vt 0.260000 0.333333
vt 0.260000 0.666667
vt 0.500000 1.000000
vt 0.740000 0.666667
vt 0.740000 0.333333
vn 0.6995 -0.2508 0.6691
s off
mtllib leafwood.mtl
usemtl Leaves
f 1/1/1 2/2/1 6/3/1 3/4/1
f 1/1/1 3/4/1 5/5/1 4/6/1
