# Blender v3.4.0 OBJ File: 'apple_tree10_sapling_1_8_2_2.blend'
# www.blender.org
o leaves.254
v -0.027902 0.301082 1.712847
v -0.020846 0.325696 1.715422
v -0.047120 0.357837 1.731150
v -0.047770 0.314305 1.722474
v -0.054176 0.333223 1.728575
v -0.027252 0.344614 1.721523
vt 0.500000 0.000000
vt 0.260000 0.333333
vt 0.260000 0.666667
vt 0.500000 1.000000
vt 0.740000 0.666667
vt 0.740000 0.333333
vn 0.3231 -0.1896 0.9272
s off
mtllib leafwood.mtl
usemtl Leaves
f 1/1/1 2/2/1 6/3/1 3/4/1
f 1/1/1 3/4/1 5/5/1 4/6/1
