# Blender v3.4.0 OBJ File: 'apple_tree10_sapling_1_8_2_2.blend'
# www.blender.org
o leaves.173
v 0.198520 0.102680 1.169209
v 0.177749 0.160994 1.178125
v 0.247241 0.141775 1.166157
v 0.240444 0.248794 1.178006
v 0.261215 0.190480 1.169089
v 0.191723 0.209698 1.181058
vt 0.500000 0.000000
vt 0.500000 1.000000
vt 0.740000 0.666667
vt 0.740000 0.333333
vt 0.260000 0.333333
vt 0.260000 0.666667
vn 0.1419 -0.1000 0.9848
vn 0.1420 -0.1000 0.9848
s off
mtllib leafwood.mtl
usemtl Leaves
f 1/1/1 4/2/1 6/3/1 2/4/1
f 1/1/2 3/5/2 5/6/2 4/2/2
