# Blender v3.4.0 OBJ File: 'apple_tree10_sapling_1_8_2_2.blend'
# www.blender.org
o leaves.302
v 0.090951 -0.227009 1.766671
v 0.081458 -0.265673 1.766005
v 0.127203 -0.316910 1.765638
v 0.124612 -0.248279 1.766648
v 0.136695 -0.278246 1.766304
v 0.093542 -0.295640 1.765661
vt 0.500000 0.000000
vt 0.260000 0.333333
vt 0.260000 0.666667
vt 0.500000 1.000000
vt 0.740000 0.666667
vt 0.740000 0.333333
vn -0.0088 -0.0151 0.9998
s off
mtllib leafwood.mtl
usemtl Leaves
f 1/1/1 2/2/1 6/3/1 3/4/1
f 1/1/1 3/4/1 5/5/1 4/6/1
