# Blender v3.4.0 OBJ File: 'apple_tree10_sapling_1_8_2_2.blend'
# www.blender.org
o leaves.129
v -0.157695 0.074526 1.040915
v -0.183625 0.124353 1.062910
v -0.280813 0.128735 1.099838
v -0.213844 0.060838 1.058202
v -0.254883 0.078908 1.077843
v -0.224664 0.142423 1.082551
vt 0.500000 0.000000
vt 0.260000 0.333333
vt 0.260000 0.666667
vt 0.500000 1.000000
vt 0.740000 0.666667
vt 0.740000 0.333333
vn 0.3368 -0.2280 0.9135
s off
mtllib leafwood.mtl
usemtl Leaves
f 1/1/1 2/2/1 6/3/1 3/4/1
f 1/1/1 3/4/1 5/5/1 4/6/1
