# Blender v3.4.0 OBJ File: 'apple_tree10_sapling_1_8_2_2.blend'
# www.blender.org
o leaves.108
v 0.029929 -0.215015 0.934224
v 0.036553 -0.254232 0.914893
v 0.007841 -0.215681 0.895920
v 0.006732 -0.274839 0.847773
v 0.000108 -0.235622 0.867104
v 0.028820 -0.274173 0.886077
vt 0.500000 0.000000
vt 0.500000 1.000000
vt 0.740000 0.666667
vt 0.740000 0.333333
vt 0.260000 0.333333
vt 0.260000 0.666667
vn -0.8030 -0.3670 0.4695
s off
mtllib leafwood.mtl
usemtl Leaves
f 1/1/1 4/2/1 6/3/1 2/4/1
f 1/1/1 3/5/1 5/6/1 4/2/1
