# Blender v3.4.0 OBJ File: 'apple_tree10_sapling_1_8_2_2.blend'
# www.blender.org
o leaves.022
v -0.147201 0.237434 0.697712
v -0.157247 0.267045 0.702709
v -0.208771 0.280566 0.714807
v -0.178202 0.236577 0.704111
v -0.198726 0.250955 0.709809
v -0.177771 0.281423 0.708408
vt 0.500000 0.000000
vt 0.260000 0.333333
vt 0.260000 0.666667
vt 0.500000 1.000000
vt 0.740000 0.666667
vt 0.740000 0.333333
vn 0.2038 -0.0953 0.9744
s off
mtllib leafwood.mtl
usemtl Leaves
f 1/1/1 2/2/1 6/3/1 3/4/1
f 1/1/1 3/4/1 5/5/1 4/6/1
