# Blender v3.4.0 OBJ File: 'apple_tree10_sapling_1_8_2_2.blend'
# www.blender.org
o leaves.107
v 0.032651 -0.211610 0.933001
v 0.024054 -0.243356 0.900264
v 0.032492 -0.322308 0.910426
v 0.041142 -0.253663 0.950688
v 0.041089 -0.290562 0.943163
v 0.024001 -0.280255 0.892740
vt 0.500000 0.000000
vt 0.260000 0.333333
vt 0.260000 0.666667
vt 0.500000 1.000000
vt 0.740000 0.666667
vt 0.740000 0.333333
vn -0.9491 -0.0617 0.3090
s off
mtllib leafwood.mtl
usemtl Leaves
f 1/1/1 2/2/1 6/3/1 3/4/1
f 1/1/1 3/4/1 5/5/1 4/6/1
