# Blender v3.4.0 OBJ File: 'apple_tree10_sapling_1_8_2_2.blend'
# www.blender.org
o leaves.223
v -0.061585 0.254208 1.392615
v -0.033448 0.258858 1.390448
v -0.006305 0.282119 1.424453
v -0.052869 0.268166 1.416008
v -0.034442 0.277469 1.426621
v -0.015021 0.268162 1.401061
vt 0.500000 0.000000
vt 0.260000 0.333333
vt 0.260000 0.666667
vt 0.500000 1.000000
vt 0.740000 0.666667
vt 0.740000 0.333333
vn 0.1792 -0.8728 0.4540
s off
mtllib leafwood.mtl
usemtl Leaves
f 1/1/1 2/2/1 6/3/1 3/4/1
f 1/1/1 3/4/1 5/5/1 4/6/1
