# Blender v3.4.0 OBJ File: 'apple_tree10_sapling_1_8_2_2.blend'
# www.blender.org
o leaves.275
v -0.203625 -0.221514 1.676997
v -0.257716 -0.198613 1.674347
v -0.341537 -0.251718 1.653327
v -0.241476 -0.264551 1.663867
v -0.287447 -0.274619 1.655977
v -0.303686 -0.208681 1.666457
vt 0.500000 0.000000
vt 0.260000 0.333333
vt 0.260000 0.666667
vt 0.500000 1.000000
vt 0.740000 0.666667
vt 0.740000 0.333333
vn -0.1265 -0.1860 0.9744
s off
mtllib leafwood.mtl
usemtl Leaves
f 1/1/1 2/2/1 6/3/1 3/4/1
f 1/1/1 3/4/1 5/5/1 4/6/1
