# Blender v3.4.0 OBJ File: 'apple_tree10_sapling_1_8_2_2.blend'
# www.blender.org
o leaves.021
v -0.142856 0.233626 0.697169
v -0.171599 0.319080 0.655255
v -0.129938 0.270028 0.683911
v -0.174936 0.254193 0.682484
v -0.184517 0.282678 0.668513
v -0.139519 0.298513 0.669940
vt 0.500000 0.000000
vt 0.500000 1.000000
vt 0.740000 0.666667
vt 0.740000 0.333333
vt 0.260000 0.333333
vt 0.260000 0.666667
vn -0.1656 0.3888 0.9063
s off
mtllib leafwood.mtl
usemtl Leaves
f 1/1/1 2/2/1 5/3/1 4/4/1
f 1/1/1 3/5/1 6/6/1 2/2/1
