# Blender v3.4.0 OBJ File: 'apple_tree10_sapling_1_8_2_2.blend'
# www.blender.org
o leaves.184
v 0.138460 -0.111222 1.246362
v 0.150609 -0.130939 1.245978
v 0.123610 -0.128997 1.246121
v 0.134409 -0.167462 1.245424
v 0.122260 -0.147744 1.245808
v 0.149259 -0.149686 1.245665
vt 0.500000 0.000000
vt 0.500000 1.000000
vt 0.740000 0.666667
vt 0.740000 0.333333
vt 0.260000 0.333333
vt 0.260000 0.666667
vn 0.0040 -0.0170 0.9998
vn 0.0041 -0.0170 0.9998
s off
mtllib leafwood.mtl
usemtl Leaves
f 1/1/1 4/2/1 6/3/1 2/4/1
f 1/1/2 3/5/2 5/6/2 4/2/2
