# Blender v3.4.0 OBJ File: 'apple_tree10_sapling_1_8_2_2.blend'
# www.blender.org
o leaves.361
v -0.025143 0.019217 2.327873
v 0.026548 0.112332 2.334048
v -0.027871 0.060517 2.342255
v 0.012046 0.039993 2.317607
v 0.029276 0.071031 2.319665
v -0.010640 0.091556 2.344313
vt 0.500000 0.000000
vt 0.500000 1.000000
vt 0.740000 0.666667
vt 0.740000 0.333333
vt 0.260000 0.333333
vt 0.260000 0.666667
vn 0.3969 -0.2784 0.8746
s off
mtllib leafwood.mtl
usemtl Leaves
f 1/1/1 2/2/1 6/3/1 3/4/1
f 1/1/1 4/5/1 5/6/1 2/2/1
