# Blender v3.4.0 OBJ File: 'apple_tree10_sapling_1_8_2_2.blend'
# www.blender.org
o leaves.118
v 0.224658 -0.107741 0.964085
v 0.229744 -0.162418 0.955634
v 0.309183 -0.205099 0.923177
v 0.275922 -0.117969 0.945264
v 0.304097 -0.150422 0.931627
v 0.257919 -0.194870 0.941998
vt 0.500000 0.000000
vt 0.260000 0.333333
vt 0.260000 0.666667
vt 0.500000 1.000000
vt 0.740000 0.666667
vt 0.740000 0.333333
vn 0.3220 -0.1153 0.9397
s off
mtllib leafwood.mtl
usemtl Leaves
f 1/1/1 2/2/1 6/3/1 3/4/1
f 1/1/1 3/4/1 5/5/1 4/6/1
