# Blender v3.4.0 OBJ File: 'apple_tree10_sapling_1_8_2_2.blend'
# www.blender.org
o leaves.245
v 0.150384 0.206391 1.469104
v 0.189923 0.203879 1.478828
v 0.221261 0.242723 1.528441
v 0.158095 0.233124 1.498939
v 0.181721 0.245235 1.518718
v 0.213549 0.215990 1.498606
vt 0.500000 0.000000
vt 0.260000 0.333333
vt 0.260000 0.666667
vt 0.500000 1.000000
vt 0.740000 0.666667
vt 0.740000 0.333333
vn -0.2122 -0.6999 0.6820
s off
mtllib leafwood.mtl
usemtl Leaves
f 1/1/1 2/2/1 6/3/1 3/4/1
f 1/1/1 3/4/1 5/5/1 4/6/1
