# Blender v3.4.0 OBJ File: 'apple_tree10_sapling_1_8_2_2.blend'
# www.blender.org
o leaves.322
v 0.149753 0.168262 1.867545
v 0.177314 0.216476 1.867545
v 0.135620 0.302727 1.867545
v 0.112770 0.209692 1.867545
v 0.108059 0.254513 1.867545
v 0.172603 0.261297 1.867545
vt 0.500000 0.000000
vt 0.260000 0.333333
vt 0.260000 0.666667
vt 0.500000 1.000000
vt 0.740000 0.666667
vt 0.740000 0.333333
vn 0.0000 0.0000 1.0000
s off
mtllib leafwood.mtl
usemtl Leaves
f 1/1/1 2/2/1 6/3/1 3/4/1
f 1/1/1 3/4/1 5/5/1 4/6/1
