# Blender v3.4.0 OBJ File: 'apple_tree10_sapling_1_8_2_2.blend'
# www.blender.org
o leaves.179
v 0.144811 -0.091003 1.241438
v 0.101859 -0.097135 1.226969
v 0.133431 -0.134822 1.247938
v 0.063313 -0.165929 1.229484
v 0.106265 -0.159797 1.243953
v 0.074693 -0.122111 1.222985
vt 0.500000 0.000000
vt 0.260000 0.333333
vt 0.260000 0.666667
vt 0.500000 1.000000
vt 0.740000 0.666667
vt 0.740000 0.333333
vn -0.3397 0.2237 0.9135
s off
mtllib leafwood.mtl
usemtl Leaves
f 1/1/1 2/2/1 6/3/1 4/4/1
f 1/1/1 4/4/1 5/5/1 3/6/1
