# Blender v3.4.0 OBJ File: 'apple_tree10_sapling_1_8_2_2.blend'
# www.blender.org
o leaves.309
v 0.135715 0.026489 2.004249
v 0.164646 0.023852 2.003816
v 0.196634 0.062438 2.003768
v 0.147396 0.053091 2.004362
v 0.167702 0.065074 2.004202
v 0.184953 0.035835 2.003656
vt 0.500000 0.000000
vt 0.260000 0.333333
vt 0.260000 0.666667
vt 0.500000 1.000000
vt 0.740000 0.666667
vt 0.740000 0.333333
vn 0.0140 -0.0104 0.9998
s off
mtllib leafwood.mtl
usemtl Leaves
f 1/1/1 2/2/1 6/3/1 3/4/1
f 1/1/1 3/4/1 5/5/1 4/6/1
