# Blender v3.4.0 OBJ File: 'apple_tree10_sapling_1_8_2_2.blend'
# www.blender.org
o leaves.008
v 0.242674 0.008379 0.678270
v 0.257749 -0.029563 0.693318
v 0.306108 -0.036434 0.750311
v 0.269888 0.016445 0.711249
v 0.291033 0.001507 0.735263
v 0.278894 -0.044501 0.717332
vt 0.500000 0.000000
vt 0.260000 0.333333
vt 0.260000 0.666667
vt 0.500000 1.000000
vt 0.740000 0.666667
vt 0.740000 0.333333
vn -0.7645 -0.0488 0.6428
s off
mtllib leafwood.mtl
usemtl Leaves
f 1/1/1 2/2/1 6/3/1 3/4/1
f 1/1/1 3/4/1 5/5/1 4/6/1
