# Blender v3.4.0 OBJ File: 'apple_tree10_sapling_1_8_2_2.blend'
# www.blender.org
o leaves.002
v 0.239888 0.161732 0.767990
v 0.283125 0.152959 0.752370
v 0.350787 0.176347 0.789693
v 0.270584 0.180248 0.798079
v 0.307550 0.185120 0.805313
v 0.320092 0.157831 0.759604
vt 0.500000 0.000000
vt 0.260000 0.333333
vt 0.260000 0.666667
vt 0.500000 1.000000
vt 0.740000 0.666667
vt 0.740000 0.333333
vn 0.0122 -0.8571 0.5150
s off
mtllib leafwood.mtl
usemtl Leaves
f 1/1/1 2/2/1 6/3/1 3/4/1
f 1/1/1 3/4/1 5/5/1 4/6/1
