# Blender v3.4.0 OBJ File: 'apple_tree10_sapling_1_8_2_2.blend'
# www.blender.org
o leaves
v 0.228911 0.158182 0.759804
v 0.287829 0.152901 0.779010
v 0.325703 0.176993 0.802087
v 0.342535 0.230458 0.829036
v 0.283617 0.235739 0.809830
v 0.245742 0.211647 0.786753
vt 0.500000 0.000000
vt 0.260000 0.333333
vt 0.260000 0.666667
vt 0.500000 1.000000
vt 0.740000 0.666667
vt 0.740000 0.333333
vn -0.3187 -0.3447 0.8829
s off
mtllib leafwood.mtl
usemtl Leaves
f 1/1/1 2/2/1 3/3/1 4/4/1
f 1/1/1 4/4/1 5/5/1 6/6/1
