# Blender v3.4.0 OBJ File: 'apple_tree10_sapling_1_8_2_2.blend'
# www.blender.org
o leaves.338
v -0.244539 -0.069934 2.041259
v -0.288351 -0.088077 2.025405
v -0.306956 -0.172059 2.019056
v -0.242338 -0.119875 2.042311
v -0.263144 -0.153917 2.034910
v -0.309157 -0.122118 2.018004
vt 0.500000 0.000000
vt 0.260000 0.333333
vt 0.260000 0.666667
vt 0.500000 1.000000
vt 0.740000 0.666667
vt 0.740000 0.333333
vn -0.3420 0.0047 0.9397
s off
mtllib leafwood.mtl
usemtl Leaves
f 1/1/1 2/2/1 6/3/1 3/4/1
f 1/1/1 3/4/1 5/5/1 4/6/1
