# Blender v3.4.0 OBJ File: 'apple_tree10_sapling_1_8_2_2.blend'
# www.blender.org
o leaves.059
v 0.258836 0.034820 0.834502
v 0.258824 -0.013786 0.826042
v 0.314173 -0.068624 0.860283
v 0.295739 0.014463 0.860150
v 0.314185 -0.020018 0.868743
v 0.277270 -0.048267 0.834636
vt 0.500000 0.000000
vt 0.260000 0.333333
vt 0.260000 0.666667
vt 0.500000 1.000000
vt 0.740000 0.666667
vt 0.740000 0.333333
vn -0.6146 -0.1351 0.7771
s off
mtllib leafwood.mtl
usemtl Leaves
f 1/1/1 2/2/1 6/3/1 3/4/1
f 1/1/1 3/4/1 5/5/1 4/6/1
