# Blender v3.4.0 OBJ File: 'apple_tree10_sapling_1_8_2_2.blend'
# www.blender.org
o leaves.088
v -0.263559 0.156301 0.909295
v -0.258835 0.184696 0.897606
v -0.290422 0.226968 0.906958
v -0.286191 0.175018 0.919427
v -0.295146 0.198574 0.918648
v -0.267790 0.208251 0.896827
vt 0.500000 0.000000
vt 0.260000 0.333333
vt 0.260000 0.666667
vt 0.500000 1.000000
vt 0.740000 0.666667
vt 0.740000 0.333333
vn 0.5533 0.2367 0.7986
s off
mtllib leafwood.mtl
usemtl Leaves
f 1/1/1 2/2/1 6/3/1 3/4/1
f 1/1/1 3/4/1 5/5/1 4/6/1
