# Blender v3.4.0 OBJ File: 'apple_tree10_sapling_1_8_2_2.blend'
# www.blender.org
o leaves.301
v 0.091641 -0.219982 1.769536
v 0.067765 -0.248672 1.775509
v 0.081791 -0.301554 1.810986
v 0.108950 -0.245674 1.791196
v 0.105667 -0.272864 1.805013
v 0.064482 -0.275862 1.789326
vt 0.500000 0.000000
vt 0.260000 0.333333
vt 0.260000 0.666667
vt 0.500000 1.000000
vt 0.740000 0.666667
vt 0.740000 0.333333
vn -0.3453 0.4580 0.8192
vn -0.3454 0.4580 0.8192
s off
mtllib leafwood.mtl
usemtl Leaves
f 1/1/1 2/2/1 6/3/1 3/4/1
f 1/1/2 3/4/2 5/5/2 4/6/2
