# Blender v3.4.0 OBJ File: 'apple_tree10_sapling_1_8_2_2.blend'
# www.blender.org
o leaves.255
v 0.231648 0.147048 1.551753
v 0.261742 0.108401 1.548543
v 0.343428 0.112986 1.526714
v 0.276074 0.162987 1.538269
v 0.313334 0.151633 1.529923
v 0.299002 0.097047 1.540197
vt 0.500000 0.000000
vt 0.260000 0.333333
vt 0.260000 0.666667
vt 0.500000 1.000000
vt 0.740000 0.666667
vt 0.740000 0.333333
vn 0.2504 0.1152 0.9613
s off
mtllib leafwood.mtl
usemtl Leaves
f 1/1/1 2/2/1 6/3/1 3/4/1
f 1/1/1 3/4/1 5/5/1 4/6/1
