# Blender v3.4.0 OBJ File: 'apple_tree10_sapling_1_8_2_2.blend'
# www.blender.org
o leaves.139
v -0.323915 0.052570 1.058657
v -0.345247 0.088732 1.037831
v -0.419537 0.114775 1.056236
v -0.366332 0.057879 1.077869
v -0.398206 0.078614 1.077062
v -0.377121 0.109467 1.037024
vt 0.500000 0.000000
vt 0.260000 0.333333
vt 0.260000 0.666667
vt 0.500000 1.000000
vt 0.740000 0.666667
vt 0.740000 0.333333
vn 0.3866 0.6208 0.6820
s off
mtllib leafwood.mtl
usemtl Leaves
f 1/1/1 2/2/1 6/3/1 3/4/1
f 1/1/1 3/4/1 5/5/1 4/6/1
