# Blender v3.4.0 OBJ File: 'apple_tree10_sapling_1_8_2_2.blend'
# www.blender.org
o leaves.161
v -0.123395 -0.192591 1.199202
v -0.163428 -0.215332 1.227970
v -0.164594 -0.304815 1.255584
v -0.110827 -0.244665 1.208022
v -0.124561 -0.282073 1.226816
v -0.177162 -0.252741 1.246764
vt 0.500000 0.000000
vt 0.260000 0.333333
vt 0.260000 0.666667
vt 0.500000 1.000000
vt 0.740000 0.666667
vt 0.740000 0.333333
vn 0.4642 0.2556 0.8480
s off
mtllib leafwood.mtl
usemtl Leaves
f 1/1/1 2/2/1 6/3/1 3/4/1
f 1/1/1 3/4/1 5/5/1 4/6/1
