# Blender v3.4.0 OBJ File: 'apple_tree10_sapling_1_8_2_2.blend'
# www.blender.org
o leaves.216
v -0.179128 -0.101653 1.546274
v -0.199679 -0.113393 1.546337
v -0.203034 -0.154081 1.545818
v -0.174514 -0.124864 1.545907
v -0.182483 -0.142341 1.545755
v -0.207648 -0.130870 1.546185
vt 0.500000 0.000000
vt 0.260000 0.333333
vt 0.260000 0.666667
vt 0.500000 1.000000
vt 0.740000 0.666667
vt 0.740000 0.333333
vn 0.0109 -0.0137 0.9998
s off
mtllib leafwood.mtl
usemtl Leaves
f 1/1/1 2/2/1 6/3/1 3/4/1
f 1/1/1 3/4/1 5/5/1 4/6/1
