# Blender v3.4.0 OBJ File: 'apple_tree10_sapling_1_8_2_2.blend'
# www.blender.org
o leaves.335
v -0.146338 0.059678 2.127697
v -0.221771 0.124482 2.157094
v -0.188494 0.063952 2.132040
v -0.154470 0.098607 2.142952
v -0.179614 0.120208 2.152751
v -0.213639 0.085554 2.141839
vt 0.500000 0.000000
vt 0.500000 1.000000
vt 0.740000 0.666667
vt 0.740000 0.333333
vt 0.260000 0.333333
vt 0.260000 0.666667
vn 0.0604 -0.3532 0.9336
s off
mtllib leafwood.mtl
usemtl Leaves
f 1/1/1 2/2/1 6/3/1 3/4/1
f 1/1/1 4/5/1 5/6/1 2/2/1
