# Blender v3.4.0 OBJ File: 'apple_tree10_sapling_1_8_2_2.blend'
# www.blender.org
o leaves.116
v 0.312299 0.040854 1.023021
v 0.324277 0.075166 1.022258
v 0.348626 0.040360 1.021818
v 0.384757 0.091580 1.020072
v 0.372778 0.057269 1.020835
v 0.348430 0.092074 1.021275
vt 0.500000 0.000000
vt 0.500000 1.000000
vt 0.740000 0.666667
vt 0.740000 0.333333
vt 0.260000 0.333333
vt 0.260000 0.666667
vn 0.0332 0.0106 0.9994
vn 0.0333 0.0106 0.9994
s off
mtllib leafwood.mtl
usemtl Leaves
f 1/1/1 4/2/1 6/3/1 2/4/1
f 1/1/2 3/5/2 5/6/2 4/2/2
