# Blender v3.4.0 OBJ File: 'apple_tree10_sapling_1_8_2_2.blend'
# www.blender.org
o leaves.006
v 0.249327 0.162723 0.772711
v 0.270666 0.149929 0.771938
v 0.309267 0.167463 0.765134
v 0.267949 0.178677 0.768432
v 0.287929 0.180258 0.765907
v 0.290645 0.151509 0.769412
vt 0.500000 0.000000
vt 0.260000 0.333333
vt 0.260000 0.666667
vt 0.500000 1.000000
vt 0.740000 0.666667
vt 0.740000 0.333333
vn 0.1141 0.1309 0.9848
s off
mtllib leafwood.mtl
usemtl Leaves
f 1/1/1 2/2/1 6/3/1 3/4/1
f 1/1/1 3/4/1 5/5/1 4/6/1
