# Blender v3.4.0 OBJ File: 'apple_tree10_sapling_1_8_2_2.blend'
# www.blender.org
o leaves.159
v -0.198408 -0.115039 1.149048
v -0.217063 -0.090886 1.158919
v -0.272355 -0.092540 1.160172
v -0.229051 -0.124193 1.146593
v -0.253700 -0.116693 1.150301
v -0.241712 -0.083386 1.162627
vt 0.500000 0.000000
vt 0.260000 0.333333
vt 0.260000 0.666667
vt 0.500000 1.000000
vt 0.740000 0.666667
vt 0.740000 0.333333
vn 0.0318 -0.3570 0.9336
s off
mtllib leafwood.mtl
usemtl Leaves
f 1/1/1 2/2/1 6/3/1 3/4/1
f 1/1/1 3/4/1 5/5/1 4/6/1
