# Blender v3.4.0 OBJ File: 'apple_tree10_sapling_1_8_2_2.blend'
# www.blender.org
o leaves.288
v 0.158499 -0.174086 1.809454
v 0.183251 -0.216966 1.813029
v 0.265543 -0.227314 1.791727
v 0.205110 -0.166691 1.794061
v 0.240791 -0.184434 1.788152
v 0.218932 -0.234709 1.807120
vt 0.500000 0.000000
vt 0.260000 0.333333
vt 0.260000 0.666667
vt 0.500000 1.000000
vt 0.740000 0.666667
vt 0.740000 0.333333
vn 0.2711 0.2343 0.9336
s off
mtllib leafwood.mtl
usemtl Leaves
f 1/1/1 2/2/1 6/3/1 3/4/1
f 1/1/1 3/4/1 5/5/1 4/6/1
