# Blender v3.4.0 OBJ File: 'apple_tree10_sapling_1_8_2_2.blend'
# www.blender.org
o leaves.164
v -0.121736 -0.193686 1.198255
v -0.148706 -0.216764 1.165697
v -0.135141 -0.294652 1.140137
v -0.103702 -0.237919 1.192068
v -0.108171 -0.271574 1.172695
v -0.153175 -0.250419 1.146324
vt 0.500000 0.000000
vt 0.260000 0.333333
vt 0.260000 0.666667
vt 0.500000 1.000000
vt 0.740000 0.666667
vt 0.740000 0.333333
vn -0.5896 -0.3427 0.7314
s off
mtllib leafwood.mtl
usemtl Leaves
f 1/1/1 2/2/1 6/3/1 3/4/1
f 1/1/1 3/4/1 5/5/1 4/6/1
