# Blender v3.4.0 OBJ File: 'apple_tree10_sapling_1_8_2_2.blend'
# www.blender.org
o leaves.046
v -0.105892 -0.243496 0.764096
v -0.145075 -0.282939 0.792969
v -0.114095 -0.371253 0.847005
v -0.072177 -0.289225 0.790496
v -0.074911 -0.331810 0.818132
v -0.147809 -0.325524 0.820606
vt 0.500000 0.000000
vt 0.260000 0.333333
vt 0.260000 0.666667
vt 0.500000 1.000000
vt 0.740000 0.666667
vt 0.740000 0.333333
vn 0.0750 0.5395 0.8387
s off
mtllib leafwood.mtl
usemtl Leaves
f 1/1/1 2/2/1 6/3/1 3/4/1
f 1/1/1 3/4/1 5/5/1 4/6/1
