# Blender v3.4.0 OBJ File: 'apple_tree10_sapling_1_8_2_2.blend'
# www.blender.org
o leaves.062
v 0.265649 0.033188 0.838255
v 0.350537 0.014407 0.851677
v 0.296058 0.044599 0.854087
v 0.291831 0.009256 0.831371
v 0.320127 0.002996 0.835845
v 0.324355 0.038339 0.858561
vt 0.500000 0.000000
vt 0.500000 1.000000
vt 0.740000 0.666667
vt 0.740000 0.333333
vt 0.260000 0.333333
vt 0.260000 0.666667
vn -0.2426 -0.5039 0.8290
vn -0.2426 -0.5038 0.8290
s off
mtllib leafwood.mtl
usemtl Leaves
f 1/1/1 2/2/1 6/3/1 3/4/1
f 1/1/2 4/5/2 5/6/2 2/2/2
