# Blender v3.4.0 OBJ File: 'apple_tree10_sapling_1_8_2_2.blend'
# www.blender.org
o leaves.289
v 0.163558 -0.176791 1.810162
v 0.197172 -0.202761 1.795830
v 0.267831 -0.176933 1.777921
v 0.199460 -0.150915 1.803000
v 0.234217 -0.150963 1.792253
v 0.231930 -0.202808 1.785083
vt 0.500000 0.000000
vt 0.260000 0.333333
vt 0.260000 0.666667
vt 0.500000 1.000000
vt 0.740000 0.666667
vt 0.740000 0.333333
vn 0.2922 -0.1437 0.9455
s off
mtllib leafwood.mtl
usemtl Leaves
f 1/1/1 2/2/1 6/3/1 3/4/1
f 1/1/1 3/4/1 5/5/1 4/6/1
