# Blender v3.4.0 OBJ File: 'apple_tree10_sapling_1_8_2_2.blend'
# www.blender.org
o leaves.048
v -0.108064 -0.247586 0.765560
v -0.144725 -0.257888 0.744318
v -0.177894 -0.325349 0.746942
v -0.117957 -0.289125 0.774390
v -0.141234 -0.315046 0.768184
v -0.168002 -0.283809 0.738112
vt 0.500000 0.000000
vt 0.260000 0.333333
vt 0.260000 0.666667
vt 0.500000 1.000000
vt 0.740000 0.666667
vt 0.740000 0.333333
vn -0.5398 0.2961 0.7880
s off
mtllib leafwood.mtl
usemtl Leaves
f 1/1/1 2/2/1 6/3/1 3/4/1
f 1/1/1 3/4/1 5/5/1 4/6/1
