# Blender v3.4.0 OBJ File: 'apple_tree10_sapling_1_8_2_2.blend'
# www.blender.org
o leaves.198
v -0.098500 0.314941 1.288087
v -0.105343 0.357719 1.293420
v -0.152643 0.398816 1.251667
v -0.127752 0.328080 1.258474
v -0.145799 0.356038 1.246334
v -0.123391 0.385677 1.281280
vt 0.500000 0.000000
vt 0.260000 0.333333
vt 0.260000 0.666667
vt 0.500000 1.000000
vt 0.740000 0.666667
vt 0.740000 0.333333
vn -0.7399 -0.1985 0.6428
s off
mtllib leafwood.mtl
usemtl Leaves
f 1/1/1 2/2/1 6/3/1 3/4/1
f 1/1/1 3/4/1 5/5/1 4/6/1
