# Blender v3.4.0 OBJ File: 'apple_tree10_sapling_1_8_2_2.blend'
# www.blender.org
o leaves.183
v 0.139737 -0.107155 1.245372
v 0.083971 -0.160924 1.230698
v 0.107834 -0.111748 1.242234
v 0.134463 -0.138409 1.238727
v 0.115874 -0.156331 1.233836
v 0.089245 -0.129670 1.237342
vt 0.500000 0.000000
vt 0.500000 1.000000
vt 0.740000 0.666667
vt 0.740000 0.333333
vt 0.260000 0.333333
vt 0.260000 0.666667
vn -0.0679 -0.1965 0.9781
s off
mtllib leafwood.mtl
usemtl Leaves
f 1/1/1 2/2/1 5/3/1 4/4/1
f 1/1/1 3/5/1 6/6/1 2/2/1
