# Blender v3.4.0 OBJ File: 'apple_tree10_sapling_1_8_2_2.blend'
# www.blender.org
o leaves.343
v -0.092086 0.092335 2.101968
v -0.062129 0.112562 2.134760
v -0.061429 0.194397 2.154516
v -0.101604 0.140149 2.104208
v -0.091385 0.174170 2.121724
v -0.051910 0.146583 2.152276
vt 0.500000 0.000000
vt 0.260000 0.333333
vt 0.260000 0.666667
vt 0.500000 1.000000
vt 0.740000 0.666667
vt 0.740000 0.333333
vn -0.6741 -0.1679 0.7193
s off
mtllib leafwood.mtl
usemtl Leaves
f 1/1/1 2/2/1 6/3/1 3/4/1
f 1/1/1 3/4/1 5/5/1 4/6/1
