# Blender v3.4.0 OBJ File: 'apple_tree10_sapling_1_8_2_2.blend'
# www.blender.org
o leaves.336
v -0.147718 0.060748 2.129385
v -0.174030 0.075757 2.139493
v -0.197972 0.117808 2.113170
v -0.154909 0.083780 2.108467
v -0.171660 0.102800 2.103062
v -0.190781 0.094777 2.134088
vt 0.500000 0.000000
vt 0.500000 1.000000
vt 0.740000 0.666667
vt 0.740000 0.333333
vt 0.260000 0.333333
vt 0.260000 0.666667
vn 0.5654 0.6443 0.5150
s off
mtllib leafwood.mtl
usemtl Leaves
f 1/1/1 3/2/1 6/3/1 2/4/1
f 1/1/1 4/5/1 5/6/1 3/2/1
