# Blender v3.4.0 OBJ File: 'apple_tree10_sapling_1_8_2_2.blend'
# www.blender.org
o leaves.025
v 0.053358 0.221500 0.694643
v 0.109814 0.338749 0.694643
v 0.100316 0.247034 0.694643
v 0.044037 0.274132 0.694643
v 0.062856 0.313215 0.694643
v 0.119135 0.286117 0.694643
vt 0.500000 0.000000
vt 0.500000 1.000000
vt 0.740000 0.666667
vt 0.740000 0.333333
vt 0.260000 0.333333
vt 0.260000 0.666667
vn -0.0000 0.0000 1.0000
s off
mtllib leafwood.mtl
usemtl Leaves
f 1/1/1 2/2/1 5/3/1 4/4/1
f 1/1/1 3/5/1 6/6/1 2/2/1
