# Blender v3.4.0 OBJ File: 'apple_tree10_sapling_1_8_2_2.blend'
# www.blender.org
o leaves.265
v -0.020574 -0.284690 1.855138
v -0.029746 -0.316293 1.849191
v -0.001478 -0.362679 1.868607
v 0.001329 -0.305080 1.870065
v 0.007694 -0.331076 1.874555
v -0.023381 -0.342289 1.853680
vt 0.500000 0.000000
vt 0.260000 0.333333
vt 0.260000 0.666667
vt 0.500000 1.000000
vt 0.740000 0.666667
vt 0.740000 0.333333
vn -0.5592 0.0063 0.8290
vn -0.5591 0.0063 0.8290
s off
mtllib leafwood.mtl
usemtl Leaves
f 1/1/1 2/2/1 6/3/1 3/4/1
f 1/1/2 3/4/2 5/5/2 4/6/2
