# Blender v3.4.0 OBJ File: 'apple_tree10_sapling_1_8_2_2.blend'
# www.blender.org
o leaves.303
v 0.090261 -0.234035 1.763806
v 0.088402 -0.309810 1.767681
v 0.107700 -0.259616 1.767456
v 0.071582 -0.258971 1.762739
v 0.070963 -0.284229 1.764031
v 0.107081 -0.284874 1.768747
vt 0.500000 0.000000
vt 0.500000 1.000000
vt 0.740000 0.666667
vt 0.740000 0.333333
vt 0.260000 0.333333
vt 0.260000 0.666667
vn -0.1284 0.0538 0.9903
s off
mtllib leafwood.mtl
usemtl Leaves
f 1/1/1 2/2/1 6/3/1 3/4/1
f 1/1/1 4/5/1 5/6/1 2/2/1
