# Blender v3.4.0 OBJ File: 'apple_tree10_sapling_1_8_2_2.blend'
# www.blender.org
o leaves.306
v 0.132233 0.025143 1.998853
v 0.175704 0.024677 2.023593
v 0.221851 0.095090 2.042515
v 0.148507 0.072240 2.003221
v 0.178379 0.095556 2.017775
v 0.205577 0.047993 2.038147
vt 0.500000 0.000000
vt 0.260000 0.333333
vt 0.260000 0.666667
vt 0.500000 1.000000
vt 0.740000 0.666667
vt 0.740000 0.333333
vn -0.4919 0.0897 0.8660
vn -0.4919 0.0896 0.8660
s off
mtllib leafwood.mtl
usemtl Leaves
f 1/1/1 2/2/1 6/3/1 3/4/1
f 1/1/2 3/4/2 5/5/2 4/6/2
