# Blender v3.4.0 OBJ File: 'apple_tree10_sapling_1_8_2_2.blend'
# www.blender.org
o leaves.145
v -0.302475 0.120898 1.086470
v -0.333741 0.148807 1.085818
v -0.403957 0.131599 1.087045
v -0.338865 0.100123 1.087505
v -0.372692 0.103690 1.087697
v -0.367568 0.152374 1.086010
vt 0.500000 0.000000
vt 0.260000 0.333333
vt 0.260000 0.666667
vt 0.500000 1.000000
vt 0.740000 0.666667
vt 0.740000 0.333333
vn 0.0092 0.0337 0.9994
s off
mtllib leafwood.mtl
usemtl Leaves
f 1/1/1 2/2/1 6/3/1 3/4/1
f 1/1/1 3/4/1 5/5/1 4/6/1
