# Blender v3.4.0 OBJ File: 'apple_tree10_sapling_1_8_2_2.blend'
# www.blender.org
o leaves.263
v -0.018635 -0.274744 1.844751
v -0.056761 -0.284549 1.875768
v -0.014874 -0.322333 1.860016
v -0.070183 -0.360835 1.914173
v -0.073944 -0.313246 1.898909
v -0.032057 -0.351029 1.883156
vt 0.500000 0.000000
vt 0.260000 0.333333
vt 0.260000 0.666667
vt 0.500000 1.000000
vt 0.740000 0.666667
vt 0.740000 0.333333
vn 0.5568 0.2933 0.7771
s off
mtllib leafwood.mtl
usemtl Leaves
f 1/1/1 2/2/1 5/3/1 4/4/1
f 1/1/1 4/4/1 6/5/1 3/6/1
