# Blender v3.4.0 OBJ File: 'apple_tree10_sapling_1_8_2_2.blend'
# www.blender.org
o leaves.269
v -0.247559 -0.118561 1.765807
v -0.294120 -0.086939 1.765807
v -0.384537 -0.122319 1.765807
v -0.292317 -0.152688 1.765807
v -0.337976 -0.153941 1.765807
v -0.339779 -0.088192 1.765807
vt 0.500000 0.000000
vt 0.260000 0.333333
vt 0.260000 0.666667
vt 0.500000 1.000000
vt 0.740000 0.666667
vt 0.740000 0.333333
vn 0.0000 0.0000 1.0000
s off
mtllib leafwood.mtl
usemtl Leaves
f 1/1/1 2/2/1 6/3/1 3/4/1
f 1/1/1 3/4/1 5/5/1 4/6/1
