# Blender v3.4.0 OBJ File: 'apple_tree10_sapling_1_8_2_2.blend'
# www.blender.org
o leaves.172
v 0.184668 -0.032414 1.287619
v 0.193544 -0.062080 1.289191
v 0.241195 -0.078493 1.307095
v 0.213477 -0.033468 1.299031
v 0.232319 -0.048827 1.305523
v 0.212387 -0.077439 1.295683
vt 0.500000 0.000000
vt 0.260000 0.333333
vt 0.260000 0.666667
vt 0.500000 1.000000
vt 0.740000 0.666667
vt 0.740000 0.333333
vn -0.3695 -0.0614 0.9272
s off
mtllib leafwood.mtl
usemtl Leaves
f 1/1/1 2/2/1 6/3/1 3/4/1
f 1/1/1 3/4/1 5/5/1 4/6/1
