# Blender v3.4.0 OBJ File: 'apple_tree10_sapling_1_8_2_2.blend'
# www.blender.org
o leaves.057
v 0.264006 0.159619 0.791199
v 0.292598 0.164938 0.799695
v 0.313667 0.212534 0.804418
v 0.268522 0.189576 0.791516
v 0.285075 0.207214 0.795922
v 0.309152 0.182576 0.804101
vt 0.500000 0.000000
vt 0.260000 0.333333
vt 0.260000 0.666667
vt 0.500000 1.000000
vt 0.740000 0.666667
vt 0.740000 0.333333
vn -0.2904 0.0337 0.9563
s off
mtllib leafwood.mtl
usemtl Leaves
f 1/1/1 2/2/1 6/3/1 3/4/1
f 1/1/1 3/4/1 5/5/1 4/6/1
