# Blender v3.4.0 OBJ File: 'apple_tree10_sapling_1_8_2_2.blend'
# www.blender.org
o leaves.233
v 0.273792 0.021257 1.482557
v 0.315889 0.023702 1.470107
v 0.356352 0.087820 1.468008
v 0.286734 0.063187 1.485308
v 0.314254 0.085374 1.480458
v 0.343409 0.045890 1.465257
vt 0.500000 0.000000
vt 0.260000 0.333333
vt 0.260000 0.666667
vt 0.500000 1.000000
vt 0.740000 0.666667
vt 0.740000 0.333333
vn 0.2884 -0.1510 0.9455
s off
mtllib leafwood.mtl
usemtl Leaves
f 1/1/1 2/2/1 6/3/1 3/4/1
f 1/1/1 3/4/1 5/5/1 4/6/1
