# Blender v3.4.0 OBJ File: 'apple_tree10_sapling_1_8_2_2.blend'
# www.blender.org
o leaves.218
v -0.067674 0.245500 1.384870
v -0.040725 0.271103 1.364808
v -0.040273 0.343682 1.371258
v -0.076356 0.285352 1.395857
v -0.067223 0.318079 1.391320
v -0.031592 0.303830 1.360270
vt 0.500000 0.000000
vt 0.260000 0.333333
vt 0.260000 0.666667
vt 0.500000 1.000000
vt 0.740000 0.666667
vt 0.740000 0.333333
vn 0.6387 -0.0721 0.7660
s off
mtllib leafwood.mtl
usemtl Leaves
f 1/1/1 2/2/1 6/3/1 3/4/1
f 1/1/1 3/4/1 5/5/1 4/6/1
