# Blender v3.4.0 OBJ File: 'apple_tree10_sapling_1_8_2_2.blend'
# www.blender.org
o leaves.219
v -0.064596 0.248762 1.387842
v -0.018795 0.255805 1.388235
v 0.015869 0.327825 1.389624
v -0.056753 0.294428 1.388638
v -0.029932 0.320782 1.389231
v 0.008027 0.282160 1.388828
vt 0.500000 0.000000
vt 0.260000 0.333333
vt 0.260000 0.666667
vt 0.500000 1.000000
vt 0.740000 0.666667
vt 0.740000 0.333333
vn -0.0060 -0.0164 0.9998
s off
mtllib leafwood.mtl
usemtl Leaves
f 1/1/1 2/2/1 6/3/1 3/4/1
f 1/1/1 3/4/1 5/5/1 4/6/1
