# Blender v3.4.0 OBJ File: 'apple_tree10_sapling_1_8_2_2.blend'
# www.blender.org
o leaves.324
v 0.151303 0.174419 1.867616
v 0.210805 0.250972 1.844319
v 0.153660 0.209482 1.846578
v 0.188614 0.190392 1.873124
v 0.208448 0.215909 1.865358
v 0.173494 0.235000 1.838812
vt 0.500000 0.000000
vt 0.500000 1.000000
vt 0.740000 0.666667
vt 0.740000 0.333333
vt 0.260000 0.333333
vt 0.260000 0.666667
vn -0.3326 0.5016 0.7986
s off
mtllib leafwood.mtl
usemtl Leaves
f 1/1/1 2/2/1 6/3/1 3/4/1
f 1/1/1 4/5/1 5/6/1 2/2/1
