# Blender v3.4.0 OBJ File: 'apple_tree10_sapling_1_8_2_2.blend'
# www.blender.org
o leaves.248
v -0.026620 0.286956 1.700939
v -0.001427 0.327169 1.688024
v -0.032331 0.389711 1.639748
v -0.055620 0.315246 1.673060
v -0.057523 0.349497 1.652663
v -0.003331 0.361421 1.667627
vt 0.500000 0.000000
vt 0.260000 0.333333
vt 0.260000 0.666667
vt 0.500000 1.000000
vt 0.740000 0.666667
vt 0.740000 0.333333
vn -0.3295 0.4695 0.8192
s off
mtllib leafwood.mtl
usemtl Leaves
f 1/1/1 2/2/1 6/3/1 3/4/1
f 1/1/1 3/4/1 5/5/1 4/6/1
