# Blender v3.4.0 OBJ File: 'apple_tree10_sapling_1_8_2_2.blend'
# www.blender.org
o leaves.291
v 0.173676 -0.182200 1.811578
v 0.176541 -0.210587 1.801368
v 0.217334 -0.228111 1.773773
v 0.199917 -0.184420 1.796585
v 0.214470 -0.199723 1.783984
v 0.191093 -0.225891 1.788766
vt 0.500000 0.000000
vt 0.260000 0.333333
vt 0.260000 0.666667
vt 0.500000 1.000000
vt 0.740000 0.666667
vt 0.740000 0.333333
vn 0.4627 -0.2583 0.8480
s off
mtllib leafwood.mtl
usemtl Leaves
f 1/1/1 2/2/1 6/3/1 3/4/1
f 1/1/1 3/4/1 5/5/1 4/6/1
