# Blender v3.4.0 OBJ File: 'apple_tree10_sapling_1_8_2_2.blend'
# www.blender.org
o leaves.213
v -0.176614 -0.092512 1.529617
v -0.189154 -0.120059 1.557978
v -0.155386 -0.181455 1.572466
v -0.149923 -0.124260 1.529822
v -0.142847 -0.153907 1.544105
v -0.182078 -0.149707 1.572261
vt 0.500000 0.000000
vt 0.260000 0.333333
vt 0.260000 0.666667
vt 0.500000 1.000000
vt 0.740000 0.666667
vt 0.740000 0.333333
vn 0.5484 0.4655 0.6947
s off
mtllib leafwood.mtl
usemtl Leaves
f 1/1/1 2/2/1 6/3/1 3/4/1
f 1/1/1 3/4/1 5/5/1 4/6/1
