# Blender v3.4.0 OBJ File: 'apple_tree10_sapling_1_8_2_2.blend'
# www.blender.org
o leaves.356
v 0.163718 0.074205 2.297079
v 0.201879 0.070065 2.288177
v 0.251529 0.109660 2.312414
v 0.184098 0.101981 2.316205
v 0.213368 0.113799 2.321316
v 0.231149 0.081884 2.293288
vt 0.500000 0.000000
vt 0.260000 0.333333
vt 0.260000 0.666667
vt 0.500000 1.000000
vt 0.740000 0.666667
vt 0.740000 0.333333
vn 0.1142 -0.6189 0.7771
s off
mtllib leafwood.mtl
usemtl Leaves
f 1/1/1 2/2/1 6/3/1 3/4/1
f 1/1/1 3/4/1 5/5/1 4/6/1
