# Blender v3.4.0 OBJ File: 'apple_tree10_sapling_1_8_2_2.blend'
# www.blender.org
o leaves.045
v -0.058358 -0.140309 0.747651
v -0.068412 -0.162951 0.747239
v -0.083022 -0.137952 0.747397
v -0.110436 -0.170738 0.746651
v -0.085772 -0.173094 0.746905
v -0.100382 -0.148095 0.747063
vt 0.500000 0.000000
vt 0.500000 1.000000
vt 0.740000 0.666667
vt 0.740000 0.333333
vt 0.260000 0.333333
vt 0.260000 0.666667
vn -0.0116 -0.0131 0.9998
s off
mtllib leafwood.mtl
usemtl Leaves
f 1/1/1 4/2/1 5/3/1 2/4/1
f 1/1/1 3/5/1 6/6/1 4/2/1
