# Blender v3.4.0 OBJ File: 'apple_tree10_sapling_1_8_2_2.blend'
# www.blender.org
o leaves.266
v -0.021495 -0.289420 1.860078
v -0.023681 -0.320745 1.868068
v -0.052523 -0.298471 1.857785
v -0.071314 -0.349983 1.868623
v -0.069129 -0.318658 1.860633
v -0.040287 -0.340933 1.870916
vt 0.500000 0.000000
vt 0.500000 1.000000
vt 0.740000 0.666667
vt 0.740000 0.333333
vt 0.260000 0.333333
vt 0.260000 0.666667
vn -0.1448 0.2540 0.9563
s off
mtllib leafwood.mtl
usemtl Leaves
f 1/1/1 4/2/1 6/3/1 2/4/1
f 1/1/1 3/5/1 5/6/1 4/2/1
