# Blender v3.4.0 OBJ File: 'apple_tree10_sapling_1_8_2_2.blend'
# www.blender.org
o leaves.349
v 0.131803 -0.155936 2.165489
v 0.127733 -0.203983 2.163475
v 0.190927 -0.257089 2.174293
v 0.175288 -0.175325 2.173372
v 0.194996 -0.209043 2.176307
v 0.147441 -0.237700 2.166410
vt 0.500000 0.000000
vt 0.260000 0.333333
vt 0.260000 0.666667
vt 0.500000 1.000000
vt 0.740000 0.666667
vt 0.740000 0.333333
vn -0.1891 -0.0251 0.9816
vn -0.1892 -0.0251 0.9816
s off
mtllib leafwood.mtl
usemtl Leaves
f 1/1/1 2/2/1 6/3/1 3/4/1
f 1/1/2 3/4/2 5/5/2 4/6/2
