# Blender v3.4.0 OBJ File: 'apple_tree10_sapling_1_8_2_2.blend'
# www.blender.org
o leaves.315
v 0.209989 0.114166 1.899567
v 0.239271 0.119459 1.901061
v 0.260273 0.166321 1.903154
v 0.214230 0.143643 1.900464
v 0.230992 0.161028 1.901660
v 0.256032 0.136844 1.902256
vt 0.500000 0.000000
vt 0.260000 0.333333
vt 0.260000 0.666667
vt 0.500000 1.000000
vt 0.740000 0.666667
vt 0.740000 0.333333
vn -0.0467 -0.0237 0.9986
s off
mtllib leafwood.mtl
usemtl Leaves
f 1/1/1 2/2/1 6/3/1 3/4/1
f 1/1/1 3/4/1 5/5/1 4/6/1
