# Blender v3.4.0 OBJ File: 'apple_tree10_sapling_1_8_2_2.blend'
# www.blender.org
o leaves.080
v -0.239598 -0.135487 0.878728
v -0.273478 -0.133459 0.885891
v -0.309735 -0.180709 0.891691
v -0.252476 -0.167662 0.880206
v -0.275855 -0.182736 0.884527
v -0.296857 -0.148533 0.890212
vt 0.500000 0.000000
vt 0.260000 0.333333
vt 0.260000 0.666667
vt 0.500000 1.000000
vt 0.740000 0.666667
vt 0.740000 0.333333
vn 0.2046 -0.0369 0.9781
s off
mtllib leafwood.mtl
usemtl Leaves
f 1/1/1 2/2/1 6/3/1 3/4/1
f 1/1/1 3/4/1 5/5/1 4/6/1
