# Blender v3.4.0 OBJ File: 'apple_tree10_sapling_1_8_2_2.blend'
# www.blender.org
o leaves.190
v -0.014956 0.324331 1.316863
v 0.012380 0.367874 1.297403
v -0.027936 0.450469 1.274053
v -0.050946 0.364881 1.307783
v -0.055272 0.406926 1.293513
v 0.008054 0.409920 1.283133
vt 0.500000 0.000000
vt 0.260000 0.333333
vt 0.260000 0.666667
vt 0.500000 1.000000
vt 0.740000 0.666667
vt 0.740000 0.333333
vn 0.1374 0.3310 0.9336
s off
mtllib leafwood.mtl
usemtl Leaves
f 1/1/1 2/2/1 6/3/1 3/4/1
f 1/1/1 3/4/1 5/5/1 4/6/1
