# Blender v3.4.0 OBJ File: 'apple_tree10_sapling_1_8_2_2.blend'
# www.blender.org
o leaves.093
v -0.298839 0.022095 0.853560
v -0.317479 0.049365 0.837663
v -0.377704 0.045295 0.818813
v -0.332776 0.010292 0.846293
v -0.359064 0.018025 0.834711
v -0.343768 0.057098 0.826080
vt 0.500000 0.000000
vt 0.260000 0.333333
vt 0.260000 0.666667
vt 0.500000 1.000000
vt 0.740000 0.666667
vt 0.740000 0.333333
vn -0.3027 0.3170 0.8988
s off
mtllib leafwood.mtl
usemtl Leaves
f 1/1/1 2/2/1 6/3/1 3/4/1
f 1/1/1 3/4/1 5/5/1 4/6/1
