# Blender v3.4.0 OBJ File: 'apple_tree10_sapling_1_8_2_2.blend'
# www.blender.org
o leaves.054
v 0.247347 0.147843 0.786493
v 0.288205 0.172353 0.775202
v 0.290838 0.254565 0.755997
v 0.235483 0.194481 0.777453
v 0.249980 0.230055 0.767288
v 0.302702 0.207927 0.765037
vt 0.500000 0.000000
vt 0.260000 0.333333
vt 0.260000 0.666667
vt 0.500000 1.000000
vt 0.740000 0.666667
vt 0.740000 0.333333
vn 0.1341 0.2213 0.9659
s off
mtllib leafwood.mtl
usemtl Leaves
f 1/1/1 2/2/1 6/3/1 3/4/1
f 1/1/1 3/4/1 5/5/1 4/6/1
