# Blender v3.4.0 OBJ File: 'apple_tree10_sapling_1_8_2_2.blend'
# www.blender.org
o leaves.276
v -0.205650 -0.223652 1.677727
v -0.292305 -0.293372 1.701155
v -0.252116 -0.226476 1.681266
v -0.216955 -0.267308 1.689806
v -0.245840 -0.290548 1.697615
v -0.281001 -0.249716 1.689076
vt 0.500000 0.000000
vt 0.500000 1.000000
vt 0.740000 0.666667
vt 0.740000 0.333333
vt 0.260000 0.333333
vt 0.260000 0.666667
vn 0.0583 0.2522 0.9659
s off
mtllib leafwood.mtl
usemtl Leaves
f 1/1/1 2/2/1 5/3/1 4/4/1
f 1/1/1 3/5/1 6/6/1 2/2/1
