# Blender v3.4.0 OBJ File: 'apple_tree10_sapling_1_8_2_2.blend'
# www.blender.org
o leaves.353
v 0.142924 -0.178094 2.178897
v 0.166287 -0.242384 2.163439
v 0.161256 -0.198843 2.186845
v 0.140168 -0.200205 2.160643
v 0.147956 -0.221635 2.155490
v 0.169043 -0.220273 2.181692
vt 0.500000 0.000000
vt 0.500000 1.000000
vt 0.740000 0.666667
vt 0.740000 0.333333
vt 0.260000 0.333333
vt 0.260000 0.666667
vn -0.7047 -0.3974 0.5878
s off
mtllib leafwood.mtl
usemtl Leaves
f 1/1/1 2/2/1 6/3/1 3/4/1
f 1/1/1 4/5/1 5/6/1 2/2/1
