# Blender v3.4.0 OBJ File: 'apple_tree10_sapling_1_8_2_2.blend'
# www.blender.org
o leaves.042
v -0.050713 -0.127816 0.745462
v -0.096485 -0.141877 0.747987
v -0.120843 -0.220121 0.759238
v -0.051693 -0.175292 0.752121
v -0.075070 -0.206060 0.756713
v -0.119862 -0.172646 0.752579
vt 0.500000 0.000000
vt 0.260000 0.333333
vt 0.260000 0.666667
vt 0.500000 1.000000
vt 0.740000 0.666667
vt 0.740000 0.333333
vn 0.0120 0.1387 0.9903
s off
mtllib leafwood.mtl
usemtl Leaves
f 1/1/1 2/2/1 6/3/1 3/4/1
f 1/1/1 3/4/1 5/5/1 4/6/1
