# Blender v3.4.0 OBJ File: 'apple_tree10_sapling_1_8_2_2.blend'
# www.blender.org
o leaves.142
v -0.295770 0.116245 1.080568
v -0.387435 0.218023 1.078728
v -0.350676 0.128199 1.077704
v -0.301974 0.172143 1.082205
v -0.332529 0.206069 1.081591
v -0.381231 0.162125 1.077091
vt 0.500000 0.000000
vt 0.500000 1.000000
vt 0.740000 0.666667
vt 0.740000 0.333333
vt 0.260000 0.333333
vt 0.260000 0.666667
vn -0.0598 -0.0359 0.9976
s off
mtllib leafwood.mtl
usemtl Leaves
f 1/1/1 2/2/1 6/3/1 3/4/1
f 1/1/1 4/5/1 5/6/1 2/2/1
