# Blender v3.4.0 OBJ File: 'apple_tree10_sapling_1_8_2_2.blend'
# www.blender.org
o leaves.365
v -0.000611 0.011159 2.410911
v -0.012378 -0.027763 2.419796
v 0.032855 -0.081349 2.435205
v 0.033467 -0.011591 2.418222
v 0.044622 -0.042427 2.426320
v -0.001222 -0.058599 2.427894
vt 0.500000 0.000000
vt 0.260000 0.333333
vt 0.260000 0.666667
vt 0.500000 1.000000
vt 0.740000 0.666667
vt 0.740000 0.333333
vn -0.0502 0.2367 0.9703
s off
mtllib leafwood.mtl
usemtl Leaves
f 1/1/1 2/2/1 6/3/1 3/4/1
f 1/1/1 3/4/1 5/5/1 4/6/1
