# Blender v3.4.0 OBJ File: 'apple_tree10_sapling_1_8_2_2.blend'
# www.blender.org
o leaves.076
v -0.339466 -0.074537 0.810053
v -0.362106 -0.075786 0.796264
v -0.395148 -0.106641 0.803474
v -0.353947 -0.094690 0.819455
v -0.372507 -0.105392 0.817263
v -0.380667 -0.086488 0.794071
vt 0.500000 0.000000
vt 0.260000 0.333333
vt 0.260000 0.666667
vt 0.500000 1.000000
vt 0.740000 0.666667
vt 0.740000 0.333333
vn -0.4337 0.6177 0.6561
vn -0.4336 0.6177 0.6561
s off
mtllib leafwood.mtl
usemtl Leaves
f 1/1/1 2/2/1 6/3/1 3/4/1
f 1/1/2 3/4/2 5/5/2 4/6/2
