# Blender v3.4.0 OBJ File: 'apple_tree10_sapling_1_8_2_2.blend'
# www.blender.org
o leaves.153
v -0.344654 0.012853 1.113068
v -0.373528 0.030130 1.113643
v -0.426282 0.005906 1.114371
v -0.370198 -0.009056 1.113361
v -0.397407 -0.011371 1.113795
v -0.400738 0.027815 1.114078
vt 0.500000 0.000000
vt 0.260000 0.333333
vt 0.260000 0.666667
vt 0.500000 1.000000
vt 0.740000 0.666667
vt 0.740000 0.333333
vn 0.0165 -0.0058 0.9998
s off
mtllib leafwood.mtl
usemtl Leaves
f 1/1/1 2/2/1 6/3/1 3/4/1
f 1/1/1 3/4/1 5/5/1 4/6/1
