# Blender v3.4.0 OBJ File: 'apple_tree10_sapling_1_8_2_2.blend'
# www.blender.org
o leaves.146
v -0.304861 0.122554 1.088570
v -0.307758 0.160342 1.073531
v -0.365011 0.186337 1.042010
v -0.342064 0.127288 1.072569
v -0.362114 0.148549 1.057049
v -0.327808 0.181603 1.058010
vt 0.500000 0.000000
vt 0.260000 0.333333
vt 0.260000 0.666667
vt 0.500000 1.000000
vt 0.740000 0.666667
vt 0.740000 0.333333
vn -0.3383 0.3255 0.8829
s off
mtllib leafwood.mtl
usemtl Leaves
f 1/1/1 2/2/1 6/3/1 3/4/1
f 1/1/1 3/4/1 5/5/1 4/6/1
