# Blender v3.4.0 OBJ File: 'apple_tree10_sapling_1_8_2_2.blend'
# www.blender.org
o leaves.225
v -0.264796 0.041670 1.476774
v -0.303092 0.053789 1.446165
v -0.384445 0.023850 1.454795
v -0.306266 0.017671 1.492729
v -0.346149 0.011731 1.485403
v -0.342975 0.047849 1.438839
vt 0.500000 0.000000
vt 0.260000 0.333333
vt 0.260000 0.666667
vt 0.500000 1.000000
vt 0.740000 0.666667
vt 0.740000 0.333333
vn -0.2238 0.7775 0.5878
s off
mtllib leafwood.mtl
usemtl Leaves
f 1/1/1 2/2/1 6/3/1 3/4/1
f 1/1/1 3/4/1 5/5/1 4/6/1
