# Blender v3.4.0 OBJ File: 'apple_tree10_sapling_1_8_2_2.blend'
# www.blender.org
o leaves.017
v 0.129376 0.207035 0.660722
v 0.182922 0.245912 0.677609
v 0.137883 0.233404 0.665099
v 0.156565 0.206585 0.667603
v 0.174414 0.219544 0.673232
v 0.155732 0.246363 0.670728
vt 0.500000 0.000000
vt 0.500000 1.000000
vt 0.740000 0.666667
vt 0.740000 0.333333
vt 0.260000 0.333333
vt 0.260000 0.666667
vn -0.2458 -0.0810 0.9659
s off
mtllib leafwood.mtl
usemtl Leaves
f 1/1/1 2/2/1 6/3/1 3/4/1
f 1/1/1 4/5/1 5/6/1 2/2/1
