# Blender v3.4.0 OBJ File: 'apple_tree10_sapling_1_8_2_2.blend'
# www.blender.org
o leaves.358
v 0.168347 0.076538 2.302253
v 0.183439 0.107744 2.300563
v 0.242502 0.116618 2.296448
v 0.202692 0.072052 2.300073
v 0.227410 0.085412 2.298138
v 0.208158 0.121104 2.298628
vt 0.500000 0.000000
vt 0.500000 1.000000
vt 0.740000 0.666667
vt 0.740000 0.333333
vt 0.260000 0.333333
vt 0.260000 0.666667
vn 0.0662 0.0220 0.9976
s off
mtllib leafwood.mtl
usemtl Leaves
f 1/1/1 3/2/1 6/3/1 2/4/1
f 1/1/1 4/5/1 5/6/1 3/2/1
