# Blender v3.4.0 OBJ File: 'apple_tree10_sapling_1_8_2_2.blend'
# www.blender.org
o leaves.317
v 0.097177 -0.136579 1.923018
v 0.080068 -0.176749 1.921983
v 0.119756 -0.240208 1.930580
v 0.129339 -0.165495 1.929095
v 0.136865 -0.200038 1.931615
v 0.087594 -0.211292 1.924504
vt 0.500000 0.000000
vt 0.260000 0.333333
vt 0.260000 0.666667
vt 0.500000 1.000000
vt 0.740000 0.666667
vt 0.740000 0.333333
vn -0.1515 0.0391 0.9877
s off
mtllib leafwood.mtl
usemtl Leaves
f 1/1/1 2/2/1 6/3/1 3/4/1
f 1/1/1 3/4/1 5/5/1 4/6/1
