# Blender v3.4.0 OBJ File: 'apple_tree10_sapling_1_8_2_2.blend'
# www.blender.org
o leaves.135
v -0.314864 0.054062 1.057311
v -0.356867 0.083464 1.047506
v -0.430007 0.054739 1.003529
v -0.349622 0.025112 1.031262
v -0.388003 0.025337 1.013335
v -0.395247 0.083690 1.029578
vt 0.500000 0.000000
vt 0.260000 0.333333
vt 0.260000 0.666667
vt 0.500000 1.000000
vt 0.740000 0.666667
vt 0.740000 0.333333
vn -0.4062 -0.2915 0.8660
s off
mtllib leafwood.mtl
usemtl Leaves
f 1/1/1 2/2/1 6/3/1 3/4/1
f 1/1/1 3/4/1 5/5/1 4/6/1
