# Blender v3.4.0 OBJ File: 'apple_tree10_sapling_1_8_2_2.blend'
# www.blender.org
o leaves.029
v 0.157887 0.152518 0.761720
v 0.202677 0.106834 0.758085
v 0.294005 0.113592 0.696171
v 0.203842 0.172251 0.721656
v 0.249215 0.159276 0.699806
v 0.248050 0.093858 0.736236
vt 0.500000 0.000000
vt 0.260000 0.333333
vt 0.260000 0.666667
vt 0.500000 1.000000
vt 0.740000 0.666667
vt 0.740000 0.333333
vn 0.4884 0.4179 0.7660
s off
mtllib leafwood.mtl
usemtl Leaves
f 1/1/1 2/2/1 6/3/1 3/4/1
f 1/1/1 3/4/1 5/5/1 4/6/1
