# Blender v3.4.0 OBJ File: 'apple_tree10_sapling_1_8_2_2.blend'
# www.blender.org
o leaves.016
v 0.129213 0.206653 0.660896
v 0.158794 0.229234 0.653903
v 0.155896 0.294469 0.652223
v 0.117420 0.242616 0.662107
v 0.126315 0.271888 0.659216
v 0.167689 0.258506 0.651012
vt 0.500000 0.000000
vt 0.260000 0.333333
vt 0.260000 0.666667
vt 0.500000 1.000000
vt 0.740000 0.666667
vt 0.740000 0.333333
vn 0.2051 0.0343 0.9781
s off
mtllib leafwood.mtl
usemtl Leaves
f 1/1/1 2/2/1 6/3/1 3/4/1
f 1/1/1 3/4/1 5/5/1 4/6/1
