# Blender v3.4.0 OBJ File: 'apple_tree10_sapling_1_8_2_2.blend'
# www.blender.org
o leaves.119
v 0.226968 -0.108940 0.963888
v 0.268133 -0.117893 0.976502
v 0.228271 -0.150234 0.978954
v 0.290671 -0.184310 1.005408
v 0.249505 -0.175357 0.992794
v 0.289368 -0.143016 0.990342
vt 0.500000 0.000000
vt 0.500000 1.000000
vt 0.740000 0.666667
vt 0.740000 0.333333
vt 0.260000 0.333333
vt 0.260000 0.666667
vn -0.2105 0.3292 0.9205
s off
mtllib leafwood.mtl
usemtl Leaves
f 1/1/1 4/2/1 6/3/1 2/4/1
f 1/1/1 3/5/1 5/6/1 4/2/1
