# Blender v3.4.0 OBJ File: 'apple_tree10_sapling_1_8_2_2.blend'
# www.blender.org
o leaves.204
v -0.216265 0.234290 1.302518
v -0.325345 0.299740 1.308489
v -0.238150 0.278928 1.318786
v -0.267099 0.233286 1.290231
v -0.303460 0.255102 1.292222
v -0.274511 0.300744 1.320776
vt 0.500000 0.000000
vt 0.500000 1.000000
vt 0.740000 0.666667
vt 0.740000 0.333333
vt 0.260000 0.333333
vt 0.260000 0.666667
vn -0.2051 -0.4223 0.8829
s off
mtllib leafwood.mtl
usemtl Leaves
f 1/1/1 2/2/1 5/3/1 4/4/1
f 1/1/1 3/5/1 6/6/1 2/2/1
