# Blender v3.4.0 OBJ File: 'apple_tree10_sapling_1_8_2_2.blend'
# www.blender.org
o leaves.111
v 0.021763 -0.225231 0.937891
v 0.003401 -0.242953 0.939153
v 0.010127 -0.285077 0.950240
v 0.032368 -0.247407 0.944862
v 0.028489 -0.267355 0.948978
v -0.000478 -0.262901 0.943269
vt 0.500000 0.000000
vt 0.260000 0.333333
vt 0.260000 0.666667
vt 0.500000 1.000000
vt 0.740000 0.666667
vt 0.740000 0.333333
vn -0.1543 0.2284 0.9613
vn -0.1544 0.2284 0.9613
s off
mtllib leafwood.mtl
usemtl Leaves
f 1/1/1 2/2/1 6/3/1 3/4/1
f 1/1/2 3/4/2 5/5/2 4/6/2
