# Blender v3.4.0 OBJ File: 'apple_tree10_sapling_1_8_2_2.blend'
# www.blender.org
o leaves.049
v -0.109128 -0.249587 0.766276
v -0.148459 -0.255872 0.774872
v -0.182881 -0.315798 0.762033
v -0.118965 -0.287443 0.754851
v -0.143550 -0.309513 0.753437
v -0.173044 -0.277942 0.773458
vt 0.500000 0.000000
vt 0.260000 0.333333
vt 0.260000 0.666667
vt 0.500000 1.000000
vt 0.740000 0.666667
vt 0.740000 0.333333
vn 0.2523 -0.3391 0.9063
s off
mtllib leafwood.mtl
usemtl Leaves
f 1/1/1 2/2/1 6/3/1 3/4/1
f 1/1/1 3/4/1 5/5/1 4/6/1
