# Blender v3.4.0 OBJ File: 'apple_tree10_sapling_1_8_2_2.blend'
# www.blender.org
o leaves.268
v -0.245048 -0.118901 1.761116
v -0.301684 -0.099207 1.757469
v -0.280568 -0.165430 1.747619
v -0.383283 -0.159154 1.735400
v -0.347763 -0.112625 1.748897
v -0.326647 -0.178848 1.739047
vt 0.500000 0.000000
vt 0.260000 0.333333
vt 0.260000 0.666667
vt 0.500000 1.000000
vt 0.740000 0.666667
vt 0.740000 0.333333
vn -0.1272 -0.1855 0.9744
s off
mtllib leafwood.mtl
usemtl Leaves
f 1/1/1 2/2/1 5/3/1 4/4/1
f 1/1/1 4/4/1 6/5/1 3/6/1
