# Blender v3.4.0 OBJ File: 'apple_tree10_sapling_1_8_2_2.blend'
# www.blender.org
o leaves.230
v 0.264538 0.019757 1.482202
v 0.311585 -0.008449 1.514932
v 0.406556 0.040364 1.542126
v 0.312170 0.061701 1.489422
v 0.359509 0.068570 1.509397
v 0.358924 -0.001580 1.534907
vt 0.500000 0.000000
vt 0.260000 0.333333
vt 0.260000 0.666667
vt 0.500000 1.000000
vt 0.740000 0.666667
vt 0.740000 0.333333
vn -0.4074 0.3151 0.8572
s off
mtllib leafwood.mtl
usemtl Leaves
f 1/1/1 2/2/1 6/3/1 3/4/1
f 1/1/1 3/4/1 5/5/1 4/6/1
