# Blender v3.4.0 OBJ File: 'apple_tree10_sapling_1_8_2_2.blend'
# www.blender.org
o leaves.154
v -0.349762 0.014828 1.114295
v -0.373980 0.034024 1.098157
v -0.433080 0.023109 1.100377
v -0.381088 0.001153 1.121154
v -0.408861 0.003913 1.116515
v -0.401753 0.036784 1.093518
vt 0.500000 0.000000
vt 0.260000 0.333333
vt 0.260000 0.666667
vt 0.500000 1.000000
vt 0.740000 0.666667
vt 0.740000 0.333333
vn -0.0772 0.5827 0.8090
s off
mtllib leafwood.mtl
usemtl Leaves
f 1/1/1 2/2/1 6/3/1 3/4/1
f 1/1/1 3/4/1 5/5/1 4/6/1
