# Blender v3.4.0 OBJ File: 'apple_tree10_sapling_1_8_2_2.blend'
# www.blender.org
o leaves.280
v -0.213419 -0.231852 1.680526
v -0.241864 -0.242879 1.680442
v -0.253946 -0.294081 1.681871
v -0.211992 -0.262311 1.681506
v -0.225501 -0.283054 1.681954
v -0.255373 -0.263622 1.680891
vt 0.500000 0.000000
vt 0.260000 0.333333
vt 0.260000 0.666667
vt 0.500000 1.000000
vt 0.740000 0.666667
vt 0.740000 0.333333
vn -0.0151 0.0315 0.9994
s off
mtllib leafwood.mtl
usemtl Leaves
f 1/1/1 2/2/1 6/3/1 3/4/1
f 1/1/1 3/4/1 5/5/1 4/6/1
