# Blender v3.4.0 OBJ File: 'apple_tree10_sapling_1_8_2_2.blend'
# www.blender.org
o leaves.169
v 0.181904 -0.030761 1.277964
v 0.200243 -0.074891 1.275634
v 0.280100 -0.091669 1.263242
v 0.229030 -0.027235 1.270480
v 0.261762 -0.047538 1.265572
v 0.232975 -0.095194 1.270726
vt 0.500000 0.000000
vt 0.260000 0.333333
vt 0.260000 0.666667
vt 0.500000 1.000000
vt 0.740000 0.666667
vt 0.740000 0.333333
vn 0.1559 0.0126 0.9877
s off
mtllib leafwood.mtl
usemtl Leaves
f 1/1/1 2/2/1 6/3/1 3/4/1
f 1/1/1 3/4/1 5/5/1 4/6/1
