# Blender v3.4.0 OBJ File: 'apple_tree10_sapling_1_8_2_2.blend'
# www.blender.org
o leaves.192
v -0.007108 0.335016 1.321257
v 0.040862 0.318202 1.338382
v 0.119815 0.365152 1.327251
v 0.029537 0.371920 1.308129
v 0.071844 0.381966 1.310127
v 0.083170 0.328248 1.340380
vt 0.500000 0.000000
vt 0.260000 0.333333
vt 0.260000 0.666667
vt 0.500000 1.000000
vt 0.740000 0.666667
vt 0.740000 0.333333
vn -0.1507 0.4608 0.8746
s off
mtllib leafwood.mtl
usemtl Leaves
f 1/1/1 2/2/1 6/3/1 3/4/1
f 1/1/1 3/4/1 5/5/1 4/6/1
