# Blender v3.4.0 OBJ File: 'apple_tree10_sapling_1_8_2_2.blend'
# www.blender.org
o leaves.149
v -0.322757 0.004386 1.107808
v -0.372978 0.027524 1.120754
v -0.459643 -0.010019 1.094739
v -0.363793 -0.028356 1.086150
v -0.409422 -0.033157 1.081793
v -0.418607 0.022722 1.116397
vt 0.500000 0.000000
vt 0.260000 0.333333
vt 0.260000 0.666667
vt 0.500000 1.000000
vt 0.740000 0.666667
vt 0.740000 0.333333
vn -0.0253 -0.5293 0.8480
s off
mtllib leafwood.mtl
usemtl Leaves
f 1/1/1 2/2/1 6/3/1 3/4/1
f 1/1/1 3/4/1 5/5/1 4/6/1
