# Blender v3.4.0 OBJ File: 'apple_tree10_sapling_1_8_2_2.blend'
# www.blender.org
o leaves.281
v 0.175427 0.011388 1.890213
v 0.226340 0.047457 1.893846
v 0.228337 0.152674 1.870407
v 0.159788 0.069510 1.873376
v 0.177425 0.116606 1.866774
v 0.243977 0.094552 1.887244
vt 0.500000 0.000000
vt 0.260000 0.333333
vt 0.260000 0.666667
vt 0.500000 1.000000
vt 0.740000 0.666667
vt 0.740000 0.333333
vn -0.2209 0.2161 0.9511
s off
mtllib leafwood.mtl
usemtl Leaves
f 1/1/1 2/2/1 6/3/1 3/4/1
f 1/1/1 3/4/1 5/5/1 4/6/1
