# Blender v3.4.0 OBJ File: 'apple_tree10_sapling_1_8_2_2.blend'
# www.blender.org
o leaves.264
v -0.019537 -0.279370 1.849582
v 0.007236 -0.316593 1.839715
v -0.047438 -0.314683 1.836385
v -0.021230 -0.388175 1.814986
v -0.048003 -0.350951 1.824853
v 0.006671 -0.352861 1.828183
vt 0.500000 0.000000
vt 0.500000 1.000000
vt 0.740000 0.666667
vt 0.740000 0.333333
vt 0.260000 0.333333
vt 0.260000 0.666667
vn -0.0685 -0.3013 0.9511
s off
mtllib leafwood.mtl
usemtl Leaves
f 1/1/1 4/2/1 6/3/1 2/4/1
f 1/1/1 3/5/1 5/6/1 4/2/1
