# Blender v3.4.0 OBJ File: 'apple_tree10_sapling_1_8_2_2.blend'
# www.blender.org
o leaves.352
v 0.140210 -0.172686 2.175625
v 0.120703 -0.195607 2.181483
v 0.131269 -0.236478 2.213355
v 0.153756 -0.192293 2.194919
v 0.150775 -0.213557 2.207496
v 0.117723 -0.216871 2.194060
vt 0.500000 0.000000
vt 0.260000 0.333333
vt 0.260000 0.666667
vt 0.500000 1.000000
vt 0.740000 0.666667
vt 0.740000 0.333333
vn -0.3672 0.5111 0.7771
vn -0.3672 0.5111 0.7772
s off
mtllib leafwood.mtl
usemtl Leaves
f 1/1/1 2/2/1 6/3/1 3/4/1
f 1/1/2 3/4/2 5/5/2 4/6/2
