# Blender v3.4.0 OBJ File: 'apple_tree10_sapling_1_8_2_2.blend'
# www.blender.org
o leaves.326
v 0.152853 0.180577 1.867687
v 0.164038 0.206303 1.874888
v 0.131099 0.198554 1.874196
v 0.136999 0.246131 1.888252
v 0.125815 0.220405 1.881051
v 0.158753 0.228155 1.881743
vt 0.500000 0.000000
vt 0.260000 0.333333
vt 0.260000 0.666667
vt 0.500000 1.000000
vt 0.740000 0.666667
vt 0.740000 0.333333
vn 0.0478 -0.2884 0.9563
s off
mtllib leafwood.mtl
usemtl Leaves
f 1/1/1 2/2/1 6/3/1 4/4/1
f 1/1/1 4/4/1 5/5/1 3/6/1
