# Blender v3.4.0 OBJ File: 'apple_tree10_sapling_1_8_2_2.blend'
# www.blender.org
o leaves.340
v -0.251821 -0.072693 2.042258
v -0.284318 -0.103955 2.054748
v -0.349197 -0.086914 2.099642
v -0.284241 -0.050911 2.068024
v -0.316700 -0.055652 2.087152
v -0.316777 -0.108696 2.073876
vt 0.500000 0.000000
vt 0.500000 1.000000
vt 0.740000 0.666667
vt 0.740000 0.333333
vt 0.260000 0.333333
vt 0.260000 0.666667
vn 0.5190 -0.2083 0.8290
s off
mtllib leafwood.mtl
usemtl Leaves
f 1/1/1 3/2/1 6/3/1 2/4/1
f 1/1/1 4/5/1 5/6/1 3/2/1
