# Blender v3.4.0 OBJ File: 'apple_tree10_sapling_1_8_2_2.blend'
# www.blender.org
o leaves.181
v 0.142283 -0.099051 1.243398
v 0.137994 -0.133768 1.255045
v 0.145118 -0.185182 1.218292
v 0.148461 -0.121755 1.215014
v 0.149407 -0.150466 1.206646
v 0.138940 -0.162478 1.246676
vt 0.500000 0.000000
vt 0.260000 0.333333
vt 0.260000 0.666667
vt 0.500000 1.000000
vt 0.740000 0.666667
vt 0.740000 0.333333
vn 0.9695 -0.0386 0.2419
s off
mtllib leafwood.mtl
usemtl Leaves
f 1/1/1 2/2/1 6/3/1 3/4/1
f 1/1/1 3/4/1 5/5/1 4/6/1
