# Blender v3.4.0 OBJ File: 'apple_tree10_sapling_1_8_2_2.blend'
# www.blender.org
o leaves.134
v -0.170491 0.085967 1.047826
v -0.190956 0.147726 1.035479
v -0.162379 0.111794 1.045173
v -0.192246 0.101312 1.042248
v -0.199068 0.121899 1.038132
v -0.169201 0.132381 1.041058
vt 0.500000 0.000000
vt 0.500000 1.000000
vt 0.740000 0.666667
vt 0.740000 0.333333
vt 0.260000 0.333333
vt 0.260000 0.666667
vn -0.1473 0.1467 0.9781
s off
mtllib leafwood.mtl
usemtl Leaves
f 1/1/1 2/2/1 5/3/1 4/4/1
f 1/1/1 3/5/1 6/6/1 2/2/1
