# Blender v3.4.0 OBJ File: 'apple_tree10_sapling_1_8_2_2.blend'
# www.blender.org
o leaves.307
v 0.133340 0.025571 2.000569
v 0.241740 0.048245 2.018530
v 0.163547 0.059245 2.009351
v 0.175399 0.007012 2.003760
v 0.211532 0.014570 2.009747
v 0.199680 0.066803 2.015338
vt 0.500000 0.000000
vt 0.500000 1.000000
vt 0.740000 0.666667
vt 0.740000 0.333333
vt 0.260000 0.333333
vt 0.260000 0.666667
vn -0.1343 -0.1356 0.9816
vn -0.1343 -0.1355 0.9816
s off
mtllib leafwood.mtl
usemtl Leaves
f 1/1/1 2/2/1 6/3/1 3/4/1
f 1/1/2 4/5/2 5/6/2 2/2/2
