# Blender v3.4.0 OBJ File: 'apple_tree12_tree-gen.blend'
# www.blender.org
o Leaves.063_leaves.063
v 0.043401 -0.287615 2.016423
v 0.036382 -0.274522 2.014350
v 0.042090 -0.288336 2.016314
v 0.035071 -0.275242 2.014240
v -0.036118 -0.204180 1.998619
v 0.009040 -0.272592 2.010573
v -0.021618 -0.247061 2.004290
v 0.016328 -0.175370 2.003016
v -0.027442 -0.157041 1.995634
v 0.043940 -0.211049 2.009786
v 0.048375 -0.250985 2.013870
vn -0.1302 0.0866 0.9877
vn -0.1303 0.0865 0.9877
s off
mtllib leafwood.mtl
usemtl Leaves
f 1//1 2//1 4//1 3//1
f 8//2 5//2 4//2 2//2
f 5//2 7//2 6//2 4//2
f 8//2 9//2 5//2
f 2//2 11//2 10//2 8//2
