# Blender v3.4.0 OBJ File: 'apple_tree12_tree-gen.blend'
# www.blender.org
o Leaves.059_leaves.059
v -0.026053 -0.110021 1.832559
v -0.019411 -0.107094 1.845686
v -0.026931 -0.108817 1.832735
v -0.020289 -0.105890 1.845862
v -0.026375 -0.085512 1.861538
v 0.005767 -0.063397 1.934615
v 0.040879 -0.111540 1.927583
v 0.039928 -0.080152 1.963917
v -0.018547 -0.066159 1.896113
v 0.025342 -0.126338 1.887323
v -0.000041 -0.121619 1.856264
vn -0.6793 -0.5640 0.4695
s off
mtllib leafwood.mtl
usemtl Leaves
f 1//1 2//1 4//1 3//1
f 6//1 9//1 5//1 4//1
f 7//1 6//1 4//1 2//1
f 7//1 8//1 6//1
f 2//1 11//1 10//1 7//1
