# Blender v3.4.0 OBJ File: 'apple_tree12_tree-gen.blend'
# www.blender.org
o Leaves.027_leaves.027
v -0.127245 0.040947 1.472947
v -0.138925 0.031535 1.472947
v -0.126304 0.039780 1.472947
v -0.137983 0.030367 1.472947
v -0.136015 0.004020 1.472947
v -0.195546 -0.053587 1.472947
v -0.233195 -0.006869 1.472947
v -0.155802 -0.031190 1.472947
v -0.243570 -0.053758 1.472947
v -0.202863 0.027208 1.472947
v -0.164252 0.039059 1.472947
vn -0.0000 0.0000 1.0000
s off
mtllib leafwood.mtl
usemtl Leaves
f 1//1 2//1 4//1 3//1
f 6//1 8//1 5//1 4//1
f 7//1 6//1 4//1 2//1
f 7//1 9//1 6//1
f 2//1 11//1 10//1 7//1
