# Blender v3.4.0 OBJ File: 'apple_tree12_tree-gen.blend'
# www.blender.org
o Leaves.107_leaves.107
v -0.166474 0.044939 2.656871
v -0.151748 0.042865 2.654906
v -0.166274 0.046424 2.656801
v -0.151548 0.044350 2.654836
v -0.133926 0.063808 2.651852
v -0.051938 0.059825 2.640692
v -0.059929 0.000426 2.643502
v -0.019120 0.024941 2.637184
v -0.095115 0.073472 2.646236
v -0.105104 -0.000776 2.649749
v -0.139920 0.019258 2.653960
vn 0.1362 0.0286 0.9903
vn 0.1362 0.0285 0.9903
s off
mtllib leafwood.mtl
usemtl Leaves
f 1//1 2//1 4//1 3//1
f 6//2 9//2 5//2 4//2
f 7//2 6//2 4//2 2//2
f 7//2 8//2 6//2
f 2//2 11//2 10//2 7//2
