# Blender v3.4.0 OBJ File: 'apple_tree12_tree-gen.blend'
# www.blender.org
o Leaves.064_leaves.064
v 0.044924 0.357515 1.964221
v 0.042773 0.371071 1.958172
v 0.043450 0.357245 1.964142
v 0.041300 0.370802 1.958093
v -0.001411 0.453671 1.917224
v 0.017783 0.380455 1.950891
v -0.002328 0.411655 1.934973
v 0.057528 0.464440 1.920405
v 0.022682 0.492947 1.903692
v 0.071347 0.425116 1.938949
v 0.061988 0.388532 1.953277
vn -0.1202 0.3886 0.9136
vn -0.1203 0.3885 0.9135
s off
mtllib leafwood.mtl
usemtl Leaves
f 1//1 2//1 4//1 3//1
f 8//2 5//2 4//2 2//2
f 5//2 7//2 6//2 4//2
f 8//2 9//2 5//2
f 2//2 11//2 10//2 8//2
