# Blender v3.4.0 OBJ File: 'apple_tree12_tree-gen.blend'
# www.blender.org
o Leaves.075_leaves.075
v -0.119987 -0.176470 2.170506
v -0.108148 -0.169231 2.176201
v -0.120683 -0.175159 2.170287
v -0.108845 -0.167920 2.175982
v -0.107099 -0.141678 2.178506
v -0.045466 -0.095311 2.208737
v -0.017621 -0.147733 2.217487
v -0.084463 -0.110475 2.190557
v -0.001946 -0.103425 2.227350
v -0.049657 -0.176003 2.201494
v -0.086216 -0.180995 2.185069
vn -0.4020 -0.0611 0.9136
vn -0.4021 -0.0611 0.9135
s off
mtllib leafwood.mtl
usemtl Leaves
f 1//1 2//1 4//1 3//1
f 6//2 8//2 5//2 4//2
f 7//2 6//2 4//2 2//2
f 7//2 9//2 6//2
f 2//2 11//2 10//2 7//2
