# Blender v3.4.0 OBJ File: 'apple_tree12_tree-gen.blend'
# www.blender.org
o Leaves.012_leaves.012
v 0.109460 -0.041140 1.244722
v 0.124267 -0.042954 1.243151
v 0.109392 -0.040514 1.243361
v 0.124199 -0.042328 1.241790
v 0.219122 -0.041905 1.205031
v 0.138023 -0.035060 1.220480
v 0.174363 -0.033331 1.202939
v 0.221831 -0.066960 1.259482
v 0.257493 -0.058968 1.228328
v 0.177749 -0.064649 1.271002
v 0.140055 -0.053850 1.261318
vn 0.1535 0.9006 0.4067
s off
mtllib leafwood.mtl
usemtl Leaves
f 1//1 2//1 4//1 3//1
f 8//1 5//1 4//1 2//1
f 5//1 7//1 6//1 4//1
f 8//1 9//1 5//1
f 2//1 11//1 10//1 8//1
