# Blender v3.4.0 OBJ File: 'apple_tree12_tree-gen.blend'
# www.blender.org
o Leaves.016_leaves.016
v -0.060165 0.112210 1.310756
v -0.061132 0.098333 1.316369
v -0.058668 0.112116 1.310783
v -0.059635 0.098240 1.316395
v -0.036733 0.006218 1.353399
v -0.038898 0.083007 1.322396
v -0.026348 0.047380 1.336695
v -0.096607 0.009958 1.352330
v -0.069088 -0.026604 1.366897
v -0.101190 0.052056 1.335358
v -0.083803 0.085812 1.321594
vn 0.0070 0.3745 0.9272
vn 0.0068 0.3745 0.9272
vn 0.0069 0.3745 0.9272
s off
mtllib leafwood.mtl
usemtl Leaves
f 1//1 2//1 4//1 3//1
f 8//2 5//2 4//2 2//2
f 5//2 7//2 6//2 4//2
f 8//2 9//2 5//2
f 2//3 11//3 10//3 8//3
