# Blender v3.4.0 OBJ File: 'apple_tree12_tree-gen.blend'
# www.blender.org
o Leaves.056_leaves.056
v -0.175356 0.156259 1.788848
v -0.162064 0.162848 1.786634
v -0.176051 0.157505 1.788386
v -0.162759 0.164094 1.786171
v -0.159542 0.188753 1.777246
v -0.089910 0.231225 1.762753
v -0.133261 0.217688 1.767082
v -0.062116 0.181377 1.781264
v -0.042783 0.222774 1.766472
v -0.098518 0.155379 1.790221
v -0.138696 0.151368 1.791130
vn -0.0129 0.3418 0.9397
s off
mtllib leafwood.mtl
usemtl Leaves
f 1//1 2//1 4//1 3//1
f 6//1 7//1 5//1 4//1
f 8//1 6//1 4//1 2//1
f 8//1 9//1 6//1
f 2//1 11//1 10//1 8//1
