# Blender v3.4.0 OBJ File: 'apple_tree12_tree-gen.blend'
# www.blender.org
o Leaves.081_leaves.081
v 0.185281 0.136368 2.334674
v 0.183793 0.121451 2.335197
v 0.186773 0.136219 2.334674
v 0.185286 0.121302 2.335197
v 0.204721 0.021440 2.338595
v 0.205441 0.104227 2.335717
v 0.216647 0.065446 2.337023
v 0.171150 -0.012875 2.339909
v 0.145018 0.027395 2.338605
v 0.142018 0.072889 2.337036
v 0.160663 0.108693 2.335725
vn 0.0035 0.0347 0.9994
vn 0.0036 0.0347 0.9994
s off
mtllib leafwood.mtl
usemtl Leaves
f 1//1 2//1 4//1 3//1
f 9//2 5//2 4//2 2//2
f 5//2 7//2 6//2 4//2
f 9//2 8//2 5//2
f 2//2 11//2 10//2 9//2
