# Blender v3.4.0 OBJ File: 'apple_tree12_tree-gen.blend'
# www.blender.org
o Leaves.015_leaves.015
v 0.374704 -0.066069 1.215663
v 0.378034 -0.052067 1.219887
v 0.374141 -0.066346 1.217025
v 0.377472 -0.052344 1.221250
v 0.388151 0.033261 1.275282
v 0.372646 -0.042363 1.245233
v 0.375347 -0.010132 1.269421
v 0.410651 0.044355 1.220778
v 0.407727 0.073813 1.258592
v 0.403473 0.003735 1.201291
v 0.389521 -0.034043 1.204355
vn 0.9000 -0.3073 0.3090
s off
mtllib leafwood.mtl
usemtl Leaves
f 1//1 2//1 4//1 3//1
f 8//1 5//1 4//1 2//1
f 5//1 7//1 6//1 4//1
f 8//1 9//1 5//1
f 2//1 11//1 10//1 8//1
