# Blender v3.4.0 OBJ File: 'apple_tree12_tree-gen.blend'
# www.blender.org
o Leaves.112_leaves.112
v 0.055200 -0.129949 2.689043
v 0.066349 -0.132856 2.679437
v 0.055229 -0.128505 2.688639
v 0.066377 -0.131411 2.679034
v 0.139399 -0.122141 2.608721
v 0.077939 -0.113376 2.663571
v 0.106096 -0.106200 2.635518
v 0.138257 -0.179914 2.624880
v 0.166699 -0.158294 2.592787
v 0.104669 -0.178415 2.655715
v 0.077084 -0.156705 2.675689
vn 0.6688 0.1879 0.7193
vn 0.6688 0.1880 0.7193
s off
mtllib leafwood.mtl
usemtl Leaves
f 1//1 2//1 4//1 3//1
f 8//2 5//2 4//2 2//2
f 5//2 7//2 6//2 4//2
f 8//2 9//2 5//2
f 2//2 11//2 10//2 8//2
