# Blender v3.4.0 OBJ File: 'apple_tree12_tree-gen.blend'
# www.blender.org
o Leaves.103_leaves.103
v 0.117052 0.047723 2.570539
v 0.118462 0.047226 2.570429
v 0.115876 0.041398 2.584089
v 0.094244 0.042285 2.599231
v 0.080726 0.009982 2.674307
v 0.117287 0.040900 2.583979
v 0.136569 0.027363 2.595937
v 0.137160 -0.009914 2.669914
v 0.106005 -0.015780 2.705986
v 0.147740 0.006575 2.628714
v 0.077197 0.031445 2.634205
vn 0.3304 0.8439 0.4226
s off
mtllib leafwood.mtl
usemtl Leaves
f 1//1 3//1 6//1 2//1
f 3//1 4//1 11//1 5//1
f 5//1 8//1 6//1 3//1
f 8//1 10//1 7//1 6//1
f 5//1 9//1 8//1
