# Blender v3.4.0 OBJ File: 'apple_tree12_tree-gen.blend'
# www.blender.org
o Leaves.054_leaves.054
v -0.121616 0.290347 1.853920
v -0.128508 0.282856 1.864937
v -0.120652 0.289211 1.853750
v -0.127544 0.281720 1.864767
v -0.153551 0.210864 1.933066
v -0.120461 0.257747 1.873322
v -0.128053 0.227653 1.899166
v -0.192107 0.256331 1.939859
v -0.190061 0.214870 1.964005
v -0.176249 0.284487 1.907657
v -0.149378 0.291847 1.878416
vn 0.6131 0.4200 0.6691
s off
mtllib leafwood.mtl
usemtl Leaves
f 1//1 2//1 4//1 3//1
f 8//1 5//1 4//1 2//1
f 5//1 7//1 6//1 4//1
f 8//1 9//1 5//1
f 2//1 11//1 10//1 8//1
