# Blender v3.4.0 OBJ File: 'apple_tree12_tree-gen.blend'
# www.blender.org
o Leaves.047_leaves.047
v 0.165916 -0.108291 1.745255
v 0.165243 -0.123250 1.744385
v 0.167395 -0.108343 1.745009
v 0.166722 -0.123302 1.744139
v 0.191184 -0.221560 1.733700
v 0.187492 -0.139020 1.739710
v 0.200598 -0.176942 1.735081
v 0.132030 -0.219468 1.743521
v 0.159924 -0.257913 1.736437
v 0.126655 -0.174328 1.747357
v 0.143127 -0.137452 1.747075
vn 0.1613 -0.0645 0.9848
vn 0.1612 -0.0645 0.9848
s off
mtllib leafwood.mtl
usemtl Leaves
f 1//1 2//1 4//1 3//1
f 8//2 5//2 4//2 2//2
f 5//2 7//2 6//2 4//2
f 8//2 9//2 5//2
f 2//2 11//2 10//2 8//2
