# Blender v3.4.0 OBJ File: 'apple_tree12_tree-gen.blend'
# www.blender.org
o Leaves.076_leaves.076
v -0.189151 -0.261200 2.170637
v -0.187696 -0.275968 2.172829
v -0.187721 -0.260999 2.171045
v -0.186267 -0.275766 2.173238
v -0.148945 -0.367828 2.195452
v -0.164089 -0.287614 2.181352
v -0.146162 -0.322519 2.190917
v -0.206114 -0.375883 2.179115
v -0.173894 -0.408774 2.192765
v -0.217622 -0.332588 2.170496
v -0.206966 -0.293655 2.169100
vn -0.2879 0.1128 0.9510
vn -0.2877 0.1129 0.9511
s off
mtllib leafwood.mtl
usemtl Leaves
f 1//1 2//1 4//1 3//1
f 8//2 5//2 4//2 2//2
f 5//2 7//2 6//2 4//2
f 8//2 9//2 5//2
f 2//2 11//2 10//2 8//2
