# Blender v3.4.0 OBJ File: 'apple_tree12_tree-gen.blend'
# www.blender.org
o Leaves.038_leaves.038
v 0.107242 0.308077 1.585336
v 0.105099 0.293316 1.583747
v 0.108722 0.307852 1.585426
v 0.106580 0.293091 1.583837
v 0.125902 0.275074 1.583558
v 0.121519 0.192766 1.575268
v 0.062306 0.201750 1.571655
v 0.086556 0.160356 1.569488
v 0.135349 0.235925 1.580488
v 0.061332 0.247156 1.575971
v 0.081492 0.281812 1.580848
vn -0.0751 -0.0960 0.9925
s off
mtllib leafwood.mtl
usemtl Leaves
f 1//1 2//1 4//1 3//1
f 7//1 6//1 4//1 2//1
f 6//1 9//1 5//1 4//1
f 7//1 8//1 6//1
f 2//1 11//1 10//1 7//1
