# Blender v3.4.0 OBJ File: 'apple_tree12_tree-gen.blend'
# www.blender.org
o Leaves.090_leaves.090
v 0.031924 -0.150098 2.391465
v 0.030428 -0.149989 2.391454
v 0.033010 -0.135158 2.392242
v 0.055787 -0.121802 2.393184
v 0.069237 -0.040176 2.397513
v 0.031514 -0.135049 2.392231
v 0.010908 -0.118524 2.392843
v 0.009398 -0.035805 2.397058
v 0.042031 -0.000639 2.399228
v -0.001338 -0.080080 2.394671
v 0.073460 -0.085543 2.395239
vn -0.0113 -0.0511 0.9986
s off
mtllib leafwood.mtl
usemtl Leaves
f 1//1 3//1 6//1 2//1
f 3//1 4//1 11//1 5//1
f 5//1 8//1 6//1 3//1
f 8//1 10//1 7//1 6//1
f 5//1 9//1 8//1
