# Blender v3.4.0 OBJ File: 'apple_tree12_tree-gen.blend'
# www.blender.org
o Leaves.030_leaves.030
v -0.359032 0.139012 1.425771
v -0.352285 0.152104 1.422930
v -0.360349 0.139719 1.425900
v -0.353602 0.152811 1.423059
v -0.335424 0.251688 1.407099
v -0.365949 0.176148 1.422083
v -0.362250 0.215944 1.416266
v -0.282748 0.223424 1.401955
v -0.292218 0.270286 1.397424
v -0.296406 0.180615 1.409836
v -0.326443 0.154951 1.418224
vn 0.1639 0.1277 0.9782
vn 0.1641 0.1277 0.9781
vn 0.1640 0.1277 0.9781
s off
mtllib leafwood.mtl
usemtl Leaves
f 1//1 2//1 4//1 3//1
f 8//2 5//2 4//2 2//2
f 5//3 7//3 6//3 4//3
f 8//2 9//2 5//2
f 2//3 11//3 10//3 8//3
