# Blender v3.4.0 OBJ File: 'apple_tree12_tree-gen.blend'
# www.blender.org
o Leaves.092_leaves.092
v 0.016189 -0.073481 2.315620
v 0.029463 -0.077040 2.321632
v 0.016826 -0.072335 2.314892
v 0.030100 -0.075893 2.320904
v 0.128801 -0.076664 2.345791
v 0.052610 -0.062826 2.316364
v 0.092165 -0.060256 2.324116
v 0.149246 -0.108492 2.375375
v 0.103322 -0.122528 2.374900
v 0.060316 -0.117586 2.360503
v 0.033501 -0.097224 2.338196
vn -0.1913 0.5995 0.7771
vn -0.1913 0.5995 0.7772
s off
mtllib leafwood.mtl
usemtl Leaves
f 1//1 2//1 4//1 3//1
f 9//2 5//2 4//2 2//2
f 5//2 7//2 6//2 4//2
f 9//2 8//2 5//2
f 2//2 11//2 10//2 9//2
