# Blender v3.4.0 OBJ File: 'apple_tree12_tree-gen.blend'
# www.blender.org
o Leaves.113_leaves.113
v 0.128672 -0.144673 2.767700
v 0.127172 -0.159597 2.767545
v 0.130163 -0.144822 2.767623
v 0.128663 -0.159746 2.767468
v 0.147978 -0.259658 2.764963
v 0.148776 -0.176831 2.766199
v 0.159932 -0.215632 2.765043
v 0.114415 -0.293988 2.766114
v 0.088354 -0.253697 2.768039
v 0.085402 -0.208179 2.768888
v 0.104058 -0.172360 2.768505
vn 0.0500 -0.0154 0.9986
s off
mtllib leafwood.mtl
usemtl Leaves
f 1//1 2//1 4//1 3//1
f 9//1 5//1 4//1 2//1
f 5//1 7//1 6//1 4//1
f 9//1 8//1 5//1
f 2//1 11//1 10//1 9//1
