# Blender v3.4.0 OBJ File: 'apple_tree12_tree-gen.blend'
# www.blender.org
o Leaves.035_leaves.035
v 0.240771 -0.196270 1.564912
v 0.250989 -0.206994 1.567273
v 0.241779 -0.195482 1.564130
v 0.251998 -0.206206 1.566491
v 0.276836 -0.205496 1.557511
v 0.338079 -0.260537 1.566585
v 0.297749 -0.292077 1.597870
v 0.312464 -0.224422 1.555592
v 0.343460 -0.303117 1.588130
v 0.262053 -0.263848 1.594698
v 0.246589 -0.229152 1.580974
vn 0.2900 0.4610 0.8387
s off
mtllib leafwood.mtl
usemtl Leaves
f 1//1 2//1 4//1 3//1
f 6//1 8//1 5//1 4//1
f 7//1 6//1 4//1 2//1
f 7//1 9//1 6//1
f 2//1 11//1 10//1 7//1
