# Blender v3.4.0 OBJ File: 'apple_tree12_tree-gen.blend'
# www.blender.org
o Leaves.039_leaves.039
v 0.010724 0.119742 1.586010
v -0.000895 0.110339 1.584761
v 0.011542 0.118649 1.586632
v -0.000077 0.109246 1.585382
v -0.059657 0.026807 1.589378
v 0.000161 0.083992 1.593144
v -0.020709 0.049552 1.596235
v -0.092369 0.070532 1.564518
v -0.105062 0.025161 1.573824
v -0.061600 0.104208 1.565160
v -0.024373 0.116786 1.574499
vn -0.3204 0.2755 0.9063
vn -0.3205 0.2755 0.9063
s off
mtllib leafwood.mtl
usemtl Leaves
f 1//1 2//1 4//1 3//1
f 8//2 5//2 4//2 2//2
f 5//2 7//2 6//2 4//2
f 8//2 9//2 5//2
f 2//2 11//2 10//2 8//2
