# Blender v3.4.0 OBJ File: 'apple_tree12_tree-gen.blend'
# www.blender.org
o Leaves.011_leaves.011
v -0.321519 -0.187008 1.302855
v -0.308378 -0.183830 1.296358
v -0.322050 -0.185669 1.302436
v -0.308909 -0.182490 1.295940
v -0.303461 -0.159892 1.283381
v -0.233837 -0.135715 1.245561
v -0.212612 -0.189285 1.262286
v -0.190371 -0.154554 1.237683
v -0.275914 -0.138554 1.262960
v -0.249383 -0.205517 1.283865
v -0.287543 -0.200071 1.295925
vn 0.3276 0.3974 0.8572
s off
mtllib leafwood.mtl
usemtl Leaves
f 1//1 2//1 4//1 3//1
f 6//1 9//1 5//1 4//1
f 7//1 6//1 4//1 2//1
f 7//1 8//1 6//1
f 2//1 11//1 10//1 7//1
