# Blender v3.4.0 OBJ File: 'apple_tree12_tree-gen.blend'
# www.blender.org
o Leaves.004_leaves.004
v 0.231140 0.240472 1.109334
v 0.218597 0.244492 1.102157
v 0.231096 0.239133 1.108661
v 0.218553 0.243152 1.101484
v 0.136163 0.243154 1.041703
v 0.205371 0.227746 1.084544
v 0.173572 0.224398 1.059868
v 0.137924 0.296741 1.068635
v 0.105685 0.279996 1.037227
v 0.175774 0.291382 1.093533
v 0.206692 0.267936 1.104743
vn -0.5476 -0.3613 0.7547
s off
mtllib leafwood.mtl
usemtl Leaves
f 1//1 2//1 4//1 3//1
f 8//1 5//1 4//1 2//1
f 5//1 7//1 6//1 4//1
f 8//1 9//1 5//1
f 2//1 11//1 10//1 8//1
