# Blender v3.4.0 OBJ File: 'apple_tree12_tree-gen.blend'
# www.blender.org
o Leaves.046_leaves.046
v -0.272648 -0.163032 1.856562
v -0.273902 -0.163830 1.856767
v -0.280883 -0.150936 1.853267
v -0.282137 -0.151733 1.853472
v -0.270940 -0.127274 1.846995
v -0.309966 -0.056756 1.827847
v -0.360113 -0.088659 1.836061
v -0.278991 -0.089057 1.836704
v -0.355627 -0.042466 1.823717
v -0.341675 -0.128936 1.846972
v -0.308551 -0.151201 1.853155
vn -0.0065 0.2587 0.9659
vn -0.0064 0.2587 0.9659
s off
mtllib leafwood.mtl
usemtl Leaves
f 1//1 3//1 4//1 2//1
f 6//2 7//2 4//2 3//2
f 3//2 5//2 8//2 6//2
f 6//2 9//2 7//2
f 7//2 10//2 11//2 4//2
