# Blender v3.4.0 OBJ File: 'apple_tree12_tree-gen.blend'
# www.blender.org
o Leaves.086_leaves.086
v -0.139348 0.018309 2.241694
v -0.140532 0.004486 2.247396
v -0.137865 0.018272 2.241912
v -0.139048 0.004448 2.247613
v -0.118717 -0.009919 2.256463
v -0.117808 -0.086136 2.288908
v -0.150441 -0.119945 2.298819
v -0.177157 -0.084637 2.280222
v -0.106839 -0.044852 2.272888
v -0.181025 -0.042979 2.262032
v -0.163229 -0.008795 2.249949
vn -0.1239 0.3874 0.9135
s off
mtllib leafwood.mtl
usemtl Leaves
f 1//1 2//1 4//1 3//1
f 8//1 6//1 4//1 2//1
f 6//1 9//1 5//1 4//1
f 8//1 7//1 6//1
f 2//1 11//1 10//1 8//1
