# Blender v3.4.0 OBJ File: 'apple_tree12_tree-gen.blend'
# www.blender.org
o Leaves.023_leaves.023
v -0.014133 -0.380720 1.414611
v -0.015170 -0.381454 1.413813
v -0.019812 -0.367639 1.409957
v -0.010455 -0.343917 1.416870
v -0.036501 -0.268304 1.395264
v -0.020848 -0.368373 1.409160
v -0.077976 -0.297660 1.363357
v -0.041562 -0.365934 1.392940
v -0.066126 -0.340571 1.373329
v -0.071434 -0.250281 1.367676
v -0.014282 -0.303877 1.413213
vn -0.6155 0.0132 0.7880
vn -0.6155 0.0131 0.7880
s off
mtllib leafwood.mtl
usemtl Leaves
f 1//1 3//1 6//1 2//1
f 3//2 4//2 11//2 5//2
f 5//2 7//2 6//2 3//2
f 7//2 9//2 8//2 6//2
f 5//2 10//2 7//2
