# Blender v3.4.0 OBJ File: 'apple_tree12_tree-gen.blend'
# www.blender.org
o Leaves.032_leaves.032
v 0.132950 -0.281615 1.624099
v 0.118552 -0.284858 1.621418
v 0.132907 -0.282452 1.625343
v 0.118509 -0.285696 1.622662
v 0.024090 -0.323117 1.629483
v 0.103491 -0.301088 1.638011
v 0.067069 -0.317575 1.643744
v -0.011048 -0.314471 1.597911
v 0.025802 -0.289606 1.579743
v 0.069209 -0.275686 1.581569
v 0.104775 -0.275954 1.600706
vn -0.2791 0.8008 0.5299
s off
mtllib leafwood.mtl
usemtl Leaves
f 1//1 2//1 4//1 3//1
f 9//1 5//1 4//1 2//1
f 5//1 7//1 6//1 4//1
f 9//1 8//1 5//1
f 2//1 11//1 10//1 9//1
