# Blender v3.4.0 OBJ File: 'apple_tree12_tree-gen.blend'
# www.blender.org
o Leaves.060_leaves.060
v -0.056408 -0.250275 1.989372
v -0.044347 -0.259076 1.990811
v -0.055535 -0.249159 1.988880
v -0.043474 -0.257960 1.990318
v 0.051948 -0.293407 1.990068
v -0.018753 -0.250581 1.984617
v 0.020130 -0.261424 1.983289
v 0.017026 -0.338044 2.009765
v 0.064639 -0.337729 2.003513
v -0.023523 -0.317221 2.007911
v -0.044945 -0.284058 1.999390
vn 0.1214 0.3198 0.9397
vn 0.1213 0.3198 0.9397
s off
mtllib leafwood.mtl
usemtl Leaves
f 1//1 2//1 4//1 3//1
f 8//2 5//2 4//2 2//2
f 5//2 7//2 6//2 4//2
f 8//2 9//2 5//2
f 2//2 11//2 10//2 8//2
