# Blender v3.4.0 OBJ File: 'apple_tree12_tree-gen.blend'
# www.blender.org
o Leaves.099_leaves.099
v -0.212855 -0.100231 2.457872
v -0.198325 -0.103949 2.457625
v -0.212487 -0.098783 2.457744
v -0.197957 -0.102500 2.457496
v -0.096329 -0.098423 2.453386
v -0.178085 -0.085217 2.455388
v -0.138076 -0.080027 2.453486
v -0.111065 -0.156358 2.458521
v -0.067372 -0.136685 2.455335
v -0.156497 -0.152446 2.459904
v -0.189137 -0.128668 2.459239
vn 0.0371 0.0789 0.9962
vn 0.0371 0.0788 0.9962
s off
mtllib leafwood.mtl
usemtl Leaves
f 1//1 2//1 4//1 3//1
f 8//1 5//1 4//1 2//1
f 5//1 7//1 6//1 4//1
f 8//2 9//2 5//2
f 2//2 11//2 10//2 8//2
