# Blender v3.4.0 OBJ File: 'apple_tree12_tree-gen.blend'
# www.blender.org
o Leaves.114_leaves.114
v 0.159816 -0.162191 2.808853
v 0.163606 -0.175935 2.804190
v 0.161240 -0.161932 2.809247
v 0.165030 -0.175676 2.804584
v 0.217439 -0.259954 2.781949
v 0.189470 -0.185660 2.805627
v 0.213187 -0.217427 2.797904
v 0.160477 -0.270325 2.766208
v 0.198435 -0.299498 2.762421
v 0.141985 -0.230390 2.778229
v 0.146748 -0.193438 2.793822
vn -0.1866 -0.3614 0.9135
s off
mtllib leafwood.mtl
usemtl Leaves
f 1//1 2//1 4//1 3//1
f 8//1 5//1 4//1 2//1
f 5//1 7//1 6//1 4//1
f 8//1 9//1 5//1
f 2//1 11//1 10//1 8//1
