# Blender v3.4.0 OBJ File: 'apple_tree12_tree-gen.blend'
# www.blender.org
o Leaves.052_leaves.052
v 0.347172 -0.029243 1.798547
v 0.354883 -0.042110 1.798558
v 0.348439 -0.028484 1.798287
v 0.356150 -0.041350 1.798297
v 0.430982 -0.110175 1.793283
v 0.382235 -0.043207 1.794530
v 0.414185 -0.067780 1.791951
v 0.380296 -0.140545 1.803703
v 0.424917 -0.157525 1.798519
v 0.350827 -0.105743 1.804975
v 0.344221 -0.065985 1.802345
vn 0.1487 0.0898 0.9848
vn 0.1486 0.0898 0.9848
s off
mtllib leafwood.mtl
usemtl Leaves
f 1//1 2//1 4//1 3//1
f 8//2 5//2 4//2 2//2
f 5//2 7//2 6//2 4//2
f 8//2 9//2 5//2
f 2//2 11//2 10//2 8//2
