# Blender v3.4.0 OBJ File: 'apple_tree12_tree-gen.blend'
# www.blender.org
o Leaves.098_leaves.098
v -0.003581 0.248578 2.591368
v -0.014619 0.255907 2.598401
v -0.004519 0.248243 2.590245
v -0.015556 0.255572 2.597278
v -0.105577 0.296685 2.621109
v -0.040184 0.258049 2.588039
v -0.077151 0.273025 2.594398
v -0.068084 0.310071 2.665999
v -0.114424 0.321700 2.661136
v -0.030286 0.289757 2.650511
v -0.012065 0.268089 2.621706
vn -0.2609 -0.8435 0.4695
vn -0.2610 -0.8435 0.4695
s off
mtllib leafwood.mtl
usemtl Leaves
f 1//1 2//1 4//1 3//1
f 8//2 5//2 4//2 2//2
f 5//1 7//1 6//1 4//1
f 8//1 9//1 5//1
f 2//1 11//1 10//1 8//1
