# Blender v3.4.0 OBJ File: 'apple_tree12_tree-gen.blend'
# www.blender.org
o Leaves_leaves
v 0.035748 -0.116614 1.080967
v 0.034963 -0.131011 1.076833
v 0.015723 -0.147644 1.083992
v 0.001032 -0.185180 1.081446
v 0.005039 -0.227603 1.065152
v 0.028529 -0.260515 1.039242
v 0.055946 -0.221437 1.034000
v 0.064666 -0.177473 1.042507
v 0.053904 -0.143020 1.060628
v 0.036235 -0.130857 1.076054
v 0.037021 -0.116459 1.080188
vn 0.5266 -0.2610 0.8090
vn 0.5267 -0.2610 0.8090
s off
mtllib leafwood.mtl
usemtl Leaves
f 1//1 2//1 10//1 11//1
f 2//2 3//2 4//2 5//2
f 5//2 6//2 7//2
f 7//2 8//2 9//2 10//2
f 5//2 7//2 10//2 2//2
