# Blender v3.4.0 OBJ File: 'apple_tree12_tree-gen.blend'
# www.blender.org
o Leaves.043_leaves.043
v -0.095747 0.359285 1.638364
v -0.086780 0.350768 1.629876
v -0.094791 0.360432 1.638224
v -0.085824 0.351915 1.629736
v -0.062988 0.360029 1.619211
v -0.008886 0.318919 1.571824
v -0.047145 0.273041 1.577442
v -0.031006 0.350205 1.596587
v -0.005598 0.274687 1.553413
v -0.078828 0.292858 1.603608
v -0.091682 0.325620 1.623424
vn 0.4859 -0.3048 0.8191
vn 0.4858 -0.3049 0.8192
s off
mtllib leafwood.mtl
usemtl Leaves
f 1//1 2//1 4//1 3//1
f 6//2 8//2 5//2 4//2
f 7//2 6//2 4//2 2//2
f 7//2 9//2 6//2
f 2//2 11//2 10//2 7//2
