# Blender v3.4.0 OBJ File: 'apple_tree12_tree-gen.blend'
# www.blender.org
o Leaves.025_leaves.025
v 0.190214 0.125812 1.602138
v 0.190933 0.110829 1.602272
v 0.191709 0.125884 1.602241
v 0.192428 0.110902 1.602376
v 0.226247 0.014935 1.605274
v 0.214819 0.096973 1.604015
v 0.231563 0.060245 1.605388
v 0.166461 0.012028 1.601125
v 0.198151 -0.023974 1.603536
v 0.156831 0.056612 1.600202
v 0.169980 0.094794 1.600903
vn -0.0695 0.0056 0.9976
s off
mtllib leafwood.mtl
usemtl Leaves
f 1//1 2//1 4//1 3//1
f 8//1 5//1 4//1 2//1
f 5//1 7//1 6//1 4//1
f 8//1 9//1 5//1
f 2//1 11//1 10//1 8//1
