# Blender v3.4.0 OBJ File: 'apple_tree12_tree-gen.blend'
# www.blender.org
o Leaves.078_leaves.078
v -0.052970 -0.265139 2.254529
v -0.056953 -0.278479 2.260113
v -0.051758 -0.265763 2.253904
v -0.055741 -0.279103 2.259487
v -0.042151 -0.301490 2.255992
v -0.057999 -0.377981 2.283568
v -0.039990 -0.341080 2.263689
v -0.092196 -0.398854 2.310047
v -0.106477 -0.353026 2.308611
v -0.100587 -0.309885 2.294992
v -0.078509 -0.282773 2.274774
vn 0.5259 0.1899 0.8291
vn 0.5260 0.1899 0.8290
s off
mtllib leafwood.mtl
usemtl Leaves
f 1//1 2//1 4//1 3//1
f 6//2 7//2 5//2 4//2
f 9//2 6//2 4//2 2//2
f 9//2 8//2 6//2
f 2//2 11//2 10//2 9//2
