# Blender v3.4.0 OBJ File: 'apple_tree12_tree-gen.blend'
# www.blender.org
o Leaves.008_leaves.008
v -0.314276 -0.083458 1.283532
v -0.324644 -0.072704 1.284901
v -0.315355 -0.084462 1.283252
v -0.325722 -0.073708 1.284621
v -0.351728 -0.077513 1.281926
v -0.414141 -0.023387 1.288053
v -0.370999 0.016777 1.299262
v -0.418488 0.023579 1.297079
v -0.388432 -0.060670 1.282546
v -0.334505 -0.010464 1.296557
v -0.319372 -0.047390 1.290333
vn -0.0728 -0.1947 0.9782
vn -0.0729 -0.1947 0.9781
vn -0.0728 -0.1947 0.9781
s off
mtllib leafwood.mtl
usemtl Leaves
f 1//1 2//1 4//1 3//1
f 6//2 9//2 5//2 4//2
f 7//2 6//2 4//2 2//2
f 7//2 8//2 6//2
f 2//3 11//3 10//3 7//3
