# Blender v3.4.0 OBJ File: 'apple_tree14_tree-gen.blend'
# www.blender.org
o Leaves.062_leaves.062
v 0.285672 0.109651 1.939520
v 0.299834 0.114008 1.938825
v 0.285253 0.111052 1.939768
v 0.299415 0.115409 1.939073
v 0.383303 0.171054 1.939394
v 0.307504 0.140084 1.941975
v 0.338721 0.164989 1.942719
v 0.400060 0.115005 1.929472
v 0.427088 0.153922 1.932697
v 0.359667 0.094927 1.930316
v 0.320071 0.098047 1.934533
vn 0.0934 -0.1464 0.9848
s off
mtllib leafwood.mtl
usemtl Leaves
f 1//1 2//1 4//1 3//1
f 8//1 5//1 4//1 2//1
f 5//1 7//1 6//1 4//1
f 8//1 9//1 5//1
f 2//1 11//1 10//1 8//1
