# Blender v3.4.0 OBJ File: 'apple_tree14_tree-gen.blend'
# www.blender.org
o Leaves.028_leaves.028
v -0.126195 0.035690 1.357245
v -0.138414 0.042595 1.352443
v -0.126909 0.034391 1.357194
v -0.139128 0.041295 1.352391
v -0.232477 0.060837 1.320178
v -0.161700 0.029360 1.346846
v -0.199388 0.033628 1.334328
v -0.203919 0.112808 1.322229
v -0.248747 0.104083 1.309198
v -0.163691 0.098591 1.336892
v -0.140282 0.068338 1.348384
vn -0.2997 0.1273 0.9455
vn -0.2996 0.1273 0.9455
s off
mtllib leafwood.mtl
usemtl Leaves
f 1//1 2//1 4//1 3//1
f 8//2 5//2 4//2 2//2
f 5//2 7//2 6//2 4//2
f 8//2 9//2 5//2
f 2//2 11//2 10//2 8//2
