# Blender v3.4.0 OBJ File: 'apple_tree14_tree-gen.blend'
# www.blender.org
o Leaves.077_leaves.077
v 0.257084 -0.150842 2.081331
v 0.264994 -0.140325 2.074485
v 0.256830 -0.149916 2.082462
v 0.264741 -0.139399 2.075616
v 0.268981 -0.115450 2.085163
v 0.311223 -0.052976 2.053161
v 0.321347 -0.090032 2.007938
v 0.286226 -0.079894 2.079353
v 0.336061 -0.045213 2.013433
v 0.298881 -0.126214 2.022824
v 0.276574 -0.143241 2.051245
vn 0.8286 -0.3277 0.4540
s off
mtllib leafwood.mtl
usemtl Leaves
f 1//1 2//1 4//1 3//1
f 6//1 8//1 5//1 4//1
f 7//1 6//1 4//1 2//1
f 7//1 9//1 6//1
f 2//1 11//1 10//1 7//1
