# Blender v3.4.0 OBJ File: 'apple_tree14_tree-gen.blend'
# www.blender.org
o Leaves.012_leaves.012
v -0.205007 -0.130719 1.032894
v -0.216092 -0.140574 1.032674
v -0.204027 -0.131818 1.032715
v -0.215112 -0.141673 1.032495
v -0.268048 -0.227155 1.027566
v -0.211982 -0.167459 1.029673
v -0.229891 -0.203083 1.027329
v -0.307262 -0.183206 1.034743
v -0.315367 -0.229818 1.030605
v -0.278909 -0.148148 1.036300
v -0.241392 -0.134497 1.035056
vn 0.0694 -0.1002 0.9925
s off
mtllib leafwood.mtl
usemtl Leaves
f 1//1 2//1 4//1 3//1
f 8//1 5//1 4//1 2//1
f 5//1 7//1 6//1 4//1
f 8//1 9//1 5//1
f 2//1 11//1 10//1 8//1
