# Blender v3.4.0 OBJ File: 'apple_tree14_tree-gen.blend'
# www.blender.org
o Leaves.065_leaves.065
v 0.158944 0.217889 2.013845
v 0.158328 0.203856 2.009075
v 0.160358 0.217977 2.013403
v 0.159741 0.203945 2.008633
v 0.179617 0.191191 1.997455
v 0.183295 0.114452 1.969010
v 0.153489 0.077607 1.965925
v 0.192210 0.156991 1.981110
v 0.126764 0.110925 1.986690
v 0.121546 0.152582 2.003209
v 0.137220 0.188545 2.010714
vn 0.3010 -0.3187 0.8988
s off
mtllib leafwood.mtl
usemtl Leaves
f 1//1 2//1 4//1 3//1
f 6//1 8//1 5//1 4//1
f 9//1 6//1 4//1 2//1
f 9//1 7//1 6//1
f 2//1 11//1 10//1 9//1
