# Blender v3.4.0 OBJ File: 'apple_tree14_tree-gen.blend'
# www.blender.org
o Leaves.046_leaves.046
v -0.206575 -0.214646 1.726259
v -0.207277 -0.214378 1.727538
v -0.208003 -0.200372 1.722484
v -0.208706 -0.200104 1.723763
v -0.199244 -0.189981 1.700168
v -0.203588 -0.112812 1.673012
v -0.231693 -0.102098 1.724159
v -0.195789 -0.156974 1.677943
v -0.221212 -0.071770 1.689148
v -0.230920 -0.143582 1.741878
v -0.220322 -0.181946 1.738528
vn 0.8754 0.2036 0.4384
s off
mtllib leafwood.mtl
usemtl Leaves
f 1//1 3//1 4//1 2//1
f 6//1 7//1 4//1 3//1
f 3//1 5//1 8//1 6//1
f 6//1 9//1 7//1
f 7//1 10//1 11//1 4//1
