# Blender v3.4.0 OBJ File: 'apple_tree14_tree-gen.blend'
# www.blender.org
o Leaves.091_leaves.091
v -0.103035 0.071130 2.283176
v -0.110691 0.082981 2.287757
v -0.104278 0.070320 2.283195
v -0.111934 0.082171 2.287775
v -0.185931 0.143414 2.317898
v -0.137609 0.082281 2.292616
v -0.169177 0.103811 2.304246
v -0.136221 0.175805 2.317178
v -0.180215 0.189238 2.328989
v -0.107039 0.144300 2.303348
v -0.100327 0.106574 2.292077
vn 0.1783 -0.2524 0.9511
vn 0.1782 -0.2524 0.9511
s off
mtllib leafwood.mtl
usemtl Leaves
f 1//1 2//1 4//1 3//1
f 8//2 5//2 4//2 2//2
f 5//2 7//2 6//2 4//2
f 8//2 9//2 5//2
f 2//2 11//2 10//2 8//2
