# Blender v3.4.0 OBJ File: 'apple_tree14_tree-gen.blend'
# www.blender.org
o Leaves.030_leaves.030
v -0.268236 0.164166 1.497291
v -0.262021 0.150742 1.498390
v -0.267011 0.164780 1.497860
v -0.260796 0.151356 1.498959
v -0.196513 0.076067 1.517203
v -0.236821 0.146830 1.508310
v -0.209035 0.119407 1.516750
v -0.245502 0.051519 1.494440
v -0.205469 0.030233 1.508570
v -0.270273 0.088723 1.488296
v -0.273564 0.128420 1.491238
vn -0.3778 -0.0996 0.9205
vn -0.3778 -0.0995 0.9205
s off
mtllib leafwood.mtl
usemtl Leaves
f 1//1 2//1 4//1 3//1
f 8//2 5//2 4//2 2//2
f 5//2 7//2 6//2 4//2
f 8//2 9//2 5//2
f 2//2 11//2 10//2 8//2
