# Blender v3.4.0 OBJ File: 'apple_tree14_tree-gen.blend'
# www.blender.org
o Leaves.068_leaves.068
v -0.258205 0.068200 2.114604
v -0.245572 0.066150 2.107104
v -0.257885 0.069642 2.114750
v -0.245252 0.067591 2.107250
v -0.156892 0.082366 2.061337
v -0.227975 0.086437 2.101860
v -0.193190 0.095722 2.084566
v -0.169704 0.024723 2.055515
v -0.131716 0.048419 2.039676
v -0.209205 0.023668 2.077287
v -0.237584 0.043205 2.097493
vn 0.4776 -0.1927 0.8572
s off
mtllib leafwood.mtl
usemtl Leaves
f 1//1 2//1 4//1 3//1
f 8//1 5//1 4//1 2//1
f 5//1 7//1 6//1 4//1
f 8//1 9//1 5//1
f 2//1 11//1 10//1 8//1
