# Blender v3.4.0 OBJ File: 'apple_tree14_tree-gen.blend'
# www.blender.org
o Leaves.058_leaves.058
v -0.170870 0.166545 1.931446
v -0.178057 0.153569 1.931589
v -0.169576 0.165827 1.931343
v -0.176763 0.152851 1.931487
v -0.198244 0.054510 1.930421
v -0.165186 0.129466 1.930145
v -0.170213 0.089848 1.929479
v -0.250006 0.083225 1.934520
v -0.242093 0.036428 1.932829
v -0.234916 0.125742 1.934602
v -0.204008 0.151003 1.933219
vn 0.0651 -0.0250 0.9976
s off
mtllib leafwood.mtl
usemtl Leaves
f 1//1 2//1 4//1 3//1
f 8//1 5//1 4//1 2//1
f 5//1 7//1 6//1 4//1
f 8//1 9//1 5//1
f 2//1 11//1 10//1 8//1
