# Blender v3.4.0 OBJ File: 'apple_tree14_tree-gen.blend'
# www.blender.org
o Leaves.053_leaves.053
v 0.315834 0.029047 1.739206
v 0.314880 0.030181 1.739138
v 0.321728 0.033224 1.726250
v 0.378640 0.038262 1.643370
v 0.341453 0.020959 1.714286
v 0.320774 0.034358 1.726182
v 0.312836 0.054978 1.712234
v 0.340484 0.083620 1.640634
v 0.374298 0.071383 1.609612
v 0.318033 0.076759 1.679160
v 0.365728 0.020062 1.682580
vn 0.6547 0.5800 0.4848
s off
mtllib leafwood.mtl
usemtl Leaves
f 1//1 3//1 6//1 2//1
f 4//1 8//1 6//1 3//1
f 3//1 5//1 11//1 4//1
f 8//1 10//1 7//1 6//1
f 4//1 9//1 8//1
