# Blender v3.4.0 OBJ File: 'apple_tree14_tree-gen.blend'
# www.blender.org
o Leaves.100_leaves.100
v 0.101002 0.198061 2.514106
v 0.087774 0.204715 2.513237
v 0.100332 0.196744 2.514235
v 0.087103 0.203399 2.513366
v -0.011967 0.220977 2.510224
v 0.064147 0.190960 2.514359
v 0.024366 0.194429 2.513472
v 0.014867 0.273649 2.505088
v -0.031622 0.263950 2.505484
v 0.057908 0.260268 2.507051
v 0.084272 0.230464 2.510507
vn -0.0131 0.1037 0.9945
vn -0.0132 0.1037 0.9945
s off
mtllib leafwood.mtl
usemtl Leaves
f 1//1 2//1 4//1 3//1
f 8//1 5//1 4//1 2//1
f 5//1 7//1 6//1 4//1
f 8//2 9//2 5//2
f 2//2 11//2 10//2 8//2
