# Blender v3.4.0 OBJ File: 'apple_tree14_tree-gen.blend'
# www.blender.org
o Leaves.078_leaves.078
v -0.027119 0.109623 2.065251
v -0.040496 0.103420 2.063630
v -0.026513 0.108524 2.064459
v -0.039891 0.102321 2.062839
v -0.044490 0.080186 2.049742
v -0.115038 0.040579 2.036871
v -0.071880 0.053691 2.037775
v -0.160589 0.047051 2.048650
v -0.139253 0.084534 2.068531
v -0.102148 0.108635 2.077350
v -0.062651 0.113152 2.073486
vn 0.1422 -0.5258 0.8387
s off
mtllib leafwood.mtl
usemtl Leaves
f 1//1 2//1 4//1 3//1
f 6//1 7//1 5//1 4//1
f 9//1 6//1 4//1 2//1
f 9//1 8//1 6//1
f 2//1 11//1 10//1 9//1
