# Blender v3.4.0 OBJ File: 'apple_tree14_tree-gen.blend'
# www.blender.org
o Leaves.088_leaves.088
v -0.087726 -0.256654 2.298366
v -0.098149 -0.246693 2.294873
v -0.088776 -0.257580 2.298858
v -0.099198 -0.247619 2.295365
v -0.187411 -0.200925 2.282254
v -0.124839 -0.251081 2.299005
v -0.161391 -0.235436 2.295192
v -0.145429 -0.163897 2.262576
v -0.192476 -0.157509 2.263682
v -0.108914 -0.189151 2.270595
v -0.093353 -0.223310 2.284247
vn 0.0758 0.3996 0.9135
vn 0.0757 0.3996 0.9136
s off
mtllib leafwood.mtl
usemtl Leaves
f 1//1 2//1 4//1 3//1
f 8//2 5//2 4//2 2//2
f 5//2 7//2 6//2 4//2
f 8//2 9//2 5//2
f 2//2 11//2 10//2 8//2
