# Blender v3.4.0 OBJ File: 'apple_tree14_tree-gen.blend'
# www.blender.org
o Leaves.029_leaves.029
v -0.216140 0.099740 1.405179
v -0.202162 0.095949 1.408388
v -0.215703 0.101135 1.404926
v -0.201726 0.097343 1.408134
v -0.102359 0.099896 1.424051
v -0.181418 0.113777 1.407669
v -0.142108 0.118246 1.413157
v -0.119822 0.044102 1.434188
v -0.076146 0.062519 1.437141
v -0.163937 0.048503 1.425828
v -0.194515 0.071931 1.415271
vn -0.1597 0.2246 0.9613
s off
mtllib leafwood.mtl
usemtl Leaves
f 1//1 2//1 4//1 3//1
f 8//1 5//1 4//1 2//1
f 5//1 7//1 6//1 4//1
f 8//1 9//1 5//1
f 2//1 11//1 10//1 8//1
