# Blender v3.4.0 OBJ File: 'apple_tree14_tree-gen.blend'
# www.blender.org
o Leaves.071_leaves.071
v -0.326686 -0.074644 2.052207
v -0.336389 -0.064341 2.047764
v -0.327441 -0.075678 2.051457
v -0.337143 -0.065375 2.047014
v -0.414920 -0.018562 2.003505
v -0.357783 -0.070062 2.031693
v -0.389583 -0.054641 2.013084
v -0.424091 0.027873 2.007400
v -0.384748 0.022791 2.033511
v -0.351868 -0.002951 2.050591
v -0.335154 -0.039047 2.054198
vn -0.5601 -0.1785 0.8090
vn -0.5600 -0.1785 0.8090
s off
mtllib leafwood.mtl
usemtl Leaves
f 1//1 2//1 4//1 3//1
f 9//2 5//2 4//2 2//2
f 5//2 7//2 6//2 4//2
f 9//2 8//2 5//2
f 2//2 11//2 10//2 9//2
