# Blender v3.4.0 OBJ File: 'apple_tree14_tree-gen.blend'
# www.blender.org
o Leaves.024_leaves.024
v 0.110919 0.052503 1.272360
v 0.096248 0.054694 1.272360
v 0.110700 0.051036 1.272360
v 0.096029 0.053227 1.272360
v 0.078181 0.034145 1.272360
v -0.003607 0.038860 1.272359
v 0.005158 0.097545 1.272360
v -0.035903 0.073680 1.272360
v 0.039312 0.024951 1.272359
v 0.050267 0.098307 1.272360
v 0.084754 0.078158 1.272360
vn 0.0000 0.0000 1.0000
s off
mtllib leafwood.mtl
usemtl Leaves
f 1//1 2//1 4//1 3//1
f 6//1 9//1 5//1 4//1
f 7//1 6//1 4//1 2//1
f 7//1 8//1 6//1
f 2//1 11//1 10//1 7//1
