# Blender v3.4.0 OBJ File: 'apple_tree14_tree-gen.blend'
# www.blender.org
o Leaves.070_leaves.070
v -0.272767 -0.050796 2.032171
v -0.261141 -0.041687 2.030793
v -0.273688 -0.049649 2.031985
v -0.262062 -0.040539 2.030607
v -0.263794 -0.014791 2.026521
v -0.204457 0.041048 2.018007
v -0.156966 0.040871 2.018296
v -0.167606 -0.004853 2.025475
v -0.243942 0.019458 2.021208
v -0.197878 -0.037919 2.030544
v -0.236156 -0.049217 2.032122
vn -0.0053 0.1563 0.9877
vn -0.0054 0.1563 0.9877
vn -0.0054 0.1564 0.9877
s off
mtllib leafwood.mtl
usemtl Leaves
f 1//1 2//1 4//1 3//1
f 8//2 6//2 4//2 2//2
f 6//3 9//3 5//3 4//3
f 8//2 7//2 6//2
f 2//2 11//2 10//2 8//2
