# Blender v3.4.0 OBJ File: 'apple_tree14_tree-gen.blend'
# www.blender.org
o Leaves.085_leaves.085
v -0.157111 -0.247832 2.297523
v -0.170225 -0.245292 2.303974
v -0.157631 -0.249105 2.296968
v -0.170745 -0.246566 2.303419
v -0.266117 -0.254900 2.334538
v -0.191392 -0.262498 2.301828
v -0.229373 -0.268889 2.312410
v -0.245334 -0.203944 2.356725
v -0.288510 -0.223074 2.361760
v -0.203394 -0.205193 2.340144
v -0.175805 -0.224281 2.318468
vn 0.3095 -0.4829 0.8192
s off
mtllib leafwood.mtl
usemtl Leaves
f 1//1 2//1 4//1 3//1
f 8//1 5//1 4//1 2//1
f 5//1 7//1 6//1 4//1
f 8//1 9//1 5//1
f 2//1 11//1 10//1 8//1
