# Blender v3.4.0 OBJ File: 'apple_tree14_tree-gen.blend'
# www.blender.org
o Leaves.066_leaves.066
v -0.136506 0.004538 1.925678
v -0.127602 -0.007194 1.923916
v -0.135339 0.005364 1.926075
v -0.126435 -0.006368 1.924312
v -0.100613 -0.006124 1.928295
v -0.045806 -0.066523 1.920582
v -0.092474 -0.099561 1.904730
v -0.046879 -0.112373 1.908249
v -0.066685 -0.027196 1.927851
v -0.125021 -0.068493 1.908037
v -0.135615 -0.030903 1.916407
vn -0.1451 -0.2538 0.9563
s off
mtllib leafwood.mtl
usemtl Leaves
f 1//1 2//1 4//1 3//1
f 7//1 6//1 4//1 2//1
f 6//1 9//1 5//1 4//1
f 7//1 8//1 6//1
f 2//1 11//1 10//1 7//1
