# Blender v3.4.0 OBJ File: 'apple_tree14_tree-gen.blend'
# www.blender.org
o Leaves.009_leaves.009
v -0.240432 -0.029525 1.038478
v -0.244908 -0.017764 1.030623
v -0.241811 -0.030070 1.038448
v -0.246287 -0.018309 1.030593
v -0.302276 0.047506 0.978947
v -0.270763 -0.014452 1.022300
v -0.295745 0.009499 1.002361
v -0.247104 0.069308 0.980153
v -0.285879 0.087809 0.959913
v -0.226780 0.036752 1.003869
v -0.229384 0.001900 1.023205
vn -0.2107 0.4862 0.8480
s off
mtllib leafwood.mtl
usemtl Leaves
f 1//1 2//1 4//1 3//1
f 8//1 5//1 4//1 2//1
f 5//1 7//1 6//1 4//1
f 8//1 9//1 5//1
f 2//1 11//1 10//1 8//1
