# Blender v3.4.0 OBJ File: 'apple_tree14_tree-gen.blend'
# www.blender.org
o Leaves.056_leaves.056
v -0.117204 0.140779 1.823724
v -0.107345 0.145317 1.833835
v -0.117505 0.142191 1.823383
v -0.107645 0.146730 1.833495
v -0.102140 0.171743 1.838661
v -0.049414 0.203765 1.892568
v -0.080494 0.197210 1.860529
v -0.037402 0.147281 1.906207
v -0.018759 0.186869 1.924665
v -0.065479 0.126606 1.877579
v -0.093131 0.129381 1.848891
vn -0.7192 0.0148 0.6947
s off
mtllib leafwood.mtl
usemtl Leaves
f 1//1 2//1 4//1 3//1
f 6//1 7//1 5//1 4//1
f 8//1 6//1 4//1 2//1
f 8//1 9//1 6//1
f 2//1 11//1 10//1 8//1
