# Blender v3.4.0 OBJ File: 'apple_tree14_tree-gen.blend'
# www.blender.org
o Leaves.105_leaves.105
v -0.130420 -0.021670 2.491425
v -0.142456 -0.013209 2.493318
v -0.131179 -0.022855 2.491895
v -0.143215 -0.014393 2.493789
v -0.236243 0.017509 2.515276
v -0.166252 -0.023108 2.502508
v -0.203929 -0.013799 2.511948
v -0.205893 0.064891 2.496448
v -0.251157 0.062354 2.510596
v -0.165992 0.045429 2.488414
v -0.143490 0.012429 2.488387
vn 0.2830 0.1921 0.9397
vn 0.2829 0.1922 0.9397
s off
mtllib leafwood.mtl
usemtl Leaves
f 1//1 2//1 4//1 3//1
f 8//2 5//2 4//2 2//2
f 5//2 7//2 6//2 4//2
f 8//2 9//2 5//2
f 2//2 11//2 10//2 8//2
