# Blender v3.4.0 OBJ File: 'apple_tree14_tree-gen.blend'
# www.blender.org
o Leaves.016_leaves.016
v 0.216888 -0.056126 1.130762
v 0.219239 -0.069512 1.136707
v 0.217987 -0.056363 1.129794
v 0.220337 -0.069749 1.135738
v 0.257034 -0.161383 1.155494
v 0.238614 -0.086574 1.127641
v 0.255473 -0.122411 1.132818
v 0.213102 -0.151894 1.194232
v 0.240944 -0.190103 1.189725
v 0.200558 -0.110550 1.181240
v 0.205664 -0.079458 1.156694
vn 0.6532 0.4002 0.6428
s off
mtllib leafwood.mtl
usemtl Leaves
f 1//1 2//1 4//1 3//1
f 8//1 5//1 4//1 2//1
f 5//1 7//1 6//1 4//1
f 8//1 9//1 5//1
f 2//1 11//1 10//1 8//1
