# Blender v3.4.0 OBJ File: 'apple_tree14_tree-gen.blend'
# www.blender.org
o Leaves.006_leaves.006
v 0.145689 0.337921 0.962757
v 0.131549 0.341855 0.960600
v 0.145339 0.336508 0.962470
v 0.131200 0.340442 0.960313
v 0.032483 0.338459 0.940701
v 0.111996 0.323889 0.953997
v 0.073154 0.319594 0.945737
v 0.046455 0.394974 0.952174
v 0.004121 0.376550 0.941045
v 0.090620 0.390237 0.960078
v 0.122475 0.366275 0.962602
vn -0.1898 -0.1501 0.9703
s off
mtllib leafwood.mtl
usemtl Leaves
f 1//1 2//1 4//1 3//1
f 8//1 5//1 4//1 2//1
f 5//1 7//1 6//1 4//1
f 8//1 9//1 5//1
f 2//1 11//1 10//1 8//1
