# Blender v3.4.0 OBJ File: 'apple_tree14_tree-gen.blend'
# www.blender.org
o Leaves.074_leaves.074
v 0.047903 -0.073181 1.994583
v 0.049104 -0.058666 1.991772
v 0.046804 -0.073282 1.993592
v 0.048005 -0.058767 1.990781
v 0.033274 -0.045716 1.973595
v 0.034387 0.033614 1.953178
v 0.059366 0.071924 1.965979
v 0.025289 -0.010438 1.956654
v 0.078339 0.037656 1.992834
v 0.080230 -0.005386 2.006223
v 0.066238 -0.042685 2.003336
vn -0.6669 0.1945 0.7194
vn -0.6669 0.1945 0.7193
s off
mtllib leafwood.mtl
usemtl Leaves
f 1//1 2//1 4//1 3//1
f 6//2 8//2 5//2 4//2
f 9//2 6//2 4//2 2//2
f 9//2 7//2 6//2
f 2//2 11//2 10//2 9//2
