# Blender v3.4.0 OBJ File: 'apple_tree14_tree-gen.blend'
# www.blender.org
o Leaves.049_leaves.049
v 0.267026 -0.127300 1.772121
v 0.264530 -0.140927 1.777425
v 0.268463 -0.127628 1.771955
v 0.265967 -0.141255 1.777259
v 0.277767 -0.236221 1.808495
v 0.284310 -0.159635 1.780156
v 0.292441 -0.196980 1.791755
v 0.242784 -0.263732 1.825072
v 0.220280 -0.223108 1.815132
v 0.220583 -0.180589 1.800052
v 0.241195 -0.149800 1.785134
vn 0.1817 0.3276 0.9272
vn 0.1818 0.3276 0.9272
s off
mtllib leafwood.mtl
usemtl Leaves
f 1//1 2//1 4//1 3//1
f 9//2 5//2 4//2 2//2
f 5//2 7//2 6//2 4//2
f 9//2 8//2 5//2
f 2//2 11//2 10//2 9//2
