# Blender v3.4.0 OBJ File: 'apple_tree4_sapling_1_8_2_2.blend'
# www.blender.org
o leaves.089
v -0.085495 -0.122214 0.953541
v -0.127471 -0.148405 0.941198
v -0.135162 -0.236439 0.942647
v -0.076630 -0.172173 0.958621
v -0.093186 -0.210248 0.954990
v -0.144027 -0.186480 0.937567
vt 0.500000 0.000000
vt 0.265000 0.333333
vt 0.265000 0.666667
vt 0.500000 1.000000
vt 0.735000 0.666667
vt 0.735000 0.333333
vn -0.3061 0.0424 0.9511
s off
mtllib leafwood.mtl
usemtl Leaves
f 1/1/1 2/2/1 6/3/1 3/4/1
f 1/1/1 3/4/1 5/5/1 4/6/1
