# Blender v3.4.0 OBJ File: 'apple_tree4_sapling_1_8_2_2.blend'
# www.blender.org
o leaves.028
v -0.071888 -0.205807 0.732764
v -0.109362 -0.187750 0.738990
v -0.173969 -0.219684 0.728010
v -0.102468 -0.233114 0.723369
v -0.136495 -0.237740 0.721784
v -0.143389 -0.192376 0.737406
vt 0.500000 0.000000
vt 0.265000 0.333333
vt 0.265000 0.666667
vt 0.500000 1.000000
vt 0.735000 0.666667
vt 0.735000 0.333333
vn 0.0002 -0.3256 0.9455
s off
mtllib leafwood.mtl
usemtl Leaves
f 1/1/1 2/2/1 6/3/1 3/4/1
f 1/1/1 3/4/1 5/5/1 4/6/1
