# Blender v3.4.0 OBJ File: 'apple_tree4_sapling_1_8_2_2.blend'
# www.blender.org
o leaves.114
v -0.048104 0.100857 1.083565
v -0.078459 0.128181 1.116452
v -0.160688 0.102746 1.145628
v -0.092805 0.074792 1.092053
v -0.130333 0.075422 1.112741
v -0.115987 0.128811 1.137140
vt 0.500000 0.000000
vt 0.265000 0.333333
vt 0.265000 0.666667
vt 0.500000 1.000000
vt 0.735000 0.666667
vt 0.735000 0.333333
vn 0.4205 -0.4682 0.7771
vn 0.4206 -0.4682 0.7771
s off
mtllib leafwood.mtl
usemtl Leaves
f 1/1/1 2/2/1 6/3/1 3/4/1
f 1/1/2 3/4/2 5/5/2 4/6/2
