# Blender v3.4.0 OBJ File: 'apple_tree4_sapling_1_8_2_2.blend'
# www.blender.org
o leaves.008
v 0.206574 0.181741 0.629275
v 0.249470 0.205145 0.625292
v 0.260928 0.288832 0.634548
v 0.199914 0.229731 0.636774
v 0.218032 0.265428 0.638532
v 0.267588 0.240842 0.627049
vt 0.500000 0.000000
vt 0.265000 0.333333
vt 0.265000 0.666667
vt 0.500000 1.000000
vt 0.735000 0.666667
vt 0.735000 0.333333
vn 0.1620 -0.1304 0.9781
s off
mtllib leafwood.mtl
usemtl Leaves
f 1/1/1 2/2/1 6/3/1 3/4/1
f 1/1/1 3/4/1 5/5/1 4/6/1
