# Blender v3.4.0 OBJ File: 'apple_tree4_sapling_1_8_2_2.blend'
# www.blender.org
o leaves.148
v -0.136192 -0.047943 1.431751
v -0.233171 -0.068525 1.348390
v -0.156829 -0.082057 1.397094
v -0.180207 -0.027551 1.410834
v -0.212534 -0.034412 1.383047
v -0.189156 -0.088917 1.369307
vt 0.500000 0.000000
vt 0.500000 1.000000
vt 0.735000 0.666667
vt 0.735000 0.333333
vt 0.265000 0.333333
vt 0.265000 0.666667
vn -0.5403 -0.4161 0.7314
s off
mtllib leafwood.mtl
usemtl Leaves
f 1/1/1 2/2/1 6/3/1 3/4/1
f 1/1/1 4/5/1 5/6/1 2/2/1
