# Blender v3.4.0 OBJ File: 'apple_tree4_sapling_1_8_2_2.blend'
# www.blender.org
o leaves.195
v -0.055772 0.030605 1.977796
v -0.023389 0.074137 1.981583
v 0.070760 0.071962 1.985709
v -0.003800 0.014644 1.979285
v 0.038377 0.028430 1.981922
v 0.018788 0.087922 1.984221
vt 0.500000 0.000000
vt 0.500000 1.000000
vt 0.735000 0.666667
vt 0.735000 0.333333
vt 0.265000 0.333333
vt 0.265000 0.666667
vn -0.0449 -0.0533 0.9976
s off
mtllib leafwood.mtl
usemtl Leaves
f 1/1/1 3/2/1 6/3/1 2/4/1
f 1/1/1 4/5/1 5/6/1 3/2/1
