# Blender v3.4.0 OBJ File: 'apple_tree4_sapling_1_8_2_2.blend'
# www.blender.org
o leaves.122
v -0.155057 -0.070392 1.194457
v -0.274847 -0.046412 1.172465
v -0.193166 -0.038308 1.203475
v -0.196808 -0.086488 1.170778
v -0.236738 -0.078495 1.163447
v -0.233096 -0.030315 1.196144
vt 0.500000 0.000000
vt 0.500000 1.000000
vt 0.735000 0.666667
vt 0.735000 0.333333
vt 0.265000 0.333333
vt 0.265000 0.666667
vn -0.2546 -0.5298 0.8090
s off
mtllib leafwood.mtl
usemtl Leaves
f 1/1/1 2/2/1 5/3/1 4/4/1
f 1/1/1 3/5/1 6/6/1 2/2/1
