# Blender v3.4.0 OBJ File: 'apple_tree4_sapling_1_8_2_2.blend'
# www.blender.org
o leaves.005
v 0.206574 0.181741 0.629275
v 0.250575 0.175735 0.638194
v 0.295122 0.223617 0.681622
v 0.221605 0.215664 0.655255
v 0.251121 0.229623 0.672704
v 0.280091 0.189693 0.655643
vt 0.500000 0.000000
vt 0.265000 0.333333
vt 0.265000 0.666667
vt 0.500000 1.000000
vt 0.735000 0.666667
vt 0.735000 0.333333
vn -0.2373 -0.5222 0.8192
s off
mtllib leafwood.mtl
usemtl Leaves
f 1/1/1 2/2/1 6/3/1 3/4/1
f 1/1/1 3/4/1 5/5/1 4/6/1
