# Blender v3.4.0 OBJ File: 'apple_tree4_sapling_1_8_2_2.blend'
# www.blender.org
o leaves.069
v 0.195489 0.111005 0.867336
v 0.177016 0.149298 0.858875
v 0.106247 0.159308 0.835707
v 0.154468 0.104914 0.854711
v 0.124720 0.121015 0.844169
v 0.147268 0.165399 0.848332
vt 0.500000 0.000000
vt 0.265000 0.333333
vt 0.265000 0.666667
vt 0.500000 1.000000
vt 0.735000 0.666667
vt 0.735000 0.333333
vn -0.3022 0.0643 0.9511
s off
mtllib leafwood.mtl
usemtl Leaves
f 1/1/1 2/2/1 6/3/1 3/4/1
f 1/1/1 3/4/1 5/5/1 4/6/1
