# Blender v3.4.0 OBJ File: 'apple_tree4_sapling_1_8_2_2.blend'
# www.blender.org
o leaves.176
v -0.230208 0.037375 1.719731
v -0.273082 0.034784 1.717687
v -0.313058 -0.027444 1.726861
v -0.242568 -0.003246 1.726529
v -0.270184 -0.024853 1.728905
v -0.300699 0.013177 1.720063
vt 0.500000 0.000000
vt 0.265000 0.333333
vt 0.265000 0.666667
vt 0.500000 1.000000
vt 0.735000 0.666667
vt 0.735000 0.333333
vn -0.0578 0.1818 0.9816
s off
mtllib leafwood.mtl
usemtl Leaves
f 1/1/1 2/2/1 6/3/1 3/4/1
f 1/1/1 3/4/1 5/5/1 4/6/1
