# Blender v3.4.0 OBJ File: 'apple_tree4_sapling_1_8_2_2.blend'
# www.blender.org
o leaves.215
v 0.259770 0.133160 2.257351
v 0.296262 0.183967 2.182934
v 0.250795 0.153813 2.224718
v 0.293072 0.146379 2.240374
v 0.305236 0.163314 2.215568
v 0.262960 0.170749 2.199912
vt 0.500000 0.000000
vt 0.500000 1.000000
vt 0.735000 0.666667
vt 0.735000 0.333333
vt 0.265000 0.333333
vt 0.265000 0.666667
vn -0.0545 0.8369 0.5446
s off
mtllib leafwood.mtl
usemtl Leaves
f 1/1/1 2/2/1 6/3/1 3/4/1
f 1/1/1 4/5/1 5/6/1 2/2/1
