# Blender v3.4.0 OBJ File: 'apple_tree4_sapling_1_8_2_2.blend'
# www.blender.org
o leaves.056
v 0.005955 -0.211994 0.775633
v -0.097380 -0.146197 0.759229
v -0.013041 -0.165495 0.771382
v -0.043939 -0.214628 0.768949
v -0.078384 -0.192696 0.763481
v -0.047486 -0.143563 0.765914
vt 0.500000 0.000000
vt 0.500000 1.000000
vt 0.735000 0.666667
vt 0.735000 0.333333
vt 0.265000 0.333333
vt 0.265000 0.666667
vn -0.1346 0.0356 0.9903
vn -0.1345 0.0356 0.9903
s off
mtllib leafwood.mtl
usemtl Leaves
f 1/1/1 2/2/1 5/3/1 4/4/1
f 1/1/2 3/5/2 6/6/2 2/2/2
