# Blender v3.4.0 OBJ File: 'apple_tree4_sapling_1_8_2_2.blend'
# www.blender.org
o leaves.161
v 0.127603 -0.073087 1.521432
v 0.176618 -0.082332 1.519081
v 0.238454 -0.022660 1.508790
v 0.152489 -0.030224 1.515355
v 0.189439 -0.013415 1.511141
v 0.213569 -0.065524 1.514867
vt 0.500000 0.000000
vt 0.265000 0.333333
vt 0.265000 0.666667
vt 0.500000 1.000000
vt 0.735000 0.666667
vt 0.735000 0.333333
vn 0.0668 0.1019 0.9925
s off
mtllib leafwood.mtl
usemtl Leaves
f 1/1/1 2/2/1 6/3/1 3/4/1
f 1/1/1 3/4/1 5/5/1 4/6/1
