# Blender v3.4.0 OBJ File: 'apple_tree4_sapling_1_8_2_2.blend'
# www.blender.org
o leaves.220
v -0.026130 0.091073 2.500846
v -0.015986 0.053547 2.508283
v -0.058176 0.070536 2.511694
v -0.058984 0.003979 2.528275
v -0.026937 0.024516 2.517426
v -0.069127 0.041505 2.520837
vt 0.500000 0.000000
vt 0.500000 1.000000
vt 0.735000 0.666667
vt 0.735000 0.333333
vt 0.265000 0.333333
vt 0.265000 0.666667
vn 0.1724 0.2361 0.9563
s off
mtllib leafwood.mtl
usemtl Leaves
f 1/1/1 4/2/1 5/3/1 2/4/1
f 1/1/1 3/5/1 6/6/1 4/2/1
