# Blender v3.4.0 OBJ File: 'apple_tree4_sapling_1_8_2_2.blend'
# www.blender.org
o leaves.146
v -0.069187 -0.025961 1.414165
v -0.110132 -0.014726 1.383035
v -0.085036 0.023472 1.422936
v -0.154379 0.065041 1.380627
v -0.138530 0.015607 1.371856
v -0.113433 0.053806 1.411757
vt 0.500000 0.000000
vt 0.500000 1.000000
vt 0.735000 0.666667
vt 0.735000 0.333333
vt 0.265000 0.333333
vt 0.265000 0.666667
vn -0.6272 -0.3266 0.7071
s off
mtllib leafwood.mtl
usemtl Leaves
f 1/1/1 4/2/1 5/3/1 2/4/1
f 1/1/1 3/5/1 6/6/1 4/2/1
