# Blender v3.4.0 OBJ File: 'apple_tree4_sapling_1_8_2_2.blend'
# www.blender.org
o leaves.184
v 0.106711 -0.096893 1.838183
v 0.090129 -0.201004 1.796044
v 0.078674 -0.123289 1.812469
v 0.123694 -0.139904 1.835804
v 0.118167 -0.174608 1.821758
v 0.073147 -0.157993 1.798423
vt 0.500000 0.000000
vt 0.500000 1.000000
vt 0.735000 0.666667
vt 0.735000 0.333333
vt 0.265000 0.333333
vt 0.265000 0.666667
vn -0.5166 -0.2493 0.8192
s off
mtllib leafwood.mtl
usemtl Leaves
f 1/1/1 2/2/1 5/3/1 4/4/1
f 1/1/1 3/5/1 6/6/1 2/2/1
