# Blender v3.4.0 OBJ File: 'apple_tree4_sapling_1_8_2_2.blend'
# www.blender.org
o leaves.125
v -0.227315 -0.089900 1.231043
v -0.265851 -0.108979 1.216979
v -0.279176 -0.186090 1.211977
v -0.223352 -0.134948 1.232396
v -0.240639 -0.167012 1.226040
v -0.283138 -0.141042 1.210624
vt 0.500000 0.000000
vt 0.265000 0.333333
vt 0.265000 0.666667
vt 0.500000 1.000000
vt 0.735000 0.666667
vt 0.735000 0.333333
vn -0.3420 -0.0019 0.9397
s off
mtllib leafwood.mtl
usemtl Leaves
f 1/1/1 2/2/1 6/3/1 3/4/1
f 1/1/1 3/4/1 5/5/1 4/6/1
