# Blender v3.4.0 OBJ File: 'apple_tree4_sapling_1_8_2_2.blend'
# www.blender.org
o leaves.160
v 0.165982 -0.086746 1.555019
v 0.175545 0.016814 1.542908
v 0.147307 -0.048944 1.561784
v 0.191032 -0.055508 1.540180
v 0.194220 -0.020988 1.536143
v 0.150495 -0.014424 1.557747
vt 0.500000 0.000000
vt 0.500000 1.000000
vt 0.735000 0.666667
vt 0.735000 0.333333
vt 0.265000 0.333333
vt 0.265000 0.666667
vn 0.4496 0.0627 0.8910
s off
mtllib leafwood.mtl
usemtl Leaves
f 1/1/1 2/2/1 6/3/1 3/4/1
f 1/1/1 4/5/1 5/6/1 2/2/1
