# Blender v3.4.0 OBJ File: 'apple_tree4_sapling_1_8_2_2.blend'
# www.blender.org
o leaves.212
v 0.083218 0.033400 2.205560
v 0.045853 0.034454 2.245404
v 0.054095 0.079500 2.202198
v -0.016514 0.104131 2.260283
v 0.020851 0.103077 2.220439
v 0.012609 0.058031 2.263644
vt 0.500000 0.000000
vt 0.500000 1.000000
vt 0.735000 0.666667
vt 0.735000 0.333333
vt 0.265000 0.333333
vt 0.265000 0.666667
vn 0.6546 0.4574 0.6018
vn 0.6546 0.4575 0.6018
s off
mtllib leafwood.mtl
usemtl Leaves
f 1/1/1 4/2/1 6/3/1 2/4/1
f 1/1/2 3/5/2 5/6/2 4/2/2
