# Blender v3.4.0 OBJ File: 'apple_tree4_sapling_1_8_2_2.blend'
# www.blender.org
o leaves.071
v 0.134019 0.038839 0.852790
v 0.105527 0.006635 0.877117
v 0.132353 -0.066781 0.912076
v 0.161400 0.000629 0.867987
v 0.160845 -0.034577 0.887749
v 0.104971 -0.028571 0.896879
vt 0.500000 0.000000
vt 0.265000 0.333333
vt 0.265000 0.666667
vt 0.500000 1.000000
vt 0.735000 0.666667
vt 0.735000 0.333333
vn 0.1915 0.4781 0.8572
s off
mtllib leafwood.mtl
usemtl Leaves
f 1/1/1 2/2/1 6/3/1 3/4/1
f 1/1/1 3/4/1 5/5/1 4/6/1
