# Blender v3.4.0 OBJ File: 'apple_tree4_sapling_1_8_2_2.blend'
# www.blender.org
o leaves.189
v 0.063587 0.065584 1.885179
v 0.087059 0.116151 1.882186
v 0.039074 0.199923 1.875661
v 0.023772 0.104577 1.881827
v 0.015601 0.149357 1.878654
v 0.078888 0.160930 1.879013
vt 0.500000 0.000000
vt 0.265000 0.333333
vt 0.265000 0.666667
vt 0.500000 1.000000
vt 0.735000 0.666667
vt 0.735000 0.333333
vn -0.0180 0.0674 0.9976
s off
mtllib leafwood.mtl
usemtl Leaves
f 1/1/1 2/2/1 6/3/1 3/4/1
f 1/1/1 3/4/1 5/5/1 4/6/1
