# Blender v3.4.0 OBJ File: 'apple_tree4_sapling_1_8_2_2.blend'
# www.blender.org
o leaves.029
v -0.079782 -0.120855 0.671595
v -0.103416 -0.073937 0.660719
v -0.188418 -0.063568 0.624482
v -0.128572 -0.129581 0.651063
v -0.164783 -0.110485 0.635359
v -0.139628 -0.054842 0.645014
vt 0.500000 0.000000
vt 0.265000 0.333333
vt 0.265000 0.666667
vt 0.500000 1.000000
vt 0.735000 0.666667
vt 0.735000 0.333333
vn -0.3904 0.0167 0.9205
s off
mtllib leafwood.mtl
usemtl Leaves
f 1/1/1 2/2/1 6/3/1 3/4/1
f 1/1/1 3/4/1 5/5/1 4/6/1
