# Blender v3.4.0 OBJ File: 'apple_tree4_sapling_1_8_2_2.blend'
# www.blender.org
o leaves.188
v 0.028626 0.053339 1.872295
v 0.031642 0.104598 1.883176
v 0.077184 0.065128 1.888361
v 0.105988 0.147912 1.912716
v 0.102971 0.096653 1.901834
v 0.057430 0.136122 1.896650
vt 0.500000 0.000000
vt 0.500000 1.000000
vt 0.735000 0.666667
vt 0.735000 0.333333
vt 0.265000 0.333333
vt 0.265000 0.666667
vn -0.2679 -0.1849 0.9455
s off
mtllib leafwood.mtl
usemtl Leaves
f 1/1/1 4/2/1 6/3/1 2/4/1
f 1/1/1 3/5/1 5/6/1 4/2/1
