# Blender v3.4.0 OBJ File: 'apple_tree4_sapling_1_8_2_2.blend'
# www.blender.org
o leaves.058
v 0.044956 -0.335767 0.818862
v 0.006392 -0.355376 0.803342
v -0.004073 -0.433423 0.791296
v 0.050834 -0.381262 0.816004
v 0.034491 -0.413814 0.806815
v -0.009951 -0.387928 0.794153
vt 0.500000 0.000000
vt 0.265000 0.333333
vt 0.265000 0.666667
vt 0.500000 1.000000
vt 0.735000 0.666667
vt 0.735000 0.333333
vn -0.3267 -0.1012 0.9397
s off
mtllib leafwood.mtl
usemtl Leaves
f 1/1/1 2/2/1 6/3/1 3/4/1
f 1/1/1 3/4/1 5/5/1 4/6/1
