# Blender v3.4.0 OBJ File: 'apple_tree4_sapling_1_8_2_2.blend'
# www.blender.org
o leaves.077
v -0.006935 0.019856 0.891131
v -0.060718 0.045900 0.896488
v -0.001348 0.071743 0.920731
v -0.079229 0.136750 0.943566
v -0.084816 0.084864 0.913967
v -0.025446 0.110707 0.938209
vt 0.500000 0.000000
vt 0.500000 1.000000
vt 0.735000 0.666667
vt 0.735000 0.333333
vt 0.265000 0.333333
vt 0.265000 0.666667
vn -0.1454 -0.4784 0.8660
s off
mtllib leafwood.mtl
usemtl Leaves
f 1/1/1 4/2/1 5/3/1 2/4/1
f 1/1/1 3/5/1 6/6/1 4/2/1
