# Blender v3.4.0 OBJ File: 'apple_tree4_sapling_1_8_2_2.blend'
# www.blender.org
o leaves.061
v -0.142626 -0.227543 0.836720
v -0.187054 -0.227554 0.829509
v -0.234764 -0.288102 0.841486
v -0.159623 -0.267905 0.847108
v -0.190335 -0.288091 0.848696
v -0.217767 -0.247740 0.831098
vt 0.500000 0.000000
vt 0.265000 0.333333
vt 0.265000 0.666667
vt 0.500000 1.000000
vt 0.735000 0.666667
vt 0.735000 0.333333
vn -0.1526 0.3061 0.9397
s off
mtllib leafwood.mtl
usemtl Leaves
f 1/1/1 2/2/1 6/3/1 3/4/1
f 1/1/1 3/4/1 5/5/1 4/6/1
