# Blender v3.4.0 OBJ File: 'apple_tree4_sapling_1_8_2_2.blend'
# www.blender.org
o leaves.217
v 0.032719 0.094927 2.421071
v 0.004981 0.057470 2.427267
v 0.058160 0.055590 2.417042
v 0.029272 -0.020265 2.424322
v 0.057011 0.017193 2.418125
v 0.003832 0.019073 2.428351
vt 0.500000 0.000000
vt 0.265000 0.333333
vt 0.265000 0.666667
vt 0.500000 1.000000
vt 0.735000 0.666667
vt 0.735000 0.333333
vn 0.1895 0.0220 0.9816
s off
mtllib leafwood.mtl
usemtl Leaves
f 1/1/1 2/2/1 6/3/1 4/4/1
f 1/1/1 4/4/1 5/5/1 3/6/1
