# Blender v3.4.0 OBJ File: 'apple_tree4_sapling_1_8_2_2.blend'
# www.blender.org
o leaves.013
v -0.045205 0.029153 0.637858
v -0.020322 0.072878 0.654889
v -0.061615 0.148831 0.686522
v -0.081028 0.065213 0.653270
v -0.086498 0.105106 0.669491
v -0.025793 0.112771 0.671110
vt 0.500000 0.000000
vt 0.265000 0.333333
vt 0.265000 0.666667
vt 0.500000 1.000000
vt 0.735000 0.666667
vt 0.735000 0.333333
vn 0.0225 -0.3739 0.9272
s off
mtllib leafwood.mtl
usemtl Leaves
f 1/1/1 2/2/1 6/3/1 3/4/1
f 1/1/1 3/4/1 5/5/1 4/6/1
