# Blender v3.4.0 OBJ File: 'apple_tree4_sapling_1_8_2_2.blend'
# www.blender.org
o leaves.140
v 0.009243 0.044240 1.328707
v 0.001435 0.086600 1.365430
v -0.085605 0.121283 1.394511
v -0.046182 0.053242 1.335853
v -0.077798 0.078923 1.357787
v -0.030181 0.112281 1.387365
vt 0.500000 0.000000
vt 0.265000 0.333333
vt 0.265000 0.666667
vt 0.500000 1.000000
vt 0.735000 0.666667
vt 0.735000 0.333333
vn -0.0092 -0.6560 0.7547
s off
mtllib leafwood.mtl
usemtl Leaves
f 1/1/1 2/2/1 6/3/1 3/4/1
f 1/1/1 3/4/1 5/5/1 4/6/1
