# Blender v3.4.0 OBJ File: 'apple_tree4_sapling_1_8_2_2.blend'
# www.blender.org
o leaves.046
v -0.065878 0.031952 0.744799
v -0.127909 0.122394 0.820547
v -0.059891 0.078354 0.772477
v -0.113219 0.045845 0.767620
v -0.133896 0.075992 0.792870
v -0.080568 0.108501 0.797726
vt 0.500000 0.000000
vt 0.500000 1.000000
vt 0.735000 0.666667
vt 0.735000 0.333333
vt 0.265000 0.333333
vt 0.265000 0.666667
vn 0.2423 -0.5199 0.8192
s off
mtllib leafwood.mtl
usemtl Leaves
f 1/1/1 2/2/1 5/3/1 4/4/1
f 1/1/1 3/5/1 6/6/1 2/2/1
