# Blender v3.4.0 OBJ File: 'apple_tree4_sapling_1_8_2_2.blend'
# www.blender.org
o leaves.164
v -0.006877 0.090539 1.573481
v 0.099338 0.022750 1.565856
v 0.044062 0.091159 1.580926
v 0.012994 0.044726 1.560952
v 0.048399 0.022130 1.558411
v 0.079467 0.068562 1.578384
vt 0.500000 0.000000
vt 0.500000 1.000000
vt 0.735000 0.666667
vt 0.735000 0.333333
vt 0.265000 0.333333
vt 0.265000 0.666667
vn -0.1335 -0.3149 0.9397
s off
mtllib leafwood.mtl
usemtl Leaves
f 1/1/1 2/2/1 6/3/1 3/4/1
f 1/1/1 4/5/1 5/6/1 2/2/1
