# Blender v3.4.0 OBJ File: 'apple_tree4_sapling_1_8_2_2.blend'
# www.blender.org
o leaves.015
v -0.071985 0.050481 0.640873
v -0.064058 0.088122 0.666162
v -0.104160 0.108903 0.731934
v -0.101362 0.051789 0.676291
v -0.112088 0.071262 0.706645
v -0.074783 0.107596 0.696516
vt 0.500000 0.000000
vt 0.265000 0.333333
vt 0.265000 0.666667
vt 0.500000 1.000000
vt 0.735000 0.666667
vt 0.735000 0.333333
vn 0.6514 -0.5129 0.5592
s off
mtllib leafwood.mtl
usemtl Leaves
f 1/1/1 2/2/1 6/3/1 3/4/1
f 1/1/1 3/4/1 5/5/1 4/6/1
