# Blender v3.4.0 OBJ File: 'apple_tree4_sapling_1_8_2_2.blend'
# www.blender.org
o leaves.173
v -0.071226 0.015672 1.676796
v -0.089716 0.062260 1.702545
v -0.141585 0.064381 1.785273
v -0.099642 0.001556 1.723365
v -0.123095 0.017792 1.759524
v -0.113169 0.078496 1.738704
vt 0.500000 0.000000
vt 0.265000 0.333333
vt 0.265000 0.666667
vt 0.500000 1.000000
vt 0.735000 0.666667
vt 0.735000 0.333333
vn 0.8469 0.0433 0.5299
vn 0.8469 0.0432 0.5299
s off
mtllib leafwood.mtl
usemtl Leaves
f 1/1/1 2/2/1 6/3/1 3/4/1
f 1/1/2 3/4/2 5/5/2 4/6/2
