# Blender v3.4.0 OBJ File: 'apple_tree4_sapling_1_8_2_2.blend'
# www.blender.org
o leaves.011
v -0.014804 0.008342 0.640548
v 0.037598 0.014158 0.634354
v 0.082892 0.094230 0.635950
v -0.002075 0.059785 0.643677
v 0.030491 0.088414 0.642144
v 0.070163 0.042788 0.632821
vt 0.500000 0.000000
vt 0.265000 0.333333
vt 0.265000 0.666667
vt 0.500000 1.000000
vt 0.735000 0.666667
vt 0.735000 0.333333
vn 0.1269 -0.0915 0.9877
s off
mtllib leafwood.mtl
usemtl Leaves
f 1/1/1 2/2/1 6/3/1 3/4/1
f 1/1/1 3/4/1 5/5/1 4/6/1
