# Blender v3.4.0 OBJ File: 'apple_tree4_sapling_1_8_2_2.blend'
# www.blender.org
o leaves.205
v 0.009863 -0.147986 2.193008
v 0.031676 -0.186904 2.194276
v 0.108590 -0.195185 2.194272
v 0.053867 -0.140533 2.192582
v 0.086776 -0.156266 2.193004
v 0.064585 -0.202638 2.194698
vt 0.500000 0.000000
vt 0.265000 0.333333
vt 0.265000 0.666667
vt 0.500000 1.000000
vt 0.735000 0.666667
vt 0.735000 0.333333
vn 0.0038 0.0347 0.9994
s off
mtllib leafwood.mtl
usemtl Leaves
f 1/1/1 2/2/1 6/3/1 3/4/1
f 1/1/1 3/4/1 5/5/1 4/6/1
