# Blender v3.4.0 OBJ File: 'apple_tree4_sapling_1_8_2_2.blend'
# www.blender.org
o leaves.206
v -0.008174 -0.174108 2.213811
v 0.009199 -0.144968 2.237522
v -0.026368 -0.094841 2.274515
v -0.037676 -0.150403 2.230570
v -0.043741 -0.123981 2.250805
v 0.003134 -0.118546 2.257757
vt 0.500000 0.000000
vt 0.265000 0.333333
vt 0.265000 0.666667
vt 0.500000 1.000000
vt 0.735000 0.666667
vt 0.735000 0.333333
vn -0.0457 -0.6140 0.7880
s off
mtllib leafwood.mtl
usemtl Leaves
f 1/1/1 2/2/1 6/3/1 3/4/1
f 1/1/1 3/4/1 5/5/1 4/6/1
