# Blender v3.4.0 OBJ File: 'apple_tree4_sapling_1_8_2_2.blend'
# www.blender.org
o leaves.138
v -0.012117 0.139808 1.337921
v -0.009556 0.189913 1.350922
v -0.057119 0.154678 1.358892
v -0.075779 0.237271 1.388878
v -0.078340 0.187166 1.375877
v -0.030777 0.222401 1.367907
vt 0.500000 0.000000
vt 0.265000 0.333333
vt 0.265000 0.666667
vt 0.500000 1.000000
vt 0.735000 0.666667
vt 0.735000 0.333333
vn 0.3389 -0.2525 0.9063
s off
mtllib leafwood.mtl
usemtl Leaves
f 1/1/1 2/2/1 6/3/1 4/4/1
f 1/1/1 4/4/1 5/5/1 3/6/1
