# Blender v3.4.0 OBJ File: 'apple_tree4_sapling_1_8_2_2.blend'
# www.blender.org
o leaves.052
v -0.156416 0.085532 0.769439
v -0.177450 0.051036 0.790149
v -0.146129 -0.019846 0.803819
v -0.128525 0.049776 0.771649
v -0.125096 0.014650 0.783109
v -0.174021 0.015910 0.801609
vt 0.500000 0.000000
vt 0.265000 0.333333
vt 0.265000 0.666667
vt 0.500000 1.000000
vt 0.735000 0.666667
vt 0.735000 0.333333
vn 0.3422 0.3215 0.8829
s off
mtllib leafwood.mtl
usemtl Leaves
f 1/1/1 2/2/1 6/3/1 3/4/1
f 1/1/1 3/4/1 5/5/1 4/6/1
