# Blender v3.4.0 OBJ File: 'apple_tree4_sapling_1_8_2_2.blend'
# www.blender.org
o leaves.080
v -0.012718 0.107640 0.898457
v -0.056828 0.142235 0.905975
v -0.144292 0.115831 0.941508
v -0.056324 0.078506 0.919640
v -0.100182 0.081237 0.933990
v -0.100686 0.144965 0.920325
vt 0.500000 0.000000
vt 0.265000 0.333333
vt 0.265000 0.666667
vt 0.500000 1.000000
vt 0.735000 0.666667
vt 0.735000 0.333333
vn 0.3159 0.2013 0.9272
s off
mtllib leafwood.mtl
usemtl Leaves
f 1/1/1 2/2/1 6/3/1 3/4/1
f 1/1/1 3/4/1 5/5/1 4/6/1
