# Blender v3.4.0 OBJ File: 'apple_tree4_sapling_1_8_2_2.blend'
# www.blender.org
o leaves.165
v -0.035230 0.159330 1.580143
v -0.048864 0.113986 1.579759
v 0.001507 0.049210 1.578339
v 0.002895 0.131260 1.579325
v 0.015141 0.094553 1.578724
v -0.036618 0.077279 1.579157
vt 0.500000 0.000000
vt 0.265000 0.333333
vt 0.265000 0.666667
vt 0.500000 1.000000
vt 0.735000 0.666667
vt 0.735000 0.333333
vn 0.0124 -0.0122 0.9998
vn 0.0125 -0.0122 0.9998
s off
mtllib leafwood.mtl
usemtl Leaves
f 1/1/1 2/2/1 6/3/1 3/4/1
f 1/1/2 3/4/2 5/5/2 4/6/2
