# Blender v3.4.0 OBJ File: 'apple_tree4_sapling_1_8_2_2.blend'
# www.blender.org
o leaves.023
v -0.038331 -0.064470 0.664699
v -0.163633 -0.026013 0.723022
v -0.070388 -0.019369 0.683716
v -0.089808 -0.083933 0.684564
v -0.131576 -0.071114 0.704005
v -0.112155 -0.006550 0.703157
vt 0.500000 0.000000
vt 0.500000 1.000000
vt 0.735000 0.666667
vt 0.735000 0.333333
vt 0.265000 0.333333
vt 0.265000 0.666667
vn 0.3927 -0.1061 0.9135
s off
mtllib leafwood.mtl
usemtl Leaves
f 1/1/1 2/2/1 5/3/1 4/4/1
f 1/1/1 3/5/1 6/6/1 2/2/1
