# Blender v3.4.0 OBJ File: 'apple_tree4_sapling_1_8_2_2.blend'
# www.blender.org
o leaves.010
v 0.251282 0.192773 0.636659
v 0.218513 0.160310 0.640880
v 0.226683 0.090830 0.680257
v 0.267652 0.157273 0.661503
v 0.259453 0.123292 0.676036
v 0.210313 0.126329 0.655413
vt 0.500000 0.000000
vt 0.265000 0.333333
vt 0.265000 0.666667
vt 0.500000 1.000000
vt 0.735000 0.666667
vt 0.735000 0.333333
vn -0.3250 0.4371 0.8387
s off
mtllib leafwood.mtl
usemtl Leaves
f 1/1/1 2/2/1 6/3/1 3/4/1
f 1/1/1 3/4/1 5/5/1 4/6/1
