# Blender v3.4.0 OBJ File: 'apple_tree4_sapling_1_8_2_2.blend'
# www.blender.org
o leaves.053
v -0.169662 0.096099 0.777854
v -0.263775 0.030617 0.762205
v -0.216275 0.096689 0.770499
v -0.185790 0.051854 0.774775
v -0.217161 0.030026 0.769559
v -0.247646 0.074862 0.765283
vt 0.500000 0.000000
vt 0.500000 1.000000
vt 0.735000 0.666667
vt 0.735000 0.333333
vt 0.265000 0.333333
vt 0.265000 0.666667
vn -0.1560 -0.0119 0.9877
s off
mtllib leafwood.mtl
usemtl Leaves
f 1/1/1 2/2/1 5/3/1 4/4/1
f 1/1/1 3/5/1 6/6/1 2/2/1
