# Blender v3.4.0 OBJ File: 'apple_tree4_sapling_1_8_2_2.blend'
# www.blender.org
o leaves.096
v -0.175516 -0.219338 0.994096
v -0.163017 -0.184019 1.015415
v -0.203227 -0.121502 1.022924
v -0.206490 -0.189432 0.991997
v -0.215727 -0.156820 1.001606
v -0.172254 -0.151407 1.025024
vt 0.500000 0.000000
vt 0.265000 0.333333
vt 0.265000 0.666667
vt 0.500000 1.000000
vt 0.735000 0.666667
vt 0.735000 0.333333
vn -0.4067 -0.3623 0.8387
s off
mtllib leafwood.mtl
usemtl Leaves
f 1/1/1 2/2/1 6/3/1 3/4/1
f 1/1/1 3/4/1 5/5/1 4/6/1
