# Blender v3.4.0 OBJ File: 'apple_tree4_sapling_1_8_2_2.blend'
# www.blender.org
o leaves.093
v -0.127861 -0.300567 0.972198
v -0.161998 -0.280612 0.976921
v -0.222066 -0.308263 0.996698
v -0.156527 -0.325653 0.983808
v -0.187929 -0.328218 0.991975
v -0.193399 -0.283177 0.985087
vt 0.500000 0.000000
vt 0.265000 0.333333
vt 0.265000 0.666667
vt 0.500000 1.000000
vt 0.735000 0.666667
vt 0.735000 0.333333
vn 0.2344 0.1747 0.9563
s off
mtllib leafwood.mtl
usemtl Leaves
f 1/1/1 2/2/1 6/3/1 3/4/1
f 1/1/1 3/4/1 5/5/1 4/6/1
