# Blender v3.4.0 OBJ File: 'apple_tree4_sapling_1_8_2_2.blend'
# www.blender.org
o leaves.068
v 0.161445 0.078509 0.853319
v 0.182016 0.103832 0.819107
v 0.146773 0.165130 0.777704
v 0.131093 0.110932 0.837121
v 0.126202 0.139806 0.811916
v 0.177125 0.132706 0.793902
vt 0.500000 0.000000
vt 0.265000 0.333333
vt 0.265000 0.666667
vt 0.500000 1.000000
vt 0.735000 0.666667
vt 0.735000 0.333333
vn 0.3321 0.6516 0.6820
s off
mtllib leafwood.mtl
usemtl Leaves
f 1/1/1 2/2/1 6/3/1 3/4/1
f 1/1/1 3/4/1 5/5/1 4/6/1
