# Blender v3.4.0 OBJ File: 'apple_tree4_sapling_1_8_2_2.blend'
# www.blender.org
o leaves.016
v -0.087713 0.061813 0.643167
v -0.087534 0.112831 0.639933
v -0.159547 0.164438 0.638809
v -0.135780 0.079212 0.643496
v -0.159725 0.113420 0.642043
v -0.111479 0.147039 0.638480
vt 0.500000 0.000000
vt 0.265000 0.333333
vt 0.265000 0.666667
vt 0.500000 1.000000
vt 0.735000 0.666667
vt 0.735000 0.333333
vn 0.0297 0.0631 0.9976
s off
mtllib leafwood.mtl
usemtl Leaves
f 1/1/1 2/2/1 6/3/1 3/4/1
f 1/1/1 3/4/1 5/5/1 4/6/1
