# Blender v3.4.0 OBJ File: 'apple_tree4_sapling_1_8_2_2.blend'
# www.blender.org
o leaves.090
v -0.101591 -0.167345 0.955602
v 0.005227 -0.139096 0.973492
v -0.073196 -0.132876 0.965063
v -0.058774 -0.182981 0.958068
v -0.023168 -0.173565 0.964031
v -0.037590 -0.123460 0.971026
vt 0.500000 0.000000
vt 0.500000 1.000000
vt 0.735000 0.666667
vt 0.735000 0.333333
vt 0.265000 0.333333
vt 0.265000 0.666667
vn -0.1187 -0.1707 0.9781
s off
mtllib leafwood.mtl
usemtl Leaves
f 1/1/1 2/2/1 6/3/1 3/4/1
f 1/1/1 4/5/1 5/6/1 2/2/1
