# Blender v3.4.0 OBJ File: 'apple_tree4_sapling_1_8_2_2.blend'
# www.blender.org
o leaves.132
v 0.097242 -0.261754 1.328263
v 0.086775 -0.222223 1.310449
v 0.134521 -0.240287 1.316470
v 0.137460 -0.170256 1.283852
v 0.100181 -0.191723 1.295645
v 0.147927 -0.209788 1.301666
vt 0.500000 0.000000
vt 0.500000 1.000000
vt 0.735000 0.666667
vt 0.735000 0.333333
vt 0.265000 0.333333
vt 0.265000 0.666667
vn 0.0447 0.4202 0.9063
s off
mtllib leafwood.mtl
usemtl Leaves
f 1/1/1 4/2/1 5/3/1 2/4/1
f 1/1/1 3/5/1 6/6/1 4/2/1
