# Blender v3.4.0 OBJ File: 'apple_tree4_sapling_1_8_2_2.blend'
# www.blender.org
o leaves.036
v 0.167103 0.125278 0.699468
v 0.143039 0.168185 0.712357
v 0.057692 0.185075 0.698236
v 0.118226 0.122236 0.685757
v 0.081756 0.142168 0.685347
v 0.106569 0.188118 0.711946
vt 0.500000 0.000000
vt 0.265000 0.333333
vt 0.265000 0.666667
vt 0.500000 1.000000
vt 0.735000 0.666667
vt 0.735000 0.333333
vn -0.2254 -0.3941 0.8910
s off
mtllib leafwood.mtl
usemtl Leaves
f 1/1/1 2/2/1 6/3/1 3/4/1
f 1/1/1 3/4/1 5/5/1 4/6/1
