# Blender v3.4.0 OBJ File: 'apple_tree4_sapling_1_8_2_2.blend'
# www.blender.org
o leaves.151
v -0.233101 -0.087499 1.468578
v -0.195854 -0.106581 1.440954
v -0.137633 -0.060235 1.396055
v -0.206703 -0.050242 1.447853
v -0.174880 -0.041154 1.423679
v -0.164032 -0.097493 1.416780
vt 0.500000 0.000000
vt 0.265000 0.333333
vt 0.265000 0.666667
vt 0.500000 1.000000
vt 0.735000 0.666667
vt 0.735000 0.333333
vn 0.6015 0.0180 0.7986
s off
mtllib leafwood.mtl
usemtl Leaves
f 1/1/1 2/2/1 6/3/1 3/4/1
f 1/1/1 3/4/1 5/5/1 4/6/1
