# Blender v3.4.0 OBJ File: 'apple_tree4_sapling_1_8_2_2.blend'
# www.blender.org
o leaves.154
v 0.022689 -0.004731 1.485271
v -0.033499 -0.117432 1.525700
v 0.032096 -0.054615 1.503517
v -0.024176 -0.029982 1.493979
v -0.042905 -0.067549 1.507455
v 0.013366 -0.092182 1.516993
vt 0.500000 0.000000
vt 0.500000 1.000000
vt 0.735000 0.666667
vt 0.735000 0.333333
vt 0.265000 0.333333
vt 0.265000 0.666667
vn -0.0096 0.3419 0.9397
s off
mtllib leafwood.mtl
usemtl Leaves
f 1/1/1 2/2/1 6/3/1 3/4/1
f 1/1/1 4/5/1 5/6/1 2/2/1
