# Blender v3.4.0 OBJ File: 'apple_tree4_sapling_1_8_2_2.blend'
# www.blender.org
o leaves.092
v -0.111241 -0.258663 0.960679
v -0.141864 -0.281806 0.984991
v -0.188838 -0.251144 1.040261
v -0.132350 -0.230508 0.989421
v -0.158215 -0.228001 1.015949
v -0.167729 -0.279299 1.011519
vt 0.500000 0.000000
vt 0.500000 1.000000
vt 0.735000 0.666667
vt 0.735000 0.333333
vt 0.265000 0.333333
vt 0.265000 0.666667
vn 0.6941 -0.1887 0.6947
s off
mtllib leafwood.mtl
usemtl Leaves
f 1/1/1 3/2/1 6/3/1 2/4/1
f 1/1/1 4/5/1 5/6/1 3/2/1
