# Blender v3.4.0 OBJ File: 'apple_tree4_sapling_1_8_2_2.blend'
# www.blender.org
o leaves.101
v 0.225465 0.085879 1.055495
v 0.269669 0.086405 1.055839
v 0.313163 0.141554 1.086460
v 0.239727 0.122470 1.075795
v 0.268959 0.141028 1.086116
v 0.298901 0.104963 1.066160
vt 0.500000 0.000000
vt 0.265000 0.333333
vt 0.265000 0.666667
vt 0.500000 1.000000
vt 0.735000 0.666667
vt 0.735000 0.333333
vn -0.0010 -0.4848 0.8746
s off
mtllib leafwood.mtl
usemtl Leaves
f 1/1/1 2/2/1 6/3/1 3/4/1
f 1/1/1 3/4/1 5/5/1 4/6/1
