# Blender v3.4.0 OBJ File: 'apple_tree4_sapling_1_8_2_2.blend'
# www.blender.org
o leaves.133
v 0.115605 -0.329728 1.343385
v 0.082711 -0.299773 1.357548
v 0.004443 -0.317541 1.367875
v 0.074390 -0.351559 1.345549
v 0.037336 -0.347496 1.353712
v 0.045657 -0.295710 1.365711
vt 0.500000 0.000000
vt 0.265000 0.333333
vt 0.265000 0.666667
vt 0.500000 1.000000
vt 0.735000 0.666667
vt 0.735000 0.333333
vn 0.1822 -0.2496 0.9511
s off
mtllib leafwood.mtl
usemtl Leaves
f 1/1/1 2/2/1 6/3/1 3/4/1
f 1/1/1 3/4/1 5/5/1 4/6/1
