# Blender v3.4.0 OBJ File: 'apple_tree4_sapling_1_8_2_2.blend'
# www.blender.org
o leaves.171
v 0.090305 0.267762 1.673520
v 0.100047 0.224566 1.663063
v 0.114342 0.248918 1.707243
v 0.140974 0.174702 1.708419
v 0.116937 0.193546 1.674696
v 0.131232 0.217898 1.718876
vt 0.500000 0.000000
vt 0.265000 0.333333
vt 0.265000 0.666667
vt 0.500000 1.000000
vt 0.735000 0.666667
vt 0.735000 0.333333
vn -0.8482 -0.2974 0.4384
s off
mtllib leafwood.mtl
usemtl Leaves
f 1/1/1 2/2/1 5/3/1 4/4/1
f 1/1/1 4/4/1 6/5/1 3/6/1
