# Blender v3.4.0 OBJ File: 'apple_tree4_sapling_1_8_2_2.blend'
# www.blender.org
o leaves.110
v -0.007826 0.106107 1.097232
v 0.006336 0.065299 1.115931
v 0.082268 0.048407 1.140510
v 0.038075 0.108448 1.107386
v 0.068106 0.089215 1.121812
v 0.036367 0.046066 1.130356
vt 0.500000 0.000000
vt 0.265000 0.333333
vt 0.265000 0.666667
vt 0.500000 1.000000
vt 0.735000 0.666667
vt 0.735000 0.333333
vn -0.2195 0.3424 0.9135
vn -0.2196 0.3424 0.9135
s off
mtllib leafwood.mtl
usemtl Leaves
f 1/1/1 2/2/1 6/3/1 3/4/1
f 1/1/2 3/4/2 5/5/2 4/6/2
