# Blender v3.4.0 OBJ File: 'apple_tree4_sapling_1_8_2_2.blend'
# www.blender.org
o leaves.070
v 0.233073 0.126481 0.892632
v 0.224270 0.170324 0.891751
v 0.159169 0.203581 0.917542
v 0.192606 0.134038 0.910120
v 0.167972 0.159738 0.918423
v 0.199636 0.196024 0.900054
vt 0.500000 0.000000
vt 0.265000 0.333333
vt 0.265000 0.666667
vt 0.500000 1.000000
vt 0.735000 0.666667
vt 0.735000 0.333333
vn 0.4105 0.1006 0.9063
s off
mtllib leafwood.mtl
usemtl Leaves
f 1/1/1 2/2/1 6/3/1 3/4/1
f 1/1/1 3/4/1 5/5/1 4/6/1
