# Blender v3.4.0 OBJ File: 'apple_tree4_sapling_1_8_2_2.blend'
# www.blender.org
o leaves.119
v -0.081658 -0.042401 1.174008
v -0.058323 -0.083563 1.162478
v 0.000501 -0.091243 1.102436
v -0.050220 -0.033801 1.137823
v -0.022833 -0.050082 1.113965
v -0.030937 -0.099843 1.138621
vt 0.500000 0.000000
vt 0.265000 0.333333
vt 0.265000 0.666667
vt 0.500000 1.000000
vt 0.735000 0.666667
vt 0.735000 0.333333
vn 0.7111 0.2157 0.6691
s off
mtllib leafwood.mtl
usemtl Leaves
f 1/1/1 2/2/1 6/3/1 3/4/1
f 1/1/1 3/4/1 5/5/1 4/6/1
