# Blender v3.4.0 OBJ File: 'apple_tree11_tree-gen.blend'
# www.blender.org
o Leaves.054_leaves.054
v 0.077954 -0.107591 1.459047
v 0.077892 -0.117499 1.470308
v 0.078766 -0.108540 1.458216
v 0.077954 -0.107591 1.459047
v 0.077892 -0.117499 1.470308
v 0.078766 -0.108540 1.458216
v 0.078704 -0.118448 1.469478
v 0.094143 -0.201358 1.526482
v 0.090420 -0.142117 1.468696
v 0.078704 -0.118448 1.469478
v 0.094143 -0.201358 1.526482
v 0.090420 -0.142117 1.468696
v 0.098388 -0.176377 1.488545
v 0.098388 -0.176377 1.488545
v 0.077744 -0.207150 1.571245
v 0.061654 -0.163399 1.559702
v 0.057777 -0.128929 1.530071
v 0.061654 -0.163399 1.559702
v 0.077744 -0.207150 1.571245
v 0.057777 -0.128929 1.530071
v 0.066053 -0.113648 1.493612
v 0.066053 -0.113648 1.493612
vn 0.0000 0.0000 1.0000
vn -0.8407 -0.4042 -0.3602
vn 0.8407 0.4042 0.3602
vn 0.8407 0.4043 0.3603
vn -0.8407 -0.4043 -0.3603
s off
mtllib leafwood.mtl
usemtl Leaves
f 1//1 2//1 5//1 4//1
f 1//2 3//2 10//2 2//2
f 3//1 1//1 4//1 6//1
f 4//3 5//3 7//3 6//3
f 10//1 3//1 6//1 7//1
f 18//4 8//4 7//4 5//4
f 8//4 14//4 9//4 7//4
f 12//1 10//1 7//1 9//1
f 16//5 2//5 10//5 11//5
f 11//5 10//5 12//5 13//5
f 13//1 12//1 9//1 14//1
f 11//1 13//1 14//1 8//1
f 15//1 11//1 8//1 19//1
f 16//5 11//5 15//5
f 2//5 16//5 17//5 22//5
f 16//1 15//1 19//1 18//1
f 17//1 16//1 18//1 20//1
f 5//4 21//4 20//4 18//4
f 18//4 19//4 8//4
f 22//1 17//1 20//1 21//1
f 2//1 22//1 21//1 5//1
