# Blender v3.4.0 OBJ File: 'apple_tree11_tree-gen.blend'
# www.blender.org
o Leaves.118_leaves.118
v -0.157686 -0.127620 2.246540
v -0.167849 -0.134844 2.238202
v -0.158178 -0.126308 2.246003
v -0.157686 -0.127620 2.246540
v -0.167849 -0.134844 2.238202
v -0.158178 -0.126308 2.246003
v -0.168341 -0.133533 2.237665
v -0.243985 -0.154922 2.172994
v -0.185633 -0.121742 2.221540
v -0.168341 -0.133533 2.237665
v -0.243985 -0.154922 2.172994
v -0.185633 -0.121742 2.221540
v -0.215956 -0.126690 2.195324
v -0.215956 -0.126690 2.195324
v -0.224316 -0.207379 2.194474
v -0.259556 -0.199212 2.162888
v -0.259556 -0.199212 2.162888
v -0.224316 -0.207379 2.194474
v -0.191370 -0.192261 2.222174
v -0.170881 -0.161085 2.237650
v -0.191370 -0.192261 2.222174
v -0.170881 -0.161085 2.237650
vn 0.0000 0.0000 1.0000
vn -0.6584 0.0602 0.7502
vn 0.6584 -0.0602 -0.7502
vn 0.6584 -0.0603 -0.7502
vn -0.6584 0.0603 0.7502
s off
mtllib leafwood.mtl
usemtl Leaves
f 1//1 2//1 5//1 4//1
f 1//2 3//2 10//2 2//2
f 3//1 1//1 4//1 6//1
f 4//3 5//3 7//3 6//3
f 10//1 3//1 6//1 7//1
f 18//4 8//4 7//4 5//4
f 8//4 14//4 9//4 7//4
f 12//1 10//1 7//1 9//1
f 15//5 2//5 10//5 11//5
f 11//5 10//5 12//5 13//5
f 13//1 12//1 9//1 14//1
f 11//1 13//1 14//1 8//1
f 15//5 11//5 16//5
f 16//1 11//1 8//1 17//1
f 15//1 16//1 17//1 18//1
f 18//4 17//4 8//4
f 5//4 20//4 19//4 18//4
f 21//1 15//1 18//1 19//1
f 22//1 21//1 19//1 20//1
f 2//5 15//5 21//5 22//5
f 2//1 22//1 20//1 5//1
