# Blender v3.4.0 OBJ File: 'apple_tree11_tree-gen.blend'
# www.blender.org
o Leaves.010_leaves.010
v 0.088649 0.314762 1.006636
v 0.086804 0.300310 1.003068
v 0.089057 0.315059 1.005224
v 0.088649 0.314762 1.006636
v 0.086804 0.300310 1.003068
v 0.089057 0.315059 1.005224
v 0.087212 0.300606 1.001656
v 0.091285 0.290455 0.977605
v 0.083181 0.212451 0.950918
v 0.087212 0.300606 1.001656
v 0.091285 0.290455 0.977605
v 0.083181 0.212451 0.950918
v 0.066856 0.200585 1.007423
v 0.070407 0.170388 0.970251
v 0.090755 0.257291 0.954559
v 0.090755 0.257291 0.954559
v 0.070407 0.170388 0.970251
v 0.066856 0.200585 1.007423
v 0.070349 0.242459 1.025189
v 0.079042 0.281556 1.019983
v 0.070349 0.242459 1.025189
v 0.079042 0.281556 1.019983
vn 0.0000 0.0000 1.0000
vn -0.9544 0.1805 -0.2378
vn 0.9544 -0.1805 0.2378
s off
mtllib leafwood.mtl
usemtl Leaves
f 1//1 2//1 5//1 4//1
f 1//2 3//2 10//2 2//2
f 3//1 1//1 4//1 6//1
f 4//3 5//3 7//3 6//3
f 10//1 3//1 6//1 7//1
f 18//3 9//3 7//3 5//3
f 11//1 10//1 7//1 8//1
f 9//3 16//3 8//3 7//3
f 13//2 2//2 10//2 12//2
f 12//2 10//2 11//2 15//2
f 13//2 12//2 14//2
f 14//1 12//1 9//1 17//1
f 12//1 15//1 16//1 9//1
f 15//1 11//1 8//1 16//1
f 13//1 14//1 17//1 18//1
f 18//3 17//3 9//3
f 5//3 20//3 19//3 18//3
f 21//1 13//1 18//1 19//1
f 22//1 21//1 19//1 20//1
f 2//2 13//2 21//2 22//2
f 2//1 22//1 20//1 5//1
