# Blender v3.4.0 OBJ File: 'apple_tree11_tree-gen.blend'
# www.blender.org
o Leaves.023_leaves.023
v 0.294902 -0.075459 1.226485
v 0.295081 -0.076452 1.225375
v 0.307925 -0.079841 1.232503
v 0.294902 -0.075459 1.226485
v 0.295081 -0.076452 1.225375
v 0.307925 -0.079841 1.232503
v 0.318354 -0.069826 1.254616
v 0.389083 -0.088965 1.293264
v 0.308104 -0.080834 1.231393
v 0.396236 -0.128681 1.248863
v 0.323719 -0.099614 1.221315
v 0.308104 -0.080834 1.231393
v 0.396236 -0.128681 1.248863
v 0.323719 -0.099614 1.221315
v 0.358063 -0.120499 1.225259
v 0.358063 -0.120499 1.225259
v 0.389083 -0.088965 1.293264
v 0.425215 -0.119779 1.286108
v 0.425215 -0.119779 1.286108
v 0.349122 -0.070853 1.280761
v 0.318354 -0.069826 1.254616
v 0.349122 -0.070853 1.280761
vn 0.0000 0.0000 1.0000
vn -0.4817 -0.6903 0.5398
vn 0.4817 0.6903 -0.5398
vn 0.4818 0.6903 -0.5398
vn -0.4818 -0.6903 0.5398
s off
mtllib leafwood.mtl
usemtl Leaves
f 2//1 1//1 4//1 5//1
f 1//2 2//2 12//2 3//2
f 1//1 3//1 6//1 4//1
f 4//3 6//3 9//3 5//3
f 3//1 21//1 7//1 6//1
f 6//4 7//4 22//4 8//4
f 8//4 10//4 9//4 6//4
f 10//4 16//4 11//4 9//4
f 12//1 2//1 5//1 9//1
f 14//1 12//1 9//1 11//1
f 17//5 3//5 12//5 13//5
f 13//5 12//5 14//5 15//5
f 15//1 14//1 11//1 16//1
f 13//1 15//1 16//1 10//1
f 17//5 13//5 18//5
f 18//1 13//1 10//1 19//1
f 17//1 18//1 19//1 8//1
f 8//4 19//4 10//4
f 20//1 17//1 8//1 22//1
f 3//5 17//5 20//5 21//5
f 21//1 20//1 22//1 7//1
