# Blender v3.4.0 OBJ File: 'apple_tree11_tree-gen.blend'
# www.blender.org
o Leaves.038_leaves.038
v 0.176077 0.095174 1.327183
v 0.191061 0.095819 1.327425
v 0.176124 0.094587 1.325803
v 0.176077 0.095174 1.327183
v 0.191061 0.095819 1.327425
v 0.176124 0.094587 1.325803
v 0.191109 0.095232 1.326046
v 0.206783 0.087357 1.306289
v 0.289434 0.087966 1.300726
v 0.191109 0.095232 1.326046
v 0.206783 0.087357 1.306289
v 0.289434 0.087966 1.300726
v 0.325942 0.101331 1.328918
v 0.287529 0.111471 1.355898
v 0.244720 0.083093 1.293102
v 0.244720 0.083093 1.293102
v 0.242339 0.112474 1.362067
v 0.287529 0.111471 1.355898
v 0.242339 0.112474 1.362067
v 0.325942 0.101331 1.328918
v 0.205355 0.104985 1.347667
v 0.205355 0.104985 1.347667
vn 0.0000 0.0000 1.0000
vn 0.0332 -0.9191 0.3927
vn -0.0332 0.9191 -0.3927
s off
mtllib leafwood.mtl
usemtl Leaves
f 1//1 2//1 5//1 4//1
f 1//2 3//2 10//2 2//2
f 3//1 1//1 4//1 6//1
f 4//3 5//3 7//3 6//3
f 10//1 3//1 6//1 7//1
f 18//3 9//3 7//3 5//3
f 11//1 10//1 7//1 8//1
f 9//3 16//3 8//3 7//3
f 14//2 2//2 10//2 12//2
f 12//2 10//2 11//2 15//2
f 13//1 12//1 9//1 20//1
f 14//2 12//2 13//2
f 12//1 15//1 16//1 9//1
f 15//1 11//1 8//1 16//1
f 2//2 14//2 17//2 22//2
f 17//1 14//1 18//1 19//1
f 14//1 13//1 20//1 18//1
f 5//3 21//3 19//3 18//3
f 18//3 20//3 9//3
f 22//1 17//1 19//1 21//1
f 2//1 22//1 21//1 5//1
