# Blender v3.4.0 OBJ File: 'apple_tree11_tree-gen.blend'
# www.blender.org
o Leaves.159_leaves.159
v 0.170034 -0.046698 2.813889
v 0.168953 -0.047715 2.813676
v 0.171091 -0.050838 2.828268
v 0.170034 -0.046698 2.813889
v 0.168953 -0.047715 2.813676
v 0.171091 -0.050838 2.828268
v 0.187828 -0.040227 2.845742
v 0.199048 -0.057911 2.925890
v 0.170009 -0.051856 2.828054
v 0.155791 -0.098605 2.917353
v 0.155386 -0.070747 2.839338
v 0.170009 -0.051856 2.828054
v 0.155791 -0.098605 2.917353
v 0.155386 -0.070747 2.839338
v 0.147214 -0.091271 2.873150
v 0.147214 -0.091271 2.873150
v 0.199048 -0.057911 2.925890
v 0.180061 -0.088609 2.957568
v 0.180061 -0.088609 2.957568
v 0.201284 -0.040404 2.883822
v 0.187828 -0.040227 2.845742
v 0.201284 -0.040404 2.883822
vn 0.0000 0.0000 1.0000
vn -0.6894 0.6811 0.2468
vn 0.6894 -0.6811 -0.2468
vn 0.6894 -0.6810 -0.2468
vn -0.6894 0.6810 0.2468
s off
mtllib leafwood.mtl
usemtl Leaves
f 2//1 1//1 4//1 5//1
f 1//2 2//2 12//2 3//2
f 1//1 3//1 6//1 4//1
f 4//3 6//3 9//3 5//3
f 3//1 21//1 7//1 6//1
f 6//4 7//4 22//4 8//4
f 8//4 10//4 9//4 6//4
f 10//4 16//4 11//4 9//4
f 12//1 2//1 5//1 9//1
f 14//1 12//1 9//1 11//1
f 17//5 3//5 12//5 13//5
f 13//5 12//5 14//5 15//5
f 15//1 14//1 11//1 16//1
f 13//1 15//1 16//1 10//1
f 17//5 13//5 18//5
f 18//1 13//1 10//1 19//1
f 17//1 18//1 19//1 8//1
f 8//4 19//4 10//4
f 3//5 17//5 20//5 21//5
f 20//1 17//1 8//1 22//1
f 21//1 20//1 22//1 7//1
