# Blender v3.4.0 OBJ File: 'apple_tree11_tree-gen.blend'
# www.blender.org
o Leaves.103_leaves.103
v 0.086760 -0.085138 2.079623
v 0.081105 -0.089897 2.092676
v 0.085450 -0.085426 2.078951
v 0.086760 -0.085138 2.079623
v 0.081105 -0.089897 2.092676
v 0.085450 -0.085426 2.078951
v 0.079796 -0.090185 2.092004
v 0.055152 -0.099120 2.095308
v 0.017504 -0.126733 2.163738
v 0.079796 -0.090185 2.092004
v 0.055152 -0.099120 2.095308
v 0.017504 -0.126733 2.163738
v 0.069887 -0.115212 2.190631
v 0.029559 -0.132869 2.209817
v 0.027920 -0.113897 2.121217
v 0.027920 -0.113897 2.121217
v 0.029559 -0.132869 2.209817
v 0.069887 -0.115212 2.190631
v 0.093399 -0.099495 2.154833
v 0.094440 -0.090479 2.115478
v 0.093399 -0.099495 2.154833
v 0.094440 -0.090479 2.115478
vn 0.0000 0.0000 1.0000
vn -0.3093 0.9287 0.2046
vn 0.3093 -0.9287 -0.2046
s off
mtllib leafwood.mtl
usemtl Leaves
f 1//1 2//1 5//1 4//1
f 1//2 3//2 10//2 2//2
f 3//1 1//1 4//1 6//1
f 4//3 5//3 7//3 6//3
f 10//1 3//1 6//1 7//1
f 18//3 9//3 7//3 5//3
f 11//1 10//1 7//1 8//1
f 9//3 16//3 8//3 7//3
f 13//2 2//2 10//2 12//2
f 12//2 10//2 11//2 15//2
f 13//2 12//2 14//2
f 14//1 12//1 9//1 17//1
f 12//1 15//1 16//1 9//1
f 15//1 11//1 8//1 16//1
f 13//1 14//1 17//1 18//1
f 18//3 17//3 9//3
f 5//3 20//3 19//3 18//3
f 21//1 13//1 18//1 19//1
f 22//1 21//1 19//1 20//1
f 2//2 13//2 21//2 22//2
f 2//1 22//1 20//1 5//1
