# Blender v3.4.0 OBJ File: 'apple_tree11_tree-gen.blend'
# www.blender.org
o Leaves.145_leaves.145
v 0.097178 0.305691 2.510126
v 0.090701 0.292348 2.507887
v 0.096609 0.306185 2.508829
v 0.097178 0.305691 2.510126
v 0.090701 0.292348 2.507887
v 0.096609 0.306185 2.508829
v 0.090132 0.292842 2.506590
v 0.075408 0.286658 2.485542
v 0.036941 0.215740 2.466741
v 0.090132 0.292842 2.506590
v 0.075408 0.286658 2.485542
v 0.036941 0.215740 2.466741
v 0.032124 0.172508 2.487087
v 0.053528 0.258238 2.466972
v 0.059691 0.195990 2.518629
v 0.081966 0.233550 2.531832
v 0.059691 0.195990 2.518629
v 0.081966 0.233550 2.531832
v 0.032124 0.172508 2.487087
v 0.092471 0.271845 2.524458
v 0.092471 0.271845 2.524458
v 0.053528 0.258238 2.466972
vn 0.0000 0.0000 1.0000
vn -0.8184 0.3168 0.4794
vn 0.8185 -0.3167 -0.4794
vn 0.8184 -0.3168 -0.4794
s off
mtllib leafwood.mtl
usemtl Leaves
f 1//1 2//1 5//1 4//1
f 1//2 3//2 10//2 2//2
f 3//1 1//1 4//1 6//1
f 4//3 5//3 7//3 6//3
f 10//1 3//1 6//1 7//1
f 11//1 10//1 7//1 8//1
f 9//4 22//4 8//4 7//4
f 17//4 9//4 7//4 5//4
f 12//2 10//2 11//2 14//2
f 15//2 2//2 10//2 12//2
f 13//1 12//1 9//1 19//1
f 15//2 12//2 13//2
f 12//1 14//1 22//1 9//1
f 16//1 15//1 17//1 18//1
f 2//2 15//2 16//2 21//2
f 15//1 13//1 19//1 17//1
f 5//4 20//4 18//4 17//4
f 17//4 19//4 9//4
f 21//1 16//1 18//1 20//1
f 2//1 21//1 20//1 5//1
f 14//1 11//1 8//1 22//1
