# Blender v3.4.0 OBJ File: 'apple_tree11_tree-gen.blend'
# www.blender.org
o Leaves.027_leaves.027
v -0.074954 0.254313 1.239931
v -0.086517 0.245017 1.237720
v -0.075831 0.255207 1.240757
v -0.074954 0.254313 1.239931
v -0.086517 0.245017 1.237720
v -0.075831 0.255207 1.240757
v -0.087393 0.245911 1.238546
v -0.111667 0.249577 1.248313
v -0.179644 0.202916 1.240283
v -0.087393 0.245911 1.238546
v -0.111667 0.249577 1.248313
v -0.179644 0.202916 1.240283
v -0.144577 0.167160 1.207241
v -0.149340 0.235275 1.251046
v -0.191017 0.161797 1.218235
v -0.191017 0.161797 1.218235
v -0.144577 0.167160 1.207241
v -0.105507 0.190579 1.209743
v -0.085367 0.222759 1.223531
v -0.105507 0.190579 1.209743
v -0.085367 0.222759 1.223531
v -0.149340 0.235275 1.251046
vn 0.0000 0.0000 1.0000
vn 0.2535 -0.5107 0.8216
vn -0.2535 0.5107 -0.8216
vn -0.2535 0.5106 -0.8216
vn 0.2535 -0.5106 0.8216
s off
mtllib leafwood.mtl
usemtl Leaves
f 1//1 2//1 5//1 4//1
f 1//2 3//2 10//2 2//2
f 3//1 1//1 4//1 6//1
f 4//3 5//3 7//3 6//3
f 10//1 3//1 6//1 7//1
f 11//1 10//1 7//1 8//1
f 9//4 22//4 8//4 7//4
f 17//4 9//4 7//4 5//4
f 12//5 10//5 11//5 14//5
f 13//5 2//5 10//5 12//5
f 13//5 12//5 15//5
f 12//1 14//1 22//1 9//1
f 15//1 12//1 9//1 16//1
f 13//1 15//1 16//1 17//1
f 17//4 16//4 9//4
f 5//4 19//4 18//4 17//4
f 20//1 13//1 17//1 18//1
f 21//1 20//1 18//1 19//1
f 2//5 13//5 20//5 21//5
f 2//1 21//1 19//1 5//1
f 14//1 11//1 8//1 22//1
