# Blender v3.4.0 OBJ File: 'apple_tree11_tree-gen.blend'
# www.blender.org
o Leaves.167_leaves.167
v -0.003233 -0.184748 2.720900
v -0.003796 -0.190331 2.734811
v -0.003425 -0.186126 2.720339
v -0.003233 -0.184748 2.720900
v -0.003796 -0.190331 2.734811
v -0.003425 -0.186126 2.720339
v -0.003988 -0.191709 2.734250
v -0.007330 -0.217273 2.740029
v -0.011388 -0.254870 2.813734
v -0.003988 -0.191709 2.734250
v -0.007330 -0.217273 2.740029
v -0.011388 -0.254870 2.813734
v -0.003722 -0.199752 2.836167
v -0.010655 -0.245010 2.769198
v -0.008964 -0.241269 2.859728
v -0.008964 -0.241269 2.859728
v -0.003722 -0.199752 2.836167
v -0.001074 -0.176112 2.797239
v -0.001581 -0.175934 2.756853
v -0.001074 -0.176112 2.797239
v -0.001581 -0.175934 2.756853
v -0.010655 -0.245010 2.769198
vn 0.0000 0.0000 1.0000
vn -0.9911 0.1325 0.0130
vn 0.9911 -0.1325 -0.0130
s off
mtllib leafwood.mtl
usemtl Leaves
f 1//1 2//1 5//1 4//1
f 1//2 3//2 10//2 2//2
f 3//1 1//1 4//1 6//1
f 4//3 5//3 7//3 6//3
f 10//1 3//1 6//1 7//1
f 17//3 9//3 7//3 5//3
f 11//1 10//1 7//1 8//1
f 9//3 22//3 8//3 7//3
f 13//2 2//2 10//2 12//2
f 12//2 10//2 11//2 14//2
f 13//2 12//2 15//2
f 12//1 14//1 22//1 9//1
f 15//1 12//1 9//1 16//1
f 13//1 15//1 16//1 17//1
f 17//3 16//3 9//3
f 5//3 19//3 18//3 17//3
f 20//1 13//1 17//1 18//1
f 21//1 20//1 18//1 19//1
f 2//2 13//2 20//2 21//2
f 2//1 21//1 19//1 5//1
f 14//1 11//1 8//1 22//1
