# Blender v3.4.0 OBJ File: 'apple_tree11_tree-gen.blend'
# www.blender.org
o Leaves.061_leaves.061
v 0.108012 0.233282 1.551523
v 0.099323 0.221853 1.547178
v 0.108432 0.233504 1.550100
v 0.108012 0.233282 1.551523
v 0.099323 0.221853 1.547178
v 0.108432 0.233504 1.550100
v 0.099743 0.222075 1.545756
v 0.097140 0.213862 1.520779
v 0.051449 0.152111 1.489768
v 0.099743 0.222075 1.545756
v 0.097140 0.213862 1.520779
v 0.051449 0.152111 1.489768
v 0.034658 0.143240 1.546684
v 0.021331 0.119103 1.507364
v 0.079616 0.187507 1.495688
v 0.079616 0.187507 1.495688
v 0.021331 0.119103 1.507364
v 0.034658 0.143240 1.546684
v 0.058626 0.176419 1.566832
v 0.084547 0.207209 1.563465
v 0.058626 0.176419 1.566832
v 0.084547 0.207209 1.563465
vn 0.0000 0.0000 1.0000
vn -0.7656 0.6306 -0.1276
vn 0.7656 -0.6306 0.1276
s off
mtllib leafwood.mtl
usemtl Leaves
f 1//1 2//1 5//1 4//1
f 1//2 3//2 10//2 2//2
f 3//1 1//1 4//1 6//1
f 4//3 5//3 7//3 6//3
f 10//1 3//1 6//1 7//1
f 18//3 9//3 7//3 5//3
f 11//1 10//1 7//1 8//1
f 9//3 16//3 8//3 7//3
f 13//2 2//2 10//2 12//2
f 12//2 10//2 11//2 15//2
f 13//2 12//2 14//2
f 14//1 12//1 9//1 17//1
f 12//1 15//1 16//1 9//1
f 15//1 11//1 8//1 16//1
f 13//1 14//1 17//1 18//1
f 18//3 17//3 9//3
f 5//3 20//3 19//3 18//3
f 21//1 13//1 18//1 19//1
f 22//1 21//1 19//1 20//1
f 2//2 13//2 21//2 22//2
f 2//1 22//1 20//1 5//1
