# Blender v3.4.0 OBJ File: 'apple_tree11_tree-gen.blend'
# www.blender.org
o Leaves.062_leaves.062
v 0.205094 0.314133 1.583350
v 0.210442 0.322690 1.594448
v 0.204413 0.315330 1.582755
v 0.205094 0.314133 1.583350
v 0.210442 0.322690 1.594448
v 0.204413 0.315330 1.582755
v 0.209762 0.323887 1.593853
v 0.205246 0.349802 1.596322
v 0.231262 0.402852 1.654385
v 0.209762 0.323887 1.593853
v 0.205246 0.349802 1.596322
v 0.231262 0.402852 1.654385
v 0.258475 0.354969 1.678190
v 0.258241 0.400303 1.694033
v 0.211815 0.383166 1.618116
v 0.211815 0.383166 1.618116
v 0.258241 0.400303 1.694033
v 0.258475 0.354969 1.678190
v 0.245831 0.323312 1.647872
v 0.225656 0.313890 1.614175
v 0.245831 0.323312 1.647872
v 0.225656 0.313890 1.614175
vn 0.0000 0.0000 1.0000
vn 0.8168 0.1941 -0.5433
vn -0.8168 -0.1941 0.5433
s off
mtllib leafwood.mtl
usemtl Leaves
f 1//1 2//1 5//1 4//1
f 1//2 3//2 10//2 2//2
f 3//1 1//1 4//1 6//1
f 4//3 5//3 7//3 6//3
f 10//1 3//1 6//1 7//1
f 11//1 10//1 7//1 8//1
f 9//3 16//3 8//3 7//3
f 18//3 9//3 7//3 5//3
f 12//2 10//2 11//2 15//2
f 13//2 2//2 10//2 12//2
f 13//2 12//2 14//2
f 14//1 12//1 9//1 17//1
f 12//1 15//1 16//1 9//1
f 15//1 11//1 8//1 16//1
f 13//1 14//1 17//1 18//1
f 18//3 17//3 9//3
f 5//3 20//3 19//3 18//3
f 21//1 13//1 18//1 19//1
f 22//1 21//1 19//1 20//1
f 2//2 13//2 21//2 22//2
f 2//1 22//1 20//1 5//1
