# Blender v3.4.0 OBJ File: 'apple_tree11_tree-gen.blend'
# www.blender.org
o Leaves.101_leaves.101
v -0.287775 -0.039317 2.158202
v -0.281843 -0.035529 2.171448
v -0.287294 -0.040725 2.158390
v -0.287775 -0.039317 2.158202
v -0.281843 -0.035529 2.171448
v -0.287294 -0.040725 2.158390
v -0.281362 -0.036937 2.171636
v -0.233440 -0.039784 2.261397
v -0.268467 -0.053574 2.187604
v -0.281362 -0.036937 2.171636
v -0.233440 -0.039784 2.261397
v -0.268467 -0.053574 2.187604
v -0.248834 -0.058190 2.222597
v -0.248834 -0.058190 2.222597
v -0.228215 -0.002142 2.290759
v -0.252650 0.016560 2.253888
v -0.272847 0.012239 2.213211
v -0.252650 0.016560 2.253888
v -0.272847 0.012239 2.213211
v -0.228215 -0.002142 2.290759
v -0.282875 -0.011317 2.181972
v -0.282875 -0.011317 2.181972
vn 0.0000 0.0000 1.0000
vn -0.8609 -0.2333 0.4522
vn 0.8609 0.2333 -0.4522
vn 0.8609 0.2332 -0.4522
vn -0.8609 -0.2332 0.4522
s off
mtllib leafwood.mtl
usemtl Leaves
f 1//1 2//1 5//1 4//1
f 1//2 3//2 10//2 2//2
f 3//1 1//1 4//1 6//1
f 4//3 5//3 7//3 6//3
f 10//1 3//1 6//1 7//1
f 18//4 8//4 7//4 5//4
f 8//4 14//4 9//4 7//4
f 12//1 10//1 7//1 9//1
f 16//5 2//5 10//5 11//5
f 11//5 10//5 12//5 13//5
f 13//1 12//1 9//1 14//1
f 11//1 13//1 14//1 8//1
f 15//1 11//1 8//1 20//1
f 16//5 11//5 15//5
f 2//5 16//5 17//5 22//5
f 17//1 16//1 18//1 19//1
f 16//1 15//1 20//1 18//1
f 5//4 21//4 19//4 18//4
f 18//4 20//4 8//4
f 22//1 17//1 19//1 21//1
f 2//1 22//1 21//1 5//1
