# Blender v3.4.0 OBJ File: 'apple_tree11_tree-gen.blend'
# www.blender.org
o Leaves.016_leaves.016
v -0.141875 -0.043505 1.082363
v -0.130398 -0.033850 1.082596
v -0.141595 -0.043804 1.080920
v -0.141875 -0.043505 1.082363
v -0.130398 -0.033850 1.082596
v -0.141595 -0.043804 1.080920
v -0.130118 -0.034148 1.081153
v -0.050056 0.022796 1.054523
v -0.114579 -0.028818 1.060460
v -0.130118 -0.034148 1.081153
v -0.050056 0.022796 1.054523
v -0.114579 -0.028818 1.060460
v -0.083085 -0.007662 1.046610
v -0.083085 -0.007662 1.046610
v -0.061262 0.034727 1.112247
v -0.026967 0.052900 1.083966
v -0.026967 0.052900 1.083966
v -0.061262 0.034727 1.112247
v -0.097094 0.007252 1.118765
v -0.122984 -0.019869 1.103753
v -0.097094 0.007252 1.118765
v -0.122984 -0.019869 1.103753
vn 0.0000 0.0000 1.0000
vn 0.6162 -0.7390 0.2724
vn -0.6162 0.7390 -0.2724
s off
mtllib leafwood.mtl
usemtl Leaves
f 1//1 2//1 5//1 4//1
f 1//2 3//2 10//2 2//2
f 3//1 1//1 4//1 6//1
f 4//3 5//3 7//3 6//3
f 10//1 3//1 6//1 7//1
f 18//3 8//3 7//3 5//3
f 8//3 14//3 9//3 7//3
f 12//1 10//1 7//1 9//1
f 15//2 2//2 10//2 11//2
f 11//2 10//2 12//2 13//2
f 13//1 12//1 9//1 14//1
f 11//1 13//1 14//1 8//1
f 15//2 11//2 16//2
f 16//1 11//1 8//1 17//1
f 15//1 16//1 17//1 18//1
f 18//3 17//3 8//3
f 5//3 20//3 19//3 18//3
f 21//1 15//1 18//1 19//1
f 22//1 21//1 19//1 20//1
f 2//2 15//2 21//2 22//2
f 2//1 22//1 20//1 5//1
