# Blender v3.4.0 OBJ File: 'apple_tree11_tree-gen.blend'
# www.blender.org
o Leaves.076_leaves.076
v 0.309478 -0.046284 1.688478
v 0.313163 -0.048996 1.702763
v 0.310898 -0.046534 1.688064
v 0.309478 -0.046284 1.688478
v 0.313163 -0.048996 1.702763
v 0.310898 -0.046534 1.688064
v 0.314583 -0.049246 1.702349
v 0.338858 -0.055578 1.710635
v 0.366227 -0.071742 1.787135
v 0.314583 -0.049246 1.702349
v 0.338858 -0.055578 1.710635
v 0.366227 -0.071742 1.787135
v 0.362272 -0.064855 1.742211
v 0.347040 -0.073528 1.831122
v 0.309426 -0.061755 1.803684
v 0.291270 -0.052370 1.762897
v 0.309426 -0.061755 1.803684
v 0.347040 -0.073528 1.831122
v 0.291270 -0.052370 1.762897
v 0.296258 -0.048087 1.723047
v 0.296258 -0.048087 1.723047
v 0.362272 -0.064855 1.742211
vn 0.0000 0.0000 1.0000
vn -0.2084 -0.9693 -0.1303
vn 0.2084 0.9693 0.1303
s off
mtllib leafwood.mtl
usemtl Leaves
f 1//1 2//1 5//1 4//1
f 1//2 3//2 10//2 2//2
f 3//1 1//1 4//1 6//1
f 4//3 5//3 7//3 6//3
f 10//1 3//1 6//1 7//1
f 17//3 9//3 7//3 5//3
f 11//1 10//1 7//1 8//1
f 9//3 22//3 8//3 7//3
f 15//2 2//2 10//2 12//2
f 12//2 10//2 11//2 13//2
f 12//1 13//1 22//1 9//1
f 14//1 12//1 9//1 18//1
f 15//2 12//2 14//2
f 2//2 15//2 16//2 21//2
f 15//1 14//1 18//1 17//1
f 16//1 15//1 17//1 19//1
f 5//3 20//3 19//3 17//3
f 17//3 18//3 9//3
f 21//1 16//1 19//1 20//1
f 2//1 21//1 20//1 5//1
f 13//1 11//1 8//1 22//1
