# Blender v3.4.0 OBJ File: 'apple_tree11_tree-gen.blend'
# www.blender.org
o Leaves.169_leaves.169
v 0.045019 -0.294407 2.774458
v 0.041570 -0.308554 2.770855
v 0.043894 -0.293914 2.773596
v 0.045019 -0.294407 2.774458
v 0.041570 -0.308554 2.770855
v 0.043894 -0.293914 2.773596
v 0.040445 -0.308061 2.769993
v -0.003900 -0.390389 2.729778
v 0.020690 -0.315051 2.753901
v 0.040445 -0.308061 2.769993
v -0.003900 -0.390389 2.729778
v 0.020690 -0.315051 2.753901
v 0.000823 -0.345482 2.736281
v 0.000823 -0.345482 2.736281
v 0.041082 -0.410130 2.764230
v 0.009969 -0.435626 2.737996
v 0.009969 -0.435626 2.737996
v 0.041082 -0.410130 2.764230
v 0.057051 -0.370158 2.779345
v 0.054427 -0.329857 2.779740
v 0.057051 -0.370158 2.779345
v 0.054427 -0.329857 2.779740
vn 0.0000 0.0000 1.0000
vn -0.6206 -0.0480 0.7827
vn 0.6205 0.0480 -0.7827
vn 0.6206 0.0481 -0.7827
vn -0.6206 -0.0481 0.7827
vn -0.6205 -0.0481 0.7827
vn 0.6205 0.0481 -0.7827
s off
mtllib leafwood.mtl
usemtl Leaves
f 1//1 2//1 5//1 4//1
f 1//2 3//2 10//2 2//2
f 3//1 1//1 4//1 6//1
f 4//3 5//3 7//3 6//3
f 10//1 3//1 6//1 7//1
f 18//4 8//4 7//4 5//4
f 8//4 14//4 9//4 7//4
f 12//1 10//1 7//1 9//1
f 15//5 2//5 10//5 11//5
f 11//6 10//6 12//6 13//6
f 13//1 12//1 9//1 14//1
f 11//1 13//1 14//1 8//1
f 15//5 11//5 16//5
f 16//1 11//1 8//1 17//1
f 15//1 16//1 17//1 18//1
f 18//4 17//4 8//4
f 21//1 15//1 18//1 19//1
f 5//7 20//7 19//7 18//7
f 22//1 21//1 19//1 20//1
f 2//6 15//6 21//6 22//6
f 2//1 22//1 20//1 5//1
