# Blender v3.4.0 OBJ File: 'apple_tree11_tree-gen.blend'
# www.blender.org
o Leaves.139_leaves.139
v 0.031849 0.093635 2.379979
v 0.018595 0.088037 2.375736
v 0.031542 0.094912 2.379254
v 0.031849 0.093635 2.379979
v 0.018595 0.088037 2.375736
v 0.031542 0.094912 2.379254
v 0.018288 0.089314 2.375012
v 0.000577 0.102232 2.360263
v -0.073857 0.077830 2.333307
v 0.018288 0.089314 2.375012
v 0.000577 0.102232 2.360263
v -0.073857 0.077830 2.333307
v -0.061563 0.026754 2.362292
v -0.035631 0.101007 2.342411
v -0.100845 0.038298 2.337194
v -0.100845 0.038298 2.337194
v -0.061563 0.026754 2.362292
v -0.020264 0.037162 2.378641
v 0.009798 0.063925 2.382001
v -0.020264 0.037162 2.378641
v 0.009798 0.063925 2.382001
v -0.035631 0.101007 2.342411
vn 0.0000 0.0000 1.0000
vn -0.4211 0.3689 0.8286
vn 0.4211 -0.3689 -0.8286
vn 0.4210 -0.3689 -0.8286
vn -0.4210 0.3689 0.8286
vn 0.4210 -0.3689 -0.8287
vn -0.4210 0.3689 0.8287
s off
mtllib leafwood.mtl
usemtl Leaves
f 1//1 2//1 5//1 4//1
f 1//2 3//2 10//2 2//2
f 3//1 1//1 4//1 6//1
f 4//3 5//3 7//3 6//3
f 10//1 3//1 6//1 7//1
f 11//1 10//1 7//1 8//1
f 9//4 22//4 8//4 7//4
f 17//4 9//4 7//4 5//4
f 12//5 10//5 11//5 14//5
f 13//5 2//5 10//5 12//5
f 13//5 12//5 15//5
f 12//1 14//1 22//1 9//1
f 15//1 12//1 9//1 16//1
f 13//1 15//1 16//1 17//1
f 17//4 16//4 9//4
f 5//6 19//6 18//6 17//6
f 20//1 13//1 17//1 18//1
f 21//1 20//1 18//1 19//1
f 2//7 13//7 20//7 21//7
f 2//1 21//1 19//1 5//1
f 14//1 11//1 8//1 22//1
