# Blender v3.4.0 OBJ File: 'apple_tree11_tree-gen.blend'
# www.blender.org
o Leaves.106_leaves.106
v 0.144566 -0.093350 2.269783
v 0.154503 -0.100669 2.278309
v 0.144068 -0.094657 2.269242
v 0.144566 -0.093350 2.269783
v 0.154503 -0.100669 2.278309
v 0.144068 -0.094657 2.269242
v 0.154005 -0.101976 2.277768
v 0.208871 -0.175039 2.322636
v 0.156711 -0.128249 2.278449
v 0.154005 -0.101976 2.277768
v 0.208871 -0.175039 2.322636
v 0.156711 -0.128249 2.278449
v 0.176567 -0.159618 2.294354
v 0.176567 -0.159618 2.294354
v 0.228815 -0.122752 2.344275
v 0.243685 -0.167193 2.354770
v 0.243685 -0.167193 2.354770
v 0.228815 -0.122752 2.344275
v 0.201498 -0.094259 2.321403
v 0.171670 -0.089034 2.294679
v 0.201498 -0.094259 2.321403
v 0.171670 -0.089034 2.294679
vn 0.0000 0.0000 1.0000
vn -0.6713 -0.0500 0.7395
vn 0.6713 0.0500 -0.7395
s off
mtllib leafwood.mtl
usemtl Leaves
f 1//1 2//1 5//1 4//1
f 1//2 3//2 10//2 2//2
f 3//1 1//1 4//1 6//1
f 4//3 5//3 7//3 6//3
f 10//1 3//1 6//1 7//1
f 18//3 8//3 7//3 5//3
f 8//3 14//3 9//3 7//3
f 12//1 10//1 7//1 9//1
f 15//2 2//2 10//2 11//2
f 11//2 10//2 12//2 13//2
f 13//1 12//1 9//1 14//1
f 11//1 13//1 14//1 8//1
f 15//2 11//2 16//2
f 16//1 11//1 8//1 17//1
f 15//1 16//1 17//1 18//1
f 18//3 17//3 8//3
f 5//3 20//3 19//3 18//3
f 21//1 15//1 18//1 19//1
f 22//1 21//1 19//1 20//1
f 2//2 15//2 21//2 22//2
f 2//1 22//1 20//1 5//1
