# Blender v3.4.0 OBJ File: 'apple_tree11_tree-gen.blend'
# www.blender.org
o Leaves.079_leaves.079
v -0.138299 0.151409 1.759054
v -0.131532 0.141056 1.750568
v -0.138817 0.152084 1.757818
v -0.138299 0.151409 1.759054
v -0.131532 0.141056 1.750568
v -0.138817 0.152084 1.757818
v -0.132049 0.141731 1.749332
v -0.132784 0.141161 1.722928
v -0.098150 0.087592 1.670075
v -0.132049 0.141731 1.749332
v -0.132784 0.141161 1.722928
v -0.098150 0.087592 1.670075
v -0.121039 0.122025 1.689355
v -0.070884 0.048215 1.673575
v -0.077456 0.060603 1.719506
v -0.095171 0.088289 1.751143
v -0.077456 0.060603 1.719506
v -0.070884 0.048215 1.673575
v -0.095171 0.088289 1.751143
v -0.117263 0.120919 1.760000
v -0.117263 0.120919 1.760000
v -0.121039 0.122025 1.689355
vn 0.0000 0.0000 1.0000
vn -0.8231 -0.5668 0.0351
vn 0.8231 0.5668 -0.0351
s off
mtllib leafwood.mtl
usemtl Leaves
f 1//1 2//1 5//1 4//1
f 1//2 3//2 10//2 2//2
f 3//1 1//1 4//1 6//1
f 4//3 5//3 7//3 6//3
f 10//1 3//1 6//1 7//1
f 11//1 10//1 7//1 8//1
f 9//3 22//3 8//3 7//3
f 17//3 9//3 7//3 5//3
f 12//2 10//2 11//2 13//2
f 15//2 2//2 10//2 12//2
f 12//1 13//1 22//1 9//1
f 14//1 12//1 9//1 18//1
f 15//2 12//2 14//2
f 2//2 15//2 16//2 21//2
f 15//1 14//1 18//1 17//1
f 16//1 15//1 17//1 19//1
f 5//3 20//3 19//3 17//3
f 17//3 18//3 9//3
f 21//1 16//1 19//1 20//1
f 2//1 21//1 20//1 5//1
f 13//1 11//1 8//1 22//1
