# Blender v3.4.0 OBJ File: 'apple_tree11_tree-gen.blend'
# www.blender.org
o Leaves.105_leaves.105
v 0.120051 -0.089085 2.209053
v 0.130083 -0.088836 2.220201
v 0.121035 -0.089811 2.208184
v 0.120051 -0.089085 2.209053
v 0.130083 -0.088836 2.220201
v 0.121035 -0.089811 2.208184
v 0.131067 -0.089563 2.219333
v 0.215454 -0.102114 2.274858
v 0.155360 -0.099849 2.217884
v 0.131067 -0.089563 2.219333
v 0.215454 -0.102114 2.274858
v 0.155360 -0.099849 2.217884
v 0.190275 -0.106493 2.237068
v 0.190275 -0.106493 2.237068
v 0.176113 -0.073053 2.309611
v 0.220864 -0.086962 2.320107
v 0.220864 -0.086962 2.320107
v 0.176113 -0.073053 2.309611
v 0.141099 -0.070166 2.280508
v 0.125854 -0.078053 2.243948
v 0.141099 -0.070166 2.280508
v 0.125854 -0.078053 2.243948
vn 0.0000 0.0000 1.0000
vn -0.3504 -0.8747 0.3348
vn 0.3504 0.8747 -0.3348
s off
mtllib leafwood.mtl
usemtl Leaves
f 1//1 2//1 5//1 4//1
f 1//2 3//2 10//2 2//2
f 3//1 1//1 4//1 6//1
f 4//3 5//3 7//3 6//3
f 10//1 3//1 6//1 7//1
f 18//3 8//3 7//3 5//3
f 8//3 14//3 9//3 7//3
f 12//1 10//1 7//1 9//1
f 15//2 2//2 10//2 11//2
f 11//2 10//2 12//2 13//2
f 13//1 12//1 9//1 14//1
f 11//1 13//1 14//1 8//1
f 15//2 11//2 16//2
f 16//1 11//1 8//1 17//1
f 15//1 16//1 17//1 18//1
f 18//3 17//3 8//3
f 5//3 20//3 19//3 18//3
f 21//1 15//1 18//1 19//1
f 22//1 21//1 19//1 20//1
f 2//2 15//2 21//2 22//2
f 2//1 22//1 20//1 5//1
