# Blender v3.4.0 OBJ File: 'apple_tree11_tree-gen.blend'
# www.blender.org
o Leaves.115_leaves.115
v -0.217305 0.312254 2.161497
v -0.214132 0.298210 2.157289
v -0.218114 0.312445 2.160248
v -0.217305 0.312254 2.161497
v -0.214132 0.298210 2.157289
v -0.218114 0.312445 2.160248
v -0.214941 0.298402 2.156040
v -0.210085 0.210853 2.104336
v -0.223492 0.287135 2.133724
v -0.214941 0.298402 2.156040
v -0.210085 0.210853 2.104336
v -0.223492 0.287135 2.133724
v -0.223646 0.253941 2.110716
v -0.223646 0.253941 2.110716
v -0.177743 0.203192 2.154289
v -0.185982 0.171914 2.118793
v -0.185982 0.171914 2.118793
v -0.177743 0.203192 2.154289
v -0.183219 0.244366 2.173157
v -0.199236 0.281389 2.171189
v -0.183219 0.244366 2.173157
v -0.199236 0.281389 2.171189
vn 0.0000 0.0000 1.0000
vn -0.8153 -0.3273 0.4776
vn 0.8153 0.3273 -0.4776
vn 0.8153 0.3273 -0.4777
vn -0.8153 -0.3273 0.4777
s off
mtllib leafwood.mtl
usemtl Leaves
f 1//1 2//1 5//1 4//1
f 1//2 3//2 10//2 2//2
f 3//1 1//1 4//1 6//1
f 4//3 5//3 7//3 6//3
f 10//1 3//1 6//1 7//1
f 18//4 8//4 7//4 5//4
f 8//4 14//4 9//4 7//4
f 12//1 10//1 7//1 9//1
f 15//5 2//5 10//5 11//5
f 11//5 10//5 12//5 13//5
f 13//1 12//1 9//1 14//1
f 11//1 13//1 14//1 8//1
f 15//5 11//5 16//5
f 16//1 11//1 8//1 17//1
f 15//1 16//1 17//1 18//1
f 18//4 17//4 8//4
f 5//4 20//4 19//4 18//4
f 21//1 15//1 18//1 19//1
f 22//1 21//1 19//1 20//1
f 2//5 15//5 21//5 22//5
f 2//1 22//1 20//1 5//1
