# Blender v3.4.0 OBJ File: 'apple_tree11_tree-gen.blend'
# www.blender.org
o Leaves.031_leaves.031
v -0.046219 -0.134203 1.271571
v -0.058178 -0.142629 1.274885
v -0.046020 -0.134984 1.270305
v -0.046219 -0.134203 1.271571
v -0.058178 -0.142629 1.274885
v -0.046020 -0.134984 1.270305
v -0.057980 -0.143409 1.273619
v -0.131837 -0.213388 1.270480
v -0.067054 -0.163147 1.258582
v -0.057980 -0.143409 1.273619
v -0.131837 -0.213388 1.270480
v -0.067054 -0.163147 1.258582
v -0.094964 -0.192012 1.254210
v -0.094964 -0.192012 1.254210
v -0.139794 -0.182182 1.321105
v -0.165714 -0.218849 1.304078
v -0.165714 -0.218849 1.304078
v -0.139794 -0.182182 1.321105
v -0.104910 -0.153004 1.317491
v -0.073022 -0.139742 1.296550
v -0.104910 -0.153004 1.317491
v -0.073022 -0.139742 1.296550
vn 0.0000 0.0000 1.0000
vn -0.5888 0.6434 -0.4892
vn 0.5888 -0.6434 0.4892
s off
mtllib leafwood.mtl
usemtl Leaves
f 1//1 2//1 5//1 4//1
f 1//2 3//2 10//2 2//2
f 3//1 1//1 4//1 6//1
f 4//3 5//3 7//3 6//3
f 10//1 3//1 6//1 7//1
f 18//3 8//3 7//3 5//3
f 8//3 14//3 9//3 7//3
f 12//1 10//1 7//1 9//1
f 15//2 2//2 10//2 11//2
f 11//2 10//2 12//2 13//2
f 13//1 12//1 9//1 14//1
f 11//1 13//1 14//1 8//1
f 15//2 11//2 16//2
f 16//1 11//1 8//1 17//1
f 15//1 16//1 17//1 18//1
f 18//3 17//3 8//3
f 5//3 20//3 19//3 18//3
f 21//1 15//1 18//1 19//1
f 22//1 21//1 19//1 20//1
f 2//2 15//2 21//2 22//2
f 2//1 22//1 20//1 5//1
