# Blender v3.4.0 OBJ File: 'apple_tree11_tree-gen.blend'
# www.blender.org
o Leaves.123_leaves.123
v 0.257188 0.034873 2.385920
v 0.263401 0.035694 2.399548
v 0.258547 0.034694 2.385311
v 0.257188 0.034873 2.385920
v 0.263401 0.035694 2.399548
v 0.258547 0.034694 2.385311
v 0.264760 0.035515 2.398939
v 0.331645 0.037358 2.475652
v 0.290680 0.033739 2.403740
v 0.264760 0.035515 2.398939
v 0.331645 0.037358 2.475652
v 0.290680 0.033739 2.403740
v 0.319803 0.034000 2.431722
v 0.319803 0.034000 2.431722
v 0.277279 0.044522 2.500003
v 0.319994 0.042992 2.521898
v 0.319994 0.042992 2.521898
v 0.277279 0.044522 2.500003
v 0.251846 0.042955 2.462162
v 0.249906 0.039112 2.422004
v 0.251846 0.042955 2.462162
v 0.249906 0.039112 2.422004
vn 0.0000 0.0000 1.0000
vn -0.0863 -0.9913 0.0990
vn 0.0863 0.9913 -0.0990
s off
mtllib leafwood.mtl
usemtl Leaves
f 1//1 2//1 5//1 4//1
f 1//2 3//2 10//2 2//2
f 3//1 1//1 4//1 6//1
f 4//3 5//3 7//3 6//3
f 10//1 3//1 6//1 7//1
f 18//3 8//3 7//3 5//3
f 8//3 14//3 9//3 7//3
f 12//1 10//1 7//1 9//1
f 15//2 2//2 10//2 11//2
f 11//2 10//2 12//2 13//2
f 13//1 12//1 9//1 14//1
f 11//1 13//1 14//1 8//1
f 15//2 11//2 16//2
f 16//1 11//1 8//1 17//1
f 15//1 16//1 17//1 18//1
f 18//3 17//3 8//3
f 5//3 20//3 19//3 18//3
f 21//1 15//1 18//1 19//1
f 22//1 21//1 19//1 20//1
f 2//2 15//2 21//2 22//2
f 2//1 22//1 20//1 5//1
