# Blender v3.4.0 OBJ File: 'apple_tree11_tree-gen.blend'
# www.blender.org
o Leaves.162_leaves.162
v -0.152373 0.101929 2.694402
v -0.139711 0.105030 2.701822
v -0.151851 0.100559 2.694084
v -0.152373 0.101929 2.694402
v -0.139711 0.105030 2.701822
v -0.151851 0.100559 2.694084
v -0.139190 0.103660 2.701504
v -0.118963 0.086897 2.704319
v -0.046716 0.097105 2.743543
v -0.139190 0.103660 2.701504
v -0.118963 0.086897 2.704319
v -0.046716 0.097105 2.743543
v -0.082092 0.080951 2.719693
v -0.067587 0.151903 2.756251
v -0.025499 0.132257 2.768449
v -0.025499 0.132257 2.768449
v -0.067587 0.151903 2.756251
v -0.108180 0.149449 2.735578
v -0.134616 0.127996 2.713850
v -0.108180 0.149449 2.735578
v -0.134616 0.127996 2.713850
v -0.082092 0.080951 2.719693
vn 0.0000 0.0000 1.0000
vn -0.4080 -0.3509 0.8429
vn 0.4080 0.3509 -0.8429
vn -0.4080 -0.3509 0.8428
vn 0.4080 0.3509 -0.8428
s off
mtllib leafwood.mtl
usemtl Leaves
f 1//1 2//1 5//1 4//1
f 1//2 3//2 10//2 2//2
f 3//1 1//1 4//1 6//1
f 4//3 5//3 7//3 6//3
f 10//1 3//1 6//1 7//1
f 17//3 9//3 7//3 5//3
f 11//1 10//1 7//1 8//1
f 9//3 22//3 8//3 7//3
f 14//2 2//2 10//2 12//2
f 12//2 10//2 11//2 13//2
f 12//1 13//1 22//1 9//1
f 14//4 12//4 15//4
f 15//1 12//1 9//1 16//1
f 14//1 15//1 16//1 17//1
f 17//5 16//5 9//5
f 5//3 19//3 18//3 17//3
f 20//1 14//1 17//1 18//1
f 21//1 20//1 18//1 19//1
f 2//2 14//2 20//2 21//2
f 2//1 21//1 19//1 5//1
f 13//1 11//1 8//1 22//1
