# Blender v3.4.0 OBJ File: 'apple_tree11_tree-gen.blend'
# www.blender.org
o Leaves.157_leaves.157
v 0.120224 -0.057834 2.694295
v 0.132998 -0.057497 2.702151
v 0.120046 -0.059282 2.694647
v 0.120224 -0.057834 2.694295
v 0.132998 -0.057497 2.702151
v 0.120046 -0.059282 2.694647
v 0.132820 -0.058944 2.702503
v 0.143010 -0.079591 2.715462
v 0.212374 -0.084970 2.760431
v 0.132820 -0.058944 2.702503
v 0.143010 -0.079591 2.715462
v 0.212374 -0.084970 2.760431
v 0.247871 -0.055181 2.773035
v 0.173162 -0.093219 2.738622
v 0.219500 -0.027081 2.746356
v 0.182071 -0.020858 2.721028
v 0.219500 -0.027081 2.746356
v 0.247871 -0.055181 2.773035
v 0.182071 -0.020858 2.721028
v 0.148355 -0.036174 2.704906
v 0.148355 -0.036174 2.704906
v 0.173162 -0.093219 2.738622
vn 0.0000 0.0000 1.0000
vn -0.5106 0.2619 0.8190
vn 0.5106 -0.2619 -0.8189
vn 0.5106 -0.2620 -0.8189
vn -0.5106 0.2620 0.8189
s off
mtllib leafwood.mtl
usemtl Leaves
f 1//1 2//1 5//1 4//1
f 1//2 3//2 10//2 2//2
f 3//1 1//1 4//1 6//1
f 4//3 5//3 7//3 6//3
f 10//1 3//1 6//1 7//1
f 11//1 10//1 7//1 8//1
f 9//4 22//4 8//4 7//4
f 17//4 9//4 7//4 5//4
f 12//5 10//5 11//5 14//5
f 15//5 2//5 10//5 12//5
f 13//1 12//1 9//1 18//1
f 15//5 12//5 13//5
f 12//1 14//1 22//1 9//1
f 15//1 13//1 18//1 17//1
f 16//1 15//1 17//1 19//1
f 2//5 15//5 16//5 21//5
f 17//4 18//4 9//4
f 5//4 20//4 19//4 17//4
f 21//1 16//1 19//1 20//1
f 2//1 21//1 20//1 5//1
f 14//1 11//1 8//1 22//1
