# Blender v3.4.0 OBJ File: 'apple_tree11_tree-gen.blend'
# www.blender.org
o Leaves.004_leaves.004
v 0.077791 -0.410179 1.119929
v 0.078029 -0.424792 1.123305
v 0.077454 -0.410513 1.118506
v 0.077791 -0.410179 1.119929
v 0.078029 -0.424792 1.123305
v 0.077454 -0.410513 1.118506
v 0.077691 -0.425126 1.121882
v 0.072655 -0.526629 1.116078
v 0.073037 -0.444585 1.104626
v 0.077691 -0.425126 1.121882
v 0.072655 -0.526629 1.116078
v 0.073037 -0.444585 1.104626
v 0.070256 -0.484460 1.098837
v 0.070256 -0.484460 1.098837
v 0.086150 -0.513262 1.172993
v 0.079996 -0.556479 1.152975
v 0.079996 -0.556479 1.152975
v 0.086150 -0.513262 1.172993
v 0.087125 -0.467751 1.169980
v 0.083158 -0.434560 1.147312
v 0.087125 -0.467751 1.169980
v 0.083158 -0.434560 1.147312
vn 0.0000 0.0000 1.0000
vn -0.9742 0.0356 0.2226
vn 0.9742 -0.0356 -0.2227
vn 0.9742 -0.0356 -0.2226
s off
mtllib leafwood.mtl
usemtl Leaves
f 1//1 2//1 5//1 4//1
f 1//2 3//2 10//2 2//2
f 3//1 1//1 4//1 6//1
f 4//3 5//3 7//3 6//3
f 10//1 3//1 6//1 7//1
f 18//4 8//4 7//4 5//4
f 8//4 14//4 9//4 7//4
f 12//1 10//1 7//1 9//1
f 15//2 2//2 10//2 11//2
f 11//2 10//2 12//2 13//2
f 13//1 12//1 9//1 14//1
f 11//1 13//1 14//1 8//1
f 15//2 11//2 16//2
f 16//1 11//1 8//1 17//1
f 15//1 16//1 17//1 18//1
f 18//4 17//4 8//4
f 21//1 15//1 18//1 19//1
f 5//4 20//4 19//4 18//4
f 22//1 21//1 19//1 20//1
f 2//2 15//2 21//2 22//2
f 2//1 22//1 20//1 5//1
