# Blender v3.4.0 OBJ File: 'apple_tree11_tree-gen.blend'
# www.blender.org
o Leaves.005_leaves.005
v 0.072182 0.125671 1.009941
v 0.061400 0.125215 1.020359
v 0.071678 0.124382 1.009363
v 0.072182 0.125671 1.009941
v 0.061400 0.125215 1.020359
v 0.071678 0.124382 1.009363
v 0.060896 0.123925 1.019781
v 0.042811 0.104773 1.021822
v -0.019009 0.095816 1.076233
v 0.060896 0.123925 1.019781
v 0.042811 0.104773 1.021822
v -0.019009 0.095816 1.076233
v 0.001138 0.147391 1.099344
v -0.035891 0.120462 1.113834
v 0.010819 0.090738 1.042090
v 0.010819 0.090738 1.042090
v -0.035891 0.120462 1.113834
v 0.001138 0.147391 1.099344
v 0.036003 0.155207 1.070978
v 0.057921 0.143454 1.039155
v 0.036003 0.155207 1.070978
v 0.057921 0.143454 1.039155
vn 0.0000 0.0000 1.0000
vn -0.6087 0.5101 -0.6076
vn 0.6087 -0.5101 0.6076
vn 0.6087 -0.5101 0.6077
vn -0.6087 0.5101 -0.6077
s off
mtllib leafwood.mtl
usemtl Leaves
f 1//1 2//1 5//1 4//1
f 1//2 3//2 10//2 2//2
f 3//1 1//1 4//1 6//1
f 4//3 5//3 7//3 6//3
f 10//1 3//1 6//1 7//1
f 11//1 10//1 7//1 8//1
f 9//4 16//4 8//4 7//4
f 18//4 9//4 7//4 5//4
f 12//5 10//5 11//5 15//5
f 13//5 2//5 10//5 12//5
f 13//5 12//5 14//5
f 14//1 12//1 9//1 17//1
f 12//1 15//1 16//1 9//1
f 15//1 11//1 8//1 16//1
f 13//1 14//1 17//1 18//1
f 18//4 17//4 9//4
f 5//4 20//4 19//4 18//4
f 21//1 13//1 18//1 19//1
f 22//1 21//1 19//1 20//1
f 2//5 13//5 21//5 22//5
f 2//1 22//1 20//1 5//1
