# Blender v3.4.0 OBJ File: 'apple_tree11_tree-gen.blend'
# www.blender.org
o Leaves.131_leaves.131
v -0.282564 0.138002 2.355955
v -0.297104 0.137744 2.359632
v -0.282902 0.138696 2.354669
v -0.282564 0.138002 2.355955
v -0.297104 0.137744 2.359632
v -0.282902 0.138696 2.354669
v -0.297442 0.138438 2.358346
v -0.398535 0.150292 2.357170
v -0.316878 0.148242 2.343373
v -0.297442 0.138438 2.358346
v -0.398535 0.150292 2.357170
v -0.316878 0.148242 2.343373
v -0.356604 0.154536 2.339705
v -0.356604 0.154536 2.339705
v -0.385029 0.122535 2.408620
v -0.428132 0.135769 2.392090
v -0.428132 0.135769 2.392090
v -0.385029 0.122535 2.408620
v -0.339721 0.119840 2.404018
v -0.306748 0.127424 2.381961
v -0.339721 0.119840 2.404018
v -0.306748 0.127424 2.381961
vn 0.0000 0.0000 1.0000
vn 0.0987 0.8864 0.4523
vn -0.0987 -0.8864 -0.4523
s off
mtllib leafwood.mtl
usemtl Leaves
f 1//1 2//1 5//1 4//1
f 1//2 3//2 10//2 2//2
f 3//1 1//1 4//1 6//1
f 4//3 5//3 7//3 6//3
f 10//1 3//1 6//1 7//1
f 18//3 8//3 7//3 5//3
f 8//3 14//3 9//3 7//3
f 12//1 10//1 7//1 9//1
f 15//2 2//2 10//2 11//2
f 11//2 10//2 12//2 13//2
f 13//1 12//1 9//1 14//1
f 11//1 13//1 14//1 8//1
f 15//2 11//2 16//2
f 16//1 11//1 8//1 17//1
f 15//1 16//1 17//1 18//1
f 18//3 17//3 8//3
f 5//3 20//3 19//3 18//3
f 21//1 15//1 18//1 19//1
f 22//1 21//1 19//1 20//1
f 2//2 15//2 21//2 22//2
f 2//1 22//1 20//1 5//1
