# Blender v3.4.0 OBJ File: 'apple_tree11_tree-gen.blend'
# www.blender.org
o Leaves.050_leaves.050
v -0.456587 0.009942 1.429953
v -0.462203 0.020747 1.438712
v -0.457769 0.010070 1.429038
v -0.456587 0.009942 1.429953
v -0.462203 0.020747 1.438712
v -0.457769 0.010070 1.429038
v -0.463384 0.020875 1.437797
v -0.486135 0.033529 1.433289
v -0.522928 0.093594 1.476890
v -0.463384 0.020875 1.437797
v -0.486135 0.033529 1.433289
v -0.522928 0.093594 1.476890
v -0.513330 0.118055 1.517087
v -0.511991 0.061818 1.446038
v -0.475657 0.088491 1.513488
v -0.452903 0.055439 1.491786
v -0.475657 0.088491 1.513488
v -0.513330 0.118055 1.517087
v -0.452903 0.055439 1.491786
v -0.450682 0.029702 1.460738
v -0.450682 0.029702 1.460738
v -0.511991 0.061818 1.446038
vn 0.0000 0.0000 1.0000
vn 0.4890 0.6884 -0.5357
vn -0.4890 -0.6884 0.5357
vn 0.4891 0.6884 -0.5357
vn -0.4891 -0.6884 0.5357
s off
mtllib leafwood.mtl
usemtl Leaves
f 1//1 2//1 5//1 4//1
f 1//2 3//2 10//2 2//2
f 3//1 1//1 4//1 6//1
f 4//3 5//3 7//3 6//3
f 10//1 3//1 6//1 7//1
f 17//3 9//3 7//3 5//3
f 11//1 10//1 7//1 8//1
f 9//3 22//3 8//3 7//3
f 15//2 2//2 10//2 12//2
f 12//2 10//2 11//2 14//2
f 13//1 12//1 9//1 18//1
f 15//2 12//2 13//2
f 12//1 14//1 22//1 9//1
f 2//4 15//4 16//4 21//4
f 15//1 13//1 18//1 17//1
f 16//1 15//1 17//1 19//1
f 5//5 20//5 19//5 17//5
f 17//3 18//3 9//3
f 21//1 16//1 19//1 20//1
f 2//1 21//1 20//1 5//1
f 14//1 11//1 8//1 22//1
