# Blender v3.4.0 OBJ File: 'apple_tree11_tree-gen.blend'
# www.blender.org
o Leaves.170_leaves.170
v 0.079437 -0.337793 2.805105
v 0.077205 -0.330671 2.818116
v 0.080557 -0.336849 2.804780
v 0.079437 -0.337793 2.805105
v 0.077205 -0.330671 2.818116
v 0.080557 -0.336849 2.804780
v 0.078325 -0.329728 2.817792
v 0.092331 -0.308922 2.826100
v 0.085654 -0.265036 2.896042
v 0.078325 -0.329728 2.817792
v 0.092331 -0.308922 2.826100
v 0.085654 -0.265036 2.896042
v 0.040859 -0.302786 2.909018
v 0.097950 -0.281681 2.855385
v 0.057676 -0.266107 2.935060
v 0.057676 -0.266107 2.935060
v 0.040859 -0.302786 2.909018
v 0.041956 -0.328868 2.871605
v 0.058735 -0.337234 2.835832
v 0.041956 -0.328868 2.871605
v 0.058735 -0.337234 2.835832
v 0.097950 -0.281681 2.855385
vn 0.0000 0.0000 1.0000
vn 0.6485 -0.6154 0.4480
vn -0.6485 0.6154 -0.4480
vn -0.6484 0.6154 -0.4481
vn 0.6484 -0.6154 0.4481
s off
mtllib leafwood.mtl
usemtl Leaves
f 1//1 2//1 5//1 4//1
f 1//2 3//2 10//2 2//2
f 3//1 1//1 4//1 6//1
f 4//3 5//3 7//3 6//3
f 10//1 3//1 6//1 7//1
f 17//4 9//4 7//4 5//4
f 11//1 10//1 7//1 8//1
f 9//4 22//4 8//4 7//4
f 13//5 2//5 10//5 12//5
f 12//5 10//5 11//5 14//5
f 13//5 12//5 15//5
f 12//1 14//1 22//1 9//1
f 15//1 12//1 9//1 16//1
f 13//1 15//1 16//1 17//1
f 17//4 16//4 9//4
f 5//4 19//4 18//4 17//4
f 20//1 13//1 17//1 18//1
f 21//1 20//1 18//1 19//1
f 2//5 13//5 20//5 21//5
f 2//1 21//1 19//1 5//1
f 14//1 11//1 8//1 22//1
