# Blender v3.4.0 OBJ File: 'apple_tree11_tree-gen.blend'
# www.blender.org
o Leaves.108_leaves.108
v -0.067626 0.125200 2.063872
v -0.082410 0.123395 2.062091
v -0.067626 0.126256 2.062806
v -0.067626 0.125200 2.063872
v -0.082410 0.123395 2.062091
v -0.067626 0.126256 2.062806
v -0.082411 0.124451 2.061026
v -0.097205 0.137961 2.043802
v -0.178522 0.133313 2.028685
v -0.082411 0.124451 2.061026
v -0.097205 0.137961 2.043802
v -0.178522 0.133313 2.028685
v -0.178493 0.091063 2.071287
v -0.215468 0.107675 2.045536
v -0.134173 0.144011 2.028701
v -0.134173 0.144011 2.028701
v -0.215468 0.107675 2.045536
v -0.178493 0.091063 2.071287
v -0.134137 0.091198 2.081954
v -0.097183 0.106274 2.075754
v -0.134137 0.091198 2.081954
v -0.097183 0.106274 2.075754
vn 0.0000 0.0000 1.0000
vn -0.1690 0.6999 0.6940
vn 0.1690 -0.6999 -0.6940
vn 0.1690 -0.6998 -0.6941
vn -0.1690 0.6998 0.6941
s off
mtllib leafwood.mtl
usemtl Leaves
f 1//1 2//1 5//1 4//1
f 1//2 3//2 10//2 2//2
f 3//1 1//1 4//1 6//1
f 4//3 5//3 7//3 6//3
f 10//1 3//1 6//1 7//1
f 18//4 9//4 7//4 5//4
f 11//1 10//1 7//1 8//1
f 9//4 16//4 8//4 7//4
f 13//5 2//5 10//5 12//5
f 12//5 10//5 11//5 15//5
f 13//5 12//5 14//5
f 14//1 12//1 9//1 17//1
f 12//1 15//1 16//1 9//1
f 15//1 11//1 8//1 16//1
f 13//1 14//1 17//1 18//1
f 18//4 17//4 9//4
f 5//4 20//4 19//4 18//4
f 21//1 13//1 18//1 19//1
f 22//1 21//1 19//1 20//1
f 2//5 13//5 21//5 22//5
f 2//1 22//1 20//1 5//1
