# Blender v3.4.0 OBJ File: 'apple_tree11_tree-gen.blend'
# www.blender.org
o Leaves.100_leaves.100
v -0.229718 -0.002352 2.047068
v -0.215951 0.000801 2.052119
v -0.229217 -0.003652 2.046514
v -0.229718 -0.002352 2.047068
v -0.215951 0.000801 2.052119
v -0.229217 -0.003652 2.046514
v -0.215449 -0.000500 2.051565
v -0.194415 -0.016207 2.048579
v -0.116187 -0.005373 2.073587
v -0.215449 -0.000500 2.051565
v -0.194415 -0.016207 2.048579
v -0.116187 -0.005373 2.073587
v -0.136232 0.046654 2.095756
v -0.091790 0.028521 2.097299
v -0.154985 -0.021333 2.055664
v -0.154985 -0.021333 2.055664
v -0.091790 0.028521 2.097299
v -0.136232 0.046654 2.095756
v -0.180041 0.043700 2.083375
v -0.209449 0.022813 2.065206
v -0.180041 0.043700 2.083375
v -0.209449 0.022813 2.065206
vn 0.0000 0.0000 1.0000
vn -0.2144 -0.4516 0.8661
vn 0.2144 0.4516 -0.8661
vn 0.2143 0.4516 -0.8661
vn -0.2143 -0.4516 0.8661
s off
mtllib leafwood.mtl
usemtl Leaves
f 1//1 2//1 5//1 4//1
f 1//2 3//2 10//2 2//2
f 3//1 1//1 4//1 6//1
f 4//3 5//3 7//3 6//3
f 10//1 3//1 6//1 7//1
f 18//4 9//4 7//4 5//4
f 11//1 10//1 7//1 8//1
f 9//4 16//4 8//4 7//4
f 13//5 2//5 10//5 12//5
f 12//5 10//5 11//5 15//5
f 13//5 12//5 14//5
f 14//1 12//1 9//1 17//1
f 12//1 15//1 16//1 9//1
f 15//1 11//1 8//1 16//1
f 13//1 14//1 17//1 18//1
f 18//4 17//4 9//4
f 5//4 20//4 19//4 18//4
f 21//1 13//1 18//1 19//1
f 22//1 21//1 19//1 20//1
f 2//5 13//5 21//5 22//5
f 2//1 22//1 20//1 5//1
