# Blender v3.4.0 OBJ File: 'apple_tree11_tree-gen.blend'
# www.blender.org
o Leaves.097_leaves.097
v 0.271126 0.299588 1.999923
v 0.260566 0.303477 1.990006
v 0.271596 0.301012 1.999982
v 0.271126 0.299588 1.999923
v 0.260566 0.303477 1.990006
v 0.271596 0.301012 1.999982
v 0.261035 0.304901 1.990065
v 0.201546 0.357938 1.926740
v 0.257283 0.329430 1.980992
v 0.261035 0.304901 1.990065
v 0.201546 0.357938 1.926740
v 0.257283 0.329430 1.980992
v 0.235576 0.353387 1.956782
v 0.235576 0.353387 1.956782
v 0.165754 0.339192 1.900783
v 0.182766 0.301000 1.924410
v 0.212100 0.282216 1.953870
v 0.182766 0.301000 1.924410
v 0.212100 0.282216 1.953870
v 0.165754 0.339192 1.900783
v 0.243197 0.286727 1.979245
v 0.243197 0.286727 1.979245
vn 0.0000 0.0000 1.0000
vn -0.6375 0.1796 0.7492
vn 0.6375 -0.1796 -0.7492
vn 0.6375 -0.1796 -0.7493
vn -0.6375 0.1796 0.7493
vn -0.6374 0.1796 0.7493
vn 0.6374 -0.1796 -0.7493
s off
mtllib leafwood.mtl
usemtl Leaves
f 1//1 2//1 5//1 4//1
f 1//2 3//2 10//2 2//2
f 3//1 1//1 4//1 6//1
f 4//3 5//3 7//3 6//3
f 10//1 3//1 6//1 7//1
f 18//4 8//4 7//4 5//4
f 8//4 14//4 9//4 7//4
f 12//1 10//1 7//1 9//1
f 16//5 2//5 10//5 11//5
f 11//5 10//5 12//5 13//5
f 13//1 12//1 9//1 14//1
f 11//1 13//1 14//1 8//1
f 15//1 11//1 8//1 20//1
f 16//6 11//6 15//6
f 2//5 16//5 17//5 22//5
f 17//1 16//1 18//1 19//1
f 16//1 15//1 20//1 18//1
f 5//4 21//4 19//4 18//4
f 18//7 20//7 8//7
f 22//1 17//1 19//1 21//1
f 2//1 22//1 21//1 5//1
