# Blender v3.4.0 OBJ File: 'apple_tree11_tree-gen.blend'
# www.blender.org
o Leaves.077_leaves.077
v 0.436972 -0.054878 1.692280
v 0.450839 -0.058366 1.696812
v 0.437274 -0.055439 1.690922
v 0.436972 -0.054878 1.692280
v 0.450839 -0.058366 1.696812
v 0.437274 -0.055439 1.690922
v 0.451141 -0.058927 1.695454
v 0.547178 -0.092539 1.698437
v 0.469396 -0.070551 1.680299
v 0.451141 -0.058927 1.695454
v 0.547178 -0.092539 1.698437
v 0.469396 -0.070551 1.680299
v 0.507090 -0.084882 1.678052
v 0.507090 -0.084882 1.678052
v 0.535073 -0.070094 1.752748
v 0.575793 -0.090036 1.736923
v 0.575793 -0.090036 1.736923
v 0.535073 -0.070094 1.752748
v 0.491959 -0.056825 1.745940
v 0.460318 -0.053717 1.721032
v 0.491959 -0.056825 1.745940
v 0.460318 -0.053717 1.721032
vn 0.0000 0.0000 1.0000
vn -0.3235 -0.8978 0.2989
vn 0.3235 0.8978 -0.2989
s off
mtllib leafwood.mtl
usemtl Leaves
f 1//1 2//1 5//1 4//1
f 1//2 3//2 10//2 2//2
f 3//1 1//1 4//1 6//1
f 4//3 5//3 7//3 6//3
f 10//1 3//1 6//1 7//1
f 18//3 8//3 7//3 5//3
f 8//3 14//3 9//3 7//3
f 12//1 10//1 7//1 9//1
f 15//2 2//2 10//2 11//2
f 11//2 10//2 12//2 13//2
f 13//1 12//1 9//1 14//1
f 11//1 13//1 14//1 8//1
f 15//2 11//2 16//2
f 16//1 11//1 8//1 17//1
f 15//1 16//1 17//1 18//1
f 18//3 17//3 8//3
f 21//1 15//1 18//1 19//1
f 5//3 20//3 19//3 18//3
f 22//1 21//1 19//1 20//1
f 2//2 15//2 21//2 22//2
f 2//1 22//1 20//1 5//1
