# Blender v3.4.0 OBJ File: 'apple_tree11_tree-gen.blend'
# www.blender.org
o Leaves.072_leaves.072
v -0.247999 -0.369407 1.660293
v -0.253575 -0.381692 1.666849
v -0.248233 -0.370020 1.658944
v -0.247999 -0.369407 1.660293
v -0.253575 -0.381692 1.666849
v -0.248233 -0.370020 1.658944
v -0.253808 -0.382305 1.665501
v -0.262776 -0.403488 1.652503
v -0.294612 -0.474123 1.681822
v -0.253808 -0.382305 1.665501
v -0.262776 -0.403488 1.652503
v -0.294612 -0.474123 1.681822
v -0.279054 -0.440336 1.655409
v -0.303874 -0.492563 1.725186
v -0.285256 -0.449578 1.735766
v -0.267359 -0.409655 1.722839
v -0.285256 -0.449578 1.735766
v -0.267359 -0.409655 1.722839
v -0.303874 -0.492563 1.725186
v -0.255759 -0.385079 1.692961
v -0.255759 -0.385079 1.692961
v -0.279054 -0.440336 1.655409
vn 0.0000 0.0000 1.0000
vn -0.9152 0.4023 -0.0244
vn 0.9152 -0.4023 0.0244
vn 0.9152 -0.4024 0.0244
vn -0.9152 0.4024 -0.0244
s off
mtllib leafwood.mtl
usemtl Leaves
f 1//1 2//1 5//1 4//1
f 1//2 3//2 10//2 2//2
f 3//1 1//1 4//1 6//1
f 4//3 5//3 7//3 6//3
f 10//1 3//1 6//1 7//1
f 11//1 10//1 7//1 8//1
f 9//4 22//4 8//4 7//4
f 17//4 9//4 7//4 5//4
f 12//5 10//5 11//5 13//5
f 15//5 2//5 10//5 12//5
f 12//1 13//1 22//1 9//1
f 14//1 12//1 9//1 19//1
f 15//5 12//5 14//5
f 16//1 15//1 17//1 18//1
f 2//5 15//5 16//5 21//5
f 15//1 14//1 19//1 17//1
f 5//4 20//4 18//4 17//4
f 17//4 19//4 9//4
f 21//1 16//1 18//1 20//1
f 2//1 21//1 20//1 5//1
f 13//1 11//1 8//1 22//1
