# Blender v3.4.0 OBJ File: 'apple_tree11_tree-gen.blend'
# www.blender.org
o Leaves_leaves
v 0.043215 -0.135819 0.970226
v 0.052957 -0.146313 0.965756
v 0.079193 -0.144472 0.968281
v 0.114923 -0.162200 0.961930
v 0.138463 -0.197933 0.946111
v 0.140069 -0.241179 0.925291
v 0.092964 -0.231958 0.926818
v 0.058050 -0.204730 0.937815
v 0.045069 -0.169991 0.953811
v 0.051820 -0.147163 0.965274
v 0.042077 -0.136670 0.969743
v 0.043215 -0.135819 0.970226
v 0.052957 -0.146313 0.965756
v 0.079193 -0.144472 0.968281
v 0.114923 -0.162200 0.961930
v 0.138463 -0.197933 0.946111
v 0.140069 -0.241179 0.925291
v 0.092964 -0.231958 0.926818
v 0.058050 -0.204730 0.937815
v 0.045069 -0.169991 0.953811
v 0.051820 -0.147163 0.965274
v 0.042077 -0.136670 0.969743
vn -0.0559 -0.4348 0.8988
vn -0.0560 -0.4348 0.8988
vn 0.0560 0.4348 -0.8988
vn 0.0000 0.0000 1.0000
s off
mtllib leafwood.mtl
usemtl Leaves
f 1//1 11//1 10//1 2//1
f 2//2 5//2 4//2 3//2
f 5//2 7//2 6//2
f 7//2 10//2 9//2 8//2
f 5//2 2//2 10//2 7//2
f 12//3 13//3 21//3 22//3
f 13//3 14//3 15//3 16//3
f 16//3 17//3 18//3
f 18//3 19//3 20//3 21//3
f 16//3 18//3 21//3 13//3
f 6//4 7//4 18//4 17//4
f 7//4 8//4 19//4 18//4
f 8//4 9//4 20//4 19//4
f 9//4 10//4 21//4 20//4
f 1//4 2//4 13//4 12//4
f 11//4 1//4 12//4 22//4
f 2//4 3//4 14//4 13//4
f 3//4 4//4 15//4 14//4
f 4//4 5//4 16//4 15//4
f 10//4 11//4 22//4 21//4
f 5//4 6//4 17//4 16//4
