# Blender v3.4.0 OBJ File: 'apple_tree11_tree-gen.blend'
# www.blender.org
o Leaves.140_leaves.140
v 0.122526 0.139578 2.463039
v 0.123015 0.146273 2.476453
v 0.121425 0.140505 2.462616
v 0.122526 0.139578 2.463039
v 0.123015 0.146273 2.476453
v 0.121425 0.140505 2.462616
v 0.121915 0.147201 2.476030
v 0.106448 0.167345 2.483312
v 0.103638 0.208809 2.554974
v 0.121915 0.147201 2.476030
v 0.106448 0.167345 2.483312
v 0.103638 0.208809 2.554974
v 0.096667 0.193359 2.512619
v 0.147656 0.171710 2.571887
v 0.126871 0.206999 2.596964
v 0.126871 0.206999 2.596964
v 0.147656 0.171710 2.571887
v 0.151690 0.146985 2.533760
v 0.139461 0.139521 2.495997
v 0.151690 0.146985 2.533760
v 0.139461 0.139521 2.495997
v 0.096667 0.193359 2.512619
vn 0.0000 0.0000 1.0000
vn 0.6788 0.6468 -0.3476
vn -0.6788 -0.6468 0.3476
vn -0.6788 -0.6469 0.3477
vn 0.6788 0.6469 -0.3477
s off
mtllib leafwood.mtl
usemtl Leaves
f 1//1 2//1 5//1 4//1
f 1//2 3//2 10//2 2//2
f 3//1 1//1 4//1 6//1
f 4//3 5//3 7//3 6//3
f 10//1 3//1 6//1 7//1
f 17//4 9//4 7//4 5//4
f 11//1 10//1 7//1 8//1
f 9//4 22//4 8//4 7//4
f 14//5 2//5 10//5 12//5
f 12//5 10//5 11//5 13//5
f 12//1 13//1 22//1 9//1
f 14//5 12//5 15//5
f 15//1 12//1 9//1 16//1
f 14//1 15//1 16//1 17//1
f 17//4 16//4 9//4
f 20//1 14//1 17//1 18//1
f 5//4 19//4 18//4 17//4
f 21//1 20//1 18//1 19//1
f 2//5 14//5 20//5 21//5
f 2//1 21//1 19//1 5//1
f 13//1 11//1 8//1 22//1
