# Blender v3.4.0 OBJ File: 'apple_tree11_tree-gen.blend'
# www.blender.org
o Leaves.125_leaves.125
v 0.110221 0.070672 2.246633
v 0.122931 0.077228 2.242110
v 0.110260 0.069770 2.245435
v 0.110221 0.070672 2.246633
v 0.122931 0.077228 2.242110
v 0.110260 0.069770 2.245435
v 0.122970 0.076326 2.240912
v 0.206350 0.101354 2.188155
v 0.136247 0.069803 2.219020
v 0.122970 0.076326 2.240912
v 0.206350 0.101354 2.188155
v 0.136247 0.069803 2.219020
v 0.168414 0.077174 2.195735
v 0.168414 0.077174 2.195735
v 0.237346 0.135785 2.200806
v 0.204788 0.137434 2.236070
v 0.166462 0.122275 2.255628
v 0.204788 0.137434 2.236070
v 0.237346 0.135785 2.200806
v 0.166462 0.122275 2.255628
v 0.135076 0.096864 2.254956
v 0.135076 0.096864 2.254956
vn 0.0000 0.0000 1.0000
vn 0.5304 -0.6688 0.5209
vn -0.5304 0.6688 -0.5209
s off
mtllib leafwood.mtl
usemtl Leaves
f 1//1 2//1 5//1 4//1
f 1//2 3//2 10//2 2//2
f 3//1 1//1 4//1 6//1
f 4//3 5//3 7//3 6//3
f 10//1 3//1 6//1 7//1
f 18//3 8//3 7//3 5//3
f 8//3 14//3 9//3 7//3
f 12//1 10//1 7//1 9//1
f 16//2 2//2 10//2 11//2
f 11//2 10//2 12//2 13//2
f 13//1 12//1 9//1 14//1
f 11//1 13//1 14//1 8//1
f 15//1 11//1 8//1 19//1
f 16//2 11//2 15//2
f 2//2 16//2 17//2 22//2
f 16//1 15//1 19//1 18//1
f 17//1 16//1 18//1 20//1
f 5//3 21//3 20//3 18//3
f 18//3 19//3 8//3
f 22//1 17//1 20//1 21//1
f 2//1 22//1 21//1 5//1
