# Blender v3.4.0 OBJ File: 'apple_tree11_tree-gen.blend'
# www.blender.org
o Leaves.147_leaves.147
v -0.149721 -0.026101 2.441311
v -0.164511 -0.026344 2.438819
v -0.149480 -0.025834 2.439855
v -0.149721 -0.026101 2.441311
v -0.164511 -0.026344 2.438819
v -0.149480 -0.025834 2.439855
v -0.164270 -0.026077 2.437363
v -0.255703 -0.022448 2.392769
v -0.175565 -0.022445 2.413756
v -0.164270 -0.026077 2.437363
v -0.255703 -0.022448 2.392769
v -0.175565 -0.022445 2.413756
v -0.210130 -0.020381 2.392964
v -0.210130 -0.020381 2.392964
v -0.297496 -0.028403 2.415663
v -0.265341 -0.033140 2.451017
v -0.222178 -0.033746 2.465774
v -0.265341 -0.033140 2.451017
v -0.222178 -0.033746 2.465774
v -0.297496 -0.028403 2.415663
v -0.182794 -0.030464 2.457442
v -0.182794 -0.030464 2.457442
vn 0.0000 0.0000 1.0000
vn -0.0454 0.9839 0.1731
vn 0.0454 -0.9839 -0.1731
s off
mtllib leafwood.mtl
usemtl Leaves
f 1//1 2//1 5//1 4//1
f 1//2 3//2 10//2 2//2
f 3//1 1//1 4//1 6//1
f 4//3 5//3 7//3 6//3
f 10//1 3//1 6//1 7//1
f 18//3 8//3 7//3 5//3
f 8//3 14//3 9//3 7//3
f 12//1 10//1 7//1 9//1
f 16//2 2//2 10//2 11//2
f 11//2 10//2 12//2 13//2
f 13//1 12//1 9//1 14//1
f 11//1 13//1 14//1 8//1
f 15//1 11//1 8//1 20//1
f 16//2 11//2 15//2
f 17//1 16//1 18//1 19//1
f 2//2 16//2 17//2 22//2
f 16//1 15//1 20//1 18//1
f 5//3 21//3 19//3 18//3
f 18//3 20//3 8//3
f 22//1 17//1 19//1 21//1
f 2//1 22//1 21//1 5//1
