# Blender v3.4.0 OBJ File: 'apple_tree15_tree-gen.blend'
# www.blender.org
o Leaves.073_leaves.073
v -0.052191 0.211887 2.249584
v -0.050183 0.199438 2.252088
v -0.050940 0.212039 2.249333
v -0.048932 0.199590 2.251837
v -0.028773 0.189338 2.250709
v -0.011470 0.121627 2.263231
v -0.061542 0.115567 2.273254
v -0.011235 0.159731 2.254464
v -0.031487 0.087475 2.274504
v -0.073825 0.152156 2.266994
v -0.066327 0.184793 2.258226
vn 0.1658 0.2201 0.9613
s off
mtllib leafwood.mtl
usemtl Leaves
f 1//1 2//1 4//1 3//1
f 6//1 8//1 5//1 4//1
f 7//1 6//1 4//1 2//1
f 7//1 9//1 6//1
f 2//1 11//1 10//1 7//1
