# Blender v3.4.0 OBJ File: 'apple_tree15_tree-gen.blend'
# www.blender.org
o Leaves.010_leaves.010
v -0.321177 -0.007653 0.832810
v -0.310520 -0.002101 0.828240
v -0.321715 -0.006496 0.832962
v -0.311058 -0.000943 0.828392
v -0.308200 0.021395 0.826029
v -0.252275 0.057720 0.801659
v -0.230759 0.011412 0.795573
v -0.214875 0.048446 0.787192
v -0.286936 0.046853 0.816127
v -0.260041 -0.011033 0.808520
v -0.292063 -0.013336 0.821465
vn 0.3712 0.0506 0.9272
s off
mtllib leafwood.mtl
usemtl Leaves
f 1//1 2//1 4//1 3//1
f 6//1 9//1 5//1 4//1
f 7//1 6//1 4//1 2//1
f 7//1 8//1 6//1
f 2//1 11//1 10//1 7//1
