# Blender v3.4.0 OBJ File: 'apple_tree15_tree-gen.blend'
# www.blender.org
o Leaves.015_leaves.015
v 0.107102 -0.032962 0.961940
v 0.117522 -0.025438 0.961617
v 0.106395 -0.032002 0.961459
v 0.116815 -0.024479 0.961136
v 0.170742 0.043136 0.949668
v 0.116972 -0.003040 0.953846
v 0.135944 0.025364 0.948234
v 0.199053 0.004749 0.968888
v 0.210948 0.042751 0.958471
v 0.171332 -0.022619 0.972259
v 0.138205 -0.031830 0.968261
vn -0.2000 0.3168 0.9272
s off
mtllib leafwood.mtl
usemtl Leaves
f 1//1 2//1 4//1 3//1
f 8//1 5//1 4//1 2//1
f 5//1 7//1 6//1 4//1
f 8//1 9//1 5//1
f 2//1 11//1 10//1 8//1
