# Blender v3.4.0 OBJ File: 'apple_tree15_tree-gen.blend'
# www.blender.org
o Leaves.005_leaves.005
v 0.058558 0.095929 0.801236
v 0.057630 0.083354 0.803745
v 0.059824 0.095798 0.801052
v 0.058896 0.083224 0.803561
v 0.077546 -0.001048 0.816288
v 0.076321 0.068763 0.803406
v 0.086658 0.036026 0.807841
v 0.026916 0.004156 0.823638
v 0.049911 -0.029883 0.826236
v 0.023371 0.042530 0.817029
v 0.038349 0.072666 0.808919
vn 0.1596 0.1818 0.9703
s off
mtllib leafwood.mtl
usemtl Leaves
f 1//1 2//1 4//1 3//1
f 8//1 5//1 4//1 2//1
f 5//1 7//1 6//1 4//1
f 8//1 9//1 5//1
f 2//1 11//1 10//1 8//1
