# Blender v3.4.0 OBJ File: 'apple_tree15_tree-gen.blend'
# www.blender.org
o Leaves.082_leaves.082
v 0.151951 0.007932 2.431914
v 0.163453 0.003231 2.435215
v 0.152448 0.009117 2.431872
v 0.163949 0.004416 2.435172
v 0.248389 -0.003036 2.455809
v 0.182650 0.016898 2.437865
v 0.216368 0.016995 2.445697
v 0.267212 -0.038492 2.464900
v 0.228528 -0.050440 2.457488
v 0.191542 -0.042261 2.447796
v 0.167754 -0.018655 2.439124
vn -0.2247 0.1285 0.9659
vn -0.2247 0.1284 0.9659
vn -0.2248 0.1284 0.9659
s off
mtllib leafwood.mtl
usemtl Leaves
f 1//1 2//1 4//1 3//1
f 9//2 5//2 4//2 2//2
f 5//2 7//2 6//2 4//2
f 9//3 8//3 5//3
f 2//2 11//2 10//2 9//2
