# Blender v3.4.0 OBJ File: 'apple_tree15_tree-gen.blend'
# www.blender.org
o Leaves.013_leaves.013
v -0.230063 -0.153673 0.888757
v -0.217827 -0.155478 0.885249
v -0.229676 -0.152899 0.889707
v -0.217440 -0.154703 0.886200
v -0.130366 -0.151328 0.881932
v -0.199597 -0.145276 0.896473
v -0.165141 -0.142042 0.897207
v -0.145834 -0.182312 0.843916
v -0.107510 -0.171331 0.854155
v -0.184475 -0.180771 0.849687
v -0.211198 -0.168514 0.867961
vn 0.0606 -0.7857 0.6157
s off
mtllib leafwood.mtl
usemtl Leaves
f 1//1 2//1 4//1 3//1
f 8//1 5//1 4//1 2//1
f 5//1 7//1 6//1 4//1
f 8//1 9//1 5//1
f 2//1 11//1 10//1 8//1
