# Blender v3.4.0 OBJ File: 'apple_tree15_tree-gen.blend'
# www.blender.org
o Leaves.042_leaves.042
v -0.215173 -0.107692 1.616188
v -0.227630 -0.109325 1.618917
v -0.214896 -0.108793 1.616791
v -0.227353 -0.110426 1.619520
v -0.302929 -0.142511 1.649022
v -0.235800 -0.128024 1.630997
v -0.264176 -0.143117 1.643852
v -0.339600 -0.124572 1.643778
v -0.313989 -0.098468 1.624890
v -0.278002 -0.088064 1.613687
v -0.244095 -0.094992 1.612898
vn 0.1222 0.5003 0.8572
s off
mtllib leafwood.mtl
usemtl Leaves
f 1//1 2//1 4//1 3//1
f 9//1 5//1 4//1 2//1
f 5//1 7//1 6//1 4//1
f 9//1 8//1 5//1
f 2//1 11//1 10//1 9//1
