# Blender v3.4.0 OBJ File: 'apple_tree15_tree-gen.blend'
# www.blender.org
o Leaves.072_leaves.072
v -0.031330 0.113753 2.203106
v -0.036095 0.125174 2.206588
v -0.032430 0.113479 2.202499
v -0.037194 0.124901 2.205981
v -0.057902 0.132358 2.200653
v -0.089603 0.193811 2.216766
v -0.045622 0.204748 2.241066
v -0.080807 0.158178 2.203283
v -0.079523 0.227834 2.237621
v -0.025832 0.171850 2.233659
v -0.024916 0.140561 2.218879
vn -0.3622 -0.4067 0.8387
vn -0.3622 -0.4068 0.8387
s off
mtllib leafwood.mtl
usemtl Leaves
f 1//1 2//1 4//1 3//1
f 6//2 8//2 5//2 4//2
f 7//1 6//1 4//1 2//1
f 7//2 9//2 6//2
f 2//2 11//2 10//2 7//2
