# Blender v3.4.0 OBJ File: 'apple_tree15_tree-gen.blend'
# www.blender.org
o Leaves.016_leaves.016
v 0.213034 -0.060894 0.975261
v 0.214316 -0.068347 0.964865
v 0.214252 -0.061142 0.975590
v 0.215534 -0.068596 0.965194
v 0.247616 -0.121895 0.904026
v 0.234474 -0.079655 0.959561
v 0.249858 -0.100776 0.936856
v 0.198904 -0.111948 0.890886
v 0.226465 -0.135556 0.871466
v 0.188968 -0.088343 0.920431
v 0.197940 -0.072196 0.949706
vn -0.3045 -0.7915 0.5299
vn -0.3046 -0.7915 0.5299
s off
mtllib leafwood.mtl
usemtl Leaves
f 1//1 2//1 4//1 3//1
f 8//2 5//2 4//2 2//2
f 5//2 7//2 6//2 4//2
f 8//2 9//2 5//2
f 2//1 11//1 10//1 8//1
