# Blender v3.4.0 OBJ File: 'apple_tree15_tree-gen.blend'
# www.blender.org
o Leaves.028_leaves.028
v -0.126638 0.034550 1.328819
v -0.138558 0.036915 1.324622
v -0.127096 0.033643 1.329607
v -0.139015 0.036009 1.325410
v -0.225412 0.033705 1.313507
v -0.157568 0.025228 1.332645
v -0.191942 0.022075 1.330038
v -0.207113 0.069971 1.281973
v -0.246062 0.057751 1.287249
v -0.169068 0.067407 1.290620
v -0.143844 0.052427 1.308995
vn -0.1174 0.6847 0.7194
vn -0.1174 0.6847 0.7193
s off
mtllib leafwood.mtl
usemtl Leaves
f 1//1 2//1 4//1 3//1
f 8//2 5//2 4//2 2//2
f 5//2 7//2 6//2 4//2
f 8//2 9//2 5//2
f 2//2 11//2 10//2 8//2
