# Blender v3.4.0 OBJ File: 'apple_tree15_tree-gen.blend'
# www.blender.org
o Leaves.036_leaves.036
v 0.142716 -0.218500 1.341217
v 0.136048 -0.209280 1.335233
v 0.141699 -0.218752 1.341962
v 0.135031 -0.209532 1.335978
v 0.113615 -0.203969 1.340793
v 0.071855 -0.154521 1.311603
v 0.075527 -0.126427 1.281748
v 0.112540 -0.144432 1.281813
v 0.086774 -0.183442 1.333280
v 0.137629 -0.170831 1.296042
v 0.144129 -0.196403 1.318450
vn 0.3242 0.6687 0.6691
vn 0.3241 0.6687 0.6691
s off
mtllib leafwood.mtl
usemtl Leaves
f 1//1 2//1 4//1 3//1
f 6//2 9//2 5//2 4//2
f 8//2 6//2 4//2 2//2
f 8//2 7//2 6//2
f 2//2 11//2 10//2 8//2
