# Blender v3.4.0 OBJ File: 'apple_tree15_tree-gen.blend'
# www.blender.org
o Leaves.055_leaves.055
v -0.147863 0.188647 1.779480
v -0.160663 0.187448 1.779480
v -0.147743 0.187367 1.779480
v -0.160543 0.186168 1.779480
v -0.241407 0.153417 1.779480
v -0.171606 0.166410 1.779480
v -0.202407 0.150613 1.779480
v -0.275804 0.176021 1.779480
v -0.246201 0.204618 1.779480
v -0.208400 0.214613 1.779480
v -0.175201 0.204810 1.779480
vn 0.0000 0.0000 1.0000
s off
mtllib leafwood.mtl
usemtl Leaves
f 1//1 2//1 4//1 3//1
f 9//1 5//1 4//1 2//1
f 5//1 7//1 6//1 4//1
f 9//1 8//1 5//1
f 2//1 11//1 10//1 9//1
