# Blender v3.4.0 OBJ File: 'apple_tree15_tree-gen.blend'
# www.blender.org
o Leaves.064_leaves.064
v -0.308787 0.008704 2.058791
v -0.297821 0.001994 2.058765
v -0.308117 0.009798 2.058702
v -0.297152 0.003088 2.058675
v -0.212824 -0.019196 2.056758
v -0.276482 0.012241 2.057350
v -0.242375 0.006405 2.056389
v -0.239594 -0.062956 2.060342
v -0.198794 -0.057852 2.058485
v -0.275837 -0.048295 2.060869
v -0.296559 -0.020579 2.060038
vn 0.0382 0.0584 0.9976
vn 0.0381 0.0584 0.9976
s off
mtllib leafwood.mtl
usemtl Leaves
f 1//1 2//1 4//1 3//1
f 8//2 5//2 4//2 2//2
f 5//2 7//2 6//2 4//2
f 8//2 9//2 5//2
f 2//2 11//2 10//2 8//2
