# Blender v3.4.0 OBJ File: 'apple_tree15_tree-gen.blend'
# www.blender.org
o Leaves.071_leaves.071
v 0.225111 -0.105375 2.255542
v 0.237940 -0.106109 2.255134
v 0.225195 -0.104203 2.256063
v 0.238023 -0.104937 2.255656
v 0.323041 -0.086855 2.263169
v 0.252066 -0.088675 2.262806
v 0.284974 -0.078790 2.266999
v 0.353439 -0.112135 2.251722
v 0.319693 -0.133742 2.242316
v 0.280789 -0.137399 2.240933
v 0.249554 -0.123841 2.247167
vn 0.0058 -0.4067 0.9135
s off
mtllib leafwood.mtl
usemtl Leaves
f 1//1 2//1 4//1 3//1
f 9//1 5//1 4//1 2//1
f 5//1 7//1 6//1 4//1
f 9//1 8//1 5//1
f 2//1 11//1 10//1 9//1
