# Blender v3.4.0 OBJ File: 'apple_tree15_tree-gen.blend'
# www.blender.org
o Leaves.038_leaves.038
v 0.017885 0.119119 1.501743
v 0.007157 0.116133 1.495318
v 0.018219 0.117877 1.501763
v 0.007491 0.114892 1.495338
v 0.001601 0.093906 1.489200
v -0.055732 0.071277 1.453961
v -0.069079 0.120933 1.453170
v -0.089225 0.088640 1.437503
v -0.021881 0.074027 1.473335
v -0.038564 0.136097 1.472346
v -0.008408 0.131148 1.488606
vn -0.4861 -0.1169 0.8660
vn -0.4862 -0.1169 0.8660
s off
mtllib leafwood.mtl
usemtl Leaves
f 1//1 2//1 4//1 3//1
f 7//1 6//1 4//1 2//1
f 6//2 9//2 5//2 4//2
f 7//2 8//2 6//2
f 2//2 11//2 10//2 7//2
