# Blender v3.4.0 OBJ File: 'apple_tree15_tree-gen.blend'
# www.blender.org
o Leaves.033_leaves.033
v -0.334242 -0.032715 1.329693
v -0.324447 -0.024474 1.330887
v -0.335060 -0.031729 1.329592
v -0.325265 -0.023488 1.330785
v -0.277546 0.049320 1.336566
v -0.327329 -0.000939 1.330508
v -0.311020 0.029531 1.332477
v -0.236702 0.050188 1.341580
v -0.244833 0.009851 1.340625
v -0.270128 -0.019806 1.337551
v -0.302794 -0.030541 1.333552
vn -0.1219 0.0010 0.9925
vn -0.1219 0.0011 0.9925
s off
mtllib leafwood.mtl
usemtl Leaves
f 1//1 2//1 4//1 3//1
f 9//2 5//2 4//2 2//2
f 5//2 7//2 6//2 4//2
f 9//2 8//2 5//2
f 2//2 11//2 10//2 9//2
