# Blender v3.4.0 OBJ File: 'apple_tree15_tree-gen.blend'
# www.blender.org
o Leaves.070_leaves.070
v 0.185992 -0.097968 2.217497
v 0.198571 -0.098084 2.220151
v 0.185893 -0.096797 2.218017
v 0.198472 -0.096912 2.220671
v 0.209616 -0.080039 2.230862
v 0.278304 -0.074815 2.248057
v 0.311729 -0.098537 2.244295
v 0.282261 -0.121682 2.227265
v 0.240074 -0.068611 2.242695
v 0.245019 -0.127194 2.216704
v 0.212584 -0.115189 2.215268
vn -0.1918 -0.4115 0.8910
s off
mtllib leafwood.mtl
usemtl Leaves
f 1//1 2//1 4//1 3//1
f 8//1 6//1 4//1 2//1
f 6//1 9//1 5//1 4//1
f 8//1 7//1 6//1
f 2//1 11//1 10//1 8//1
