# Blender v3.4.0 OBJ File: 'apple_tree15_tree-gen.blend'
# www.blender.org
o Leaves.084_leaves.084
v 0.216934 0.038255 2.515284
v 0.211215 0.047417 2.522256
v 0.215789 0.037723 2.515043
v 0.210069 0.046885 2.522016
v 0.187742 0.048327 2.525510
v 0.150557 0.096057 2.562660
v 0.161990 0.065908 2.540542
v 0.159164 0.129610 2.584891
v 0.196370 0.117353 2.572258
v 0.219256 0.092529 2.552539
v 0.222102 0.064299 2.532708
vn 0.0916 -0.5662 0.8191
vn 0.0916 -0.5662 0.8192
s off
mtllib leafwood.mtl
usemtl Leaves
f 1//1 2//1 4//1 3//1
f 6//2 7//2 5//2 4//2
f 9//2 6//2 4//2 2//2
f 9//2 8//2 6//2
f 2//1 11//1 10//1 9//1
