# Blender v3.4.0 OBJ File: 'apple_tree15_tree-gen.blend'
# www.blender.org
o Leaves.057_leaves.057
v -0.202034 0.283602 1.776582
v -0.208883 0.294476 1.776938
v -0.203103 0.282922 1.776802
v -0.209951 0.293796 1.777158
v -0.232292 0.294809 1.780710
v -0.275301 0.351217 1.783769
v -0.232562 0.378421 1.774953
v -0.271053 0.392005 1.780251
v -0.260098 0.315193 1.783804
v -0.206674 0.349199 1.772783
v -0.200238 0.315212 1.774098
vn 0.1597 0.0683 0.9848
s off
mtllib leafwood.mtl
usemtl Leaves
f 1//1 2//1 4//1 3//1
f 7//1 6//1 4//1 2//1
f 6//1 9//1 5//1 4//1
f 7//1 8//1 6//1
f 2//1 11//1 10//1 7//1
