# Blender v3.4.0 OBJ File: 'apple_tree15_tree-gen.blend'
# www.blender.org
o Leaves.014_leaves.014
v -0.268229 -0.192358 0.904283
v -0.280909 -0.194389 0.903658
v -0.268033 -0.193623 0.904402
v -0.280712 -0.195654 0.903777
v -0.290537 -0.216027 0.904878
v -0.359288 -0.233525 0.902038
v -0.320267 -0.233754 0.904507
v -0.367161 -0.182930 0.897278
v -0.394923 -0.213307 0.898097
v -0.330108 -0.170511 0.898557
v -0.296442 -0.178080 0.901308
vn -0.0624 0.0838 0.9945
s off
mtllib leafwood.mtl
usemtl Leaves
f 1//1 2//1 4//1 3//1
f 6//1 7//1 5//1 4//1
f 8//1 6//1 4//1 2//1
f 8//1 9//1 6//1
f 2//1 11//1 10//1 8//1
