# Blender v3.4.0 OBJ File: 'apple_tree15_tree-gen.blend'
# www.blender.org
o Leaves.049_leaves.049
v 0.096486 -0.025016 1.685250
v 0.106849 -0.022419 1.692402
v 0.095856 -0.024046 1.685811
v 0.106218 -0.021449 1.692963
v 0.107442 -0.004790 1.708251
v 0.161286 0.014339 1.750393
v 0.199799 0.001433 1.757050
v 0.127046 0.011400 1.731743
v 0.186497 -0.024456 1.727947
v 0.158560 -0.037094 1.703685
v 0.126350 -0.033886 1.691417
vn -0.3315 -0.6246 0.7071
s off
mtllib leafwood.mtl
usemtl Leaves
f 1//1 2//1 4//1 3//1
f 6//1 8//1 5//1 4//1
f 9//1 6//1 4//1 2//1
f 9//1 7//1 6//1
f 2//1 11//1 10//1 9//1
