# Blender v3.4.0 OBJ File: 'apple_tree15_tree-gen.blend'
# www.blender.org
o Leaves.031_leaves.031
v -0.128801 0.029447 1.329509
v -0.127277 0.016707 1.330318
v -0.127539 0.029585 1.329301
v -0.126015 0.016845 1.330110
v -0.091517 -0.063279 1.331311
v -0.106205 0.006101 1.327902
v -0.089783 -0.024372 1.327843
v -0.141964 -0.068785 1.339635
v -0.112930 -0.097882 1.337496
v -0.152841 -0.031254 1.338248
v -0.144040 0.001972 1.334145
vn 0.1535 0.0809 0.9848
vn 0.1537 0.0809 0.9848
s off
mtllib leafwood.mtl
usemtl Leaves
f 1//1 2//1 4//1 3//1
f 8//2 5//2 4//2 2//2
f 5//2 7//2 6//2 4//2
f 8//2 9//2 5//2
f 2//2 11//2 10//2 8//2
