# Blender v3.4.0 OBJ File: 'apple_tree15_tree-gen.blend'
# www.blender.org
o Leaves.083_leaves.083
v 0.191629 0.026026 2.466195
v 0.197469 0.036753 2.462181
v 0.190784 0.026734 2.466856
v 0.196623 0.037461 2.462842
v 0.190207 0.058449 2.468420
v 0.218100 0.120985 2.449650
v 0.196355 0.092343 2.465000
v 0.249604 0.133648 2.426385
v 0.251909 0.092677 2.423191
v 0.238616 0.056959 2.431926
v 0.215564 0.037218 2.448575
vn 0.6011 -0.0284 0.7987
vn 0.6012 -0.0284 0.7986
s off
mtllib leafwood.mtl
usemtl Leaves
f 1//1 2//1 4//1 3//1
f 9//2 6//2 4//2 2//2
f 6//2 7//2 5//2 4//2
f 9//2 8//2 6//2
f 2//2 11//2 10//2 9//2
