# Blender v3.4.0 OBJ File: 'apple_tree15_tree-gen.blend'
# www.blender.org
o Leaves.085_leaves.085
v -0.140461 0.098872 2.556182
v -0.143859 0.086475 2.556385
v -0.139224 0.098532 2.556094
v -0.142623 0.086135 2.556297
v -0.140596 -0.001085 2.555911
v -0.128090 0.068802 2.555232
v -0.124219 0.034405 2.554865
v -0.190062 0.012531 2.559409
v -0.173824 -0.025270 2.558167
v -0.186050 0.051425 2.559238
v -0.165189 0.079014 2.557856
vn 0.0696 -0.0028 0.9976
vn 0.0698 -0.0028 0.9976
s off
mtllib leafwood.mtl
usemtl Leaves
f 1//1 2//1 4//1 3//1
f 8//2 5//2 4//2 2//2
f 5//2 7//2 6//2 4//2
f 8//2 9//2 5//2
f 2//2 11//2 10//2 8//2
