# Blender v3.4.0 OBJ File: 'apple_tree15_tree-gen.blend'
# www.blender.org
o Leaves.063_leaves.063
v -0.144519 0.017078 2.042905
v -0.146582 0.029728 2.041903
v -0.145777 0.016861 2.042757
v -0.147840 0.029511 2.041755
v -0.185788 0.107504 2.032354
v -0.168151 0.039015 2.038604
v -0.185892 0.068470 2.034617
v -0.165776 0.143468 2.032816
v -0.135450 0.116183 2.038285
v -0.122969 0.079318 2.042031
v -0.130397 0.045523 2.043052
vn -0.1266 0.0578 0.9903
s off
mtllib leafwood.mtl
usemtl Leaves
f 1//1 2//1 4//1 3//1
f 9//1 5//1 4//1 2//1
f 5//1 7//1 6//1 4//1
f 9//1 8//1 5//1
f 2//1 11//1 10//1 9//1
