# Blender v3.4.0 OBJ File: 'apple_tree1_sapling_1_16_4_4_correct_duration2.blend'
# www.blender.org
o leaves.128
v 0.031703 -0.016179 1.211862
v -0.017185 -0.016595 1.233719
v -0.040272 -0.073316 1.301721
v 0.032608 -0.053856 1.249911
v 0.008616 -0.072901 1.279864
v -0.041177 -0.035640 1.263672
vt 0.500000 0.000000
vt 0.250000 0.333333
vt 0.250000 0.666667
vt 0.500000 1.000000
vt 0.750000 0.666667
vt 0.750000 0.333333
vn 0.2934 0.6828 0.6691
s off
mtllib leafwood.mtl
usemtl Leaves
f 1/1/1 2/2/1 6/3/1 3/4/1
f 1/1/1 3/4/1 5/5/1 4/6/1
