# Blender v3.4.0 OBJ File: 'apple_tree1_sapling_1_16_4_4_correct_duration2.blend'
# www.blender.org
o leaves.236
v 0.209095 0.229577 2.016029
v 0.224922 0.247714 1.993323
v 0.239328 0.216446 2.013110
v 0.278185 0.237086 1.977593
v 0.247952 0.250217 1.980511
v 0.262358 0.218949 2.000299
vt 0.500000 0.000000
vt 0.500000 1.000000
vt 0.750000 0.666667
vt 0.750000 0.333333
vt 0.250000 0.333333
vt 0.250000 0.666667
vn 0.3340 0.6091 0.7193
s off
mtllib leafwood.mtl
usemtl Leaves
f 1/1/1 4/2/1 5/3/1 2/4/1
f 1/1/1 3/5/1 6/6/1 4/2/1
