# Blender v3.4.0 OBJ File: 'apple_tree1_sapling_1_16_4_4_correct_duration2.blend'
# www.blender.org
o leaves.153
v 0.131312 0.158436 1.362841
v 0.162984 0.135840 1.375327
v 0.207044 0.157138 1.425132
v 0.150128 0.180167 1.391882
v 0.175372 0.179734 1.412645
v 0.188228 0.135407 1.396091
vt 0.500000 0.000000
vt 0.250000 0.333333
vt 0.250000 0.666667
vt 0.500000 1.000000
vt 0.750000 0.666667
vt 0.750000 0.333333
vn -0.5787 -0.4273 0.6947
s off
mtllib leafwood.mtl
usemtl Leaves
f 1/1/1 2/2/1 6/3/1 3/4/1
f 1/1/1 3/4/1 5/5/1 4/6/1
