# Blender v3.4.0 OBJ File: 'apple_tree1_sapling_1_16_4_4_correct_duration2.blend'
# www.blender.org
o leaves.193
v 0.258679 -0.024835 1.593576
v 0.293791 -0.007493 1.594805
v 0.285148 -0.053707 1.594494
v 0.351050 -0.042131 1.596798
v 0.324581 -0.013259 1.595879
v 0.315938 -0.059473 1.595569
vt 0.500000 0.000000
vt 0.500000 1.000000
vt 0.750000 0.666667
vt 0.750000 0.333333
vt 0.250000 0.333333
vt 0.250000 0.666667
vn -0.0349 -0.0002 0.9994
s off
mtllib leafwood.mtl
usemtl Leaves
f 1/1/1 4/2/1 5/3/1 2/4/1
f 1/1/1 3/5/1 6/6/1 4/2/1
