# Blender v3.4.0 OBJ File: 'apple_tree1_sapling_1_16_4_4_correct_duration2.blend'
# www.blender.org
o leaves.046
v 0.157603 0.117227 0.906085
v 0.202212 0.140604 0.917292
v 0.206601 0.225080 0.942142
v 0.145660 0.165752 0.918917
v 0.161992 0.201703 0.930936
v 0.218544 0.176555 0.929311
vt 0.500000 0.000000
vt 0.250000 0.333333
vt 0.250000 0.666667
vt 0.500000 1.000000
vt 0.750000 0.666667
vt 0.750000 0.333333
vn -0.0954 -0.2764 0.9563
s off
mtllib leafwood.mtl
usemtl Leaves
f 1/1/1 2/2/1 6/3/1 3/4/1
f 1/1/1 3/4/1 5/5/1 4/6/1
