# Blender v3.4.0 OBJ File: 'apple_tree1_sapling_1_16_4_4_correct_duration2.blend'
# www.blender.org
o leaves.256
v -0.111748 -0.193425 2.226120
v -0.151690 -0.202464 2.222172
v -0.174773 -0.267960 2.211221
v -0.113822 -0.234076 2.220135
v -0.134831 -0.258921 2.215168
v -0.172698 -0.227309 2.217206
vt 0.500000 0.000000
vt 0.250000 0.333333
vt 0.250000 0.666667
vt 0.500000 1.000000
vt 0.750000 0.666667
vt 0.750000 0.333333
vn -0.0655 -0.1421 0.9877
s off
mtllib leafwood.mtl
usemtl Leaves
f 1/1/1 2/2/1 6/3/1 3/4/1
f 1/1/1 3/4/1 5/5/1 4/6/1
