# Blender v3.4.0 OBJ File: 'apple_tree1_sapling_1_16_4_4_correct_duration2.blend'
# www.blender.org
o leaves.021
v -0.391379 0.032277 0.894941
v -0.416465 0.045463 0.895530
v -0.456669 0.025871 0.876928
v -0.409819 0.014820 0.882343
v -0.431583 0.012685 0.876338
v -0.438228 0.043328 0.889526
vt 0.500000 0.000000
vt 0.250000 0.333333
vt 0.250000 0.666667
vt 0.500000 1.000000
vt 0.750000 0.666667
vt 0.750000 0.333333
vn -0.2020 -0.4238 0.8829
s off
mtllib leafwood.mtl
usemtl Leaves
f 1/1/1 2/2/1 6/3/1 3/4/1
f 1/1/1 3/4/1 5/5/1 4/6/1
