# Blender v3.4.0 OBJ File: 'apple_tree1_sapling_1_16_4_4_correct_duration2.blend'
# www.blender.org
o leaves.068
v -0.304261 0.093928 0.931473
v -0.280180 0.113095 0.902230
v -0.307754 0.157504 0.851927
v -0.330670 0.117146 0.907685
v -0.331834 0.138338 0.881170
v -0.281344 0.134287 0.875715
vt 0.500000 0.000000
vt 0.250000 0.333333
vt 0.250000 0.666667
vt 0.500000 1.000000
vt 0.750000 0.666667
vt 0.750000 0.333333
vn 0.1289 0.7774 0.6157
s off
mtllib leafwood.mtl
usemtl Leaves
f 1/1/1 2/2/1 6/3/1 3/4/1
f 1/1/1 3/4/1 5/5/1 4/6/1
