# Blender v3.4.0 OBJ File: 'apple_tree1_sapling_1_16_4_4_correct_duration2.blend'
# www.blender.org
o leaves.129
v 0.076732 -0.042576 1.228652
v 0.104796 -0.083885 1.215372
v 0.189782 -0.092780 1.237639
v 0.124035 -0.034736 1.247924
v 0.161718 -0.051471 1.250920
v 0.142479 -0.100620 1.218368
vt 0.500000 0.000000
vt 0.250000 0.333333
vt 0.250000 0.666667
vt 0.500000 1.000000
vt 0.750000 0.666667
vt 0.750000 0.333333
vn -0.2699 -0.4560 0.8480
s off
mtllib leafwood.mtl
usemtl Leaves
f 1/1/1 2/2/1 6/3/1 3/4/1
f 1/1/1 3/4/1 5/5/1 4/6/1
