# Blender v3.4.0 OBJ File: 'apple_tree1_sapling_1_16_4_4_correct_duration2.blend'
# www.blender.org
o leaves.234
v 0.115805 0.137095 1.919887
v 0.115982 0.170911 1.888934
v 0.050667 0.196553 1.854110
v 0.072203 0.142918 1.906988
v 0.050490 0.162737 1.885063
v 0.094269 0.190730 1.867009
vt 0.500000 0.000000
vt 0.250000 0.333333
vt 0.250000 0.666667
vt 0.500000 1.000000
vt 0.750000 0.666667
vt 0.750000 0.333333
vn -0.1269 0.6701 0.7314
s off
mtllib leafwood.mtl
usemtl Leaves
f 1/1/1 2/2/1 6/3/1 3/4/1
f 1/1/1 3/4/1 5/5/1 4/6/1
