# Blender v3.4.0 OBJ File: 'apple_tree1_sapling_1_16_4_4_correct_duration2.blend'
# www.blender.org
o leaves.251
v -0.031311 -0.032815 2.015775
v -0.018967 -0.090477 1.993794
v -0.088295 -0.145083 1.932342
v -0.081645 -0.049998 1.982134
v -0.100639 -0.087420 1.954323
v -0.037961 -0.127900 1.965983
vt 0.500000 0.000000
vt 0.500000 1.000000
vt 0.750000 0.666667
vt 0.750000 0.333333
vt 0.250000 0.333333
vt 0.250000 0.666667
vn -0.4109 -0.4002 0.8192
s off
mtllib leafwood.mtl
usemtl Leaves
f 1/1/1 3/2/1 6/3/1 2/4/1
f 1/1/1 4/5/1 5/6/1 3/2/1
