# Blender v3.4.0 OBJ File: 'apple_tree1_sapling_1_16_4_4_correct_duration2.blend'
# www.blender.org
o leaves.008
v 0.145349 0.147720 0.843641
v 0.185235 0.138659 0.834874
v 0.239832 0.178006 0.858969
v 0.168451 0.176972 0.862627
v 0.199946 0.187067 0.867737
v 0.216729 0.148754 0.839983
vt 0.500000 0.000000
vt 0.250000 0.333333
vt 0.250000 0.666667
vt 0.500000 1.000000
vt 0.750000 0.666667
vt 0.750000 0.333333
vn 0.0503 -0.5714 0.8192
s off
mtllib leafwood.mtl
usemtl Leaves
f 1/1/1 2/2/1 6/3/1 3/4/1
f 1/1/1 3/4/1 5/5/1 4/6/1
