# Blender v3.4.0 OBJ File: 'apple_tree1_sapling_1_16_4_4_correct_duration2.blend'
# www.blender.org
o leaves.133
v 0.181702 -0.191174 1.345168
v 0.164181 -0.225130 1.366865
v 0.203104 -0.265752 1.416593
v 0.213491 -0.206936 1.371088
v 0.220625 -0.231796 1.394896
v 0.171315 -0.249990 1.390674
vt 0.500000 0.000000
vt 0.250000 0.333333
vt 0.250000 0.666667
vt 0.500000 1.000000
vt 0.750000 0.666667
vt 0.750000 0.333333
vn -0.2903 0.6171 0.7314
s off
mtllib leafwood.mtl
usemtl Leaves
f 1/1/1 2/2/1 6/3/1 3/4/1
f 1/1/1 3/4/1 5/5/1 4/6/1
