# Blender v3.4.0 OBJ File: 'apple_tree1_sapling_1_16_4_4_correct_duration2.blend'
# www.blender.org
o leaves.070
v -0.021199 -0.019466 0.960865
v -0.086335 -0.030559 0.965001
v -0.130642 -0.134631 0.963012
v -0.029025 -0.085149 0.958160
v -0.065506 -0.123538 0.958876
v -0.122816 -0.068948 0.965716
vt 0.500000 0.000000
vt 0.250000 0.333333
vt 0.250000 0.666667
vt 0.500000 1.000000
vt 0.750000 0.666667
vt 0.750000 0.333333
vn 0.0717 -0.0496 0.9962
s off
mtllib leafwood.mtl
usemtl Leaves
f 1/1/1 2/2/1 6/3/1 3/4/1
f 1/1/1 3/4/1 5/5/1 4/6/1
