# Blender v3.4.0 OBJ File: 'apple_tree1_sapling_1_16_4_4_correct_duration2.blend'
# www.blender.org
o leaves.263
v 0.071506 -0.169038 2.241232
v 0.038369 -0.204296 2.247961
v 0.091712 -0.210197 2.224379
v 0.052111 -0.283663 2.226046
v 0.031904 -0.242504 2.242899
v 0.085248 -0.248406 2.219317
vt 0.500000 0.000000
vt 0.250000 0.333333
vt 0.250000 0.666667
vt 0.500000 1.000000
vt 0.750000 0.666667
vt 0.750000 0.333333
vn 0.3803 -0.1844 0.9063
s off
mtllib leafwood.mtl
usemtl Leaves
f 1/1/1 2/2/1 5/3/1 4/4/1
f 1/1/1 4/4/1 6/5/1 3/6/1
