# Blender v3.4.0 OBJ File: 'apple_tree1_sapling_1_16_4_4_correct_duration2.blend'
# www.blender.org
o leaves.213
v -0.229772 0.099561 1.735844
v -0.222017 0.135578 1.733517
v -0.265466 0.180347 1.742855
v -0.261323 0.117401 1.742845
v -0.273221 0.144330 1.745182
v -0.233915 0.162507 1.735854
vt 0.500000 0.000000
vt 0.250000 0.333333
vt 0.250000 0.666667
vt 0.500000 1.000000
vt 0.750000 0.666667
vt 0.750000 0.333333
vn 0.2245 0.0146 0.9744
s off
mtllib leafwood.mtl
usemtl Leaves
f 1/1/1 2/2/1 6/3/1 3/4/1
f 1/1/1 3/4/1 5/5/1 4/6/1
