# Blender v3.4.0 OBJ File: 'apple_tree1_sapling_1_16_4_4_correct_duration2.blend'
# www.blender.org
o leaves.023
v -0.120177 0.131434 0.822208
v -0.124294 0.179949 0.796527
v -0.207112 0.220080 0.777064
v -0.174016 0.142016 0.817792
v -0.202995 0.171565 0.802745
v -0.153272 0.209498 0.781479
vt 0.500000 0.000000
vt 0.250000 0.333333
vt 0.250000 0.666667
vt 0.500000 1.000000
vt 0.750000 0.666667
vt 0.750000 0.333333
vn 0.0198 0.4691 0.8829
s off
mtllib leafwood.mtl
usemtl Leaves
f 1/1/1 2/2/1 6/3/1 3/4/1
f 1/1/1 3/4/1 5/5/1 4/6/1
