# Blender v3.4.0 OBJ File: 'apple_tree1_sapling_1_16_4_4_correct_duration2.blend'
# www.blender.org
o leaves.226
v 0.049711 -0.247826 1.837916
v 0.045030 -0.276657 1.837265
v 0.082211 -0.309874 1.834673
v 0.076059 -0.260360 1.836406
v 0.086892 -0.281043 1.835325
v 0.055863 -0.297340 1.836184
vt 0.500000 0.000000
vt 0.250000 0.333333
vt 0.250000 0.666667
vt 0.500000 1.000000
vt 0.750000 0.666667
vt 0.750000 0.333333
vn 0.0432 -0.0296 0.9986
s off
mtllib leafwood.mtl
usemtl Leaves
f 1/1/1 2/2/1 6/3/1 3/4/1
f 1/1/1 3/4/1 5/5/1 4/6/1
