# Blender v3.4.0 OBJ File: 'apple_tree1_sapling_1_16_4_4_correct_duration2.blend'
# www.blender.org
o leaves.121
v -0.270958 -0.133836 1.239824
v -0.271985 -0.161230 1.208376
v -0.213084 -0.191210 1.181651
v -0.231348 -0.144692 1.232491
v -0.212057 -0.163817 1.213100
v -0.252693 -0.180355 1.188985
vt 0.500000 0.000000
vt 0.250000 0.333333
vt 0.250000 0.666667
vt 0.500000 1.000000
vt 0.750000 0.666667
vt 0.750000 0.333333
vn -0.0841 -0.7500 0.6561
s off
mtllib leafwood.mtl
usemtl Leaves
f 1/1/1 2/2/1 6/3/1 3/4/1
f 1/1/1 3/4/1 5/5/1 4/6/1
