# Blender v3.4.0 OBJ File: 'apple_tree1_sapling_1_16_4_4_correct_duration2.blend'
# www.blender.org
o leaves.172
v -0.124681 0.211196 1.575053
v -0.111394 0.195375 1.599610
v -0.074166 0.218221 1.632769
v -0.104292 0.231700 1.588973
v -0.087453 0.234042 1.608212
v -0.094555 0.197717 1.618849
vt 0.500000 0.000000
vt 0.250000 0.333333
vt 0.250000 0.666667
vt 0.500000 1.000000
vt 0.750000 0.666667
vt 0.750000 0.333333
vn -0.7320 0.3194 0.6018
vn -0.7320 0.3193 0.6018
s off
mtllib leafwood.mtl
usemtl Leaves
f 1/1/1 2/2/1 6/3/1 3/4/1
f 1/1/2 3/4/2 5/5/2 4/6/2
