# Blender v3.4.0 OBJ File: 'apple_tree1_sapling_1_16_4_4_correct_duration2.blend'
# www.blender.org
o leaves.269
v 0.056663 0.205406 2.323895
v 0.095206 0.191701 2.324095
v 0.150246 0.234042 2.316087
v 0.080509 0.238202 2.318489
v 0.111704 0.247747 2.315886
v 0.126400 0.201247 2.321493
vt 0.500000 0.000000
vt 0.250000 0.333333
vt 0.250000 0.666667
vt 0.500000 1.000000
vt 0.750000 0.666667
vt 0.750000 0.333333
vn 0.0420 0.1327 0.9903
s off
mtllib leafwood.mtl
usemtl Leaves
f 1/1/1 2/2/1 6/3/1 3/4/1
f 1/1/1 3/4/1 5/5/1 4/6/1
