# Blender v3.4.0 OBJ File: 'apple_tree1_sapling_1_16_4_4_correct_duration2.blend'
# www.blender.org
o leaves.135
v 0.252685 -0.263220 1.368953
v 0.262527 -0.295766 1.370841
v 0.318445 -0.311416 1.374654
v 0.286682 -0.262805 1.370867
v 0.308602 -0.278870 1.372767
v 0.284447 -0.311832 1.372741
vt 0.500000 0.000000
vt 0.250000 0.333333
vt 0.250000 0.666667
vt 0.500000 1.000000
vt 0.750000 0.666667
vt 0.750000 0.333333
vn -0.0566 0.0407 0.9976
s off
mtllib leafwood.mtl
usemtl Leaves
f 1/1/1 2/2/1 6/3/1 3/4/1
f 1/1/1 3/4/1 5/5/1 4/6/1
