# Blender v3.4.0 OBJ File: 'apple_tree1_sapling_1_16_4_4_correct_duration2.blend'
# www.blender.org
o leaves.264
v 0.013514 -0.259546 2.284754
v -0.064187 -0.308494 2.307433
v -0.024825 -0.255764 2.293076
v 0.000052 -0.295960 2.291551
v -0.025848 -0.312276 2.299111
v -0.050725 -0.272080 2.300636
vt 0.500000 0.000000
vt 0.500000 1.000000
vt 0.750000 0.666667
vt 0.750000 0.333333
vt 0.250000 0.333333
vt 0.250000 0.666667
vn 0.2205 0.0996 0.9703
s off
mtllib leafwood.mtl
usemtl Leaves
f 1/1/1 2/2/1 5/3/1 4/4/1
f 1/1/1 3/5/1 6/6/1 2/2/1
