# Blender v3.4.0 OBJ File: 'apple_tree1_sapling_1_16_4_4_correct_duration2.blend'
# www.blender.org
o leaves.162
v -0.166000 0.090525 1.435011
v -0.268197 0.158246 1.436993
v -0.217000 0.087549 1.435470
v -0.183131 0.138649 1.435874
v -0.217196 0.161223 1.436534
v -0.251066 0.110122 1.436130
vt 0.500000 0.000000
vt 0.500000 1.000000
vt 0.750000 0.666667
vt 0.750000 0.333333
vt 0.250000 0.333333
vt 0.250000 0.666667
vn 0.0098 -0.0144 0.9998
s off
mtllib leafwood.mtl
usemtl Leaves
f 1/1/1 2/2/1 6/3/1 3/4/1
f 1/1/1 4/5/1 5/6/1 2/2/1
