# Blender v3.4.0 OBJ File: 'apple_tree1_sapling_1_16_4_4_correct_duration2.blend'
# www.blender.org
o leaves.010
v 0.182706 0.175949 0.858186
v 0.217393 0.193717 0.857105
v 0.223760 0.259469 0.848454
v 0.175388 0.213861 0.852779
v 0.189072 0.241701 0.849534
v 0.231078 0.221557 0.853861
vt 0.500000 0.000000
vt 0.250000 0.333333
vt 0.250000 0.666667
vt 0.500000 1.000000
vt 0.750000 0.666667
vt 0.750000 0.333333
vn -0.0378 0.1340 0.9903
s off
mtllib leafwood.mtl
usemtl Leaves
f 1/1/1 2/2/1 6/3/1 3/4/1
f 1/1/1 3/4/1 5/5/1 4/6/1
