# Blender v3.4.0 OBJ File: 'apple_tree1_sapling_1_16_4_4_correct_duration2.blend'
# www.blender.org
o leaves.241
v -0.002186 0.144240 1.981246
v 0.024930 0.182561 1.989331
v -0.006329 0.257057 1.999288
v -0.032064 0.181130 1.985189
v -0.033446 0.218736 1.991203
v 0.023549 0.220167 1.995345
vt 0.500000 0.000000
vt 0.250000 0.333333
vt 0.250000 0.666667
vt 0.500000 1.000000
vt 0.750000 0.666667
vt 0.750000 0.333333
vn -0.0676 -0.1600 0.9848
vn -0.0675 -0.1600 0.9848
s off
mtllib leafwood.mtl
usemtl Leaves
f 1/1/1 2/2/1 6/3/1 3/4/1
f 1/1/2 3/4/2 5/5/2 4/6/2
