# Blender v3.4.0 OBJ File: 'apple_tree1_sapling_1_16_4_4_correct_duration2.blend'
# www.blender.org
o leaves.144
v 0.058924 0.095734 1.313141
v 0.067283 0.145312 1.289049
v 0.005476 0.217357 1.297164
v 0.014933 0.127237 1.326582
v -0.002882 0.167777 1.321256
v 0.049467 0.185853 1.283723
vt 0.500000 0.000000
vt 0.250000 0.333333
vt 0.250000 0.666667
vt 0.500000 1.000000
vt 0.750000 0.666667
vt 0.750000 0.333333
vn 0.4777 0.3175 0.8192
s off
mtllib leafwood.mtl
usemtl Leaves
f 1/1/1 2/2/1 6/3/1 3/4/1
f 1/1/1 3/4/1 5/5/1 4/6/1
