# Blender v3.4.0 OBJ File: 'apple_tree1_sapling_1_16_4_4_correct_duration2.blend'
# www.blender.org
o leaves.078
v -0.101570 -0.233171 1.007470
v -0.141459 -0.243135 1.008725
v -0.163835 -0.309771 1.008875
v -0.103190 -0.274273 1.007152
v -0.123945 -0.299807 1.007620
v -0.162215 -0.268669 1.009194
vt 0.500000 0.000000
vt 0.250000 0.333333
vt 0.250000 0.666667
vt 0.500000 1.000000
vt 0.750000 0.666667
vt 0.750000 0.333333
vn 0.0337 -0.0091 0.9994
s off
mtllib leafwood.mtl
usemtl Leaves
f 1/1/1 2/2/1 6/3/1 3/4/1
f 1/1/1 3/4/1 5/5/1 4/6/1
