# Blender v3.4.0 OBJ File: 'apple_tree1_sapling_1_16_4_4_correct_duration2.blend'
# www.blender.org
o leaves.111
v 0.192472 0.304869 1.149159
v 0.226172 0.301208 1.154053
v 0.264334 0.344454 1.144128
v 0.206681 0.334921 1.140911
v 0.230635 0.348116 1.139234
v 0.250126 0.314403 1.152376
vt 0.500000 0.000000
vt 0.250000 0.333333
vt 0.250000 0.666667
vt 0.500000 1.000000
vt 0.750000 0.666667
vt 0.750000 0.333333
vn -0.1038 0.3086 0.9455
s off
mtllib leafwood.mtl
usemtl Leaves
f 1/1/1 2/2/1 6/3/1 3/4/1
f 1/1/1 3/4/1 5/5/1 4/6/1
