# Blender v3.4.0 OBJ File: 'apple_tree1_sapling_1_16_4_4_correct_duration2.blend'
# www.blender.org
o leaves.026
v -0.141855 0.311502 0.814548
v -0.127053 0.346886 0.802799
v -0.158316 0.406339 0.816463
v -0.167631 0.339343 0.827573
v -0.173118 0.370955 0.828212
v -0.132540 0.378498 0.803438
vt 0.500000 0.000000
vt 0.250000 0.333333
vt 0.250000 0.666667
vt 0.500000 1.000000
vt 0.750000 0.666667
vt 0.750000 0.333333
vn 0.5101 0.0712 0.8572
s off
mtllib leafwood.mtl
usemtl Leaves
f 1/1/1 2/2/1 6/3/1 3/4/1
f 1/1/1 3/4/1 5/5/1 4/6/1
