# Blender v3.4.0 OBJ File: 'apple_tree1_sapling_1_16_4_4_correct_duration2.blend'
# www.blender.org
o leaves.152
v 0.102087 0.157067 1.337473
v 0.127571 0.127562 1.362188
v 0.176676 0.151275 1.419183
v 0.126329 0.182712 1.367231
v 0.151192 0.180781 1.394468
v 0.152434 0.125631 1.389425
vt 0.500000 0.000000
vt 0.250000 0.333333
vt 0.250000 0.666667
vt 0.500000 1.000000
vt 0.750000 0.666667
vt 0.750000 0.333333
vn -0.7391 -0.0778 0.6691
s off
mtllib leafwood.mtl
usemtl Leaves
f 1/1/1 2/2/1 6/3/1 3/4/1
f 1/1/1 3/4/1 5/5/1 4/6/1
