# Blender v3.4.0 OBJ File: 'apple_tree1_sapling_1_16_4_4_correct_duration2.blend'
# www.blender.org
o leaves.249
v 0.099806 0.279144 2.104314
v 0.118172 0.252568 2.113515
v 0.148621 0.251395 2.162156
v 0.113983 0.287221 2.133674
v 0.130255 0.277971 2.152954
v 0.134443 0.243319 2.132796
vt 0.500000 0.000000
vt 0.250000 0.333333
vt 0.250000 0.666667
vt 0.500000 1.000000
vt 0.750000 0.666667
vt 0.750000 0.333333
vn -0.7890 -0.3774 0.4848
s off
mtllib leafwood.mtl
usemtl Leaves
f 1/1/1 2/2/1 6/3/1 3/4/1
f 1/1/1 3/4/1 5/5/1 4/6/1
