# Blender v3.4.0 OBJ File: 'apple_tree1_sapling_1_16_4_4_correct_duration2.blend'
# www.blender.org
o leaves.039
v -0.327655 -0.258939 0.905029
v -0.360372 -0.264284 0.899663
v -0.380291 -0.312524 0.875807
v -0.330029 -0.289318 0.890913
v -0.347574 -0.307179 0.881172
v -0.377917 -0.282145 0.889922
vt 0.500000 0.000000
vt 0.250000 0.333333
vt 0.250000 0.666667
vt 0.500000 1.000000
vt 0.750000 0.666667
vt 0.750000 0.333333
vn -0.0809 -0.4148 0.9063
s off
mtllib leafwood.mtl
usemtl Leaves
f 1/1/1 2/2/1 6/3/1 3/4/1
f 1/1/1 3/4/1 5/5/1 4/6/1
