# Blender v3.4.0 OBJ File: 'apple_tree1_sapling_1_16_4_4_correct_duration2.blend'
# www.blender.org
o leaves.098
v 0.021286 0.037784 1.071206
v 0.079805 0.166826 1.092309
v 0.008106 0.095312 1.080126
v 0.073479 0.066284 1.076355
v 0.092985 0.109298 1.083389
v 0.027612 0.138326 1.087160
vt 0.500000 0.000000
vt 0.500000 1.000000
vt 0.750000 0.666667
vt 0.750000 0.333333
vt 0.250000 0.333333
vt 0.250000 0.666667
vn -0.0123 -0.1560 0.9877
s off
mtllib leafwood.mtl
usemtl Leaves
f 1/1/1 2/2/1 6/3/1 3/4/1
f 1/1/1 4/5/1 5/6/1 2/2/1
