# Blender v3.4.0 OBJ File: 'apple_tree1_sapling_1_16_4_4_correct_duration2.blend'
# www.blender.org
o leaves.024
v -0.139355 0.191540 0.811635
v -0.098425 0.207168 0.821476
v -0.060263 0.255043 0.775224
v -0.127556 0.218248 0.777521
v -0.101192 0.239415 0.765383
v -0.072061 0.228336 0.809339
vt 0.500000 0.000000
vt 0.250000 0.333333
vt 0.250000 0.666667
vt 0.500000 1.000000
vt 0.750000 0.666667
vt 0.750000 0.333333
vn -0.4112 0.7813 0.4695
s off
mtllib leafwood.mtl
usemtl Leaves
f 1/1/1 2/2/1 6/3/1 3/4/1
f 1/1/1 3/4/1 5/5/1 4/6/1
