# Blender v3.4.0 OBJ File: 'apple_tree1_sapling_1_16_4_4_correct_duration2.blend'
# www.blender.org
o leaves.041
v -0.323922 -0.170695 0.966375
v -0.350012 -0.153225 0.966718
v -0.398987 -0.174324 0.960761
v -0.347875 -0.190584 0.962289
v -0.372896 -0.191793 0.960417
v -0.375034 -0.154435 0.964847
vt 0.500000 0.000000
vt 0.250000 0.333333
vt 0.250000 0.666667
vt 0.500000 1.000000
vt 0.750000 0.666667
vt 0.750000 0.333333
vn -0.0682 -0.1213 0.9903
s off
mtllib leafwood.mtl
usemtl Leaves
f 1/1/1 2/2/1 6/3/1 3/4/1
f 1/1/1 3/4/1 5/5/1 4/6/1
