# Blender v3.4.0 OBJ File: 'apple_tree1_sapling_1_16_4_4_correct_duration2.blend'
# www.blender.org
o leaves.130
v 0.115838 -0.078794 1.250867
v 0.191221 -0.185322 1.260907
v 0.164641 -0.096268 1.267813
v 0.117290 -0.132339 1.240615
v 0.142418 -0.167848 1.243962
v 0.189768 -0.131778 1.271160
vt 0.500000 0.000000
vt 0.500000 1.000000
vt 0.750000 0.666667
vt 0.750000 0.333333
vt 0.250000 0.333333
vt 0.250000 0.666667
vn -0.3805 -0.1839 0.9063
s off
mtllib leafwood.mtl
usemtl Leaves
f 1/1/1 2/2/1 6/3/1 3/4/1
f 1/1/1 4/5/1 5/6/1 2/2/1
