# Blender v3.4.0 OBJ File: 'apple_tree1_sapling_1_16_4_4_correct_duration2.blend'
# www.blender.org
o leaves.107
v 0.376685 0.186278 1.127360
v 0.394024 0.159373 1.122864
v 0.449118 0.159805 1.118973
v 0.407634 0.195535 1.126264
v 0.431778 0.186710 1.123468
v 0.418168 0.150549 1.120069
vt 0.500000 0.000000
vt 0.250000 0.333333
vt 0.250000 0.666667
vt 0.500000 1.000000
vt 0.750000 0.666667
vt 0.750000 0.333333
vn 0.0709 -0.1198 0.9903
s off
mtllib leafwood.mtl
usemtl Leaves
f 1/1/1 2/2/1 6/3/1 3/4/1
f 1/1/1 3/4/1 5/5/1 4/6/1
