# Blender v3.4.0 OBJ File: 'apple_tree1_sapling_1_16_4_4_correct_duration2.blend'
# www.blender.org
o leaves.222
v -0.001424 -0.175913 1.785496
v -0.037424 -0.193718 1.788557
v -0.045923 -0.261626 1.781223
v 0.004910 -0.215249 1.779586
v -0.009923 -0.243820 1.778162
v -0.052258 -0.222290 1.787133
vt 0.500000 0.000000
vt 0.250000 0.333333
vt 0.250000 0.666667
vt 0.500000 1.000000
vt 0.750000 0.666667
vt 0.750000 0.333333
vn 0.1449 -0.1242 0.9816
s off
mtllib leafwood.mtl
usemtl Leaves
f 1/1/1 2/2/1 6/3/1 3/4/1
f 1/1/1 3/4/1 5/5/1 4/6/1
