# Blender v3.4.0 OBJ File: 'apple_tree1_sapling_1_16_4_4_correct_duration2.blend'
# www.blender.org
o leaves.187
v -0.085977 -0.291454 1.449291
v -0.090435 -0.264353 1.456898
v -0.054134 -0.234149 1.468790
v -0.060291 -0.280351 1.454683
v -0.049677 -0.261249 1.461183
v -0.079820 -0.245252 1.463398
vt 0.500000 0.000000
vt 0.500000 1.000000
vt 0.750000 0.666667
vt 0.750000 0.333333
vt 0.250000 0.333333
vt 0.250000 0.666667
vn -0.0791 -0.2815 0.9563
s off
mtllib leafwood.mtl
usemtl Leaves
f 1/1/1 3/2/1 6/3/1 2/4/1
f 1/1/1 4/5/1 5/6/1 3/2/1
