# Blender v3.4.0 OBJ File: 'apple_tree1_sapling_1_16_4_4_correct_duration2.blend'
# www.blender.org
o leaves.140
v 0.282712 -0.058942 1.246165
v 0.364460 -0.026068 1.212904
v 0.299010 -0.028663 1.227258
v 0.320913 -0.067304 1.242898
v 0.348162 -0.056346 1.231811
v 0.326260 -0.017706 1.216171
vt 0.500000 0.000000
vt 0.500000 1.000000
vt 0.750000 0.666667
vt 0.750000 0.333333
vt 0.250000 0.333333
vt 0.250000 0.666667
vn 0.1739 0.4526 0.8746
s off
mtllib leafwood.mtl
usemtl Leaves
f 1/1/1 2/2/1 6/3/1 3/4/1
f 1/1/1 4/5/1 5/6/1 2/2/1
