# Blender v3.4.0 OBJ File: 'apple_tree1_sapling_1_16_4_4_correct_duration2.blend'
# www.blender.org
o leaves.196
v 0.360794 -0.054328 1.556812
v 0.389142 -0.041752 1.562765
v 0.380275 -0.078590 1.562200
v 0.432538 -0.071858 1.573823
v 0.404190 -0.084434 1.567871
v 0.413057 -0.047596 1.568436
vt 0.500000 0.000000
vt 0.500000 1.000000
vt 0.750000 0.666667
vt 0.750000 0.333333
vt 0.250000 0.333333
vt 0.250000 0.666667
vn -0.2216 0.0384 0.9744
s off
mtllib leafwood.mtl
usemtl Leaves
f 1/1/1 4/2/1 6/3/1 2/4/1
f 1/1/1 3/5/1 5/6/1 4/2/1
