# Blender v3.4.0 OBJ File: 'apple_tree1_sapling_1_16_4_4_correct_duration2.blend'
# www.blender.org
o leaves.077
v -0.087755 -0.210448 0.996797
v -0.116796 -0.244085 1.009991
v -0.092244 -0.317546 1.026592
v -0.061706 -0.248210 1.003466
v -0.063203 -0.283909 1.013398
v -0.118292 -0.279784 1.019923
vt 0.500000 0.000000
vt 0.250000 0.333333
vt 0.250000 0.666667
vt 0.500000 1.000000
vt 0.750000 0.666667
vt 0.750000 0.333333
vn 0.1328 0.2605 0.9563
s off
mtllib leafwood.mtl
usemtl Leaves
f 1/1/1 2/2/1 6/3/1 3/4/1
f 1/1/1 3/4/1 5/5/1 4/6/1
