# Blender v3.4.0 OBJ File: 'apple_tree1_sapling_1_16_4_4_correct_duration2.blend'
# www.blender.org
o leaves.205
v -0.187238 0.070536 1.708864
v -0.226029 0.075284 1.685123
v -0.273866 0.015314 1.670262
v -0.206199 0.028973 1.706871
v -0.235075 0.010565 1.694003
v -0.254905 0.056877 1.672255
vt 0.500000 0.000000
vt 0.250000 0.333333
vt 0.250000 0.666667
vt 0.500000 1.000000
vt 0.750000 0.666667
vt 0.750000 0.333333
vn -0.4963 0.1857 0.8480
s off
mtllib leafwood.mtl
usemtl Leaves
f 1/1/1 2/2/1 6/3/1 3/4/1
f 1/1/1 3/4/1 5/5/1 4/6/1
