# Blender v3.4.0 OBJ File: 'apple_tree1_sapling_1_16_4_4_correct_duration2.blend'
# www.blender.org
o leaves.245
v 0.182567 0.272387 2.201537
v 0.213266 0.262756 2.192772
v 0.258459 0.297275 2.196405
v 0.202462 0.298610 2.206881
v 0.227760 0.306906 2.205170
v 0.238564 0.271052 2.191061
vt 0.500000 0.000000
vt 0.250000 0.333333
vt 0.250000 0.666667
vt 0.500000 1.000000
vt 0.750000 0.666667
vt 0.750000 0.333333
vn 0.1671 -0.3170 0.9336
s off
mtllib leafwood.mtl
usemtl Leaves
f 1/1/1 2/2/1 6/3/1 3/4/1
f 1/1/1 3/4/1 5/5/1 4/6/1
