# Blender v3.4.0 OBJ File: 'apple_tree1_sapling_1_16_4_4_correct_duration2.blend'
# www.blender.org
o leaves.231
v 0.366117 0.005206 1.854727
v 0.394005 -0.071669 1.842382
v 0.394487 -0.013019 1.847620
v 0.356340 -0.027818 1.853604
v 0.365636 -0.053444 1.849489
v 0.403782 -0.038644 1.843504
vt 0.500000 0.000000
vt 0.500000 1.000000
vt 0.750000 0.666667
vt 0.750000 0.333333
vt 0.250000 0.333333
vt 0.250000 0.666667
vn 0.1880 -0.0889 0.9781
vn 0.1879 -0.0889 0.9781
s off
mtllib leafwood.mtl
usemtl Leaves
f 1/1/1 2/2/1 6/3/1 3/4/1
f 1/1/2 4/5/2 5/6/2 2/2/2
