# Blender v3.4.0 OBJ File: 'apple_tree1_sapling_1_16_4_4_correct_duration2.blend'
# www.blender.org
o leaves.137
v 0.126023 -0.041440 1.228123
v 0.171749 -0.028146 1.205000
v 0.191237 0.056839 1.180903
v 0.123773 0.010785 1.219766
v 0.145511 0.043545 1.204026
v 0.193487 0.004614 1.189260
vt 0.500000 0.000000
vt 0.250000 0.333333
vt 0.250000 0.666667
vt 0.500000 1.000000
vt 0.750000 0.666667
vt 0.750000 0.333333
vn 0.4076 0.1614 0.8988
s off
mtllib leafwood.mtl
usemtl Leaves
f 1/1/1 2/2/1 6/3/1 3/4/1
f 1/1/1 3/4/1 5/5/1 4/6/1
