# Blender v3.4.0 OBJ File: 'apple_tree1_sapling_1_16_4_4_correct_duration2.blend'
# www.blender.org
o leaves.079
v -0.115111 -0.253808 1.019008
v -0.138969 -0.239716 0.986732
v -0.211573 -0.237746 0.989680
v -0.155561 -0.257192 1.031732
v -0.187715 -0.251838 1.021956
v -0.171123 -0.234362 0.976956
vt 0.500000 0.000000
vt 0.250000 0.333333
vt 0.250000 0.666667
vt 0.500000 1.000000
vt 0.750000 0.666667
vt 0.750000 0.333333
vn 0.0404 0.9263 0.3746
vn 0.0403 0.9263 0.3746
s off
mtllib leafwood.mtl
usemtl Leaves
f 1/1/1 2/2/1 6/3/1 3/4/1
f 1/1/2 3/4/2 5/5/2 4/6/2
