# Blender v3.4.0 OBJ File: 'apple_tree1_sapling_1_16_4_4_correct_duration2.blend'
# www.blender.org
o leaves.206
v -0.213315 0.038437 1.754980
v -0.244380 0.023848 1.747514
v -0.253558 -0.035431 1.749521
v -0.209078 0.003781 1.758806
v -0.222492 -0.020842 1.756986
v -0.257794 -0.000775 1.745694
vt 0.500000 0.000000
vt 0.250000 0.333333
vt 0.250000 0.666667
vt 0.500000 1.000000
vt 0.750000 0.666667
vt 0.750000 0.333333
vn -0.2656 0.0737 0.9613
s off
mtllib leafwood.mtl
usemtl Leaves
f 1/1/1 2/2/1 6/3/1 3/4/1
f 1/1/1 3/4/1 5/5/1 4/6/1
