# Blender v3.4.0 OBJ File: 'apple_tree1_sapling_1_16_4_4_correct_duration2.blend'
# www.blender.org
o leaves.177
v -0.138557 -0.050571 1.541480
v -0.101178 -0.023387 1.540226
v -0.104634 0.054343 1.553939
v -0.153320 -0.007813 1.551041
v -0.142012 0.027158 1.555194
v -0.089870 0.011584 1.544379
vt 0.500000 0.000000
vt 0.250000 0.333333
vt 0.250000 0.666667
vt 0.500000 1.000000
vt 0.750000 0.666667
vt 0.750000 0.333333
vn 0.1528 -0.1651 0.9744
s off
mtllib leafwood.mtl
usemtl Leaves
f 1/1/1 2/2/1 6/3/1 3/4/1
f 1/1/1 3/4/1 5/5/1 4/6/1
