# Blender v3.4.0 OBJ File: 'apple_tree1_sapling_1_16_4_4_correct_duration2.blend'
# www.blender.org
o leaves.058
v -0.130066 0.101275 0.944398
v -0.106086 0.058771 0.963349
v -0.023327 0.061243 0.997226
v -0.082886 0.117090 0.960666
v -0.047307 0.103746 0.978275
v -0.070507 0.045427 0.980958
vt 0.500000 0.000000
vt 0.250000 0.333333
vt 0.250000 0.666667
vt 0.500000 1.000000
vt 0.750000 0.666667
vt 0.750000 0.333333
vn -0.3767 0.1916 0.9063
s off
mtllib leafwood.mtl
usemtl Leaves
f 1/1/1 2/2/1 6/3/1 3/4/1
f 1/1/1 3/4/1 5/5/1 4/6/1
