# Blender v3.4.0 OBJ File: 'apple_tree1_sapling_1_16_4_4_correct_duration2.blend'
# www.blender.org
o leaves.124
v -0.282673 -0.220800 1.179357
v -0.254858 -0.276482 1.150333
v -0.288762 -0.247031 1.169676
v -0.258041 -0.231691 1.169688
v -0.248769 -0.250251 1.160014
v -0.279490 -0.265592 1.160001
vt 0.500000 0.000000
vt 0.500000 1.000000
vt 0.750000 0.666667
vt 0.750000 0.333333
vt 0.250000 0.333333
vt 0.250000 0.666667
vn 0.1885 -0.3782 0.9063
s off
mtllib leafwood.mtl
usemtl Leaves
f 1/1/1 2/2/1 5/3/1 4/4/1
f 1/1/1 3/5/1 6/6/1 2/2/1
