# Blender v3.4.0 OBJ File: 'apple_tree1_sapling_1_16_4_4_correct_duration2.blend'
# www.blender.org
o leaves.094
v 0.237973 0.095103 1.018103
v 0.276091 0.116039 1.020689
v 0.341536 0.080818 1.016390
v 0.268897 0.064643 1.014376
v 0.303418 0.059882 1.013805
v 0.310612 0.111277 1.020118
vt 0.500000 0.000000
vt 0.500000 1.000000
vt 0.750000 0.666667
vt 0.750000 0.333333
vt 0.250000 0.333333
vt 0.250000 0.666667
vn -0.0004 -0.1219 0.9925
s off
mtllib leafwood.mtl
usemtl Leaves
f 1/1/1 3/2/1 6/3/1 2/4/1
f 1/1/1 4/5/1 5/6/1 3/2/1
