# Blender v3.4.0 OBJ File: 'apple_tree1_sapling_1_16_4_4_correct_duration2.blend'
# www.blender.org
o leaves.099
v 0.055020 0.070591 1.084029
v 0.105725 0.068072 1.084029
v 0.156000 0.138769 1.084029
v 0.071636 0.118562 1.084029
v 0.105296 0.141288 1.084029
v 0.139385 0.090798 1.084029
vt 0.500000 0.000000
vt 0.250000 0.333333
vt 0.250000 0.666667
vt 0.500000 1.000000
vt 0.750000 0.666667
vt 0.750000 0.333333
vn -0.0000 0.0000 1.0000
s off
mtllib leafwood.mtl
usemtl Leaves
f 1/1/1 2/2/1 6/3/1 3/4/1
f 1/1/1 3/4/1 5/5/1 4/6/1
