# Blender v3.4.0 OBJ File: 'apple_tree1_sapling_1_16_4_4_correct_duration2.blend'
# www.blender.org
o leaves.017
v -0.218730 0.051876 0.868755
v -0.178839 0.021618 0.862386
v -0.124341 0.002527 0.926450
v -0.195696 0.049235 0.913586
v -0.164233 0.032786 0.932818
v -0.147376 0.005168 0.881618
vt 0.500000 0.000000
vt 0.250000 0.333333
vt 0.250000 0.666667
vt 0.500000 1.000000
vt 0.750000 0.666667
vt 0.750000 0.333333
vn -0.5616 -0.7913 0.2419
s off
mtllib leafwood.mtl
usemtl Leaves
f 1/1/1 2/2/1 6/3/1 3/4/1
f 1/1/1 3/4/1 5/5/1 4/6/1
