# Blender v3.4.0 OBJ File: 'apple_tree1_sapling_1_16_4_4_correct_duration2.blend'
# www.blender.org
o leaves.168
v -0.158641 0.150858 1.435846
v -0.110713 0.253854 1.444839
v -0.163395 0.193283 1.456631
v -0.121935 0.177097 1.421056
v -0.105959 0.211428 1.424054
v -0.147419 0.227615 1.459628
vt 0.500000 0.000000
vt 0.500000 1.000000
vt 0.750000 0.666667
vt 0.750000 0.333333
vt 0.250000 0.333333
vt 0.250000 0.666667
vn 0.5419 -0.3200 0.7771
s off
mtllib leafwood.mtl
usemtl Leaves
f 1/1/1 2/2/1 6/3/1 3/4/1
f 1/1/1 4/5/1 5/6/1 2/2/1
