# Blender v3.4.0 OBJ File: 'apple_tree1_sapling_1_16_4_4_correct_duration2.blend'
# www.blender.org
o leaves.176
v -0.127446 -0.056771 1.502731
v -0.163778 -0.085374 1.520278
v -0.168174 -0.168251 1.504324
v -0.118267 -0.102487 1.486246
v -0.131843 -0.139647 1.486777
v -0.177354 -0.122534 1.520809
vt 0.500000 0.000000
vt 0.250000 0.333333
vt 0.250000 0.666667
vt 0.500000 1.000000
vt 0.750000 0.666667
vt 0.750000 0.333333
vn 0.5424 -0.1865 0.8192
s off
mtllib leafwood.mtl
usemtl Leaves
f 1/1/1 2/2/1 6/3/1 3/4/1
f 1/1/1 3/4/1 5/5/1 4/6/1
