# Blender v3.4.0 OBJ File: 'apple_tree1_sapling_1_16_4_4_correct_duration2.blend'
# www.blender.org
o leaves.020
v -0.380678 0.035299 0.896836
v -0.398824 0.020976 0.868011
v -0.377280 -0.028724 0.835567
v -0.360266 0.006941 0.884815
v -0.359134 -0.014400 0.864392
v -0.397692 -0.000365 0.847588
vt 0.500000 0.000000
vt 0.250000 0.333333
vt 0.250000 0.666667
vt 0.500000 1.000000
vt 0.750000 0.666667
vt 0.750000 0.333333
vn -0.4923 -0.6153 0.6157
s off
mtllib leafwood.mtl
usemtl Leaves
f 1/1/1 2/2/1 6/3/1 3/4/1
f 1/1/1 3/4/1 5/5/1 4/6/1
