# Blender v3.4.0 OBJ File: 'apple_tree1_sapling_1_16_4_4_correct_duration2.blend'
# www.blender.org
o leaves.080
v -0.126169 -0.278441 1.030432
v -0.152597 -0.304840 1.033238
v -0.139391 -0.367362 1.029494
v -0.108555 -0.311323 1.027000
v -0.112963 -0.340964 1.026687
v -0.157005 -0.334480 1.032926
vt 0.500000 0.000000
vt 0.250000 0.333333
vt 0.250000 0.666667
vt 0.500000 1.000000
vt 0.750000 0.666667
vt 0.750000 0.333333
vn 0.1358 -0.0306 0.9903
s off
mtllib leafwood.mtl
usemtl Leaves
f 1/1/1 2/2/1 6/3/1 3/4/1
f 1/1/1 3/4/1 5/5/1 4/6/1
