# Blender v3.4.0 OBJ File: 'apple_tree1_sapling_1_16_4_4_correct_duration2.blend'
# www.blender.org
o leaves.037
v -0.282268 -0.199308 0.940714
v -0.313788 -0.187848 0.921371
v -0.365420 -0.227776 0.910555
v -0.306182 -0.229747 0.939952
v -0.333900 -0.239236 0.929899
v -0.341507 -0.197337 0.911318
vt 0.500000 0.000000
vt 0.250000 0.333333
vt 0.250000 0.666667
vt 0.500000 1.000000
vt 0.750000 0.666667
vt 0.750000 0.333333
vn -0.4152 0.3047 0.8572
s off
mtllib leafwood.mtl
usemtl Leaves
f 1/1/1 2/2/1 6/3/1 3/4/1
f 1/1/1 3/4/1 5/5/1 4/6/1
