# Blender v3.4.0 OBJ File: 'apple_tree1_sapling_1_16_4_4_correct_duration2.blend'
# www.blender.org
o leaves.244
v 0.118906 0.253826 2.148967
v 0.134643 0.285926 2.160348
v 0.152471 0.255560 2.132295
v 0.192859 0.304576 2.141031
v 0.159294 0.302842 2.157703
v 0.177122 0.272477 2.129650
vt 0.500000 0.000000
vt 0.500000 1.000000
vt 0.750000 0.666667
vt 0.750000 0.333333
vt 0.250000 0.333333
vt 0.250000 0.666667
vn 0.4106 -0.4769 0.7771
vn 0.4106 -0.4769 0.7772
s off
mtllib leafwood.mtl
usemtl Leaves
f 1/1/1 4/2/1 5/3/1 2/4/1
f 1/1/2 3/5/2 6/6/2 4/2/2
