# Blender v3.4.0 OBJ File: 'apple_tree1_sapling_1_16_4_4_correct_duration2.blend'
# www.blender.org
o leaves.239
v 0.377276 0.119254 1.884840
v 0.344563 0.110611 1.884840
v 0.302021 0.149766 1.884840
v 0.359819 0.148238 1.884840
v 0.334734 0.158409 1.884840
v 0.319478 0.120781 1.884840
vt 0.500000 0.000000
vt 0.500000 1.000000
vt 0.750000 0.666667
vt 0.750000 0.333333
vt 0.250000 0.333333
vt 0.250000 0.666667
vn 0.0000 0.0000 1.0000
s off
mtllib leafwood.mtl
usemtl Leaves
f 1/1/1 3/2/1 6/3/1 2/4/1
f 1/1/1 4/5/1 5/6/1 3/2/1
