# Blender v3.4.0 OBJ File: 'apple_tree1_sapling_1_16_4_4_correct_duration2.blend'
# www.blender.org
o leaves.194
v 0.306084 -0.042374 1.583724
v 0.292125 -0.074567 1.593076
v 0.327098 -0.125312 1.600327
v 0.334053 -0.065473 1.585441
v 0.341058 -0.093119 1.590975
v 0.299129 -0.102213 1.598610
vt 0.500000 0.000000
vt 0.250000 0.333333
vt 0.250000 0.666667
vt 0.500000 1.000000
vt 0.750000 0.666667
vt 0.750000 0.333333
vn 0.1270 0.2255 0.9659
s off
mtllib leafwood.mtl
usemtl Leaves
f 1/1/1 2/2/1 6/3/1 3/4/1
f 1/1/1 3/4/1 5/5/1 4/6/1
