# Blender v3.4.0 OBJ File: 'apple_tree1_sapling_1_16_4_4_correct_duration2.blend'
# www.blender.org
o leaves.006
v 0.108295 0.124181 0.825647
v 0.151620 0.105269 0.829389
v 0.218962 0.150329 0.830305
v 0.138748 0.160525 0.825010
v 0.175637 0.169241 0.826563
v 0.188509 0.113985 0.830942
vt 0.500000 0.000000
vt 0.250000 0.333333
vt 0.250000 0.666667
vt 0.500000 1.000000
vt 0.750000 0.666667
vt 0.750000 0.333333
vn -0.0574 0.0656 0.9962
s off
mtllib leafwood.mtl
usemtl Leaves
f 1/1/1 2/2/1 6/3/1 3/4/1
f 1/1/1 3/4/1 5/5/1 4/6/1
