# Blender v3.4.0 OBJ File: 'apple_tree1_sapling_1_16_4_4_correct_duration2.blend'
# www.blender.org
o leaves.272
v 0.101239 -0.185925 2.547043
v 0.022990 -0.193922 2.547011
v 0.077155 -0.208150 2.547375
v 0.073158 -0.169031 2.546689
v 0.047075 -0.171697 2.546679
v 0.051072 -0.210815 2.547365
vt 0.500000 0.000000
vt 0.500000 1.000000
vt 0.750000 0.666667
vt 0.750000 0.333333
vt 0.250000 0.333333
vt 0.250000 0.666667
vn -0.0022 0.0173 0.9998
s off
mtllib leafwood.mtl
usemtl Leaves
f 1/1/1 2/2/1 6/3/1 3/4/1
f 1/1/1 4/5/1 5/6/1 2/2/1
