# Blender v3.4.0 OBJ File: 'apple_tree1_sapling_1_16_4_4_correct_duration2.blend'
# www.blender.org
o leaves.102
v 0.142017 0.192272 1.101374
v 0.247764 0.175904 1.097387
v 0.181426 0.213177 1.102155
v 0.173106 0.160456 1.097936
v 0.208355 0.154999 1.096607
v 0.216675 0.207721 1.100826
vt 0.500000 0.000000
vt 0.500000 1.000000
vt 0.750000 0.666667
vt 0.750000 0.333333
vt 0.250000 0.333333
vt 0.250000 0.666667
vn 0.0246 -0.0836 0.9962
s off
mtllib leafwood.mtl
usemtl Leaves
f 1/1/1 2/2/1 6/3/1 3/4/1
f 1/1/1 4/5/1 5/6/1 2/2/1
