# Blender v3.4.0 OBJ File: 'apple_tree1_sapling_1_16_4_4_correct_duration2.blend'
# www.blender.org
o leaves.232
v 0.441026 -0.002759 1.832104
v 0.432650 0.029783 1.832104
v 0.469921 0.014394 1.832104
v 0.471804 0.071785 1.832104
v 0.442909 0.054631 1.832104
v 0.480181 0.039242 1.832104
vt 0.500000 0.000000
vt 0.500000 1.000000
vt 0.750000 0.666667
vt 0.750000 0.333333
vt 0.250000 0.333333
vt 0.250000 0.666667
vn 0.0000 0.0000 1.0000
s off
mtllib leafwood.mtl
usemtl Leaves
f 1/1/1 4/2/1 5/3/1 2/4/1
f 1/1/1 3/5/1 6/6/1 4/2/1
