# Blender v3.4.0 OBJ File: 'apple_tree1_sapling_1_16_4_4_correct_duration2.blend'
# www.blender.org
o leaves.072
v -0.044132 -0.070059 0.972680
v -0.079916 -0.108363 0.955116
v -0.057492 -0.199929 0.949038
v -0.017255 -0.118335 0.974483
v -0.021708 -0.161625 0.966602
v -0.084369 -0.151653 0.947235
vt 0.500000 0.000000
vt 0.250000 0.333333
vt 0.250000 0.666667
vt 0.500000 1.000000
vt 0.750000 0.666667
vt 0.750000 0.333333
vn -0.3125 -0.1389 0.9397
s off
mtllib leafwood.mtl
usemtl Leaves
f 1/1/1 2/2/1 6/3/1 3/4/1
f 1/1/1 3/4/1 5/5/1 4/6/1
