# Blender v3.4.0 OBJ File: 'apple_tree1_sapling_1_16_4_4_correct_duration2.blend'
# www.blender.org
o leaves.073
v -0.055239 -0.100024 0.978384
v -0.103682 -0.107413 0.985965
v -0.133972 -0.177724 1.022275
v -0.059285 -0.144436 1.000064
v -0.085529 -0.170335 1.014694
v -0.129926 -0.133312 1.000595
vt 0.500000 0.000000
vt 0.250000 0.333333
vt 0.250000 0.666667
vt 0.500000 1.000000
vt 0.750000 0.666667
vt 0.750000 0.333333
vn 0.0748 0.4319 0.8988
s off
mtllib leafwood.mtl
usemtl Leaves
f 1/1/1 2/2/1 6/3/1 3/4/1
f 1/1/1 3/4/1 5/5/1 4/6/1
