# Blender v3.4.0 OBJ File: 'apple_tree1_sapling_1_16_4_4_correct_duration2.blend'
# www.blender.org
o leaves.218
v 0.002372 -0.096580 1.722167
v -0.037222 -0.131278 1.722167
v -0.023681 -0.220216 1.722167
v 0.024596 -0.144305 1.722167
v 0.015912 -0.185517 1.722167
v -0.045906 -0.172490 1.722167
vt 0.500000 0.000000
vt 0.250000 0.333333
vt 0.250000 0.666667
vt 0.500000 1.000000
vt 0.750000 0.666667
vt 0.750000 0.333333
vn 0.0000 0.0000 1.0000
s off
mtllib leafwood.mtl
usemtl Leaves
f 1/1/1 2/2/1 6/3/1 3/4/1
f 1/1/1 3/4/1 5/5/1 4/6/1
