# Blender v3.4.0 OBJ File: 'apple_tree1_sapling_1_16_4_4_correct_duration2.blend'
# www.blender.org
o leaves.250
v 0.127445 0.351564 2.071933
v 0.122534 0.380565 2.085954
v 0.087415 0.418394 2.065075
v 0.105670 0.367117 2.053340
v 0.092326 0.389393 2.051055
v 0.109191 0.402841 2.083668
vt 0.500000 0.000000
vt 0.250000 0.333333
vt 0.250000 0.666667
vt 0.500000 1.000000
vt 0.750000 0.666667
vt 0.750000 0.333333
vn -0.7429 -0.3891 0.5446
s off
mtllib leafwood.mtl
usemtl Leaves
f 1/1/1 2/2/1 6/3/1 3/4/1
f 1/1/1 3/4/1 5/5/1 4/6/1
