# Blender v3.4.0 OBJ File: 'apple_tree1_sapling_1_16_4_4_correct_duration2.blend'
# www.blender.org
o leaves.259
v 0.020281 -0.080011 2.167166
v 0.014041 -0.128310 2.186512
v 0.073446 -0.193857 2.172620
v 0.061964 -0.107609 2.151455
v 0.079686 -0.145558 2.153274
v 0.031763 -0.166259 2.188331
vt 0.500000 0.000000
vt 0.250000 0.333333
vt 0.250000 0.666667
vt 0.500000 1.000000
vt 0.750000 0.666667
vt 0.750000 0.333333
vn 0.4904 0.2687 0.8290
s off
mtllib leafwood.mtl
usemtl Leaves
f 1/1/1 2/2/1 6/3/1 3/4/1
f 1/1/1 3/4/1 5/5/1 4/6/1
