# Blender v3.4.0 OBJ File: 'apple_tree1_sapling_1_16_4_4_correct_duration2.blend'
# www.blender.org
o leaves.035
v -0.216597 -0.163046 0.920903
v -0.191958 -0.201387 0.915243
v -0.131999 -0.206021 0.864825
v -0.184837 -0.153356 0.889178
v -0.156637 -0.167681 0.870485
v -0.163759 -0.215712 0.896550
vt 0.500000 0.000000
vt 0.250000 0.333333
vt 0.250000 0.666667
vt 0.500000 1.000000
vt 0.750000 0.666667
vt 0.750000 0.333333
vn 0.6278 0.2973 0.7193
s off
mtllib leafwood.mtl
usemtl Leaves
f 1/1/1 2/2/1 6/3/1 3/4/1
f 1/1/1 3/4/1 5/5/1 4/6/1
