# Blender v3.4.0 OBJ File: 'apple_tree1_sapling_1_16_4_4_correct_duration2.blend'
# www.blender.org
o leaves.007
v 0.127465 0.138307 0.833223
v 0.167442 0.157072 0.833223
v 0.177198 0.231903 0.833223
v 0.120644 0.181939 0.833223
v 0.137221 0.213138 0.833223
v 0.184020 0.188271 0.833223
vt 0.500000 0.000000
vt 0.250000 0.333333
vt 0.250000 0.666667
vt 0.500000 1.000000
vt 0.750000 0.666667
vt 0.750000 0.333333
vn 0.0000 0.0000 1.0000
s off
mtllib leafwood.mtl
usemtl Leaves
f 1/1/1 2/2/1 6/3/1 3/4/1
f 1/1/1 3/4/1 5/5/1 4/6/1
