# Blender v3.4.0 OBJ File: 'apple_tree1_sapling_1_16_4_4_correct_duration2.blend'
# www.blender.org
o leaves.138
v 0.182106 -0.038985 1.229613
v 0.219555 -0.032625 1.262770
v 0.207989 -0.082252 1.230148
v 0.277103 -0.094346 1.280150
v 0.251221 -0.051079 1.279616
v 0.239655 -0.100706 1.246993
vt 0.500000 0.000000
vt 0.500000 1.000000
vt 0.750000 0.666667
vt 0.750000 0.333333
vt 0.250000 0.333333
vt 0.250000 0.666667
vn -0.5892 -0.3434 0.7314
s off
mtllib leafwood.mtl
usemtl Leaves
f 1/1/1 4/2/1 5/3/1 2/4/1
f 1/1/1 3/5/1 6/6/1 4/2/1
