# Blender v3.4.0 OBJ File: 'apple_tree1_sapling_1_16_4_4_correct_duration2.blend'
# www.blender.org
o leaves.043
v 0.035554 0.025172 0.889024
v 0.056028 0.079718 0.888555
v -0.003678 0.159368 0.886824
v -0.011075 0.060091 0.888026
v -0.024152 0.104823 0.887293
v 0.042950 0.124450 0.887822
vt 0.500000 0.000000
vt 0.250000 0.333333
vt 0.250000 0.666667
vt 0.500000 1.000000
vt 0.750000 0.666667
vt 0.750000 0.333333
vn -0.0117 0.0130 0.9998
s off
mtllib leafwood.mtl
usemtl Leaves
f 1/1/1 2/2/1 6/3/1 3/4/1
f 1/1/1 3/4/1 5/5/1 4/6/1
