# Blender v3.4.0 OBJ File: 'apple_tree1_sapling_1_16_4_4_correct_duration2.blend'
# www.blender.org
o leaves.149
v 0.130625 0.271539 1.367763
v 0.107275 0.304858 1.366115
v 0.037773 0.302025 1.367932
v 0.092074 0.258544 1.369523
v 0.061124 0.268706 1.369579
v 0.076324 0.315021 1.366172
vt 0.500000 0.000000
vt 0.250000 0.333333
vt 0.250000 0.666667
vt 0.500000 1.000000
vt 0.750000 0.666667
vt 0.750000 0.333333
vn 0.0234 0.0657 0.9976
s off
mtllib leafwood.mtl
usemtl Leaves
f 1/1/1 2/2/1 6/3/1 3/4/1
f 1/1/1 3/4/1 5/5/1 4/6/1
