# Blender v3.4.0 OBJ File: 'apple_tree1_sapling_1_16_4_4_correct_duration2.blend'
# www.blender.org
o leaves.155
v 0.186449 0.162278 1.424963
v 0.215319 0.157185 1.400335
v 0.275342 0.180925 1.411027
v 0.216841 0.179802 1.440300
v 0.246472 0.186018 1.435654
v 0.244950 0.163401 1.395690
vt 0.500000 0.000000
vt 0.250000 0.333333
vt 0.250000 0.666667
vt 0.500000 1.000000
vt 0.750000 0.666667
vt 0.750000 0.333333
vn 0.2512 -0.8465 0.4695
s off
mtllib leafwood.mtl
usemtl Leaves
f 1/1/1 2/2/1 6/3/1 3/4/1
f 1/1/1 3/4/1 5/5/1 4/6/1
