# Blender v3.4.0 OBJ File: 'apple_tree1_sapling_1_16_4_4_correct_duration2.blend'
# www.blender.org
o leaves.198
v 0.235006 0.070209 1.629427
v 0.275575 0.053663 1.622787
v 0.337376 0.097302 1.619545
v 0.262683 0.104818 1.629480
v 0.296806 0.113849 1.626185
v 0.309699 0.062694 1.619493
vt 0.500000 0.000000
vt 0.250000 0.333333
vt 0.250000 0.666667
vt 0.500000 1.000000
vt 0.750000 0.666667
vt 0.750000 0.333333
vn 0.1214 -0.0986 0.9877
s off
mtllib leafwood.mtl
usemtl Leaves
f 1/1/1 2/2/1 6/3/1 3/4/1
f 1/1/1 3/4/1 5/5/1 4/6/1
