# Blender v3.4.0 OBJ File: 'apple_tree1_sapling_1_16_4_4_correct_duration2.blend'
# www.blender.org
o leaves.143
v 0.033117 0.062898 1.298656
v 0.093456 0.068633 1.292387
v 0.143458 0.158125 1.310633
v 0.046339 0.120647 1.312909
v 0.083119 0.152389 1.316902
v 0.130236 0.100375 1.296379
vt 0.500000 0.000000
vt 0.250000 0.333333
vt 0.250000 0.666667
vt 0.500000 1.000000
vt 0.750000 0.666667
vt 0.750000 0.333333
vn 0.1245 -0.2645 0.9563
s off
mtllib leafwood.mtl
usemtl Leaves
f 1/1/1 2/2/1 6/3/1 3/4/1
f 1/1/1 3/4/1 5/5/1 4/6/1
