# Blender v3.4.0 OBJ File: 'apple_tree1_sapling_1_16_4_4_correct_duration2.blend'
# www.blender.org
o leaves.139
v 0.228314 -0.056922 1.248130
v 0.237796 -0.026399 1.277927
v 0.186638 0.020995 1.304613
v 0.191048 -0.035500 1.255989
v 0.177156 -0.009528 1.274816
v 0.223904 -0.000426 1.296755
vt 0.500000 0.000000
vt 0.250000 0.333333
vt 0.250000 0.666667
vt 0.500000 1.000000
vt 0.750000 0.666667
vt 0.750000 0.333333
vn -0.2174 -0.6464 0.7314
s off
mtllib leafwood.mtl
usemtl Leaves
f 1/1/1 2/2/1 6/3/1 3/4/1
f 1/1/1 3/4/1 5/5/1 4/6/1
