# Blender v3.4.0 OBJ File: 'apple_tree1_sapling_1_16_4_4_correct_duration2.blend'
# www.blender.org
o leaves.186
v -0.084171 -0.252449 1.463636
v -0.118603 -0.262001 1.466275
v -0.137340 -0.308327 1.501649
v -0.085186 -0.280149 1.486338
v -0.102909 -0.298775 1.499010
v -0.136325 -0.280627 1.478947
vt 0.500000 0.000000
vt 0.250000 0.333333
vt 0.250000 0.666667
vt 0.500000 1.000000
vt 0.750000 0.666667
vt 0.750000 0.333333
vn -0.1166 0.6321 0.7660
s off
mtllib leafwood.mtl
usemtl Leaves
f 1/1/1 2/2/1 6/3/1 3/4/1
f 1/1/1 3/4/1 5/5/1 4/6/1
