# Blender v3.4.0 OBJ File: 'apple_tree1_sapling_1_16_4_4_correct_duration2.blend'
# www.blender.org
o leaves.233
v 0.092991 0.074949 1.869531
v 0.125022 0.092999 1.840228
v 0.108737 0.154090 1.790658
v 0.071458 0.109660 1.846252
v 0.076706 0.136040 1.819961
v 0.130271 0.119380 1.813937
vt 0.500000 0.000000
vt 0.250000 0.333333
vt 0.250000 0.666667
vt 0.500000 1.000000
vt 0.750000 0.666667
vt 0.750000 0.333333
vn 0.2813 0.6487 0.7071
s off
mtllib leafwood.mtl
usemtl Leaves
f 1/1/1 2/2/1 6/3/1 3/4/1
f 1/1/1 3/4/1 5/5/1 4/6/1
