# Blender v3.4.0 OBJ File: 'apple_tree1_sapling_1_16_4_4_correct_duration2.blend'
# www.blender.org
o leaves.086
v 0.092840 -0.011781 1.034009
v 0.093559 -0.068641 1.036359
v 0.167918 -0.118543 1.074288
v 0.142174 -0.026096 1.058512
v 0.167200 -0.061683 1.071938
v 0.118585 -0.104229 1.049785
vt 0.500000 0.000000
vt 0.250000 0.333333
vt 0.250000 0.666667
vt 0.500000 1.000000
vt 0.750000 0.666667
vt 0.750000 0.333333
vn -0.4372 0.0316 0.8988
s off
mtllib leafwood.mtl
usemtl Leaves
f 1/1/1 2/2/1 6/3/1 3/4/1
f 1/1/1 3/4/1 5/5/1 4/6/1
