# Blender v3.4.0 OBJ File: 'apple_tree1_sapling_1_16_4_4_correct_duration2.blend'
# www.blender.org
o leaves.195
v 0.349694 -0.051529 1.561541
v 0.325411 -0.028986 1.542562
v 0.345336 0.021570 1.506445
v 0.371071 -0.025339 1.543790
v 0.369618 -0.000973 1.525424
v 0.323959 -0.004619 1.524197
vt 0.500000 0.000000
vt 0.500000 1.000000
vt 0.750000 0.666667
vt 0.750000 0.333333
vt 0.250000 0.333333
vt 0.250000 0.666667
vn -0.0692 0.5978 0.7986
s off
mtllib leafwood.mtl
usemtl Leaves
f 1/1/1 3/2/1 6/3/1 2/4/1
f 1/1/1 4/5/1 5/6/1 3/2/1
