# Blender v3.4.0 OBJ File: 'apple_tree1_sapling_1_16_4_4_correct_duration2.blend'
# www.blender.org
o leaves.096
v 0.324111 0.153469 0.991334
v 0.355125 0.167433 0.988552
v 0.370488 0.215772 1.017323
v 0.324016 0.181041 1.011443
v 0.339475 0.201808 1.020106
v 0.370584 0.188200 0.997215
vt 0.500000 0.000000
vt 0.250000 0.333333
vt 0.250000 0.666667
vt 0.500000 1.000000
vt 0.750000 0.666667
vt 0.750000 0.333333
vn 0.3198 -0.5576 0.7660
s off
mtllib leafwood.mtl
usemtl Leaves
f 1/1/1 2/2/1 6/3/1 3/4/1
f 1/1/1 3/4/1 5/5/1 4/6/1
