# Blender v3.4.0 OBJ File: 'apple_tree1_sapling_1_16_4_4_correct_duration2.blend'
# www.blender.org
o leaves.180
v -0.208627 -0.010811 1.625572
v -0.221780 0.016678 1.633081
v -0.271426 0.020446 1.653017
v -0.237340 -0.017463 1.636359
v -0.258273 -0.007044 1.645507
v -0.242713 0.027097 1.642229
vt 0.500000 0.000000
vt 0.250000 0.333333
vt 0.250000 0.666667
vt 0.500000 1.000000
vt 0.750000 0.666667
vt 0.750000 0.333333
vn 0.3664 -0.0780 0.9272
s off
mtllib leafwood.mtl
usemtl Leaves
f 1/1/1 2/2/1 6/3/1 3/4/1
f 1/1/1 3/4/1 5/5/1 4/6/1
