# Blender v3.4.0 OBJ File: 'apple_tree1_sapling_1_16_4_4_correct_duration2.blend'
# www.blender.org
o leaves.175
v -0.098045 -0.059444 1.473017
v -0.128923 -0.091945 1.490853
v -0.186997 -0.072396 1.546012
v -0.126469 -0.035578 1.503845
v -0.156119 -0.039895 1.528177
v -0.158573 -0.096263 1.515184
vt 0.500000 0.000000
vt 0.500000 1.000000
vt 0.750000 0.666667
vt 0.750000 0.333333
vt 0.250000 0.333333
vt 0.250000 0.666667
vn 0.6388 -0.1991 0.7431
s off
mtllib leafwood.mtl
usemtl Leaves
f 1/1/1 3/2/1 6/3/1 2/4/1
f 1/1/1 4/5/1 5/6/1 3/2/1
