# Blender v3.4.0 OBJ File: 'apple_tree1_sapling_1_16_4_4_correct_duration2.blend'
# www.blender.org
o leaves.161
v -0.141755 0.084070 1.401266
v -0.092504 0.061389 1.400028
v -0.014636 0.111418 1.395211
v -0.106260 0.124984 1.398467
v -0.063887 0.134100 1.396449
v -0.050131 0.070505 1.398010
vt 0.500000 0.000000
vt 0.250000 0.333333
vt 0.250000 0.666667
vt 0.500000 1.000000
vt 0.750000 0.666667
vt 0.750000 0.333333
vn 0.0404 0.0333 0.9986
s off
mtllib leafwood.mtl
usemtl Leaves
f 1/1/1 2/2/1 6/3/1 3/4/1
f 1/1/1 3/4/1 5/5/1 4/6/1
