# Blender v3.4.0 OBJ File: 'apple_tree6_sapling.blend'
# www.blender.org
o leaves.163
v 0.140405 0.046720 1.143613
v 0.184174 0.034829 1.148454
v 0.253126 0.078543 1.150679
v 0.171782 0.079827 1.143481
v 0.209356 0.090435 1.145837
v 0.221747 0.045437 1.150810
vt 0.500000 0.000000
vt 0.300000 0.333333
vt 0.300000 0.666667
vt 0.500000 1.000000
vt 0.700000 0.666667
vt 0.700000 0.333333
vn -0.0865 0.0859 0.9925
s off
mtllib leafwood.mtl
usemtl Leaves
f 1/1/1 2/2/1 6/3/1 3/4/1
f 1/1/1 3/4/1 5/5/1 4/6/1
