# Blender v3.4.0 OBJ File: 'apple_tree6_sapling.blend'
# www.blender.org
o leaves.330
v 0.133720 -0.114690 2.191439
v 0.159206 -0.237776 2.196365
v 0.166716 -0.150548 2.195519
v 0.117715 -0.160889 2.190643
v 0.126210 -0.201918 2.192285
v 0.175211 -0.191576 2.197162
vt 0.500000 0.000000
vt 0.500000 1.000000
vt 0.700000 0.666667
vt 0.700000 0.333333
vt 0.300000 0.333333
vt 0.300000 0.666667
vn -0.1029 0.0185 0.9945
s off
mtllib leafwood.mtl
usemtl Leaves
f 1/1/1 2/2/1 6/3/1 3/4/1
f 1/1/1 4/5/1 5/6/1 2/2/1
