# Blender v3.4.0 OBJ File: 'apple_tree6_sapling.blend'
# www.blender.org
o leaves.007
v 0.173045 0.155339 0.661226
v 0.274414 0.118069 0.674574
v 0.200353 0.123077 0.659502
v 0.213316 0.162755 0.671849
v 0.247106 0.150331 0.676298
v 0.234143 0.110653 0.663951
vt 0.500000 0.000000
vt 0.500000 1.000000
vt 0.700000 0.666667
vt 0.700000 0.333333
vt 0.300000 0.333333
vt 0.300000 0.666667
vn -0.2089 -0.2277 0.9511
s off
mtllib leafwood.mtl
usemtl Leaves
f 1/1/1 2/2/1 5/3/1 4/4/1
f 1/1/1 3/5/1 6/6/1 2/2/1
