# Blender v3.4.0 OBJ File: 'apple_tree6_sapling.blend'
# www.blender.org
o leaves.142
v -0.214665 -0.168344 1.157518
v -0.303023 -0.244038 1.173697
v -0.229523 -0.211505 1.158733
v -0.258713 -0.175646 1.167090
v -0.288166 -0.200877 1.172482
v -0.258976 -0.236737 1.164126
vt 0.500000 0.000000
vt 0.500000 1.000000
vt 0.700000 0.666667
vt 0.700000 0.333333
vt 0.300000 0.333333
vt 0.300000 0.666667
vn 0.2197 -0.0482 0.9744
s off
mtllib leafwood.mtl
usemtl Leaves
f 1/1/1 2/2/1 6/3/1 3/4/1
f 1/1/1 4/5/1 5/6/1 2/2/1
