# Blender v3.4.0 OBJ File: 'apple_tree6_sapling.blend'
# www.blender.org
o leaves.016
v -0.211722 0.106089 0.717405
v -0.218487 0.151482 0.718768
v -0.280103 0.197426 0.747940
v -0.250544 0.121588 0.736399
v -0.273337 0.152033 0.746578
v -0.241281 0.181927 0.728946
vt 0.500000 0.000000
vt 0.300000 0.333333
vt 0.300000 0.666667
vt 0.500000 1.000000
vt 0.700000 0.666667
vt 0.700000 0.333333
vn 0.4522 0.0406 0.8910
s off
mtllib leafwood.mtl
usemtl Leaves
f 1/1/1 2/2/1 6/3/1 3/4/1
f 1/1/1 3/4/1 5/5/1 4/6/1
