# Blender v3.4.0 OBJ File: 'apple_tree6_sapling.blend'
# www.blender.org
o leaves.296
v 0.028613 0.312356 1.917605
v 0.033725 0.429961 1.930785
v 0.007975 0.353388 1.914336
v 0.052660 0.349728 1.929660
v 0.054364 0.388930 1.934053
v 0.009679 0.392589 1.918730
vt 0.500000 0.000000
vt 0.500000 1.000000
vt 0.700000 0.666667
vt 0.700000 0.333333
vt 0.300000 0.333333
vt 0.300000 0.666667
vn -0.3297 -0.0910 0.9397
s off
mtllib leafwood.mtl
usemtl Leaves
f 1/1/1 2/2/1 6/3/1 3/4/1
f 1/1/1 4/5/1 5/6/1 2/2/1
