# Blender v3.4.0 OBJ File: 'apple_tree6_sapling.blend'
# www.blender.org
o leaves.322
v -0.251904 -0.026121 1.968732
v -0.294956 -0.015813 1.952682
v -0.363717 -0.062988 1.940226
v -0.283393 -0.061008 1.965778
v -0.320665 -0.073297 1.956276
v -0.332227 -0.028102 1.943180
vt 0.500000 0.000000
vt 0.300000 0.333333
vt 0.300000 0.666667
vt 0.500000 1.000000
vt 0.700000 0.666667
vt 0.700000 0.333333
vn -0.3017 0.1933 0.9336
vn -0.3018 0.1933 0.9336
s off
mtllib leafwood.mtl
usemtl Leaves
f 1/1/1 2/2/1 6/3/1 3/4/1
f 1/1/2 3/4/2 5/5/2 4/6/2
