# Blender v3.4.0 OBJ File: 'apple_tree6_sapling.blend'
# www.blender.org
o leaves.030
v -0.200001 -0.012309 0.646337
v -0.237714 0.013041 0.644477
v -0.316688 -0.006365 0.640268
v -0.240079 -0.033697 0.644151
v -0.278974 -0.031715 0.642128
v -0.276610 0.015022 0.642455
vt 0.500000 0.000000
vt 0.300000 0.333333
vt 0.300000 0.666667
vt 0.500000 1.000000
vt 0.700000 0.666667
vt 0.700000 0.333333
vn -0.0522 -0.0043 0.9986
s off
mtllib leafwood.mtl
usemtl Leaves
f 1/1/1 2/2/1 6/3/1 3/4/1
f 1/1/1 3/4/1 5/5/1 4/6/1
