# Blender v3.4.0 OBJ File: 'apple_tree6_sapling.blend'
# www.blender.org
o leaves.232
v 0.127437 -0.278382 1.513337
v 0.107779 -0.309043 1.483917
v 0.135254 -0.380887 1.450586
v 0.152306 -0.316058 1.500923
v 0.154911 -0.350226 1.480006
v 0.110385 -0.343211 1.463000
vt 0.500000 0.000000
vt 0.300000 0.333333
vt 0.300000 0.666667
vt 0.500000 1.000000
vt 0.700000 0.666667
vt 0.700000 0.333333
vn -0.3763 -0.5044 0.7771
s off
mtllib leafwood.mtl
usemtl Leaves
f 1/1/1 2/2/1 6/3/1 3/4/1
f 1/1/1 3/4/1 5/5/1 4/6/1
