# Blender v3.4.0 OBJ File: 'apple_tree6_sapling.blend'
# www.blender.org
o leaves.290
v 0.002376 0.193388 1.851914
v 0.024819 0.203387 1.823027
v 0.023742 0.256279 1.780465
v -0.005823 0.225317 1.833168
v 0.001299 0.246280 1.809352
v 0.031941 0.224350 1.799211
vt 0.500000 0.000000
vt 0.300000 0.333333
vt 0.300000 0.666667
vt 0.500000 1.000000
vt 0.700000 0.666667
vt 0.700000 0.333333
vn 0.5792 0.5182 0.6293
vn 0.5791 0.5182 0.6293
s off
mtllib leafwood.mtl
usemtl Leaves
f 1/1/1 2/2/1 6/3/1 3/4/1
f 1/1/2 3/4/2 5/5/2 4/6/2
