# Blender v3.4.0 OBJ File: 'apple_tree6_sapling.blend'
# www.blender.org
o leaves.351
v 0.149585 0.050265 2.211521
v 0.132123 0.005261 2.212197
v 0.168422 -0.070999 2.230601
v 0.179605 0.014426 2.223565
v 0.185884 -0.025995 2.229926
v 0.138402 -0.035160 2.218557
vt 0.500000 0.000000
vt 0.300000 0.333333
vt 0.300000 0.666667
vt 0.500000 1.000000
vt 0.700000 0.666667
vt 0.700000 0.333333
vn -0.2518 0.1121 0.9613
s off
mtllib leafwood.mtl
usemtl Leaves
f 1/1/1 2/2/1 6/3/1 3/4/1
f 1/1/1 3/4/1 5/5/1 4/6/1
