# Blender v3.4.0 OBJ File: 'apple_tree6_sapling.blend'
# www.blender.org
o leaves.281
v 0.163115 -0.097556 1.793509
v 0.149478 -0.151015 1.799269
v 0.184068 -0.222866 1.858473
v 0.190720 -0.127638 1.831059
v 0.197705 -0.169408 1.852713
v 0.156463 -0.192785 1.820924
vt 0.500000 0.000000
vt 0.300000 0.333333
vt 0.300000 0.666667
vt 0.500000 1.000000
vt 0.700000 0.666667
vt 0.700000 0.333333
vn -0.6755 0.2472 0.6947
vn -0.6756 0.2472 0.6947
s off
mtllib leafwood.mtl
usemtl Leaves
f 1/1/1 2/2/1 6/3/1 3/4/1
f 1/1/2 3/4/2 5/5/2 4/6/2
