# Blender v3.4.0 OBJ File: 'apple_tree6_sapling.blend'
# www.blender.org
o leaves.179
v 0.035912 0.199755 1.276230
v 0.046406 0.238767 1.252123
v 0.003815 0.216532 1.246204
v 0.003508 0.283438 1.195031
v -0.006986 0.244427 1.219138
v 0.035605 0.266662 1.225057
vt 0.500000 0.000000
vt 0.300000 0.333333
vt 0.300000 0.666667
vt 0.500000 1.000000
vt 0.700000 0.666667
vt 0.700000 0.333333
vn -0.3927 0.5576 0.7314
s off
mtllib leafwood.mtl
usemtl Leaves
f 1/1/1 2/2/1 6/3/1 4/4/1
f 1/1/1 4/4/1 5/5/1 3/6/1
