# Blender v3.4.0 OBJ File: 'apple_tree6_sapling.blend'
# www.blender.org
o leaves.081
v -0.117279 0.188095 0.793279
v -0.099431 0.236075 0.797635
v -0.075165 0.195738 0.821696
v -0.027335 0.271528 0.842438
v -0.069449 0.263886 0.814021
v -0.045183 0.223549 0.838082
vt 0.500000 0.000000
vt 0.500000 1.000000
vt 0.700000 0.666667
vt 0.700000 0.333333
vt 0.300000 0.333333
vt 0.300000 0.666667
vn -0.5711 0.1390 0.8090
s off
mtllib leafwood.mtl
usemtl Leaves
f 1/1/1 4/2/1 5/3/1 2/4/1
f 1/1/1 3/5/1 6/6/1 4/2/1
