# Blender v3.4.0 OBJ File: 'apple_tree6_sapling.blend'
# www.blender.org
o leaves.237
v -0.022807 0.159059 1.554314
v -0.015640 0.205448 1.551033
v -0.068545 0.270889 1.546962
v -0.060466 0.187223 1.552694
v -0.075712 0.224500 1.550243
v -0.030886 0.242725 1.548582
vt 0.500000 0.000000
vt 0.300000 0.333333
vt 0.300000 0.666667
vt 0.500000 1.000000
vt 0.700000 0.666667
vt 0.700000 0.333333
vn 0.0088 0.0692 0.9976
s off
mtllib leafwood.mtl
usemtl Leaves
f 1/1/1 2/2/1 6/3/1 3/4/1
f 1/1/1 3/4/1 5/5/1 4/6/1
