# Blender v3.4.0 OBJ File: 'apple_tree6_sapling.blend'
# www.blender.org
o leaves.221
v 0.075349 -0.139450 1.437835
v 0.107133 -0.177290 1.427230
v 0.184756 -0.180491 1.380821
v 0.116503 -0.128971 1.410431
v 0.152973 -0.142651 1.391426
v 0.143602 -0.190970 1.408226
vt 0.500000 0.000000
vt 0.300000 0.333333
vt 0.300000 0.666667
vt 0.500000 1.000000
vt 0.700000 0.666667
vt 0.700000 0.333333
vn 0.5094 0.1928 0.8387
s off
mtllib leafwood.mtl
usemtl Leaves
f 1/1/1 2/2/1 6/3/1 3/4/1
f 1/1/1 3/4/1 5/5/1 4/6/1
