# Blender v3.4.0 OBJ File: 'apple_tree6_sapling.blend'
# www.blender.org
o leaves.242
v 0.101294 0.170722 1.516451
v 0.111919 0.296973 1.497709
v 0.079455 0.215297 1.512598
v 0.130217 0.210314 1.507809
v 0.133759 0.252398 1.501561
v 0.082997 0.257381 1.506351
vt 0.500000 0.000000
vt 0.500000 1.000000
vt 0.700000 0.666667
vt 0.700000 0.333333
vt 0.300000 0.333333
vt 0.300000 0.666667
vn 0.1064 0.1372 0.9848
s off
mtllib leafwood.mtl
usemtl Leaves
f 1/1/1 2/2/1 6/3/1 3/4/1
f 1/1/1 4/5/1 5/6/1 2/2/1
