# Blender v3.4.0 OBJ File: 'apple_tree6_sapling.blend'
# www.blender.org
o leaves.152
v -0.070630 -0.182316 1.055369
v -0.108936 -0.163708 1.055304
v -0.179729 -0.191898 1.058175
v -0.105055 -0.207312 1.057304
v -0.141422 -0.210506 1.058240
v -0.145303 -0.166902 1.056240
vt 0.500000 0.000000
vt 0.300000 0.333333
vt 0.300000 0.666667
vt 0.500000 1.000000
vt 0.700000 0.666667
vt 0.700000 0.333333
vn 0.0215 0.0477 0.9986
s off
mtllib leafwood.mtl
usemtl Leaves
f 1/1/1 2/2/1 6/3/1 3/4/1
f 1/1/1 3/4/1 5/5/1 4/6/1
