# Blender v3.4.0 OBJ File: 'apple_tree6_sapling.blend'
# www.blender.org
o leaves.254
v 0.032837 0.190395 1.541634
v 0.066764 0.185228 1.566252
v 0.106320 0.233284 1.609201
v 0.047898 0.224154 1.562060
v 0.072392 0.238451 1.584583
v 0.091258 0.199525 1.588774
vt 0.500000 0.000000
vt 0.300000 0.333333
vt 0.300000 0.666667
vt 0.500000 1.000000
vt 0.700000 0.666667
vt 0.700000 0.333333
vn -0.5951 -0.2047 0.7771
s off
mtllib leafwood.mtl
usemtl Leaves
f 1/1/1 2/2/1 6/3/1 3/4/1
f 1/1/1 3/4/1 5/5/1 4/6/1
