# Blender v3.4.0 OBJ File: 'apple_tree6_sapling.blend'
# www.blender.org
o leaves.283
v 0.170108 -0.103647 1.800199
v 0.213067 -0.121536 1.802764
v 0.274811 -0.127682 1.746965
v 0.196950 -0.101781 1.762145
v 0.231852 -0.109793 1.744401
v 0.247968 -0.129548 1.785019
vt 0.500000 0.000000
vt 0.300000 0.333333
vt 0.300000 0.666667
vt 0.500000 1.000000
vt 0.700000 0.666667
vt 0.700000 0.333333
vn 0.3527 0.8889 0.2924
s off
mtllib leafwood.mtl
usemtl Leaves
f 1/1/1 2/2/1 6/3/1 3/4/1
f 1/1/1 3/4/1 5/5/1 4/6/1
