# Blender v3.4.0 OBJ File: 'apple_tree6_sapling.blend'
# www.blender.org
o leaves.267
v -0.189253 -0.101706 1.667072
v -0.236533 -0.084799 1.673229
v -0.316139 -0.127438 1.680242
v -0.226564 -0.135768 1.669694
v -0.268859 -0.144345 1.674084
v -0.278829 -0.093376 1.677619
vt 0.500000 0.000000
vt 0.300000 0.333333
vt 0.300000 0.666667
vt 0.500000 1.000000
vt 0.700000 0.666667
vt 0.700000 0.333333
vn 0.1125 -0.0468 0.9925
s off
mtllib leafwood.mtl
usemtl Leaves
f 1/1/1 2/2/1 6/3/1 3/4/1
f 1/1/1 3/4/1 5/5/1 4/6/1
