# Blender v3.4.0 OBJ File: 'apple_tree6_sapling.blend'
# www.blender.org
o leaves.307
v -0.128629 0.090383 2.060270
v -0.160302 0.155156 2.150393
v -0.154218 0.095679 2.096740
v -0.124155 0.128270 2.083882
v -0.134712 0.149860 2.113923
v -0.164776 0.117270 2.126781
vt 0.500000 0.000000
vt 0.500000 1.000000
vt 0.700000 0.666667
vt 0.700000 0.333333
vt 0.300000 0.333333
vt 0.300000 0.666667
vn 0.7075 -0.4321 0.5592
s off
mtllib leafwood.mtl
usemtl Leaves
f 1/1/1 2/2/1 6/3/1 3/4/1
f 1/1/1 4/5/1 5/6/1 2/2/1
