# Blender v3.4.0 OBJ File: 'apple_tree6_sapling.blend'
# www.blender.org
o leaves.001
v 0.096359 0.077233 0.625083
v 0.109998 0.111922 0.601884
v 0.086591 0.186945 0.600111
v 0.076209 0.115685 0.631634
v 0.072953 0.152256 0.623310
v 0.106742 0.148493 0.593560
vt 0.500000 0.000000
vt 0.300000 0.333333
vt 0.300000 0.666667
vt 0.500000 1.000000
vt 0.700000 0.666667
vt 0.700000 0.333333
vn 0.6581 0.2223 0.7193
s off
mtllib leafwood.mtl
usemtl Leaves
f 1/1/1 2/2/1 6/3/1 3/4/1
f 1/1/1 3/4/1 5/5/1 4/6/1
