# Blender v3.4.0 OBJ File: 'apple_tree6_sapling.blend'
# www.blender.org
o leaves.018
v -0.215028 0.108981 0.720703
v -0.254713 0.130605 0.628885
v -0.209483 0.116030 0.681945
v -0.247030 0.116347 0.698249
v -0.260258 0.123555 0.667643
v -0.222711 0.123238 0.651340
vt 0.500000 0.000000
vt 0.500000 1.000000
vt 0.700000 0.666667
vt 0.700000 0.333333
vt 0.300000 0.333333
vt 0.300000 0.666667
vn 0.0911 0.9774 0.1908
s off
mtllib leafwood.mtl
usemtl Leaves
f 1/1/1 2/2/1 5/3/1 4/4/1
f 1/1/1 3/5/1 6/6/1 2/2/1
