# Blender v3.4.0 OBJ File: 'apple_tree6_sapling.blend'
# www.blender.org
o leaves.034
v -0.056922 -0.202135 0.682203
v -0.084082 -0.233172 0.692567
v -0.076519 -0.295824 0.735169
v -0.042827 -0.233557 0.707150
v -0.049360 -0.264787 0.724806
v -0.090614 -0.264401 0.710223
vt 0.500000 0.000000
vt 0.300000 0.333333
vt 0.300000 0.666667
vt 0.500000 1.000000
vt 0.700000 0.666667
vt 0.700000 0.333333
vn -0.2812 0.5162 0.8090
s off
mtllib leafwood.mtl
usemtl Leaves
f 1/1/1 2/2/1 6/3/1 3/4/1
f 1/1/1 3/4/1 5/5/1 4/6/1
