# Blender v3.4.0 OBJ File: 'apple_tree6_sapling.blend'
# www.blender.org
o leaves.027
v -0.192799 -0.007289 0.646537
v -0.224619 -0.041262 0.634250
v -0.176472 -0.051934 0.638930
v -0.216038 -0.125216 0.616695
v -0.232365 -0.080571 0.624303
v -0.184218 -0.091243 0.628982
vt 0.500000 0.000000
vt 0.300000 0.333333
vt 0.300000 0.666667
vt 0.500000 1.000000
vt 0.700000 0.666667
vt 0.700000 0.333333
vn -0.1419 -0.2165 0.9659
s off
mtllib leafwood.mtl
usemtl Leaves
f 1/1/1 2/2/1 5/3/1 4/4/1
f 1/1/1 4/4/1 6/5/1 3/6/1
