# Blender v3.4.0 OBJ File: 'apple_tree6_sapling.blend'
# www.blender.org
o leaves.215
v -0.167828 -0.051238 1.384211
v -0.207793 -0.053647 1.374882
v -0.262084 -0.096496 1.400073
v -0.190700 -0.079001 1.404114
v -0.222119 -0.094087 1.409402
v -0.239212 -0.068733 1.380170
vt 0.500000 0.000000
vt 0.300000 0.333333
vt 0.300000 0.666667
vt 0.500000 1.000000
vt 0.700000 0.666667
vt 0.700000 0.333333
vn -0.2058 0.6765 0.7071
s off
mtllib leafwood.mtl
usemtl Leaves
f 1/1/1 2/2/1 6/3/1 3/4/1
f 1/1/1 3/4/1 5/5/1 4/6/1
