# Blender v3.4.0 OBJ File: 'apple_tree6_sapling.blend'
# www.blender.org
o leaves.255
v 0.034091 0.192691 1.542492
v 0.069970 0.185916 1.525659
v 0.130288 0.225098 1.522647
v 0.062343 0.221071 1.546095
v 0.094409 0.231873 1.539480
v 0.102036 0.196718 1.519044
vt 0.500000 0.000000
vt 0.300000 0.333333
vt 0.300000 0.666667
vt 0.500000 1.000000
vt 0.700000 0.666667
vt 0.700000 0.333333
vn 0.3178 -0.4240 0.8480
s off
mtllib leafwood.mtl
usemtl Leaves
f 1/1/1 2/2/1 6/3/1 3/4/1
f 1/1/1 3/4/1 5/5/1 4/6/1
