# Blender v3.4.0 OBJ File: 'apple_tree6_sapling.blend'
# www.blender.org
o leaves.252
v 0.030328 0.185802 1.539917
v 0.079192 0.178544 1.548512
v 0.151619 0.228993 1.532101
v 0.062326 0.221855 1.526111
v 0.102756 0.236252 1.523506
v 0.119622 0.192941 1.545907
vt 0.500000 0.000000
vt 0.300000 0.333333
vt 0.300000 0.666667
vt 0.500000 1.000000
vt 0.700000 0.666667
vt 0.700000 0.333333
vn -0.0945 0.4281 0.8988
s off
mtllib leafwood.mtl
usemtl Leaves
f 1/1/1 2/2/1 6/3/1 3/4/1
f 1/1/1 3/4/1 5/5/1 4/6/1
