# Blender v3.4.0 OBJ File: 'apple_tree6_sapling.blend'
# www.blender.org
o leaves.150
v -0.071695 -0.185376 1.056946
v -0.114251 -0.202027 1.052267
v -0.143791 -0.268624 1.014096
v -0.077203 -0.224225 1.033058
v -0.101235 -0.251974 1.018775
v -0.138283 -0.229776 1.037984
vt 0.500000 0.000000
vt 0.300000 0.333333
vt 0.300000 0.666667
vt 0.500000 1.000000
vt 0.700000 0.666667
vt 0.700000 0.333333
vn 0.1160 -0.5321 0.8387
s off
mtllib leafwood.mtl
usemtl Leaves
f 1/1/1 2/2/1 6/3/1 3/4/1
f 1/1/1 3/4/1 5/5/1 4/6/1
