# Blender v3.4.0 OBJ File: 'apple_tree6_sapling.blend'
# www.blender.org
o leaves.347
v 0.070760 0.139835 2.246266
v 0.113806 0.151659 2.245713
v 0.150120 0.222830 2.248051
v 0.080621 0.183341 2.248009
v 0.107074 0.211006 2.248604
v 0.140259 0.179324 2.246308
vt 0.500000 0.000000
vt 0.300000 0.333333
vt 0.300000 0.666667
vt 0.500000 1.000000
vt 0.700000 0.666667
vt 0.700000 0.333333
vn 0.0254 -0.0458 0.9986
s off
mtllib leafwood.mtl
usemtl Leaves
f 1/1/1 2/2/1 6/3/1 3/4/1
f 1/1/1 3/4/1 5/5/1 4/6/1
