# Blender v3.4.0 OBJ File: 'apple_tree6_sapling.blend'
# www.blender.org
o leaves.137
v -0.204109 -0.164913 1.143044
v -0.234958 -0.122346 1.146138
v -0.323614 -0.106025 1.118491
v -0.252930 -0.168222 1.123582
v -0.292765 -0.148592 1.115398
v -0.274793 -0.102717 1.137953
vt 0.500000 0.000000
vt 0.300000 0.333333
vt 0.300000 0.666667
vt 0.500000 1.000000
vt 0.700000 0.666667
vt 0.700000 0.333333
vn -0.3344 -0.3071 0.8910
s off
mtllib leafwood.mtl
usemtl Leaves
f 1/1/1 2/2/1 6/3/1 3/4/1
f 1/1/1 3/4/1 5/5/1 4/6/1
