# Blender v3.4.0 OBJ File: 'apple_tree6_sapling.blend'
# www.blender.org
o leaves.201
v -0.108924 0.212883 1.248028
v -0.225537 0.231040 1.251135
v -0.144177 0.242262 1.248522
v -0.151413 0.195609 1.249604
v -0.190284 0.201661 1.250640
v -0.183048 0.248315 1.249558
vt 0.500000 0.000000
vt 0.500000 1.000000
vt 0.700000 0.666667
vt 0.700000 0.333333
vt 0.300000 0.333333
vt 0.300000 0.666667
vn 0.0295 0.0186 0.9994
s off
mtllib leafwood.mtl
usemtl Leaves
f 1/1/1 2/2/1 5/3/1 4/4/1
f 1/1/1 3/5/1 6/6/1 2/2/1
