# Blender v3.4.0 OBJ File: 'apple_tree6_sapling.blend'
# www.blender.org
o leaves.219
v 0.071338 -0.132102 1.435182
v 0.091026 -0.135624 1.482323
v 0.143592 -0.078992 1.531679
v 0.099820 -0.093173 1.452373
v 0.123904 -0.075469 1.484538
v 0.115110 -0.117921 1.514488
vt 0.500000 0.000000
vt 0.300000 0.333333
vt 0.300000 0.666667
vt 0.500000 1.000000
vt 0.700000 0.666667
vt 0.700000 0.333333
vn -0.8193 0.4340 0.3746
s off
mtllib leafwood.mtl
usemtl Leaves
f 1/1/1 2/2/1 6/3/1 3/4/1
f 1/1/1 3/4/1 5/5/1 4/6/1
