# Blender v3.4.0 OBJ File: 'apple_tree6_sapling.blend'
# www.blender.org
o leaves.042
v -0.081569 -0.127704 0.730600
v -0.071957 -0.175331 0.729211
v 0.000070 -0.221112 0.746255
v -0.036755 -0.142349 0.742425
v -0.009542 -0.173485 0.747644
v -0.044744 -0.206467 0.734429
vt 0.500000 0.000000
vt 0.300000 0.333333
vt 0.300000 0.666667
vt 0.500000 1.000000
vt 0.700000 0.666667
vt 0.700000 0.333333
vn -0.2799 -0.0844 0.9563
s off
mtllib leafwood.mtl
usemtl Leaves
f 1/1/1 2/2/1 6/3/1 3/4/1
f 1/1/1 3/4/1 5/5/1 4/6/1
