# Blender v3.4.0 OBJ File: 'apple_tree6_sapling.blend'
# www.blender.org
o leaves.261
v 0.130402 0.127772 1.534942
v 0.164412 0.103912 1.553674
v 0.242049 0.122696 1.570340
v 0.170824 0.148247 1.539808
v 0.208039 0.146556 1.551607
v 0.201628 0.102220 1.565474
vt 0.500000 0.000000
vt 0.300000 0.333333
vt 0.300000 0.666667
vt 0.500000 1.000000
vt 0.700000 0.666667
vt 0.700000 0.333333
vn -0.2727 0.3229 0.9063
s off
mtllib leafwood.mtl
usemtl Leaves
f 1/1/1 2/2/1 6/3/1 3/4/1
f 1/1/1 3/4/1 5/5/1 4/6/1
