# Blender v3.4.0 OBJ File: 'apple_tree6_sapling.blend'
# www.blender.org
o leaves.185
v -0.147701 0.172337 1.242959
v -0.107645 0.200077 1.243090
v -0.096054 0.286532 1.244360
v -0.153325 0.220728 1.243762
v -0.136110 0.258793 1.244229
v -0.090430 0.238142 1.243557
vt 0.500000 0.000000
vt 0.300000 0.333333
vt 0.300000 0.666667
vt 0.500000 1.000000
vt 0.700000 0.666667
vt 0.700000 0.333333
vn 0.0076 -0.0157 0.9998
s off
mtllib leafwood.mtl
usemtl Leaves
f 1/1/1 2/2/1 6/3/1 3/4/1
f 1/1/1 3/4/1 5/5/1 4/6/1
