# Blender v3.4.0 OBJ File: 'apple_tree6_sapling.blend'
# www.blender.org
o leaves.108
v 0.247211 0.039749 1.018436
v 0.291212 0.034834 1.008384
v 0.266835 -0.000204 1.027374
v 0.342649 -0.027552 1.016767
v 0.298648 -0.022638 1.026818
v 0.323024 0.012401 1.007828
vt 0.500000 0.000000
vt 0.500000 1.000000
vt 0.700000 0.666667
vt 0.700000 0.333333
vt 0.300000 0.333333
vt 0.300000 0.666667
vn 0.2449 0.3247 0.9135
s off
mtllib leafwood.mtl
usemtl Leaves
f 1/1/1 4/2/1 6/3/1 2/4/1
f 1/1/1 3/5/1 5/6/1 4/2/1
