# Blender v3.4.0 OBJ File: 'apple_tree6_sapling.blend'
# www.blender.org
o leaves.186
v -0.149936 0.175165 1.244232
v -0.109535 0.210291 1.240664
v -0.107536 0.305978 1.232361
v -0.162070 0.227248 1.239885
v -0.147937 0.270853 1.235928
v -0.095401 0.253895 1.236707
vt 0.500000 0.000000
vt 0.300000 0.333333
vt 0.300000 0.666667
vt 0.500000 1.000000
vt 0.700000 0.666667
vt 0.700000 0.333333
vn 0.0130 0.0862 0.9962
s off
mtllib leafwood.mtl
usemtl Leaves
f 1/1/1 2/2/1 6/3/1 3/4/1
f 1/1/1 3/4/1 5/5/1 4/6/1
