# Blender v3.4.0 OBJ File: 'apple_tree6_sapling.blend'
# www.blender.org
o leaves.076
v -0.118020 0.183789 0.791619
v -0.072243 0.185031 0.790732
v -0.018434 0.246030 0.801169
v -0.097405 0.224041 0.798873
v -0.064210 0.244788 0.802056
v -0.039048 0.205778 0.793915
vt 0.500000 0.000000
vt 0.300000 0.333333
vt 0.300000 0.666667
vt 0.500000 1.000000
vt 0.700000 0.666667
vt 0.700000 0.333333
vn 0.0242 -0.1893 0.9816
s off
mtllib leafwood.mtl
usemtl Leaves
f 1/1/1 2/2/1 6/3/1 3/4/1
f 1/1/1 3/4/1 5/5/1 4/6/1
