# Blender v3.4.0 OBJ File: 'apple_tree6_sapling.blend'
# www.blender.org
o leaves.355
v 0.157569 0.048098 2.217930
v 0.167890 0.004460 2.235044
v 0.193594 -0.022788 2.312388
v 0.171264 0.044479 2.263789
v 0.183273 0.020850 2.295275
v 0.179899 -0.019169 2.266529
vt 0.500000 0.000000
vt 0.300000 0.333333
vt 0.300000 0.666667
vt 0.500000 1.000000
vt 0.700000 0.666667
vt 0.700000 0.333333
vn -0.9540 -0.1176 0.2756
s off
mtllib leafwood.mtl
usemtl Leaves
f 1/1/1 2/2/1 6/3/1 3/4/1
f 1/1/1 3/4/1 5/5/1 4/6/1
