# Blender v3.4.0 OBJ File: 'apple_tree6_sapling.blend'
# www.blender.org
o leaves.072
v -0.269837 0.025929 0.862586
v -0.310047 0.052460 0.855895
v -0.385945 0.035107 0.816882
v -0.307032 0.005517 0.838808
v -0.345735 0.008576 0.823573
v -0.348750 0.055519 0.840660
vt 0.500000 0.000000
vt 0.300000 0.333333
vt 0.300000 0.666667
vt 0.500000 1.000000
vt 0.700000 0.666667
vt 0.700000 0.333333
vn -0.3677 -0.3388 0.8660
s off
mtllib leafwood.mtl
usemtl Leaves
f 1/1/1 2/2/1 6/3/1 3/4/1
f 1/1/1 3/4/1 5/5/1 4/6/1
