# Blender v3.4.0 OBJ File: 'apple_tree6_sapling.blend'
# www.blender.org
o leaves.202
v -0.096572 -0.048253 1.328732
v -0.117197 -0.083689 1.291996
v -0.080852 -0.165771 1.251286
v -0.065467 -0.091163 1.313837
v -0.060227 -0.130335 1.288022
v -0.111957 -0.122861 1.266180
vt 0.500000 0.000000
vt 0.300000 0.333333
vt 0.300000 0.666667
vt 0.500000 1.000000
vt 0.700000 0.666667
vt 0.700000 0.333333
vn -0.3921 -0.5422 0.7431
s off
mtllib leafwood.mtl
usemtl Leaves
f 1/1/1 2/2/1 6/3/1 3/4/1
f 1/1/1 3/4/1 5/5/1 4/6/1
