# Blender v3.4.0 OBJ File: 'apple_tree6_sapling.blend'
# www.blender.org
o leaves.238
v -0.023994 0.160730 1.556268
v -0.001410 0.195797 1.548541
v -0.019157 0.269610 1.550836
v -0.043353 0.198250 1.560374
v -0.041740 0.234544 1.558563
v 0.000202 0.232090 1.546730
vt 0.500000 0.000000
vt 0.300000 0.333333
vt 0.300000 0.666667
vt 0.500000 1.000000
vt 0.700000 0.666667
vt 0.700000 0.333333
vn 0.2733 0.0358 0.9613
s off
mtllib leafwood.mtl
usemtl Leaves
f 1/1/1 2/2/1 6/3/1 3/4/1
f 1/1/1 3/4/1 5/5/1 4/6/1
