# Blender v3.4.0 OBJ File: 'apple_tree6_sapling.blend'
# www.blender.org
o leaves.381
v 0.061677 0.105580 2.510547
v 0.096844 0.078736 2.494496
v 0.176567 0.096216 2.473529
v 0.103102 0.126181 2.501919
v 0.141399 0.123060 2.489580
v 0.135141 0.075615 2.482157
vt 0.500000 0.000000
vt 0.300000 0.333333
vt 0.300000 0.666667
vt 0.500000 1.000000
vt 0.700000 0.666667
vt 0.700000 0.333333
vn 0.2877 -0.1850 0.9397
s off
mtllib leafwood.mtl
usemtl Leaves
f 1/1/1 2/2/1 6/3/1 3/4/1
f 1/1/1 3/4/1 5/5/1 4/6/1
