# Blender v3.4.0 OBJ File: 'apple_tree6_sapling.blend'
# www.blender.org
o leaves.313
v -0.157100 -0.029540 1.966365
v -0.184591 -0.006418 1.939367
v -0.222646 -0.025928 1.871213
v -0.173306 -0.050254 1.929928
v -0.195154 -0.049050 1.898211
v -0.206440 -0.005214 1.907650
vt 0.500000 0.000000
vt 0.300000 0.333333
vt 0.300000 0.666667
vt 0.500000 1.000000
vt 0.700000 0.666667
vt 0.700000 0.333333
vn -0.7867 -0.3166 0.5299
s off
mtllib leafwood.mtl
usemtl Leaves
f 1/1/1 2/2/1 6/3/1 3/4/1
f 1/1/1 3/4/1 5/5/1 4/6/1
