# Blender v3.4.0 OBJ File: 'apple_tree6_sapling.blend'
# www.blender.org
o leaves.136
v -0.201907 -0.164198 1.140025
v -0.213276 -0.110200 1.149152
v -0.280638 -0.047774 1.109226
v -0.243026 -0.140579 1.110366
v -0.269269 -0.101771 1.100099
v -0.239519 -0.071392 1.138885
vt 0.500000 0.000000
vt 0.300000 0.333333
vt 0.300000 0.666667
vt 0.500000 1.000000
vt 0.700000 0.666667
vt 0.700000 0.333333
vn -0.6583 -0.2581 0.7071
s off
mtllib leafwood.mtl
usemtl Leaves
f 1/1/1 2/2/1 6/3/1 3/4/1
f 1/1/1 3/4/1 5/5/1 4/6/1
