# Blender v3.4.0 OBJ File: 'apple_tree6_sapling.blend'
# www.blender.org
o leaves.006
v 0.171073 0.153738 0.659910
v 0.195120 0.165966 0.623156
v 0.191961 0.231607 0.574727
v 0.160951 0.193422 0.639876
v 0.167914 0.219379 0.611482
v 0.202083 0.191922 0.594761
vt 0.500000 0.000000
vt 0.300000 0.333333
vt 0.300000 0.666667
vt 0.500000 1.000000
vt 0.700000 0.666667
vt 0.700000 0.333333
vn 0.6617 0.4655 0.5878
s off
mtllib leafwood.mtl
usemtl Leaves
f 1/1/1 2/2/1 6/3/1 3/4/1
f 1/1/1 3/4/1 5/5/1 4/6/1
