# Blender v3.4.0 OBJ File: 'apple_tree6_sapling.blend'
# www.blender.org
o leaves.383
v 0.056751 0.102653 2.502598
v 0.065976 0.049898 2.504952
v 0.146475 -0.001229 2.515856
v 0.107343 0.086154 2.509083
v 0.137251 0.051527 2.513503
v 0.095884 0.015270 2.509371
vt 0.500000 0.000000
vt 0.300000 0.333333
vt 0.300000 0.666667
vt 0.500000 1.000000
vt 0.700000 0.666667
vt 0.700000 0.333333
vn -0.1196 0.0234 0.9925
s off
mtllib leafwood.mtl
usemtl Leaves
f 1/1/1 2/2/1 6/3/1 3/4/1
f 1/1/1 3/4/1 5/5/1 4/6/1
