# Blender v3.4.0 OBJ File: 'apple_tree6_sapling.blend'
# www.blender.org
o leaves.184
v 0.041150 0.210233 1.283748
v 0.052473 0.250037 1.288167
v 0.081032 0.218407 1.292392
v 0.117956 0.282199 1.303343
v 0.106634 0.242395 1.298923
v 0.078075 0.274025 1.294699
vt 0.500000 0.000000
vt 0.500000 1.000000
vt 0.700000 0.666667
vt 0.700000 0.333333
vt 0.300000 0.333333
vt 0.300000 0.666667
vn -0.2015 -0.0513 0.9781
s off
mtllib leafwood.mtl
usemtl Leaves
f 1/1/1 4/2/1 6/3/1 2/4/1
f 1/1/1 3/5/1 5/6/1 4/2/1
