# Blender v3.4.0 OBJ File: 'apple_tree6_sapling.blend'
# www.blender.org
o leaves.206
v -0.176246 -0.096063 1.370763
v -0.207231 -0.071470 1.346645
v -0.290183 -0.071587 1.345768
v -0.221218 -0.104340 1.378218
v -0.259198 -0.096181 1.369886
v -0.245210 -0.063311 1.338314
vt 0.500000 0.000000
vt 0.300000 0.333333
vt 0.300000 0.666667
vt 0.500000 1.000000
vt 0.700000 0.666667
vt 0.700000 0.333333
vn -0.0086 0.6946 0.7193
s off
mtllib leafwood.mtl
usemtl Leaves
f 1/1/1 2/2/1 6/3/1 3/4/1
f 1/1/1 3/4/1 5/5/1 4/6/1
