# Blender v3.4.0 OBJ File: 'apple_tree6_sapling.blend'
# www.blender.org
o leaves.250
v 0.027820 0.181210 1.538200
v 0.022557 0.232647 1.541618
v -0.051827 0.288082 1.540180
v -0.020016 0.201021 1.536101
v -0.046565 0.236645 1.536761
v -0.003992 0.268271 1.542278
vt 0.500000 0.000000
vt 0.300000 0.333333
vt 0.300000 0.666667
vt 0.500000 1.000000
vt 0.700000 0.666667
vt 0.700000 0.333333
vn -0.0741 -0.0737 0.9945
s off
mtllib leafwood.mtl
usemtl Leaves
f 1/1/1 2/2/1 6/3/1 3/4/1
f 1/1/1 3/4/1 5/5/1 4/6/1
