# Blender v3.4.0 OBJ File: 'apple_tree6_sapling.blend'
# www.blender.org
o leaves.371
v -0.059090 0.105380 2.570172
v -0.075022 0.119396 2.614206
v -0.151762 0.109355 2.655067
v -0.104940 0.094014 2.582735
v -0.135831 0.095339 2.611033
v -0.105912 0.120721 2.642504
vt 0.500000 0.000000
vt 0.300000 0.333333
vt 0.300000 0.666667
vt 0.500000 1.000000
vt 0.700000 0.666667
vt 0.700000 0.333333
vn 0.3209 -0.8627 0.3907
s off
mtllib leafwood.mtl
usemtl Leaves
f 1/1/1 2/2/1 6/3/1 3/4/1
f 1/1/1 3/4/1 5/5/1 4/6/1
