# Blender v3.4.0 OBJ File: 'apple_tree6_sapling.blend'
# www.blender.org
o leaves.009
v 0.176989 0.158542 0.663858
v 0.220444 0.152368 0.662534
v 0.281051 0.202448 0.661957
v 0.202909 0.193988 0.663916
v 0.237597 0.208623 0.663282
v 0.255132 0.167003 0.661900
vt 0.500000 0.000000
vt 0.300000 0.333333
vt 0.300000 0.666667
vt 0.500000 1.000000
vt 0.700000 0.666667
vt 0.700000 0.333333
vn 0.0274 -0.0216 0.9994
s off
mtllib leafwood.mtl
usemtl Leaves
f 1/1/1 2/2/1 6/3/1 3/4/1
f 1/1/1 3/4/1 5/5/1 4/6/1
