# Blender v3.4.0 OBJ File: 'apple_tree6_sapling.blend'
# www.blender.org
o leaves.236
v -0.021620 0.157388 1.552360
v -0.025183 0.204580 1.565262
v -0.092052 0.261499 1.563501
v -0.065011 0.179603 1.546885
v -0.088489 0.214307 1.550599
v -0.048661 0.239284 1.568975
vt 0.500000 0.000000
vt 0.300000 0.333333
vt 0.300000 0.666667
vt 0.500000 1.000000
vt 0.700000 0.666667
vt 0.700000 0.333333
vn -0.2567 -0.2729 0.9272
s off
mtllib leafwood.mtl
usemtl Leaves
f 1/1/1 2/2/1 6/3/1 3/4/1
f 1/1/1 3/4/1 5/5/1 4/6/1
