# Blender v3.4.0 OBJ File: 'apple_tree6_sapling.blend'
# www.blender.org
o leaves.077
v -0.117279 0.188095 0.793279
v -0.102072 0.221955 0.817974
v -0.077362 0.183674 0.812635
v -0.034592 0.232253 0.859356
v -0.074509 0.236674 0.839999
v -0.049800 0.198393 0.834661
vt 0.500000 0.000000
vt 0.500000 1.000000
vt 0.700000 0.666667
vt 0.700000 0.333333
vt 0.300000 0.333333
vt 0.300000 0.666667
vn -0.4360 -0.3942 0.8090
s off
mtllib leafwood.mtl
usemtl Leaves
f 1/1/1 4/2/1 5/3/1 2/4/1
f 1/1/1 3/5/1 6/6/1 4/2/1
