# Blender v3.4.0 OBJ File: 'apple_tree6_sapling.blend'
# www.blender.org
o leaves.326
v 0.065823 -0.049470 2.097867
v 0.025853 -0.071930 2.112022
v 0.070382 -0.091362 2.120818
v 0.012706 -0.145998 2.153524
v 0.052677 -0.123538 2.139370
v 0.008147 -0.104106 2.130574
vt 0.500000 0.000000
vt 0.300000 0.333333
vt 0.300000 0.666667
vt 0.500000 1.000000
vt 0.700000 0.666667
vt 0.700000 0.333333
vn 0.0381 0.4833 0.8746
s off
mtllib leafwood.mtl
usemtl Leaves
f 1/1/1 2/2/1 6/3/1 4/4/1
f 1/1/1 4/4/1 5/5/1 3/6/1
