# Blender v3.4.0 OBJ File: 'apple_tree6_sapling.blend'
# www.blender.org
o leaves.019
v -0.216684 0.110429 0.722354
v -0.200866 0.139857 0.703854
v -0.219734 0.174749 0.648157
v -0.234535 0.123881 0.691389
v -0.235552 0.145321 0.666657
v -0.201882 0.161297 0.679122
vt 0.500000 0.000000
vt 0.300000 0.333333
vt 0.300000 0.666667
vt 0.500000 1.000000
vt 0.700000 0.666667
vt 0.700000 0.333333
vn -0.5147 0.6372 0.5736
vn -0.5147 0.6373 0.5736
s off
mtllib leafwood.mtl
usemtl Leaves
f 1/1/1 2/2/1 6/3/1 3/4/1
f 1/1/2 3/4/2 5/5/2 4/6/2
