# Blender v3.4.0 OBJ File: 'apple_tree6_sapling.blend'
# www.blender.org
o leaves.111
v 0.251858 0.039663 1.025845
v 0.294192 0.043631 1.016541
v 0.340762 0.105706 1.009361
v 0.268793 0.079724 1.024159
v 0.298427 0.101739 1.018664
v 0.323827 0.065645 1.011047
vt 0.500000 0.000000
vt 0.300000 0.333333
vt 0.300000 0.666667
vt 0.500000 1.000000
vt 0.700000 0.666667
vt 0.700000 0.333333
vn 0.2190 -0.0516 0.9744
s off
mtllib leafwood.mtl
usemtl Leaves
f 1/1/1 2/2/1 6/3/1 3/4/1
f 1/1/1 3/4/1 5/5/1 4/6/1
