# Blender v3.4.0 OBJ File: 'apple_tree6_sapling.blend'
# www.blender.org
o leaves.320
v -0.246414 -0.023454 1.968992
v -0.360434 -0.029813 1.953255
v -0.282898 -0.048511 1.961985
v -0.285943 -0.002636 1.965508
v -0.323950 -0.004756 1.960262
v -0.320905 -0.050631 1.956740
vt 0.500000 0.000000
vt 0.500000 1.000000
vt 0.700000 0.666667
vt 0.700000 0.333333
vt 0.300000 0.333333
vt 0.300000 0.666667
vn -0.1316 -0.0846 0.9877
s off
mtllib leafwood.mtl
usemtl Leaves
f 1/1/1 2/2/1 6/3/1 3/4/1
f 1/1/1 4/5/1 5/6/1 2/2/1
