# Blender v3.4.0 OBJ File: 'apple_tree6_sapling.blend'
# www.blender.org
o leaves.264
v -0.108197 -0.042198 1.621799
v -0.103702 -0.076029 1.593798
v -0.137553 -0.046111 1.589062
v -0.145488 -0.098813 1.530692
v -0.149983 -0.064982 1.558693
v -0.116132 -0.094901 1.563429
vt 0.500000 0.000000
vt 0.500000 1.000000
vt 0.700000 0.666667
vt 0.700000 0.333333
vt 0.300000 0.333333
vt 0.300000 0.666667
vn -0.5804 -0.5636 0.5878
s off
mtllib leafwood.mtl
usemtl Leaves
f 1/1/1 4/2/1 6/3/1 2/4/1
f 1/1/1 3/5/1 5/6/1 4/2/1
