# Blender v3.4.0 OBJ File: 'apple_tree6_sapling.blend'
# www.blender.org
o leaves
v 0.092720 0.073683 0.624702
v 0.128522 0.082198 0.658000
v 0.142118 0.103272 0.692381
v 0.133509 0.136904 0.727846
v 0.097707 0.128389 0.694549
v 0.084111 0.107316 0.660167
vt 0.500000 0.000000
vt 0.300000 0.333333
vt 0.300000 0.666667
vt 0.500000 1.000000
vt 0.700000 0.666667
vt 0.700000 0.333333
vn -0.3763 -0.7161 0.5878
vn -0.3764 -0.7161 0.5878
s off
mtllib leafwood.mtl
usemtl Leaves
f 1/1/1 2/2/1 3/3/1 4/4/1
f 1/1/2 4/4/2 5/5/2 6/6/2
