# Blender v3.4.0 OBJ File: 'apple_tree6_sapling.blend'
# www.blender.org
o leaves.139
v -0.208331 -0.166285 1.148834
v -0.219750 -0.174996 1.198893
v -0.190119 -0.239047 1.259840
v -0.184772 -0.206082 1.172779
v -0.178701 -0.230336 1.209781
v -0.213679 -0.199250 1.235895
vt 0.500000 0.000000
vt 0.300000 0.333333
vt 0.300000 0.666667
vt 0.500000 1.000000
vt 0.700000 0.666667
vt 0.700000 0.333333
vn 0.7453 0.6071 0.2756
s off
mtllib leafwood.mtl
usemtl Leaves
f 1/1/1 2/2/1 6/3/1 3/4/1
f 1/1/1 3/4/1 5/5/1 4/6/1
