# Blender v3.4.0 OBJ File: 'apple_tree6_sapling.blend'
# www.blender.org
o leaves.118
v -0.015583 0.115866 0.965345
v 0.014013 0.142860 0.981923
v 0.021412 0.220096 0.979662
v -0.020516 0.158359 0.958312
v -0.008184 0.193102 0.963084
v 0.026345 0.177603 0.986695
vt 0.500000 0.000000
vt 0.300000 0.333333
vt 0.300000 0.666667
vt 0.500000 1.000000
vt 0.700000 0.666667
vt 0.700000 0.333333
vn -0.5393 0.0762 0.8387
s off
mtllib leafwood.mtl
usemtl Leaves
f 1/1/1 2/2/1 6/3/1 3/4/1
f 1/1/1 3/4/1 5/5/1 4/6/1
