# Blender v3.4.0 OBJ File: 'apple_tree6_sapling.blend'
# www.blender.org
o leaves.134
v 0.010703 0.189913 1.006120
v 0.087505 0.255629 0.960150
v 0.050028 0.194460 0.988910
v 0.022580 0.229177 0.992683
v 0.048181 0.251082 0.977360
v 0.075628 0.216365 0.973586
vt 0.500000 0.000000
vt 0.500000 1.000000
vt 0.700000 0.666667
vt 0.700000 0.333333
vt 0.300000 0.333333
vt 0.300000 0.666667
vn 0.3739 0.1971 0.9063
s off
mtllib leafwood.mtl
usemtl Leaves
f 1/1/1 2/2/1 5/3/1 4/4/1
f 1/1/1 3/5/1 6/6/1 2/2/1
