# Blender v3.4.0 OBJ File: 'apple_tree6_sapling.blend'
# www.blender.org
o leaves.364
v 0.107236 0.080053 2.289227
v 0.087079 0.035385 2.290899
v 0.121915 -0.045071 2.295492
v 0.137179 0.041305 2.291732
v 0.142072 -0.000403 2.293820
v 0.091972 -0.006322 2.292988
vt 0.500000 0.000000
vt 0.300000 0.333333
vt 0.300000 0.666667
vt 0.500000 1.000000
vt 0.700000 0.666667
vt 0.700000 0.333333
vn -0.0222 0.0474 0.9986
s off
mtllib leafwood.mtl
usemtl Leaves
f 1/1/1 2/2/1 6/3/1 3/4/1
f 1/1/1 3/4/1 5/5/1 4/6/1
