# Blender v3.4.0 OBJ File: 'apple_tree6_sapling.blend'
# www.blender.org
o leaves.292
v 0.025365 0.303324 1.910887
v 0.063100 0.342500 1.910887
v 0.077690 0.288464 1.910887
v 0.160455 0.339800 1.910887
v 0.122720 0.300623 1.910887
v 0.108130 0.354659 1.910887
vt 0.500000 0.000000
vt 0.500000 1.000000
vt 0.700000 0.666667
vt 0.700000 0.333333
vt 0.300000 0.333333
vt 0.300000 0.666667
vn -0.0000 0.0000 1.0000
s off
mtllib leafwood.mtl
usemtl Leaves
f 1/1/1 4/2/1 6/3/1 2/4/1
f 1/1/1 3/5/1 5/6/1 4/2/1
