# Blender v3.4.0 OBJ File: 'apple_tree6_sapling.blend'
# www.blender.org
o leaves.260
v 0.128105 0.127392 1.533308
v 0.155516 0.149102 1.554366
v 0.179656 0.217749 1.547579
v 0.135062 0.165920 1.521764
v 0.152246 0.196040 1.526521
v 0.172700 0.179221 1.559123
vt 0.500000 0.000000
vt 0.300000 0.333333
vt 0.300000 0.666667
vt 0.500000 1.000000
vt 0.700000 0.666667
vt 0.700000 0.333333
vn -0.7224 0.3149 0.6157
s off
mtllib leafwood.mtl
usemtl Leaves
f 1/1/1 2/2/1 6/3/1 3/4/1
f 1/1/1 3/4/1 5/5/1 4/6/1
