# Blender v3.4.0 OBJ File: 'apple_tree6_sapling.blend'
# www.blender.org
o leaves.360
v 0.102029 0.083972 2.279428
v 0.090720 0.038574 2.274426
v 0.137496 -0.030810 2.264683
v 0.136983 0.052847 2.274599
v 0.148805 0.014587 2.269684
v 0.102542 0.000314 2.269511
vt 0.500000 0.000000
vt 0.300000 0.333333
vt 0.300000 0.666667
vt 0.500000 1.000000
vt 0.700000 0.666667
vt 0.700000 0.333333
vn 0.0325 -0.1174 0.9925
s off
mtllib leafwood.mtl
usemtl Leaves
f 1/1/1 2/2/1 6/3/1 3/4/1
f 1/1/1 3/4/1 5/5/1 4/6/1
