# Blender v3.4.0 OBJ File: 'apple_tree6_sapling.blend'
# www.blender.org
o leaves.241
v 0.100197 0.167928 1.515549
v 0.085755 0.220162 1.526212
v 0.009333 0.259471 1.575147
v 0.054063 0.176722 1.544617
v 0.023775 0.207237 1.564483
v 0.055467 0.250676 1.546078
vt 0.500000 0.000000
vt 0.300000 0.333333
vt 0.300000 0.666667
vt 0.500000 1.000000
vt 0.700000 0.666667
vt 0.700000 0.333333
vn 0.5292 -0.0268 0.8480
vn 0.5292 -0.0268 0.8481
s off
mtllib leafwood.mtl
usemtl Leaves
f 1/1/1 2/2/1 6/3/1 3/4/1
f 1/1/2 3/4/2 5/5/2 4/6/2
