# Blender v3.4.0 OBJ File: 'apple_tree6_sapling.blend'
# www.blender.org
o leaves.056
v 0.106296 0.103597 0.751633
v 0.144513 0.109463 0.869995
v 0.107596 0.127519 0.793691
v 0.130473 0.083585 0.788482
v 0.143212 0.085541 0.827936
v 0.120335 0.129475 0.833145
vt 0.500000 0.000000
vt 0.500000 1.000000
vt 0.700000 0.666667
vt 0.700000 0.333333
vt 0.300000 0.333333
vt 0.300000 0.666667
vn -0.8336 -0.4687 0.2924
s off
mtllib leafwood.mtl
usemtl Leaves
f 1/1/1 2/2/1 6/3/1 3/4/1
f 1/1/1 4/5/1 5/6/1 2/2/1
