# Blender v3.4.0 OBJ File: 'apple_tree6_sapling.blend'
# www.blender.org
o leaves.358
v 0.099262 0.086055 2.274219
v 0.127929 0.129549 2.273127
v 0.217921 0.145022 2.254021
v 0.149701 0.081872 2.261846
v 0.189254 0.101528 2.255113
v 0.167482 0.149204 2.266395
vt 0.500000 0.000000
vt 0.500000 1.000000
vt 0.700000 0.666667
vt 0.700000 0.333333
vt 0.300000 0.333333
vt 0.300000 0.666667
vn 0.2266 -0.1251 0.9659
s off
mtllib leafwood.mtl
usemtl Leaves
f 1/1/1 3/2/1 6/3/1 2/4/1
f 1/1/1 4/5/1 5/6/1 3/2/1
