# Blender v3.4.0 OBJ File: 'apple_tree6_sapling.blend'
# www.blender.org
o leaves.055
v 0.104197 0.101774 0.750554
v 0.142550 0.076855 0.759725
v 0.203742 0.086363 0.815770
v 0.132207 0.116418 0.784861
v 0.165389 0.111281 0.806599
v 0.175731 0.071718 0.781463
vt 0.500000 0.000000
vt 0.300000 0.333333
vt 0.300000 0.666667
vt 0.500000 1.000000
vt 0.700000 0.666667
vt 0.700000 0.333333
vn -0.5152 -0.5515 0.6561
s off
mtllib leafwood.mtl
usemtl Leaves
f 1/1/1 2/2/1 6/3/1 3/4/1
f 1/1/1 3/4/1 5/5/1 4/6/1
