# Blender v3.4.0 OBJ File: 'apple_tree6_sapling.blend'
# www.blender.org
o leaves.157
v 0.203663 -0.045871 1.173104
v 0.250366 -0.051125 1.175564
v 0.313638 0.004436 1.178686
v 0.230278 -0.007079 1.174365
v 0.266936 0.009690 1.176226
v 0.287024 -0.034356 1.177425
vt 0.500000 0.000000
vt 0.300000 0.333333
vt 0.300000 0.666667
vt 0.500000 1.000000
vt 0.700000 0.666667
vt 0.700000 0.333333
vn -0.0522 0.0034 0.9986
s off
mtllib leafwood.mtl
usemtl Leaves
f 1/1/1 2/2/1 6/3/1 3/4/1
f 1/1/1 3/4/1 5/5/1 4/6/1
