# Blender v3.4.0 OBJ File: 'apple_tree6_sapling.blend'
# www.blender.org
o leaves.240
v -0.026437 0.164170 1.560290
v -0.020374 0.203622 1.581511
v -0.072169 0.260480 1.606726
v -0.062987 0.188925 1.570027
v -0.078231 0.221028 1.585505
v -0.035618 0.235725 1.596990
vt 0.500000 0.000000
vt 0.300000 0.333333
vt 0.300000 0.666667
vt 0.500000 1.000000
vt 0.700000 0.666667
vt 0.700000 0.333333
vn -0.0783 -0.4629 0.8829
s off
mtllib leafwood.mtl
usemtl Leaves
f 1/1/1 2/2/1 6/3/1 3/4/1
f 1/1/1 3/4/1 5/5/1 4/6/1
