# Blender v3.4.0 OBJ File: 'apple_tree6_sapling.blend'
# www.blender.org
o leaves.218
v -0.170010 -0.050104 1.386278
v -0.207674 -0.032235 1.390523
v -0.276269 -0.060795 1.400934
v -0.203185 -0.075100 1.391804
v -0.238605 -0.078664 1.396690
v -0.243094 -0.035799 1.395408
vt 0.500000 0.000000
vt 0.300000 0.333333
vt 0.300000 0.666667
vt 0.500000 1.000000
vt 0.700000 0.666667
vt 0.700000 0.333333
vn 0.1322 0.0434 0.9903
vn 0.1322 0.0435 0.9903
s off
mtllib leafwood.mtl
usemtl Leaves
f 1/1/1 2/2/1 6/3/1 3/4/1
f 1/1/2 3/4/2 5/5/2 4/6/2
