# Blender v3.4.0 OBJ File: 'apple_tree6_sapling.blend'
# www.blender.org
o leaves.338
v 0.142929 -0.123259 2.210172
v 0.171902 -0.155625 2.222925
v 0.252880 -0.158673 2.225030
v 0.187256 -0.114502 2.207324
v 0.223907 -0.126307 2.212277
v 0.208553 -0.167430 2.227878
vt 0.500000 0.000000
vt 0.300000 0.333333
vt 0.300000 0.666667
vt 0.500000 1.000000
vt 0.700000 0.666667
vt 0.700000 0.333333
vn -0.0108 0.3582 0.9336
s off
mtllib leafwood.mtl
usemtl Leaves
f 1/1/1 2/2/1 6/3/1 3/4/1
f 1/1/1 3/4/1 5/5/1 4/6/1
