# Blender v3.4.0 OBJ File: 'apple_tree6_sapling.blend'
# www.blender.org
o leaves.017
v -0.213455 0.107605 0.719134
v -0.196018 0.210691 0.754222
v -0.227254 0.148031 0.722762
v -0.188031 0.135904 0.738898
v -0.182219 0.170266 0.750594
v -0.221442 0.182393 0.734458
vt 0.500000 0.000000
vt 0.500000 1.000000
vt 0.700000 0.666667
vt 0.700000 0.333333
vt 0.300000 0.333333
vt 0.300000 0.666667
vn -0.4294 -0.2251 0.8746
s off
mtllib leafwood.mtl
usemtl Leaves
f 1/1/1 2/2/1 6/3/1 3/4/1
f 1/1/1 4/5/1 5/6/1 2/2/1
