# Blender v3.4.0 OBJ File: 'apple_tree6_sapling.blend'
# www.blender.org
o leaves.176
v 0.162308 0.127614 1.145201
v 0.182282 0.147500 1.172999
v 0.161307 0.190549 1.225257
v 0.141667 0.149685 1.170774
v 0.141334 0.170663 1.197459
v 0.181949 0.168479 1.199684
vt 0.500000 0.000000
vt 0.300000 0.333333
vt 0.300000 0.666667
vt 0.500000 1.000000
vt 0.700000 0.666667
vt 0.700000 0.333333
vn -0.0759 -0.7843 0.6157
s off
mtllib leafwood.mtl
usemtl Leaves
f 1/1/1 2/2/1 6/3/1 3/4/1
f 1/1/1 3/4/1 5/5/1 4/6/1
