# Blender v3.4.0 OBJ File: 'apple_tree6_sapling.blend'
# www.blender.org
o leaves.208
v -0.180878 -0.098697 1.372957
v -0.216453 -0.069625 1.396297
v -0.305408 -0.084161 1.416017
v -0.228323 -0.118078 1.378324
v -0.269833 -0.113233 1.392677
v -0.257963 -0.064780 1.410650
vt 0.500000 0.000000
vt 0.300000 0.333333
vt 0.300000 0.666667
vt 0.500000 1.000000
vt 0.700000 0.666667
vt 0.700000 0.333333
vn 0.2596 -0.3911 0.8829
s off
mtllib leafwood.mtl
usemtl Leaves
f 1/1/1 2/2/1 6/3/1 3/4/1
f 1/1/1 3/4/1 5/5/1 4/6/1
