# Blender v3.4.0 OBJ File: 'apple_tree6_sapling.blend'
# www.blender.org
o leaves.175
v 0.160647 0.125114 1.144512
v 0.176462 0.160760 1.141168
v 0.153105 0.220249 1.112413
v 0.139804 0.152891 1.126457
v 0.137290 0.184603 1.115757
v 0.173948 0.192472 1.130468
vt 0.500000 0.000000
vt 0.300000 0.333333
vt 0.300000 0.666667
vt 0.500000 1.000000
vt 0.700000 0.666667
vt 0.700000 0.333333
vn -0.4074 0.2628 0.8746
s off
mtllib leafwood.mtl
usemtl Leaves
f 1/1/1 2/2/1 6/3/1 3/4/1
f 1/1/1 3/4/1 5/5/1 4/6/1
