# Blender v3.4.0 OBJ File: 'apple_tree6_sapling.blend'
# www.blender.org
o leaves.284
v 0.173604 -0.106692 1.803544
v 0.198025 -0.134259 1.794648
v 0.260083 -0.133240 1.767266
v 0.206836 -0.096823 1.788255
v 0.235662 -0.105673 1.776162
v 0.226851 -0.143108 1.782555
vt 0.500000 0.000000
vt 0.300000 0.333333
vt 0.300000 0.666667
vt 0.500000 1.000000
vt 0.700000 0.666667
vt 0.700000 0.333333
vn 0.4021 0.0614 0.9135
s off
mtllib leafwood.mtl
usemtl Leaves
f 1/1/1 2/2/1 6/3/1 3/4/1
f 1/1/1 3/4/1 5/5/1 4/6/1
