# Blender v3.4.0 OBJ File: 'apple_tree6_sapling.blend'
# www.blender.org
o leaves.180
v 0.036959 0.201851 1.277734
v -0.010916 0.215335 1.283527
v 0.024479 0.249317 1.267800
v -0.053575 0.293276 1.271524
v -0.005699 0.279792 1.265730
v -0.041094 0.245810 1.281457
vt 0.500000 0.000000
vt 0.500000 1.000000
vt 0.700000 0.666667
vt 0.700000 0.333333
vt 0.300000 0.333333
vt 0.300000 0.666667
vn 0.1848 0.2476 0.9511
s off
mtllib leafwood.mtl
usemtl Leaves
f 1/1/1 4/2/1 6/3/1 2/4/1
f 1/1/1 3/5/1 5/6/1 4/2/1
