# Blender v3.4.0 OBJ File: 'apple_tree6_sapling.blend'
# www.blender.org
o leaves.028
v -0.195154 -0.008931 0.646472
v -0.232393 -0.014101 0.669329
v -0.278148 -0.076815 0.682733
v -0.213245 -0.049017 0.647789
v -0.240909 -0.071645 0.659876
v -0.260058 -0.036729 0.681416
vt 0.500000 0.000000
vt 0.300000 0.333333
vt 0.300000 0.666667
vt 0.500000 1.000000
vt 0.700000 0.666667
vt 0.700000 0.333333
vn 0.5324 -0.2134 0.8192
s off
mtllib leafwood.mtl
usemtl Leaves
f 1/1/1 2/2/1 6/3/1 3/4/1
f 1/1/1 3/4/1 5/5/1 4/6/1
