# Blender v3.4.0 OBJ File: 'apple_tree6_sapling.blend'
# www.blender.org
o leaves.339
v 0.103121 -0.124021 2.142420
v 0.222220 -0.187387 2.166381
v 0.156223 -0.121684 2.145826
v 0.129417 -0.168602 2.154988
v 0.169117 -0.189724 2.162975
v 0.195923 -0.142806 2.153813
vt 0.500000 0.000000
vt 0.500000 1.000000
vt 0.700000 0.666667
vt 0.700000 0.333333
vt 0.300000 0.333333
vt 0.300000 0.666667
vn -0.0724 0.2308 0.9703
s off
mtllib leafwood.mtl
usemtl Leaves
f 1/1/1 2/2/1 6/3/1 3/4/1
f 1/1/1 4/5/1 5/6/1 2/2/1
