# Blender v3.4.0 OBJ File: 'apple_tree6_sapling.blend'
# www.blender.org
o leaves.078
v -0.116546 0.192358 0.794922
v -0.076881 0.200946 0.789955
v -0.040435 0.264202 0.784503
v -0.105471 0.231667 0.792942
v -0.080100 0.255615 0.789470
v -0.051511 0.224894 0.786483
vt 0.500000 0.000000
vt 0.300000 0.333333
vt 0.300000 0.666667
vt 0.500000 1.000000
vt 0.700000 0.666667
vt 0.700000 0.333333
vn 0.1208 0.0159 0.9925
s off
mtllib leafwood.mtl
usemtl Leaves
f 1/1/1 2/2/1 6/3/1 3/4/1
f 1/1/1 3/4/1 5/5/1 4/6/1
