# Blender v3.4.0 OBJ File: 'apple_tree6_sapling.blend'
# www.blender.org
o leaves.329
v 0.132592 -0.113641 2.189145
v 0.091813 -0.150657 2.198252
v 0.089010 -0.250418 2.192820
v 0.144317 -0.167810 2.182488
v 0.129789 -0.213403 2.183712
v 0.077285 -0.196250 2.199477
vt 0.500000 0.000000
vt 0.300000 0.333333
vt 0.300000 0.666667
vt 0.500000 1.000000
vt 0.700000 0.666667
vt 0.700000 0.333333
vn 0.2691 -0.0599 0.9613
vn 0.2690 -0.0599 0.9613
s off
mtllib leafwood.mtl
usemtl Leaves
f 1/1/1 2/2/1 6/3/1 3/4/1
f 1/1/2 3/4/2 5/5/2 4/6/2
