# Blender v3.4.0 OBJ File: 'apple_tree6_sapling.blend'
# www.blender.org
o leaves.194
v -0.098835 0.196781 1.245283
v -0.115825 0.236147 1.276244
v -0.135142 0.185607 1.282079
v -0.178780 0.239070 1.346919
v -0.142473 0.250244 1.310123
v -0.161790 0.199703 1.315958
vt 0.500000 0.000000
vt 0.300000 0.333333
vt 0.300000 0.666667
vt 0.500000 1.000000
vt 0.700000 0.666667
vt 0.700000 0.333333
vn 0.7271 -0.2022 0.6561
s off
mtllib leafwood.mtl
usemtl Leaves
f 1/1/1 2/2/1 5/3/1 4/4/1
f 1/1/1 4/4/1 6/5/1 3/6/1
