# Blender v3.4.0 OBJ File: 'apple_tree6_sapling.blend'
# www.blender.org
o leaves.089
v -0.187679 0.191084 0.771555
v -0.154303 0.228589 0.774959
v -0.163853 0.318027 0.780198
v -0.205170 0.238207 0.773913
v -0.197229 0.280522 0.776794
v -0.146361 0.270903 0.777840
vt 0.500000 0.000000
vt 0.300000 0.333333
vt 0.300000 0.666667
vt 0.500000 1.000000
vt 0.700000 0.666667
vt 0.700000 0.333333
vn -0.0322 -0.0619 0.9976
s off
mtllib leafwood.mtl
usemtl Leaves
f 1/1/1 2/2/1 6/3/1 3/4/1
f 1/1/1 3/4/1 5/5/1 4/6/1
