# Blender v3.4.0 OBJ File: 'apple_tree6_sapling.blend'
# www.blender.org
o leaves.164
v 0.142876 0.047062 1.145165
v 0.180657 0.045665 1.115587
v 0.234887 0.106390 1.088048
v 0.166436 0.088011 1.136665
v 0.197106 0.107787 1.117626
v 0.211327 0.065441 1.096549
vt 0.500000 0.000000
vt 0.300000 0.333333
vt 0.300000 0.666667
vt 0.500000 1.000000
vt 0.700000 0.666667
vt 0.700000 0.333333
vn 0.6016 -0.1848 0.7771
s off
mtllib leafwood.mtl
usemtl Leaves
f 1/1/1 2/2/1 6/3/1 3/4/1
f 1/1/1 3/4/1 5/5/1 4/6/1
