# Blender v3.4.0 OBJ File: 'apple_tree6_sapling.blend'
# www.blender.org
o leaves.084
v -0.178028 0.179917 0.770984
v -0.128860 0.306543 0.762761
v -0.140898 0.213089 0.753113
v -0.182380 0.231161 0.783373
v -0.165990 0.273370 0.780632
v -0.124509 0.255298 0.750372
vt 0.500000 0.000000
vt 0.500000 1.000000
vt 0.700000 0.666667
vt 0.700000 0.333333
vt 0.300000 0.333333
vt 0.300000 0.666667
vn 0.5373 -0.1548 0.8290
s off
mtllib leafwood.mtl
usemtl Leaves
f 1/1/1 2/2/1 5/3/1 4/4/1
f 1/1/1 3/5/1 6/6/1 2/2/1
