# Blender v3.4.0 OBJ File: 'apple_tree6_sapling.blend'
# www.blender.org
o leaves.051
v -0.121847 -0.097096 0.778575
v -0.159002 -0.068514 0.770220
v -0.238663 -0.084043 0.744114
v -0.162570 -0.116977 0.763956
v -0.201508 -0.112626 0.752469
v -0.197941 -0.064163 0.758733
vt 0.500000 0.000000
vt 0.300000 0.333333
vt 0.300000 0.666667
vt 0.500000 1.000000
vt 0.700000 0.666667
vt 0.700000 0.333333
vn -0.2919 -0.1014 0.9511
s off
mtllib leafwood.mtl
usemtl Leaves
f 1/1/1 2/2/1 6/3/1 3/4/1
f 1/1/1 3/4/1 5/5/1 4/6/1
