# Blender v3.4.0 OBJ File: 'apple_tree6_sapling.blend'
# www.blender.org
o leaves.370
v -0.058100 0.104299 2.566636
v -0.072728 0.153973 2.576080
v -0.157285 0.195028 2.582942
v -0.109595 0.115111 2.568063
v -0.142657 0.145354 2.573498
v -0.105790 0.184216 2.581515
vt 0.500000 0.000000
vt 0.300000 0.333333
vt 0.300000 0.666667
vt 0.500000 1.000000
vt 0.700000 0.666667
vt 0.700000 0.333333
vn -0.0128 -0.1904 0.9816
s off
mtllib leafwood.mtl
usemtl Leaves
f 1/1/1 2/2/1 6/3/1 3/4/1
f 1/1/1 3/4/1 5/5/1 4/6/1
