# Blender v3.4.0 OBJ File: 'apple_tree6_sapling.blend'
# www.blender.org
o leaves.048
v -0.117433 -0.096544 0.770962
v -0.157677 -0.086267 0.753927
v -0.231673 -0.113414 0.769694
v -0.153350 -0.118067 0.787152
v -0.191429 -0.123690 0.786729
v -0.195756 -0.091890 0.753504
vt 0.500000 0.000000
vt 0.300000 0.333333
vt 0.300000 0.666667
vt 0.500000 1.000000
vt 0.700000 0.666667
vt 0.700000 0.333333
vn -0.1126 0.7105 0.6947
s off
mtllib leafwood.mtl
usemtl Leaves
f 1/1/1 2/2/1 6/3/1 3/4/1
f 1/1/1 3/4/1 5/5/1 4/6/1
