# Blender v3.4.0 OBJ File: 'apple_tree6_sapling.blend'
# www.blender.org
o leaves.064
v 0.157329 0.075548 0.763915
v 0.201713 0.079762 0.765097
v 0.249882 0.143209 0.759501
v 0.174646 0.116441 0.759790
v 0.205497 0.138995 0.758319
v 0.232564 0.102316 0.763626
vt 0.500000 0.000000
vt 0.300000 0.333333
vt 0.300000 0.666667
vt 0.500000 1.000000
vt 0.700000 0.666667
vt 0.700000 0.333333
vn -0.0374 0.1160 0.9925
s off
mtllib leafwood.mtl
usemtl Leaves
f 1/1/1 2/2/1 6/3/1 3/4/1
f 1/1/1 3/4/1 5/5/1 4/6/1
