# Blender v3.4.0 OBJ File: 'apple_tree6_sapling.blend'
# www.blender.org
o leaves.075
v -0.118758 0.179497 0.789965
v -0.068824 0.184660 0.791692
v -0.014900 0.255883 0.781297
v -0.099453 0.225257 0.782459
v -0.064834 0.250719 0.779570
v -0.034205 0.210122 0.788802
vt 0.500000 0.000000
vt 0.300000 0.333333
vt 0.300000 0.666667
vt 0.500000 1.000000
vt 0.700000 0.666667
vt 0.700000 0.333333
vn -0.0529 0.1833 0.9816
s off
mtllib leafwood.mtl
usemtl Leaves
f 1/1/1 2/2/1 6/3/1 3/4/1
f 1/1/1 3/4/1 5/5/1 4/6/1
