# Blender v3.4.0 OBJ File: 'apple_tree6_sapling.blend'
# www.blender.org
o leaves.158
v 0.206032 -0.046499 1.174229
v 0.224735 -0.067804 1.141864
v 0.286731 -0.113429 1.138749
v 0.241128 -0.069814 1.182941
v 0.268028 -0.092124 1.171114
v 0.251634 -0.090114 1.130037
vt 0.500000 0.000000
vt 0.300000 0.333333
vt 0.300000 0.666667
vt 0.500000 1.000000
vt 0.700000 0.666667
vt 0.700000 0.333333
vn -0.5756 -0.7952 0.1908
s off
mtllib leafwood.mtl
usemtl Leaves
f 1/1/1 2/2/1 6/3/1 3/4/1
f 1/1/1 3/4/1 5/5/1 4/6/1
