# Blender v3.4.0 OBJ File: 'apple_tree6_sapling.blend'
# www.blender.org
o leaves.114
v 0.171551 0.108974 0.901810
v 0.233114 0.214408 0.853589
v 0.214290 0.130265 0.883810
v 0.169854 0.157973 0.887663
v 0.190375 0.193117 0.871589
v 0.234811 0.165409 0.867736
vt 0.500000 0.000000
vt 0.500000 1.000000
vt 0.700000 0.666667
vt 0.700000 0.333333
vt 0.300000 0.333333
vt 0.300000 0.666667
vn 0.2528 0.2765 0.9272
s off
mtllib leafwood.mtl
usemtl Leaves
f 1/1/1 2/2/1 5/3/1 4/4/1
f 1/1/1 3/5/1 6/6/1 2/2/1
