# Blender v3.4.0 OBJ File: 'apple_tree6_sapling.blend'
# www.blender.org
o leaves.304
v -0.129231 0.092143 2.065094
v -0.149699 0.100591 2.033931
v -0.161936 0.073194 2.059370
v -0.208993 0.076391 2.009762
v -0.188524 0.067943 2.040926
v -0.176287 0.095341 2.015487
vt 0.500000 0.000000
vt 0.300000 0.333333
vt 0.300000 0.666667
vt 0.500000 1.000000
vt 0.700000 0.666667
vt 0.700000 0.333333
vn -0.4954 0.6995 0.5150
s off
mtllib leafwood.mtl
usemtl Leaves
f 1/1/1 2/2/1 6/3/1 4/4/1
f 1/1/1 4/4/1 5/5/1 3/6/1
