# Blender v3.4.0 OBJ File: 'apple_tree6_sapling.blend'
# www.blender.org
o leaves.287
v 0.001401 0.179447 1.847404
v 0.115842 0.260886 1.849706
v 0.055840 0.183704 1.848002
v 0.023256 0.229482 1.848340
v 0.061403 0.256629 1.849107
v 0.093987 0.210850 1.848770
vt 0.500000 0.000000
vt 0.500000 1.000000
vt 0.700000 0.666667
vt 0.700000 0.333333
vt 0.300000 0.333333
vt 0.300000 0.666667
vn -0.0099 -0.0144 0.9998
s off
mtllib leafwood.mtl
usemtl Leaves
f 1/1/1 2/2/1 5/3/1 4/4/1
f 1/1/1 3/5/1 6/6/1 2/2/1
