# Blender v3.4.0 OBJ File: 'apple_tree6_sapling.blend'
# www.blender.org
o leaves.303
v -0.128629 0.090383 2.060270
v -0.195648 0.193267 2.072664
v -0.171602 0.111151 2.065116
v -0.130335 0.138205 2.063686
v -0.152675 0.172500 2.067818
v -0.193942 0.145446 2.069248
vt 0.500000 0.000000
vt 0.500000 1.000000
vt 0.700000 0.666667
vt 0.700000 0.333333
vt 0.300000 0.333333
vt 0.300000 0.666667
vn 0.0792 -0.0682 0.9945
s off
mtllib leafwood.mtl
usemtl Leaves
f 1/1/1 2/2/1 6/3/1 3/4/1
f 1/1/1 4/5/1 5/6/1 2/2/1
