# Blender v3.4.0 OBJ File: 'apple_tree6_sapling.blend'
# www.blender.org
o leaves.105
v 0.242532 0.039836 1.010975
v 0.274086 0.012835 1.034034
v 0.354954 -0.007617 1.017427
v 0.285926 0.035201 0.992217
v 0.323400 0.019384 0.994367
v 0.311560 -0.002982 1.036185
vt 0.500000 0.000000
vt 0.300000 0.333333
vt 0.300000 0.666667
vt 0.500000 1.000000
vt 0.700000 0.666667
vt 0.700000 0.333333
vn 0.3081 0.7999 0.5150
s off
mtllib leafwood.mtl
usemtl Leaves
f 1/1/1 2/2/1 6/3/1 3/4/1
f 1/1/1 3/4/1 5/5/1 4/6/1
