# Blender v3.4.0 OBJ File: 'apple_tree6_sapling.blend'
# www.blender.org
o leaves.273
v -0.202336 -0.109948 1.675355
v -0.237588 -0.123990 1.688755
v -0.258268 -0.188992 1.711972
v -0.204371 -0.148601 1.686367
v -0.223015 -0.174949 1.698572
v -0.256232 -0.150338 1.700960
vt 0.500000 0.000000
vt 0.300000 0.333333
vt 0.300000 0.666667
vt 0.500000 1.000000
vt 0.700000 0.666667
vt 0.700000 0.333333
vn 0.2542 0.2526 0.9336
vn 0.2543 0.2526 0.9336
s off
mtllib leafwood.mtl
usemtl Leaves
f 1/1/1 2/2/1 6/3/1 3/4/1
f 1/1/2 3/4/2 5/5/2 4/6/2
