# Blender v3.4.0 OBJ File: 'apple_tree6_sapling.blend'
# www.blender.org
o leaves.297
v 0.029361 0.314436 1.919152
v 0.040329 0.362329 1.913937
v -0.009975 0.435066 1.911635
v -0.007831 0.346962 1.919355
v -0.020943 0.387173 1.916849
v 0.027217 0.402539 1.911432
vt 0.500000 0.000000
vt 0.300000 0.333333
vt 0.300000 0.666667
vt 0.500000 1.000000
vt 0.700000 0.666667
vt 0.700000 0.333333
vn 0.0833 0.0890 0.9925
vn 0.0832 0.0890 0.9925
s off
mtllib leafwood.mtl
usemtl Leaves
f 1/1/1 2/2/1 6/3/1 3/4/1
f 1/1/2 3/4/2 5/5/2 4/6/2
