# Blender v3.4.0 OBJ File: 'apple_tree6_sapling.blend'
# www.blender.org
o leaves.014
v -0.208431 0.103211 0.714123
v -0.239347 0.112621 0.750483
v -0.326331 0.114590 0.754494
v -0.256115 0.101386 0.704677
v -0.295415 0.105179 0.718135
v -0.278646 0.116414 0.763940
vt 0.500000 0.000000
vt 0.300000 0.333333
vt 0.300000 0.666667
vt 0.500000 1.000000
vt 0.700000 0.666667
vt 0.700000 0.333333
vn -0.0108 -0.9702 0.2419
s off
mtllib leafwood.mtl
usemtl Leaves
f 1/1/1 2/2/1 6/3/1 3/4/1
f 1/1/1 3/4/1 5/5/1 4/6/1
