# Blender v3.4.0 OBJ File: 'apple_tree6_sapling.blend'
# www.blender.org
o leaves.182
v 0.039055 0.206042 1.280741
v 0.054465 0.230919 1.241953
v 0.032328 0.308567 1.209561
v 0.019160 0.249516 1.272076
v 0.016918 0.283691 1.248350
v 0.052223 0.265094 1.218226
vt 0.500000 0.000000
vt 0.300000 0.333333
vt 0.300000 0.666667
vt 0.500000 1.000000
vt 0.700000 0.666667
vt 0.700000 0.333333
vn 0.7060 0.4345 0.5592
s off
mtllib leafwood.mtl
usemtl Leaves
f 1/1/1 2/2/1 6/3/1 3/4/1
f 1/1/1 3/4/1 5/5/1 4/6/1
