# Blender v3.4.0 OBJ File: 'apple_tree6_sapling.blend'
# www.blender.org
o leaves.196
v -0.101762 0.201451 1.246079
v -0.228508 0.206962 1.240876
v -0.142612 0.213575 1.221169
v -0.145409 0.193001 1.267521
v -0.187659 0.194838 1.265786
v -0.184861 0.215412 1.219434
vt 0.500000 0.000000
vt 0.500000 1.000000
vt 0.700000 0.666667
vt 0.700000 0.333333
vt 0.300000 0.333333
vt 0.300000 0.666667
vn 0.0230 0.9133 0.4067
s off
mtllib leafwood.mtl
usemtl Leaves
f 1/1/1 2/2/1 5/3/1 4/4/1
f 1/1/1 3/5/1 6/6/1 2/2/1
