# Blender v3.4.0 OBJ File: 'apple_tree6_sapling.blend'
# www.blender.org
o leaves.367
v 0.111277 0.077011 2.296834
v 0.136016 0.043125 2.294717
v 0.109350 0.049135 2.328202
v 0.145496 -0.015630 2.340711
v 0.147422 0.012245 2.309343
v 0.120757 0.018255 2.342829
vt 0.500000 0.000000
vt 0.500000 1.000000
vt 0.700000 0.666667
vt 0.700000 0.333333
vt 0.300000 0.333333
vt 0.300000 0.666667
vn 0.7205 0.4958 0.4848
s off
mtllib leafwood.mtl
usemtl Leaves
f 1/1/1 4/2/1 5/3/1 2/4/1
f 1/1/1 3/5/1 6/6/1 4/2/1
