# Blender v3.4.0 OBJ File: 'apple_tree6_sapling.blend'
# www.blender.org
o leaves.249
v 0.026566 0.178913 1.537341
v 0.032162 0.227128 1.515383
v -0.028704 0.284029 1.468947
v -0.015878 0.200776 1.513703
v -0.034301 0.235814 1.490905
v 0.013739 0.262166 1.492585
vt 0.500000 0.000000
vt 0.300000 0.333333
vt 0.300000 0.666667
vt 0.500000 1.000000
vt 0.700000 0.666667
vt 0.700000 0.333333
vn -0.2634 0.4250 0.8660
s off
mtllib leafwood.mtl
usemtl Leaves
f 1/1/1 2/2/1 6/3/1 3/4/1
f 1/1/1 3/4/1 5/5/1 4/6/1
