# Blender v3.4.0 OBJ File: 'apple_tree6_sapling.blend'
# www.blender.org
o leaves.146
v -0.216777 -0.169030 1.160413
v -0.255033 -0.183502 1.179101
v -0.296603 -0.252028 1.171423
v -0.231738 -0.209890 1.149065
v -0.258347 -0.237556 1.152735
v -0.281641 -0.211168 1.182771
vt 0.500000 0.000000
vt 0.300000 0.333333
vt 0.300000 0.666667
vt 0.500000 1.000000
vt 0.700000 0.666667
vt 0.700000 0.333333
vn 0.5200 -0.4000 0.7547
s off
mtllib leafwood.mtl
usemtl Leaves
f 1/1/1 2/2/1 6/3/1 3/4/1
f 1/1/1 3/4/1 5/5/1 4/6/1
