# Blender v3.4.0 OBJ File: 'apple_tree6_sapling.blend'
# www.blender.org
o leaves.336
v 0.140689 -0.121175 2.205616
v 0.184608 -0.126880 2.191234
v 0.218877 -0.176721 2.133853
v 0.148896 -0.152501 2.172156
v 0.174958 -0.171016 2.148235
v 0.210670 -0.145395 2.167313
vt 0.500000 0.000000
vt 0.500000 1.000000
vt 0.700000 0.666667
vt 0.700000 0.333333
vt 0.300000 0.333333
vt 0.300000 0.666667
vn 0.1357 -0.7064 0.6947
s off
mtllib leafwood.mtl
usemtl Leaves
f 1/1/1 3/2/1 6/3/1 2/4/1
f 1/1/1 4/5/1 5/6/1 3/2/1
