# Blender v3.4.0 OBJ File: 'apple_tree6_sapling.blend'
# www.blender.org
o leaves.366
v 0.109921 0.078032 2.294282
v 0.150353 0.060662 2.286892
v 0.113874 0.046700 2.262758
v 0.176499 0.004980 2.235912
v 0.136067 0.022350 2.243301
v 0.172546 0.036312 2.267436
vt 0.500000 0.000000
vt 0.500000 1.000000
vt 0.700000 0.666667
vt 0.700000 0.333333
vt 0.300000 0.333333
vt 0.300000 0.666667
vn -0.1799 -0.7089 0.6820
s off
mtllib leafwood.mtl
usemtl Leaves
f 1/1/1 4/2/1 6/3/1 2/4/1
f 1/1/1 3/5/1 5/6/1 4/2/1
