# Blender v3.4.0 OBJ File: 'apple_tree6_sapling.blend'
# www.blender.org
o leaves.353
v 0.153592 0.049177 2.214738
v 0.171362 -0.074851 2.208373
v 0.184316 0.011449 2.211416
v 0.134715 0.004220 2.213818
v 0.140639 -0.037123 2.211696
v 0.190239 -0.029893 2.209294
vt 0.500000 0.000000
vt 0.500000 1.000000
vt 0.700000 0.666667
vt 0.700000 0.333333
vt 0.300000 0.333333
vt 0.300000 0.666667
vn 0.0546 -0.0434 0.9976
s off
mtllib leafwood.mtl
usemtl Leaves
f 1/1/1 2/2/1 6/3/1 3/4/1
f 1/1/1 4/5/1 5/6/1 2/2/1
