# Blender v3.4.0 OBJ File: 'apple_tree6_sapling.blend'
# www.blender.org
o leaves.343
v 0.103174 -0.133678 2.145888
v 0.083303 -0.175146 2.156442
v 0.115955 -0.250211 2.177297
v 0.131565 -0.169899 2.156273
v 0.135825 -0.208743 2.166743
v 0.087564 -0.213991 2.166912
vt 0.500000 0.000000
vt 0.300000 0.333333
vt 0.300000 0.666667
vt 0.500000 1.000000
vt 0.700000 0.666667
vt 0.700000 0.333333
vn -0.0246 0.2576 0.9659
s off
mtllib leafwood.mtl
usemtl Leaves
f 1/1/1 2/2/1 6/3/1 3/4/1
f 1/1/1 3/4/1 5/5/1 4/6/1
