# Blender v3.4.0 OBJ File: 'apple_tree6_sapling.blend'
# www.blender.org
o leaves.106
v 0.244006 0.039808 1.013325
v 0.274627 0.007079 1.024235
v 0.287753 0.052544 1.020529
v 0.355558 0.009817 1.040497
v 0.311811 -0.002918 1.033292
v 0.324937 0.042547 1.029587
vt 0.500000 0.000000
vt 0.300000 0.333333
vt 0.300000 0.666667
vt 0.500000 1.000000
vt 0.700000 0.666667
vt 0.700000 0.333333
vn -0.1996 0.1367 0.9703
s off
mtllib leafwood.mtl
usemtl Leaves
f 1/1/1 2/2/1 5/3/1 4/4/1
f 1/1/1 4/4/1 6/5/1 3/6/1
