# Blender v3.4.0 OBJ File: 'apple_tree6_sapling.blend'
# www.blender.org
o leaves.160
v 0.210769 -0.047755 1.176479
v 0.219952 -0.085988 1.167403
v 0.282972 -0.119676 1.156705
v 0.249721 -0.057468 1.172373
v 0.273789 -0.081442 1.165781
v 0.244019 -0.109962 1.160812
vt 0.500000 0.000000
vt 0.300000 0.333333
vt 0.300000 0.666667
vt 0.500000 1.000000
vt 0.700000 0.666667
vt 0.700000 0.333333
vn 0.0479 -0.2198 0.9744
s off
mtllib leafwood.mtl
usemtl Leaves
f 1/1/1 2/2/1 6/3/1 3/4/1
f 1/1/1 3/4/1 5/5/1 4/6/1
