# Blender v3.4.0 OBJ File: 'apple_tree6_sapling.blend'
# www.blender.org
o leaves.126
v -0.032195 0.230871 1.006063
v -0.019248 0.276644 0.991331
v -0.066472 0.344739 0.958420
v -0.067993 0.261010 0.989034
v -0.079418 0.298966 0.973152
v -0.030674 0.314600 0.975450
vt 0.500000 0.000000
vt 0.300000 0.333333
vt 0.300000 0.666667
vt 0.500000 1.000000
vt 0.700000 0.666667
vt 0.700000 0.333333
vn -0.1533 0.3418 0.9272
s off
mtllib leafwood.mtl
usemtl Leaves
f 1/1/1 2/2/1 6/3/1 3/4/1
f 1/1/1 3/4/1 5/5/1 4/6/1
