# Blender v3.4.0 OBJ File: 'apple_tree6_sapling.blend'
# www.blender.org
o leaves.156
v 0.201295 -0.045243 1.171979
v 0.250931 -0.039377 1.170604
v 0.303746 0.031255 1.185976
v 0.219960 -0.000110 1.182686
v 0.254111 0.025389 1.187351
v 0.285081 -0.013878 1.175270
vt 0.500000 0.000000
vt 0.300000 0.333333
vt 0.300000 0.666667
vt 0.500000 1.000000
vt 0.700000 0.666667
vt 0.700000 0.333333
vn 0.0566 -0.2526 0.9659
s off
mtllib leafwood.mtl
usemtl Leaves
f 1/1/1 2/2/1 6/3/1 3/4/1
f 1/1/1 3/4/1 5/5/1 4/6/1
