# Blender v3.4.0 OBJ File: 'apple_tree6_sapling.blend'
# www.blender.org
o leaves.372
v -0.060080 0.106461 2.573707
v -0.043724 0.146468 2.559914
v -0.079006 0.211122 2.525654
v -0.089054 0.136228 2.555464
v -0.095362 0.171115 2.539447
v -0.050033 0.181355 2.543897
vt 0.500000 0.000000
vt 0.300000 0.333333
vt 0.300000 0.666667
vt 0.500000 1.000000
vt 0.700000 0.666667
vt 0.700000 0.333333
vn -0.1758 0.3843 0.9063
s off
mtllib leafwood.mtl
usemtl Leaves
f 1/1/1 2/2/1 6/3/1 3/4/1
f 1/1/1 3/4/1 5/5/1 4/6/1
