# Blender v3.4.0 OBJ File: 'apple_tree6_sapling.blend'
# www.blender.org
o leaves.008
v 0.175017 0.156941 0.662542
v 0.208253 0.130158 0.657766
v 0.268183 0.130060 0.609572
v 0.203892 0.165804 0.632005
v 0.234947 0.156843 0.614348
v 0.239308 0.121197 0.640110
vt 0.500000 0.000000
vt 0.300000 0.333333
vt 0.300000 0.666667
vt 0.500000 1.000000
vt 0.700000 0.666667
vt 0.700000 0.333333
vn 0.5285 0.5388 0.6561
s off
mtllib leafwood.mtl
usemtl Leaves
f 1/1/1 2/2/1 6/3/1 3/4/1
f 1/1/1 3/4/1 5/5/1 4/6/1
