# Blender v3.4.0 OBJ File: 'apple_tree6_sapling.blend'
# www.blender.org
o leaves.112
v 0.253461 0.039634 1.028400
v 0.276697 0.004097 1.031842
v 0.295839 0.043058 1.025760
v 0.351882 -0.008535 1.029603
v 0.309504 -0.011959 1.032243
v 0.328646 0.027002 1.026161
vt 0.500000 0.000000
vt 0.300000 0.333333
vt 0.300000 0.666667
vt 0.500000 1.000000
vt 0.700000 0.666667
vt 0.700000 0.333333
vn 0.0512 0.1294 0.9903
s off
mtllib leafwood.mtl
usemtl Leaves
f 1/1/1 2/2/1 5/3/1 4/4/1
f 1/1/1 4/4/1 6/5/1 3/6/1
