# Blender v3.4.0 OBJ File: 'apple_tree6_sapling.blend'
# www.blender.org
o leaves.256
v 0.118605 0.125821 1.526551
v 0.160936 0.103918 1.540837
v 0.236416 0.136116 1.575516
v 0.154816 0.154586 1.544908
v 0.194086 0.158018 1.561230
v 0.200206 0.107350 1.557159
vt 0.500000 0.000000
vt 0.300000 0.333333
vt 0.300000 0.666667
vt 0.500000 1.000000
vt 0.700000 0.666667
vt 0.700000 0.333333
vn -0.3722 -0.1189 0.9205
s off
mtllib leafwood.mtl
usemtl Leaves
f 1/1/1 2/2/1 6/3/1 3/4/1
f 1/1/1 3/4/1 5/5/1 4/6/1
