# Blender v3.4.0 OBJ File: 'apple_tree6_sapling.blend'
# www.blender.org
o leaves.002
v 0.100104 0.080885 0.625475
v 0.134604 0.110068 0.620853
v 0.137153 0.190787 0.611247
v 0.090304 0.124971 0.620611
v 0.102654 0.161604 0.615869
v 0.146953 0.146702 0.616111
vt 0.500000 0.000000
vt 0.300000 0.333333
vt 0.300000 0.666667
vt 0.500000 1.000000
vt 0.700000 0.666667
vt 0.700000 0.333333
vn 0.0340 0.1170 0.9925
s off
mtllib leafwood.mtl
usemtl Leaves
f 1/1/1 2/2/1 6/3/1 3/4/1
f 1/1/1 3/4/1 5/5/1 4/6/1
