# Blender v3.4.0 OBJ File: 'apple_tree6_sapling.blend'
# www.blender.org
o leaves.010
v 0.178962 0.160144 0.665174
v 0.218267 0.167225 0.665355
v 0.256289 0.227778 0.666464
v 0.191208 0.198152 0.665853
v 0.216984 0.220697 0.666283
v 0.244042 0.189770 0.665785
vt 0.500000 0.000000
vt 0.300000 0.333333
vt 0.300000 0.666667
vt 0.500000 1.000000
vt 0.700000 0.666667
vt 0.700000 0.333333
vn -0.0015 -0.0174 0.9998
s off
mtllib leafwood.mtl
usemtl Leaves
f 1/1/1 2/2/1 6/3/1 3/4/1
f 1/1/1 3/4/1 5/5/1 4/6/1
