# Blender v3.4.0 OBJ File: 'apple_tree6_sapling.blend'
# www.blender.org
o leaves.294
v 0.026987 0.307832 1.914240
v 0.065737 0.329164 1.942215
v 0.086002 0.417883 1.964569
v 0.027580 0.359868 1.919818
v 0.047252 0.396551 1.936594
v 0.085408 0.365847 1.958992
vt 0.500000 0.000000
vt 0.300000 0.333333
vt 0.300000 0.666667
vt 0.500000 1.000000
vt 0.700000 0.666667
vt 0.700000 0.333333
vn -0.5531 -0.0826 0.8290
s off
mtllib leafwood.mtl
usemtl Leaves
f 1/1/1 2/2/1 6/3/1 3/4/1
f 1/1/1 3/4/1 5/5/1 4/6/1
