# Blender v3.4.0 OBJ File: 'apple_tree6_sapling.blend'
# www.blender.org
o leaves.265
v -0.111262 -0.044225 1.623336
v -0.146685 -0.063256 1.623336
v -0.164213 -0.133086 1.623336
v -0.111140 -0.084435 1.623336
v -0.128790 -0.114055 1.623336
v -0.164335 -0.092876 1.623336
vt 0.500000 0.000000
vt 0.300000 0.333333
vt 0.300000 0.666667
vt 0.500000 1.000000
vt 0.700000 0.666667
vt 0.700000 0.333333
vn 0.0000 0.0000 1.0000
s off
mtllib leafwood.mtl
usemtl Leaves
f 1/1/1 2/2/1 6/3/1 3/4/1
f 1/1/1 3/4/1 5/5/1 4/6/1
