# Blender v3.4.0 OBJ File: 'apple_tree6_sapling.blend'
# www.blender.org
o leaves.220
v 0.073340 -0.135770 1.436507
v 0.096769 -0.172403 1.467903
v 0.164715 -0.165757 1.535441
v 0.110828 -0.119128 1.471066
v 0.141287 -0.129124 1.504044
v 0.127227 -0.182399 1.500882
vt 0.500000 0.000000
vt 0.300000 0.333333
vt 0.300000 0.666667
vt 0.500000 1.000000
vt 0.700000 0.666667
vt 0.700000 0.333333
vn -0.7046 0.1447 0.6947
s off
mtllib leafwood.mtl
usemtl Leaves
f 1/1/1 2/2/1 6/3/1 3/4/1
f 1/1/1 3/4/1 5/5/1 4/6/1
