# Blender v3.4.0 OBJ File: 'apple_tree6_sapling.blend'
# www.blender.org
o leaves.190
v -0.158275 0.185711 1.248980
v -0.152881 0.216750 1.225240
v -0.193228 0.272750 1.210248
v -0.186970 0.212698 1.246899
v -0.198622 0.241711 1.233988
v -0.164532 0.245763 1.212329
vt 0.500000 0.000000
vt 0.300000 0.333333
vt 0.300000 0.666667
vt 0.500000 1.000000
vt 0.700000 0.666667
vt 0.700000 0.333333
vn 0.4196 0.5043 0.7547
s off
mtllib leafwood.mtl
usemtl Leaves
f 1/1/1 2/2/1 6/3/1 3/4/1
f 1/1/1 3/4/1 5/5/1 4/6/1
