# Blender v3.4.0 OBJ File: 'apple_tree6_sapling.blend'
# www.blender.org
o leaves.067
v -0.258366 0.026435 0.854923
v -0.260956 0.075478 0.868191
v -0.330120 0.134679 0.871072
v -0.303611 0.049555 0.852420
v -0.327529 0.085637 0.857803
v -0.284874 0.111560 0.873574
vt 0.500000 0.000000
vt 0.300000 0.333333
vt 0.300000 0.666667
vt 0.500000 1.000000
vt 0.700000 0.666667
vt 0.700000 0.333333
vn -0.1881 -0.2657 0.9455
s off
mtllib leafwood.mtl
usemtl Leaves
f 1/1/1 2/2/1 6/3/1 3/4/1
f 1/1/1 3/4/1 5/5/1 4/6/1
