# Blender v3.4.0 OBJ File: 'apple_tree6_sapling.blend'
# www.blender.org
o leaves.214
v -0.165577 -0.052407 1.382078
v -0.204759 -0.069895 1.377573
v -0.228760 -0.143140 1.372406
v -0.168516 -0.095407 1.380135
v -0.189577 -0.125651 1.376911
v -0.225820 -0.100140 1.374349
vt 0.500000 0.000000
vt 0.300000 0.333333
vt 0.300000 0.666667
vt 0.500000 1.000000
vt 0.700000 0.666667
vt 0.700000 0.333333
vn -0.0973 -0.0383 0.9945
s off
mtllib leafwood.mtl
usemtl Leaves
f 1/1/1 2/2/1 6/3/1 3/4/1
f 1/1/1 3/4/1 5/5/1 4/6/1
