# Blender v3.4.0 OBJ File: 'apple_tree6_sapling.blend'
# www.blender.org
o leaves.245
v 0.104323 0.178433 1.518939
v 0.128720 0.211787 1.523972
v 0.113503 0.284086 1.533840
v 0.086046 0.215514 1.523840
v 0.089106 0.250732 1.528807
v 0.131781 0.247005 1.528939
vt 0.500000 0.000000
vt 0.300000 0.333333
vt 0.300000 0.666667
vt 0.500000 1.000000
vt 0.700000 0.666667
vt 0.700000 0.333333
vn -0.0151 -0.1383 0.9903
vn -0.0152 -0.1383 0.9903
s off
mtllib leafwood.mtl
usemtl Leaves
f 1/1/1 2/2/1 6/3/1 3/4/1
f 1/1/2 3/4/2 5/5/2 4/6/2
