# Blender v3.4.0 OBJ File: 'apple_tree6_sapling.blend'
# www.blender.org
o leaves.328
v 0.070688 -0.055865 2.103011
v 0.152804 -0.131281 2.115361
v 0.113342 -0.064857 2.104115
v 0.082778 -0.097150 2.110140
v 0.110150 -0.122289 2.114257
v 0.140714 -0.089996 2.108232
vt 0.500000 0.000000
vt 0.500000 1.000000
vt 0.700000 0.666667
vt 0.700000 0.333333
vt 0.300000 0.333333
vt 0.300000 0.666667
vn 0.0110 0.1733 0.9848
s off
mtllib leafwood.mtl
usemtl Leaves
f 1/1/1 2/2/1 6/3/1 3/4/1
f 1/1/1 4/5/1 5/6/1 2/2/1
