# Blender v3.4.0 OBJ File: 'apple_tree9_sapling_1_8_2_2.blend'
# www.blender.org
o leaves.078
v 0.082972 -0.283326 0.831847
v 0.116496 -0.252861 0.850987
v 0.106210 -0.170914 0.844475
v 0.064940 -0.238849 0.821125
v 0.072686 -0.201378 0.825335
v 0.124242 -0.215390 0.855196
vt 0.500000 0.000000
vt 0.235000 0.333333
vt 0.235000 0.666667
vt 0.500000 1.000000
vt 0.765000 0.666667
vt 0.765000 0.333333
vn -0.5000 0.0061 0.8660
s off
mtllib leafwood.mtl
usemtl Leaves
f 1/1/1 2/2/1 6/3/1 3/4/1
f 1/1/1 3/4/1 5/5/1 4/6/1
