# Blender v3.4.0 OBJ File: 'apple_tree9_sapling_1_8_2_2.blend'
# www.blender.org
o leaves.141
v 0.235346 -0.069669 1.346107
v 0.249302 -0.094423 1.339754
v 0.287760 -0.093638 1.309310
v 0.256333 -0.060894 1.327929
v 0.273804 -0.068884 1.315663
v 0.266774 -0.102412 1.327488
vt 0.500000 0.000000
vt 0.235000 0.333333
vt 0.235000 0.666667
vt 0.500000 1.000000
vt 0.765000 0.666667
vt 0.765000 0.333333
vn 0.6122 0.1457 0.7771
s off
mtllib leafwood.mtl
usemtl Leaves
f 1/1/1 2/2/1 6/3/1 3/4/1
f 1/1/1 3/4/1 5/5/1 4/6/1
