# Blender v3.4.0 OBJ File: 'apple_tree9_sapling_1_8_2_2.blend'
# www.blender.org
o leaves.092
v 0.212657 0.232464 1.088812
v 0.211568 0.275043 1.078665
v 0.271738 0.307806 1.051327
v 0.253133 0.240114 1.073970
v 0.272826 0.265228 1.061475
v 0.231262 0.300157 1.066170
vt 0.500000 0.000000
vt 0.500000 1.000000
vt 0.765000 0.666667
vt 0.765000 0.333333
vt 0.235000 0.333333
vt 0.235000 0.666667
vn 0.2968 0.2286 0.9272
s off
mtllib leafwood.mtl
usemtl Leaves
f 1/1/1 3/2/1 6/3/1 2/4/1
f 1/1/1 4/5/1 5/6/1 3/2/1
