# Blender v3.4.0 OBJ File: 'apple_tree9_sapling_1_8_2_2.blend'
# www.blender.org
o leaves.230
v 0.067428 0.089018 2.190289
v 0.118160 0.067929 2.189677
v 0.191512 0.124385 2.190244
v 0.099419 0.133684 2.190871
v 0.140780 0.145473 2.190856
v 0.159522 0.079719 2.189662
vt 0.500000 0.000000
vt 0.235000 0.333333
vt 0.235000 0.666667
vt 0.500000 1.000000
vt 0.765000 0.666667
vt 0.765000 0.333333
vn 0.0051 -0.0167 0.9998
s off
mtllib leafwood.mtl
usemtl Leaves
f 1/1/1 2/2/1 6/3/1 3/4/1
f 1/1/1 3/4/1 5/5/1 4/6/1
