# Blender v3.4.0 OBJ File: 'apple_tree9_sapling_1_8_2_2.blend'
# www.blender.org
o leaves.001
v 0.140641 0.142549 0.651326
v 0.142593 0.113165 0.687440
v 0.183492 0.132715 0.751535
v 0.167256 0.165377 0.682018
v 0.181540 0.162099 0.715421
v 0.156877 0.109887 0.720843
vt 0.500000 0.000000
vt 0.235000 0.333333
vt 0.235000 0.666667
vt 0.500000 1.000000
vt 0.765000 0.666667
vt 0.765000 0.333333
vn -0.8160 0.4260 0.3907
s off
mtllib leafwood.mtl
usemtl Leaves
f 1/1/1 2/2/1 6/3/1 3/4/1
f 1/1/1 3/4/1 5/5/1 4/6/1
