# Blender v3.4.0 OBJ File: 'apple_tree9_sapling_1_8_2_2.blend'
# www.blender.org
o leaves.049
v 0.074520 0.337542 0.850956
v 0.110232 0.337118 0.884343
v 0.077463 0.384413 0.864546
v 0.132502 0.407211 0.921421
v 0.096790 0.407636 0.888034
v 0.129559 0.360341 0.907831
vt 0.500000 0.000000
vt 0.235000 0.333333
vt 0.235000 0.666667
vt 0.500000 1.000000
vt 0.765000 0.666667
vt 0.765000 0.333333
vn -0.6745 -0.1662 0.7193
s off
mtllib leafwood.mtl
usemtl Leaves
f 1/1/1 2/2/1 6/3/1 4/4/1
f 1/1/1 4/4/1 5/5/1 3/6/1
