# Blender v3.4.0 OBJ File: 'apple_tree9_sapling_1_8_2_2.blend'
# www.blender.org
o leaves.101
v -0.241731 0.098567 1.098300
v -0.243352 0.058746 1.090997
v -0.191413 0.027905 1.059208
v -0.206564 0.091280 1.079541
v -0.189792 0.067726 1.066511
v -0.226579 0.035192 1.077967
vt 0.500000 0.000000
vt 0.235000 0.333333
vt 0.235000 0.666667
vt 0.500000 1.000000
vt 0.765000 0.666667
vt 0.765000 0.333333
vn 0.4338 -0.1796 0.8829
s off
mtllib leafwood.mtl
usemtl Leaves
f 1/1/1 2/2/1 6/3/1 3/4/1
f 1/1/1 3/4/1 5/5/1 4/6/1
