# Blender v3.4.0 OBJ File: 'apple_tree9_sapling_1_8_2_2.blend'
# www.blender.org
o leaves.094
v 0.220550 0.243573 1.092494
v 0.232367 0.255359 1.063587
v 0.208000 0.299949 1.039499
v 0.200366 0.269371 1.086071
v 0.196183 0.288163 1.068406
v 0.228183 0.274151 1.045922
vt 0.500000 0.000000
vt 0.235000 0.333333
vt 0.235000 0.666667
vt 0.500000 1.000000
vt 0.765000 0.666667
vt 0.765000 0.333333
vn 0.6173 0.6074 0.5000
s off
mtllib leafwood.mtl
usemtl Leaves
f 1/1/1 2/2/1 6/3/1 3/4/1
f 1/1/1 3/4/1 5/5/1 4/6/1
