# Blender v3.4.0 OBJ File: 'apple_tree9_sapling_1_8_2_2.blend'
# www.blender.org
o leaves.195
v 0.148797 0.280464 1.652830
v 0.134198 0.319188 1.644270
v 0.178097 0.368507 1.617633
v 0.182929 0.300435 1.637926
v 0.192695 0.329783 1.626194
v 0.143965 0.348536 1.632537
vt 0.500000 0.000000
vt 0.500000 1.000000
vt 0.765000 0.666667
vt 0.765000 0.333333
vt 0.235000 0.333333
vt 0.235000 0.666667
vn 0.2334 0.2930 0.9272
s off
mtllib leafwood.mtl
usemtl Leaves
f 1/1/1 3/2/1 6/3/1 2/4/1
f 1/1/1 4/5/1 5/6/1 3/2/1
