# Blender v3.4.0 OBJ File: 'apple_tree9_sapling_1_8_2_2.blend'
# www.blender.org
o leaves.140
v 0.228036 -0.068103 1.342484
v 0.268154 -0.071710 1.359649
v 0.317776 -0.018276 1.348523
v 0.247744 -0.031277 1.329344
v 0.277657 -0.014668 1.331357
v 0.298068 -0.055101 1.361662
vt 0.500000 0.000000
vt 0.235000 0.333333
vt 0.235000 0.666667
vt 0.500000 1.000000
vt 0.765000 0.666667
vt 0.765000 0.333333
vn -0.3131 0.4633 0.8290
s off
mtllib leafwood.mtl
usemtl Leaves
f 1/1/1 2/2/1 6/3/1 3/4/1
f 1/1/1 3/4/1 5/5/1 4/6/1
