# Blender v3.4.0 OBJ File: 'apple_tree9_sapling_1_8_2_2.blend'
# www.blender.org
o leaves.225
v 0.271308 -0.049946 2.008860
v 0.318865 -0.060280 2.000405
v 0.374407 0.001489 1.995426
v 0.292483 -0.005322 2.008359
v 0.326850 0.011823 2.003881
v 0.353231 -0.043135 1.995927
vt 0.500000 0.000000
vt 0.235000 0.333333
vt 0.235000 0.666667
vt 0.500000 1.000000
vt 0.765000 0.666667
vt 0.765000 0.333333
vn 0.1609 -0.0653 0.9848
s off
mtllib leafwood.mtl
usemtl Leaves
f 1/1/1 2/2/1 6/3/1 3/4/1
f 1/1/1 3/4/1 5/5/1 4/6/1
