# Blender v3.4.0 OBJ File: 'apple_tree9_sapling_1_8_2_2.blend'
# www.blender.org
o leaves.097
v -0.159234 0.236159 0.959306
v -0.178312 0.272322 0.938151
v -0.251896 0.268468 0.913953
v -0.201930 0.221535 0.950225
v -0.232818 0.232305 0.935108
v -0.209200 0.283092 0.923034
vt 0.500000 0.000000
vt 0.235000 0.333333
vt 0.235000 0.666667
vt 0.500000 1.000000
vt 0.765000 0.666667
vt 0.765000 0.333333
vn -0.3089 0.3536 0.8829
s off
mtllib leafwood.mtl
usemtl Leaves
f 1/1/1 2/2/1 6/3/1 3/4/1
f 1/1/1 3/4/1 5/5/1 4/6/1
