# Blender v3.4.0 OBJ File: 'apple_tree9_sapling_1_8_2_2.blend'
# www.blender.org
o leaves.052
v 0.079575 0.356052 0.854123
v 0.093286 0.330676 0.843821
v 0.143599 0.331507 0.832414
v 0.108548 0.365064 0.849952
v 0.129889 0.356883 0.842716
v 0.114627 0.322495 0.836585
vt 0.500000 0.000000
vt 0.235000 0.333333
vt 0.235000 0.666667
vt 0.500000 1.000000
vt 0.765000 0.666667
vt 0.765000 0.333333
vn 0.2174 -0.2640 0.9397
s off
mtllib leafwood.mtl
usemtl Leaves
f 1/1/1 2/2/1 6/3/1 3/4/1
f 1/1/1 3/4/1 5/5/1 4/6/1
