# Blender v3.4.0 OBJ File: 'apple_tree9_sapling_1_8_2_2.blend'
# www.blender.org
o leaves.066
v -0.133820 -0.045729 0.840716
v -0.174788 -0.048715 0.857427
v -0.217405 -0.107847 0.841025
v -0.148574 -0.084154 0.824210
v -0.176436 -0.104860 0.824314
v -0.202650 -0.069422 0.857530
vt 0.500000 0.000000
vt 0.235000 0.333333
vt 0.235000 0.666667
vt 0.500000 1.000000
vt 0.765000 0.666667
vt 0.765000 0.333333
vn 0.3609 -0.4816 0.7986
s off
mtllib leafwood.mtl
usemtl Leaves
f 1/1/1 2/2/1 6/3/1 3/4/1
f 1/1/1 3/4/1 5/5/1 4/6/1
