# Blender v3.4.0 OBJ File: 'apple_tree9_sapling_1_8_2_2.blend'
# www.blender.org
o leaves.218
v -0.072355 -0.233819 1.960905
v -0.112467 -0.262360 1.964895
v -0.111725 -0.327879 2.016183
v -0.058489 -0.267985 1.993767
v -0.071612 -0.299338 2.012193
v -0.125591 -0.293713 1.983321
vt 0.500000 0.000000
vt 0.235000 0.333333
vt 0.235000 0.666667
vt 0.500000 1.000000
vt 0.765000 0.666667
vt 0.765000 0.333333
vn -0.3373 0.5779 0.7431
s off
mtllib leafwood.mtl
usemtl Leaves
f 1/1/1 2/2/1 6/3/1 3/4/1
f 1/1/1 3/4/1 5/5/1 4/6/1
