# Blender v3.4.0 OBJ File: 'apple_tree9_sapling_1_8_2_2.blend'
# www.blender.org
o leaves.085
v 0.131003 0.113022 0.997531
v 0.257715 0.158349 0.959639
v 0.163108 0.162919 0.992629
v 0.183374 0.093343 0.977171
v 0.225611 0.108452 0.964541
v 0.205345 0.178028 0.979999
vt 0.500000 0.000000
vt 0.500000 1.000000
vt 0.765000 0.666667
vt 0.765000 0.333333
vt 0.235000 0.333333
vt 0.235000 0.666667
vn 0.3221 -0.1149 0.9397
s off
mtllib leafwood.mtl
usemtl Leaves
f 1/1/1 2/2/1 6/3/1 3/4/1
f 1/1/1 4/5/1 5/6/1 2/2/1
