# Blender v3.4.0 OBJ File: 'apple_tree9_sapling_1_8_2_2.blend'
# www.blender.org
o leaves.047
v 0.071077 0.324939 0.848799
v 0.108470 0.299854 0.821089
v 0.189412 0.336124 0.812924
v 0.112574 0.357480 0.852593
v 0.152019 0.361209 0.840634
v 0.147915 0.303582 0.809130
vt 0.500000 0.000000
vt 0.235000 0.333333
vt 0.235000 0.666667
vt 0.500000 1.000000
vt 0.765000 0.666667
vt 0.765000 0.333333
vn 0.2962 -0.4743 0.8290
s off
mtllib leafwood.mtl
usemtl Leaves
f 1/1/1 2/2/1 6/3/1 3/4/1
f 1/1/1 3/4/1 5/5/1 4/6/1
