# Blender v3.4.0 OBJ File: 'apple_tree9_sapling_1_8_2_2.blend'
# www.blender.org
o leaves.191
v 0.334924 -0.106828 1.632269
v 0.391548 -0.054232 1.631962
v 0.367736 -0.104298 1.632515
v 0.339862 -0.074294 1.631819
v 0.358737 -0.056762 1.631716
v 0.386610 -0.086766 1.632412
vt 0.500000 0.000000
vt 0.500000 1.000000
vt 0.765000 0.666667
vt 0.765000 0.333333
vt 0.235000 0.333333
vt 0.235000 0.666667
vn -0.0086 0.0152 0.9998
vn -0.0087 0.0152 0.9998
s off
mtllib leafwood.mtl
usemtl Leaves
f 1/1/1 2/2/1 5/3/1 4/4/1
f 1/1/2 3/5/2 6/6/2 2/2/2
