# Blender v3.4.0 OBJ File: 'apple_tree9_sapling_1_8_2_2.blend'
# www.blender.org
o leaves.118
v -0.058400 -0.222098 1.103855
v -0.101871 -0.260283 1.121963
v -0.079155 -0.336360 1.186220
v -0.028765 -0.260087 1.140657
v -0.035683 -0.298175 1.168112
v -0.108790 -0.298371 1.149418
vt 0.500000 0.000000
vt 0.235000 0.333333
vt 0.235000 0.666667
vt 0.500000 1.000000
vt 0.765000 0.666667
vt 0.765000 0.333333
vn -0.2003 0.5966 0.7771
s off
mtllib leafwood.mtl
usemtl Leaves
f 1/1/1 2/2/1 6/3/1 3/4/1
f 1/1/1 3/4/1 5/5/1 4/6/1
