# Blender v3.4.0 OBJ File: 'apple_tree9_sapling_1_8_2_2.blend'
# www.blender.org
o leaves.219
v -0.071907 -0.241818 1.962094
v -0.051511 -0.162193 1.957832
v -0.086239 -0.209873 1.960507
v -0.043978 -0.220680 1.960840
v -0.037179 -0.194138 1.959419
v -0.079440 -0.183331 1.959086
vt 0.500000 0.000000
vt 0.500000 1.000000
vt 0.765000 0.666667
vt 0.765000 0.333333
vt 0.235000 0.333333
vt 0.235000 0.666667
vn 0.0054 0.0521 0.9986
s off
mtllib leafwood.mtl
usemtl Leaves
f 1/1/1 2/2/1 6/3/1 3/4/1
f 1/1/1 4/5/1 5/6/1 2/2/1
