# Blender v3.4.0 OBJ File: 'apple_tree9_sapling_1_8_2_2.blend'
# www.blender.org
o leaves.115
v -0.172307 0.012100 1.310599
v -0.151935 0.039324 1.280572
v -0.193186 0.090383 1.241435
v -0.206598 0.037064 1.294516
v -0.213558 0.063159 1.271461
v -0.158895 0.065418 1.257517
vt 0.500000 0.000000
vt 0.235000 0.333333
vt 0.235000 0.666667
vt 0.500000 1.000000
vt 0.765000 0.666667
vt 0.765000 0.333333
vn 0.1555 0.6770 0.7193
s off
mtllib leafwood.mtl
usemtl Leaves
f 1/1/1 2/2/1 6/3/1 3/4/1
f 1/1/1 3/4/1 5/5/1 4/6/1
