# Blender v3.4.0 OBJ File: 'apple_tree9_sapling_1_8_2_2.blend'
# www.blender.org
o leaves.093
v 0.216398 0.237730 1.090557
v 0.197833 0.205954 1.086070
v 0.228822 0.153571 1.072035
v 0.243247 0.213400 1.082697
v 0.247388 0.185347 1.076523
v 0.201974 0.177901 1.079896
vt 0.500000 0.000000
vt 0.235000 0.333333
vt 0.235000 0.666667
vt 0.500000 1.000000
vt 0.765000 0.666667
vt 0.765000 0.333333
vn 0.1050 -0.1989 0.9744
s off
mtllib leafwood.mtl
usemtl Leaves
f 1/1/1 2/2/1 6/3/1 3/4/1
f 1/1/1 3/4/1 5/5/1 4/6/1
