# Blender v3.4.0 OBJ File: 'apple_tree9_sapling_1_8_2_2.blend'
# www.blender.org
o leaves.224
v 0.020588 0.147945 2.113784
v 0.089749 0.171497 2.121605
v 0.037180 0.174028 2.118623
v 0.050103 0.137563 2.114159
v 0.073156 0.145414 2.116766
v 0.060234 0.181878 2.121230
vt 0.500000 0.000000
vt 0.500000 1.000000
vt 0.765000 0.666667
vt 0.765000 0.333333
vt 0.235000 0.333333
vt 0.235000 0.666667
vn -0.0629 -0.1432 0.9877
s off
mtllib leafwood.mtl
usemtl Leaves
f 1/1/1 2/2/1 6/3/1 3/4/1
f 1/1/1 4/5/1 5/6/1 2/2/1
