# Blender v3.4.0 OBJ File: 'apple_tree9_sapling_1_8_2_2.blend'
# www.blender.org
o leaves.102
v -0.248348 0.099707 1.098138
v -0.273637 0.127949 1.100851
v -0.336107 0.115508 1.094333
v -0.281565 0.081999 1.092888
v -0.310818 0.087267 1.091620
v -0.302890 0.133216 1.099583
vt 0.500000 0.000000
vt 0.235000 0.333333
vt 0.235000 0.666667
vt 0.500000 1.000000
vt 0.765000 0.666667
vt 0.765000 0.333333
vn -0.0712 -0.1584 0.9848
s off
mtllib leafwood.mtl
usemtl Leaves
f 1/1/1 2/2/1 6/3/1 3/4/1
f 1/1/1 3/4/1 5/5/1 4/6/1
