# Blender v3.4.0 OBJ File: 'apple_tree9_sapling_1_8_2_2.blend'
# www.blender.org
o leaves.083
v 0.183950 -0.220751 1.000880
v 0.196846 -0.258152 0.991042
v 0.248474 -0.286822 1.026109
v 0.214069 -0.227397 1.027538
v 0.235577 -0.249420 1.035948
v 0.218354 -0.280176 0.999451
vt 0.500000 0.000000
vt 0.235000 0.333333
vt 0.235000 0.666667
vt 0.500000 1.000000
vt 0.765000 0.666667
vt 0.765000 0.333333
vn -0.6561 -0.3953 0.6428
s off
mtllib leafwood.mtl
usemtl Leaves
f 1/1/1 2/2/1 6/3/1 3/4/1
f 1/1/1 3/4/1 5/5/1 4/6/1
