# Blender v3.4.0 OBJ File: 'apple_tree9_sapling_1_8_2_2.blend'
# www.blender.org
o leaves.028
v 0.004434 -0.311114 0.659495
v 0.021934 -0.333472 0.646170
v 0.074248 -0.327115 0.642333
v 0.033476 -0.299424 0.661379
v 0.056748 -0.304758 0.655658
v 0.045206 -0.338805 0.640449
vt 0.500000 0.000000
vt 0.235000 0.333333
vt 0.235000 0.666667
vt 0.500000 1.000000
vt 0.765000 0.666667
vt 0.765000 0.333333
vn 0.1186 -0.4382 0.8910
s off
mtllib leafwood.mtl
usemtl Leaves
f 1/1/1 2/2/1 6/3/1 3/4/1
f 1/1/1 3/4/1 5/5/1 4/6/1
