# Blender v3.4.0 OBJ File: 'apple_tree9_sapling_1_8_2_2.blend'
# www.blender.org
o leaves.025
v -0.015159 -0.310011 0.655766
v 0.060741 -0.310067 0.660589
v 0.011182 -0.298160 0.641118
v 0.009099 -0.321899 0.673628
v 0.034399 -0.321918 0.675236
v 0.036483 -0.298179 0.642726
vt 0.500000 0.000000
vt 0.500000 1.000000
vt 0.765000 0.666667
vt 0.765000 0.333333
vt 0.235000 0.333333
vt 0.235000 0.666667
vn -0.0368 0.8082 0.5878
s off
mtllib leafwood.mtl
usemtl Leaves
f 1/1/1 2/2/1 6/3/1 3/4/1
f 1/1/1 4/5/1 5/6/1 2/2/1
