# Blender v3.4.0 OBJ File: 'apple_tree9_sapling_1_8_2_2.blend'
# www.blender.org
o leaves.136
v 0.238221 0.107102 1.239740
v 0.308267 0.171630 1.212088
v 0.280044 0.110450 1.234939
v 0.243095 0.146773 1.226106
v 0.266444 0.168282 1.216888
v 0.303393 0.131959 1.225722
vt 0.500000 0.000000
vt 0.500000 1.000000
vt 0.765000 0.666667
vt 0.765000 0.333333
vt 0.235000 0.333333
vt 0.235000 0.666667
vn 0.0833 0.3147 0.9455
s off
mtllib leafwood.mtl
usemtl Leaves
f 1/1/1 2/2/1 5/3/1 4/4/1
f 1/1/1 3/5/1 6/6/1 2/2/1
