# Blender v3.4.0 OBJ File: 'apple_tree9_sapling_1_8_2_2.blend'
# www.blender.org
o leaves.189
v 0.320008 -0.104291 1.623918
v 0.349233 -0.130857 1.620087
v 0.412537 -0.110101 1.614552
v 0.352470 -0.081598 1.621505
v 0.383313 -0.083534 1.618383
v 0.380076 -0.132794 1.616965
vt 0.500000 0.000000
vt 0.235000 0.333333
vt 0.235000 0.666667
vt 0.500000 1.000000
vt 0.765000 0.666667
vt 0.765000 0.333333
vn 0.0985 -0.0351 0.9945
s off
mtllib leafwood.mtl
usemtl Leaves
f 1/1/1 2/2/1 6/3/1 3/4/1
f 1/1/1 3/4/1 5/5/1 4/6/1
