# Blender v3.4.0 OBJ File: 'apple_tree9_sapling_1_8_2_2.blend'
# www.blender.org
o leaves.229
v 0.287159 -0.034738 1.996517
v 0.270561 -0.064885 2.007029
v 0.302802 -0.115350 2.016456
v 0.314185 -0.058333 1.999298
v 0.319400 -0.085203 2.005944
v 0.275775 -0.091756 2.013676
vt 0.500000 0.000000
vt 0.235000 0.333333
vt 0.235000 0.666667
vt 0.500000 1.000000
vt 0.765000 0.666667
vt 0.765000 0.333333
vn 0.1302 0.2618 0.9563
s off
mtllib leafwood.mtl
usemtl Leaves
f 1/1/1 2/2/1 6/3/1 3/4/1
f 1/1/1 3/4/1 5/5/1 4/6/1
