# Blender v3.4.0 OBJ File: 'apple_tree9_sapling_1_8_2_2.blend'
# www.blender.org
o leaves.067
v -0.140436 -0.051350 0.841157
v -0.142930 -0.018569 0.845773
v -0.192521 0.006647 0.840037
v -0.172666 -0.045466 0.835795
v -0.190027 -0.026133 0.835421
v -0.160291 0.000764 0.845400
vt 0.500000 0.000000
vt 0.235000 0.333333
vt 0.235000 0.666667
vt 0.500000 1.000000
vt 0.765000 0.666667
vt 0.765000 0.333333
vn -0.1890 -0.1510 0.9703
s off
mtllib leafwood.mtl
usemtl Leaves
f 1/1/1 2/2/1 6/3/1 3/4/1
f 1/1/1 3/4/1 5/5/1 4/6/1
