# Blender v3.4.0 OBJ File: 'apple_tree9_sapling_1_8_2_2.blend'
# www.blender.org
o leaves.211
v -0.171806 0.082453 1.909998
v -0.168724 0.035773 1.899093
v -0.096443 0.002617 1.884084
v -0.124646 0.075910 1.903627
v -0.099525 0.049298 1.894989
v -0.143603 0.009161 1.890455
vt 0.500000 0.000000
vt 0.235000 0.333333
vt 0.235000 0.666667
vt 0.500000 1.000000
vt 0.765000 0.666667
vt 0.765000 0.333333
vn 0.1006 -0.2200 0.9703
s off
mtllib leafwood.mtl
usemtl Leaves
f 1/1/1 2/2/1 6/3/1 3/4/1
f 1/1/1 3/4/1 5/5/1 4/6/1
