# Blender v3.4.0 OBJ File: 'apple_tree9_sapling_1_8_2_2.blend'
# www.blender.org
o leaves.167
v -0.240066 -0.060752 1.424280
v -0.266894 -0.019357 1.428222
v -0.336803 -0.019406 1.473641
v -0.277729 -0.074582 1.453245
v -0.309975 -0.060800 1.469698
v -0.299140 -0.005576 1.444676
vt 0.500000 0.000000
vt 0.235000 0.333333
vt 0.235000 0.666667
vt 0.500000 1.000000
vt 0.765000 0.666667
vt 0.765000 0.333333
vn 0.5254 0.2635 0.8090
s off
mtllib leafwood.mtl
usemtl Leaves
f 1/1/1 2/2/1 6/3/1 3/4/1
f 1/1/1 3/4/1 5/5/1 4/6/1
