# Blender v3.4.0 OBJ File: 'apple_tree9_sapling_1_8_2_2.blend'
# www.blender.org
o leaves.080
v 0.083262 -0.292877 0.822023
v 0.059663 -0.273563 0.817488
v 0.011664 -0.292414 0.811289
v 0.059128 -0.311882 0.819402
v 0.035262 -0.311728 0.815824
v 0.035797 -0.273409 0.813910
vt 0.500000 0.000000
vt 0.235000 0.333333
vt 0.235000 0.666667
vt 0.500000 1.000000
vt 0.765000 0.666667
vt 0.765000 0.333333
vn -0.1477 0.0514 0.9877
s off
mtllib leafwood.mtl
usemtl Leaves
f 1/1/1 2/2/1 6/3/1 3/4/1
f 1/1/1 3/4/1 5/5/1 4/6/1
