# Blender v3.4.0 OBJ File: 'apple_tree9_sapling_1_8_2_2.blend'
# www.blender.org
o leaves.223
v 0.022890 0.144074 2.114398
v -0.001738 0.165280 2.146034
v -0.003150 0.241644 2.148250
v 0.030158 0.187915 2.105330
v 0.021478 0.220438 2.116614
v -0.010418 0.197803 2.157318
vt 0.500000 0.000000
vt 0.500000 1.000000
vt 0.765000 0.666667
vt 0.765000 0.333333
vt 0.235000 0.333333
vt 0.235000 0.666667
vn 0.7880 -0.0033 0.6157
s off
mtllib leafwood.mtl
usemtl Leaves
f 1/1/1 3/2/1 6/3/1 2/4/1
f 1/1/1 4/5/1 5/6/1 3/2/1
