# Blender v3.4.0 OBJ File: 'apple_tree9_sapling_1_8_2_2.blend'
# www.blender.org
o leaves.206
v -0.291091 -0.107783 1.825384
v -0.258585 -0.100924 1.816000
v -0.241108 -0.045735 1.810432
v -0.290274 -0.073277 1.824800
v -0.273614 -0.052594 1.819816
v -0.241924 -0.080241 1.811015
vt 0.500000 0.000000
vt 0.235000 0.333333
vt 0.235000 0.666667
vt 0.500000 1.000000
vt 0.765000 0.666667
vt 0.765000 0.333333
vn 0.2755 0.0097 0.9613
s off
mtllib leafwood.mtl
usemtl Leaves
f 1/1/1 2/2/1 6/3/1 3/4/1
f 1/1/1 3/4/1 5/5/1 4/6/1
