# Blender v3.4.0 OBJ File: 'apple_tree9_sapling_1_8_2_2.blend'
# www.blender.org
o leaves.240
v 0.114892 0.176901 2.284477
v 0.154177 0.201649 2.285442
v 0.150914 0.279772 2.288154
v 0.099621 0.220734 2.285963
v 0.111628 0.255024 2.287189
v 0.166184 0.235939 2.286668
vt 0.500000 0.000000
vt 0.235000 0.333333
vt 0.235000 0.666667
vt 0.500000 1.000000
vt 0.765000 0.666667
vt 0.765000 0.333333
vn -0.0026 -0.0348 0.9994
s off
mtllib leafwood.mtl
usemtl Leaves
f 1/1/1 2/2/1 6/3/1 3/4/1
f 1/1/1 3/4/1 5/5/1 4/6/1
