# Blender v3.4.0 OBJ File: 'apple_tree9_sapling_1_8_2_2.blend'
# www.blender.org
o leaves.175
v 0.189312 -0.231258 1.631051
v 0.209039 -0.280055 1.630213
v 0.157880 -0.348732 1.653250
v 0.148630 -0.260778 1.646689
v 0.138152 -0.299935 1.654088
v 0.198562 -0.319212 1.637612
vt 0.500000 0.000000
vt 0.500000 1.000000
vt 0.765000 0.666667
vt 0.765000 0.333333
vt 0.235000 0.333333
vt 0.235000 0.666667
vn 0.2918 0.1016 0.9511
s off
mtllib leafwood.mtl
usemtl Leaves
f 1/1/1 3/2/1 6/3/1 2/4/1
f 1/1/1 4/5/1 5/6/1 3/2/1
