# Blender v3.4.0 OBJ File: 'apple_tree9_sapling_1_8_2_2.blend'
# www.blender.org
o leaves.222
v 0.025293 0.140034 2.115040
v -0.016912 0.167950 2.118695
v -0.093412 0.130525 2.111465
v -0.011639 0.105779 2.109001
v -0.051207 0.102609 2.107809
v -0.056480 0.164781 2.117504
vt 0.500000 0.000000
vt 0.235000 0.333333
vt 0.235000 0.666667
vt 0.500000 1.000000
vt 0.765000 0.666667
vt 0.765000 0.333333
vn -0.0173 -0.1555 0.9877
s off
mtllib leafwood.mtl
usemtl Leaves
f 1/1/1 2/2/1 6/3/1 3/4/1
f 1/1/1 3/4/1 5/5/1 4/6/1
