# Blender v3.4.0 OBJ File: 'apple_tree9_sapling_1_8_2_2.blend'
# www.blender.org
o leaves.248
v -0.048629 -0.142109 2.476934
v -0.084162 -0.168652 2.466139
v -0.086474 -0.241423 2.490892
v -0.038327 -0.181776 2.497034
v -0.050942 -0.214880 2.501687
v -0.096777 -0.201757 2.470792
vt 0.500000 0.000000
vt 0.235000 0.333333
vt 0.235000 0.666667
vt 0.500000 1.000000
vt 0.765000 0.666667
vt 0.765000 0.333333
vn -0.4738 0.2970 0.8290
vn -0.4738 0.2971 0.8290
s off
mtllib leafwood.mtl
usemtl Leaves
f 1/1/1 2/2/1 6/3/1 3/4/1
f 1/1/2 3/4/2 5/5/2 4/6/2
