# Blender v3.4.0 OBJ File: 'apple_tree9_sapling_1_8_2_2.blend'
# www.blender.org
o leaves.200
v 0.213424 0.058318 1.803045
v 0.249438 0.052596 1.812814
v 0.215730 0.020712 1.805410
v 0.270903 -0.006675 1.821246
v 0.234889 -0.000953 1.811477
v 0.268597 0.030931 1.818881
vt 0.500000 0.000000
vt 0.500000 1.000000
vt 0.765000 0.666667
vt 0.765000 0.333333
vt 0.235000 0.333333
vt 0.235000 0.666667
vn -0.2549 0.0451 0.9659
s off
mtllib leafwood.mtl
usemtl Leaves
f 1/1/1 4/2/1 6/3/1 2/4/1
f 1/1/1 3/5/1 5/6/1 4/2/1
