# Blender v3.4.0 OBJ File: 'apple_tree9_sapling_1_8_2_2.blend'
# www.blender.org
o leaves.124
v 0.257158 -0.013946 1.204292
v 0.236258 -0.089464 1.148314
v 0.225315 -0.033881 1.187855
v 0.275068 -0.044357 1.183411
v 0.268101 -0.069529 1.164752
v 0.218348 -0.059053 1.169195
vt 0.500000 0.000000
vt 0.500000 1.000000
vt 0.765000 0.666667
vt 0.765000 0.333333
vt 0.235000 0.333333
vt 0.235000 0.666667
vn -0.0510 -0.5856 0.8090
s off
mtllib leafwood.mtl
usemtl Leaves
f 1/1/1 2/2/1 5/3/1 4/4/1
f 1/1/1 3/5/1 6/6/1 2/2/1
