# Blender v3.4.0 OBJ File: 'apple_tree9_sapling_1_8_2_2.blend'
# www.blender.org
o leaves.068
v -0.263457 -0.072076 0.852141
v -0.310100 -0.097029 0.853433
v -0.318430 -0.177457 0.815898
v -0.253462 -0.117377 0.826687
v -0.271786 -0.152503 0.814606
v -0.328425 -0.132156 0.841352
vt 0.500000 0.000000
vt 0.235000 0.333333
vt 0.235000 0.666667
vt 0.500000 1.000000
vt 0.765000 0.666667
vt 0.765000 0.333333
vn 0.2543 -0.4305 0.8660
s off
mtllib leafwood.mtl
usemtl Leaves
f 1/1/1 2/2/1 6/3/1 3/4/1
f 1/1/1 3/4/1 5/5/1 4/6/1
