# Blender v3.4.0 OBJ File: 'apple_tree9_sapling_1_8_2_2.blend'
# www.blender.org
o leaves.096
v -0.156535 0.233795 0.963350
v -0.164261 0.178666 0.962193
v -0.090259 0.121095 0.965131
v -0.104625 0.213791 0.965695
v -0.082533 0.176225 0.966289
v -0.142169 0.141099 0.962787
vt 0.500000 0.000000
vt 0.235000 0.333333
vt 0.235000 0.666667
vt 0.500000 1.000000
vt 0.765000 0.666667
vt 0.765000 0.333333
vn -0.0505 -0.0139 0.9986
s off
mtllib leafwood.mtl
usemtl Leaves
f 1/1/1 2/2/1 6/3/1 3/4/1
f 1/1/1 3/4/1 5/5/1 4/6/1
