# Blender v3.4.0 OBJ File: 'apple_tree9_sapling_1_8_2_2.blend'
# www.blender.org
o leaves.005
v 0.248182 0.260981 0.703227
v 0.297805 0.283450 0.689150
v 0.301192 0.370146 0.650984
v 0.233899 0.311289 0.682476
v 0.251569 0.347677 0.665062
v 0.315475 0.319839 0.671736
vt 0.500000 0.000000
vt 0.235000 0.333333
vt 0.235000 0.666667
vt 0.500000 1.000000
vt 0.765000 0.666667
vt 0.765000 0.333333
vn 0.0784 0.3991 0.9135
s off
mtllib leafwood.mtl
usemtl Leaves
f 1/1/1 2/2/1 6/3/1 3/4/1
f 1/1/1 3/4/1 5/5/1 4/6/1
