# Blender v3.4.0 OBJ File: 'apple_tree9_sapling_1_8_2_2.blend'
# www.blender.org
o leaves.021
v -0.275057 -0.005304 0.739759
v -0.357626 0.021718 0.738171
v -0.295407 0.025555 0.738100
v -0.309753 -0.018148 0.740359
v -0.337276 -0.009141 0.739830
v -0.322930 0.034563 0.737571
vt 0.500000 0.000000
vt 0.500000 1.000000
vt 0.765000 0.666667
vt 0.765000 0.333333
vt 0.235000 0.333333
vt 0.235000 0.666667
vn -0.0021 0.0523 0.9986
s off
mtllib leafwood.mtl
usemtl Leaves
f 1/1/1 2/2/1 5/3/1 4/4/1
f 1/1/1 3/5/1 6/6/1 2/2/1
