# Blender v3.4.0 OBJ File: 'apple_tree9_sapling_1_8_2_2.blend'
# www.blender.org
o leaves.135
v 0.234026 0.099286 1.238883
v 0.233686 0.137462 1.220492
v 0.171605 0.170754 1.208906
v 0.192753 0.108756 1.237289
v 0.171946 0.132578 1.227297
v 0.212879 0.161284 1.210500
vt 0.500000 0.000000
vt 0.235000 0.333333
vt 0.235000 0.666667
vt 0.500000 1.000000
vt 0.765000 0.666667
vt 0.765000 0.333333
vn 0.0648 0.4336 0.8988
s off
mtllib leafwood.mtl
usemtl Leaves
f 1/1/1 2/2/1 6/3/1 3/4/1
f 1/1/1 3/4/1 5/5/1 4/6/1
