# Blender v3.4.0 OBJ File: 'apple_tree9_sapling_1_8_2_2.blend'
# www.blender.org
o leaves.057
v 0.262048 0.224890 0.773838
v 0.245596 0.162524 0.808020
v 0.274750 0.197973 0.782802
v 0.238378 0.210230 0.787661
v 0.232894 0.189442 0.799055
v 0.269266 0.177184 0.794196
vt 0.500000 0.000000
vt 0.500000 1.000000
vt 0.765000 0.666667
vt 0.765000 0.333333
vt 0.235000 0.333333
vt 0.235000 0.666667
vn 0.2556 0.4119 0.8746
vn 0.2557 0.4119 0.8746
s off
mtllib leafwood.mtl
usemtl Leaves
f 1/1/1 2/2/1 6/3/1 3/4/1
f 1/1/2 4/5/2 5/6/2 2/2/2
