# Blender v3.4.0 OBJ File: 'apple_tree9_sapling_1_8_2_2.blend'
# www.blender.org
o leaves.185
v 0.233679 -0.188009 1.563289
v 0.202722 -0.189541 1.544100
v 0.192010 -0.237415 1.507156
v 0.236856 -0.219414 1.545055
v 0.222967 -0.235883 1.526344
v 0.188832 -0.206010 1.525389
vt 0.500000 0.000000
vt 0.235000 0.333333
vt 0.235000 0.666667
vt 0.500000 1.000000
vt 0.765000 0.666667
vt 0.765000 0.333333
vn -0.4439 -0.4831 0.7547
s off
mtllib leafwood.mtl
usemtl Leaves
f 1/1/1 2/2/1 6/3/1 3/4/1
f 1/1/1 3/4/1 5/5/1 4/6/1
