# Blender v3.4.0 OBJ File: 'apple_tree9_sapling_1_8_2_2.blend'
# www.blender.org
o leaves.216
v -0.052933 -0.125965 1.914513
v -0.047435 -0.135269 1.885426
v -0.080142 -0.121197 1.900380
v -0.085499 -0.132768 1.849684
v -0.058290 -0.137536 1.863816
v -0.090998 -0.123464 1.878771
vt 0.500000 0.000000
vt 0.500000 1.000000
vt 0.765000 0.666667
vt 0.765000 0.333333
vt 0.235000 0.333333
vt 0.235000 0.666667
vn -0.2880 -0.9266 0.2419
s off
mtllib leafwood.mtl
usemtl Leaves
f 1/1/1 4/2/1 5/3/1 2/4/1
f 1/1/1 3/5/1 6/6/1 4/2/1
