# Blender v3.4.0 OBJ File: 'apple_tree9_sapling_1_8_2_2.blend'
# www.blender.org
o leaves.193
v 0.148582 0.274270 1.656036
v 0.198204 0.285178 1.632586
v 0.148034 0.242487 1.609985
v 0.222192 0.242958 1.551785
v 0.222741 0.274740 1.597836
v 0.172571 0.232050 1.575234
vt 0.500000 0.000000
vt 0.500000 1.000000
vt 0.765000 0.666667
vt 0.765000 0.333333
vt 0.235000 0.333333
vt 0.235000 0.666667
vn 0.4090 -0.7533 0.5150
s off
mtllib leafwood.mtl
usemtl Leaves
f 1/1/1 4/2/1 5/3/1 2/4/1
f 1/1/1 3/5/1 6/6/1 4/2/1
