# Blender v3.4.0 OBJ File: 'apple_tree9_sapling_1_8_2_2.blend'
# www.blender.org
o leaves.251
v -0.062608 -0.162152 2.490253
v -0.061480 -0.199975 2.493444
v -0.107143 -0.235588 2.466256
v -0.093427 -0.173287 2.471065
v -0.108272 -0.197765 2.463065
v -0.076324 -0.224453 2.485445
vt 0.500000 0.000000
vt 0.500000 1.000000
vt 0.765000 0.666667
vt 0.765000 0.333333
vt 0.235000 0.333333
vt 0.235000 0.666667
vn -0.5419 0.0546 0.8387
s off
mtllib leafwood.mtl
usemtl Leaves
f 1/1/1 3/2/1 6/3/1 2/4/1
f 1/1/1 4/5/1 5/6/1 3/2/1
