# Blender v3.4.0 OBJ File: 'apple_tree9_sapling_1_8_2_2.blend'
# www.blender.org
o leaves.026
v -0.009973 -0.289295 0.663071
v 0.040156 -0.400706 0.649224
v -0.021267 -0.340197 0.667831
v 0.034740 -0.312666 0.649080
v 0.051450 -0.349803 0.644464
v -0.004557 -0.377334 0.663216
vt 0.500000 0.000000
vt 0.500000 1.000000
vt 0.765000 0.666667
vt 0.765000 0.333333
vt 0.235000 0.333333
vt 0.235000 0.666667
vn 0.3083 0.0205 0.9511
s off
mtllib leafwood.mtl
usemtl Leaves
f 1/1/1 2/2/1 5/3/1 4/4/1
f 1/1/1 3/5/1 6/6/1 2/2/1
