# Blender v3.4.0 OBJ File: 'apple_tree9_sapling_1_8_2_2.blend'
# www.blender.org
o leaves.145
v 0.101550 0.329328 1.367244
v 0.097605 0.372030 1.390042
v 0.023650 0.401023 1.409662
v 0.053562 0.334422 1.372724
v 0.027596 0.358321 1.386864
v 0.071638 0.395928 1.404182
vt 0.500000 0.000000
vt 0.235000 0.333333
vt 0.235000 0.666667
vt 0.500000 1.000000
vt 0.765000 0.666667
vt 0.765000 0.333333
vn 0.0513 -0.4667 0.8829
s off
mtllib leafwood.mtl
usemtl Leaves
f 1/1/1 2/2/1 6/3/1 3/4/1
f 1/1/1 3/4/1 5/5/1 4/6/1
