# Blender v3.4.0 OBJ File: 'apple_tree9_sapling_1_8_2_2.blend'
# www.blender.org
o leaves.134
v 0.229831 0.091470 1.238027
v 0.270012 0.058259 1.231751
v 0.343410 0.085288 1.190439
v 0.265370 0.120559 1.212578
v 0.303229 0.118498 1.196715
v 0.307871 0.056198 1.215888
vt 0.500000 0.000000
vt 0.235000 0.333333
vt 0.235000 0.666667
vt 0.500000 1.000000
vt 0.765000 0.666667
vt 0.765000 0.333333
vn 0.3827 0.2977 0.8746
s off
mtllib leafwood.mtl
usemtl Leaves
f 1/1/1 2/2/1 6/3/1 3/4/1
f 1/1/1 3/4/1 5/5/1 4/6/1
