# Blender v3.4.0 OBJ File: 'apple_tree9_sapling_1_8_2_2.blend'
# www.blender.org
o leaves.158
v 0.012627 0.335965 1.309675
v -0.074422 0.322596 1.297814
v -0.011979 0.309742 1.297889
v -0.020800 0.353275 1.313553
v -0.049816 0.348818 1.309600
v -0.040996 0.305286 1.293936
vt 0.500000 0.000000
vt 0.500000 1.000000
vt 0.765000 0.666667
vt 0.765000 0.333333
vt 0.235000 0.333333
vt 0.235000 0.666667
vn -0.0733 -0.3508 0.9336
s off
mtllib leafwood.mtl
usemtl Leaves
f 1/1/1 2/2/1 6/3/1 3/4/1
f 1/1/1 4/5/1 5/6/1 2/2/1
