# Blender v3.4.0 OBJ File: 'apple_tree9_sapling_1_8_2_2.blend'
# www.blender.org
o leaves.213
v -0.164924 0.098786 1.921607
v -0.130527 0.110638 1.921894
v -0.118376 0.168606 1.937675
v -0.168289 0.133480 1.932031
v -0.152773 0.156754 1.937387
v -0.115011 0.133911 1.927250
vt 0.500000 0.000000
vt 0.235000 0.333333
vt 0.235000 0.666667
vt 0.500000 1.000000
vt 0.765000 0.666667
vt 0.765000 0.333333
vn 0.0881 -0.2788 0.9563
s off
mtllib leafwood.mtl
usemtl Leaves
f 1/1/1 2/2/1 6/3/1 3/4/1
f 1/1/1 3/4/1 5/5/1 4/6/1
