# Blender v3.4.0 OBJ File: 'apple_tree9_sapling_1_8_2_2.blend'
# www.blender.org
o leaves.149
v 0.110247 0.336995 1.369622
v 0.132139 0.309940 1.377744
v 0.189810 0.321020 1.391019
v 0.141397 0.353400 1.375764
v 0.167918 0.348075 1.382897
v 0.158660 0.304615 1.384877
vt 0.500000 0.000000
vt 0.235000 0.333333
vt 0.235000 0.666667
vt 0.500000 1.000000
vt 0.765000 0.666667
vt 0.765000 0.333333
vn -0.2406 0.0953 0.9659
s off
mtllib leafwood.mtl
usemtl Leaves
f 1/1/1 2/2/1 6/3/1 3/4/1
f 1/1/1 3/4/1 5/5/1 4/6/1
