# Blender v3.4.0 OBJ File: 'apple_tree9_sapling_1_8_2_2.blend'
# www.blender.org
o leaves.187
v 0.305093 -0.101754 1.615566
v 0.356897 -0.082083 1.616462
v 0.429062 -0.141314 1.617747
v 0.335934 -0.147798 1.616125
v 0.377256 -0.160985 1.616851
v 0.398220 -0.095270 1.617189
vt 0.500000 0.000000
vt 0.500000 1.000000
vt 0.765000 0.666667
vt 0.765000 0.333333
vt 0.235000 0.333333
vt 0.235000 0.666667
vn -0.0174 0.0004 0.9998
s off
mtllib leafwood.mtl
usemtl Leaves
f 1/1/1 3/2/1 6/3/1 2/4/1
f 1/1/1 4/5/1 5/6/1 3/2/1
