# Blender v3.4.0 OBJ File: 'apple_tree9_sapling_1_8_2_2.blend'
# www.blender.org
o leaves.201
v 0.215640 0.055973 1.807636
v 0.190945 0.036201 1.807632
v 0.198979 -0.016263 1.812461
v 0.229229 0.027587 1.810857
v 0.223675 0.003508 1.812465
v 0.185391 0.012123 1.809241
vt 0.500000 0.000000
vt 0.235000 0.333333
vt 0.235000 0.666667
vt 0.500000 1.000000
vt 0.765000 0.666667
vt 0.765000 0.333333
vn -0.0654 0.0815 0.9945
s off
mtllib leafwood.mtl
usemtl Leaves
f 1/1/1 2/2/1 6/3/1 3/4/1
f 1/1/1 3/4/1 5/5/1 4/6/1
