# Blender v3.4.0 OBJ File: 'apple_tree9_sapling_1_8_2_2.blend'
# www.blender.org
o leaves.089
v 0.210255 0.226630 1.086286
v 0.238957 0.261858 1.062722
v 0.201661 0.331611 1.028376
v 0.175824 0.261390 1.071243
v 0.172959 0.296383 1.051940
v 0.236092 0.296851 1.043419
vt 0.500000 0.000000
vt 0.235000 0.333333
vt 0.235000 0.666667
vt 0.500000 1.000000
vt 0.765000 0.666667
vt 0.765000 0.333333
vn 0.1133 0.4870 0.8660
s off
mtllib leafwood.mtl
usemtl Leaves
f 1/1/1 2/2/1 6/3/1 3/4/1
f 1/1/1 3/4/1 5/5/1 4/6/1
