# Blender v3.4.0 OBJ File: 'apple_tree9_sapling_1_8_2_2.blend'
# www.blender.org
o leaves.208
v -0.172144 0.082302 1.910258
v -0.191704 0.119969 1.884767
v -0.272044 0.117706 1.862471
v -0.219184 0.068238 1.903891
v -0.252484 0.080039 1.887962
v -0.225004 0.131770 1.868838
vt 0.500000 0.000000
vt 0.235000 0.333333
vt 0.235000 0.666667
vt 0.500000 1.000000
vt 0.765000 0.666667
vt 0.765000 0.333333
vn -0.2505 0.4500 0.8572
s off
mtllib leafwood.mtl
usemtl Leaves
f 1/1/1 2/2/1 6/3/1 3/4/1
f 1/1/1 3/4/1 5/5/1 4/6/1
