# Blender v3.4.0 OBJ File: 'apple_tree9_sapling_1_8_2_2.blend'
# www.blender.org
o leaves.164
v -0.218624 0.258918 1.351105
v -0.272592 0.321357 1.357845
v -0.253170 0.265347 1.354035
v -0.220056 0.294116 1.352668
v -0.238046 0.314929 1.354915
v -0.271159 0.286160 1.356282
vt 0.500000 0.000000
vt 0.500000 1.000000
vt 0.765000 0.666667
vt 0.765000 0.333333
vt 0.235000 0.333333
vt 0.235000 0.666667
vn 0.0768 -0.0411 0.9962
s off
mtllib leafwood.mtl
usemtl Leaves
f 1/1/1 2/2/1 6/3/1 3/4/1
f 1/1/1 4/5/1 5/6/1 2/2/1
