# Blender v3.4.0 OBJ File: 'apple_tree9_sapling_1_8_2_2.blend'
# www.blender.org
o leaves.014
v -0.248678 0.116091 0.766804
v -0.223204 0.135653 0.776260
v -0.263949 0.144389 0.776132
v -0.233374 0.187880 0.794980
v -0.218103 0.159583 0.785652
v -0.258847 0.168319 0.785524
vt 0.500000 0.000000
vt 0.235000 0.333333
vt 0.235000 0.666667
vt 0.500000 1.000000
vt 0.765000 0.666667
vt 0.765000 0.333333
vn -0.0779 -0.3498 0.9336
s off
mtllib leafwood.mtl
usemtl Leaves
f 1/1/1 2/2/1 5/3/1 4/4/1
f 1/1/1 4/4/1 6/5/1 3/6/1
