# Blender v3.4.0 OBJ File: 'apple_tree9_sapling_1_8_2_2.blend'
# www.blender.org
o leaves.031
v -0.174324 -0.163664 0.653435
v -0.292226 -0.199189 0.656797
v -0.204310 -0.206675 0.651854
v -0.222939 -0.144336 0.657258
v -0.262240 -0.156178 0.658378
v -0.243611 -0.218517 0.652974
vt 0.500000 0.000000
vt 0.500000 1.000000
vt 0.765000 0.666667
vt 0.765000 0.333333
vt 0.235000 0.333333
vt 0.235000 0.666667
vn 0.0499 -0.0714 0.9962
s off
mtllib leafwood.mtl
usemtl Leaves
f 1/1/1 2/2/1 6/3/1 3/4/1
f 1/1/1 4/5/1 5/6/1 2/2/1
