# Blender v3.4.0 OBJ File: 'apple_tree9_sapling_1_8_2_2.blend'
# www.blender.org
o leaves.117
v -0.172889 0.015726 1.316629
v -0.144736 0.031287 1.307415
v -0.147351 0.076257 1.273525
v -0.184015 0.040519 1.297107
v -0.175503 0.060696 1.282739
v -0.136224 0.051464 1.293047
vt 0.500000 0.000000
vt 0.235000 0.333333
vt 0.235000 0.666667
vt 0.500000 1.000000
vt 0.765000 0.666667
vt 0.765000 0.333333
vn -0.0691 0.5978 0.7986
s off
mtllib leafwood.mtl
usemtl Leaves
f 1/1/1 2/2/1 6/3/1 3/4/1
f 1/1/1 3/4/1 5/5/1 4/6/1
