# Blender v3.4.0 OBJ File: 'apple_tree9_sapling_1_8_2_2.blend'
# www.blender.org
o leaves.039
v 0.222359 0.073446 0.683844
v 0.264698 0.075536 0.676855
v 0.295291 0.138864 0.659754
v 0.228641 0.114968 0.674773
v 0.252952 0.136774 0.666744
v 0.289009 0.097342 0.668825
vt 0.500000 0.000000
vt 0.235000 0.333333
vt 0.235000 0.666667
vt 0.500000 1.000000
vt 0.765000 0.666667
vt 0.765000 0.333333
vn 0.1508 0.1891 0.9703
s off
mtllib leafwood.mtl
usemtl Leaves
f 1/1/1 2/2/1 6/3/1 3/4/1
f 1/1/1 3/4/1 5/5/1 4/6/1
