# Blender v3.4.0 OBJ File: 'apple_tree9_sapling_1_8_2_2.blend'
# www.blender.org
o leaves.013
v -0.243706 0.113168 0.764957
v -0.255749 0.147946 0.763735
v -0.316482 0.159410 0.758373
v -0.280181 0.109218 0.761790
v -0.304440 0.124632 0.759595
v -0.280008 0.163360 0.761540
vt 0.500000 0.000000
vt 0.235000 0.333333
vt 0.235000 0.666667
vt 0.500000 1.000000
vt 0.765000 0.666667
vt 0.765000 0.333333
vn -0.0870 0.0049 0.9962
s off
mtllib leafwood.mtl
usemtl Leaves
f 1/1/1 2/2/1 6/3/1 3/4/1
f 1/1/1 3/4/1 5/5/1 4/6/1
