# Blender v3.4.0 OBJ File: 'apple_tree9_sapling_1_8_2_2.blend'
# www.blender.org
o leaves.245
v 0.002429 -0.081865 2.381485
v -0.023224 -0.045535 2.380158
v -0.096555 -0.051109 2.394657
v -0.037908 -0.097691 2.391593
v -0.070903 -0.087439 2.395983
v -0.056219 -0.035283 2.384549
vt 0.500000 0.000000
vt 0.235000 0.333333
vt 0.235000 0.666667
vt 0.500000 1.000000
vt 0.765000 0.666667
vt 0.765000 0.333333
vn 0.1795 0.1622 0.9703
s off
mtllib leafwood.mtl
usemtl Leaves
f 1/1/1 2/2/1 6/3/1 3/4/1
f 1/1/1 3/4/1 5/5/1 4/6/1
