# Blender v3.4.0 OBJ File: 'apple_tree9_sapling_1_8_2_2.blend'
# www.blender.org
o leaves.215
v -0.051507 -0.122971 1.912443
v -0.066691 -0.220511 1.865079
v -0.034441 -0.166357 1.911953
v -0.078695 -0.144611 1.881357
v -0.083756 -0.177125 1.865569
v -0.039502 -0.198870 1.896165
vt 0.500000 0.000000
vt 0.500000 1.000000
vt 0.765000 0.666667
vt 0.765000 0.333333
vt 0.235000 0.333333
vt 0.235000 0.666667
vn -0.6318 -0.2568 0.7314
s off
mtllib leafwood.mtl
usemtl Leaves
f 1/1/1 2/2/1 6/3/1 3/4/1
f 1/1/1 4/5/1 5/6/1 2/2/1
