# Blender v3.4.0 OBJ File: 'apple_tree9_sapling_1_8_2_2.blend'
# www.blender.org
o leaves.020
v -0.268806 -0.005581 0.737133
v -0.308967 -0.002766 0.736068
v -0.346636 -0.059003 0.731376
v -0.280531 -0.044010 0.734360
v -0.306475 -0.061817 0.732441
v -0.334911 -0.020573 0.734149
vt 0.500000 0.000000
vt 0.235000 0.333333
vt 0.235000 0.666667
vt 0.500000 1.000000
vt 0.765000 0.666667
vt 0.765000 0.333333
vn -0.0308 -0.0626 0.9976
s off
mtllib leafwood.mtl
usemtl Leaves
f 1/1/1 2/2/1 6/3/1 3/4/1
f 1/1/1 3/4/1 5/5/1 4/6/1
