# Blender v3.4.0 OBJ File: 'apple_tree9_sapling_1_8_2_2.blend'
# www.blender.org
o leaves.238
v -0.143609 0.128143 2.395808
v -0.158898 0.151049 2.415955
v -0.215740 0.148515 2.424142
v -0.176408 0.118818 2.394551
v -0.200452 0.125609 2.403995
v -0.182941 0.157839 2.425399
vt 0.500000 0.000000
vt 0.235000 0.333333
vt 0.235000 0.666667
vt 0.500000 1.000000
vt 0.765000 0.666667
vt 0.765000 0.333333
vn 0.1402 -0.5995 0.7880
s off
mtllib leafwood.mtl
usemtl Leaves
f 1/1/1 2/2/1 6/3/1 3/4/1
f 1/1/1 3/4/1 5/5/1 4/6/1
