# Blender v3.4.0 OBJ File: 'apple_tree9_sapling_1_8_2_2.blend'
# www.blender.org
o leaves.236
v -0.131286 0.122866 2.382585
v -0.171608 0.113618 2.382968
v -0.149381 0.160063 2.383267
v -0.218912 0.164789 2.384183
v -0.200816 0.127592 2.383501
v -0.178590 0.174038 2.383800
vt 0.500000 0.000000
vt 0.500000 1.000000
vt 0.765000 0.666667
vt 0.765000 0.333333
vt 0.235000 0.333333
vt 0.235000 0.666667
vn 0.0123 -0.0123 0.9998
s off
mtllib leafwood.mtl
usemtl Leaves
f 1/1/1 4/2/1 5/3/1 2/4/1
f 1/1/1 3/5/1 6/6/1 4/2/1
