# Blender v3.4.0 OBJ File: 'apple_tree9_sapling_1_8_2_2.blend'
# www.blender.org
o leaves.128
v 0.136857 -0.150593 1.309223
v 0.134820 -0.203574 1.315509
v 0.209971 -0.249352 1.334149
v 0.187637 -0.163451 1.319554
v 0.212009 -0.196371 1.327863
v 0.159191 -0.236494 1.323818
vt 0.500000 0.000000
vt 0.235000 0.333333
vt 0.235000 0.666667
vt 0.500000 1.000000
vt 0.765000 0.666667
vt 0.765000 0.333333
vn -0.1680 0.1225 0.9781
s off
mtllib leafwood.mtl
usemtl Leaves
f 1/1/1 2/2/1 6/3/1 3/4/1
f 1/1/1 3/4/1 5/5/1 4/6/1
