# Blender v3.4.0 OBJ File: 'apple_tree5_sapling_1_8_2_2.blend'
# www.blender.org
o leaves.164
v 0.031379 0.019721 1.420482
v 0.095710 0.128305 1.362297
v 0.023254 0.076898 1.407553
v 0.082392 0.034934 1.394621
v 0.103835 0.071128 1.375227
v 0.044698 0.113093 1.388159
vt 0.500000 0.000000
vt 0.500000 1.000000
vt 0.765000 0.666667
vt 0.765000 0.333333
vt 0.235000 0.333333
vt 0.235000 0.666667
vn 0.3757 0.2549 0.8910
s off
mtllib leafwood.mtl
usemtl Leaves
f 1/1/1 2/2/1 6/3/1 3/4/1
f 1/1/1 4/5/1 5/6/1 2/2/1
