# Blender v3.4.0 OBJ File: 'apple_tree5_sapling_1_8_2_2.blend'
# www.blender.org
o leaves.167
v 0.099659 -0.062275 1.413298
v 0.102818 -0.084816 1.366484
v 0.179025 -0.118764 1.339455
v 0.149412 -0.077393 1.410884
v 0.175867 -0.096223 1.386269
v 0.129273 -0.103646 1.341870
vt 0.500000 0.000000
vt 0.235000 0.333333
vt 0.235000 0.666667
vt 0.500000 1.000000
vt 0.765000 0.666667
vt 0.765000 0.333333
vn -0.2475 -0.8794 0.4067
s off
mtllib leafwood.mtl
usemtl Leaves
f 1/1/1 2/2/1 6/3/1 3/4/1
f 1/1/1 3/4/1 5/5/1 4/6/1
