# Blender v3.4.0 OBJ File: 'apple_tree5_sapling_1_8_2_2.blend'
# www.blender.org
o leaves.220
v 0.118196 -0.003713 1.927616
v 0.159330 -0.001984 1.950102
v 0.146320 -0.029376 1.900209
v 0.222082 -0.039613 1.920236
v 0.193958 -0.013951 1.947643
v 0.180949 -0.041342 1.897750
vt 0.500000 0.000000
vt 0.500000 1.000000
vt 0.765000 0.666667
vt 0.765000 0.333333
vt 0.235000 0.333333
vt 0.235000 0.666667
vn -0.2471 -0.8208 0.5150
s off
mtllib leafwood.mtl
usemtl Leaves
f 1/1/1 4/2/1 5/3/1 2/4/1
f 1/1/1 3/5/1 6/6/1 4/2/1
