# Blender v3.4.0 OBJ File: 'apple_tree5_sapling_1_8_2_2.blend'
# www.blender.org
o leaves.157
v -0.097317 -0.132445 1.411765
v -0.137445 -0.146524 1.407177
v -0.157318 -0.208732 1.437637
v -0.097189 -0.169225 1.433600
v -0.117189 -0.194653 1.442224
v -0.157445 -0.171952 1.415802
vt 0.500000 0.000000
vt 0.235000 0.333333
vt 0.235000 0.666667
vt 0.500000 1.000000
vt 0.765000 0.666667
vt 0.765000 0.333333
vn -0.2671 0.4913 0.8290
s off
mtllib leafwood.mtl
usemtl Leaves
f 1/1/1 2/2/1 6/3/1 3/4/1
f 1/1/1 3/4/1 5/5/1 4/6/1
