# Blender v3.4.0 OBJ File: 'apple_tree5_sapling_1_8_2_2.blend'
# www.blender.org
o leaves.015
v -0.201298 -0.118017 0.768730
v -0.227593 -0.128047 0.754963
v -0.230135 -0.177182 0.735855
v -0.194228 -0.147430 0.760580
v -0.203840 -0.167151 0.749622
v -0.237205 -0.147769 0.744005
vt 0.500000 0.000000
vt 0.235000 0.333333
vt 0.235000 0.666667
vt 0.500000 1.000000
vt 0.765000 0.666667
vt 0.765000 0.333333
vn -0.3380 -0.3259 0.8829
s off
mtllib leafwood.mtl
usemtl Leaves
f 1/1/1 2/2/1 6/3/1 3/4/1
f 1/1/1 3/4/1 5/5/1 4/6/1
