# Blender v3.4.0 OBJ File: 'apple_tree5_sapling_1_8_2_2.blend'
# www.blender.org
o leaves.225
v -0.072748 -0.034519 2.039419
v -0.110077 -0.061804 2.039419
v -0.101492 -0.139227 2.039419
v -0.054582 -0.077039 2.039419
v -0.064163 -0.111942 2.039419
v -0.119659 -0.096707 2.039419
vt 0.500000 0.000000
vt 0.235000 0.333333
vt 0.235000 0.666667
vt 0.500000 1.000000
vt 0.765000 0.666667
vt 0.765000 0.333333
vn 0.0000 0.0000 1.0000
s off
mtllib leafwood.mtl
usemtl Leaves
f 1/1/1 2/2/1 6/3/1 3/4/1
f 1/1/1 3/4/1 5/5/1 4/6/1
