# Blender v3.4.0 OBJ File: 'apple_tree5_sapling_1_8_2_2.blend'
# www.blender.org
o leaves.014
v -0.150495 -0.095615 0.747849
v -0.156091 -0.054874 0.753005
v -0.185934 -0.088414 0.727601
v -0.212047 -0.023702 0.725211
v -0.176608 -0.030903 0.745459
v -0.206451 -0.064443 0.720055
vt 0.500000 0.000000
vt 0.235000 0.333333
vt 0.235000 0.666667
vt 0.500000 1.000000
vt 0.765000 0.666667
vt 0.765000 0.333333
vn -0.5151 -0.1769 0.8387
s off
mtllib leafwood.mtl
usemtl Leaves
f 1/1/1 2/2/1 5/3/1 4/4/1
f 1/1/1 4/4/1 6/5/1 3/6/1
