# Blender v3.4.0 OBJ File: 'apple_tree5_sapling_1_8_2_2.blend'
# www.blender.org
o leaves.010
v 0.019233 0.349204 0.713155
v 0.020799 0.377876 0.712261
v -0.018018 0.403720 0.699307
v -0.007167 0.356876 0.704817
v -0.019584 0.375048 0.700201
v 0.008382 0.396048 0.707645
vt 0.500000 0.000000
vt 0.235000 0.333333
vt 0.235000 0.666667
vt 0.500000 1.000000
vt 0.765000 0.666667
vt 0.765000 0.333333
vn -0.2888 0.0456 0.9563
s off
mtllib leafwood.mtl
usemtl Leaves
f 1/1/1 2/2/1 6/3/1 3/4/1
f 1/1/1 3/4/1 5/5/1 4/6/1
