# Blender v3.4.0 OBJ File: 'apple_tree5_sapling_1_8_2_2.blend'
# www.blender.org
o leaves.130
v 0.056734 -0.162876 1.150984
v 0.079099 -0.181548 1.181289
v 0.146353 -0.200102 1.169105
v 0.094115 -0.169021 1.132759
v 0.123988 -0.181430 1.138800
v 0.108972 -0.193957 1.187330
vt 0.500000 0.000000
vt 0.235000 0.333333
vt 0.235000 0.666667
vt 0.500000 1.000000
vt 0.765000 0.666667
vt 0.765000 0.333333
vn 0.3058 0.8947 0.3256
s off
mtllib leafwood.mtl
usemtl Leaves
f 1/1/1 2/2/1 6/3/1 3/4/1
f 1/1/1 3/4/1 5/5/1 4/6/1
