# Blender v3.4.0 OBJ File: 'apple_tree5_sapling_1_8_2_2.blend'
# www.blender.org
o leaves.021
v -0.092941 -0.182455 0.716374
v -0.145978 -0.246202 0.691233
v -0.126189 -0.196830 0.723410
v -0.095051 -0.210578 0.692577
v -0.112730 -0.231827 0.684197
v -0.143868 -0.218079 0.715030
vt 0.500000 0.000000
vt 0.500000 1.000000
vt 0.765000 0.666667
vt 0.765000 0.333333
vt 0.235000 0.333333
vt 0.235000 0.666667
vn 0.4070 -0.6076 0.6820
s off
mtllib leafwood.mtl
usemtl Leaves
f 1/1/1 2/2/1 5/3/1 4/4/1
f 1/1/1 3/5/1 6/6/1 2/2/1
