# Blender v3.4.0 OBJ File: 'apple_tree5_sapling_1_8_2_2.blend'
# www.blender.org
o leaves.053
v -0.071686 0.253947 0.849657
v -0.044513 0.157838 0.854626
v -0.088131 0.214723 0.851749
v -0.037126 0.229098 0.850878
v -0.028068 0.197062 0.852535
v -0.079074 0.182687 0.853405
vt 0.500000 0.000000
vt 0.500000 1.000000
vt 0.765000 0.666667
vt 0.765000 0.333333
vt 0.235000 0.333333
vt 0.235000 0.666667
vn 0.0023 0.0523 0.9986
s off
mtllib leafwood.mtl
usemtl Leaves
f 1/1/1 2/2/1 5/3/1 4/4/1
f 1/1/1 3/5/1 6/6/1 2/2/1
