# Blender v3.4.0 OBJ File: 'apple_tree5_sapling_1_8_2_2.blend'
# www.blender.org
o leaves.040
v 0.074126 0.146827 0.721510
v 0.073456 0.117428 0.746277
v 0.108023 0.120566 0.800965
v 0.097394 0.158719 0.749712
v 0.108693 0.149966 0.776197
v 0.084755 0.108674 0.772762
vt 0.500000 0.000000
vt 0.235000 0.333333
vt 0.235000 0.666667
vt 0.500000 1.000000
vt 0.765000 0.666667
vt 0.765000 0.333333
vn -0.7803 0.4133 0.4695
s off
mtllib leafwood.mtl
usemtl Leaves
f 1/1/1 2/2/1 6/3/1 3/4/1
f 1/1/1 3/4/1 5/5/1 4/6/1
