# Blender v3.4.0 OBJ File: 'apple_tree5_sapling_1_8_2_2.blend'
# www.blender.org
o leaves.056
v 0.058156 0.151219 0.752048
v 0.047742 0.241383 0.723155
v 0.077351 0.186951 0.751963
v 0.032018 0.175597 0.732871
v 0.028547 0.205652 0.723240
v 0.073880 0.217006 0.742332
vt 0.500000 0.000000
vt 0.500000 1.000000
vt 0.765000 0.666667
vt 0.765000 0.333333
vt 0.235000 0.333333
vt 0.235000 0.666667
vn -0.4262 0.2310 0.8746
s off
mtllib leafwood.mtl
usemtl Leaves
f 1/1/1 2/2/1 5/3/1 4/4/1
f 1/1/1 3/5/1 6/6/1 2/2/1
