# Blender v3.4.0 OBJ File: 'apple_tree5_sapling_1_8_2_2.blend'
# www.blender.org
o leaves.126
v 0.067292 -0.211464 1.159327
v 0.092552 -0.236923 1.141127
v 0.147610 -0.213058 1.109665
v 0.095577 -0.187067 1.144418
v 0.122349 -0.187599 1.127864
v 0.119325 -0.237454 1.124574
vt 0.500000 0.000000
vt 0.235000 0.333333
vt 0.235000 0.666667
vt 0.500000 1.000000
vt 0.765000 0.666667
vt 0.765000 0.333333
vn 0.5226 -0.0877 0.8480
s off
mtllib leafwood.mtl
usemtl Leaves
f 1/1/1 2/2/1 6/3/1 3/4/1
f 1/1/1 3/4/1 5/5/1 4/6/1
