# Blender v3.4.0 OBJ File: 'apple_tree5_sapling_1_8_2_2.blend'
# www.blender.org
o leaves.150
v -0.104640 -0.025503 1.320113
v -0.228683 -0.055976 1.318838
v -0.137905 -0.068513 1.318556
v -0.154070 -0.002809 1.320820
v -0.195418 -0.012966 1.320395
v -0.179253 -0.078671 1.318131
vt 0.500000 0.000000
vt 0.500000 1.000000
vt 0.765000 0.666667
vt 0.765000 0.333333
vt 0.235000 0.333333
vt 0.235000 0.666667
vn -0.0017 -0.0349 0.9994
s off
mtllib leafwood.mtl
usemtl Leaves
f 1/1/1 2/2/1 6/3/1 3/4/1
f 1/1/1 4/5/1 5/6/1 2/2/1
