# Blender v3.4.0 OBJ File: 'apple_tree5_sapling_1_8_2_2.blend'
# www.blender.org
o leaves.011
v -0.057646 -0.019921 0.657205
v -0.093831 0.009618 0.661148
v -0.167710 -0.017957 0.656858
v -0.094837 -0.048150 0.653030
v -0.131525 -0.047495 0.652915
v -0.130519 0.010272 0.661032
vt 0.500000 0.000000
vt 0.235000 0.333333
vt 0.235000 0.666667
vt 0.500000 1.000000
vt 0.765000 0.666667
vt 0.765000 0.333333
vn -0.0056 -0.1391 0.9903
s off
mtllib leafwood.mtl
usemtl Leaves
f 1/1/1 2/2/1 6/3/1 3/4/1
f 1/1/1 3/4/1 5/5/1 4/6/1
