# Blender v3.4.0 OBJ File: 'apple_tree5_sapling_1_8_2_2.blend'
# www.blender.org
o leaves.158
v -0.120759 -0.171265 1.455288
v -0.168441 -0.251287 1.477152
v -0.115185 -0.211281 1.460561
v -0.158120 -0.184597 1.464590
v -0.174014 -0.211271 1.471878
v -0.131079 -0.237955 1.467849
vt 0.500000 0.000000
vt 0.500000 1.000000
vt 0.765000 0.666667
vt 0.765000 0.333333
vt 0.235000 0.333333
vt 0.235000 0.666667
vn 0.1867 0.1539 0.9703
s off
mtllib leafwood.mtl
usemtl Leaves
f 1/1/1 2/2/1 6/3/1 3/4/1
f 1/1/1 4/5/1 5/6/1 2/2/1
