# Blender v3.4.0 OBJ File: 'apple_tree5_sapling_1_8_2_2.blend'
# www.blender.org
o leaves.205
v 0.028627 -0.016624 1.743250
v 0.022726 -0.068281 1.753562
v 0.071073 -0.128377 1.708562
v 0.062826 -0.039470 1.709813
v 0.076974 -0.076721 1.698250
v 0.036874 -0.105531 1.741999
vt 0.500000 0.000000
vt 0.235000 0.333333
vt 0.235000 0.666667
vt 0.500000 1.000000
vt 0.765000 0.666667
vt 0.765000 0.333333
vn 0.7171 0.0567 0.6947
s off
mtllib leafwood.mtl
usemtl Leaves
f 1/1/1 2/2/1 6/3/1 3/4/1
f 1/1/1 3/4/1 5/5/1 4/6/1
