# Blender v3.4.0 OBJ File: 'apple_tree5_sapling_1_8_2_2.blend'
# www.blender.org
o leaves.026
v 0.124014 -0.131296 0.677901
v 0.196047 -0.193790 0.629561
v 0.127099 -0.166654 0.649385
v 0.168951 -0.137601 0.674190
v 0.192962 -0.158432 0.658077
v 0.151110 -0.187486 0.633272
vt 0.500000 0.000000
vt 0.500000 1.000000
vt 0.765000 0.666667
vt 0.765000 0.333333
vt 0.235000 0.333333
vt 0.235000 0.666667
vn -0.0241 -0.6289 0.7771
s off
mtllib leafwood.mtl
usemtl Leaves
f 1/1/1 2/2/1 5/3/1 4/4/1
f 1/1/1 3/5/1 6/6/1 2/2/1
