# Blender v3.4.0 OBJ File: 'apple_tree5_sapling_1_8_2_2.blend'
# www.blender.org
o leaves.136
v 0.043523 0.197790 1.213327
v 0.121564 0.143682 1.178335
v 0.052919 0.159502 1.195918
v 0.086154 0.200006 1.207409
v 0.112167 0.181970 1.195745
v 0.078933 0.141466 1.184254
vt 0.500000 0.000000
vt 0.500000 1.000000
vt 0.765000 0.666667
vt 0.765000 0.333333
vt 0.235000 0.333333
vt 0.235000 0.666667
vn 0.1466 -0.3794 0.9135
s off
mtllib leafwood.mtl
usemtl Leaves
f 1/1/1 2/2/1 5/3/1 4/4/1
f 1/1/1 3/5/1 6/6/1 2/2/1
