# Blender v3.4.0 OBJ File: 'apple_tree5_sapling_1_8_2_2.blend'
# www.blender.org
o leaves.025
v 0.089506 -0.099832 0.666401
v 0.147731 -0.003030 0.657478
v 0.091190 -0.054993 0.684151
v 0.126638 -0.080136 0.642701
v 0.146047 -0.047868 0.639727
v 0.110598 -0.022726 0.681177
vt 0.500000 0.000000
vt 0.500000 1.000000
vt 0.765000 0.666667
vt 0.765000 0.333333
vt 0.235000 0.333333
vt 0.235000 0.666667
vn 0.6226 -0.3082 0.7193
s off
mtllib leafwood.mtl
usemtl Leaves
f 1/1/1 2/2/1 6/3/1 3/4/1
f 1/1/1 4/5/1 5/6/1 2/2/1
