# Blender v3.4.0 OBJ File: 'apple_tree5_sapling_1_8_2_2.blend'
# www.blender.org
o leaves.032
v -0.008878 -0.215385 0.689191
v -0.042236 -0.204970 0.696216
v -0.085024 -0.246056 0.705555
v -0.026285 -0.246248 0.693076
v -0.051667 -0.256471 0.698530
v -0.067618 -0.215194 0.701670
vt 0.500000 0.000000
vt 0.235000 0.333333
vt 0.235000 0.666667
vt 0.500000 1.000000
vt 0.765000 0.666667
vt 0.765000 0.333333
vn 0.2078 0.0059 0.9781
s off
mtllib leafwood.mtl
usemtl Leaves
f 1/1/1 2/2/1 6/3/1 3/4/1
f 1/1/1 3/4/1 5/5/1 4/6/1
