# Blender v3.4.0 OBJ File: 'apple_tree5_sapling_1_8_2_2.blend'
# www.blender.org
o leaves.145
v -0.000525 0.216087 1.220649
v -0.021787 0.248693 1.224190
v -0.081005 0.252453 1.195638
v -0.032917 0.207725 1.200434
v -0.059743 0.219847 1.192097
v -0.048613 0.260815 1.215852
vt 0.500000 0.000000
vt 0.235000 0.333333
vt 0.235000 0.666667
vt 0.500000 1.000000
vt 0.765000 0.666667
vt 0.765000 0.333333
vn -0.4229 -0.3658 0.8290
s off
mtllib leafwood.mtl
usemtl Leaves
f 1/1/1 2/2/1 6/3/1 3/4/1
f 1/1/1 3/4/1 5/5/1 4/6/1
