# Blender v3.4.0 OBJ File: 'apple_tree5_sapling_1_8_2_2.blend'
# www.blender.org
o leaves.151
v -0.164297 -0.031279 1.313731
v -0.139814 -0.018417 1.277589
v -0.167754 0.034236 1.229368
v -0.191084 -0.000464 1.293632
v -0.192237 0.021375 1.265511
v -0.140966 0.003421 1.249468
vt 0.500000 0.000000
vt 0.235000 0.333333
vt 0.235000 0.666667
vt 0.500000 1.000000
vt 0.765000 0.666667
vt 0.765000 0.333333
vn 0.4238 0.7237 0.5446
s off
mtllib leafwood.mtl
usemtl Leaves
f 1/1/1 2/2/1 6/3/1 3/4/1
f 1/1/1 3/4/1 5/5/1 4/6/1
