# Blender v3.4.0 OBJ File: 'apple_tree5_sapling_1_8_2_2.blend'
# www.blender.org
o leaves.208
v 0.148626 -0.080712 1.794556
v 0.107407 -0.087589 1.805692
v 0.082823 -0.155742 1.813386
v 0.145976 -0.123855 1.795972
v 0.124042 -0.148864 1.802249
v 0.085473 -0.112599 1.811969
vt 0.500000 0.000000
vt 0.235000 0.333333
vt 0.235000 0.666667
vt 0.500000 1.000000
vt 0.765000 0.666667
vt 0.765000 0.333333
vn 0.2583 0.0159 0.9659
s off
mtllib leafwood.mtl
usemtl Leaves
f 1/1/1 2/2/1 6/3/1 3/4/1
f 1/1/1 3/4/1 5/5/1 4/6/1
