# Blender v3.4.0 OBJ File: 'apple_tree5_sapling_1_8_2_2.blend'
# www.blender.org
o leaves.016
v -0.112052 -0.024638 0.649708
v -0.129670 -0.006564 0.697901
v -0.218891 -0.010953 0.718406
v -0.165660 -0.033589 0.647314
v -0.201273 -0.029027 0.670214
v -0.165283 -0.002002 0.720800
vt 0.500000 0.000000
vt 0.235000 0.333333
vt 0.235000 0.666667
vt 0.500000 1.000000
vt 0.765000 0.666667
vt 0.765000 0.333333
vn 0.1346 -0.9106 0.3907
s off
mtllib leafwood.mtl
usemtl Leaves
f 1/1/1 2/2/1 6/3/1 3/4/1
f 1/1/1 3/4/1 5/5/1 4/6/1
