# Blender v3.4.0 OBJ File: 'apple_tree5_sapling_1_8_2_2.blend'
# www.blender.org
o leaves.124
v 0.035358 -0.119679 1.138214
v 0.093734 -0.176543 1.216327
v 0.041036 -0.163917 1.156145
v 0.068597 -0.113351 1.172359
v 0.088056 -0.132305 1.198396
v 0.060495 -0.182872 1.182183
vt 0.500000 0.000000
vt 0.500000 1.000000
vt 0.765000 0.666667
vt 0.765000 0.333333
vt 0.235000 0.333333
vt 0.235000 0.666667
vn -0.7214 0.1786 0.6691
s off
mtllib leafwood.mtl
usemtl Leaves
f 1/1/1 2/2/1 5/3/1 4/4/1
f 1/1/1 3/5/1 6/6/1 2/2/1
