# Blender v3.4.0 OBJ File: 'apple_tree5_sapling_1_8_2_2.blend'
# www.blender.org
o leaves.210
v 0.232570 -0.078492 1.823103
v 0.257601 -0.098783 1.817307
v 0.306647 -0.089228 1.840662
v 0.256923 -0.065359 1.840604
v 0.281615 -0.068937 1.846457
v 0.282294 -0.102361 1.823161
vt 0.500000 0.000000
vt 0.235000 0.333333
vt 0.235000 0.666667
vt 0.500000 1.000000
vt 0.765000 0.666667
vt 0.765000 0.333333
vn -0.2672 -0.5547 0.7880
s off
mtllib leafwood.mtl
usemtl Leaves
f 1/1/1 2/2/1 6/3/1 3/4/1
f 1/1/1 3/4/1 5/5/1 4/6/1
