# Blender v3.4.0 OBJ File: 'apple_tree5_sapling_1_8_2_2.blend'
# www.blender.org
o leaves.185
v -0.125985 0.161911 1.570690
v -0.171700 0.162350 1.573794
v -0.210412 0.095855 1.580068
v -0.136554 0.117435 1.573839
v -0.164697 0.095416 1.576965
v -0.199843 0.140331 1.576920
vt 0.500000 0.000000
vt 0.235000 0.333333
vt 0.235000 0.666667
vt 0.500000 1.000000
vt 0.765000 0.666667
vt 0.765000 0.333333
vn 0.0682 0.0543 0.9962
s off
mtllib leafwood.mtl
usemtl Leaves
f 1/1/1 2/2/1 6/3/1 3/4/1
f 1/1/1 3/4/1 5/5/1 4/6/1
