# Blender v3.4.0 OBJ File: 'apple_tree5_sapling_1_8_2_2.blend'
# www.blender.org
o leaves.195
v -0.158980 0.029683 1.679466
v -0.116074 0.030513 1.699088
v -0.106403 0.006009 1.774094
v -0.166835 0.013070 1.722929
v -0.149309 0.005179 1.754471
v -0.098548 0.022621 1.730631
vt 0.500000 0.000000
vt 0.500000 1.000000
vt 0.765000 0.666667
vt 0.765000 0.333333
vt 0.235000 0.333333
vt 0.235000 0.666667
vn -0.1669 0.9307 0.3256
s off
mtllib leafwood.mtl
usemtl Leaves
f 1/1/1 3/2/1 6/3/1 2/4/1
f 1/1/1 4/5/1 5/6/1 3/2/1
