# Blender v3.4.0 OBJ File: 'apple_tree5_sapling_1_8_2_2.blend'
# www.blender.org
o leaves.197
v -0.234862 -0.009695 1.688173
v -0.247584 0.028454 1.704751
v -0.318666 0.046267 1.704877
v -0.278010 -0.010537 1.682732
v -0.305945 0.008118 1.688300
v -0.275518 0.047108 1.710319
vt 0.500000 0.000000
vt 0.235000 0.333333
vt 0.235000 0.666667
vt 0.500000 1.000000
vt 0.765000 0.666667
vt 0.765000 0.333333
vn -0.1051 -0.4256 0.8988
s off
mtllib leafwood.mtl
usemtl Leaves
f 1/1/1 2/2/1 6/3/1 3/4/1
f 1/1/1 3/4/1 5/5/1 4/6/1
