# Blender v3.4.0 OBJ File: 'apple_tree5_sapling_1_8_2_2.blend'
# www.blender.org
o leaves.083
v 0.274239 0.048985 0.843417
v 0.292692 0.028977 0.855671
v 0.338694 0.043050 0.870323
v 0.298755 0.065037 0.849101
v 0.320241 0.063058 0.858070
v 0.314178 0.026998 0.864640
vt 0.500000 0.000000
vt 0.235000 0.333333
vt 0.235000 0.666667
vt 0.500000 1.000000
vt 0.765000 0.666667
vt 0.765000 0.333333
vn -0.3576 0.2253 0.9063
s off
mtllib leafwood.mtl
usemtl Leaves
f 1/1/1 2/2/1 6/3/1 3/4/1
f 1/1/1 3/4/1 5/5/1 4/6/1
