# Blender v3.4.0 OBJ File: 'apple_tree5_sapling_1_8_2_2.blend'
# www.blender.org
o leaves.069
v -0.025008 -0.206859 0.865400
v -0.029768 -0.246350 0.883765
v 0.029887 -0.285521 0.902603
v 0.016348 -0.219809 0.871837
v 0.034647 -0.246030 0.884238
v -0.011469 -0.272571 0.896166
vt 0.500000 0.000000
vt 0.235000 0.333333
vt 0.235000 0.666667
vt 0.500000 1.000000
vt 0.765000 0.666667
vt 0.765000 0.333333
vn -0.0087 0.4225 0.9063
vn -0.0088 0.4225 0.9063
s off
mtllib leafwood.mtl
usemtl Leaves
f 1/1/1 2/2/1 6/3/1 3/4/1
f 1/1/2 3/4/2 5/5/2 4/6/2
