# Blender v3.4.0 OBJ File: 'apple_tree5_sapling_1_8_2_2.blend'
# www.blender.org
o leaves.028
v 0.208757 -0.176783 0.668201
v 0.239146 -0.180087 0.678564
v 0.274817 -0.139730 0.671093
v 0.222408 -0.148777 0.659766
v 0.244428 -0.136426 0.660730
v 0.261166 -0.167736 0.679528
vt 0.500000 0.000000
vt 0.235000 0.333333
vt 0.235000 0.666667
vt 0.500000 1.000000
vt 0.765000 0.666667
vt 0.765000 0.333333
vn -0.2585 0.3919 0.8829
s off
mtllib leafwood.mtl
usemtl Leaves
f 1/1/1 2/2/1 6/3/1 3/4/1
f 1/1/1 3/4/1 5/5/1 4/6/1
