# Blender v3.4.0 OBJ File: 'apple_tree5_sapling_1_8_2_2.blend'
# www.blender.org
o leaves.087
v 0.212200 0.162562 0.984690
v 0.244330 0.173813 0.992895
v 0.256662 0.231467 0.990822
v 0.209711 0.197249 0.980574
v 0.224532 0.220217 0.982618
v 0.259151 0.196781 0.994939
vt 0.500000 0.000000
vt 0.235000 0.333333
vt 0.235000 0.666667
vt 0.500000 1.000000
vt 0.765000 0.666667
vt 0.765000 0.333333
vn -0.2770 0.0936 0.9563
s off
mtllib leafwood.mtl
usemtl Leaves
f 1/1/1 2/2/1 6/3/1 3/4/1
f 1/1/1 3/4/1 5/5/1 4/6/1
