# Blender v3.4.0 OBJ File: 'apple_tree5_sapling_1_8_2_2.blend'
# www.blender.org
o leaves.047
v 0.153315 0.110634 0.779232
v 0.175959 0.089453 0.771150
v 0.227388 0.105350 0.767092
v 0.180053 0.128293 0.779221
v 0.204744 0.126531 0.775174
v 0.200650 0.087691 0.767103
vt 0.500000 0.000000
vt 0.235000 0.333333
vt 0.235000 0.666667
vt 0.500000 1.000000
vt 0.765000 0.666667
vt 0.765000 0.333333
vn 0.1429 -0.2158 0.9659
s off
mtllib leafwood.mtl
usemtl Leaves
f 1/1/1 2/2/1 6/3/1 3/4/1
f 1/1/1 3/4/1 5/5/1 4/6/1
