# Blender v3.4.0 OBJ File: 'apple_tree5_sapling_1_8_2_2.blend'
# www.blender.org
o leaves.095
v -0.092043 0.172856 1.005774
v -0.126799 0.192704 0.990622
v -0.192324 0.166281 1.004992
v -0.124141 0.148624 1.020404
v -0.157568 0.146432 1.020144
v -0.160226 0.190513 0.990361
vt 0.500000 0.000000
vt 0.235000 0.333333
vt 0.235000 0.666667
vt 0.500000 1.000000
vt 0.765000 0.666667
vt 0.765000 0.333333
vn -0.0430 0.5575 0.8290
s off
mtllib leafwood.mtl
usemtl Leaves
f 1/1/1 2/2/1 6/3/1 3/4/1
f 1/1/1 3/4/1 5/5/1 4/6/1
