# Blender v3.4.0 OBJ File: 'apple_tree5_sapling_1_8_2_2.blend'
# www.blender.org
o leaves.113
v -0.105352 -0.109807 1.111206
v -0.075366 -0.089829 1.131083
v -0.091408 -0.041151 1.177766
v -0.126042 -0.084015 1.135702
v -0.121394 -0.061130 1.157889
v -0.070719 -0.066944 1.153270
vt 0.500000 0.000000
vt 0.235000 0.333333
vt 0.235000 0.666667
vt 0.500000 1.000000
vt 0.765000 0.666667
vt 0.765000 0.333333
vn -0.0141 -0.6945 0.7193
s off
mtllib leafwood.mtl
usemtl Leaves
f 1/1/1 2/2/1 6/3/1 3/4/1
f 1/1/1 3/4/1 5/5/1 4/6/1
