# Blender v3.4.0 OBJ File: 'apple_tree5_sapling_1_8_2_2.blend'
# www.blender.org
o leaves.022
v -0.115567 -0.219290 0.737569
v -0.081882 -0.204915 0.730437
v -0.120215 -0.182980 0.744787
v -0.072013 -0.143263 0.737697
v -0.067364 -0.179573 0.730479
v -0.105697 -0.157637 0.744829
vt 0.500000 0.000000
vt 0.235000 0.333333
vt 0.235000 0.666667
vt 0.500000 1.000000
vt 0.765000 0.666667
vt 0.765000 0.333333
vn 0.2674 -0.1548 0.9511
s off
mtllib leafwood.mtl
usemtl Leaves
f 1/1/1 2/2/1 5/3/1 4/4/1
f 1/1/1 4/4/1 6/5/1 3/6/1
