# Blender v3.4.0 OBJ File: 'apple_tree5_sapling_1_8_2_2.blend'
# www.blender.org
o leaves.122
v -0.140459 -0.169217 1.263815
v -0.190289 -0.232357 1.237226
v -0.172590 -0.175340 1.248599
v -0.141549 -0.205188 1.261306
v -0.158158 -0.226235 1.252442
v -0.189199 -0.196386 1.239736
vt 0.500000 0.000000
vt 0.500000 1.000000
vt 0.765000 0.666667
vt 0.765000 0.333333
vt 0.235000 0.333333
vt 0.235000 0.666667
vn -0.4196 -0.0505 0.9063
s off
mtllib leafwood.mtl
usemtl Leaves
f 1/1/1 2/2/1 5/3/1 4/4/1
f 1/1/1 3/5/1 6/6/1 2/2/1
