# Blender v3.4.0 OBJ File: 'apple_tree5_sapling_1_8_2_2.blend'
# www.blender.org
o leaves.024
v 0.046669 -0.082204 0.681857
v 0.017485 -0.124872 0.671691
v 0.055711 -0.204935 0.669131
v 0.081881 -0.121356 0.683539
v 0.084895 -0.162266 0.679296
v 0.020499 -0.165782 0.667449
vt 0.500000 0.000000
vt 0.235000 0.333333
vt 0.235000 0.666667
vt 0.500000 1.000000
vt 0.765000 0.666667
vt 0.765000 0.333333
vn -0.1737 -0.1142 0.9781
s off
mtllib leafwood.mtl
usemtl Leaves
f 1/1/1 2/2/1 6/3/1 3/4/1
f 1/1/1 3/4/1 5/5/1 4/6/1
