# Blender v3.4.0 OBJ File: 'apple_tree5_sapling_1_8_2_2.blend'
# www.blender.org
o leaves.186
v -0.171375 0.183088 1.574248
v -0.160654 0.213882 1.589129
v -0.185617 0.266002 1.571622
v -0.191591 0.207570 1.557616
v -0.196338 0.235208 1.556741
v -0.165401 0.241520 1.588254
vt 0.500000 0.000000
vt 0.235000 0.333333
vt 0.235000 0.666667
vt 0.500000 1.000000
vt 0.765000 0.666667
vt 0.765000 0.333333
vn -0.7003 -0.0979 0.7071
s off
mtllib leafwood.mtl
usemtl Leaves
f 1/1/1 2/2/1 6/3/1 3/4/1
f 1/1/1 3/4/1 5/5/1 4/6/1
