# Blender v3.4.0 OBJ File: 'apple_tree5_sapling_1_8_2_2.blend'
# www.blender.org
o leaves.131
v 0.096617 -0.172326 1.123980
v 0.068699 -0.162203 1.153669
v 0.017106 -0.207615 1.170423
v 0.071527 -0.205974 1.125252
v 0.045024 -0.217737 1.140733
v 0.042196 -0.173966 1.169150
vt 0.500000 0.000000
vt 0.235000 0.333333
vt 0.235000 0.666667
vt 0.500000 1.000000
vt 0.765000 0.666667
vt 0.765000 0.333333
vn 0.5890 -0.4129 0.6947
s off
mtllib leafwood.mtl
usemtl Leaves
f 1/1/1 2/2/1 6/3/1 3/4/1
f 1/1/1 3/4/1 5/5/1 4/6/1
