# Blender v3.4.0 OBJ File: 'apple_tree5_sapling_1_8_2_2.blend'
# www.blender.org
o leaves.105
v -0.140322 -0.030089 1.042366
v -0.103746 -0.002184 1.024258
v -0.093620 0.075795 1.051726
v -0.145764 0.012595 1.066714
v -0.130197 0.047890 1.069834
v -0.088179 0.033110 1.027377
vt 0.500000 0.000000
vt 0.235000 0.333333
vt 0.235000 0.666667
vt 0.500000 1.000000
vt 0.765000 0.666667
vt 0.765000 0.333333
vn 0.6099 -0.3326 0.7193
s off
mtllib leafwood.mtl
usemtl Leaves
f 1/1/1 2/2/1 6/3/1 3/4/1
f 1/1/1 3/4/1 5/5/1 4/6/1
