# Blender v3.4.0 OBJ File: 'apple_tree5_sapling_1_8_2_2.blend'
# www.blender.org
o leaves.116
v -0.138293 -0.178188 1.127324
v -0.133972 -0.210937 1.127816
v -0.082849 -0.232032 1.134069
v -0.105651 -0.181335 1.131328
v -0.087170 -0.199283 1.133576
v -0.115491 -0.228885 1.130065
vt 0.500000 0.000000
vt 0.235000 0.333333
vt 0.235000 0.666667
vt 0.500000 1.000000
vt 0.765000 0.666667
vt 0.765000 0.333333
vn -0.1219 -0.0011 0.9925
s off
mtllib leafwood.mtl
usemtl Leaves
f 1/1/1 2/2/1 6/3/1 3/4/1
f 1/1/1 3/4/1 5/5/1 4/6/1
