# Blender v3.4.0 OBJ File: 'apple_tree5_sapling_1_8_2_2.blend'
# www.blender.org
o leaves.093
v -0.073536 0.130405 0.984170
v -0.103809 0.167227 0.971527
v -0.185248 0.152878 0.963495
v -0.117738 0.108566 0.983029
v -0.154975 0.116056 0.976138
v -0.141046 0.174717 0.964635
vt 0.500000 0.000000
vt 0.235000 0.333333
vt 0.235000 0.666667
vt 0.500000 1.000000
vt 0.765000 0.666667
vt 0.765000 0.333333
vn -0.1343 0.2213 0.9659
s off
mtllib leafwood.mtl
usemtl Leaves
f 1/1/1 2/2/1 6/3/1 3/4/1
f 1/1/1 3/4/1 5/5/1 4/6/1
