# Blender v3.4.0 OBJ File: 'apple_tree5_sapling_1_8_2_2.blend'
# www.blender.org
o leaves.007
v 0.033938 0.250559 0.691527
v 0.040699 0.281504 0.715567
v -0.006811 0.301464 0.758369
v 0.000010 0.253551 0.712049
v -0.013573 0.270519 0.734330
v 0.027116 0.298472 0.737848
vt 0.500000 0.000000
vt 0.235000 0.333333
vt 0.235000 0.666667
vt 0.500000 1.000000
vt 0.765000 0.666667
vt 0.765000 0.333333
vn 0.3655 -0.6195 0.6947
s off
mtllib leafwood.mtl
usemtl Leaves
f 1/1/1 2/2/1 6/3/1 3/4/1
f 1/1/1 3/4/1 5/5/1 4/6/1
