# Blender v3.4.0 OBJ File: 'apple_tree5_sapling_1_8_2_2.blend'
# www.blender.org
o leaves.100
v -0.155307 0.238151 1.074878
v -0.100919 0.220064 1.134018
v -0.141574 0.251097 1.104438
v -0.132781 0.213147 1.084745
v -0.114652 0.207118 1.104459
v -0.123444 0.245068 1.124151
vt 0.500000 0.000000
vt 0.500000 1.000000
vt 0.765000 0.666667
vt 0.765000 0.333333
vt 0.235000 0.333333
vt 0.235000 0.666667
vn -0.7234 -0.4426 0.5299
s off
mtllib leafwood.mtl
usemtl Leaves
f 1/1/1 2/2/1 6/3/1 3/4/1
f 1/1/1 4/5/1 5/6/1 2/2/1
