# Blender v3.4.0 OBJ File: 'apple_tree5_sapling_1_8_2_2.blend'
# www.blender.org
o leaves.212
v 0.124636 -0.085330 1.800954
v 0.145092 -0.125781 1.803688
v 0.089930 -0.113959 1.807122
v 0.103261 -0.188950 1.814307
v 0.082805 -0.148499 1.811573
v 0.137968 -0.160321 1.808139
vt 0.500000 0.000000
vt 0.500000 1.000000
vt 0.765000 0.666667
vt 0.765000 0.333333
vt 0.235000 0.333333
vt 0.235000 0.666667
vn 0.0852 0.1100 0.9903
s off
mtllib leafwood.mtl
usemtl Leaves
f 1/1/1 4/2/1 6/3/1 2/4/1
f 1/1/1 3/5/1 5/6/1 4/2/1
