# Blender v3.4.0 OBJ File: 'apple_tree5_sapling_1_8_2_2.blend'
# www.blender.org
o leaves.236
v -0.083145 -0.210770 2.189763
v -0.121195 -0.220851 2.171380
v -0.084792 -0.184183 2.155443
v -0.142691 -0.186011 2.110708
v -0.141044 -0.212598 2.145028
v -0.104641 -0.175930 2.129092
vt 0.500000 0.000000
vt 0.500000 1.000000
vt 0.765000 0.666667
vt 0.765000 0.333333
vt 0.235000 0.333333
vt 0.235000 0.666667
vn -0.4540 0.6937 0.5592
vn -0.4539 0.6937 0.5592
s off
mtllib leafwood.mtl
usemtl Leaves
f 1/1/1 4/2/1 5/3/1 2/4/1
f 1/1/2 3/5/2 6/6/2 4/2/2
