# Blender v3.4.0 OBJ File: 'apple_tree5_sapling_1_8_2_2.blend'
# www.blender.org
o leaves.192
v -0.038703 0.025608 1.629302
v -0.002406 0.004963 1.659668
v 0.058770 0.055885 1.694746
v -0.010017 0.066437 1.642565
v 0.022474 0.076529 1.664380
v 0.030085 0.015056 1.681483
vt 0.500000 0.000000
vt 0.235000 0.333333
vt 0.235000 0.666667
vt 0.500000 1.000000
vt 0.765000 0.666667
vt 0.765000 0.333333
vn -0.5828 0.1500 0.7986
s off
mtllib leafwood.mtl
usemtl Leaves
f 1/1/1 2/2/1 6/3/1 3/4/1
f 1/1/1 3/4/1 5/5/1 4/6/1
