# Blender v3.4.0 OBJ File: 'apple_tree5_sapling_1_8_2_2.blend'
# www.blender.org
o leaves.184
v -0.081253 0.303121 1.655573
v -0.019471 0.347930 1.691164
v -0.053039 0.299615 1.677428
v -0.068280 0.336499 1.657446
v -0.047686 0.351436 1.669310
v -0.032445 0.314551 1.689291
vt 0.500000 0.000000
vt 0.500000 1.000000
vt 0.765000 0.666667
vt 0.765000 0.333333
vt 0.235000 0.333333
vt 0.235000 0.666667
vn -0.5875 0.1841 0.7880
s off
mtllib leafwood.mtl
usemtl Leaves
f 1/1/1 2/2/1 5/3/1 4/4/1
f 1/1/1 3/5/1 6/6/1 2/2/1
