# Blender v3.4.0 OBJ File: 'apple_tree5_sapling_1_8_2_2.blend'
# www.blender.org
o leaves.177
v 0.230178 0.085045 1.542720
v 0.266193 0.090189 1.540177
v 0.288842 0.147260 1.538006
v 0.233273 0.121378 1.542121
v 0.252828 0.142116 1.540549
v 0.285748 0.110927 1.538605
vt 0.500000 0.000000
vt 0.235000 0.333333
vt 0.235000 0.666667
vt 0.500000 1.000000
vt 0.765000 0.666667
vt 0.765000 0.333333
vn 0.0689 0.0106 0.9976
s off
mtllib leafwood.mtl
usemtl Leaves
f 1/1/1 2/2/1 6/3/1 3/4/1
f 1/1/1 3/4/1 5/5/1 4/6/1
