# Blender v3.4.0 OBJ File: 'apple_tree5_sapling_1_8_2_2.blend'
# www.blender.org
o leaves.235
v 0.027985 -0.286775 2.302387
v 0.027672 -0.314314 2.293088
v 0.069791 -0.338747 2.287867
v 0.056168 -0.293884 2.302006
v 0.070103 -0.311208 2.297166
v 0.041607 -0.331638 2.288248
vt 0.500000 0.000000
vt 0.235000 0.333333
vt 0.235000 0.666667
vt 0.500000 1.000000
vt 0.765000 0.666667
vt 0.765000 0.333333
vn -0.0675 -0.3185 0.9455
s off
mtllib leafwood.mtl
usemtl Leaves
f 1/1/1 2/2/1 6/3/1 3/4/1
f 1/1/1 3/4/1 5/5/1 4/6/1
