# Blender v3.4.0 OBJ File: 'apple_tree5_sapling_1_8_2_2.blend'
# www.blender.org
o leaves.215
v 0.094190 -0.140332 1.895599
v 0.061666 -0.193620 1.853810
v 0.101070 -0.166727 1.878884
v 0.065627 -0.149462 1.884454
v 0.054785 -0.167225 1.870525
v 0.090229 -0.184490 1.864955
vt 0.500000 0.000000
vt 0.500000 1.000000
vt 0.765000 0.666667
vt 0.765000 0.333333
vt 0.235000 0.333333
vt 0.235000 0.666667
vn -0.1420 -0.5557 0.8192
s off
mtllib leafwood.mtl
usemtl Leaves
f 1/1/1 2/2/1 6/3/1 3/4/1
f 1/1/1 4/5/1 5/6/1 2/2/1
