# Blender v3.4.0 OBJ File: 'apple_tree5_sapling_1_8_2_2.blend'
# www.blender.org
o leaves.002
v 0.015942 0.099608 0.646522
v 0.010294 0.150388 0.650500
v -0.062901 0.187679 0.623933
v -0.030972 0.107543 0.627485
v -0.057253 0.136900 0.619955
v -0.015987 0.179744 0.642970
vt 0.500000 0.000000
vt 0.235000 0.333333
vt 0.235000 0.666667
vt 0.500000 1.000000
vt 0.765000 0.666667
vt 0.765000 0.333333
vn -0.3902 -0.1150 0.9135
s off
mtllib leafwood.mtl
usemtl Leaves
f 1/1/1 2/2/1 6/3/1 3/4/1
f 1/1/1 3/4/1 5/5/1 4/6/1
