# Blender v3.4.0 OBJ File: 'apple_tree5_sapling_1_8_2_2.blend'
# www.blender.org
o leaves.060
v 0.075449 0.234614 0.741225
v 0.098793 0.248210 0.761126
v 0.086474 0.294227 0.791556
v 0.059455 0.260760 0.754878
v 0.063130 0.280631 0.771655
v 0.102468 0.268081 0.777903
vt 0.500000 0.000000
vt 0.235000 0.333333
vt 0.235000 0.666667
vt 0.500000 1.000000
vt 0.765000 0.666667
vt 0.765000 0.333333
vn -0.3051 -0.5808 0.7547
vn -0.3052 -0.5808 0.7547
s off
mtllib leafwood.mtl
usemtl Leaves
f 1/1/1 2/2/1 6/3/1 3/4/1
f 1/1/2 3/4/2 5/5/2 4/6/2
