# Blender v3.4.0 OBJ File: 'apple_tree5_sapling_1_8_2_2.blend'
# www.blender.org
o leaves.134
v 0.029104 0.104655 1.210391
v -0.010959 0.087556 1.186872
v -0.064165 0.037227 1.226760
v 0.006987 0.076801 1.244822
v -0.024103 0.054325 1.250278
v -0.042049 0.065080 1.192328
vt 0.500000 0.000000
vt 0.235000 0.333333
vt 0.235000 0.666667
vt 0.500000 1.000000
vt 0.765000 0.666667
vt 0.765000 0.333333
vn -0.5210 0.7957 0.3090
s off
mtllib leafwood.mtl
usemtl Leaves
f 1/1/1 2/2/1 6/3/1 3/4/1
f 1/1/1 3/4/1 5/5/1 4/6/1
