# Blender v3.4.0 OBJ File: 'apple_tree5_sapling_1_8_2_2.blend'
# www.blender.org
o leaves.226
v -0.104449 -0.085360 2.120617
v -0.142678 -0.077821 2.123777
v -0.185917 -0.127493 2.124561
v -0.120532 -0.120987 2.120087
v -0.147688 -0.135031 2.121402
v -0.169834 -0.091865 2.125091
vt 0.500000 0.000000
vt 0.235000 0.333333
vt 0.235000 0.666667
vt 0.500000 1.000000
vt 0.765000 0.666667
vt 0.765000 0.333333
vn 0.0729 -0.0477 0.9962
s off
mtllib leafwood.mtl
usemtl Leaves
f 1/1/1 2/2/1 6/3/1 3/4/1
f 1/1/1 3/4/1 5/5/1 4/6/1
