# Blender v3.4.0 OBJ File: 'apple_tree5_sapling_1_8_2_2.blend'
# www.blender.org
o leaves.076
v 0.057943 0.042704 0.898056
v 0.081297 -0.004510 0.912608
v 0.158182 -0.032503 0.870408
v 0.101415 0.039780 0.865072
v 0.134829 0.014711 0.855856
v 0.114710 -0.029579 0.903392
vt 0.500000 0.000000
vt 0.235000 0.333333
vt 0.235000 0.666667
vt 0.500000 1.000000
vt 0.765000 0.666667
vt 0.765000 0.333333
vn 0.5499 0.4822 0.6820
s off
mtllib leafwood.mtl
usemtl Leaves
f 1/1/1 2/2/1 6/3/1 3/4/1
f 1/1/1 3/4/1 5/5/1 4/6/1
