# Blender v3.4.0 OBJ File: 'apple_tree5_sapling_1_8_2_2.blend'
# www.blender.org
o leaves.143
v 0.190104 0.121033 1.298265
v 0.210144 0.091555 1.300214
v 0.268909 0.094445 1.287753
v 0.222600 0.132786 1.289308
v 0.248868 0.123923 1.285804
v 0.236412 0.082692 1.296710
vt 0.500000 0.000000
vt 0.235000 0.333333
vt 0.235000 0.666667
vt 0.500000 1.000000
vt 0.765000 0.666667
vt 0.765000 0.333333
vn 0.1942 0.1956 0.9613
s off
mtllib leafwood.mtl
usemtl Leaves
f 1/1/1 2/2/1 6/3/1 3/4/1
f 1/1/1 3/4/1 5/5/1 4/6/1
