# Blender v3.4.0 OBJ File: 'apple_tree5_sapling_1_8_2_2.blend'
# www.blender.org
o leaves.168
v 0.107655 -0.097273 1.421443
v 0.077753 -0.201461 1.418451
v 0.125297 -0.139944 1.421059
v 0.070078 -0.124061 1.419831
v 0.060111 -0.158790 1.418834
v 0.115330 -0.174673 1.420062
vt 0.500000 0.000000
vt 0.500000 1.000000
vt 0.765000 0.666667
vt 0.765000 0.333333
vt 0.235000 0.333333
vt 0.235000 0.666667
vn -0.0282 -0.0206 0.9994
s off
mtllib leafwood.mtl
usemtl Leaves
f 1/1/1 2/2/1 6/3/1 3/4/1
f 1/1/1 4/5/1 5/6/1 2/2/1
