# Blender v3.4.0 OBJ File: 'apple_tree5_sapling_1_8_2_2.blend'
# www.blender.org
o leaves.090
v -0.036026 0.066735 0.974643
v -0.107502 0.043060 0.894527
v -0.048895 0.031908 0.946122
v -0.070808 0.085779 0.949754
v -0.094634 0.077888 0.923048
v -0.072720 0.024016 0.919417
vt 0.500000 0.000000
vt 0.500000 1.000000
vt 0.765000 0.666667
vt 0.765000 0.333333
vt 0.235000 0.333333
vt 0.235000 0.666667
vn -0.6603 -0.3145 0.6820
s off
mtllib leafwood.mtl
usemtl Leaves
f 1/1/1 2/2/1 6/3/1 3/4/1
f 1/1/1 4/5/1 5/6/1 2/2/1
