# Blender v3.4.0 OBJ File: 'apple_tree5_sapling_1_8_2_2.blend'
# www.blender.org
o leaves.240
v 0.007185 -0.025920 2.491717
v 0.033508 -0.012849 2.491211
v 0.036466 0.036580 2.490661
v 0.000382 0.002676 2.491518
v 0.010143 0.023509 2.491167
v 0.043268 0.007985 2.490859
vt 0.500000 0.000000
vt 0.235000 0.333333
vt 0.235000 0.666667
vt 0.500000 1.000000
vt 0.765000 0.666667
vt 0.765000 0.333333
vn 0.0141 0.0103 0.9998
s off
mtllib leafwood.mtl
usemtl Leaves
f 1/1/1 2/2/1 6/3/1 3/4/1
f 1/1/1 3/4/1 5/5/1 4/6/1
