# Blender v3.4.0 OBJ File: 'apple_tree5_sapling_1_8_2_2.blend'
# www.blender.org
o leaves.091
v -0.049324 0.090371 0.978880
v -0.042617 0.148121 0.968454
v -0.106467 0.213333 1.008108
v -0.094126 0.114596 1.008792
v -0.113173 0.155583 1.018534
v -0.061665 0.189108 0.978196
vt 0.500000 0.000000
vt 0.235000 0.333333
vt 0.235000 0.666667
vt 0.500000 1.000000
vt 0.765000 0.666667
vt 0.765000 0.333333
vn 0.5825 0.0784 0.8090
s off
mtllib leafwood.mtl
usemtl Leaves
f 1/1/1 2/2/1 6/3/1 3/4/1
f 1/1/1 3/4/1 5/5/1 4/6/1
