# Blender v3.4.0 OBJ File: 'apple_tree5_sapling_1_8_2_2.blend'
# www.blender.org
o leaves.141
v 0.124989 0.106786 1.292998
v 0.137389 0.076049 1.323030
v 0.210321 0.059037 1.331337
v 0.169477 0.105689 1.288526
v 0.197921 0.089773 1.301306
v 0.165833 0.060133 1.335810
vt 0.500000 0.000000
vt 0.235000 0.333333
vt 0.235000 0.666667
vt 0.500000 1.000000
vt 0.765000 0.666667
vt 0.765000 0.333333
vn 0.0874 0.7140 0.6947
s off
mtllib leafwood.mtl
usemtl Leaves
f 1/1/1 2/2/1 6/3/1 3/4/1
f 1/1/1 3/4/1 5/5/1 4/6/1
