# Blender v3.4.0 OBJ File: 'apple_tree5_sapling_1_8_2_2.blend'
# www.blender.org
o leaves.071
v -0.043315 -0.255740 0.869003
v -0.019994 -0.233781 0.863045
v -0.031147 -0.189793 0.832165
v -0.058524 -0.233734 0.850403
v -0.054468 -0.211751 0.838123
v -0.015938 -0.211799 0.850765
vt 0.500000 0.000000
vt 0.235000 0.333333
vt 0.235000 0.666667
vt 0.500000 1.000000
vt 0.765000 0.666667
vt 0.765000 0.333333
vn -0.2681 0.5070 0.8192
s off
mtllib leafwood.mtl
usemtl Leaves
f 1/1/1 2/2/1 6/3/1 3/4/1
f 1/1/1 3/4/1 5/5/1 4/6/1
