# Blender v3.4.0 OBJ File: 'apple_tree5_sapling_1_8_2_2.blend'
# www.blender.org
o leaves.044
v 0.072353 0.107506 0.724687
v 0.106106 0.093810 0.752407
v 0.173186 0.131846 0.752875
v 0.105822 0.137428 0.715760
v 0.139433 0.145542 0.725156
v 0.139718 0.101924 0.761803
vt 0.500000 0.000000
vt 0.235000 0.333333
vt 0.235000 0.666667
vt 0.500000 1.000000
vt 0.765000 0.666667
vt 0.765000 0.333333
vn -0.3464 0.6021 0.7193
s off
mtllib leafwood.mtl
usemtl Leaves
f 1/1/1 2/2/1 6/3/1 3/4/1
f 1/1/1 3/4/1 5/5/1 4/6/1
