# Blender v3.4.0 OBJ File: 'apple_tree5_sapling_1_8_2_2.blend'
# www.blender.org
o leaves.139
v 0.059743 0.085029 1.225865
v 0.015181 0.098266 1.221124
v -0.042021 0.044186 1.221761
v 0.036462 0.044563 1.227870
v 0.002541 0.030949 1.226502
v -0.018740 0.084651 1.219756
vt 0.500000 0.000000
vt 0.235000 0.333333
vt 0.235000 0.666667
vt 0.500000 1.000000
vt 0.765000 0.666667
vt 0.765000 0.333333
vn -0.0777 0.0939 0.9925
s off
mtllib leafwood.mtl
usemtl Leaves
f 1/1/1 2/2/1 6/3/1 3/4/1
f 1/1/1 3/4/1 5/5/1 4/6/1
