# Blender v3.4.0 OBJ File: 'apple_tree5_sapling_1_8_2_2.blend'
# www.blender.org
o leaves.199
v -0.285811 -0.066828 1.649126
v -0.283216 -0.096850 1.647109
v -0.314404 -0.075918 1.645672
v -0.324809 -0.125496 1.640919
v -0.327403 -0.095474 1.642936
v -0.296215 -0.116406 1.644373
vt 0.500000 0.000000
vt 0.500000 1.000000
vt 0.765000 0.666667
vt 0.765000 0.333333
vt 0.235000 0.333333
vt 0.235000 0.666667
vn -0.0961 -0.0750 0.9925
s off
mtllib leafwood.mtl
usemtl Leaves
f 1/1/1 4/2/1 6/3/1 2/4/1
f 1/1/1 3/5/1 5/6/1 4/2/1
