# Blender v3.4.0 OBJ File: 'apple_tree5_sapling_1_8_2_2.blend'
# www.blender.org
o leaves.181
v -0.097647 0.178440 1.581821
v -0.059650 0.189310 1.577434
v -0.041304 0.252395 1.590531
v -0.098083 0.216873 1.592014
v -0.079302 0.241524 1.594918
v -0.040869 0.213961 1.580338
vt 0.500000 0.000000
vt 0.235000 0.333333
vt 0.235000 0.666667
vt 0.500000 1.000000
vt 0.765000 0.666667
vt 0.765000 0.333333
vn 0.1814 -0.2502 0.9511
s off
mtllib leafwood.mtl
usemtl Leaves
f 1/1/1 2/2/1 6/3/1 3/4/1
f 1/1/1 3/4/1 5/5/1 4/6/1
