# Blender v3.4.0 OBJ File: 'apple_tree5_sapling_1_8_2_2.blend'
# www.blender.org
o leaves.107
v -0.215376 -0.024922 1.038457
v -0.229101 0.010705 1.025294
v -0.296104 0.021448 1.020374
v -0.255470 -0.029636 1.039566
v -0.282380 -0.014179 1.033538
v -0.256010 0.026162 1.019266
vt 0.500000 0.000000
vt 0.235000 0.333333
vt 0.235000 0.666667
vt 0.500000 1.000000
vt 0.765000 0.666667
vt 0.765000 0.333333
vn -0.0142 0.3417 0.9397
s off
mtllib leafwood.mtl
usemtl Leaves
f 1/1/1 2/2/1 6/3/1 3/4/1
f 1/1/1 3/4/1 5/5/1 4/6/1
