# Blender v3.4.0 OBJ File: 'apple_tree5_sapling_1_8_2_2.blend'
# www.blender.org
o leaves.173
v 0.118801 0.054336 1.464227
v 0.152466 0.046660 1.486650
v 0.213665 0.072782 1.467073
v 0.148378 0.074309 1.443701
v 0.180000 0.080458 1.444650
v 0.184088 0.052809 1.487599
vt 0.500000 0.000000
vt 0.235000 0.333333
vt 0.235000 0.666667
vt 0.500000 1.000000
vt 0.765000 0.666667
vt 0.765000 0.333333
vn -0.1758 0.8200 0.5446
s off
mtllib leafwood.mtl
usemtl Leaves
f 1/1/1 2/2/1 6/3/1 3/4/1
f 1/1/1 3/4/1 5/5/1 4/6/1
