# Blender v3.4.0 OBJ File: 'apple_tree3_sapling_05_8_2_2.blend'
# www.blender.org
o leaves.115
v -0.028922 0.013195 1.448972
v -0.063579 0.066000 1.458925
v -0.155793 0.065665 1.517535
v -0.078846 -0.004630 1.484728
v -0.121136 0.012860 1.507583
v -0.105870 0.083491 1.481779
vt 0.500000 0.000000
vt 0.250000 0.333333
vt 0.250000 0.666667
vt 0.500000 1.000000
vt 0.750000 0.666667
vt 0.750000 0.333333
vn 0.5262 0.1891 0.8290
s off
mtllib leafwood.mtl
usemtl Leaves
f 1/1/1 2/2/1 6/3/1 3/4/1
f 1/1/1 3/4/1 5/5/1 4/6/1
