# Blender v3.4.0 OBJ File: 'apple_tree3_sapling_05_8_2_2.blend'
# www.blender.org
o leaves.136
v 0.074554 -0.187905 1.773749
v -0.035654 -0.135807 1.786223
v 0.050840 -0.142819 1.777179
v 0.024797 -0.198259 1.778634
v -0.011939 -0.180893 1.782792
v 0.014104 -0.125453 1.781337
vt 0.500000 0.000000
vt 0.500000 1.000000
vt 0.750000 0.666667
vt 0.750000 0.333333
vt 0.250000 0.333333
vt 0.250000 0.666667
vn 0.1022 -0.0219 0.9945
s off
mtllib leafwood.mtl
usemtl Leaves
f 1/1/1 2/2/1 5/3/1 4/4/1
f 1/1/1 3/5/1 6/6/1 2/2/1
