# Blender v3.4.0 OBJ File: 'apple_tree3_sapling_05_8_2_2.blend'
# www.blender.org
o leaves.078
v -0.161678 0.086757 1.008935
v -0.109194 0.084506 1.008935
v -0.057667 0.158011 1.008935
v -0.144821 0.136511 1.008935
v -0.110151 0.160263 1.008935
v -0.074523 0.108257 1.008935
vt 0.500000 0.000000
vt 0.250000 0.333333
vt 0.250000 0.666667
vt 0.500000 1.000000
vt 0.750000 0.666667
vt 0.750000 0.333333
vn -0.0000 0.0000 1.0000
s off
mtllib leafwood.mtl
usemtl Leaves
f 1/1/1 2/2/1 6/3/1 3/4/1
f 1/1/1 3/4/1 5/5/1 4/6/1
