# Blender v3.4.0 OBJ File: 'apple_tree3_sapling_05_8_2_2.blend'
# www.blender.org
o leaves.069
v 0.178746 0.047217 0.920987
v 0.196682 -0.000374 0.892283
v 0.272735 0.001315 0.827691
v 0.223469 0.064207 0.887494
v 0.254799 0.048907 0.856395
v 0.228012 -0.015675 0.861184
vt 0.500000 0.000000
vt 0.250000 0.333333
vt 0.250000 0.666667
vt 0.500000 1.000000
vt 0.750000 0.666667
vt 0.750000 0.333333
vn 0.6358 -0.2086 0.7431
s off
mtllib leafwood.mtl
usemtl Leaves
f 1/1/1 2/2/1 6/3/1 3/4/1
f 1/1/1 3/4/1 5/5/1 4/6/1
