# Blender v3.4.0 OBJ File: 'apple_tree3_sapling_05_8_2_2.blend'
# www.blender.org
o leaves.067
v 0.227670 0.121741 0.926305
v 0.267580 0.113036 0.904591
v 0.318812 0.170041 0.885229
v 0.248521 0.162646 0.920635
v 0.278902 0.178746 0.906943
v 0.297961 0.129136 0.890899
vt 0.500000 0.000000
vt 0.250000 0.333333
vt 0.250000 0.666667
vt 0.500000 1.000000
vt 0.750000 0.666667
vt 0.750000 0.333333
vn 0.4563 -0.1102 0.8829
s off
mtllib leafwood.mtl
usemtl Leaves
f 1/1/1 2/2/1 6/3/1 3/4/1
f 1/1/1 3/4/1 5/5/1 4/6/1
