# Blender v3.4.0 OBJ File: 'apple_tree3_sapling_05_8_2_2.blend'
# www.blender.org
o leaves.135
v -0.002506 -0.228145 1.780342
v -0.022383 -0.268128 1.768983
v -0.097727 -0.273187 1.746709
v -0.046109 -0.218190 1.769279
v -0.077849 -0.233204 1.758068
v -0.054123 -0.283142 1.757772
vt 0.500000 0.000000
vt 0.250000 0.333333
vt 0.250000 0.666667
vt 0.500000 1.000000
vt 0.750000 0.666667
vt 0.750000 0.333333
vn 0.2726 0.1351 -0.9526
s off
mtllib leafwood.mtl
usemtl Leaves
f 1/1/1 2/2/1 6/3/1 3/4/1
f 1/1/1 3/4/1 5/5/1 4/6/1
