# Blender v3.4.0 OBJ File: 'apple_tree3_sapling_05_8_2_2.blend'
# www.blender.org
o leaves.140
v 0.069337 0.153921 1.778363
v 0.103620 0.179984 1.742440
v 0.196875 0.192957 1.760303
v 0.120079 0.153882 1.802246
v 0.162591 0.166895 1.796226
v 0.146133 0.192996 1.736420
vt 0.500000 0.000000
vt 0.250000 0.333333
vt 0.250000 0.666667
vt 0.500000 1.000000
vt 0.750000 0.666667
vt 0.750000 0.333333
vn 0.2057 -0.8749 -0.4384
s off
mtllib leafwood.mtl
usemtl Leaves
f 1/1/1 2/2/1 6/3/1 3/4/1
f 1/1/1 3/4/1 5/5/1 4/6/1
