# Blender v3.4.0 OBJ File: 'apple_tree3_sapling_05_8_2_2.blend'
# www.blender.org
o leaves.099
v 0.125525 -0.003949 1.220888
v 0.174707 0.025164 1.223788
v 0.177829 0.122533 1.232300
v 0.111212 0.051258 1.225596
v 0.128646 0.093419 1.229400
v 0.192142 0.067325 1.227592
vt 0.500000 0.000000
vt 0.250000 0.333333
vt 0.250000 0.666667
vt 0.500000 1.000000
vt 0.750000 0.666667
vt 0.750000 0.333333
vn -0.0073 -0.0868 0.9962
s off
mtllib leafwood.mtl
usemtl Leaves
f 1/1/1 2/2/1 6/3/1 3/4/1
f 1/1/1 3/4/1 5/5/1 4/6/1
