# Blender v3.4.0 OBJ File: 'apple_tree3_sapling_05_8_2_2.blend'
# www.blender.org
o leaves.145
v 0.108598 0.093207 1.821602
v 0.154422 0.077476 1.833634
v 0.219562 0.131102 1.846206
v 0.136749 0.134200 1.825973
v 0.173738 0.146832 1.834174
v 0.191411 0.090108 1.841835
vt 0.500000 0.000000
vt 0.250000 0.333333
vt 0.250000 0.666667
vt 0.500000 1.000000
vt 0.750000 0.666667
vt 0.750000 0.333333
vn -0.2349 0.0579 0.9703
s off
mtllib leafwood.mtl
usemtl Leaves
f 1/1/1 2/2/1 6/3/1 3/4/1
f 1/1/1 3/4/1 5/5/1 4/6/1
