# Blender v3.4.0 OBJ File: 'apple_tree3_sapling_05_8_2_2.blend'
# www.blender.org
o leaves.043
v -0.061143 0.258344 0.832551
v -0.018693 0.283051 0.840215
v -0.015380 0.367775 0.845363
v -0.073083 0.306591 0.833429
v -0.057829 0.343068 0.837700
v -0.003439 0.319528 0.844486
vt 0.500000 0.000000
vt 0.250000 0.333333
vt 0.250000 0.666667
vt 0.500000 1.000000
vt 0.750000 0.666667
vt 0.750000 0.333333
vn -0.1467 -0.0543 0.9877
s off
mtllib leafwood.mtl
usemtl Leaves
f 1/1/1 2/2/1 6/3/1 3/4/1
f 1/1/1 3/4/1 5/5/1 4/6/1
