# Blender v3.4.0 OBJ File: 'apple_tree3_sapling_05_8_2_2.blend'
# www.blender.org
o leaves.049
v -0.140524 -0.066660 0.771351
v -0.165949 -0.025173 0.793859
v -0.192065 -0.080916 0.775163
v -0.255972 -0.025814 0.810831
v -0.230547 -0.067300 0.788323
v -0.204432 -0.011558 0.807019
vt 0.500000 0.000000
vt 0.250000 0.333333
vt 0.250000 0.666667
vt 0.500000 1.000000
vt 0.750000 0.666667
vt 0.750000 0.333333
vn 0.1736 -0.3853 0.9063
s off
mtllib leafwood.mtl
usemtl Leaves
f 1/1/1 2/2/1 6/3/1 4/4/1
f 1/1/1 4/4/1 5/5/1 3/6/1
