# Blender v3.4.0 OBJ File: 'apple_tree3_sapling_05_8_2_2.blend'
# www.blender.org
o leaves.050
v -0.166389 -0.076482 0.778571
v -0.237767 -0.172138 0.772992
v -0.178136 -0.118829 0.801964
v -0.202227 -0.097906 0.751459
v -0.226020 -0.129791 0.749599
v -0.201928 -0.150714 0.800104
vt 0.500000 0.000000
vt 0.500000 1.000000
vt 0.750000 0.666667
vt 0.750000 0.333333
vt 0.250000 0.333333
vt 0.250000 0.666667
vn 0.6932 -0.4862 -0.5321
s off
mtllib leafwood.mtl
usemtl Leaves
f 1/1/1 2/2/1 5/3/1 4/4/1
f 1/1/1 3/5/1 6/6/1 2/2/1
