# Blender v3.4.0 OBJ File: 'apple_tree3_sapling_05_8_2_2.blend'
# www.blender.org
o leaves.025
v 0.048958 0.001246 0.661626
v 0.142514 0.022752 0.753226
v 0.079022 0.040927 0.685672
v 0.081265 -0.024097 0.698646
v 0.112451 -0.016929 0.729180
v 0.110207 0.048095 0.716205
vt 0.500000 0.000000
vt 0.500000 1.000000
vt 0.750000 0.666667
vt 0.750000 0.333333
vt 0.250000 0.333333
vt 0.250000 0.666667
vn -0.7083 0.1145 0.6965
s off
mtllib leafwood.mtl
usemtl Leaves
f 1/1/1 2/2/1 6/3/1 3/4/1
f 1/1/1 4/5/1 5/6/1 2/2/1
