# Blender v3.4.0 OBJ File: 'apple_tree3_sapling_05_8_2_2.blend'
# www.blender.org
o leaves.056
v 0.256550 -0.092162 0.817673
v 0.378876 -0.064423 0.840732
v 0.300870 -0.110899 0.840222
v 0.293782 -0.054932 0.810496
v 0.334557 -0.045685 0.818182
v 0.341645 -0.101653 0.847908
vt 0.500000 0.000000
vt 0.500000 1.000000
vt 0.750000 0.666667
vt 0.750000 0.333333
vt 0.250000 0.333333
vt 0.250000 0.666667
vn -0.2601 0.4270 0.8660
s off
mtllib leafwood.mtl
usemtl Leaves
f 1/1/1 2/2/1 5/3/1 4/4/1
f 1/1/1 3/5/1 6/6/1 2/2/1
