# Blender v3.4.0 OBJ File: 'apple_tree3_sapling_05_8_2_2.blend'
# www.blender.org
o leaves.148
v 0.183745 0.126009 1.942208
v 0.276361 0.183374 1.956960
v 0.227899 0.121991 1.953723
v 0.201336 0.168271 1.940528
v 0.232208 0.187392 1.945445
v 0.258771 0.141112 1.958641
vt 0.500000 0.000000
vt 0.500000 1.000000
vt 0.750000 0.666667
vt 0.750000 0.333333
vt 0.250000 0.333333
vt 0.250000 0.666667
vn 0.2382 -0.1374 -0.9614
s off
mtllib leafwood.mtl
usemtl Leaves
f 1/1/1 2/2/1 6/3/1 3/4/1
f 1/1/1 4/5/1 5/6/1 2/2/1
