# Blender v3.4.0 OBJ File: 'apple_tree3_sapling_05_8_2_2.blend'
# www.blender.org
o leaves.015
v -0.188462 0.267290 0.639442
v -0.183703 0.292815 0.682603
v -0.249937 0.332758 0.720363
v -0.234205 0.285410 0.650229
v -0.254697 0.307233 0.677202
v -0.204195 0.314638 0.709577
vt 0.500000 0.000000
vt 0.250000 0.333333
vt 0.250000 0.666667
vt 0.500000 1.000000
vt 0.750000 0.666667
vt 0.750000 0.333333
vn -0.2081 -0.8317 0.5148
s off
mtllib leafwood.mtl
usemtl Leaves
f 1/1/1 2/2/1 6/3/1 3/4/1
f 1/1/1 3/4/1 5/5/1 4/6/1
