# Blender v3.4.0 OBJ File: 'apple_tree3_sapling_05_8_2_2.blend'
# www.blender.org
o leaves.023
v -0.205032 -0.113502 0.628499
v -0.268271 -0.089091 0.541171
v -0.236156 -0.083389 0.612806
v -0.216068 -0.127341 0.585973
v -0.237147 -0.119204 0.556864
v -0.257236 -0.075252 0.583697
vt 0.500000 0.000000
vt 0.500000 1.000000
vt 0.750000 0.666667
vt 0.750000 0.333333
vt 0.250000 0.333333
vt 0.250000 0.666667
vn -0.7353 -0.5648 0.3746
s off
mtllib leafwood.mtl
usemtl Leaves
f 1/1/1 2/2/1 5/3/1 4/4/1
f 1/1/1 3/5/1 6/6/1 2/2/1
