# Blender v3.4.0 OBJ File: 'apple_tree3_sapling_05_8_2_2.blend'
# www.blender.org
o leaves.091
v -0.019188 -0.255550 1.194279
v 0.004704 -0.294349 1.214759
v -0.036386 -0.362373 1.245931
v -0.054545 -0.287966 1.208234
v -0.060277 -0.323573 1.225451
v -0.001029 -0.329957 1.231976
vt 0.500000 0.000000
vt 0.250000 0.333333
vt 0.250000 0.666667
vt 0.500000 1.000000
vt 0.750000 0.666667
vt 0.750000 0.333333
vn 0.0511 -0.4414 -0.8959
s off
mtllib leafwood.mtl
usemtl Leaves
f 1/1/1 2/2/1 6/3/1 3/4/1
f 1/1/1 3/4/1 5/5/1 4/6/1
