# Blender v3.4.0 OBJ File: 'apple_tree3_sapling_05_8_2_2.blend'
# www.blender.org
o leaves.116
v -0.053195 0.020653 1.458875
v -0.044633 0.084246 1.472618
v -0.129305 0.151553 1.502197
v -0.112497 0.044326 1.474013
v -0.137867 0.087960 1.488454
v -0.070003 0.127880 1.487059
vt 0.500000 0.000000
vt 0.250000 0.333333
vt 0.250000 0.666667
vt 0.500000 1.000000
vt 0.750000 0.666667
vt 0.750000 0.333333
vn 0.1542 -0.2285 0.9613
s off
mtllib leafwood.mtl
usemtl Leaves
f 1/1/1 2/2/1 6/3/1 3/4/1
f 1/1/1 3/4/1 5/5/1 4/6/1
