# Blender v3.4.0 OBJ File: 'apple_tree3_sapling_05_8_2_2.blend'
# www.blender.org
o leaves.144
v 0.067868 0.082647 1.789599
v 0.086336 0.059150 1.839322
v 0.095567 0.111585 1.922944
v 0.067866 0.125437 1.828773
v 0.077099 0.135083 1.873221
v 0.095569 0.068796 1.883770
vt 0.500000 0.000000
vt 0.250000 0.333333
vt 0.250000 0.666667
vt 0.500000 1.000000
vt 0.750000 0.666667
vt 0.750000 0.333333
vn -0.9434 -0.2239 0.2446
s off
mtllib leafwood.mtl
usemtl Leaves
f 1/1/1 2/2/1 6/3/1 3/4/1
f 1/1/1 3/4/1 5/5/1 4/6/1
