# Blender v3.4.0 OBJ File: 'apple_tree3_sapling_05_8_2_2.blend'
# www.blender.org
o leaves.134
v 0.057214 -0.205359 1.759336
v 0.010904 -0.181778 1.765090
v -0.032029 -0.178539 1.843377
v 0.044029 -0.211060 1.809609
v 0.014281 -0.202119 1.837623
v -0.018843 -0.172838 1.793103
vt 0.500000 0.000000
vt 0.250000 0.333333
vt 0.250000 0.666667
vt 0.500000 1.000000
vt 0.750000 0.666667
vt 0.750000 0.333333
vn 0.4642 0.8582 0.2191
s off
mtllib leafwood.mtl
usemtl Leaves
f 1/1/1 2/2/1 6/3/1 3/4/1
f 1/1/1 3/4/1 5/5/1 4/6/1
