# Blender v3.4.0 OBJ File: 'apple_tree3_sapling_05_8_2_2.blend'
# www.blender.org
o leaves.176
v 0.099030 -0.147576 2.276825
v 0.082274 -0.195095 2.277549
v 0.135248 -0.262962 2.275906
v 0.139931 -0.176981 2.275489
v 0.152003 -0.215443 2.275182
v 0.094347 -0.233557 2.277242
vt 0.500000 0.000000
vt 0.250000 0.333333
vt 0.250000 0.666667
vt 0.500000 1.000000
vt 0.750000 0.666667
vt 0.750000 0.333333
vn 0.0348 0.0030 0.9994
s off
mtllib leafwood.mtl
usemtl Leaves
f 1/1/1 2/2/1 6/3/1 3/4/1
f 1/1/1 3/4/1 5/5/1 4/6/1
