# Blender v3.4.0 OBJ File: 'apple_tree3_sapling_05_8_2_2.blend'
# www.blender.org
o leaves.164
v 0.002834 0.040307 2.099813
v 0.082681 -0.063045 2.160182
v 0.058925 0.025960 2.115368
v -0.000026 -0.014248 2.124504
v 0.026590 -0.048698 2.144627
v 0.085541 -0.008490 2.135491
vt 0.500000 0.000000
vt 0.500000 1.000000
vt 0.750000 0.666667
vt 0.750000 0.333333
vt 0.250000 0.333333
vt 0.250000 0.666667
vn -0.1433 0.4143 0.8988
s off
mtllib leafwood.mtl
usemtl Leaves
f 1/1/1 2/2/1 6/3/1 3/4/1
f 1/1/1 4/5/1 5/6/1 2/2/1
