# Blender v3.4.0 OBJ File: 'apple_tree3_sapling_05_8_2_2.blend'
# www.blender.org
o leaves.095
v 0.169388 0.060689 1.252877
v 0.216818 0.049457 1.266899
v 0.273496 0.109878 1.292356
v 0.191364 0.104714 1.265175
v 0.226067 0.121110 1.278334
v 0.251520 0.065854 1.280059
vt 0.500000 0.000000
vt 0.250000 0.333333
vt 0.250000 0.666667
vt 0.500000 1.000000
vt 0.750000 0.666667
vt 0.750000 0.333333
vn -0.3059 -0.1114 0.9455
s off
mtllib leafwood.mtl
usemtl Leaves
f 1/1/1 2/2/1 6/3/1 3/4/1
f 1/1/1 3/4/1 5/5/1 4/6/1
