# Blender v3.4.0 OBJ File: 'apple_tree3_sapling_05_8_2_2.blend'
# www.blender.org
o leaves.187
v 0.027141 0.089938 2.571297
v 0.078535 0.071488 2.578310
v 0.150580 0.128612 2.598222
v 0.058040 0.134170 2.582233
v 0.099187 0.147062 2.591208
v 0.119681 0.084379 2.587286
vt 0.500000 0.000000
vt 0.500000 1.000000
vt 0.750000 0.666667
vt 0.750000 0.333333
vt 0.250000 0.333333
vt 0.250000 0.666667
vn 0.1760 0.1187 -0.9772
s off
mtllib leafwood.mtl
usemtl Leaves
f 1/1/1 3/2/1 6/3/1 2/4/1
f 1/1/1 4/5/1 5/6/1 3/2/1
