# Blender v3.4.0 OBJ File: 'apple_tree3_sapling_05_8_2_2.blend'
# www.blender.org
o leaves.021
v -0.149506 -0.077759 0.628535
v -0.259686 -0.012517 0.676231
v -0.167523 -0.027811 0.649078
v -0.204943 -0.084213 0.639789
v -0.241669 -0.062466 0.655688
v -0.204249 -0.006063 0.664977
vt 0.500000 0.000000
vt 0.500000 1.000000
vt 0.750000 0.666667
vt 0.750000 0.333333
vt 0.250000 0.333333
vt 0.250000 0.666667
vn 0.2233 -0.3008 0.9272
s off
mtllib leafwood.mtl
usemtl Leaves
f 1/1/1 2/2/1 5/3/1 4/4/1
f 1/1/1 3/5/1 6/6/1 2/2/1
