# Blender v3.4.0 OBJ File: 'apple_tree3_sapling_05_8_2_2.blend'
# www.blender.org
o leaves.004
v 0.142188 0.106217 0.615996
v 0.143589 0.153262 0.632223
v 0.214835 0.199748 0.631818
v 0.189218 0.121527 0.610316
v 0.213434 0.152704 0.615590
v 0.167805 0.184438 0.637497
vt 0.500000 0.000000
vt 0.250000 0.333333
vt 0.250000 0.666667
vt 0.500000 1.000000
vt 0.750000 0.666667
vt 0.750000 0.333333
vn -0.2167 0.3241 -0.9209
s off
mtllib leafwood.mtl
usemtl Leaves
f 1/1/1 2/2/1 6/3/1 3/4/1
f 1/1/1 3/4/1 5/5/1 4/6/1
