# Blender v3.4.0 OBJ File: 'apple_tree3_sapling_05_8_2_2.blend'
# www.blender.org
o leaves.118
v -0.107454 0.029523 1.477841
v -0.129769 0.072669 1.506279
v -0.171913 0.061887 1.592064
v -0.128112 0.007952 1.525551
v -0.149598 0.018740 1.563626
v -0.151255 0.083457 1.544354
vt 0.500000 0.000000
vt 0.250000 0.333333
vt 0.250000 0.666667
vt 0.500000 1.000000
vt 0.750000 0.666667
vt 0.750000 0.333333
vn 0.8785 0.1569 0.4513
s off
mtllib leafwood.mtl
usemtl Leaves
f 1/1/1 2/2/1 6/3/1 3/4/1
f 1/1/1 3/4/1 5/5/1 4/6/1
