# Blender v3.4.0 OBJ File: 'apple_tree3_sapling_05_8_2_2.blend'
# www.blender.org
o leaves.036
v -0.051639 0.120163 0.719177
v -0.063458 0.164914 0.676426
v -0.026867 0.265685 0.686362
v -0.023305 0.172427 0.740051
v -0.015048 0.220934 0.729112
v -0.055201 0.213422 0.665488
vt 0.500000 0.000000
vt 0.250000 0.333333
vt 0.250000 0.666667
vt 0.500000 1.000000
vt 0.750000 0.666667
vt 0.750000 0.333333
vn 0.8313 -0.2531 -0.4948
s off
mtllib leafwood.mtl
usemtl Leaves
f 1/1/1 2/2/1 6/3/1 3/4/1
f 1/1/1 3/4/1 5/5/1 4/6/1
