# Blender v3.4.0 OBJ File: 'apple_tree3_sapling_05_8_2_2.blend'
# www.blender.org
o leaves.045
v -0.028415 -0.015034 0.756790
v -0.059413 -0.032078 0.805167
v -0.112421 -0.119633 0.808659
v -0.053421 -0.067722 0.742993
v -0.081423 -0.102589 0.760282
v -0.087415 -0.066944 0.822457
vt 0.500000 0.000000
vt 0.250000 0.333333
vt 0.250000 0.666667
vt 0.500000 1.000000
vt 0.750000 0.666667
vt 0.750000 0.333333
vn 0.8074 -0.4749 0.3501
s off
mtllib leafwood.mtl
usemtl Leaves
f 1/1/1 2/2/1 6/3/1 3/4/1
f 1/1/1 3/4/1 5/5/1 4/6/1
