# Blender v3.4.0 OBJ File: 'apple_tree3_sapling_05_8_2_2.blend'
# www.blender.org
o leaves.071
v 0.268676 0.022393 1.012088
v 0.291641 -0.021286 1.012088
v 0.375667 -0.028402 1.012088
v 0.317038 0.032209 1.012088
v 0.352702 0.015278 1.012088
v 0.327305 -0.038218 1.012088
vt 0.500000 0.000000
vt 0.250000 0.333333
vt 0.250000 0.666667
vt 0.500000 1.000000
vt 0.750000 0.666667
vt 0.750000 0.333333
vn -0.0000 0.0000 1.0000
s off
mtllib leafwood.mtl
usemtl Leaves
f 1/1/1 2/2/1 6/3/1 3/4/1
f 1/1/1 3/4/1 5/5/1 4/6/1
