# Blender v3.4.0 OBJ File: 'apple_tree3_sapling_05_8_2_2.blend'
# www.blender.org
o leaves.151
v 0.069349 0.268897 1.764224
v 0.019786 0.285193 1.757780
v -0.010296 0.319036 1.680198
v 0.065814 0.286027 1.714650
v 0.039266 0.302740 1.686642
v -0.006762 0.301906 1.729771
vt 0.500000 0.000000
vt 0.250000 0.333333
vt 0.250000 0.666667
vt 0.500000 1.000000
vt 0.750000 0.666667
vt 0.750000 0.333333
vn -0.2629 -0.9175 -0.2983
s off
mtllib leafwood.mtl
usemtl Leaves
f 1/1/1 2/2/1 6/3/1 3/4/1
f 1/1/1 3/4/1 5/5/1 4/6/1
