# Blender v3.4.0 OBJ File: 'apple_tree3_sapling_05_8_2_2.blend'
# www.blender.org
o leaves.086
v 0.038604 -0.240707 1.124382
v 0.087639 -0.250260 1.126968
v 0.061537 -0.196250 1.124713
v 0.146556 -0.188352 1.128758
v 0.123623 -0.232808 1.128426
v 0.097521 -0.178798 1.126172
vt 0.500000 0.000000
vt 0.250000 0.333333
vt 0.250000 0.666667
vt 0.500000 1.000000
vt 0.750000 0.666667
vt 0.750000 0.333333
vn -0.0492 0.0179 0.9986
s off
mtllib leafwood.mtl
usemtl Leaves
f 1/1/1 2/2/1 5/3/1 4/4/1
f 1/1/1 4/4/1 6/5/1 3/6/1
