# Blender v3.4.0 OBJ File: 'apple_tree3_sapling_05_8_2_2.blend'
# www.blender.org
o leaves.081
v -0.231674 0.134068 1.073024
v -0.277196 0.139041 1.100852
v -0.332309 0.068032 1.118317
v -0.253241 0.085071 1.075391
v -0.286786 0.063059 1.090489
v -0.310741 0.117029 1.115950
vt 0.500000 0.000000
vt 0.250000 0.333333
vt 0.250000 0.666667
vt 0.500000 1.000000
vt 0.750000 0.666667
vt 0.750000 0.333333
vn 0.4989 -0.1786 0.8480
s off
mtllib leafwood.mtl
usemtl Leaves
f 1/1/1 2/2/1 6/3/1 3/4/1
f 1/1/1 3/4/1 5/5/1 4/6/1
