# Blender v3.4.0 OBJ File: 'apple_tree3_sapling_05_8_2_2.blend'
# www.blender.org
o leaves.131
v 0.223653 -0.212459 1.738365
v 0.233722 -0.244264 1.776155
v 0.302589 -0.235396 1.827130
v 0.266208 -0.195946 1.759751
v 0.292521 -0.203591 1.789340
v 0.260034 -0.251909 1.805744
vt 0.500000 0.000000
vt 0.250000 0.333333
vt 0.250000 0.666667
vt 0.500000 1.000000
vt 0.750000 0.666667
vt 0.750000 0.333333
vn -0.5347 0.5710 0.6230
s off
mtllib leafwood.mtl
usemtl Leaves
f 1/1/1 2/2/1 6/3/1 3/4/1
f 1/1/1 3/4/1 5/5/1 4/6/1
