# Blender v3.4.0 OBJ File: 'apple_tree3_sapling_05_8_2_2.blend'
# www.blender.org
o leaves.029
v 0.251897 0.037117 0.689708
v 0.274639 0.077789 0.705177
v 0.343079 0.108380 0.667503
v 0.289944 0.043953 0.659436
v 0.320338 0.067708 0.652034
v 0.305033 0.101543 0.697775
vt 0.500000 0.000000
vt 0.250000 0.333333
vt 0.250000 0.666667
vt 0.500000 1.000000
vt 0.750000 0.666667
vt 0.750000 0.333333
vn -0.5777 0.5518 -0.6015
s off
mtllib leafwood.mtl
usemtl Leaves
f 1/1/1 2/2/1 6/3/1 3/4/1
f 1/1/1 3/4/1 5/5/1 4/6/1
