# Blender v3.4.0 OBJ File: 'apple_tree3_sapling_05_8_2_2.blend'
# www.blender.org
o leaves.179
v -0.005633 0.089579 2.357775
v -0.055303 -0.050457 2.376751
v -0.057185 0.055779 2.367537
v 0.012806 0.030022 2.360663
v -0.003751 -0.016657 2.366989
v -0.073742 0.009100 2.373863
vt 0.500000 0.000000
vt 0.500000 1.000000
vt 0.750000 0.666667
vt 0.750000 0.333333
vt 0.250000 0.333333
vt 0.250000 0.666667
vn 0.1294 0.0880 0.9877
s off
mtllib leafwood.mtl
usemtl Leaves
f 1/1/1 2/2/1 5/3/1 4/4/1
f 1/1/1 3/5/1 6/6/1 2/2/1
