# Blender v3.4.0 OBJ File: 'apple_tree3_sapling_05_8_2_2.blend'
# www.blender.org
o leaves.114
v -0.079078 0.268629 1.366223
v -0.119208 0.259052 1.334074
v -0.176629 0.191883 1.347473
v -0.103981 0.227042 1.385872
v -0.136499 0.201460 1.379622
v -0.151725 0.233470 1.327824
vt 0.500000 0.000000
vt 0.250000 0.333333
vt 0.250000 0.666667
vt 0.500000 1.000000
vt 0.750000 0.666667
vt 0.750000 0.333333
vn -0.5807 0.6051 0.5446
s off
mtllib leafwood.mtl
usemtl Leaves
f 1/1/1 2/2/1 6/3/1 3/4/1
f 1/1/1 3/4/1 5/5/1 4/6/1
