# Blender v3.4.0 OBJ File: 'apple_tree3_sapling_05_8_2_2.blend'
# www.blender.org
o leaves.024
v -0.229032 -0.135932 0.618887
v -0.224738 -0.186150 0.605320
v -0.260083 -0.218794 0.530219
v -0.254027 -0.140955 0.573342
v -0.264377 -0.168576 0.543786
v -0.235088 -0.213771 0.575764
vt 0.500000 0.000000
vt 0.250000 0.333333
vt 0.250000 0.666667
vt 0.500000 1.000000
vt 0.750000 0.666667
vt 0.750000 0.333333
vn 0.8485 0.2044 -0.4882
s off
mtllib leafwood.mtl
usemtl Leaves
f 1/1/1 2/2/1 6/3/1 3/4/1
f 1/1/1 3/4/1 5/5/1 4/6/1
