# Blender v3.4.0 OBJ File: 'apple_tree3_sapling_05_8_2_2.blend'
# www.blender.org
o leaves.157
v -0.204475 -0.060688 2.077728
v -0.249432 -0.075043 2.079722
v -0.270285 -0.152994 2.077779
v -0.203392 -0.107870 2.075768
v -0.225328 -0.138639 2.075785
v -0.271368 -0.105812 2.079739
vt 0.500000 0.000000
vt 0.250000 0.333333
vt 0.250000 0.666667
vt 0.500000 1.000000
vt 0.750000 0.666667
vt 0.750000 0.333333
vn 0.0571 -0.0401 0.9976
s off
mtllib leafwood.mtl
usemtl Leaves
f 1/1/1 2/2/1 6/3/1 3/4/1
f 1/1/1 3/4/1 5/5/1 4/6/1
