# Blender v3.4.0 OBJ File: 'apple_tree3_sapling_05_8_2_2.blend'
# www.blender.org
o leaves.159
v -0.249808 -0.133889 2.120742
v -0.233811 -0.174354 2.139797
v -0.267402 -0.246486 2.123758
v -0.277534 -0.168489 2.103698
v -0.283398 -0.206021 2.104703
v -0.239676 -0.211886 2.140802
vt 0.500000 0.000000
vt 0.250000 0.333333
vt 0.250000 0.666667
vt 0.500000 1.000000
vt 0.750000 0.666667
vt 0.750000 0.333333
vn 0.6228 -0.1180 -0.7735
s off
mtllib leafwood.mtl
usemtl Leaves
f 1/1/1 2/2/1 6/3/1 3/4/1
f 1/1/1 3/4/1 5/5/1 4/6/1
