# Blender v3.4.0 OBJ File: 'apple_tree3_sapling_05_8_2_2.blend'
# www.blender.org
o leaves.041
v -0.079082 0.177274 0.732470
v -0.033847 0.180243 0.772146
v 0.025951 0.263468 0.781894
v -0.054295 0.231767 0.725744
v -0.019284 0.260499 0.742218
v 0.001164 0.208975 0.788621
vt 0.500000 0.000000
vt 0.500000 1.000000
vt 0.750000 0.666667
vt 0.750000 0.333333
vt 0.250000 0.333333
vt 0.250000 0.666667
vn 0.6263 -0.3696 -0.6864
s off
mtllib leafwood.mtl
usemtl Leaves
f 1/1/1 3/2/1 6/3/1 2/4/1
f 1/1/1 4/5/1 5/6/1 3/2/1
