# Blender v3.4.0 OBJ File: 'apple_tree3_sapling_05_8_2_2.blend'
# www.blender.org
o leaves.160
v -0.161425 -0.015308 2.004576
v -0.221815 0.025748 2.109952
v -0.184313 -0.031879 2.049910
v -0.178798 0.028634 2.029493
v -0.198927 0.042320 2.064619
v -0.204442 -0.018194 2.085035
vt 0.500000 0.000000
vt 0.500000 1.000000
vt 0.750000 0.666667
vt 0.750000 0.333333
vt 0.250000 0.333333
vt 0.250000 0.666667
vn 0.8779 0.0793 0.4722
s off
mtllib leafwood.mtl
usemtl Leaves
f 1/1/1 2/2/1 6/3/1 3/4/1
f 1/1/1 4/5/1 5/6/1 2/2/1
