# Blender v3.4.0 OBJ File: 'apple_tree3_sapling_05_8_2_2.blend'
# www.blender.org
o leaves.035
v -0.025120 0.055981 0.708861
v -0.016844 0.085715 0.755997
v -0.089265 0.114372 0.812593
v -0.076159 0.065175 0.730880
v -0.097541 0.084638 0.765457
v -0.038225 0.105178 0.790575
vt 0.500000 0.000000
vt 0.250000 0.333333
vt 0.250000 0.666667
vt 0.500000 1.000000
vt 0.750000 0.666667
vt 0.750000 0.333333
vn 0.0726 -0.8493 0.5230
s off
mtllib leafwood.mtl
usemtl Leaves
f 1/1/1 2/2/1 6/3/1 3/4/1
f 1/1/1 3/4/1 5/5/1 4/6/1
