# Blender v3.4.0 OBJ File: 'apple_tree3_sapling_05_8_2_2.blend'
# www.blender.org
o leaves.096
v 0.214715 0.063510 1.303266
v 0.163016 0.079736 1.298686
v 0.092153 0.019928 1.292717
v 0.184705 0.018229 1.300814
v 0.143851 0.003702 1.297297
v 0.122162 0.065209 1.295170
vt 0.500000 0.000000
vt 0.250000 0.333333
vt 0.250000 0.666667
vt 0.500000 1.000000
vt 0.750000 0.666667
vt 0.750000 0.333333
vn -0.0871 0.0037 0.9962
s off
mtllib leafwood.mtl
usemtl Leaves
f 1/1/1 2/2/1 6/3/1 3/4/1
f 1/1/1 3/4/1 5/5/1 4/6/1
