# Blender v3.4.0 OBJ File: 'apple_tree3_sapling_05_8_2_2.blend'
# www.blender.org
o leaves.103
v 0.358287 -0.072181 1.227000
v 0.352104 -0.114776 1.219247
v 0.390875 -0.168116 1.254414
v 0.386195 -0.093542 1.253029
v 0.397058 -0.125520 1.262167
v 0.362967 -0.146754 1.228385
vt 0.500000 0.000000
vt 0.250000 0.333333
vt 0.250000 0.666667
vt 0.500000 1.000000
vt 0.750000 0.666667
vt 0.750000 0.333333
vn -0.6940 -0.0302 0.7193
s off
mtllib leafwood.mtl
usemtl Leaves
f 1/1/1 2/2/1 6/3/1 3/4/1
f 1/1/1 3/4/1 5/5/1 4/6/1
