# Blender v3.4.0 OBJ File: 'apple_tree3_sapling_05_8_2_2.blend'
# www.blender.org
o leaves.186
v 0.011426 0.086498 2.549368
v 0.018571 0.048333 2.578344
v -0.012519 0.044094 2.654955
v -0.011683 0.096394 2.590784
v -0.019665 0.082259 2.625980
v 0.010590 0.034198 2.613539
vt 0.500000 0.000000
vt 0.250000 0.333333
vt 0.250000 0.666667
vt 0.500000 1.000000
vt 0.750000 0.666667
vt 0.750000 0.333333
vn -0.8287 -0.4285 -0.3600
s off
mtllib leafwood.mtl
usemtl Leaves
f 1/1/1 2/2/1 6/3/1 3/4/1
f 1/1/1 3/4/1 5/5/1 4/6/1
