# Blender v3.4.0 OBJ File: 'apple_tree3_sapling_05_8_2_2.blend'
# www.blender.org
o leaves.014
v -0.262620 0.258876 0.679874
v -0.221525 0.227534 0.681558
v -0.221028 0.289582 0.680967
v -0.138588 0.257921 0.684041
v -0.180181 0.227215 0.682947
v -0.179684 0.289263 0.682356
vt 0.500000 0.000000
vt 0.250000 0.333333
vt 0.250000 0.666667
vt 0.500000 1.000000
vt 0.750000 0.666667
vt 0.750000 0.333333
vn -0.0335 0.0098 0.9994
s off
mtllib leafwood.mtl
usemtl Leaves
f 1/1/1 2/2/1 5/3/1 4/4/1
f 1/1/1 4/4/1 6/5/1 3/6/1
