# Blender v3.4.0 OBJ File: 'apple_tree3_sapling_05_8_2_2.blend'
# www.blender.org
o leaves.077
v -0.133680 0.062987 0.993261
v -0.188818 0.064276 0.994020
v -0.147847 0.116217 0.996147
v -0.237637 0.144765 0.998728
v -0.223471 0.091535 0.995842
v -0.182499 0.143476 0.997970
vt 0.500000 0.000000
vt 0.500000 1.000000
vt 0.750000 0.666667
vt 0.750000 0.333333
vt 0.250000 0.333333
vt 0.250000 0.666667
vn 0.0125 -0.0508 0.9986
vn 0.0126 -0.0508 0.9986
s off
mtllib leafwood.mtl
usemtl Leaves
f 1/1/1 4/2/1 5/3/1 2/4/1
f 1/1/2 3/5/2 6/6/2 4/2/2
