# Blender v3.4.0 OBJ File: 'apple_tree3_sapling_05_8_2_2.blend'
# www.blender.org
o leaves.181
v -0.009114 0.091173 2.413465
v -0.023796 0.135376 2.444328
v 0.031933 0.170669 2.513356
v 0.032933 0.099967 2.449196
v 0.046615 0.126466 2.482493
v -0.010114 0.161875 2.477625
vt 0.500000 0.000000
vt 0.250000 0.333333
vt 0.250000 0.666667
vt 0.500000 1.000000
vt 0.750000 0.666667
vt 0.750000 0.333333
vn 0.4364 0.6080 -0.6632
s off
mtllib leafwood.mtl
usemtl Leaves
f 1/1/1 2/2/1 6/3/1 3/4/1
f 1/1/1 3/4/1 5/5/1 4/6/1
