# Blender v3.4.0 OBJ File: 'apple_tree3_sapling_05_8_2_2.blend'
# www.blender.org
o leaves.070
v 0.234567 0.028898 0.958604
v 0.281755 0.040767 0.962984
v 0.340117 -0.014542 0.985441
v 0.257745 -0.011931 0.972116
v 0.292928 -0.026411 0.981062
v 0.316939 0.026287 0.971930
vt 0.500000 0.000000
vt 0.250000 0.333333
vt 0.250000 0.666667
vt 0.500000 1.000000
vt 0.750000 0.666667
vt 0.750000 0.333333
vn 0.1480 -0.2340 -0.9609
s off
mtllib leafwood.mtl
usemtl Leaves
f 1/1/1 2/2/1 6/3/1 3/4/1
f 1/1/1 3/4/1 5/5/1 4/6/1
