# Blender v3.4.0 OBJ File: 'apple_tree3_sapling_05_8_2_2.blend'
# www.blender.org
o leaves.047
v -0.085579 -0.040916 0.763687
v -0.096570 -0.091603 0.753206
v -0.159278 -0.116366 0.692958
v -0.123721 -0.040529 0.727015
v -0.148287 -0.065679 0.703438
v -0.121136 -0.116753 0.729630
vt 0.500000 0.000000
vt 0.250000 0.333333
vt 0.250000 0.666667
vt 0.500000 1.000000
vt 0.750000 0.666667
vt 0.750000 0.333333
vn 0.6931 -0.0012 -0.7209
s off
mtllib leafwood.mtl
usemtl Leaves
f 1/1/1 2/2/1 6/3/1 3/4/1
f 1/1/1 3/4/1 5/5/1 4/6/1
