# Blender v3.4.0 OBJ File: 'apple_tree3_sapling_05_8_2_2.blend'
# www.blender.org
o leaves.106
v 0.042243 0.147344 1.380339
v 0.081955 0.189528 1.364834
v 0.178092 0.190514 1.400326
v 0.093097 0.133941 1.409168
v 0.138380 0.148331 1.415830
v 0.127239 0.203918 1.371496
vt 0.500000 0.000000
vt 0.250000 0.333333
vt 0.250000 0.666667
vt 0.500000 1.000000
vt 0.750000 0.666667
vt 0.750000 0.333333
vn 0.2920 -0.5599 -0.7754
s off
mtllib leafwood.mtl
usemtl Leaves
f 1/1/1 2/2/1 6/3/1 3/4/1
f 1/1/1 3/4/1 5/5/1 4/6/1
