# Blender v3.4.0 OBJ File: 'apple_tree3_sapling_05_8_2_2.blend'
# www.blender.org
o leaves.068
v 0.252350 0.182840 0.915248
v 0.234788 0.225656 0.920581
v 0.241562 0.282015 0.864775
v 0.262720 0.206141 0.876266
v 0.259124 0.239199 0.859441
v 0.231192 0.258714 0.903757
vt 0.500000 0.000000
vt 0.250000 0.333333
vt 0.250000 0.666667
vt 0.500000 1.000000
vt 0.750000 0.666667
vt 0.750000 0.333333
vn -0.8608 -0.3021 -0.4096
s off
mtllib leafwood.mtl
usemtl Leaves
f 1/1/1 2/2/1 6/3/1 3/4/1
f 1/1/1 3/4/1 5/5/1 4/6/1
