# Blender v3.4.0 OBJ File: 'apple_tree3_sapling_05_8_2_2.blend'
# www.blender.org
o leaves.033
v 0.242631 -0.036156 0.673565
v 0.231039 -0.048814 0.717011
v 0.250056 -0.082201 0.676194
v 0.236380 -0.124210 0.742677
v 0.247973 -0.111552 0.699232
v 0.228955 -0.078166 0.740048
vt 0.500000 0.000000
vt 0.500000 1.000000
vt 0.750000 0.666667
vt 0.750000 0.333333
vt 0.250000 0.333333
vt 0.250000 0.666667
vn -0.9390 -0.1685 -0.2997
s off
mtllib leafwood.mtl
usemtl Leaves
f 1/1/1 4/2/1 6/3/1 2/4/1
f 1/1/1 3/5/1 5/6/1 4/2/1
