# Blender v3.4.0 OBJ File: 'apple_tree3_sapling_05_8_2_2.blend'
# www.blender.org
o leaves.010
v -0.113135 0.124074 0.601150
v -0.119715 0.160908 0.644916
v -0.202376 0.165806 0.698060
v -0.166049 0.115062 0.621991
v -0.195796 0.128973 0.654294
v -0.149462 0.174818 0.677219
vt 0.500000 0.000000
vt 0.250000 0.333333
vt 0.250000 0.666667
vt 0.500000 1.000000
vt 0.750000 0.666667
vt 0.750000 0.333333
vn 0.3651 -0.6845 0.6310
s off
mtllib leafwood.mtl
usemtl Leaves
f 1/1/1 2/2/1 6/3/1 3/4/1
f 1/1/1 3/4/1 5/5/1 4/6/1
