# Blender v3.4.0 OBJ File: 'apple_tree3_sapling_05_8_2_2.blend'
# www.blender.org
o leaves.039
v -0.166750 0.253387 0.794607
v -0.140355 0.292611 0.792434
v -0.168853 0.362751 0.763991
v -0.194547 0.287072 0.776368
v -0.195248 0.323526 0.766163
v -0.141056 0.329066 0.782229
vt 0.500000 0.000000
vt 0.250000 0.333333
vt 0.250000 0.666667
vt 0.500000 1.000000
vt 0.750000 0.666667
vt 0.750000 0.333333
vn -0.2987 0.2519 0.9205
vn -0.2986 0.2519 0.9205
s off
mtllib leafwood.mtl
usemtl Leaves
f 1/1/1 2/2/1 6/3/1 3/4/1
f 1/1/2 3/4/2 5/5/2 4/6/2
