# Blender v3.4.0 OBJ File: 'apple_tree3_sapling_05_8_2_2.blend'
# www.blender.org
o leaves.165
v 0.010687 0.016090 2.121024
v -0.005558 -0.036352 2.127748
v 0.055204 -0.108743 2.128540
v 0.056610 -0.014690 2.119310
v 0.071449 -0.056301 2.121815
v 0.009281 -0.077963 2.130254
vt 0.500000 0.000000
vt 0.250000 0.333333
vt 0.250000 0.666667
vt 0.500000 1.000000
vt 0.750000 0.666667
vt 0.750000 0.333333
vn 0.1011 0.0957 0.9903
s off
mtllib leafwood.mtl
usemtl Leaves
f 1/1/1 2/2/1 6/3/1 3/4/1
f 1/1/1 3/4/1 5/5/1 4/6/1
