# Blender v3.4.0 OBJ File: 'apple_tree3_sapling_05_8_2_2.blend'
# www.blender.org
o leaves.092
v -0.024237 -0.265732 1.225815
v 0.005360 -0.293449 1.256876
v 0.019546 -0.271557 1.340169
v -0.024646 -0.241899 1.270990
v -0.010051 -0.243841 1.309108
v 0.019955 -0.295391 1.294994
vt 0.500000 0.000000
vt 0.500000 1.000000
vt 0.750000 0.666667
vt 0.750000 0.333333
vt 0.250000 0.333333
vt 0.250000 0.666667
vn 0.7955 0.5389 -0.2771
s off
mtllib leafwood.mtl
usemtl Leaves
f 1/1/1 3/2/1 6/3/1 2/4/1
f 1/1/1 4/5/1 5/6/1 3/2/1
