# Blender v3.4.0 OBJ File: 'apple_tree7_sapling.blend'
# www.blender.org
o leaves.023
v -0.099549 -0.141384 0.777698
v -0.136016 -0.174896 0.792017
v -0.131567 -0.263591 0.782127
v -0.084427 -0.189343 0.766331
v -0.095100 -0.230079 0.767807
v -0.146689 -0.215632 0.793493
vt 0.500000 0.000000
vt 0.265000 0.333333
vt 0.265000 0.666667
vt 0.500000 1.000000
vt 0.735000 0.666667
vt 0.735000 0.333333
vn 0.4265 -0.0791 0.9010
s off
mtllib leafwood.mtl
usemtl Leaves
f 1/1/1 2/2/1 6/3/1 3/4/1
f 1/1/1 3/4/1 5/5/1 4/6/1
