# Blender v3.4.0 OBJ File: 'apple_tree7_sapling.blend'
# www.blender.org
o leaves.214
v -0.145206 0.011341 2.002740
v -0.137150 0.012450 2.057529
v -0.155716 -0.059814 2.117940
v -0.160268 -0.037205 2.024750
v -0.163771 -0.060923 2.063151
v -0.140654 -0.011268 2.095929
vt 0.500000 0.000000
vt 0.265000 0.333333
vt 0.265000 0.666667
vt 0.500000 1.000000
vt 0.735000 0.666667
vt 0.735000 0.333333
vn 0.9289 -0.3469 -0.1295
s off
mtllib leafwood.mtl
usemtl Leaves
f 1/1/1 2/2/1 6/3/1 3/4/1
f 1/1/1 3/4/1 5/5/1 4/6/1
