# Blender v3.4.0 OBJ File: 'apple_tree7_sapling.blend'
# www.blender.org
o leaves.167
v -0.169995 -0.127416 1.545639
v -0.196260 -0.085004 1.533598
v -0.278491 -0.065677 1.561450
v -0.216061 -0.128669 1.568222
v -0.252227 -0.108089 1.573492
v -0.232425 -0.064424 1.538868
vt 0.500000 0.000000
vt 0.265000 0.333333
vt 0.265000 0.666667
vt 0.500000 1.000000
vt 0.735000 0.666667
vt 0.735000 0.333333
vn 0.3800 0.4627 0.8009
s off
mtllib leafwood.mtl
usemtl Leaves
f 1/1/1 2/2/1 6/3/1 3/4/1
f 1/1/1 3/4/1 5/5/1 4/6/1
