# Blender v3.4.0 OBJ File: 'apple_tree7_sapling.blend'
# www.blender.org
o leaves.063
v 0.182962 0.181029 1.067102
v 0.230084 0.154749 1.061905
v 0.303749 0.163180 1.119598
v 0.216365 0.195410 1.107296
v 0.256627 0.189460 1.124795
v 0.270346 0.148799 1.079404
vt 0.500000 0.000000
vt 0.265000 0.333333
vt 0.265000 0.666667
vt 0.500000 1.000000
vt 0.735000 0.666667
vt 0.735000 0.333333
vn -0.3547 -0.7472 0.5621
vn -0.3547 -0.7471 0.5621
s off
mtllib leafwood.mtl
usemtl Leaves
f 1/1/1 2/2/1 6/3/1 3/4/1
f 1/1/2 3/4/2 5/5/2 4/6/2
