# Blender v3.4.0 OBJ File: 'apple_tree7_sapling.blend'
# www.blender.org
o leaves.226
v 0.225752 -0.103162 2.152555
v 0.234960 -0.148795 2.162323
v 0.306890 -0.178157 2.189902
v 0.270637 -0.107525 2.167685
v 0.297683 -0.132524 2.180134
v 0.262006 -0.173793 2.174772
vt 0.500000 0.000000
vt 0.265000 0.333333
vt 0.265000 0.666667
vt 0.500000 1.000000
vt 0.735000 0.666667
vt 0.735000 0.333333
vn -0.3040 0.1404 0.9423
s off
mtllib leafwood.mtl
usemtl Leaves
f 1/1/1 2/2/1 6/3/1 3/4/1
f 1/1/1 3/4/1 5/5/1 4/6/1
