# Blender v3.4.0 OBJ File: 'apple_tree7_sapling.blend'
# www.blender.org
o leaves.130
v 0.258909 0.093426 1.360893
v 0.312489 0.185602 1.374413
v 0.257556 0.136842 1.355022
v 0.295981 0.111461 1.375777
v 0.313842 0.142187 1.380284
v 0.275416 0.167567 1.359529
vt 0.500000 0.000000
vt 0.500000 1.000000
vt 0.735000 0.666667
vt 0.735000 0.333333
vt 0.265000 0.333333
vt 0.265000 0.666667
vn -0.4156 0.1092 0.9030
s off
mtllib leafwood.mtl
usemtl Leaves
f 1/1/1 2/2/1 6/3/1 3/4/1
f 1/1/1 4/5/1 5/6/1 2/2/1
