# Blender v3.4.0 OBJ File: 'apple_tree7_sapling.blend'
# www.blender.org
o leaves.045
v -0.283441 0.145350 0.863109
v -0.329670 0.168395 0.874150
v -0.399803 0.128524 0.917426
v -0.314787 0.111087 0.888279
v -0.353575 0.105479 0.906385
v -0.368457 0.162786 0.892256
vt 0.500000 0.000000
vt 0.265000 0.333333
vt 0.265000 0.666667
vt 0.500000 1.000000
vt 0.735000 0.666667
vt 0.735000 0.333333
vn 0.3647 0.3111 0.8776
s off
mtllib leafwood.mtl
usemtl Leaves
f 1/1/1 2/2/1 6/3/1 3/4/1
f 1/1/1 3/4/1 5/5/1 4/6/1
