# Blender v3.4.0 OBJ File: 'apple_tree7_sapling.blend'
# www.blender.org
o leaves.017
v -0.210534 0.171533 0.717430
v -0.225488 0.205455 0.748760
v -0.294804 0.200808 0.796203
v -0.251760 0.157127 0.738615
v -0.279850 0.166885 0.764873
v -0.253578 0.215214 0.775017
vt 0.500000 0.000000
vt 0.265000 0.333333
vt 0.265000 0.666667
vt 0.500000 1.000000
vt 0.735000 0.666667
vt 0.735000 0.333333
vn 0.5273 -0.4393 0.7273
s off
mtllib leafwood.mtl
usemtl Leaves
f 1/1/1 2/2/1 6/3/1 3/4/1
f 1/1/1 3/4/1 5/5/1 4/6/1
