# Blender v3.4.0 OBJ File: 'apple_tree7_sapling.blend'
# www.blender.org
o leaves.234
v -0.011011 0.117982 2.231105
v 0.010102 0.156468 2.242539
v -0.025152 0.221784 2.268464
v -0.041552 0.148698 2.244576
v -0.046265 0.183299 2.257030
v 0.005388 0.191069 2.254992
vt 0.500000 0.000000
vt 0.265000 0.333333
vt 0.265000 0.666667
vt 0.500000 1.000000
vt 0.735000 0.666667
vt 0.735000 0.333333
vn 0.0863 -0.3269 0.9411
s off
mtllib leafwood.mtl
usemtl Leaves
f 1/1/1 2/2/1 6/3/1 3/4/1
f 1/1/1 3/4/1 5/5/1 4/6/1
