# Blender v3.4.0 OBJ File: 'apple_tree7_sapling.blend'
# www.blender.org
o leaves.035
v 0.181957 0.108468 0.810828
v 0.216160 0.073786 0.790458
v 0.281151 0.093252 0.729048
v 0.213883 0.133006 0.776678
v 0.246948 0.127934 0.749418
v 0.249225 0.068714 0.763198
vt 0.500000 0.000000
vt 0.265000 0.333333
vt 0.265000 0.666667
vt 0.500000 1.000000
vt 0.735000 0.666667
vt 0.735000 0.333333
vn 0.6415 0.1972 0.7414
s off
mtllib leafwood.mtl
usemtl Leaves
f 1/1/1 2/2/1 6/3/1 3/4/1
f 1/1/1 3/4/1 5/5/1 4/6/1
