# Blender v3.4.0 OBJ File: 'apple_tree7_sapling.blend'
# www.blender.org
o leaves.144
v -0.141717 0.246944 1.542867
v -0.121496 0.288753 1.558107
v -0.160532 0.363878 1.561197
v -0.174481 0.283090 1.539847
v -0.180752 0.322068 1.545956
v -0.127768 0.327731 1.564217
vt 0.500000 0.000000
vt 0.265000 0.333333
vt 0.265000 0.666667
vt 0.500000 1.000000
vt 0.735000 0.666667
vt 0.735000 0.333333
vn -0.3009 -0.1948 0.9335
vn -0.3009 -0.1948 0.9336
s off
mtllib leafwood.mtl
usemtl Leaves
f 1/1/1 2/2/1 6/3/1 3/4/1
f 1/1/2 3/4/2 5/5/2 4/6/2
