# Blender v3.4.0 OBJ File: 'apple_tree7_sapling.blend'
# www.blender.org
o leaves.253
v 0.055377 -0.200379 2.532093
v 0.071301 -0.217738 2.579526
v 0.158644 -0.228125 2.605769
v 0.108298 -0.201517 2.533778
v 0.142720 -0.210766 2.558337
v 0.105723 -0.226987 2.604084
vt 0.500000 0.000000
vt 0.265000 0.333333
vt 0.265000 0.666667
vt 0.500000 1.000000
vt 0.735000 0.666667
vt 0.735000 0.333333
vn 0.0094 0.9401 0.3409
s off
mtllib leafwood.mtl
usemtl Leaves
f 1/1/1 2/2/1 6/3/1 3/4/1
f 1/1/1 3/4/1 5/5/1 4/6/1
