# Blender v3.4.0 OBJ File: 'apple_tree7_sapling.blend'
# www.blender.org
o leaves.114
v 0.039454 0.215758 1.189728
v 0.023629 0.303060 1.269023
v 0.060474 0.241529 1.225074
v 0.007884 0.248188 1.207246
v 0.002609 0.277289 1.233678
v 0.055199 0.270629 1.251505
vt 0.500000 0.000000
vt 0.500000 1.000000
vt 0.735000 0.666667
vt 0.735000 0.333333
vt 0.265000 0.333333
vt 0.265000 0.666667
vn -0.3132 -0.6690 0.6740
s off
mtllib leafwood.mtl
usemtl Leaves
f 1/1/1 2/2/1 5/3/1 4/4/1
f 1/1/1 3/5/1 6/6/1 2/2/1
