# Blender v3.4.0 OBJ File: 'apple_tree7_sapling.blend'
# www.blender.org
o leaves.109
v 0.032816 0.199895 1.181237
v 0.080511 0.188300 1.178723
v 0.145021 0.240111 1.198982
v 0.059924 0.238300 1.195581
v 0.097326 0.251705 1.201496
v 0.117913 0.201706 1.184638
vt 0.500000 0.000000
vt 0.265000 0.333333
vt 0.265000 0.666667
vt 0.500000 1.000000
vt 0.735000 0.666667
vt 0.735000 0.333333
vn -0.0307 -0.3307 0.9433
s off
mtllib leafwood.mtl
usemtl Leaves
f 1/1/1 2/2/1 6/3/1 3/4/1
f 1/1/1 3/4/1 5/5/1 4/6/1
