# Blender v3.4.0 OBJ File: 'apple_tree7_sapling.blend'
# www.blender.org
o leaves.258
v 0.055752 -0.209827 2.548072
v -0.012907 -0.257826 2.624161
v 0.053186 -0.227896 2.590466
v 0.012544 -0.223758 2.556403
v -0.010342 -0.239757 2.581766
v 0.030300 -0.243895 2.615829
vt 0.500000 0.000000
vt 0.500000 1.000000
vt 0.735000 0.666667
vt 0.735000 0.333333
vt 0.265000 0.333333
vt 0.265000 0.666667
vn -0.2193 0.9023 0.3713
s off
mtllib leafwood.mtl
usemtl Leaves
f 1/1/1 2/2/1 6/3/1 3/4/1
f 1/1/1 4/5/1 5/6/1 2/2/1
