# Blender v3.4.0 OBJ File: 'apple_tree7_sapling.blend'
# www.blender.org
o leaves.093
v -0.059874 0.192724 1.167907
v -0.032707 0.199777 1.211476
v -0.067469 0.205652 1.294095
v -0.092104 0.194289 1.208463
v -0.094636 0.198598 1.250526
v -0.035239 0.204087 1.253539
vt 0.500000 0.000000
vt 0.265000 0.333333
vt 0.265000 0.666667
vt 0.500000 1.000000
vt 0.735000 0.666667
vt 0.735000 0.333333
vn 0.0861 -0.9906 0.1067
s off
mtllib leafwood.mtl
usemtl Leaves
f 1/1/1 2/2/1 6/3/1 3/4/1
f 1/1/1 3/4/1 5/5/1 4/6/1
