# Blender v3.4.0 OBJ File: 'apple_tree7_sapling.blend'
# www.blender.org
o leaves.046
v -0.286586 0.147519 0.863516
v -0.317676 0.177502 0.897054
v -0.395978 0.147230 0.941049
v -0.328424 0.117343 0.881666
v -0.364888 0.117247 0.907511
v -0.354140 0.177406 0.922899
vt 0.500000 0.000000
vt 0.265000 0.333333
vt 0.265000 0.666667
vt 0.500000 1.000000
vt 0.735000 0.666667
vt 0.735000 0.333333
vn 0.5525 -0.2978 0.7785
s off
mtllib leafwood.mtl
usemtl Leaves
f 1/1/1 2/2/1 6/3/1 3/4/1
f 1/1/1 3/4/1 5/5/1 4/6/1
