# Blender v3.4.0 OBJ File: 'apple_tree7_sapling.blend'
# www.blender.org
o leaves.189
v 0.129939 0.214230 1.869852
v 0.155378 0.215574 1.924067
v 0.115048 0.260901 2.008316
v 0.094573 0.244001 1.907946
v 0.089609 0.259557 1.954101
v 0.150414 0.231131 1.970222
vt 0.500000 0.000000
vt 0.265000 0.333333
vt 0.265000 0.666667
vt 0.500000 1.000000
vt 0.735000 0.666667
vt 0.735000 0.333333
vn -0.4624 -0.8541 0.2381
s off
mtllib leafwood.mtl
usemtl Leaves
f 1/1/1 2/2/1 6/3/1 3/4/1
f 1/1/1 3/4/1 5/5/1 4/6/1
