# Blender v3.4.0 OBJ File: 'apple_tree7_sapling.blend'
# www.blender.org
o leaves.174
v 0.113416 -0.193788 1.700773
v 0.085387 -0.202755 1.748546
v 0.122021 -0.192772 1.838076
v 0.147182 -0.184144 1.744536
v 0.150050 -0.183805 1.790303
v 0.088255 -0.202416 1.794313
vt 0.500000 0.000000
vt 0.265000 0.333333
vt 0.265000 0.666667
vt 0.500000 1.000000
vt 0.735000 0.666667
vt 0.735000 0.333333
vn -0.2877 0.9577 0.0109
s off
mtllib leafwood.mtl
usemtl Leaves
f 1/1/1 2/2/1 6/3/1 3/4/1
f 1/1/1 3/4/1 5/5/1 4/6/1
