# Blender v3.4.0 OBJ File: 'apple_tree7_sapling.blend'
# www.blender.org
o leaves.196
v 0.145195 0.236008 1.879857
v 0.119672 0.280408 1.884885
v 0.164648 0.262765 1.919274
v 0.136090 0.342743 1.946526
v 0.161613 0.298343 1.941497
v 0.116637 0.315986 1.907108
vt 0.500000 0.000000
vt 0.500000 1.000000
vt 0.735000 0.666667
vt 0.735000 0.333333
vt 0.265000 0.333333
vt 0.265000 0.666667
vn -0.6478 -0.4426 0.6201
s off
mtllib leafwood.mtl
usemtl Leaves
f 1/1/1 4/2/1 6/3/1 2/4/1
f 1/1/1 3/5/1 5/6/1 4/2/1
