# Blender v3.4.0 OBJ File: 'apple_tree7_sapling.blend'
# www.blender.org
o leaves.103
v -0.020008 0.210699 1.146318
v 0.009271 0.244966 1.138350
v -0.004518 0.307123 1.091023
v -0.038960 0.240714 1.117422
v -0.033796 0.272855 1.098991
v 0.014434 0.277108 1.119919
vt 0.500000 0.000000
vt 0.265000 0.333333
vt 0.265000 0.666667
vt 0.500000 1.000000
vt 0.735000 0.666667
vt 0.735000 0.333333
vn -0.3806 0.5053 0.7745
s off
mtllib leafwood.mtl
usemtl Leaves
f 1/1/1 2/2/1 6/3/1 3/4/1
f 1/1/1 3/4/1 5/5/1 4/6/1
