# Blender v3.4.0 OBJ File: 'apple_tree7_sapling.blend'
# www.blender.org
o leaves.011
v -0.276140 0.142101 0.759140
v -0.289060 0.174585 0.799367
v -0.312352 0.147585 0.884576
v -0.287362 0.113274 0.802537
v -0.299433 0.115101 0.844349
v -0.301131 0.176413 0.841179
vt 0.500000 0.000000
vt 0.265000 0.333333
vt 0.265000 0.666667
vt 0.500000 1.000000
vt 0.735000 0.666667
vt 0.735000 0.333333
vn 0.9604 0.0408 0.2755
s off
mtllib leafwood.mtl
usemtl Leaves
f 1/1/1 2/2/1 6/3/1 3/4/1
f 1/1/1 3/4/1 5/5/1 4/6/1
