# Blender v3.4.0 OBJ File: 'apple_tree7_sapling.blend'
# www.blender.org
o leaves.197
v 0.147217 0.238893 1.881182
v 0.175690 0.235963 1.913528
v 0.184743 0.286469 1.968037
v 0.143761 0.273540 1.906740
v 0.156270 0.289399 1.935692
v 0.188199 0.251822 1.942480
vt 0.500000 0.000000
vt 0.265000 0.333333
vt 0.265000 0.666667
vt 0.500000 1.000000
vt 0.735000 0.666667
vt 0.735000 0.333333
vn -0.6804 -0.4778 0.5557
s off
mtllib leafwood.mtl
usemtl Leaves
f 1/1/1 2/2/1 6/3/1 3/4/1
f 1/1/1 3/4/1 5/5/1 4/6/1
