# Blender v3.4.0 OBJ File: 'apple_tree7_sapling.blend'
# www.blender.org
o leaves.015
v -0.288961 0.143837 0.766636
v -0.326882 0.169871 0.770444
v -0.401983 0.142375 0.772179
v -0.326388 0.116829 0.766524
v -0.364062 0.116342 0.768371
v -0.364556 0.169383 0.772291
vt 0.500000 0.000000
vt 0.265000 0.333333
vt 0.265000 0.666667
vt 0.500000 1.000000
vt 0.735000 0.666667
vt 0.735000 0.333333
vn 0.0498 -0.0732 0.9961
vn 0.0498 -0.0731 0.9961
s off
mtllib leafwood.mtl
usemtl Leaves
f 1/1/1 2/2/1 6/3/1 3/4/1
f 1/1/2 3/4/2 5/5/2 4/6/2
