# Blender v3.4.0 OBJ File: 'apple_tree7_sapling.blend'
# www.blender.org
o leaves.041
v -0.270990 0.136763 0.861498
v -0.241303 0.176141 0.881572
v -0.272343 0.244404 0.935354
v -0.301579 0.169146 0.890662
v -0.302030 0.205026 0.915280
v -0.241754 0.212021 0.906190
vt 0.500000 0.000000
vt 0.265000 0.333333
vt 0.265000 0.666667
vt 0.500000 1.000000
vt 0.735000 0.666667
vt 0.735000 0.333333
vn 0.1866 -0.5542 0.8112
s off
mtllib leafwood.mtl
usemtl Leaves
f 1/1/1 2/2/1 6/3/1 3/4/1
f 1/1/1 3/4/1 5/5/1 4/6/1
