# Blender v3.4.0 OBJ File: 'apple_tree7_sapling.blend'
# www.blender.org
o leaves.052
v -0.196614 0.143351 0.886791
v -0.233851 0.176006 0.873228
v -0.315304 0.152826 0.845855
v -0.238503 0.117013 0.873063
v -0.278067 0.120171 0.859418
v -0.273414 0.179164 0.859583
vt 0.500000 0.000000
vt 0.265000 0.333333
vt 0.265000 0.666667
vt 0.500000 1.000000
vt 0.735000 0.666667
vt 0.735000 0.333333
vn -0.3243 0.0229 0.9457
s off
mtllib leafwood.mtl
usemtl Leaves
f 1/1/1 2/2/1 6/3/1 3/4/1
f 1/1/1 3/4/1 5/5/1 4/6/1
