# Blender v3.4.0 OBJ File: 'apple_tree7_sapling.blend'
# www.blender.org
o leaves.110
v 0.034144 0.203067 1.182935
v 0.117377 0.283494 1.160696
v 0.042391 0.249410 1.173195
v 0.081385 0.210342 1.177850
v 0.109130 0.237151 1.170437
v 0.070136 0.276219 1.165781
vt 0.500000 0.000000
vt 0.500000 1.000000
vt 0.735000 0.666667
vt 0.735000 0.333333
vt 0.265000 0.333333
vt 0.265000 0.666667
vn 0.0757 0.1922 0.9784
s off
mtllib leafwood.mtl
usemtl Leaves
f 1/1/1 2/2/1 6/3/1 3/4/1
f 1/1/1 4/5/1 5/6/1 2/2/1
