# Blender v3.4.0 OBJ File: 'apple_tree7_sapling.blend'
# www.blender.org
o leaves.169
v -0.175941 -0.130180 1.548932
v -0.210655 -0.107028 1.527883
v -0.288836 -0.128156 1.529403
v -0.216491 -0.151983 1.556962
v -0.254123 -0.151308 1.550452
v -0.248287 -0.106353 1.521373
vt 0.500000 0.000000
vt 0.265000 0.333333
vt 0.265000 0.666667
vt 0.500000 1.000000
vt 0.735000 0.666667
vt 0.735000 0.333333
vn -0.1327 0.5504 0.8243
s off
mtllib leafwood.mtl
usemtl Leaves
f 1/1/1 2/2/1 6/3/1 3/4/1
f 1/1/1 3/4/1 5/5/1 4/6/1
