# Blender v3.4.0 OBJ File: 'apple_tree7_sapling.blend'
# www.blender.org
o leaves.030
v 0.115110 0.130404 0.883589
v 0.120625 0.157362 0.921771
v 0.076301 0.223431 0.939768
v 0.083722 0.165464 0.882860
v 0.070785 0.196473 0.901586
v 0.107688 0.188371 0.940497
vt 0.500000 0.000000
vt 0.265000 0.333333
vt 0.265000 0.666667
vt 0.500000 1.000000
vt 0.735000 0.666667
vt 0.735000 0.333333
vn -0.6511 -0.5725 0.4983
s off
mtllib leafwood.mtl
usemtl Leaves
f 1/1/1 2/2/1 6/3/1 3/4/1
f 1/1/1 3/4/1 5/5/1 4/6/1
