# Blender v3.4.0 OBJ File: 'apple_tree7_sapling.blend'
# www.blender.org
o leaves.216
v -0.147600 0.014397 2.009376
v -0.144049 0.018892 2.064343
v -0.106204 0.048549 2.022577
v -0.080179 0.072368 2.111629
v -0.121575 0.038216 2.098428
v -0.083730 0.067872 2.056661
vt 0.500000 0.000000
vt 0.500000 1.000000
vt 0.735000 0.666667
vt 0.735000 0.333333
vt 0.265000 0.333333
vt 0.265000 0.666667
vn 0.6319 -0.7747 0.0225
s off
mtllib leafwood.mtl
usemtl Leaves
f 1/1/1 4/2/1 5/3/1 2/4/1
f 1/1/1 3/5/1 6/6/1 4/2/1
