# Blender v3.4.0 OBJ File: 'apple_tree7_sapling.blend'
# www.blender.org
o leaves.024
v -0.101364 -0.143257 0.779654
v -0.125646 -0.173266 0.815669
v -0.089040 -0.245968 0.857470
v -0.068866 -0.181722 0.795516
v -0.064758 -0.215959 0.821455
v -0.121538 -0.207503 0.841608
vt 0.500000 0.000000
vt 0.265000 0.333333
vt 0.265000 0.666667
vt 0.500000 1.000000
vt 0.735000 0.666667
vt 0.735000 0.333333
vn 0.3464 0.5925 0.7273
s off
mtllib leafwood.mtl
usemtl Leaves
f 1/1/1 2/2/1 6/3/1 3/4/1
f 1/1/1 3/4/1 5/5/1 4/6/1
