# Blender v3.4.0 OBJ File: 'apple_tree7_sapling.blend'
# www.blender.org
o leaves.124
v 0.240132 0.083700 1.354031
v 0.302527 0.062355 1.483350
v 0.278252 0.050097 1.384407
v 0.243608 0.103073 1.409867
v 0.264406 0.095958 1.452973
v 0.299051 0.042982 1.427514
vt 0.500000 0.000000
vt 0.500000 1.000000
vt 0.735000 0.666667
vt 0.735000 0.333333
vt 0.265000 0.333333
vt 0.265000 0.666667
vn -0.7466 -0.6128 0.2591
s off
mtllib leafwood.mtl
usemtl Leaves
f 1/1/1 2/2/1 5/3/1 4/4/1
f 1/1/1 3/5/1 6/6/1 2/2/1
