# Blender v3.4.0 OBJ File: 'apple_tree7_sapling.blend'
# www.blender.org
o leaves.089
v 0.249707 0.138485 1.051662
v 0.292971 0.128180 1.043567
v 0.350026 0.179919 1.029189
v 0.273322 0.176412 1.044775
v 0.306761 0.190224 1.037284
v 0.326411 0.141991 1.036076
vt 0.500000 0.000000
vt 0.265000 0.333333
vt 0.265000 0.666667
vt 0.500000 1.000000
vt 0.735000 0.666667
vt 0.735000 0.333333
vn 0.1964 0.0555 0.9790
s off
mtllib leafwood.mtl
usemtl Leaves
f 1/1/1 2/2/1 6/3/1 3/4/1
f 1/1/1 3/4/1 5/5/1 4/6/1
