# Blender v3.4.0 OBJ File: 'apple_tree7_sapling.blend'
# www.blender.org
o leaves.241
v 0.049101 0.120051 2.205346
v 0.086848 0.089440 2.205653
v 0.165226 0.108379 2.181290
v 0.088770 0.142880 2.189002
v 0.127478 0.138990 2.180983
v 0.125556 0.085550 2.197634
vt 0.500000 0.000000
vt 0.265000 0.333333
vt 0.265000 0.666667
vt 0.500000 1.000000
vt 0.735000 0.666667
vt 0.735000 0.333333
vn 0.2217 0.2828 0.9332
s off
mtllib leafwood.mtl
usemtl Leaves
f 1/1/1 2/2/1 6/3/1 3/4/1
f 1/1/1 3/4/1 5/5/1 4/6/1
