# Blender v3.4.0 OBJ File: 'apple_tree7_sapling.blend'
# www.blender.org
o leaves.182
v 0.039032 0.233801 1.858244
v 0.056139 0.227356 1.902306
v 0.017763 0.249098 1.972239
v 0.007745 0.250445 1.890179
v 0.000655 0.255544 1.928177
v 0.049050 0.232455 1.940305
vt 0.500000 0.000000
vt 0.265000 0.333333
vt 0.265000 0.666667
vt 0.500000 1.000000
vt 0.735000 0.666667
vt 0.735000 0.333333
vn -0.4382 -0.8981 0.0388
s off
mtllib leafwood.mtl
usemtl Leaves
f 1/1/1 2/2/1 6/3/1 3/4/1
f 1/1/1 3/4/1 5/5/1 4/6/1
