# Blender v3.4.0 OBJ File: 'apple_tree7_sapling.blend'
# www.blender.org
o leaves.153
v 0.028281 0.252746 1.501823
v 0.069852 0.277418 1.513962
v 0.083897 0.361557 1.500320
v 0.023787 0.300614 1.488682
v 0.042326 0.336885 1.488181
v 0.088391 0.313689 1.513462
vt 0.500000 0.000000
vt 0.265000 0.333333
vt 0.265000 0.666667
vt 0.500000 1.000000
vt 0.735000 0.666667
vt 0.735000 0.333333
vn -0.3869 0.2102 0.8978
s off
mtllib leafwood.mtl
usemtl Leaves
f 1/1/1 2/2/1 6/3/1 3/4/1
f 1/1/1 3/4/1 5/5/1 4/6/1
