# Blender v3.4.0 OBJ File: 'apple_tree7_sapling.blend'
# www.blender.org
o leaves.038
v 0.191516 0.114495 0.809796
v 0.230842 0.140580 0.814121
v 0.232969 0.221677 0.826955
v 0.179826 0.159864 0.816909
v 0.193643 0.195592 0.822629
v 0.244659 0.176308 0.819841
vt 0.500000 0.000000
vt 0.265000 0.333333
vt 0.265000 0.666667
vt 0.500000 1.000000
vt 0.735000 0.666667
vt 0.735000 0.333333
vn -0.0051 -0.1562 0.9877
s off
mtllib leafwood.mtl
usemtl Leaves
f 1/1/1 2/2/1 6/3/1 3/4/1
f 1/1/1 3/4/1 5/5/1 4/6/1
