# Blender v3.4.0 OBJ File: 'apple_tree7_sapling.blend'
# www.blender.org
o leaves.019
v -0.213957 0.178267 0.718883
v -0.188915 0.220197 0.738732
v -0.219986 0.273332 0.806256
v -0.243018 0.199715 0.757283
v -0.245028 0.231403 0.786408
v -0.190925 0.251885 0.767856
vt 0.500000 0.000000
vt 0.265000 0.333333
vt 0.265000 0.666667
vt 0.500000 1.000000
vt 0.735000 0.666667
vt 0.735000 0.333333
vn 0.4525 -0.5877 0.6707
s off
mtllib leafwood.mtl
usemtl Leaves
f 1/1/1 2/2/1 6/3/1 3/4/1
f 1/1/1 3/4/1 5/5/1 4/6/1
