# Blender v3.4.0 OBJ File: 'apple_tree7_sapling.blend'
# www.blender.org
o leaves.085
v 0.234407 0.136811 1.047291
v 0.292323 0.108580 1.146450
v 0.267683 0.151386 1.079013
v 0.239742 0.103416 1.081675
v 0.259047 0.094005 1.114728
v 0.286988 0.141976 1.112066
vt 0.500000 0.000000
vt 0.500000 1.000000
vt 0.735000 0.666667
vt 0.735000 0.333333
vt 0.265000 0.333333
vt 0.265000 0.666667
vn -0.7123 0.4450 0.5427
s off
mtllib leafwood.mtl
usemtl Leaves
f 1/1/1 2/2/1 6/3/1 3/4/1
f 1/1/1 4/5/1 5/6/1 2/2/1
