# Blender v3.4.0 OBJ File: 'apple_tree7_sapling.blend'
# www.blender.org
o leaves.171
v -0.181832 -0.132919 1.552194
v -0.224127 -0.145407 1.548189
v -0.185457 -0.176187 1.560888
v -0.250712 -0.216552 1.559227
v -0.247087 -0.173284 1.550534
v -0.208417 -0.204064 1.563232
vt 0.500000 0.000000
vt 0.265000 0.333333
vt 0.265000 0.666667
vt 0.500000 1.000000
vt 0.735000 0.666667
vt 0.735000 0.333333
vn -0.1526 0.2070 0.9664
s off
mtllib leafwood.mtl
usemtl Leaves
f 1/1/1 2/2/1 5/3/1 4/4/1
f 1/1/1 4/4/1 6/5/1 3/6/1
