# Blender v3.4.0 OBJ File: 'apple_tree7_sapling.blend'
# www.blender.org
o leaves.224
v 0.222460 -0.100763 2.146349
v 0.219580 -0.220772 2.214700
v 0.240105 -0.127939 2.192438
v 0.202895 -0.153593 2.145827
v 0.201935 -0.193596 2.168611
v 0.239145 -0.167942 2.215222
vt 0.500000 0.000000
vt 0.500000 1.000000
vt 0.735000 0.666667
vt 0.735000 0.333333
vt 0.265000 0.333333
vt 0.265000 0.666667
vn -0.8192 0.2985 0.4897
s off
mtllib leafwood.mtl
usemtl Leaves
f 1/1/1 2/2/1 6/3/1 3/4/1
f 1/1/1 4/5/1 5/6/1 2/2/1
