# Blender v3.4.0 OBJ File: 'apple_tree7_sapling.blend'
# www.blender.org
o leaves.022
v -0.097734 -0.139511 0.775742
v -0.152468 -0.129909 0.783325
v -0.224107 -0.191663 0.760885
v -0.127248 -0.183880 0.758255
v -0.169372 -0.201264 0.753303
v -0.194592 -0.147293 0.778373
vt 0.500000 0.000000
vt 0.265000 0.333333
vt 0.265000 0.666667
vt 0.500000 1.000000
vt 0.735000 0.666667
vt 0.735000 0.333333
vn 0.0569 -0.3986 0.9154
s off
mtllib leafwood.mtl
usemtl Leaves
f 1/1/1 2/2/1 6/3/1 3/4/1
f 1/1/1 3/4/1 5/5/1 4/6/1
