# Blender v3.4.0 OBJ File: 'apple_tree7_sapling.blend'
# www.blender.org
o leaves.186
v 0.039280 0.250365 1.869003
v 0.057345 0.288722 1.879320
v 0.024674 0.356343 1.870406
v 0.011478 0.282661 1.859621
v 0.006609 0.317987 1.860089
v 0.052476 0.324048 1.879787
vt 0.500000 0.000000
vt 0.265000 0.333333
vt 0.265000 0.666667
vt 0.500000 1.000000
vt 0.735000 0.666667
vt 0.735000 0.333333
vn -0.3865 -0.0654 0.9200
s off
mtllib leafwood.mtl
usemtl Leaves
f 1/1/1 2/2/1 6/3/1 3/4/1
f 1/1/1 3/4/1 5/5/1 4/6/1
