# Blender v3.4.0 OBJ File: 'apple_tree7_sapling.blend'
# www.blender.org
o leaves.254
v 0.055451 -0.202252 2.535262
v 0.047003 -0.202536 2.591530
v 0.109462 -0.166595 2.658855
v 0.099906 -0.178197 2.561389
v 0.117910 -0.166311 2.602587
v 0.065007 -0.190651 2.632728
vt 0.500000 0.000000
vt 0.265000 0.333333
vt 0.265000 0.666667
vt 0.500000 1.000000
vt 0.735000 0.666667
vt 0.735000 0.333333
vn -0.4463 0.8927 -0.0625
s off
mtllib leafwood.mtl
usemtl Leaves
f 1/1/1 2/2/1 6/3/1 3/4/1
f 1/1/1 3/4/1 5/5/1 4/6/1
