# Blender v3.4.0 OBJ File: 'apple_tree7_sapling.blend'
# www.blender.org
o leaves.190
v 0.132064 0.217263 1.871245
v 0.176752 0.202424 1.896925
v 0.194524 0.217145 1.986974
v 0.129015 0.232024 1.922719
v 0.149835 0.231984 1.961295
v 0.197572 0.202384 1.935501
vt 0.500000 0.000000
vt 0.265000 0.333333
vt 0.265000 0.666667
vt 0.500000 1.000000
vt 0.735000 0.666667
vt 0.735000 0.333333
vn -0.4218 -0.8779 0.2268
s off
mtllib leafwood.mtl
usemtl Leaves
f 1/1/1 2/2/1 6/3/1 3/4/1
f 1/1/1 3/4/1 5/5/1 4/6/1
