# Blender v3.4.0 OBJ File: 'apple_tree7_sapling.blend'
# www.blender.org
o leaves.098
v -0.063149 0.207848 1.178029
v -0.132664 0.296793 1.208806
v -0.107971 0.224225 1.177741
v -0.064671 0.250767 1.198835
v -0.087843 0.280416 1.209094
v -0.131143 0.253874 1.188000
vt 0.500000 0.000000
vt 0.500000 1.000000
vt 0.735000 0.666667
vt 0.735000 0.333333
vt 0.265000 0.333333
vt 0.265000 0.666667
vn -0.1646 -0.4350 0.8853
s off
mtllib leafwood.mtl
usemtl Leaves
f 1/1/1 2/2/1 6/3/1 3/4/1
f 1/1/1 4/5/1 5/6/1 2/2/1
