# Blender v3.4.0 OBJ File: 'apple_tree7_sapling.blend'
# www.blender.org
o leaves.200
v 0.059607 0.213889 1.891012
v 0.041571 0.260435 1.890282
v 0.096771 0.246149 1.882614
v 0.088298 0.332098 1.877320
v 0.106335 0.285552 1.878051
v 0.051134 0.299838 1.885718
vt 0.500000 0.000000
vt 0.500000 1.000000
vt 0.735000 0.666667
vt 0.735000 0.333333
vt 0.265000 0.333333
vt 0.265000 0.666667
vn 0.1565 0.0761 0.9847
s off
mtllib leafwood.mtl
usemtl Leaves
f 1/1/1 4/2/1 6/3/1 2/4/1
f 1/1/1 3/5/1 5/6/1 4/2/1
