# Blender v3.4.0 OBJ File: 'apple_tree7_sapling.blend'
# www.blender.org
o leaves.021
v -0.095778 -0.137492 0.773634
v -0.135402 -0.093088 0.780711
v -0.228235 -0.102008 0.826453
v -0.144459 -0.158239 0.801769
v -0.188611 -0.146411 0.819375
v -0.179555 -0.081260 0.798318
vt 0.500000 0.000000
vt 0.265000 0.333333
vt 0.265000 0.666667
vt 0.500000 1.000000
vt 0.735000 0.666667
vt 0.735000 0.333333
vn 0.4127 0.2277 0.8820
s off
mtllib leafwood.mtl
usemtl Leaves
f 1/1/1 2/2/1 6/3/1 3/4/1
f 1/1/1 3/4/1 5/5/1 4/6/1
