# Blender v3.4.0 OBJ File: 'apple_tree7_sapling.blend'
# www.blender.org
o leaves.155
v 0.021325 0.241925 1.494812
v 0.007784 0.283279 1.527492
v -0.077159 0.296770 1.566208
v -0.030791 0.237134 1.509730
v -0.063618 0.255415 1.533529
v -0.025043 0.301561 1.551290
vt 0.500000 0.000000
vt 0.265000 0.333333
vt 0.265000 0.666667
vt 0.500000 1.000000
vt 0.735000 0.666667
vt 0.735000 0.333333
vn 0.2773 -0.5382 0.7959
s off
mtllib leafwood.mtl
usemtl Leaves
f 1/1/1 2/2/1 6/3/1 3/4/1
f 1/1/1 3/4/1 5/5/1 4/6/1
