# Blender v3.4.0 OBJ File: 'apple_tree7_sapling.blend'
# www.blender.org
o leaves.039
v 0.194879 0.116615 0.809433
v 0.241398 0.132186 0.815310
v 0.265513 0.200044 0.861642
v 0.195449 0.156663 0.838362
v 0.218994 0.184472 0.855764
v 0.264942 0.159996 0.832713
vt 0.500000 0.000000
vt 0.265000 0.333333
vt 0.265000 0.666667
vt 0.500000 1.000000
vt 0.735000 0.666667
vt 0.735000 0.333333
vn 0.0935 -0.5839 0.8064
vn 0.0936 -0.5839 0.8064
s off
mtllib leafwood.mtl
usemtl Leaves
f 1/1/1 2/2/1 6/3/1 3/4/1
f 1/1/2 3/4/2 5/5/2 4/6/2
