# Blender v3.4.0 OBJ File: 'apple_tree7_sapling.blend'
# www.blender.org
o leaves.206
v 0.053348 0.231730 1.904913
v 0.087497 0.259193 1.912378
v 0.092964 0.308647 1.971203
v 0.045610 0.255545 1.941642
v 0.058815 0.281184 1.963739
v 0.100703 0.284832 1.934474
vt 0.500000 0.000000
vt 0.265000 0.333333
vt 0.265000 0.666667
vt 0.500000 1.000000
vt 0.735000 0.666667
vt 0.735000 0.333333
vn 0.4464 -0.7049 0.5511
s off
mtllib leafwood.mtl
usemtl Leaves
f 1/1/1 2/2/1 6/3/1 3/4/1
f 1/1/1 3/4/1 5/5/1 4/6/1
