# Blender v3.4.0 OBJ File: 'apple_tree7_sapling.blend'
# www.blender.org
o leaves.185
v 0.039799 0.246086 1.866696
v 0.079843 0.275778 1.869918
v 0.077865 0.362001 1.877542
v 0.025132 0.293672 1.870705
v 0.037821 0.332310 1.874320
v 0.092532 0.314416 1.873534
vt 0.500000 0.000000
vt 0.265000 0.333333
vt 0.265000 0.666667
vt 0.500000 1.000000
vt 0.735000 0.666667
vt 0.735000 0.333333
vn -0.0146 -0.0884 0.9960
s off
mtllib leafwood.mtl
usemtl Leaves
f 1/1/1 2/2/1 6/3/1 3/4/1
f 1/1/1 3/4/1 5/5/1 4/6/1
