# Blender v3.4.0 OBJ File: 'apple_tree7_sapling.blend'
# www.blender.org
o leaves.091
v -0.058536 0.186545 1.163771
v -0.069281 0.212912 1.210213
v -0.131327 0.185179 1.275754
v -0.096318 0.159267 1.191984
v -0.120582 0.158812 1.229312
v -0.093544 0.212457 1.247541
vt 0.500000 0.000000
vt 0.265000 0.333333
vt 0.265000 0.666667
vt 0.500000 1.000000
vt 0.735000 0.666667
vt 0.735000 0.333333
vn 0.7194 -0.5193 0.4613
s off
mtllib leafwood.mtl
usemtl Leaves
f 1/1/1 2/2/1 6/3/1 3/4/1
f 1/1/1 3/4/1 5/5/1 4/6/1
