# Blender v3.4.0 OBJ File: 'apple_tree7_sapling.blend'
# www.blender.org
o leaves.173
v 0.112034 -0.190991 1.698524
v 0.120801 -0.206033 1.751982
v 0.187197 -0.166749 1.811510
v 0.153376 -0.159788 1.720390
v 0.178430 -0.151708 1.758052
v 0.145856 -0.197952 1.789644
vt 0.500000 0.000000
vt 0.265000 0.333333
vt 0.265000 0.666667
vt 0.500000 1.000000
vt 0.735000 0.666667
vt 0.735000 0.333333
vn -0.6708 0.6780 0.3008
s off
mtllib leafwood.mtl
usemtl Leaves
f 1/1/1 2/2/1 6/3/1 3/4/1
f 1/1/1 3/4/1 5/5/1 4/6/1
