# Blender v3.4.0 OBJ File: 'apple_tree7_sapling.blend'
# www.blender.org
o leaves.048
v -0.292811 0.151812 0.864321
v -0.282742 0.197098 0.873727
v -0.332217 0.249679 0.912693
v -0.329150 0.171771 0.887163
v -0.342286 0.204393 0.903287
v -0.295878 0.229720 0.889851
vt 0.500000 0.000000
vt 0.265000 0.333333
vt 0.265000 0.666667
vt 0.500000 1.000000
vt 0.735000 0.666667
vt 0.735000 0.333333
vn 0.4012 -0.2709 0.8750
s off
mtllib leafwood.mtl
usemtl Leaves
f 1/1/1 2/2/1 6/3/1 3/4/1
f 1/1/1 3/4/1 5/5/1 4/6/1
