# Blender v3.4.0 OBJ File: 'apple_tree7_sapling.blend'
# www.blender.org
o leaves.242
v 0.054799 0.123107 2.207222
v 0.147160 0.189480 2.168246
v 0.072762 0.168591 2.203619
v 0.098410 0.121873 2.184840
v 0.129197 0.143997 2.171848
v 0.103549 0.190715 2.190628
vt 0.500000 0.000000
vt 0.500000 1.000000
vt 0.735000 0.666667
vt 0.735000 0.333333
vt 0.265000 0.333333
vt 0.265000 0.666667
vn 0.4515 -0.1082 0.8857
s off
mtllib leafwood.mtl
usemtl Leaves
f 1/1/1 2/2/1 6/3/1 3/4/1
f 1/1/1 4/5/1 5/6/1 2/2/1
