# Blender v3.4.0 OBJ File: 'apple_tree7_sapling.blend'
# www.blender.org
o leaves.116
v -0.170407 -0.219214 1.248500
v -0.245191 -0.191126 1.342405
v -0.188506 -0.181848 1.276864
v -0.202165 -0.237854 1.282739
v -0.227093 -0.228491 1.314041
v -0.213434 -0.172486 1.308166
vt 0.500000 0.000000
vt 0.500000 1.000000
vt 0.735000 0.666667
vt 0.735000 0.333333
vt 0.265000 0.333333
vt 0.265000 0.666667
vn 0.7593 -0.1180 0.6400
s off
mtllib leafwood.mtl
usemtl Leaves
f 1/1/1 2/2/1 5/3/1 4/4/1
f 1/1/1 3/5/1 6/6/1 2/2/1
