# Blender v3.4.0 OBJ File: 'apple_tree7_sapling.blend'
# www.blender.org
o leaves.212
v -0.141438 -0.099120 1.938645
v -0.129725 -0.137131 1.958895
v -0.175032 -0.113396 1.964330
v -0.174260 -0.177552 2.007549
v -0.185973 -0.139540 1.987298
v -0.140666 -0.163275 1.981863
vt 0.500000 0.000000
vt 0.500000 1.000000
vt 0.735000 0.666667
vt 0.735000 0.333333
vt 0.265000 0.333333
vt 0.265000 0.666667
vn 0.3663 0.5229 0.7697
s off
mtllib leafwood.mtl
usemtl Leaves
f 1/1/1 4/2/1 6/3/1 2/4/1
f 1/1/1 3/5/1 5/6/1 4/2/1
