# Blender v3.4.0 OBJ File: 'apple_tree7_sapling.blend'
# www.blender.org
o leaves.082
v 0.222987 0.135562 1.044029
v 0.274699 0.149754 1.025927
v 0.304662 0.240849 1.005280
v 0.225725 0.191562 1.036298
v 0.252950 0.226658 1.023381
v 0.301924 0.184850 1.013011
vt 0.500000 0.000000
vt 0.265000 0.333333
vt 0.265000 0.666667
vt 0.500000 1.000000
vt 0.735000 0.666667
vt 0.735000 0.333333
vn 0.2996 0.1161 0.9470
s off
mtllib leafwood.mtl
usemtl Leaves
f 1/1/1 2/2/1 6/3/1 3/4/1
f 1/1/1 3/4/1 5/5/1 4/6/1
