# Blender v3.4.0 OBJ File: 'apple_tree7_sapling.blend'
# www.blender.org
o leaves.117
v -0.173269 -0.221225 1.249749
v -0.208429 -0.188516 1.253095
v -0.290015 -0.204331 1.245709
v -0.215941 -0.242672 1.243709
v -0.254856 -0.237040 1.242362
v -0.247344 -0.182884 1.251749
vt 0.500000 0.000000
vt 0.265000 0.333333
vt 0.265000 0.666667
vt 0.500000 1.000000
vt 0.735000 0.666667
vt 0.735000 0.333333
vn -0.0576 -0.1627 0.9850
s off
mtllib leafwood.mtl
usemtl Leaves
f 1/1/1 2/2/1 6/3/1 3/4/1
f 1/1/1 3/4/1 5/5/1 4/6/1
