# Blender v3.4.0 OBJ File: 'apple_tree7_sapling.blend'
# www.blender.org
o leaves.125
v 0.243444 0.085415 1.355241
v 0.274643 0.049751 1.368834
v 0.320201 0.048742 1.441106
v 0.263416 0.096631 1.398892
v 0.289002 0.084407 1.427513
v 0.300228 0.037527 1.397456
vt 0.500000 0.000000
vt 0.265000 0.333333
vt 0.265000 0.666667
vt 0.500000 1.000000
vt 0.735000 0.666667
vt 0.735000 0.333333
vn -0.7468 -0.4764 0.4641
s off
mtllib leafwood.mtl
usemtl Leaves
f 1/1/1 2/2/1 6/3/1 3/4/1
f 1/1/1 3/4/1 5/5/1 4/6/1
