# Blender v3.4.0 OBJ File: 'apple_tree7_sapling.blend'
# www.blender.org
o leaves.237
v 0.047320 0.121611 2.206416
v 0.027752 0.216420 2.281522
v 0.069205 0.157425 2.233536
v 0.012390 0.149002 2.229366
v 0.005867 0.180606 2.254402
v 0.062682 0.189029 2.258572
vt 0.500000 0.000000
vt 0.500000 1.000000
vt 0.735000 0.666667
vt 0.735000 0.333333
vt 0.265000 0.333333
vt 0.265000 0.666667
vn 0.0336 -0.6163 0.7868
s off
mtllib leafwood.mtl
usemtl Leaves
f 1/1/1 2/2/1 5/3/1 4/4/1
f 1/1/1 3/5/1 6/6/1 2/2/1
