# Blender v3.4.0 OBJ File: 'apple_tree7_sapling.blend'
# www.blender.org
o leaves.148
v -0.143858 0.250259 1.545566
v -0.138331 0.307156 1.642149
v -0.159111 0.252363 1.588672
v -0.124921 0.286087 1.566849
v -0.123079 0.305053 1.599043
v -0.157269 0.271329 1.620866
vt 0.500000 0.000000
vt 0.500000 1.000000
vt 0.735000 0.666667
vt 0.735000 0.333333
vt 0.265000 0.333333
vt 0.265000 0.666667
vn 0.7599 -0.5782 0.2971
s off
mtllib leafwood.mtl
usemtl Leaves
f 1/1/1 2/2/1 6/3/1 3/4/1
f 1/1/1 4/5/1 5/6/1 2/2/1
