# Blender v3.4.0 OBJ File: 'apple_tree7_sapling.blend'
# www.blender.org
o leaves.050
v -0.298847 0.155975 0.865102
v -0.298540 0.204571 0.865567
v -0.362147 0.254004 0.840958
v -0.341354 0.172731 0.848541
v -0.362454 0.205407 0.840493
v -0.319640 0.237247 0.857519
vt 0.500000 0.000000
vt 0.265000 0.333333
vt 0.265000 0.666667
vt 0.500000 1.000000
vt 0.735000 0.666667
vt 0.735000 0.333333
vn -0.3653 -0.0066 0.9309
s off
mtllib leafwood.mtl
usemtl Leaves
f 1/1/1 2/2/1 6/3/1 3/4/1
f 1/1/1 3/4/1 5/5/1 4/6/1
