# Blender v3.4.0 OBJ File: 'apple_tree7_sapling.blend'
# www.blender.org
o leaves.223
v 0.220928 -0.099648 2.143461
v 0.226086 -0.102800 2.197004
v 0.166050 -0.145033 2.254742
v 0.179184 -0.126752 2.164106
v 0.160892 -0.141881 2.201199
v 0.207793 -0.117928 2.234097
vt 0.500000 0.000000
vt 0.500000 1.000000
vt 0.735000 0.666667
vt 0.735000 0.333333
vt 0.265000 0.333333
vt 0.265000 0.666667
vn -0.5069 0.8563 0.0992
s off
mtllib leafwood.mtl
usemtl Leaves
f 1/1/1 3/2/1 6/3/1 2/4/1
f 1/1/1 4/5/1 5/6/1 3/2/1
