# Blender v3.4.0 OBJ File: 'apple_tree7_sapling.blend'
# www.blender.org
o leaves.204
v 0.055423 0.225816 1.900306
v 0.024155 0.221329 1.933154
v 0.072833 0.239802 1.940031
v 0.034635 0.240064 2.009166
v 0.065904 0.244551 1.976318
v 0.017226 0.226078 1.969441
vt 0.500000 0.000000
vt 0.500000 1.000000
vt 0.735000 0.666667
vt 0.735000 0.333333
vt 0.265000 0.333333
vt 0.265000 0.666667
vn 0.3260 -0.9274 0.1836
s off
mtllib leafwood.mtl
usemtl Leaves
f 1/1/1 4/2/1 6/3/1 2/4/1
f 1/1/1 3/5/1 5/6/1 4/2/1
