# Blender v3.4.0 OBJ File: 'apple_tree7_sapling.blend'
# www.blender.org
o leaves.079
v 0.257826 -0.018039 1.104869
v 0.260561 -0.067355 1.116853
v 0.309370 -0.101460 1.181771
v 0.289453 -0.024337 1.144153
v 0.306634 -0.052145 1.169787
v 0.277743 -0.095162 1.142487
vt 0.500000 0.000000
vt 0.265000 0.333333
vt 0.265000 0.666667
vt 0.500000 1.000000
vt 0.735000 0.666667
vt 0.735000 0.333333
vn -0.7652 0.1116 0.6340
s off
mtllib leafwood.mtl
usemtl Leaves
f 1/1/1 2/2/1 6/3/1 3/4/1
f 1/1/1 3/4/1 5/5/1 4/6/1
