# Blender v3.4.0 OBJ File: 'apple_tree7_sapling.blend'
# www.blender.org
o leaves.162
v -0.233933 -0.006420 1.621528
v -0.315825 -0.062986 1.695493
v -0.249904 -0.051132 1.638949
v -0.272557 0.000581 1.653417
v -0.299854 -0.018274 1.678072
v -0.277201 -0.069987 1.663604
vt 0.500000 0.000000
vt 0.500000 1.000000
vt 0.735000 0.666667
vt 0.735000 0.333333
vt 0.265000 0.333333
vt 0.265000 0.666667
vn 0.6425 0.0679 0.7633
s off
mtllib leafwood.mtl
usemtl Leaves
f 1/1/1 2/2/1 6/3/1 3/4/1
f 1/1/1 4/5/1 5/6/1 2/2/1
