# Blender v3.4.0 OBJ File: 'apple_tree7_sapling.blend'
# www.blender.org
o leaves.036
v 0.185030 0.110406 0.810496
v 0.220088 0.102137 0.777632
v 0.245387 0.156699 0.718263
v 0.190210 0.149536 0.781871
v 0.210329 0.164968 0.751127
v 0.240207 0.117569 0.746888
vt 0.500000 0.000000
vt 0.265000 0.333333
vt 0.265000 0.666667
vt 0.500000 1.000000
vt 0.735000 0.666667
vt 0.735000 0.333333
vn 0.6800 0.3721 0.6318
s off
mtllib leafwood.mtl
usemtl Leaves
f 1/1/1 2/2/1 6/3/1 3/4/1
f 1/1/1 3/4/1 5/5/1 4/6/1
