# Blender v3.4.0 OBJ File: 'apple_tree7_sapling.blend'
# www.blender.org
o leaves.032
v 0.117309 0.134473 0.888817
v 0.147203 0.118480 0.915371
v 0.153726 0.134723 0.987927
v 0.111693 0.150632 0.928337
v 0.123832 0.150715 0.961374
v 0.159342 0.118564 0.948407
vt 0.500000 0.000000
vt 0.265000 0.333333
vt 0.265000 0.666667
vt 0.500000 1.000000
vt 0.735000 0.666667
vt 0.735000 0.333333
vn -0.6075 -0.7618 0.2251
s off
mtllib leafwood.mtl
usemtl Leaves
f 1/1/1 2/2/1 6/3/1 3/4/1
f 1/1/1 3/4/1 5/5/1 4/6/1
