# Blender v3.4.0 OBJ File: 'apple_tree7_sapling.blend'
# www.blender.org
o leaves.002
v 0.161225 0.120467 0.674809
v 0.182620 0.133704 0.714881
v 0.179547 0.208739 0.747824
v 0.152044 0.166078 0.683414
v 0.158152 0.195502 0.707753
v 0.188727 0.163128 0.739219
vt 0.500000 0.000000
vt 0.265000 0.333333
vt 0.265000 0.666667
vt 0.500000 1.000000
vt 0.735000 0.666667
vt 0.735000 0.333333
vn -0.8128 -0.2618 0.5204
s off
mtllib leafwood.mtl
usemtl Leaves
f 1/1/1 2/2/1 6/3/1 3/4/1
f 1/1/1 3/4/1 5/5/1 4/6/1
