# Blender v3.4.0 OBJ File: 'apple_tree7_sapling.blend'
# www.blender.org
o leaves.199
v 0.060620 0.211002 1.888763
v 0.064789 0.259707 1.915361
v 0.111386 0.232367 1.880804
v 0.143023 0.316106 1.916722
v 0.138853 0.267401 1.890124
v 0.092257 0.294741 1.924680
vt 0.500000 0.000000
vt 0.500000 1.000000
vt 0.735000 0.666667
vt 0.735000 0.333333
vt 0.265000 0.333333
vt 0.265000 0.666667
vn 0.3277 -0.4743 0.8171
s off
mtllib leafwood.mtl
usemtl Leaves
f 1/1/1 4/2/1 6/3/1 2/4/1
f 1/1/1 3/5/1 5/6/1 4/2/1
