# Blender v3.4.0 OBJ File: 'apple_tree7_sapling.blend'
# www.blender.org
o leaves.150
v 0.020888 0.237094 1.490052
v 0.132877 0.244576 1.564791
v 0.041403 0.251678 1.538950
v 0.075032 0.227498 1.490980
v 0.112362 0.229992 1.515893
v 0.078733 0.254172 1.563863
vt 0.500000 0.000000
vt 0.500000 1.000000
vt 0.735000 0.666667
vt 0.735000 0.333333
vt 0.265000 0.333333
vt 0.265000 0.666667
vn -0.1695 -0.9227 0.3463
s off
mtllib leafwood.mtl
usemtl Leaves
f 1/1/1 2/2/1 6/3/1 3/4/1
f 1/1/1 4/5/1 5/6/1 2/2/1
