# Blender v3.4.0 OBJ File: 'apple_tree7_sapling.blend'
# www.blender.org
o leaves.027
v 0.111709 0.124113 0.875506
v 0.144189 0.085634 0.890751
v 0.201725 0.089955 0.961362
v 0.139240 0.139820 0.917498
v 0.169245 0.128434 0.946117
v 0.174194 0.074248 0.919370
vt 0.500000 0.000000
vt 0.265000 0.333333
vt 0.265000 0.666667
vt 0.500000 1.000000
vt 0.735000 0.666667
vt 0.735000 0.333333
vn -0.7116 -0.3622 0.6020
s off
mtllib leafwood.mtl
usemtl Leaves
f 1/1/1 2/2/1 6/3/1 3/4/1
f 1/1/1 3/4/1 5/5/1 4/6/1
