# Blender v3.4.0 OBJ File: 'apple_tree7_sapling.blend'
# www.blender.org
o leaves.251
v 0.055220 -0.196414 2.525388
v 0.094202 -0.229354 2.526814
v 0.086858 -0.317124 2.535358
v 0.037330 -0.243947 2.530609
v 0.047876 -0.284184 2.533932
v 0.104748 -0.269591 2.530137
vt 0.500000 0.000000
vt 0.500000 1.000000
vt 0.735000 0.666667
vt 0.735000 0.333333
vt 0.265000 0.333333
vt 0.265000 0.666667
vn 0.0425 0.0933 0.9947
vn 0.0424 0.0933 0.9947
s off
mtllib leafwood.mtl
usemtl Leaves
f 1/1/1 3/2/1 6/3/1 2/4/1
f 1/1/2 4/5/2 5/6/2 3/2/2
