# Blender v3.4.0 OBJ File: 'apple_tree7_sapling.blend'
# www.blender.org
o leaves.095
v -0.061184 0.198773 1.171955
v -0.016879 0.208864 1.192999
v 0.000236 0.277041 1.243906
v -0.064542 0.240861 1.198880
v -0.044068 0.266951 1.222863
v 0.003594 0.234954 1.216982
vt 0.500000 0.000000
vt 0.265000 0.333333
vt 0.265000 0.666667
vt 0.500000 1.000000
vt 0.735000 0.666667
vt 0.735000 0.333333
vn -0.2600 -0.5350 0.8039
s off
mtllib leafwood.mtl
usemtl Leaves
f 1/1/1 2/2/1 6/3/1 3/4/1
f 1/1/1 3/4/1 5/5/1 4/6/1
