# Blender v3.4.0 OBJ File: 'apple_tree7_sapling.blend'
# www.blender.org
o leaves.040
v 0.198088 0.118638 0.809086
v 0.236539 0.119914 0.836393
v 0.276834 0.187601 0.858327
v 0.212134 0.163338 0.814607
v 0.238382 0.186326 0.831020
v 0.262788 0.142901 0.852807
vt 0.500000 0.000000
vt 0.265000 0.333333
vt 0.265000 0.666667
vt 0.500000 1.000000
vt 0.735000 0.666667
vt 0.735000 0.333333
vn -0.5789 0.0817 0.8113
s off
mtllib leafwood.mtl
usemtl Leaves
f 1/1/1 2/2/1 6/3/1 3/4/1
f 1/1/1 3/4/1 5/5/1 4/6/1
