# Blender v3.4.0 OBJ File: 'apple_tree7_sapling.blend'
# www.blender.org
o leaves.080
v 0.262347 -0.018548 1.108301
v 0.274578 -0.065277 1.118922
v 0.351110 -0.091320 1.147428
v 0.309291 -0.020333 1.123765
v 0.338879 -0.044590 1.136807
v 0.304166 -0.089535 1.131964
vt 0.500000 0.000000
vt 0.265000 0.333333
vt 0.265000 0.666667
vt 0.500000 1.000000
vt 0.735000 0.666667
vt 0.735000 0.333333
vn -0.3054 0.1343 0.9427
s off
mtllib leafwood.mtl
usemtl Leaves
f 1/1/1 2/2/1 6/3/1 3/4/1
f 1/1/1 3/4/1 5/5/1 4/6/1
