# Blender v3.4.0 OBJ File: 'apple_tree7_sapling.blend'
# www.blender.org
o leaves.020
v -0.215608 0.181516 0.719584
v -0.189115 0.220168 0.726211
v -0.211490 0.286298 0.769275
v -0.239355 0.212718 0.746084
v -0.237983 0.247645 0.762648
v -0.187743 0.255096 0.742775
vt 0.500000 0.000000
vt 0.265000 0.333333
vt 0.265000 0.666667
vt 0.500000 1.000000
vt 0.735000 0.666667
vt 0.735000 0.333333
vn 0.3875 -0.4074 0.8270
s off
mtllib leafwood.mtl
usemtl Leaves
f 1/1/1 2/2/1 6/3/1 3/4/1
f 1/1/1 3/4/1 5/5/1 4/6/1
