# Blender v3.4.0 OBJ File: 'apple_tree7_sapling.blend'
# www.blender.org
o leaves.014
v -0.285673 0.143392 0.764714
v -0.308881 0.178925 0.763248
v -0.382290 0.182107 0.767508
v -0.326877 0.133669 0.768043
v -0.359082 0.146574 0.768974
v -0.341087 0.191829 0.764179
vt 0.500000 0.000000
vt 0.265000 0.333333
vt 0.265000 0.666667
vt 0.500000 1.000000
vt 0.735000 0.666667
vt 0.735000 0.333333
vn 0.0612 0.0810 0.9948
s off
mtllib leafwood.mtl
usemtl Leaves
f 1/1/1 2/2/1 6/3/1 3/4/1
f 1/1/1 3/4/1 5/5/1 4/6/1
