# Blender v3.4.0 OBJ File: 'apple_tree7_sapling.blend'
# www.blender.org
o leaves.094
v -0.060529 0.195749 1.169931
v -0.064428 0.208711 1.215738
v -0.005355 0.245896 1.260249
v -0.019847 0.216218 1.184336
v -0.001456 0.232934 1.214442
v -0.046037 0.225427 1.245844
vt 0.500000 0.000000
vt 0.500000 1.000000
vt 0.735000 0.666667
vt 0.735000 0.333333
vt 0.265000 0.333333
vt 0.265000 0.666667
vn 0.3494 -0.8933 0.2825
vn 0.3495 -0.8933 0.2825
s off
mtllib leafwood.mtl
usemtl Leaves
f 1/1/1 3/2/1 6/3/1 2/4/1
f 1/1/2 4/5/2 5/6/2 3/2/2
