# Blender v3.4.0 OBJ File: 'apple_tree7_sapling.blend'
# www.blender.org
o leaves.088
v 0.246059 0.138086 1.050620
v 0.281266 0.103030 1.046323
v 0.362144 0.116391 1.018923
v 0.288243 0.158679 1.033786
v 0.326938 0.151447 1.023220
v 0.319961 0.095798 1.035757
vt 0.500000 0.000000
vt 0.265000 0.333333
vt 0.265000 0.666667
vt 0.500000 1.000000
vt 0.735000 0.666667
vt 0.735000 0.333333
vn 0.2897 0.1756 0.9409
s off
mtllib leafwood.mtl
usemtl Leaves
f 1/1/1 2/2/1 6/3/1 3/4/1
f 1/1/1 3/4/1 5/5/1 4/6/1
