# Blender v3.4.0 OBJ File: 'apple_tree7_sapling.blend'
# www.blender.org
o leaves.205
v 0.054460 0.228563 1.902446
v 0.089922 0.248971 1.927311
v 0.084292 0.276310 2.005458
v 0.038886 0.239986 1.946255
v 0.048830 0.255901 1.980593
v 0.099866 0.264887 1.961648
vt 0.500000 0.000000
vt 0.265000 0.333333
vt 0.265000 0.666667
vt 0.500000 1.000000
vt 0.735000 0.666667
vt 0.735000 0.333333
vn 0.2826 -0.8989 0.3348
s off
mtllib leafwood.mtl
usemtl Leaves
f 1/1/1 2/2/1 6/3/1 3/4/1
f 1/1/1 3/4/1 5/5/1 4/6/1
