# Blender v3.4.0 OBJ File: 'apple_tree7_sapling.blend'
# www.blender.org
o leaves.245
v -0.052275 -0.000234 2.487334
v -0.039029 -0.014087 2.539289
v -0.065961 -0.094672 2.583929
v -0.074645 -0.049340 2.499776
v -0.079208 -0.080820 2.531974
v -0.043591 -0.045566 2.571487
vt 0.500000 0.000000
vt 0.265000 0.333333
vt 0.265000 0.666667
vt 0.500000 1.000000
vt 0.735000 0.666667
vt 0.735000 0.333333
vn 0.8236 -0.4595 -0.3325
s off
mtllib leafwood.mtl
usemtl Leaves
f 1/1/1 2/2/1 6/3/1 3/4/1
f 1/1/1 3/4/1 5/5/1 4/6/1
