# Blender v3.4.0 OBJ File: 'apple_tree7_sapling.blend'
# www.blender.org
o leaves.187
v 0.040869 0.245389 1.867121
v 0.003125 0.278856 1.872991
v 0.007494 0.352819 1.920512
v 0.056363 0.283541 1.896845
v 0.045238 0.319351 1.914642
v -0.008000 0.314666 1.890788
vt 0.500000 0.000000
vt 0.500000 1.000000
vt 0.735000 0.666667
vt 0.735000 0.333333
vt 0.265000 0.333333
vt 0.265000 0.666667
vn -0.3173 -0.4993 0.8062
s off
mtllib leafwood.mtl
usemtl Leaves
f 1/1/1 3/2/1 6/3/1 2/4/1
f 1/1/1 4/5/1 5/6/1 3/2/1
