# Blender v3.4.0 OBJ File: 'apple_tree7_sapling.blend'
# www.blender.org
o leaves.057
v -0.047790 -0.187117 0.951332
v -0.091098 -0.160851 0.969813
v -0.155260 -0.196305 1.027766
v -0.076130 -0.219508 0.983807
v -0.111953 -0.222570 1.009285
v -0.126921 -0.163914 0.995290
vt 0.500000 0.000000
vt 0.265000 0.333333
vt 0.265000 0.666667
vt 0.500000 1.000000
vt 0.735000 0.666667
vt 0.735000 0.333333
vn 0.5302 0.3224 0.7842
s off
mtllib leafwood.mtl
usemtl Leaves
f 1/1/1 2/2/1 6/3/1 3/4/1
f 1/1/1 3/4/1 5/5/1 4/6/1
