# Blender v3.4.0 OBJ File: 'apple_tree7_sapling.blend'
# www.blender.org
o leaves.255
v 0.055523 -0.204061 2.538320
v 0.082699 -0.176297 2.574595
v 0.030230 -0.206135 2.585023
v 0.058348 -0.165527 2.662788
v 0.083641 -0.163453 2.616085
v 0.031172 -0.193290 2.626513
vt 0.500000 0.000000
vt 0.500000 1.000000
vt 0.735000 0.666667
vt 0.735000 0.333333
vt 0.265000 0.333333
vt 0.265000 0.666667
vn -0.5156 0.8218 -0.2427
s off
mtllib leafwood.mtl
usemtl Leaves
f 1/1/1 4/2/1 5/3/1 2/4/1
f 1/1/1 3/5/1 6/6/1 4/2/1
