# Blender v3.4.0 OBJ File: 'apple_tree7_sapling.blend'
# www.blender.org
o leaves.068
v 0.191832 0.194680 1.078415
v 0.208476 0.206233 1.120690
v 0.170862 0.253923 1.174658
v 0.161208 0.222623 1.100302
v 0.154218 0.242371 1.132383
v 0.201486 0.225981 1.152771
vt 0.500000 0.000000
vt 0.265000 0.333333
vt 0.265000 0.666667
vt 0.500000 1.000000
vt 0.735000 0.666667
vt 0.735000 0.333333
vn -0.4485 -0.8014 0.3956
s off
mtllib leafwood.mtl
usemtl Leaves
f 1/1/1 2/2/1 6/3/1 3/4/1
f 1/1/1 3/4/1 5/5/1 4/6/1
