# Blender v3.4.0 OBJ File: 'apple_tree7_sapling.blend'
# www.blender.org
o leaves.069
v 0.193703 0.197561 1.080802
v 0.222764 0.184478 1.121541
v 0.220716 0.224435 1.201766
v 0.182651 0.228560 1.120705
v 0.191655 0.237518 1.161027
v 0.231768 0.193436 1.161863
vt 0.500000 0.000000
vt 0.265000 0.333333
vt 0.265000 0.666667
vt 0.500000 1.000000
vt 0.735000 0.666667
vt 0.735000 0.333333
vn -0.7083 -0.6389 0.3001
s off
mtllib leafwood.mtl
usemtl Leaves
f 1/1/1 2/2/1 6/3/1 3/4/1
f 1/1/1 3/4/1 5/5/1 4/6/1
