# Blender v3.4.0 OBJ File: 'apple_tree7_sapling.blend'
# www.blender.org
o leaves.122
v -0.187580 -0.231283 1.255995
v -0.177164 -0.272508 1.268841
v -0.226025 -0.323198 1.299984
v -0.223626 -0.251335 1.272475
v -0.236441 -0.281973 1.287138
v -0.189979 -0.303146 1.283504
vt 0.500000 0.000000
vt 0.500000 1.000000
vt 0.735000 0.666667
vt 0.735000 0.333333
vt 0.265000 0.333333
vt 0.265000 0.666667
vn 0.2270 0.3416 0.9120
s off
mtllib leafwood.mtl
usemtl Leaves
f 1/1/1 3/2/1 6/3/1 2/4/1
f 1/1/1 4/5/1 5/6/1 3/2/1
