# Blender v3.4.0 OBJ File: 'apple_tree7_sapling.blend'
# www.blender.org
o leaves.139
v -0.135012 0.229292 1.526192
v -0.164534 0.254468 1.558267
v -0.235337 0.222202 1.597748
v -0.172373 0.199390 1.541820
v -0.205814 0.197027 1.565672
v -0.197976 0.252105 1.582119
vt 0.500000 0.000000
vt 0.265000 0.333333
vt 0.265000 0.666667
vt 0.500000 1.000000
vt 0.735000 0.666667
vt 0.735000 0.333333
vn 0.5667 -0.3088 0.7639
s off
mtllib leafwood.mtl
usemtl Leaves
f 1/1/1 2/2/1 6/3/1 3/4/1
f 1/1/1 3/4/1 5/5/1 4/6/1
