# Blender v3.4.0 OBJ File: 'apple_tree2_sapling_05_8_2_2.blend'
# www.blender.org
o leaves.132
v 0.017869 0.052936 1.190204
v 0.046316 0.149589 1.109911
v 0.051398 0.067723 1.150977
v 0.003305 0.102584 1.175902
v 0.012787 0.134802 1.149138
v 0.060880 0.099941 1.124213
vt 0.500000 0.000000
vt 0.500000 1.000000
vt 0.750000 0.666667
vt 0.750000 0.333333
vt 0.250000 0.333333
vt 0.250000 0.666667
vn -0.6276 -0.3799 -0.6796
s off
mtllib leafwood.mtl
usemtl Leaves
f 1/1/1 2/2/1 6/3/1 3/4/1
f 1/1/1 4/5/1 5/6/1 2/2/1
