# Blender v3.4.0 OBJ File: 'apple_tree2_sapling_05_8_2_2.blend'
# www.blender.org
o leaves.111
v -0.195855 0.028257 1.032318
v -0.166883 -0.002786 1.013819
v -0.097118 0.017467 0.982404
v -0.159002 0.052107 1.017542
v -0.126090 0.048510 1.000904
v -0.133971 -0.006383 0.997181
vt 0.500000 0.000000
vt 0.250000 0.333333
vt 0.250000 0.666667
vt 0.500000 1.000000
vt 0.750000 0.666667
vt 0.750000 0.333333
vn 0.4370 -0.1232 0.8910
s off
mtllib leafwood.mtl
usemtl Leaves
f 1/1/1 2/2/1 6/3/1 3/4/1
f 1/1/1 3/4/1 5/5/1 4/6/1
