# Blender v3.4.0 OBJ File: 'apple_tree2_sapling_05_8_2_2.blend'
# www.blender.org
o leaves.261
v 0.125218 0.293285 2.298243
v 0.152574 0.314419 2.279952
v 0.161834 0.379489 2.292051
v 0.122273 0.329621 2.312406
v 0.134478 0.358355 2.310342
v 0.164779 0.343153 2.277888
vt 0.500000 0.000000
vt 0.250000 0.333333
vt 0.250000 0.666667
vt 0.500000 1.000000
vt 0.750000 0.666667
vt 0.750000 0.333333
vn 0.6565 -0.2272 0.7193
s off
mtllib leafwood.mtl
usemtl Leaves
f 1/1/1 2/2/1 6/3/1 3/4/1
f 1/1/1 3/4/1 5/5/1 4/6/1
