# Blender v3.4.0 OBJ File: 'apple_tree2_sapling_05_8_2_2.blend'
# www.blender.org
o leaves.102
v -0.096730 -0.033494 1.046458
v -0.094248 -0.132265 1.112926
v -0.086523 -0.082029 1.045065
v -0.105282 -0.050806 1.092162
v -0.104455 -0.083730 1.114319
v -0.085696 -0.114953 1.067221
vt 0.500000 0.000000
vt 0.500000 1.000000
vt 0.750000 0.666667
vt 0.750000 0.333333
vt 0.250000 0.333333
vt 0.250000 0.666667
vn 0.9488 0.1924 0.2504
s off
mtllib leafwood.mtl
usemtl Leaves
f 1/1/1 2/2/1 6/3/1 3/4/1
f 1/1/1 4/5/1 5/6/1 2/2/1
