# Blender v3.4.0 OBJ File: 'apple_tree2_sapling_05_8_2_2.blend'
# www.blender.org
o leaves.120
v -0.000717 -0.263610 1.251264
v -0.021516 -0.266251 1.276890
v -0.028788 -0.224726 1.314624
v 0.001367 -0.235047 1.267877
v -0.007990 -0.222085 1.288997
v -0.030872 -0.253290 1.298010
vt 0.500000 0.000000
vt 0.250000 0.333333
vt 0.250000 0.666667
vt 0.500000 1.000000
vt 0.750000 0.666667
vt 0.750000 0.333333
vn -0.7372 0.3791 -0.5593
s off
mtllib leafwood.mtl
usemtl Leaves
f 1/1/1 2/2/1 6/3/1 3/4/1
f 1/1/1 3/4/1 5/5/1 4/6/1
