# Blender v3.4.0 OBJ File: 'apple_tree2_sapling_05_8_2_2.blend'
# www.blender.org
o leaves.013
v 0.338223 -0.092433 0.725463
v 0.349447 -0.119371 0.741371
v 0.404558 -0.127679 0.752308
v 0.371222 -0.088991 0.727451
v 0.393333 -0.100740 0.736400
v 0.371559 -0.131120 0.750319
vt 0.500000 0.000000
vt 0.250000 0.333333
vt 0.250000 0.666667
vt 0.500000 1.000000
vt 0.750000 0.666667
vt 0.750000 0.333333
vn -0.1021 0.4739 0.8746
s off
mtllib leafwood.mtl
usemtl Leaves
f 1/1/1 2/2/1 6/3/1 3/4/1
f 1/1/1 3/4/1 5/5/1 4/6/1
