# Blender v3.4.0 OBJ File: 'apple_tree2_sapling_05_8_2_2.blend'
# www.blender.org
o leaves.172
v -0.243072 -0.179924 1.382926
v -0.278141 -0.170754 1.371555
v -0.330242 -0.178041 1.409591
v -0.266116 -0.187839 1.412074
v -0.295172 -0.187212 1.420962
v -0.307198 -0.170126 1.380443
vt 0.500000 0.000000
vt 0.250000 0.333333
vt 0.250000 0.666667
vt 0.500000 1.000000
vt 0.750000 0.666667
vt 0.750000 0.333333
vn 0.1280 0.9269 0.3529
s off
mtllib leafwood.mtl
usemtl Leaves
f 1/1/1 2/2/1 6/3/1 3/4/1
f 1/1/1 3/4/1 5/5/1 4/6/1
