# Blender v3.4.0 OBJ File: 'apple_tree2_sapling_05_8_2_2.blend'
# www.blender.org
o leaves.215
v -0.057521 -0.235701 1.756208
v -0.026335 -0.310075 1.774781
v -0.051150 -0.266982 1.743170
v -0.043101 -0.254003 1.781628
v -0.032706 -0.278794 1.787819
v -0.040755 -0.291773 1.749361
vt 0.500000 0.000000
vt 0.500000 1.000000
vt 0.750000 0.666667
vt 0.750000 0.333333
vt 0.250000 0.333333
vt 0.250000 0.666667
vn 0.9056 0.3066 -0.2930
s off
mtllib leafwood.mtl
usemtl Leaves
f 1/1/1 2/2/1 6/3/1 3/4/1
f 1/1/1 4/5/1 5/6/1 2/2/1
