# Blender v3.4.0 OBJ File: 'apple_tree2_sapling_05_8_2_2.blend'
# www.blender.org
o leaves.242
v 0.112434 0.189737 2.020713
v 0.192931 0.202684 2.031365
v 0.136331 0.214259 2.021887
v 0.142202 0.173847 2.026640
v 0.169034 0.178163 2.030191
v 0.163163 0.218575 2.025437
vt 0.500000 0.000000
vt 0.500000 1.000000
vt 0.750000 0.666667
vt 0.750000 0.333333
vt 0.250000 0.333333
vt 0.250000 0.666667
vn -0.1455 0.0947 0.9848
s off
mtllib leafwood.mtl
usemtl Leaves
f 1/1/1 2/2/1 6/3/1 3/4/1
f 1/1/1 4/5/1 5/6/1 2/2/1
