# Blender v3.4.0 OBJ File: 'apple_tree2_sapling_05_8_2_2.blend'
# www.blender.org
o leaves.092
v 0.278548 0.330536 0.910392
v 0.286966 0.356393 0.898038
v 0.335961 0.369735 0.892919
v 0.308406 0.330812 0.911097
v 0.327543 0.343879 0.905273
v 0.306104 0.369459 0.892214
vt 0.500000 0.000000
vt 0.500000 1.000000
vt 0.750000 0.666667
vt 0.750000 0.333333
vt 0.250000 0.333333
vt 0.250000 0.666667
vn -0.0253 0.4376 0.8988
s off
mtllib leafwood.mtl
usemtl Leaves
f 1/1/1 3/2/1 6/3/1 2/4/1
f 1/1/1 4/5/1 5/6/1 3/2/1
