# Blender v3.4.0 OBJ File: 'apple_tree2_sapling_05_8_2_2.blend'
# www.blender.org
o leaves.124
v -0.218679 -0.178636 1.120239
v -0.310806 -0.165803 1.104382
v -0.247133 -0.184399 1.093727
v -0.251643 -0.164318 1.136180
v -0.282352 -0.160040 1.130894
v -0.277842 -0.180122 1.088441
vt 0.500000 0.000000
vt 0.500000 1.000000
vt 0.750000 0.666667
vt 0.750000 0.333333
vt 0.250000 0.333333
vt 0.250000 0.666667
vn 0.1939 0.8946 -0.4026
s off
mtllib leafwood.mtl
usemtl Leaves
f 1/1/1 2/2/1 5/3/1 4/4/1
f 1/1/1 3/5/1 6/6/1 2/2/1
