# Blender v3.4.0 OBJ File: 'apple_tree2_sapling_05_8_2_2.blend'
# www.blender.org
o leaves.128
v -0.054560 -0.304541 1.209140
v -0.068063 -0.309676 1.243399
v -0.052373 -0.359765 1.279199
v -0.039599 -0.336222 1.221586
v -0.038870 -0.354630 1.244939
v -0.067334 -0.328084 1.266752
vt 0.500000 0.000000
vt 0.250000 0.333333
vt 0.250000 0.666667
vt 0.500000 1.000000
vt 0.750000 0.666667
vt 0.750000 0.333333
vn 0.7697 0.5128 0.3802
vn 0.7697 0.5129 0.3802
s off
mtllib leafwood.mtl
usemtl Leaves
f 1/1/1 2/2/1 6/3/1 3/4/1
f 1/1/2 3/4/2 5/5/2 4/6/2
