# Blender v3.4.0 OBJ File: 'apple_tree2_sapling_05_8_2_2.blend'
# www.blender.org
o leaves.066
v -0.233845 -0.065740 0.893234
v -0.259954 -0.038359 0.893270
v -0.310383 -0.038299 0.852816
v -0.258761 -0.074826 0.866253
v -0.284274 -0.065679 0.852780
v -0.285467 -0.029212 0.879797
vt 0.500000 0.000000
vt 0.250000 0.333333
vt 0.250000 0.666667
vt 0.500000 1.000000
vt 0.750000 0.666667
vt 0.750000 0.333333
vn -0.5374 -0.5133 0.6691
s off
mtllib leafwood.mtl
usemtl Leaves
f 1/1/1 2/2/1 6/3/1 3/4/1
f 1/1/1 3/4/1 5/5/1 4/6/1
