# Blender v3.4.0 OBJ File: 'apple_tree2_sapling_05_8_2_2.blend'
# www.blender.org
o leaves.167
v -0.144352 -0.102068 1.381319
v -0.191578 -0.079992 1.383170
v -0.239249 -0.074877 1.458314
v -0.160391 -0.106016 1.430798
v -0.192023 -0.096953 1.456463
v -0.223210 -0.070929 1.408835
vt 0.500000 0.000000
vt 0.250000 0.333333
vt 0.250000 0.666667
vt 0.500000 1.000000
vt 0.750000 0.666667
vt 0.750000 0.333333
vn 0.4209 0.8832 0.2069
s off
mtllib leafwood.mtl
usemtl Leaves
f 1/1/1 2/2/1 6/3/1 3/4/1
f 1/1/1 3/4/1 5/5/1 4/6/1
