# Blender v3.4.0 OBJ File: 'apple_tree2_sapling_05_8_2_2.blend'
# www.blender.org
o leaves.024
v -0.001023 0.288910 0.788570
v -0.018524 0.256005 0.790374
v 0.010917 0.202409 0.808434
v 0.024439 0.264148 0.800008
v 0.028419 0.235314 0.806629
v -0.014544 0.227171 0.796995
vt 0.500000 0.000000
vt 0.250000 0.333333
vt 0.250000 0.666667
vt 0.500000 1.000000
vt 0.750000 0.666667
vt 0.750000 0.333333
vn -0.2482 0.1841 0.9511
s off
mtllib leafwood.mtl
usemtl Leaves
f 1/1/1 2/2/1 6/3/1 3/4/1
f 1/1/1 3/4/1 5/5/1 4/6/1
