# Blender v3.4.0 OBJ File: 'apple_tree2_sapling_05_8_2_2.blend'
# www.blender.org
o leaves.201
v -0.187287 0.163786 1.613604
v -0.214011 0.176842 1.588215
v -0.229740 0.241547 1.582633
v -0.188866 0.202570 1.618346
v -0.203017 0.228491 1.608022
v -0.228161 0.202763 1.577891
vt 0.500000 0.000000
vt 0.250000 0.333333
vt 0.250000 0.666667
vt 0.500000 1.000000
vt 0.750000 0.666667
vt 0.750000 0.333333
vn 0.7129 0.1136 -0.6920
s off
mtllib leafwood.mtl
usemtl Leaves
f 1/1/1 2/2/1 6/3/1 3/4/1
f 1/1/1 3/4/1 5/5/1 4/6/1
