# Blender v3.4.0 OBJ File: 'apple_tree2_sapling_05_8_2_2.blend'
# www.blender.org
o leaves.210
v 0.272186 -0.133522 1.666479
v 0.295458 -0.158636 1.683997
v 0.353870 -0.175908 1.659321
v 0.303370 -0.136666 1.644189
v 0.330598 -0.150794 1.641803
v 0.322686 -0.172765 1.681611
vt 0.500000 0.000000
vt 0.250000 0.333333
vt 0.250000 0.666667
vt 0.500000 1.000000
vt 0.750000 0.666667
vt 0.750000 0.333333
vn 0.4330 0.7500 0.5000
s off
mtllib leafwood.mtl
usemtl Leaves
f 1/1/1 2/2/1 6/3/1 3/4/1
f 1/1/1 3/4/1 5/5/1 4/6/1
