# Blender v3.4.0 OBJ File: 'apple_tree2_sapling_05_8_2_2.blend'
# www.blender.org
o leaves.051
v 0.194219 0.084549 0.865756
v 0.197732 0.081486 0.911245
v 0.263867 0.097808 0.949525
v 0.237137 0.096451 0.876113
v 0.260354 0.100871 0.904036
v 0.220948 0.085906 0.939168
vt 0.500000 0.000000
vt 0.250000 0.333333
vt 0.250000 0.666667
vt 0.500000 1.000000
vt 0.750000 0.666667
vt 0.750000 0.333333
vn -0.2855 0.9545 0.0863
s off
mtllib leafwood.mtl
usemtl Leaves
f 1/1/1 2/2/1 6/3/1 3/4/1
f 1/1/1 3/4/1 5/5/1 4/6/1
