# Blender v3.4.0 OBJ File: 'apple_tree2_sapling_05_8_2_2.blend'
# www.blender.org
o leaves.041
v 0.035198 0.033236 0.804439
v 0.088319 0.023382 0.828476
v 0.123408 0.076875 0.906692
v 0.040884 0.072182 0.848570
v 0.070287 0.086728 0.882655
v 0.117722 0.037929 0.862561
vt 0.500000 0.000000
vt 0.250000 0.333333
vt 0.250000 0.666667
vt 0.500000 1.000000
vt 0.750000 0.666667
vt 0.750000 0.333333
vn -0.4084 -0.6576 0.6330
s off
mtllib leafwood.mtl
usemtl Leaves
f 1/1/1 2/2/1 6/3/1 3/4/1
f 1/1/1 3/4/1 5/5/1 4/6/1
