# Blender v3.4.0 OBJ File: 'apple_tree2_sapling_05_8_2_2.blend'
# www.blender.org
o leaves.070
v -0.267202 -0.039521 0.947511
v -0.296053 -0.017420 0.944372
v -0.352893 -0.038323 0.929607
v -0.295478 -0.060824 0.938714
v -0.324042 -0.060424 0.932746
v -0.324617 -0.017020 0.938404
vt 0.500000 0.000000
vt 0.250000 0.333333
vt 0.250000 0.666667
vt 0.500000 1.000000
vt 0.750000 0.666667
vt 0.750000 0.333333
vn -0.2045 -0.1292 0.9703
s off
mtllib leafwood.mtl
usemtl Leaves
f 1/1/1 2/2/1 6/3/1 3/4/1
f 1/1/1 3/4/1 5/5/1 4/6/1
