# Blender v3.4.0 OBJ File: 'apple_tree2_sapling_05_8_2_2.blend'
# www.blender.org
o leaves.143
v -0.020103 0.334402 1.325192
v 0.009109 0.343158 1.336052
v 0.020715 0.394865 1.351918
v -0.022103 0.365954 1.332150
v -0.008497 0.386108 1.341059
v 0.022715 0.363313 1.344961
vt 0.500000 0.000000
vt 0.250000 0.333333
vt 0.250000 0.666667
vt 0.500000 1.000000
vt 0.750000 0.666667
vt 0.750000 0.333333
vn -0.2800 -0.2236 0.9336
s off
mtllib leafwood.mtl
usemtl Leaves
f 1/1/1 2/2/1 6/3/1 3/4/1
f 1/1/1 3/4/1 5/5/1 4/6/1
