# Blender v3.4.0 OBJ File: 'apple_tree2_sapling_05_8_2_2.blend'
# www.blender.org
o leaves.125
v -0.257767 -0.223472 1.114915
v -0.241793 -0.250462 1.133941
v -0.202853 -0.291889 1.107547
v -0.237132 -0.242094 1.090977
v -0.218827 -0.264899 1.088521
v -0.223488 -0.273268 1.131485
vt 0.500000 0.000000
vt 0.250000 0.333333
vt 0.250000 0.666667
vt 0.500000 1.000000
vt 0.750000 0.666667
vt 0.750000 0.333333
vn 0.7744 0.5999 0.2009
s off
mtllib leafwood.mtl
usemtl Leaves
f 1/1/1 2/2/1 6/3/1 3/4/1
f 1/1/1 3/4/1 5/5/1 4/6/1
