# Blender v3.4.0 OBJ File: 'apple_tree2_sapling_05_8_2_2.blend'
# www.blender.org
o leaves.153
v -0.202155 0.110778 1.290877
v -0.204623 0.150166 1.292749
v -0.263594 0.182713 1.297384
v -0.240646 0.119346 1.293343
v -0.261126 0.143324 1.295512
v -0.225103 0.174145 1.294918
vt 0.500000 0.000000
vt 0.250000 0.333333
vt 0.250000 0.666667
vt 0.500000 1.000000
vt 0.750000 0.666667
vt 0.750000 0.333333
vn 0.0541 -0.0440 0.9976
s off
mtllib leafwood.mtl
usemtl Leaves
f 1/1/1 2/2/1 6/3/1 3/4/1
f 1/1/1 3/4/1 5/5/1 4/6/1
