# Blender v3.4.0 OBJ File: 'apple_tree2_sapling_05_8_2_2.blend'
# www.blender.org
o leaves.260
v 0.102940 0.245312 2.260596
v 0.138995 0.248071 2.274874
v 0.181446 0.295520 2.255899
v 0.119221 0.276025 2.243187
v 0.145390 0.292761 2.241621
v 0.165164 0.264807 2.273308
vt 0.500000 0.000000
vt 0.500000 1.000000
vt 0.750000 0.666667
vt 0.750000 0.333333
vt 0.250000 0.333333
vt 0.250000 0.666667
vn 0.3353 -0.5928 -0.7322
s off
mtllib leafwood.mtl
usemtl Leaves
f 1/1/1 3/2/1 6/3/1 2/4/1
f 1/1/1 4/5/1 5/6/1 3/2/1
