# Blender v3.4.0 OBJ File: 'apple_tree2_sapling_05_8_2_2.blend'
# www.blender.org
o leaves.076
v 0.109996 -0.068958 0.919643
v 0.160247 -0.094376 0.923260
v 0.242814 -0.045238 0.931386
v 0.148291 -0.027727 0.923854
v 0.192564 -0.019821 0.927769
v 0.204519 -0.086469 0.927175
vt 0.500000 0.000000
vt 0.250000 0.333333
vt 0.250000 0.666667
vt 0.500000 1.000000
vt 0.750000 0.666667
vt 0.750000 0.333333
vn -0.0838 -0.0239 0.9962
s off
mtllib leafwood.mtl
usemtl Leaves
f 1/1/1 2/2/1 6/3/1 3/4/1
f 1/1/1 3/4/1 5/5/1 4/6/1
