# Blender v3.4.0 OBJ File: 'apple_tree2_sapling_05_8_2_2.blend'
# www.blender.org
o leaves.001
v 0.093411 0.045294 0.715473
v 0.082941 0.010861 0.758182
v 0.136161 -0.066275 0.776234
v 0.132381 0.005347 0.713271
v 0.146631 -0.031842 0.733525
v 0.097190 -0.026329 0.778436
vt 0.500000 0.000000
vt 0.250000 0.333333
vt 0.250000 0.666667
vt 0.500000 1.000000
vt 0.750000 0.666667
vt 0.750000 0.333333
vn 0.5951 0.5481 0.5878
s off
mtllib leafwood.mtl
usemtl Leaves
f 1/1/1 2/2/1 6/3/1 3/4/1
f 1/1/1 3/4/1 5/5/1 4/6/1
