# Blender v3.4.0 OBJ File: 'apple_tree2_sapling_05_8_2_2.blend'
# www.blender.org
o leaves.270
v -0.182870 0.188248 2.507396
v -0.167280 0.209901 2.498340
v -0.172229 0.200488 2.530435
v -0.143524 0.239087 2.528372
v -0.154165 0.226847 2.505332
v -0.159114 0.217434 2.537427
vt 0.500000 0.000000
vt 0.250000 0.333333
vt 0.250000 0.666667
vt 0.500000 1.000000
vt 0.750000 0.666667
vt 0.750000 0.333333
vn 0.8000 -0.5977 -0.0519
s off
mtllib leafwood.mtl
usemtl Leaves
f 1/1/1 2/2/1 5/3/1 4/4/1
f 1/1/1 4/4/1 6/5/1 3/6/1
