# Blender v3.4.0 OBJ File: 'apple_tree2_sapling_05_8_2_2.blend'
# www.blender.org
o leaves.218
v 0.061431 -0.226945 1.819648
v 0.050803 -0.264434 1.820866
v 0.092563 -0.314064 1.805666
v 0.092813 -0.247535 1.809109
v 0.103190 -0.276575 1.804449
v 0.061180 -0.293474 1.816205
vt 0.500000 0.000000
vt 0.250000 0.333333
vt 0.250000 0.666667
vt 0.500000 1.000000
vt 0.750000 0.666667
vt 0.750000 0.333333
vn 0.2880 -0.0506 0.9563
s off
mtllib leafwood.mtl
usemtl Leaves
f 1/1/1 2/2/1 6/3/1 3/4/1
f 1/1/1 3/4/1 5/5/1 4/6/1
