# Blender v3.4.0 OBJ File: 'apple_tree2_sapling_05_8_2_2.blend'
# www.blender.org
o leaves.254
v -0.000925 -0.248855 2.014783
v -0.024070 -0.253121 2.042568
v -0.027415 -0.305742 2.075606
v 0.004560 -0.282514 2.027546
v -0.004270 -0.301476 2.047820
v -0.032900 -0.272083 2.062843
vt 0.500000 0.000000
vt 0.250000 0.333333
vt 0.250000 0.666667
vt 0.500000 1.000000
vt 0.750000 0.666667
vt 0.750000 0.333333
vn 0.6920 0.3518 0.6304
s off
mtllib leafwood.mtl
usemtl Leaves
f 1/1/1 2/2/1 6/3/1 3/4/1
f 1/1/1 3/4/1 5/5/1 4/6/1
