# Blender v3.4.0 OBJ File: 'apple_tree2_sapling_05_8_2_2.blend'
# www.blender.org
o leaves.169
v -0.186958 -0.127134 1.392586
v -0.214401 -0.129809 1.425398
v -0.227833 -0.192641 1.460544
v -0.186766 -0.168130 1.405080
v -0.200391 -0.189966 1.427733
v -0.228026 -0.151645 1.448050
vt 0.500000 0.000000
vt 0.250000 0.333333
vt 0.250000 0.666667
vt 0.500000 1.000000
vt 0.750000 0.666667
vt 0.750000 0.333333
vn 0.7439 0.1980 0.6383
s off
mtllib leafwood.mtl
usemtl Leaves
f 1/1/1 2/2/1 6/3/1 3/4/1
f 1/1/1 3/4/1 5/5/1 4/6/1
