# Blender v3.4.0 OBJ File: 'apple_tree2_sapling_05_8_2_2.blend'
# www.blender.org
o leaves.236
v -0.061314 0.162839 1.906346
v -0.102425 0.149273 1.893981
v -0.086640 0.199983 1.903894
v -0.160969 0.198206 1.884119
v -0.135643 0.161062 1.886572
v -0.119858 0.211772 1.896485
vt 0.500000 0.000000
vt 0.500000 1.000000
vt 0.750000 0.666667
vt 0.750000 0.333333
vt 0.250000 0.333333
vt 0.250000 0.666667
vn -0.2531 -0.1091 0.9613
s off
mtllib leafwood.mtl
usemtl Leaves
f 1/1/1 4/2/1 5/3/1 2/4/1
f 1/1/1 3/5/1 6/6/1 4/2/1
