# Blender v3.4.0 OBJ File: 'apple_tree2_sapling_05_8_2_2.blend'
# www.blender.org
o leaves.252
v 0.017757 -0.251013 2.004746
v 0.041235 -0.281537 2.008585
v -0.003350 -0.282135 1.995603
v 0.021314 -0.343483 1.996791
v 0.042420 -0.312361 2.005934
v -0.002164 -0.312958 1.992951
vt 0.500000 0.000000
vt 0.500000 1.000000
vt 0.750000 0.666667
vt 0.750000 0.333333
vt 0.250000 0.333333
vt 0.250000 0.666667
vn -0.2772 -0.0929 0.9563
s off
mtllib leafwood.mtl
usemtl Leaves
f 1/1/1 4/2/1 5/3/1 2/4/1
f 1/1/1 3/5/1 6/6/1 4/2/1
