# Blender v3.4.0 OBJ File: 'apple_tree2_sapling_05_8_2_2.blend'
# www.blender.org
o leaves.101
v -0.052280 -0.005963 1.035024
v -0.007996 0.026109 1.006024
v -0.029371 0.098708 0.932144
v -0.081292 0.031745 0.995437
v -0.073656 0.066636 0.961144
v -0.000359 0.060999 0.971731
vt 0.500000 0.000000
vt 0.250000 0.333333
vt 0.250000 0.666667
vt 0.500000 1.000000
vt 0.750000 0.666667
vt 0.750000 0.333333
vn -0.0479 0.7055 0.7071
s off
mtllib leafwood.mtl
usemtl Leaves
f 1/1/1 2/2/1 6/3/1 3/4/1
f 1/1/1 3/4/1 5/5/1 4/6/1
