# Blender v3.4.0 OBJ File: 'apple_tree2_sapling_05_8_2_2.blend'
# www.blender.org
o leaves.228
v 0.170823 0.117685 1.946150
v 0.155339 0.131733 1.970711
v 0.172922 0.178475 1.994031
v 0.187707 0.144164 1.953510
v 0.188406 0.164427 1.969470
v 0.156039 0.151996 1.986671
vt 0.500000 0.000000
vt 0.250000 0.333333
vt 0.250000 0.666667
vt 0.500000 1.000000
vt 0.750000 0.666667
vt 0.750000 0.333333
vn -0.5477 0.5293 -0.6480
vn -0.5476 0.5293 -0.6480
s off
mtllib leafwood.mtl
usemtl Leaves
f 1/1/1 2/2/1 6/3/1 3/4/1
f 1/1/2 3/4/2 5/5/2 4/6/2
