# Blender v3.4.0 OBJ File: 'apple_tree2_sapling_05_8_2_2.blend'
# www.blender.org
o leaves.193
v -0.022043 0.023150 1.547772
v -0.044544 0.078725 1.548207
v 0.024471 0.060156 1.539894
v 0.013977 0.162022 1.536608
v -0.032537 0.125016 1.544486
v 0.036477 0.106447 1.536173
vt 0.500000 0.000000
vt 0.500000 1.000000
vt 0.750000 0.666667
vt 0.750000 0.333333
vt 0.250000 0.333333
vt 0.250000 0.666667
vn 0.1315 0.0455 0.9903
s off
mtllib leafwood.mtl
usemtl Leaves
f 1/1/1 4/2/1 5/3/1 2/4/1
f 1/1/1 3/5/1 6/6/1 4/2/1
