# Blender v3.4.0 OBJ File: 'apple_tree2_sapling_05_8_2_2.blend'
# www.blender.org
o leaves.136
v 0.203590 0.155681 1.151598
v 0.291038 0.179212 1.183351
v 0.232727 0.144267 1.176490
v 0.232752 0.182783 1.147875
v 0.261902 0.190626 1.158460
v 0.261876 0.152110 1.187074
vt 0.500000 0.000000
vt 0.500000 1.000000
vt 0.750000 0.666667
vt 0.750000 0.333333
vt 0.250000 0.333333
vt 0.250000 0.666667
vn -0.4118 0.5436 0.7314
s off
mtllib leafwood.mtl
usemtl Leaves
f 1/1/1 2/2/1 5/3/1 4/4/1
f 1/1/1 3/5/1 6/6/1 2/2/1
