# Blender v3.4.0 OBJ File: 'apple_tree2_sapling_05_8_2_2.blend'
# www.blender.org
o leaves.005
v 0.193453 0.203487 0.780636
v 0.190594 0.196570 0.816993
v 0.168200 0.239257 0.858219
v 0.179477 0.234251 0.796001
v 0.171059 0.246174 0.821862
v 0.182176 0.208493 0.842854
vt 0.500000 0.000000
vt 0.250000 0.333333
vt 0.250000 0.666667
vt 0.500000 1.000000
vt 0.750000 0.666667
vt 0.750000 0.333333
vn -0.9259 -0.3509 -0.1396
s off
mtllib leafwood.mtl
usemtl Leaves
f 1/1/1 2/2/1 6/3/1 3/4/1
f 1/1/1 3/4/1 5/5/1 4/6/1
