# Blender v3.4.0 OBJ File: 'apple_tree2_sapling_05_8_2_2.blend'
# www.blender.org
o leaves.131
v -0.309294 -0.187118 1.071509
v -0.314574 -0.158480 1.074278
v -0.360782 -0.139938 1.078694
v -0.338340 -0.184302 1.073530
v -0.355502 -0.168576 1.075925
v -0.331737 -0.142754 1.076673
vt 0.500000 0.000000
vt 0.250000 0.333333
vt 0.250000 0.666667
vt 0.500000 1.000000
vt 0.750000 0.666667
vt 0.750000 0.333333
vn 0.0610 -0.0849 0.9945
s off
mtllib leafwood.mtl
usemtl Leaves
f 1/1/1 2/2/1 6/3/1 3/4/1
f 1/1/1 3/4/1 5/5/1 4/6/1
