# Blender v3.4.0 OBJ File: 'apple_tree2_sapling_05_8_2_2.blend'
# www.blender.org
o leaves.033
v -0.017641 -0.188102 0.772031
v -0.033869 -0.217218 0.794345
v 0.002707 -0.254296 0.838905
v 0.012153 -0.203116 0.794300
v 0.018936 -0.225181 0.816591
v -0.027087 -0.239282 0.816636
vt 0.500000 0.000000
vt 0.250000 0.333333
vt 0.250000 0.666667
vt 0.500000 1.000000
vt 0.750000 0.666667
vt 0.750000 0.333333
vn -0.2029 0.6644 0.7193
s off
mtllib leafwood.mtl
usemtl Leaves
f 1/1/1 2/2/1 6/3/1 3/4/1
f 1/1/1 3/4/1 5/5/1 4/6/1
