# Blender v3.4.0 OBJ File: 'apple_tree2_sapling_05_8_2_2.blend'
# www.blender.org
o leaves.269
v 0.084669 0.027577 2.599958
v 0.074033 -0.002259 2.592720
v 0.107775 -0.046295 2.590475
v 0.110708 0.008165 2.600874
v 0.118410 -0.016459 2.597713
v 0.081735 -0.026883 2.589559
vt 0.500000 0.000000
vt 0.250000 0.333333
vt 0.250000 0.666667
vt 0.500000 1.000000
vt 0.750000 0.666667
vt 0.750000 0.333333
vn -0.1656 -0.1764 0.9703
s off
mtllib leafwood.mtl
usemtl Leaves
f 1/1/1 2/2/1 6/3/1 3/4/1
f 1/1/1 3/4/1 5/5/1 4/6/1
