# Blender v3.4.0 OBJ File: 'apple_tree2_sapling_05_8_2_2.blend'
# www.blender.org
o leaves.019
v -0.056355 0.256557 0.762363
v -0.031873 0.226376 0.776492
v 0.037090 0.235866 0.788609
v -0.018539 0.272944 0.765731
v 0.012609 0.266047 0.774479
v -0.000725 0.219479 0.785241
vt 0.500000 0.000000
vt 0.250000 0.333333
vt 0.250000 0.666667
vt 0.500000 1.000000
vt 0.750000 0.666667
vt 0.750000 0.333333
vn -0.2030 0.2753 0.9397
s off
mtllib leafwood.mtl
usemtl Leaves
f 1/1/1 2/2/1 6/3/1 3/4/1
f 1/1/1 3/4/1 5/5/1 4/6/1
