# Blender v3.4.0 OBJ File: 'apple_tree2_sapling_05_8_2_2.blend'
# www.blender.org
o leaves.031
v -0.014061 -0.134253 0.769249
v -0.051813 -0.159198 0.793438
v -0.036773 -0.215681 0.858789
v 0.008550 -0.163593 0.804753
v 0.000979 -0.190736 0.834599
v -0.059384 -0.186341 0.823285
vt 0.500000 0.000000
vt 0.250000 0.333333
vt 0.250000 0.666667
vt 0.500000 1.000000
vt 0.750000 0.666667
vt 0.750000 0.333333
vn -0.0696 0.7468 0.6614
s off
mtllib leafwood.mtl
usemtl Leaves
f 1/1/1 2/2/1 6/3/1 3/4/1
f 1/1/1 3/4/1 5/5/1 4/6/1
