# Blender v3.4.0 OBJ File: 'apple_tree2_sapling_05_8_2_2.blend'
# www.blender.org
o leaves.243
v 0.138343 0.240855 1.993502
v 0.130839 0.302245 1.945978
v 0.128072 0.271663 1.992250
v 0.143611 0.250974 1.963071
v 0.141109 0.271437 1.947230
v 0.125571 0.292126 1.976409
vt 0.500000 0.000000
vt 0.500000 1.000000
vt 0.750000 0.666667
vt 0.750000 0.333333
vt 0.250000 0.333333
vt 0.250000 0.666667
vn -0.9121 -0.3148 -0.2626
s off
mtllib leafwood.mtl
usemtl Leaves
f 1/1/1 2/2/1 5/3/1 4/4/1
f 1/1/1 3/5/1 6/6/1 2/2/1
