# Blender v3.4.0 OBJ File: 'apple_tree2_sapling_05_8_2_2.blend'
# www.blender.org
o leaves.271
v 0.171829 -0.028257 2.539831
v 0.204209 0.044564 2.535334
v 0.165753 0.003021 2.530293
v 0.199491 -0.010988 2.546370
v 0.210284 0.013286 2.544871
v 0.176547 0.027295 2.528794
vt 0.500000 0.000000
vt 0.500000 1.000000
vt 0.750000 0.666667
vt 0.750000 0.333333
vt 0.250000 0.333333
vt 0.250000 0.666667
vn -0.3477 0.2110 0.9135
s off
mtllib leafwood.mtl
usemtl Leaves
f 1/1/1 2/2/1 6/3/1 3/4/1
f 1/1/1 4/5/1 5/6/1 2/2/1
