# Blender v3.4.0 OBJ File: 'apple_tree2_sapling_05_8_2_2.blend'
# www.blender.org
o leaves.226
v 0.070089 0.071167 1.788864
v 0.120304 0.040385 1.787816
v 0.210854 0.084332 1.789400
v 0.113716 0.110725 1.790269
v 0.160638 0.115114 1.790447
v 0.167226 0.044774 1.787995
vt 0.500000 0.000000
vt 0.250000 0.333333
vt 0.250000 0.666667
vt 0.500000 1.000000
vt 0.750000 0.666667
vt 0.750000 0.333333
vn -0.0005 -0.0349 0.9994
s off
mtllib leafwood.mtl
usemtl Leaves
f 1/1/1 2/2/1 6/3/1 3/4/1
f 1/1/1 3/4/1 5/5/1 4/6/1
