# Blender v3.4.0 OBJ File: 'apple_tree2_sapling_05_8_2_2.blend'
# www.blender.org
o leaves.099
v 0.282250 -0.015029 1.065320
v 0.302644 -0.049007 1.065625
v 0.370326 -0.050898 1.066799
v 0.320574 -0.004963 1.066002
v 0.349933 -0.016919 1.066495
v 0.332002 -0.060963 1.066118
vt 0.500000 0.000000
vt 0.250000 0.333333
vt 0.250000 0.666667
vt 0.500000 1.000000
vt 0.750000 0.666667
vt 0.750000 0.333333
vn -0.0174 -0.0015 0.9998
s off
mtllib leafwood.mtl
usemtl Leaves
f 1/1/1 2/2/1 6/3/1 3/4/1
f 1/1/1 3/4/1 5/5/1 4/6/1
