# Blender v3.4.0 OBJ File: 'apple_tree2_sapling_05_8_2_2.blend'
# www.blender.org
o leaves.117
v -0.065578 -0.160629 1.130619
v -0.021268 -0.161333 1.158345
v 0.044221 -0.220079 1.142869
v -0.036690 -0.199559 1.111059
v -0.000090 -0.219375 1.115142
v 0.015332 -0.181149 1.162429
vt 0.500000 0.000000
vt 0.250000 0.333333
vt 0.250000 0.666667
vt 0.500000 1.000000
vt 0.750000 0.666667
vt 0.750000 0.333333
vn 0.4167 0.6357 -0.6498
s off
mtllib leafwood.mtl
usemtl Leaves
f 1/1/1 2/2/1 6/3/1 3/4/1
f 1/1/1 3/4/1 5/5/1 4/6/1
