# Blender v3.4.0 OBJ File: 'apple_tree2_sapling_05_8_2_2.blend'
# www.blender.org
o leaves.190
v 0.253596 0.125186 1.674000
v 0.261954 0.097906 1.684996
v 0.251535 0.082916 1.733955
v 0.243864 0.124287 1.702974
v 0.243177 0.110196 1.722959
v 0.261267 0.083816 1.704981
vt 0.500000 0.000000
vt 0.250000 0.333333
vt 0.250000 0.666667
vt 0.500000 1.000000
vt 0.750000 0.666667
vt 0.750000 0.333333
vn -0.8696 -0.3890 -0.3042
s off
mtllib leafwood.mtl
usemtl Leaves
f 1/1/1 2/2/1 6/3/1 3/4/1
f 1/1/1 3/4/1 5/5/1 4/6/1
