# Blender v3.4.0 OBJ File: 'apple_tree2_sapling_05_8_2_2.blend'
# www.blender.org
o leaves.163
v -0.063999 -0.038015 1.363861
v -0.090868 -0.065473 1.328283
v -0.053568 -0.096338 1.253039
v -0.030176 -0.049439 1.325557
v -0.026699 -0.068880 1.288617
v -0.087391 -0.084913 1.291342
vt 0.500000 0.000000
vt 0.250000 0.333333
vt 0.250000 0.666667
vt 0.500000 1.000000
vt 0.750000 0.666667
vt 0.750000 0.333333
vn 0.2452 -0.8482 0.4695
s off
mtllib leafwood.mtl
usemtl Leaves
f 1/1/1 2/2/1 6/3/1 3/4/1
f 1/1/1 3/4/1 5/5/1 4/6/1
