# Blender v3.4.0 OBJ File: 'apple_tree2_sapling_05_8_2_2.blend'
# www.blender.org
o leaves.083
v 0.255181 -0.166875 0.975049
v 0.219268 -0.159167 0.986050
v 0.166915 -0.184224 0.955649
v 0.232250 -0.186149 0.951114
v 0.202828 -0.191932 0.944647
v 0.189846 -0.164950 0.979584
vt 0.500000 0.000000
vt 0.250000 0.333333
vt 0.250000 0.666667
vt 0.500000 1.000000
vt 0.750000 0.666667
vt 0.750000 0.333333
vn 0.0195 -0.7878 0.6157
s off
mtllib leafwood.mtl
usemtl Leaves
f 1/1/1 2/2/1 6/3/1 3/4/1
f 1/1/1 3/4/1 5/5/1 4/6/1
