# Blender v3.4.0 OBJ File: 'apple_tree2_sapling_05_8_2_2.blend'
# www.blender.org
o leaves.256
v 0.006912 0.059095 2.120981
v -0.003253 0.076009 2.172803
v -0.033701 0.163466 2.192876
v -0.009999 0.111762 2.117089
v -0.023536 0.146553 2.141053
v -0.016791 0.110799 2.196768
vt 0.500000 0.000000
vt 0.250000 0.333333
vt 0.250000 0.666667
vt 0.500000 1.000000
vt 0.750000 0.666667
vt 0.750000 0.333333
vn -0.9469 -0.3103 -0.0845
s off
mtllib leafwood.mtl
usemtl Leaves
f 1/1/1 2/2/1 6/3/1 3/4/1
f 1/1/1 3/4/1 5/5/1 4/6/1
