# Blender v3.4.0 OBJ File: 'apple_tree2_sapling_05_8_2_2.blend'
# www.blender.org
o leaves.148
v -0.101716 0.040726 1.283354
v -0.226829 0.041652 1.300572
v -0.143320 0.009554 1.291516
v -0.143520 0.072515 1.286671
v -0.185225 0.072824 1.292410
v -0.185025 0.009863 1.297255
vt 0.500000 0.000000
vt 0.500000 1.000000
vt 0.750000 0.666667
vt 0.750000 0.333333
vt 0.250000 0.333333
vt 0.250000 0.666667
vn 0.1365 0.0764 0.9877
s off
mtllib leafwood.mtl
usemtl Leaves
f 1/1/1 2/2/1 6/3/1 3/4/1
f 1/1/1 4/5/1 5/6/1 2/2/1
