# Blender v3.4.0 OBJ File: 'apple_tree2_sapling_05_8_2_2.blend'
# www.blender.org
o leaves.205
v -0.247847 0.249323 1.636369
v -0.236033 0.277913 1.640693
v -0.262669 0.316444 1.666282
v -0.269542 0.265481 1.651987
v -0.274483 0.287854 1.661958
v -0.240974 0.300287 1.650664
vt 0.500000 0.000000
vt 0.250000 0.333333
vt 0.250000 0.666667
vt 0.500000 1.000000
vt 0.750000 0.666667
vt 0.750000 0.333333
vn 0.4021 -0.2971 0.8660
s off
mtllib leafwood.mtl
usemtl Leaves
f 1/1/1 2/2/1 6/3/1 3/4/1
f 1/1/1 3/4/1 5/5/1 4/6/1
