# Blender v3.4.0 OBJ File: 'apple_tree2_sapling_05_8_2_2.blend'
# www.blender.org
o leaves.164
v -0.084208 -0.055204 1.368030
v -0.152572 -0.107751 1.480798
v -0.082715 -0.098458 1.408346
v -0.131277 -0.046982 1.402893
v -0.154065 -0.064497 1.440482
v -0.105503 -0.115974 1.445935
vt 0.500000 0.000000
vt 0.500000 1.000000
vt 0.750000 0.666667
vt 0.750000 0.333333
vt 0.250000 0.333333
vt 0.250000 0.666667
vn 0.5477 0.5805 0.6025
s off
mtllib leafwood.mtl
usemtl Leaves
f 1/1/1 2/2/1 6/3/1 3/4/1
f 1/1/1 4/5/1 5/6/1 2/2/1
