# Blender v3.4.0 OBJ File: 'apple_tree2_sapling_05_8_2_2.blend'
# www.blender.org
o leaves.185
v 0.010948 0.348754 1.456964
v 0.027630 0.372462 1.450493
v 0.009773 0.419912 1.452879
v -0.006517 0.372485 1.460712
v -0.006908 0.396204 1.459350
v 0.027238 0.396182 1.449131
vt 0.500000 0.000000
vt 0.250000 0.333333
vt 0.250000 0.666667
vt 0.500000 1.000000
vt 0.750000 0.666667
vt 0.750000 0.333333
vn 0.2862 0.0596 0.9563
s off
mtllib leafwood.mtl
usemtl Leaves
f 1/1/1 2/2/1 6/3/1 3/4/1
f 1/1/1 3/4/1 5/5/1 4/6/1
