# Blender v3.4.0 OBJ File: 'apple_tree2_sapling_05_8_2_2.blend'
# www.blender.org
o leaves.069
v -0.330227 -0.064181 0.963762
v -0.357127 -0.048797 0.963762
v -0.404028 -0.073380 0.963762
v -0.352528 -0.085698 0.963762
v -0.377128 -0.088764 0.963762
v -0.381727 -0.051863 0.963762
vt 0.500000 0.000000
vt 0.250000 0.333333
vt 0.250000 0.666667
vt 0.500000 1.000000
vt 0.750000 0.666667
vt 0.750000 0.333333
vn 0.0000 0.0000 1.0000
s off
mtllib leafwood.mtl
usemtl Leaves
f 1/1/1 2/2/1 6/3/1 3/4/1
f 1/1/1 3/4/1 5/5/1 4/6/1
