# Blender v3.4.0 OBJ File: 'apple_tree2_sapling_05_8_2_2.blend'
# www.blender.org
o leaves.241
v 0.070884 0.158431 1.999367
v 0.061584 0.152100 2.035635
v 0.068536 0.197112 2.081851
v 0.078618 0.190549 2.018089
v 0.077836 0.203443 2.045583
v 0.060801 0.164994 2.063130
vt 0.500000 0.000000
vt 0.250000 0.333333
vt 0.250000 0.666667
vt 0.500000 1.000000
vt 0.750000 0.666667
vt 0.750000 0.333333
vn -0.9271 0.3284 -0.1804
s off
mtllib leafwood.mtl
usemtl Leaves
f 1/1/1 2/2/1 6/3/1 3/4/1
f 1/1/1 3/4/1 5/5/1 4/6/1
