# Blender v3.4.0 OBJ File: 'apple_tree2_sapling_05_8_2_2.blend'
# www.blender.org
o leaves.106
v -0.208150 -0.194455 1.108779
v -0.193871 -0.162481 1.113287
v -0.174781 -0.199876 1.118956
v -0.136677 -0.154627 1.130807
v -0.150956 -0.186600 1.126298
v -0.170047 -0.149205 1.120630
vt 0.500000 0.000000
vt 0.500000 1.000000
vt 0.750000 0.666667
vt 0.750000 0.333333
vt 0.250000 0.333333
vt 0.250000 0.666667
vn -0.2923 -0.0043 0.9563
s off
mtllib leafwood.mtl
usemtl Leaves
f 1/1/1 4/2/1 6/3/1 2/4/1
f 1/1/1 3/5/1 5/6/1 4/2/1
