# Blender v3.4.0 OBJ File: 'apple_tree2_sapling_05_8_2_2.blend'
# www.blender.org
o leaves.097
v 0.243155 0.117434 1.130474
v 0.269370 0.124905 1.118243
v 0.277810 0.170605 1.097103
v 0.240043 0.145410 1.120459
v 0.251595 0.163134 1.109335
v 0.280922 0.142629 1.107119
vt 0.500000 0.000000
vt 0.250000 0.333333
vt 0.250000 0.666667
vt 0.500000 1.000000
vt 0.750000 0.666667
vt 0.750000 0.333333
vn 0.3120 0.3508 0.8829
s off
mtllib leafwood.mtl
usemtl Leaves
f 1/1/1 2/2/1 6/3/1 3/4/1
f 1/1/1 3/4/1 5/5/1 4/6/1
