# Blender v3.4.0 OBJ File: 'apple_tree2_sapling_05_8_2_2.blend'
# www.blender.org
o leaves.045
v 0.105268 0.210933 0.808178
v 0.067082 0.225308 0.807094
v 0.042398 0.262310 0.753369
v 0.101541 0.230809 0.772723
v 0.080584 0.247935 0.754453
v 0.046125 0.242434 0.788824
vt 0.500000 0.000000
vt 0.250000 0.333333
vt 0.250000 0.666667
vt 0.500000 1.000000
vt 0.750000 0.666667
vt 0.750000 0.333333
vn -0.3052 -0.8440 -0.4411
s off
mtllib leafwood.mtl
usemtl Leaves
f 1/1/1 2/2/1 6/3/1 3/4/1
f 1/1/1 3/4/1 5/5/1 4/6/1
