# Blender v3.4.0 OBJ File: 'apple_tree2_sapling_05_8_2_2.blend'
# www.blender.org
o leaves.213
v 0.033319 -0.120616 1.716579
v -0.001826 -0.135047 1.685975
v 0.014518 -0.172607 1.613368
v 0.055931 -0.140845 1.678375
v 0.049664 -0.158176 1.643971
v -0.008093 -0.152377 1.651572
vt 0.500000 0.000000
vt 0.250000 0.333333
vt 0.250000 0.666667
vt 0.500000 1.000000
vt 0.750000 0.666667
vt 0.750000 0.333333
vn -0.0297 -0.8905 0.4540
s off
mtllib leafwood.mtl
usemtl Leaves
f 1/1/1 2/2/1 6/3/1 3/4/1
f 1/1/1 3/4/1 5/5/1 4/6/1
