# Blender v3.4.0 OBJ File: 'apple_tree2_sapling_05_8_2_2.blend'
# www.blender.org
o leaves.088
v 0.121397 0.140043 0.959502
v 0.123525 0.165994 0.917074
v 0.197034 0.185625 0.879032
v 0.169694 0.144480 0.948283
v 0.194907 0.159674 0.921460
v 0.148737 0.181188 0.890251
vt 0.500000 0.000000
vt 0.250000 0.333333
vt 0.250000 0.666667
vt 0.500000 1.000000
vt 0.750000 0.666667
vt 0.750000 0.333333
vn -0.0432 -0.8513 -0.5229
s off
mtllib leafwood.mtl
usemtl Leaves
f 1/1/1 2/2/1 6/3/1 3/4/1
f 1/1/1 3/4/1 5/5/1 4/6/1
