# Blender v3.4.0 OBJ File: 'apple_tree2_sapling_05_8_2_2.blend'
# www.blender.org
o leaves.204
v -0.241602 0.225959 1.625347
v -0.230870 0.260592 1.616463
v -0.272780 0.244790 1.617171
v -0.272272 0.306154 1.599755
v -0.283004 0.271521 1.608640
v -0.241093 0.287324 1.607932
vt 0.500000 0.000000
vt 0.500000 1.000000
vt 0.750000 0.666667
vt 0.750000 0.333333
vt 0.250000 0.333333
vt 0.250000 0.666667
vn 0.0866 -0.2727 -0.9582
s off
mtllib leafwood.mtl
usemtl Leaves
f 1/1/1 4/2/1 6/3/1 2/4/1
f 1/1/1 3/5/1 5/6/1 4/2/1
