# Blender v3.4.0 OBJ File: 'apple_tree2_sapling_05_8_2_2.blend'
# www.blender.org
o leaves.086
v 0.058650 0.025035 0.979451
v 0.069566 0.077185 0.995479
v 0.126766 0.134969 0.946202
v 0.093145 0.046175 0.941257
v 0.115850 0.082820 0.930174
v 0.092271 0.113829 0.984397
vt 0.500000 0.000000
vt 0.250000 0.333333
vt 0.250000 0.666667
vt 0.500000 1.000000
vt 0.750000 0.666667
vt 0.750000 0.333333
vn -0.7843 0.3263 -0.5277
s off
mtllib leafwood.mtl
usemtl Leaves
f 1/1/1 2/2/1 6/3/1 3/4/1
f 1/1/1 3/4/1 5/5/1 4/6/1
