# Blender v3.4.0 OBJ File: 'apple_tree2_sapling_05_8_2_2.blend'
# www.blender.org
o leaves.052
v 0.228602 0.064565 0.895839
v 0.261175 0.050159 0.889268
v 0.284911 0.004423 0.923546
v 0.233568 0.038876 0.920881
v 0.252337 0.018828 0.930117
v 0.279945 0.030112 0.898504
vt 0.500000 0.000000
vt 0.250000 0.333333
vt 0.250000 0.666667
vt 0.500000 1.000000
vt 0.750000 0.666667
vt 0.750000 0.333333
vn -0.4205 -0.6737 -0.6077
s off
mtllib leafwood.mtl
usemtl Leaves
f 1/1/1 2/2/1 6/3/1 3/4/1
f 1/1/1 3/4/1 5/5/1 4/6/1
