# Blender v3.4.0 OBJ File: 'apple_tree2_sapling_05_8_2_2.blend'
# www.blender.org
o leaves.268
v -0.213039 -0.111466 2.660627
v -0.240235 -0.128547 2.666563
v -0.203735 -0.142588 2.664011
v -0.239876 -0.183771 2.674606
v -0.212680 -0.166690 2.668670
v -0.249180 -0.152649 2.671223
vt 0.500000 0.000000
vt 0.500000 1.000000
vt 0.750000 0.666667
vt 0.750000 0.333333
vt 0.250000 0.333333
vt 0.250000 0.666667
vn -0.1240 -0.1438 -0.9818
s off
mtllib leafwood.mtl
usemtl Leaves
f 1/1/1 4/2/1 6/3/1 2/4/1
f 1/1/1 3/5/1 5/6/1 4/2/1
