# Blender v3.4.0 OBJ File: 'apple_tree2_sapling_05_8_2_2.blend'
# www.blender.org
o leaves.187
v 0.279338 0.034630 1.558186
v 0.311884 0.022255 1.578527
v 0.335183 -0.042519 1.575390
v 0.284022 -0.004428 1.549314
v 0.302637 -0.030144 1.555049
v 0.330499 -0.003461 1.584262
vt 0.500000 0.000000
vt 0.500000 1.000000
vt 0.750000 0.666667
vt 0.750000 0.333333
vt 0.250000 0.333333
vt 0.250000 0.666667
vn -0.5793 -0.2460 0.7771
s off
mtllib leafwood.mtl
usemtl Leaves
f 1/1/1 3/2/1 6/3/1 2/4/1
f 1/1/1 4/5/1 5/6/1 3/2/1
