# Blender v3.4.0 OBJ File: 'apple_tree2_sapling_05_8_2_2.blend'
# www.blender.org
o leaves.003
v 0.156308 0.112824 0.746256
v 0.199499 0.124650 0.760792
v 0.213882 0.154399 0.834145
v 0.151500 0.128715 0.790312
v 0.170691 0.142573 0.819609
v 0.218691 0.138509 0.790089
vt 0.500000 0.000000
vt 0.250000 0.333333
vt 0.250000 0.666667
vt 0.500000 1.000000
vt 0.750000 0.666667
vt 0.750000 0.333333
vn 0.1363 -0.9271 0.3493
s off
mtllib leafwood.mtl
usemtl Leaves
f 1/1/1 2/2/1 6/3/1 3/4/1
f 1/1/1 3/4/1 5/5/1 4/6/1
