# Blender v3.4.0 OBJ File: 'apple_tree2_sapling_05_8_2_2.blend'
# www.blender.org
o leaves.177
v 0.126374 0.087587 1.505954
v 0.143470 0.053618 1.532674
v 0.163521 0.064989 1.608675
v 0.134043 0.106491 1.547714
v 0.146425 0.098958 1.581955
v 0.155852 0.046086 1.566914
vt 0.500000 0.000000
vt 0.250000 0.333333
vt 0.250000 0.666667
vt 0.500000 1.000000
vt 0.750000 0.666667
vt 0.750000 0.333333
vn -0.9276 -0.2455 0.2815
s off
mtllib leafwood.mtl
usemtl Leaves
f 1/1/1 2/2/1 6/3/1 3/4/1
f 1/1/1 3/4/1 5/5/1 4/6/1
