# Blender v3.4.0 OBJ File: 'apple_tree2_sapling_05_8_2_2.blend'
# www.blender.org
o leaves.039
v -0.044821 -0.232548 0.800612
v -0.080927 -0.223739 0.798628
v -0.127099 -0.267180 0.803692
v -0.063567 -0.264445 0.804650
v -0.090993 -0.275990 0.805676
v -0.108353 -0.235283 0.799655
vt 0.500000 0.000000
vt 0.250000 0.333333
vt 0.250000 0.666667
vt 0.500000 1.000000
vt 0.750000 0.666667
vt 0.750000 0.333333
vn -0.0209 0.1376 0.9903
s off
mtllib leafwood.mtl
usemtl Leaves
f 1/1/1 2/2/1 6/3/1 3/4/1
f 1/1/1 3/4/1 5/5/1 4/6/1
