# Blender v3.4.0 OBJ File: 'apple_tree2_sapling_05_8_2_2.blend'
# www.blender.org
o leaves.249
v -0.094368 -0.209698 2.082838
v -0.129776 -0.205881 2.077335
v -0.168180 -0.253903 2.074033
v -0.108168 -0.242984 2.082471
v -0.132772 -0.257719 2.079536
v -0.154380 -0.220616 2.074400
vt 0.500000 0.000000
vt 0.250000 0.333333
vt 0.250000 0.666667
vt 0.500000 1.000000
vt 0.750000 0.666667
vt 0.750000 0.333333
vn -0.1481 0.0505 0.9877
s off
mtllib leafwood.mtl
usemtl Leaves
f 1/1/1 2/2/1 6/3/1 3/4/1
f 1/1/1 3/4/1 5/5/1 4/6/1
