# Blender v3.4.0 OBJ File: 'apple_tree2_sapling_05_8_2_2.blend'
# www.blender.org
o leaves.229
v 0.143204 0.277596 1.762275
v 0.169088 0.253958 1.749761
v 0.230602 0.259333 1.764999
v 0.175586 0.289058 1.776606
v 0.204718 0.282970 1.777514
v 0.198220 0.247871 1.750669
vt 0.500000 0.000000
vt 0.250000 0.333333
vt 0.250000 0.666667
vt 0.500000 1.000000
vt 0.750000 0.666667
vt 0.750000 0.333333
vn -0.1469 -0.5836 0.7986
s off
mtllib leafwood.mtl
usemtl Leaves
f 1/1/1 2/2/1 6/3/1 3/4/1
f 1/1/1 3/4/1 5/5/1 4/6/1
