# Blender v3.4.0 OBJ File: 'apple_tree2_sapling_05_8_2_2.blend'
# www.blender.org
o leaves.064
v -0.265902 -0.163693 0.870980
v -0.299319 -0.158853 0.876518
v -0.335361 -0.202364 0.891564
v -0.278792 -0.194314 0.879164
v -0.301944 -0.207205 0.886026
v -0.322472 -0.171743 0.883379
vt 0.500000 0.000000
vt 0.250000 0.333333
vt 0.250000 0.666667
vt 0.500000 1.000000
vt 0.750000 0.666667
vt 0.750000 0.333333
vn 0.1861 0.1798 0.9659
s off
mtllib leafwood.mtl
usemtl Leaves
f 1/1/1 2/2/1 6/3/1 3/4/1
f 1/1/1 3/4/1 5/5/1 4/6/1
