# Blender v3.4.0 OBJ File: 'apple_tree2_sapling_05_8_2_2.blend'
# www.blender.org
o leaves.147
v -0.077180 0.033544 1.280109
v -0.118103 0.028443 1.248061
v -0.173255 0.096084 1.229415
v -0.100308 0.080339 1.278360
v -0.132333 0.101185 1.261462
v -0.150128 0.049289 1.231163
vt 0.500000 0.000000
vt 0.250000 0.333333
vt 0.250000 0.666667
vt 0.500000 1.000000
vt 0.750000 0.666667
vt 0.750000 0.333333
vn 0.5761 0.2557 -0.7763
s off
mtllib leafwood.mtl
usemtl Leaves
f 1/1/1 2/2/1 6/3/1 3/4/1
f 1/1/1 3/4/1 5/5/1 4/6/1
