# Blender v3.4.0 OBJ File: 'apple_tree2_sapling_05_8_2_2.blend'
# www.blender.org
o leaves.015
v -0.019986 0.089092 0.738894
v -0.022969 0.130895 0.707364
v -0.087024 0.140095 0.645367
v -0.061695 0.081291 0.708072
v -0.084041 0.098292 0.676897
v -0.045315 0.147895 0.676189
vt 0.500000 0.000000
vt 0.250000 0.333333
vt 0.250000 0.666667
vt 0.500000 1.000000
vt 0.750000 0.666667
vt 0.750000 0.333333
vn -0.5811 0.4632 0.6691
s off
mtllib leafwood.mtl
usemtl Leaves
f 1/1/1 2/2/1 6/3/1 3/4/1
f 1/1/1 3/4/1 5/5/1 4/6/1
