# Blender v3.4.0 OBJ File: 'apple_tree2_sapling_05_8_2_2.blend'
# www.blender.org
o leaves.063
v -0.236647 -0.132770 0.865581
v -0.212683 -0.164917 0.858150
v -0.143149 -0.160452 0.857188
v -0.198279 -0.119078 0.867418
v -0.167113 -0.128305 0.864620
v -0.181517 -0.174144 0.855352
vt 0.500000 0.000000
vt 0.250000 0.333333
vt 0.250000 0.666667
vt 0.500000 1.000000
vt 0.750000 0.666667
vt 0.750000 0.333333
vn 0.0268 -0.2062 0.9781
s off
mtllib leafwood.mtl
usemtl Leaves
f 1/1/1 2/2/1 6/3/1 3/4/1
f 1/1/1 3/4/1 5/5/1 4/6/1
