# Blender v3.4.0 OBJ File: 'apple_tree2_sapling_05_8_2_2.blend'
# www.blender.org
o leaves.087
v 0.099732 0.076729 0.974073
v 0.143766 0.103310 0.986142
v 0.142242 0.185268 1.023969
v 0.084037 0.122507 0.995268
v 0.098207 0.158687 1.011900
v 0.157936 0.139489 1.002774
vt 0.500000 0.000000
vt 0.250000 0.333333
vt 0.250000 0.666667
vt 0.500000 1.000000
vt 0.750000 0.666667
vt 0.750000 0.333333
vn 0.0041 -0.4190 0.9080
s off
mtllib leafwood.mtl
usemtl Leaves
f 1/1/1 2/2/1 6/3/1 3/4/1
f 1/1/1 3/4/1 5/5/1 4/6/1
