# Blender v3.4.0 OBJ File: 'apple_tree2_sapling_05_8_2_2.blend'
# www.blender.org
o leaves.203
v -0.227871 0.200793 1.616483
v -0.224692 0.238032 1.603646
v -0.256634 0.289580 1.633355
v -0.250225 0.222745 1.640567
v -0.259813 0.252340 1.646191
v -0.234280 0.267628 1.609270
vt 0.500000 0.000000
vt 0.250000 0.333333
vt 0.250000 0.666667
vt 0.500000 1.000000
vt 0.750000 0.666667
vt 0.750000 0.333333
vn 0.7862 0.1403 0.6018
s off
mtllib leafwood.mtl
usemtl Leaves
f 1/1/1 2/2/1 6/3/1 3/4/1
f 1/1/1 3/4/1 5/5/1 4/6/1
