# Blender v3.4.0 OBJ File: 'apple_tree2_sapling_05_8_2_2.blend'
# www.blender.org
o leaves.250
v -0.109313 -0.218534 2.092885
v -0.136630 -0.232364 2.077767
v -0.191128 -0.215142 2.089527
v -0.136539 -0.202442 2.105763
v -0.163810 -0.201312 2.104644
v -0.163902 -0.231234 2.076648
vt 0.500000 0.000000
vt 0.250000 0.333333
vt 0.250000 0.666667
vt 0.500000 1.000000
vt 0.750000 0.666667
vt 0.750000 0.333333
vn 0.0582 0.6820 -0.7291
s off
mtllib leafwood.mtl
usemtl Leaves
f 1/1/1 2/2/1 6/3/1 3/4/1
f 1/1/1 3/4/1 5/5/1 4/6/1
