# Blender v3.4.0 OBJ File: 'apple_tree2_sapling_05_8_2_2.blend'
# www.blender.org
o leaves.075
v 0.088372 -0.056549 0.918365
v 0.115666 -0.080962 0.881546
v 0.152811 -0.160508 0.894447
v 0.104038 -0.101443 0.939238
v 0.125517 -0.136096 0.931265
v 0.137145 -0.115615 0.873574
vt 0.500000 0.000000
vt 0.250000 0.333333
vt 0.250000 0.666667
vt 0.500000 1.000000
vt 0.750000 0.666667
vt 0.750000 0.333333
vn -0.8354 -0.4429 -0.3256
s off
mtllib leafwood.mtl
usemtl Leaves
f 1/1/1 2/2/1 6/3/1 3/4/1
f 1/1/1 3/4/1 5/5/1 4/6/1
