# Blender v3.4.0 OBJ File: 'apple_tree2_sapling_05_8_2_2.blend'
# www.blender.org
o leaves.195
v -0.065353 0.059351 1.563468
v -0.117934 0.066365 1.551710
v -0.151504 0.146323 1.518544
v -0.070207 0.110318 1.545276
v -0.098924 0.139308 1.530301
v -0.146651 0.095356 1.536736
vt 0.500000 0.000000
vt 0.500000 1.000000
vt 0.750000 0.666667
vt 0.750000 0.333333
vt 0.250000 0.333333
vt 0.250000 0.666667
vn -0.1664 0.3174 0.9336
s off
mtllib leafwood.mtl
usemtl Leaves
f 1/1/1 3/2/1 6/3/1 2/4/1
f 1/1/1 4/5/1 5/6/1 3/2/1
