# Blender v3.4.0 OBJ File: 'apple_tree2_sapling_05_8_2_2.blend'
# www.blender.org
o leaves.002
v 0.135632 0.074035 0.721887
v 0.130850 0.103697 0.763278
v 0.140934 0.190464 0.760407
v 0.143949 0.121992 0.706176
v 0.145716 0.160802 0.719016
v 0.132617 0.142507 0.776118
vt 0.500000 0.000000
vt 0.250000 0.333333
vt 0.250000 0.666667
vt 0.500000 1.000000
vt 0.750000 0.666667
vt 0.750000 0.333333
vn -0.9760 0.1072 -0.1896
s off
mtllib leafwood.mtl
usemtl Leaves
f 1/1/1 2/2/1 6/3/1 3/4/1
f 1/1/1 3/4/1 5/5/1 4/6/1
