# Blender v3.4.0 OBJ File: 'apple_tree2_sapling_05_8_2_2.blend'
# www.blender.org
o leaves.200
v -0.165918 0.142854 1.606447
v -0.189425 0.142462 1.643080
v -0.156013 0.179540 1.627677
v -0.186322 0.197296 1.693241
v -0.162815 0.197688 1.656609
v -0.196226 0.160610 1.672012
vt 0.500000 0.000000
vt 0.500000 1.000000
vt 0.750000 0.666667
vt 0.750000 0.333333
vt 0.250000 0.333333
vt 0.250000 0.666667
vn 0.7434 -0.4738 0.4720
s off
mtllib leafwood.mtl
usemtl Leaves
f 1/1/1 4/2/1 6/3/1 2/4/1
f 1/1/1 3/5/1 5/6/1 4/2/1
